<svg width="35" height="44" viewBox="0 0 35 44" fill="none" xmlns="http://www.w3.org/2000/svg">
<path d="M31.9152 36.3237H28.3873V35.3111H31.9152V36.3237ZM10.2255 15.2873C12.4141 15.2873 14.2107 13.5561 14.2107 11.4001C14.2107 9.27691 12.4141 7.51299 10.2255 7.51299C8.03694 7.51299 6.24036 9.24425 6.24036 11.4001C6.27302 13.5561 8.03694 15.2873 10.2255 15.2873ZM31.9152 41.1255H28.3873V42.1381H31.9152V41.1255ZM31.9152 17.6392H28.3873V18.6518H31.9152V17.6392ZM31.9152 29.4313H28.3873V30.4439H31.9152V29.4313ZM31.9152 23.5516H28.3873V24.5642H31.9152V23.5516ZM28.3873 26.6221H34.2671V25.6095H28.3873V26.6221ZM28.3873 20.7751H34.2671V19.7624H28.3873V20.7751ZM28.3873 13.948V14.9607H34.2671V13.948H28.3873ZM28.3873 32.4365H34.2671V31.4239H28.3873V32.4365ZM28.3873 44H34.2671V42.9874H28.3873V44ZM25.2188 9.86489L26.9827 9.66889V44H1.01393V42.5301H6.46901C5.78304 42.1381 5.3584 41.3868 5.3584 40.6028V24.9235C4.63976 26.1975 3.92113 27.4714 3.20249 28.7454C2.48386 29.3987 1.40591 29.464 0.719941 28.9414C0.197298 28.5494 -0.0640234 27.8634 0.0339721 27.1774L4.63976 17.6719C5.06441 16.8226 5.9137 16.2673 6.89366 16.2673H13.5247C14.472 16.2673 15.3539 16.7899 15.7459 17.6392C17.2812 20.7424 18.8165 23.8456 20.319 26.9488C20.4497 27.7654 19.9924 28.582 19.2738 28.9414C18.6205 29.268 17.8365 29.17 17.2159 28.7454L15.06 24.9235V40.6355C15.06 41.1255 14.8966 41.6154 14.57 42.0074C14.4067 42.2361 14.178 42.3994 13.9167 42.5301H25.1862V9.86489H25.2188ZM11.7281 42.5301C11.4995 42.3994 11.3035 42.2361 11.1401 42.0401C10.7808 41.6481 10.6175 41.1255 10.6175 40.6028V31.9139H9.80086V40.6028C9.80086 41.2888 9.47421 41.9748 8.88624 42.3994C8.82091 42.4647 8.75558 42.4974 8.65758 42.5301H11.7281ZM28.3873 38.2509H34.2671V37.2383H28.3873V38.2509ZM26.1661 10.6815H21.2663L26.1661 0V10.6815ZM26.1661 0L31.0659 10.6815H26.1661V0Z" fill="#E30929"/>
</svg>
