<svg width="64" height="60" viewBox="0 0 64 60" fill="none" xmlns="http://www.w3.org/2000/svg">
<g filter="url(#filter0_d)">
<path d="M53.8009 20.2136C53.3188 23.1062 51.0689 25.3561 48.1762 25.3561C48.819 26.1596 49.3011 27.2846 49.1404 28.8916C49.1404 29.0523 48.9797 29.213 48.6583 29.213C48.3369 29.213 48.1762 28.8916 48.3369 28.7309C48.6583 26.3203 46.8906 25.1954 46.7299 25.0347C46.5691 24.874 46.4084 24.5526 46.5691 24.3919C46.7299 24.2312 47.0513 24.0705 47.212 24.2312C47.5334 24.2312 47.8548 24.3919 48.1762 24.3919C50.9082 24.3919 52.9973 22.142 52.9973 19.2493C52.9973 19.0886 52.9973 18.9279 52.9973 18.7672V18.6065C52.9973 18.4458 52.9973 18.2851 52.9973 18.2851C52.8366 17.6423 52.6759 17.1602 52.3545 16.6781C51.8724 15.7138 51.0689 14.7496 49.944 14.2675L49.6225 14.1068C49.6225 14.1068 49.4618 14.1068 49.4618 13.9461H49.3011C49.3011 13.9461 49.3011 13.9461 49.1404 13.9461H48.9797H48.819H48.6583H48.4976C48.3369 13.9461 48.3369 13.9461 48.1762 13.9461C48.0155 13.9461 48.0155 13.9461 47.8548 13.9461H47.0513L46.8906 13.7854C45.9263 12.1783 44.3193 11.3748 42.3908 11.3748C41.9087 11.3748 41.5873 11.3748 41.1052 11.5355H40.7838L40.6231 11.3748C39.1767 9.76775 37.2483 8.96423 35.1591 8.96423C34.0342 8.96423 33.0699 9.12493 32.1057 9.60705L31.945 9.76775L31.7843 9.60705C30.8201 8.32141 29.6951 8 28.7309 8C27.7667 8 26.6418 8.32141 25.6775 8.96423C27.4453 9.92846 28.5702 11.8569 28.7309 14.1068C28.7309 14.2675 28.7309 14.4282 28.7309 14.4282C28.7309 14.5889 28.5702 14.9103 28.2488 14.9103C27.9274 14.9103 27.7667 14.7496 27.7667 14.4282C27.7667 14.4282 27.7667 14.2675 27.7667 14.1068C27.7667 14.1068 27.7667 14.1068 27.7667 13.9461C27.606 11.5355 25.8382 9.44634 23.7491 9.12493H23.5884H23.4277C23.267 9.12493 23.1062 9.12493 23.1062 9.12493C21.0171 9.12493 19.2493 10.2499 18.2851 12.0176V12.339H18.1244H17.9637C14.7496 12.6604 12.1783 15.071 11.6962 18.2851V18.4458L11.3748 18.6065C9.28564 19.5707 8 21.4992 8 23.7491C8 24.5526 8.1607 25.3561 8.48211 26.1596V26.3203L8.32141 26.4811C8.1607 27.2846 8 28.0881 8 29.0523C8 31.4629 9.44634 33.5521 11.5355 34.5163C11.6962 31.3022 13.7854 28.5702 16.6781 27.2846L16.9995 27.1239C17.1602 26.9632 17.4816 27.1239 17.6423 27.4453C17.803 27.606 17.6423 27.9274 17.4816 28.0881C14.5889 29.0523 12.4997 31.945 12.4997 35.1591C12.4997 35.3198 12.4997 35.4805 12.4997 35.6412C12.4997 35.8019 12.4997 35.9626 12.4997 36.1233C12.4997 36.6055 12.6604 37.0876 12.6604 37.5697C13.6247 41.1052 16.5174 43.6765 20.0529 43.9979C20.3743 43.9979 20.535 43.9979 20.8564 43.9979C21.1778 43.9979 21.4992 43.9979 21.6599 43.9979H22.3027L21.8206 47.3727C21.6599 48.4976 21.9813 49.6225 22.7848 50.4261C24.0705 51.7117 26.1596 51.0689 26.6418 49.4618V49.3011C26.6418 48.9797 26.8025 48.819 26.8025 48.4976C27.1239 44.1586 30.9808 40.7838 34.677 40.3017C34.677 40.3017 34.677 40.3017 34.8377 40.3017C34.9984 40.3017 35.1591 40.3017 35.3198 40.3017H35.4805C35.6412 40.3017 35.8019 40.3017 35.9626 40.3017C36.284 40.3017 36.6055 40.3017 36.9269 40.141C38.8553 39.8195 40.6231 38.8553 41.748 37.7304C42.2301 37.2483 42.5515 36.6054 42.8729 35.9626C43.1944 35.1591 43.3551 34.1949 43.1943 33.3914C42.8729 31.4629 41.4266 30.0166 39.3374 29.213C39.3374 29.0523 39.3374 29.0523 39.3374 28.8916C39.3374 28.7309 39.4981 28.5702 39.6588 28.4095C41.9087 29.213 43.6765 30.9808 43.9979 33.2306C44.1586 33.8735 44.1586 34.3556 43.9979 34.9984C44.48 34.9984 44.9621 34.8377 45.4442 34.677H45.6049H45.7656C46.2477 34.677 46.7299 34.8377 47.212 34.8377C51.8724 34.8377 55.7293 30.9808 55.7293 26.3203C55.7293 23.7491 55.0865 21.8206 53.8009 20.2136ZM15.7138 20.8564C15.7138 20.8564 15.2317 21.9813 15.2317 22.9455C15.2317 23.267 15.071 23.4277 14.7496 23.4277H14.5889C14.4282 23.4277 14.1068 23.267 14.1068 22.9455C14.1068 21.6599 14.5889 20.535 14.5889 20.535C14.5889 20.535 15.2317 18.7672 16.9995 17.6423C18.7672 16.5174 20.3743 16.6781 20.3743 16.6781C20.3743 16.6781 20.3743 16.6781 20.535 16.6781C20.8564 16.6781 21.0171 16.8388 21.0171 17.1602C21.0171 17.4816 20.8564 17.6423 20.535 17.6423C20.535 17.6423 19.0886 17.6423 17.6423 18.4458C16.1959 19.41 15.7138 20.8564 15.7138 20.8564ZM25.6775 37.2483C25.6775 37.2483 24.0705 38.3732 22.142 38.3732C21.6599 38.3732 21.1778 38.3732 20.535 38.2125C20.535 38.2125 20.3743 38.2125 20.2136 38.0518C19.7315 37.8911 18.1244 37.2483 16.9995 35.6412C16.8388 35.4805 16.8388 35.1591 17.1602 34.9984C17.3209 34.8377 17.4816 34.9984 17.6423 34.9984C17.803 34.9984 17.9637 34.9984 17.9637 35.1591C18.9279 36.4447 20.0529 36.9269 20.535 37.0876C22.7848 37.7304 24.874 36.4447 24.874 36.4447C25.0347 36.284 25.1954 36.4447 25.3561 36.4447C25.5168 36.4447 25.6775 36.4447 25.6775 36.6054C25.9989 36.7662 25.9989 37.0876 25.6775 37.2483ZM45.6049 18.9279C44.6407 18.9279 43.9979 18.6065 43.8372 18.6065C43.1943 18.4458 42.7122 18.1244 42.2301 17.803C41.1052 16.9995 40.4624 15.8745 40.4624 15.8745C40.3017 15.7138 40.4624 15.3924 40.6231 15.2317C40.7838 15.071 41.1052 15.2317 41.1052 15.3924C41.2659 15.3924 41.2659 15.5531 41.4266 15.5531C41.4266 15.5531 41.9087 16.3566 42.7122 16.9995C43.0336 17.1602 43.5158 17.4816 43.8372 17.6423C43.8372 17.6423 45.7656 18.2851 47.6941 17.1602C47.8548 16.9995 48.1762 17.1602 48.3369 17.3209C48.4976 17.3209 48.4976 17.4816 48.6583 17.4816C48.819 17.6423 48.6583 17.9637 48.4976 18.1244C47.3727 18.7672 46.4084 18.9279 45.6049 18.9279Z" fill="#E30929"/>
</g>
<path d="M20.3406 32C23.2572 32 25.1058 30.261 25.1058 27.5224C25.1058 24.8386 23.2983 23.1407 20.3954 23.1407H18.0539C17.2187 23.1407 16.6162 23.6747 16.6162 24.6743V30.4938C16.6162 31.329 17.3145 32 18.1498 32H20.3406ZM19.3411 29.6722V25.4685H20.3133C21.5867 25.4685 22.3946 26.2079 22.3946 27.5361C22.3946 28.9054 21.5456 29.6722 20.2722 29.6722H19.3411ZM27.6311 32.0685C28.439 32.0685 28.8361 31.644 28.8361 30.795V28.7H31.6705V30.795C31.6705 31.644 32.0539 32.0685 32.8207 32.0685H33.2178C34.0257 32.0685 34.4228 31.644 34.4228 30.795V24.3457C34.4228 23.4967 34.0257 23.0723 33.2178 23.0723H32.8207C32.0539 23.0723 31.6705 23.4967 31.6705 24.3457V26.3996H28.8361V24.3457C28.8361 23.4967 28.439 23.0723 27.6311 23.0723H27.234C26.4535 23.0723 26.0701 23.4967 26.0701 24.3457V30.795C26.0701 31.644 26.4535 32.0685 27.234 32.0685H27.6311ZM38.7387 28.1934L39.6972 25.6191L40.642 28.1934H38.7387ZM41.135 30.1652L41.3814 30.8224C41.7648 31.8083 42.3673 32.1232 42.9561 32.1232C43.7914 32.1232 44.5308 31.4934 44.4213 31.2469L41.4362 23.8391C41.2856 23.3872 40.998 23.0723 39.7383 23.0723C38.4786 23.0723 38.1362 23.3872 37.9856 23.8391L35.1101 31.2743C35.0416 31.5344 35.7674 32.1232 36.5342 32.1232C37.123 32.1232 37.6981 31.7946 38.0267 30.8498L38.2869 30.1652H41.135Z" fill="#FFF6C2"/>
<defs>
<filter id="filter0_d" x="0" y="0" width="63.7293" height="59.11" filterUnits="userSpaceOnUse" color-interpolation-filters="sRGB">
<feFlood flood-opacity="0" result="BackgroundImageFix"/>
<feColorMatrix in="SourceAlpha" type="matrix" values="0 0 0 0 0 0 0 0 0 0 0 0 0 0 0 0 0 0 127 0" result="hardAlpha"/>
<feOffset/>
<feGaussianBlur stdDeviation="4"/>
<feColorMatrix type="matrix" values="0 0 0 0 1 0 0 0 0 1 0 0 0 0 1 0 0 0 1 0"/>
<feBlend mode="normal" in2="BackgroundImageFix" result="effect1_dropShadow"/>
<feBlend mode="normal" in="SourceGraphic" in2="effect1_dropShadow" result="shape"/>
</filter>
</defs>
</svg>
