<svg width="57" height="56" viewBox="0 0 57 56" fill="none" xmlns="http://www.w3.org/2000/svg">
<g filter="url(#filter0_d)">
<path d="M39.4642 42.1423C37.4558 43.8159 34.778 44.6527 31.5981 44.6527C27.2466 44.6527 25.4056 42.6443 23.5646 40.636C22.0583 38.9623 20.5521 37.2887 17.7069 37.2887C16.7027 37.2887 16.0332 37.6234 15.3638 38.1255C14.0249 39.4644 14.1922 42.1423 14.1922 42.1423V46.159C14.1922 46.9958 14.8617 47.6653 15.6985 47.6653C16.5353 47.6653 17.2048 46.9958 17.2048 46.159V42.1423V41.9749C17.2048 41.6402 17.3722 40.636 17.5395 40.3012C18.8784 40.3012 19.5479 41.1381 21.0542 42.6443C23.0625 44.8201 25.7404 47.6653 31.4307 47.6653C35.4475 47.6653 38.6274 46.4937 41.3052 44.318C41.9747 43.8159 41.9747 42.8117 41.4726 42.1423C41.1378 41.8075 40.1337 41.6402 39.4642 42.1423Z" fill="#E30929"/>
<path d="M17.7071 34.2761C19.8828 34.2761 20.887 35.113 21.8912 35.7824C22.728 36.4519 23.7322 37.1213 25.0711 37.1213C27.2469 37.1213 28.5858 35.7824 28.5858 33.6067V23.3975C28.5858 20.887 26.9121 19.8828 25.7406 19.8828C25.4059 19.8828 24.7364 19.5481 24.4017 19.046C21.8912 16.5356 20.5523 13.1883 20.5523 9.50628C20.5523 8.66946 19.8828 8 19.046 8C18.2092 8 17.5397 8.66946 17.5397 9.50628C17.5397 14.0251 19.2134 18.0418 22.2259 21.2218C22.8954 21.8912 24.0669 22.8954 25.5732 22.8954C25.5732 23.0628 25.5732 23.0628 25.5732 23.2301V33.4393C25.5732 33.6067 25.5732 33.6067 25.5732 33.7741C25.5732 33.7741 25.4059 33.7741 25.2385 33.7741C24.9038 33.7741 24.569 33.4393 23.8996 33.1046C22.728 32.2678 21.0544 31.0962 17.8745 31.0962C15.1967 31.0962 12.8536 32.1004 11.0126 33.9414C8 37.1213 8 41.4728 8 42.477V46.3264C8 47.1632 8.66946 47.8326 9.50628 47.8326C10.3431 47.8326 11.0126 47.1632 11.0126 46.3264V42.477C11.0126 42.1423 11.0126 38.4602 13.1883 36.1172C14.3598 34.9456 15.8661 34.2761 17.7071 34.2761Z" fill="#E30929"/>
<path d="M35.1134 23.0627L31.4314 29.4226C30.7619 30.4268 31.5988 31.7657 32.7703 31.7657H35.9502L33.7745 37.1213V37.2887C33.7745 37.456 33.9419 37.6234 34.2766 37.6234C34.4439 37.6234 34.6113 37.6234 34.7787 37.456L41.6406 30.092C42.3101 29.4226 41.808 28.251 40.8038 28.251H36.6197L39.6322 23.0627H35.1134Z" fill="#E30929"/>
<path d="M43.9835 14.3599C40.9709 11.5147 37.4563 11.3473 36.9542 11.5147C33.7743 11.5147 31.5985 13.021 30.0923 14.0252C29.5902 14.3599 29.2554 14.6946 28.9207 14.6946C27.5818 13.1883 26.9123 11.5147 26.9123 9.6737C26.9123 8.83688 26.2429 8.16742 25.4061 8.16742C24.4019 8.00006 23.7324 8.66951 23.7324 9.50633C23.7324 12.1842 24.7366 14.6946 26.4102 16.703C27.5818 18.0419 28.9207 18.0419 29.5902 17.8745C30.427 17.7072 31.0964 17.2051 31.9333 16.703C33.1048 15.6988 34.6111 14.6946 36.9542 14.6946C36.9542 14.6946 39.632 14.6946 41.8077 16.703C43.8161 18.7114 44.8203 21.8913 44.8203 26.0754C44.8203 26.0754 44.8203 26.0754 44.8203 26.2427C44.8203 26.2427 45.155 32.1005 43.1467 37.2888C42.8119 38.1256 43.1467 38.9624 43.9835 39.2971C44.1508 39.2971 44.3182 39.4645 44.6529 39.4645C45.3224 39.4645 45.8245 39.1298 46.1592 38.4603C48.5023 32.9373 48.1676 26.7448 48.1676 26.0754C47.8328 20.8871 46.4939 17.0377 43.9835 14.3599Z" fill="#E30929"/>
</g>
<defs>
<filter id="filter0_d" x="0" y="0" width="56.1841" height="55.8326" filterUnits="userSpaceOnUse" color-interpolation-filters="sRGB">
<feFlood flood-opacity="0" result="BackgroundImageFix"/>
<feColorMatrix in="SourceAlpha" type="matrix" values="0 0 0 0 0 0 0 0 0 0 0 0 0 0 0 0 0 0 127 0" result="hardAlpha"/>
<feOffset/>
<feGaussianBlur stdDeviation="4"/>
<feColorMatrix type="matrix" values="0 0 0 0 1 0 0 0 0 1 0 0 0 0 1 0 0 0 1 0"/>
<feBlend mode="normal" in2="BackgroundImageFix" result="effect1_dropShadow"/>
<feBlend mode="normal" in="SourceGraphic" in2="effect1_dropShadow" result="shape"/>
</filter>
</defs>
</svg>
