<svg width="25" height="24" viewBox="0 0 25 24" fill="none" xmlns="http://www.w3.org/2000/svg">
<g clip-path="url(#clip0)">
<path d="M19.5023 16.9975C17.8522 16.9975 16.5098 18.34 16.5098 19.99C16.5098 21.6401 17.8522 22.9826 19.5023 22.9826C21.1523 22.9826 22.4948 21.6401 22.4948 19.99C22.4948 18.34 21.1523 16.9975 19.5023 16.9975ZM19.5023 21.1871C18.8421 21.1871 18.3053 20.6502 18.3053 19.99C18.3053 19.3299 18.8421 18.793 19.5023 18.793C20.1624 18.793 20.6993 19.3299 20.6993 19.99C20.6993 20.6502 20.1624 21.1871 19.5023 21.1871Z" fill="#844700"/>
<path d="M24.3092 5.43168C24.1392 5.21414 23.8786 5.08725 23.6024 5.08725H6.04159L5.23361 1.7066C5.13695 1.30263 4.77573 1.01744 4.36037 1.01744H1.39776C0.901909 1.01739 0.5 1.4193 0.5 1.91515C0.5 2.411 0.901909 2.8129 1.39776 2.8129H3.65175L6.56946 15.0212C6.66611 15.4255 7.02733 15.7104 7.4427 15.7104H21.4179C21.8305 15.7104 22.1902 15.4291 22.2893 15.0287L24.4738 6.20072C24.5399 5.93264 24.4792 5.64923 24.3092 5.43168ZM20.7155 13.9149H8.15131L6.47069 6.88276H22.4553L20.7155 13.9149Z" fill="#844700"/>
<path d="M8.639 16.9975C6.9889 16.9975 5.64648 18.34 5.64648 19.99C5.64648 21.6401 6.98895 22.9826 8.639 22.9826C10.2891 22.9826 11.6315 21.6401 11.6315 19.99C11.6315 18.34 10.2891 16.9975 8.639 16.9975ZM8.639 21.1871C7.97886 21.1871 7.44199 20.6502 7.44199 19.99C7.44199 19.3299 7.97886 18.793 8.639 18.793C9.29915 18.793 9.83601 19.3299 9.83601 19.99C9.83601 20.6502 9.29915 21.1871 8.639 21.1871Z" fill="#844700"/>
</g>
<defs>
<clipPath id="clip0">
<rect width="24" height="24" fill="white" transform="translate(0.5)"/>
</clipPath>
</defs>
</svg>
