<svg width="359" height="422" viewBox="0 0 359 422" fill="none" xmlns="http://www.w3.org/2000/svg">
<path d="M110 8C98.3997 8.8 52.1663 24 30.4997 31.5C23.4997 51.5 8.39968 98.1 3.99968 124.5C-1.50032 157.5 0.499676 197 3.99968 228.5C7.49968 260 30.4997 302.5 60.4997 340.5C84.4997 370.9 149.5 406.5 179 420.5C189.333 415 216.4 400.7 242 387.5C274 371 302.5 335 325.5 302.5C348.5 270 355.5 218 358 158C360 110 341.833 53.6667 332.5 31.5C305.333 23.6667 242.8 6.9 210 2.5C169 -3 124.5 7 110 8Z" fill="#C4C4C4" stroke="black"/>
</svg>
