<?xml version="1.0" encoding="utf-8"?>
<!-- Generator: Adobe Illustrator 23.0.0, SVG Export Plug-In . SVG Version: 6.00 Build 0)  -->
<svg version="1.1" id="BG_900g" xmlns="http://www.w3.org/2000/svg" xmlns:xlink="http://www.w3.org/1999/xlink" x="0px" y="0px"
	 viewBox="0 0 47.31 73.08" style="enable-background:new 0 0 47.31 73.08;" xml:space="preserve">
<style type="text/css">
	.st0{fill:url(#SVGID_1_);}
	.st1{fill:url(#path_2_);}
	.st2{fill:url(#SVGID_2_);}
	.st3{fill:url(#SVGID_3_);}
	.st4{fill:url(#SVGID_4_);}
	.st5{fill:url(#SVGID_5_);}
	.st6{fill:url(#SVGID_6_);}
	.st7{fill:url(#SVGID_7_);}
	.st8{fill:url(#SVGID_8_);}
	.st9{fill:url(#SVGID_9_);}
	.st10{fill:url(#SVGID_10_);}
	.st11{fill:url(#SVGID_11_);}
	.st12{fill:url(#SVGID_12_);}
	.st13{fill:url(#SVGID_13_);}
	.st14{fill:url(#SVGID_14_);}
	.st15{fill:url(#SVGID_15_);}
	.st16{fill:url(#SVGID_16_);}
	.st17{fill:url(#SVGID_17_);}
	.st18{fill:url(#SVGID_18_);}
	.st19{fill:#FFFFFF;stroke:#FFFFFF;stroke-width:0.0567;stroke-miterlimit:10;}
</style>
<g>
	<linearGradient id="SVGID_1_" gradientUnits="userSpaceOnUse" x1="0" y1="27.0493" x2="47.3102" y2="27.0493">
		<stop  offset="0" style="stop-color:#FFF795"/>
		<stop  offset="0.1779" style="stop-color:#FFCB64"/>
		<stop  offset="0.3865" style="stop-color:#FFF795"/>
		<stop  offset="0.6012" style="stop-color:#C8B069"/>
		<stop  offset="0.8528" style="stop-color:#FFF795"/>
		<stop  offset="1" style="stop-color:#C6A667"/>
	</linearGradient>
	<path class="st0" d="M5.95,66.14C2.34,64.72,0,61.51,0,57.96v-72.97l47.31-3.96v76.93c-0.01,3.56-2.34,6.77-5.95,8.18l-17.7,6.94
		L5.95,66.14z"/>
	
		<radialGradient id="path_2_" cx="-475.9041" cy="26.1363" r="56.5055" gradientTransform="matrix(1.1226 0 0 1 558.0845 0)" gradientUnits="userSpaceOnUse">
		<stop  offset="0.0307" style="stop-color:#006CA7"/>
		<stop  offset="0.2577" style="stop-color:#006CA7"/>
		<stop  offset="0.6135" style="stop-color:#005595"/>
		<stop  offset="0.7546" style="stop-color:#174273"/>
	</radialGradient>
	<path id="path_1_" class="st1" d="M2.3-15.02v72.47c0,2.74,1.78,5.35,4.76,6.52l16.6,6.56l16.59-6.56
		c2.99-1.18,4.76-3.79,4.77-6.52v-76.23L2.3-15.02z"/>
	<g>
		<linearGradient id="SVGID_2_" gradientUnits="userSpaceOnUse" x1="4.474" y1="37.8797" x2="42.856" y2="37.8797">
			<stop  offset="0" style="stop-color:#2C408F"/>
			<stop  offset="1" style="stop-color:#051736"/>
		</linearGradient>
		<rect x="4.47" y="25.1" class="st2" width="38.38" height="25.56"/>
		<radialGradient id="SVGID_3_" cx="19.5536" cy="44.7668" r="26.0221" gradientUnits="userSpaceOnUse">
			<stop  offset="0" style="stop-color:#3150A3"/>
			<stop  offset="1" style="stop-color:#222D5F"/>
		</radialGradient>
		<rect x="4.69" y="25.38" class="st3" width="37.89" height="24.99"/>
		<radialGradient id="SVGID_4_" cx="9.9898" cy="30.4193" r="17.5054" gradientUnits="userSpaceOnUse">
			<stop  offset="0" style="stop-color:#4066B0"/>
			<stop  offset="1" style="stop-color:#3150A3"/>
		</radialGradient>
		<polygon class="st4" points="19.7,37.87 13.07,44.28 4.69,50.36 4.69,25.38 19.7,25.38 		"/>
		<linearGradient id="SVGID_5_" gradientUnits="userSpaceOnUse" x1="4.4426" y1="37.8814" x2="42.87" y2="37.8814">
			<stop  offset="0" style="stop-color:#EEEFEE"/>
			<stop  offset="1" style="stop-color:#DEDEDF"/>
		</linearGradient>
		<polygon class="st5" points="7.55,50.69 18.9,43.42 19.02,50.68 27.89,50.68 27.85,43.48 39.72,50.68 42.87,50.68 42.87,46.27 
			36.39,42.21 42.87,42.21 42.87,33.3 36.39,33.13 42.87,29.01 42.87,25.08 39.03,25.08 27.92,31.79 27.8,25.08 19.02,25.08 
			19.08,31.73 8.7,25.08 4.44,25.08 4.44,29.02 10.54,32.83 4.44,32.82 4.44,42.27 10.18,42.27 4.44,46 4.44,50.68 		"/>
		<radialGradient id="SVGID_6_" cx="20.1584" cy="43.9214" r="48.2638" gradientUnits="userSpaceOnUse">
			<stop  offset="0" style="stop-color:#EEEFEE"/>
			<stop  offset="1" style="stop-color:#DEDEDF"/>
		</radialGradient>
		<polygon class="st6" points="7.36,50.37 19.12,42.89 19.23,50.38 27.65,50.36 27.59,43.03 39.81,50.41 42.55,50.43 42.54,46.39 
			35.68,41.99 42.63,41.98 42.56,33.49 35.78,33.3 42.55,28.92 42.57,25.28 39,25.27 27.67,32.27 27.51,25.31 19.26,25.41 
			19.25,32.14 8.58,25.31 4.67,25.31 4.7,28.81 11.14,33.04 4.71,33.06 4.66,42.02 10.93,42.04 4.7,46.18 4.76,50.36 		"/>
		<radialGradient id="SVGID_7_" cx="17.9194" cy="33.0233" r="19.18" gradientUnits="userSpaceOnUse">
			<stop  offset="0" style="stop-color:#FFFFFF"/>
			<stop  offset="1" style="stop-color:#EEEFEE"/>
		</radialGradient>
		<path class="st7" d="M7.36,50.37c0,0,10.07-13.05,15.16-14.62c5.08-1.57,4.99-10.44,4.99-10.44l-8.25,0.09l-0.01,6.73L8.58,25.31
			H4.67l0.02,3.5l6.44,4.23l-6.43,0.02l-0.05,8.97l6.27,0.02L4.7,46.18l0.06,4.18L7.36,50.37z"/>
		<linearGradient id="SVGID_8_" gradientUnits="userSpaceOnUse" x1="4.4414" y1="37.8791" x2="42.87" y2="37.8791">
			<stop  offset="0" style="stop-color:#EF383A"/>
			<stop  offset="1" style="stop-color:#8F262A"/>
		</linearGradient>
		<polygon class="st8" points="42.87,34.95 26.04,34.95 26.04,25.08 20.91,25.08 20.91,34.95 4.44,34.95 4.44,40.21 20.91,40.21 
			20.91,50.68 26.04,50.68 26.04,40.21 42.87,40.21 		"/>
		<radialGradient id="SVGID_9_" cx="19.9167" cy="42.5872" r="27.9981" gradientUnits="userSpaceOnUse">
			<stop  offset="0" style="stop-color:#EF383A"/>
			<stop  offset="1" style="stop-color:#A42C31"/>
		</radialGradient>
		<polygon class="st9" points="42.62,35.19 25.74,35.19 25.74,25.32 21.15,25.32 21.15,35.19 4.75,35.19 4.75,39.97 21.15,39.97 
			21.15,50.38 25.74,50.38 25.74,39.97 42.62,39.97 		"/>
		<radialGradient id="SVGID_10_" cx="17.8596" cy="32.7828" r="17.3589" gradientUnits="userSpaceOnUse">
			<stop  offset="0" style="stop-color:#F37F81"/>
			<stop  offset="1" style="stop-color:#EF383A"/>
		</radialGradient>
		<path class="st10" d="M25.74,32.9v-7.58h-4.59v9.87l-16.41,0l0.01,4.78h11.96c0,0,2.72-2.22,5.63-3.31
			C25.24,35.56,25.74,32.9,25.74,32.9z"/>
		<linearGradient id="SVGID_11_" gradientUnits="userSpaceOnUse" x1="4.4414" y1="46.4746" x2="18.2327" y2="46.4746">
			<stop  offset="0" style="stop-color:#EF383A"/>
			<stop  offset="1" style="stop-color:#8F262A"/>
		</linearGradient>
		<polygon class="st11" points="15.45,42.27 18.23,42.27 5.29,50.68 4.44,50.68 4.44,49.28 		"/>
		<radialGradient id="SVGID_12_" cx="9.8069" cy="46.9455" r="17.2793" gradientUnits="userSpaceOnUse">
			<stop  offset="0" style="stop-color:#EF383A"/>
			<stop  offset="1" style="stop-color:#A42C31"/>
		</radialGradient>
		<polygon class="st12" points="15.52,42.54 17.38,42.54 5.47,50.28 4.79,50.28 4.77,49.48 		"/>
		<linearGradient id="SVGID_13_" gradientUnits="userSpaceOnUse" x1="4.4426" y1="29.2025" x2="15.995" y2="29.2025">
			<stop  offset="0" style="stop-color:#EF383A"/>
			<stop  offset="1" style="stop-color:#8F262A"/>
		</linearGradient>
		<polygon class="st13" points="15.99,32.99 13.03,33.01 4.44,27.45 4.44,25.4 		"/>
		<radialGradient id="SVGID_14_" cx="9.3842" cy="30.9036" r="12.467" gradientUnits="userSpaceOnUse">
			<stop  offset="0" style="stop-color:#F37F81"/>
			<stop  offset="1" style="stop-color:#EF383A"/>
		</radialGradient>
		<polygon class="st14" points="15.47,32.85 13.06,32.84 4.7,27.38 4.69,25.78 		"/>
		<linearGradient id="SVGID_15_" gradientUnits="userSpaceOnUse" x1="28.5228" y1="29.102" x2="42.87" y2="29.102">
			<stop  offset="0" style="stop-color:#EF383A"/>
			<stop  offset="1" style="stop-color:#8F262A"/>
		</linearGradient>
		<polygon class="st15" points="28.52,33.01 31.49,33.13 42.87,26.11 42.87,25.08 41.41,25.08 		"/>
		<radialGradient id="SVGID_16_" cx="34.0804" cy="30.7231" r="14.1391" gradientUnits="userSpaceOnUse">
			<stop  offset="0" style="stop-color:#EF383A"/>
			<stop  offset="1" style="stop-color:#A42C31"/>
		</radialGradient>
		<polygon class="st16" points="29.14,32.85 31.45,32.96 42.57,26.08 42.57,25.34 41.35,25.33 		"/>
		<linearGradient id="SVGID_17_" gradientUnits="userSpaceOnUse" x1="30.9414" y1="45.9911" x2="42.87" y2="45.9911">
			<stop  offset="0" style="stop-color:#EF383A"/>
			<stop  offset="1" style="stop-color:#8F262A"/>
		</linearGradient>
		<polygon class="st17" points="30.94,42.21 33.91,42.27 42.87,47.8 42.87,49.77 		"/>
		<radialGradient id="SVGID_18_" cx="36.1392" cy="44.8275" r="15.457" gradientUnits="userSpaceOnUse">
			<stop  offset="0" style="stop-color:#EF383A"/>
			<stop  offset="1" style="stop-color:#A42C31"/>
		</radialGradient>
		<polygon class="st18" points="31.56,42.39 33.82,42.41 42.55,47.87 42.55,49.33 		"/>
	</g>
	<g>
		<path class="st19" d="M10.91,1.51v1.29h1.13V1.51h0.3v3.08h-0.3V3.14h-1.13v1.44h-0.3V1.51H10.91z"/>
		<path class="st19" d="M13.02,3.55c0.01,0.54,0.27,0.77,0.57,0.77c0.22,0,0.35-0.05,0.46-0.11l0.05,0.29
			C14,4.56,13.82,4.63,13.56,4.63c-0.52,0-0.82-0.45-0.82-1.11c0-0.67,0.3-1.19,0.78-1.19c0.54,0,0.69,0.63,0.69,1.04
			c0,0.08-0.01,0.15-0.01,0.19H13.02z M13.91,3.26c0-0.26-0.08-0.65-0.42-0.65c-0.31,0-0.44,0.37-0.47,0.65H13.91z M13.57,1.42
			l0.33,0.65h-0.23l-0.2-0.43h-0.01l-0.2,0.43h-0.22l0.32-0.65H13.57z M13.64,5.18c0,0.13-0.07,0.24-0.18,0.24
			c-0.1,0-0.17-0.11-0.17-0.24c0-0.13,0.08-0.23,0.18-0.23C13.56,4.95,13.64,5.05,13.64,5.18z"/>
		<path class="st19" d="M15.63,1.85h-0.71V1.51h1.72v0.34h-0.71v2.74h-0.3V1.85z"/>
		<path class="st19" d="M16.87,1.34h0.3v1.38h0.01c0.05-0.11,0.13-0.21,0.22-0.28c0.09-0.07,0.2-0.11,0.31-0.11
			c0.22,0,0.58,0.18,0.58,0.94v1.31h-0.3V3.31c0-0.36-0.1-0.66-0.39-0.66c-0.2,0-0.35,0.18-0.41,0.4c-0.02,0.05-0.02,0.11-0.02,0.19
			v1.33h-0.3V1.34z"/>
		<path class="st19" d="M20.3,3.46c0,0.82-0.43,1.17-0.83,1.17c-0.45,0-0.8-0.44-0.8-1.14c0-0.74,0.37-1.17,0.83-1.17
			C19.97,2.32,20.3,2.79,20.3,3.46z M18.97,3.48c0,0.48,0.21,0.85,0.51,0.85c0.29,0,0.51-0.36,0.51-0.86c0-0.37-0.14-0.85-0.5-0.85
			C19.13,2.63,18.97,3.06,18.97,3.48z M19.61,1.42l0.3,0.65h-0.23L19.5,1.64h-0.01l-0.18,0.43h-0.22l0.29-0.65H19.61z M20.32,1.05
			l-0.34,0.6h-0.18l0.23-0.6H20.32z"/>
		<path class="st19" d="M20.68,2.97c0-0.23,0-0.42-0.01-0.6h0.27l0.02,0.37h0.01c0.08-0.21,0.28-0.42,0.55-0.42
			c0.23,0,0.59,0.18,0.59,0.94v1.32h-0.3V3.31c0-0.36-0.1-0.65-0.39-0.65c-0.2,0-0.35,0.19-0.41,0.41
			c-0.01,0.05-0.02,0.12-0.02,0.19v1.33h-0.3V2.97z"/>
		<path class="st19" d="M24.04,2.37c-0.01,0.16-0.01,0.34-0.01,0.61v1.28c0,0.51-0.08,0.82-0.24,1.01c-0.16,0.2-0.4,0.26-0.61,0.26
			c-0.2,0-0.42-0.06-0.55-0.18l0.08-0.31c0.11,0.09,0.28,0.17,0.49,0.17c0.31,0,0.54-0.21,0.54-0.77V4.2h-0.01
			c-0.09,0.21-0.27,0.37-0.53,0.37c-0.41,0-0.71-0.47-0.71-1.08c0-0.75,0.37-1.17,0.75-1.17c0.29,0,0.45,0.2,0.52,0.38h0.01
			l0.01-0.33H24.04z M23.72,3.25c0-0.07,0-0.13-0.02-0.18c-0.05-0.23-0.2-0.42-0.42-0.42c-0.29,0-0.5,0.32-0.5,0.83
			c0,0.43,0.17,0.79,0.49,0.79c0.19,0,0.36-0.16,0.42-0.41c0.02-0.07,0.02-0.15,0.02-0.21V3.25z"/>
		<path class="st19" d="M27.19,5.04c-0.31-0.11-0.62-0.23-0.89-0.36c-0.05-0.02-0.1-0.05-0.14-0.05c-0.55-0.03-1.02-0.57-1.02-1.56
			c0-0.99,0.46-1.62,1.08-1.62c0.63,0,1.04,0.65,1.04,1.56c0,0.79-0.28,1.3-0.66,1.47v0.02c0.23,0.08,0.48,0.15,0.68,0.2L27.19,5.04
			z M26.94,3.03c0-0.62-0.24-1.25-0.73-1.25c-0.51,0-0.76,0.62-0.75,1.29c0,0.65,0.27,1.24,0.74,1.24
			C26.67,4.31,26.94,3.73,26.94,3.03z"/>
		<path class="st19" d="M29.05,3.98c0,0.23,0,0.43,0.01,0.6h-0.27l-0.02-0.36h-0.01c-0.08,0.18-0.25,0.41-0.55,0.41
			c-0.26,0-0.58-0.19-0.58-0.97V2.37h0.3V3.6c0,0.42,0.1,0.7,0.37,0.7c0.2,0,0.34-0.19,0.4-0.36c0.02-0.06,0.03-0.13,0.03-0.21V2.37
			h0.3V3.98z"/>
		<path class="st19" d="M30.48,4.58L30.45,4.3h-0.01c-0.09,0.17-0.27,0.33-0.51,0.33c-0.34,0-0.51-0.31-0.51-0.63
			c0-0.53,0.36-0.83,1-0.82V3.13c0-0.18-0.04-0.51-0.38-0.51c-0.16,0-0.32,0.06-0.44,0.16l-0.07-0.26c0.14-0.12,0.34-0.2,0.55-0.2
			c0.51,0,0.63,0.46,0.63,0.9v0.83c0,0.19,0.01,0.38,0.03,0.53H30.48z M30.43,3.46c-0.33-0.01-0.71,0.07-0.71,0.5
			c0,0.26,0.13,0.38,0.29,0.38c0.22,0,0.36-0.18,0.4-0.37c0.01-0.04,0.02-0.09,0.02-0.13V3.46z M30.02,2.11
			c0.04-0.2,0.2-0.26,0.2-0.43c0-0.1-0.05-0.16-0.12-0.16c-0.07,0-0.13,0.08-0.17,0.16l-0.12-0.09c0.06-0.16,0.17-0.31,0.34-0.31
			c0.16,0,0.29,0.14,0.29,0.34c0,0.26-0.18,0.33-0.26,0.53L30.02,2.11z"/>
		<path class="st19" d="M31.22,2.97c0-0.23,0-0.42-0.01-0.6h0.27l0.02,0.37h0.01c0.08-0.21,0.28-0.42,0.55-0.42
			c0.23,0,0.59,0.18,0.59,0.94v1.32h-0.3V3.31c0-0.36-0.1-0.65-0.39-0.65c-0.2,0-0.35,0.19-0.41,0.41
			c-0.01,0.05-0.02,0.12-0.02,0.19v1.33h-0.3V2.97z"/>
		<path class="st19" d="M33.88,1.51h0.3v2.74h0.99v0.33h-1.29V1.51z"/>
		<path class="st19" d="M35.51,2.37l0.37,1.3c0.04,0.15,0.08,0.32,0.11,0.45h0.01c0.03-0.13,0.07-0.3,0.11-0.46l0.33-1.3h0.32
			L36.3,3.95c-0.22,0.76-0.37,1.14-0.57,1.38c-0.15,0.17-0.29,0.24-0.37,0.26l-0.08-0.34c0.08-0.03,0.18-0.1,0.27-0.2
			c0.08-0.09,0.19-0.24,0.25-0.45c0.01-0.04,0.03-0.07,0.03-0.1c0-0.02-0.01-0.05-0.02-0.11l-0.62-2.03H35.51z M36.47,1.42
			l-0.42,0.65h-0.22l0.3-0.65H36.47z"/>
		<path class="st19" d="M4.77,9.95c-0.11,0.07-0.33,0.15-0.61,0.15c-0.66,0-1.15-0.55-1.15-1.56c0-0.96,0.49-1.62,1.21-1.62
			c0.29,0,0.47,0.08,0.55,0.14L4.71,7.38C4.59,7.31,4.43,7.26,4.24,7.26c-0.54,0-0.91,0.46-0.91,1.27c0,0.75,0.33,1.24,0.89,1.24
			c0.18,0,0.37-0.05,0.49-0.13L4.77,9.95z"/>
		<path class="st19" d="M5.14,6.81h0.3v1.38h0.01C5.5,8.07,5.58,7.97,5.67,7.9c0.09-0.07,0.2-0.11,0.31-0.11
			c0.22,0,0.58,0.18,0.58,0.95v1.31h-0.3V8.78c0-0.36-0.1-0.66-0.39-0.66c-0.2,0-0.35,0.18-0.41,0.4C5.45,8.58,5.45,8.64,5.45,8.72
			v1.33h-0.3V6.81z"/>
		<path class="st19" d="M7.98,10.05L7.96,9.77H7.95C7.86,9.94,7.68,10.1,7.44,10.1c-0.34,0-0.51-0.31-0.51-0.63
			c0-0.53,0.36-0.83,1-0.82V8.6c0-0.18-0.04-0.51-0.38-0.51c-0.16,0-0.32,0.06-0.44,0.16L7.05,7.99c0.14-0.12,0.34-0.2,0.55-0.2
			c0.51,0,0.63,0.46,0.63,0.9v0.83c0,0.19,0.01,0.38,0.03,0.53H7.98z M7.73,6.89l0.3,0.65H7.79L7.62,7.11H7.61L7.43,7.54H7.21
			L7.5,6.89H7.73z M7.94,8.92c-0.33-0.01-0.71,0.07-0.71,0.5c0,0.26,0.13,0.38,0.29,0.38c0.22,0,0.36-0.18,0.4-0.37
			C7.93,9.39,7.94,9.35,7.94,9.3V8.92z M8.45,6.51L8.1,7.12H7.93l0.24-0.6H8.45z"/>
		<path class="st19" d="M9.08,7.21v0.63h0.44v0.31H9.08v1.19c0,0.27,0.06,0.43,0.23,0.43c0.08,0,0.14-0.01,0.18-0.03l0.01,0.3
			c-0.06,0.03-0.15,0.05-0.27,0.05c-0.14,0-0.25-0.06-0.33-0.17C8.81,9.81,8.78,9.61,8.78,9.35v-1.2H8.52V7.84h0.26V7.31L9.08,7.21z
			"/>
		<path class="st19" d="M10.6,6.97h0.3v2.74h0.99v0.33H10.6V6.97z"/>
		<path class="st19" d="M13.83,7.35c0.04,0.09,0.06,0.2,0.06,0.33c0,0.23-0.12,0.37-0.29,0.38l-0.04,0v1.38c0,0.23,0,0.43,0.01,0.6
			h-0.27l-0.02-0.36h-0.01c-0.08,0.18-0.26,0.41-0.55,0.41c-0.26,0-0.58-0.19-0.58-0.97V7.84h0.3v1.22c0,0.42,0.1,0.7,0.37,0.7
			c0.21,0,0.35-0.19,0.4-0.36c0.02-0.06,0.03-0.13,0.03-0.21V7.84h0.24c0.12,0,0.16-0.06,0.16-0.18c0-0.09-0.02-0.18-0.06-0.26
			L13.83,7.35z"/>
		<path class="st19" d="M15.67,7.47c0.04,0.1,0.06,0.21,0.06,0.33c0,0.25-0.11,0.41-0.32,0.4c0.11,0.18,0.17,0.43,0.17,0.73
			c0,0.82-0.43,1.17-0.83,1.17c-0.45,0-0.8-0.44-0.8-1.14c0-0.74,0.37-1.17,0.83-1.17c0.1,0,0.19,0.02,0.29,0.06
			c0.08,0.03,0.19,0.12,0.29,0.12c0.09,0,0.14-0.06,0.14-0.18c0-0.1-0.03-0.19-0.05-0.27L15.67,7.47z M14.25,8.95
			c0,0.48,0.21,0.85,0.51,0.85c0.29,0,0.51-0.36,0.51-0.86c0-0.37-0.14-0.85-0.5-0.85S14.25,8.53,14.25,8.95z M14.94,10.65
			c0,0.13-0.07,0.24-0.18,0.24c-0.1,0-0.17-0.11-0.17-0.24s0.08-0.23,0.18-0.23C14.86,10.41,14.94,10.52,14.94,10.65z"/>
		<path class="st19" d="M15.98,8.44c0-0.23,0-0.42-0.01-0.6h0.27l0.02,0.37h0.01c0.08-0.21,0.28-0.42,0.55-0.42
			c0.23,0,0.59,0.18,0.59,0.94v1.32h-0.3V8.78c0-0.36-0.1-0.65-0.39-0.65c-0.2,0-0.36,0.19-0.41,0.41
			c-0.01,0.05-0.02,0.12-0.02,0.19v1.33h-0.3V8.44z"/>
		<path class="st19" d="M19.33,7.84C19.33,8,19.32,8.18,19.32,8.45v1.28c0,0.51-0.07,0.82-0.24,1.01c-0.16,0.2-0.4,0.26-0.61,0.26
			c-0.2,0-0.42-0.06-0.55-0.18l0.07-0.31c0.11,0.09,0.28,0.17,0.49,0.17c0.31,0,0.54-0.21,0.54-0.77V9.67h-0.01
			c-0.09,0.21-0.27,0.37-0.53,0.37c-0.41,0-0.71-0.47-0.71-1.08c0-0.75,0.37-1.17,0.75-1.17c0.29,0,0.45,0.2,0.52,0.38h0.01
			l0.01-0.33H19.33z M19.02,8.71c0-0.07,0-0.13-0.02-0.18c-0.05-0.23-0.2-0.42-0.42-0.42c-0.29,0-0.5,0.32-0.5,0.83
			c0,0.43,0.17,0.79,0.49,0.79c0.19,0,0.36-0.16,0.42-0.41c0.02-0.07,0.03-0.15,0.03-0.21V8.71z"/>
		<path class="st19" d="M20.87,7.31h-0.71V6.97h1.72v0.34h-0.71v2.74h-0.3V7.31z"/>
		<path class="st19" d="M22.11,6.81h0.3v1.38h0.01c0.05-0.11,0.12-0.21,0.22-0.28c0.09-0.07,0.2-0.11,0.31-0.11
			c0.22,0,0.58,0.18,0.58,0.95v1.31h-0.3V8.78c0-0.36-0.1-0.66-0.39-0.66c-0.2,0-0.35,0.18-0.41,0.4c-0.02,0.05-0.02,0.11-0.02,0.19
			v1.33h-0.3V6.81z"/>
		<path class="st19" d="M24.19,9.02c0.01,0.54,0.27,0.77,0.57,0.77c0.22,0,0.35-0.05,0.46-0.11l0.05,0.29
			c-0.11,0.06-0.29,0.14-0.55,0.14c-0.52,0-0.82-0.45-0.82-1.11c0-0.67,0.3-1.19,0.78-1.19c0.54,0,0.69,0.63,0.69,1.04
			c0,0.08-0.01,0.15-0.01,0.19H24.19z M25.08,8.73c0-0.26-0.08-0.65-0.42-0.65c-0.31,0-0.44,0.37-0.47,0.65H25.08z"/>
		<path class="st19" d="M27.26,8.93c0,0.82-0.43,1.17-0.83,1.17c-0.45,0-0.8-0.44-0.8-1.14c0-0.74,0.37-1.17,0.83-1.17
			C26.94,7.79,27.26,8.25,27.26,8.93z M25.94,8.95c0,0.48,0.21,0.85,0.51,0.85c0.29,0,0.51-0.36,0.51-0.86
			c0-0.37-0.14-0.85-0.5-0.85C26.1,8.09,25.94,8.53,25.94,8.95z"/>
		<path class="st19" d="M28.69,7.31h-0.71V6.97h1.72v0.34H29v2.74h-0.3V7.31z"/>
		<path class="st19" d="M30.26,7.22c0,0.14-0.07,0.25-0.19,0.25c-0.11,0-0.18-0.11-0.18-0.25c0-0.14,0.08-0.25,0.19-0.25
			C30.18,6.97,30.26,7.08,30.26,7.22z M29.92,10.05V7.84h0.3v2.21H29.92z"/>
		<path class="st19" d="M30.89,9.02c0.01,0.54,0.27,0.77,0.57,0.77c0.22,0,0.35-0.05,0.46-0.11l0.05,0.29
			c-0.11,0.06-0.29,0.14-0.55,0.14c-0.51,0-0.82-0.45-0.82-1.11c0-0.67,0.3-1.19,0.78-1.19c0.54,0,0.69,0.63,0.69,1.04
			c0,0.08-0.01,0.15-0.01,0.19H30.89z M31.78,8.73c0-0.26-0.08-0.65-0.42-0.65c-0.31,0-0.44,0.37-0.46,0.65H31.78z M31.48,6.89
			l0.33,0.65h-0.23l-0.2-0.43h-0.01l-0.2,0.43h-0.23l0.33-0.65H31.48z"/>
		<path class="st19" d="M33.85,9.45c0,0.23,0,0.43,0.01,0.6H33.6l-0.02-0.36h-0.01c-0.08,0.18-0.26,0.41-0.55,0.41
			c-0.26,0-0.58-0.19-0.58-0.97V7.84h0.3v1.22c0,0.42,0.1,0.7,0.37,0.7c0.21,0,0.35-0.19,0.4-0.36c0.02-0.06,0.03-0.13,0.03-0.21
			V7.84h0.3V9.45z"/>
		<path class="st19" d="M36.73,9.95c-0.11,0.07-0.33,0.15-0.62,0.15c-0.65,0-1.15-0.55-1.15-1.56c0-0.96,0.49-1.62,1.21-1.62
			c0.29,0,0.47,0.08,0.55,0.14l-0.07,0.32c-0.11-0.07-0.28-0.13-0.47-0.13c-0.54,0-0.91,0.46-0.91,1.27c0,0.75,0.33,1.24,0.89,1.24
			c0.18,0,0.37-0.05,0.49-0.13L36.73,9.95z"/>
		<path class="st19" d="M37.09,6.81h0.3v1.38h0.01c0.05-0.11,0.13-0.21,0.22-0.28c0.09-0.07,0.2-0.11,0.31-0.11
			c0.22,0,0.58,0.18,0.58,0.95v1.31h-0.3V8.78c0-0.36-0.1-0.66-0.39-0.66c-0.2,0-0.35,0.18-0.41,0.4C37.4,8.58,37.4,8.64,37.4,8.72
			v1.33h-0.3V6.81z"/>
		<path class="st19" d="M40.41,9.45c0,0.23,0,0.43,0.01,0.6h-0.27l-0.02-0.36h-0.01c-0.08,0.18-0.26,0.41-0.55,0.41
			C39.31,10.1,39,9.91,39,9.13V7.84h0.3v1.22c0,0.42,0.1,0.7,0.37,0.7c0.21,0,0.35-0.19,0.4-0.36c0.02-0.06,0.03-0.13,0.03-0.21
			V7.84h0.3V9.45z"/>
		<path class="st19" d="M41.84,10.05l-0.03-0.28H41.8c-0.09,0.17-0.27,0.33-0.51,0.33c-0.34,0-0.51-0.31-0.51-0.63
			c0-0.53,0.36-0.83,1-0.82V8.6c0-0.18-0.04-0.51-0.38-0.51c-0.15,0-0.32,0.06-0.43,0.16L40.9,7.99c0.14-0.12,0.34-0.2,0.55-0.2
			c0.51,0,0.63,0.46,0.63,0.9v0.83c0,0.19,0.01,0.38,0.03,0.53H41.84z M41.57,6.89l0.3,0.65h-0.23l-0.18-0.43h-0.01l-0.18,0.43
			h-0.22l0.29-0.65H41.57z M41.79,8.92c-0.33-0.01-0.71,0.07-0.71,0.5c0,0.26,0.13,0.38,0.29,0.38c0.22,0,0.36-0.18,0.4-0.37
			c0.01-0.04,0.02-0.09,0.02-0.13V8.92z M41.81,7.1c0.06-0.19,0.18-0.23,0.18-0.37c0-0.09-0.05-0.15-0.12-0.15
			c-0.07,0-0.13,0.09-0.16,0.16L41.6,6.65c0.06-0.15,0.16-0.29,0.33-0.29c0.15,0,0.28,0.15,0.28,0.32c0,0.22-0.15,0.26-0.24,0.47
			L41.81,7.1z"/>
		<path class="st19" d="M42.58,8.44c0-0.23,0-0.42-0.01-0.6h0.27l0.02,0.37h0.01c0.08-0.21,0.28-0.42,0.55-0.42
			c0.23,0,0.59,0.18,0.59,0.94v1.32h-0.3V8.78c0-0.36-0.1-0.65-0.39-0.65c-0.2,0-0.36,0.19-0.41,0.41
			c-0.01,0.05-0.02,0.12-0.02,0.19v1.33h-0.3V8.44z"/>
		<path class="st19" d="M13.13,12.44v3.08h-0.3v-3.08H13.13z"/>
		<path class="st19" d="M13.61,15.03c0.13,0.11,0.33,0.2,0.54,0.2c0.31,0,0.49-0.21,0.49-0.52c0-0.29-0.13-0.45-0.44-0.61
			c-0.38-0.18-0.61-0.44-0.61-0.87c0-0.48,0.3-0.83,0.75-0.83c0.24,0,0.41,0.07,0.51,0.15l-0.08,0.32
			c-0.08-0.05-0.23-0.15-0.44-0.15c-0.32,0-0.44,0.25-0.44,0.46c0,0.29,0.14,0.43,0.46,0.59c0.39,0.2,0.59,0.45,0.59,0.9
			c0,0.47-0.27,0.89-0.81,0.89c-0.22,0-0.47-0.09-0.59-0.2L13.61,15.03z"/>
		<path class="st19" d="M17.34,13.95c0,1.06-0.49,1.62-1.08,1.62c-0.61,0-1.04-0.63-1.04-1.56c0-0.98,0.46-1.62,1.08-1.62
			C16.93,12.39,17.34,13.03,17.34,13.95z M15.54,14c0,0.66,0.27,1.25,0.74,1.25c0.48,0,0.75-0.58,0.75-1.28
			c0-0.61-0.24-1.25-0.74-1.25C15.79,12.71,15.54,13.32,15.54,14z"/>
		<path class="st19" d="M18.54,15.23c0.07,0.01,0.14,0,0.25-0.01c0.18-0.03,0.34-0.13,0.47-0.29c0.15-0.18,0.25-0.44,0.3-0.79h-0.01
			c-0.12,0.2-0.3,0.32-0.53,0.32c-0.4,0-0.66-0.4-0.66-0.91c0-0.56,0.31-1.05,0.77-1.05c0.46,0,0.74,0.49,0.74,1.25
			c0,0.65-0.17,1.11-0.39,1.39c-0.17,0.22-0.41,0.36-0.65,0.4c-0.11,0.02-0.21,0.03-0.28,0.02V15.23z M18.65,13.53
			c0,0.37,0.17,0.63,0.43,0.63c0.21,0,0.36-0.13,0.44-0.31c0.02-0.04,0.03-0.08,0.03-0.15c0-0.51-0.14-0.89-0.46-0.89
			C18.83,12.81,18.65,13.11,18.65,13.53z"/>
		<path class="st19" d="M21.62,14c0,1.01-0.28,1.56-0.78,1.56c-0.44,0-0.73-0.54-0.74-1.52c0-0.99,0.32-1.54,0.78-1.54
			C21.35,12.5,21.62,13.06,21.62,14z M20.41,14.05c0,0.77,0.18,1.21,0.46,1.21c0.31,0,0.46-0.48,0.46-1.24
			c0-0.73-0.14-1.21-0.46-1.21C20.6,12.81,20.41,13.24,20.41,14.05z"/>
		<path class="st19" d="M23.4,14c0,1.01-0.28,1.56-0.78,1.56c-0.44,0-0.73-0.54-0.74-1.52c0-0.99,0.32-1.54,0.78-1.54
			C23.13,12.5,23.4,13.06,23.4,14z M22.18,14.05c0,0.77,0.18,1.21,0.46,1.21c0.31,0,0.46-0.48,0.46-1.24c0-0.73-0.14-1.21-0.46-1.21
			C22.37,12.81,22.18,13.24,22.18,14.05z"/>
		<path class="st19" d="M24.34,12.92L24.34,12.92l-0.4,0.28l-0.06-0.31l0.49-0.35h0.26v2.97h-0.29V12.92z"/>
		<path class="st19" d="M25.47,13.67c0-0.17,0.09-0.29,0.21-0.29c0.12,0,0.2,0.12,0.2,0.29c0,0.16-0.08,0.28-0.21,0.28
			C25.56,13.95,25.47,13.83,25.47,13.67z M25.47,15.28c0-0.17,0.09-0.29,0.21-0.29c0.12,0,0.2,0.12,0.2,0.29
			c0,0.16-0.08,0.28-0.21,0.28C25.56,15.57,25.47,15.44,25.47,15.28z"/>
		<path class="st19" d="M26.9,15.52v-0.25l0.24-0.31c0.57-0.72,0.83-1.1,0.83-1.55c0-0.3-0.11-0.58-0.44-0.58
			c-0.21,0-0.37,0.14-0.48,0.25l-0.1-0.28c0.16-0.17,0.38-0.3,0.63-0.3c0.48,0,0.69,0.44,0.69,0.86c0,0.55-0.3,0.99-0.77,1.59
			l-0.18,0.22v0.01h1.01v0.33H26.9z"/>
		<path class="st19" d="M30.16,14c0,1.01-0.28,1.56-0.78,1.56c-0.44,0-0.73-0.54-0.74-1.52c0-0.99,0.32-1.54,0.78-1.54
			C29.89,12.5,30.16,13.06,30.16,14z M28.94,14.05c0,0.77,0.18,1.21,0.46,1.21c0.31,0,0.46-0.48,0.46-1.24
			c0-0.73-0.14-1.21-0.46-1.21C29.13,12.81,28.94,13.24,28.94,14.05z"/>
		<path class="st19" d="M31.1,12.92L31.1,12.92l-0.4,0.28l-0.06-0.31l0.49-0.35h0.26v2.97H31.1V12.92z"/>
		<path class="st19" d="M33.55,12.89h-0.86l-0.09,0.76c0.05-0.01,0.1-0.02,0.18-0.02c0.17,0,0.34,0.05,0.48,0.16
			c0.18,0.13,0.32,0.39,0.32,0.76c0,0.58-0.35,1.01-0.83,1.01c-0.24,0-0.45-0.09-0.56-0.18l0.08-0.31c0.09,0.07,0.28,0.16,0.48,0.16
			c0.29,0,0.53-0.25,0.53-0.64c0-0.38-0.2-0.66-0.64-0.66c-0.13,0-0.23,0.02-0.31,0.03l0.14-1.42h1.07V12.89z"/>
	</g>
	<g>
		<path class="st19" d="M3.66,20.74h0.29v-1.35c0.19-0.04,0.41-0.07,0.65-0.07c0.44,0,0.76,0.14,0.97,0.39
			c0.21,0.26,0.34,0.63,0.34,1.14c0,0.52-0.12,0.93-0.34,1.23c-0.22,0.29-0.59,0.45-1.05,0.45c-0.22,0-0.4-0.01-0.56-0.03v-1.43
			H3.66V20.74z M4.9,21.07H4.26v1.12c0.08,0.01,0.19,0.02,0.31,0.02c0.67,0,1.02-0.48,1.02-1.35c0-0.75-0.31-1.21-0.97-1.21
			c-0.16,0-0.28,0.02-0.36,0.04v1.05H4.9V21.07z"/>
		<path class="st19" d="M8.02,19.74c0.04,0.09,0.06,0.21,0.06,0.34c0,0.23-0.13,0.38-0.3,0.39l-0.04,0v1.42c0,0.23,0,0.44,0.01,0.62
			H7.48l-0.02-0.37H7.45c-0.08,0.18-0.26,0.42-0.57,0.42c-0.27,0-0.59-0.2-0.59-0.99v-1.32h0.31v1.25c0,0.43,0.1,0.72,0.38,0.72
			c0.21,0,0.35-0.19,0.41-0.37c0.02-0.06,0.03-0.14,0.03-0.21v-1.39h0.24c0.12,0,0.17-0.07,0.17-0.18c0-0.09-0.03-0.19-0.06-0.27
			L8.02,19.74z"/>
		<path class="st19" d="M9.9,19.86c0.04,0.1,0.06,0.21,0.06,0.34c0,0.25-0.11,0.42-0.33,0.41c0.11,0.19,0.18,0.44,0.18,0.75
			c0,0.84-0.44,1.2-0.85,1.2c-0.46,0-0.82-0.45-0.82-1.16c0-0.76,0.38-1.2,0.85-1.2c0.11,0,0.2,0.02,0.29,0.07
			c0.09,0.03,0.19,0.12,0.3,0.12c0.09,0,0.14-0.07,0.14-0.19c0-0.1-0.03-0.2-0.06-0.28L9.9,19.86z M8.45,21.38
			c0,0.5,0.22,0.87,0.52,0.87c0.3,0,0.52-0.37,0.52-0.88c0-0.38-0.14-0.87-0.51-0.87C8.61,20.5,8.45,20.95,8.45,21.38z M9.15,23.11
			c0,0.13-0.07,0.24-0.18,0.24c-0.1,0-0.18-0.11-0.18-0.24s0.08-0.24,0.18-0.24C9.07,22.88,9.15,22.98,9.15,23.11z"/>
		<path class="st19" d="M11.43,22.42c-0.08,0.06-0.26,0.13-0.49,0.13c-0.52,0-0.85-0.46-0.85-1.15c0-0.7,0.36-1.2,0.92-1.2
			c0.19,0,0.35,0.06,0.43,0.12l-0.07,0.32c-0.07-0.06-0.19-0.11-0.36-0.11c-0.39,0-0.61,0.38-0.61,0.85c0,0.52,0.26,0.84,0.6,0.84
			c0.18,0,0.29-0.06,0.38-0.11L11.43,22.42z"/>
		<path class="st19" d="M14.23,22.4c-0.11,0.07-0.34,0.15-0.63,0.15c-0.67,0-1.18-0.56-1.18-1.59c0-0.98,0.51-1.65,1.25-1.65
			c0.3,0,0.48,0.08,0.57,0.14l-0.07,0.33c-0.12-0.08-0.28-0.13-0.48-0.13c-0.56,0-0.93,0.47-0.93,1.3c0,0.77,0.34,1.27,0.92,1.27
			c0.19,0,0.38-0.05,0.5-0.13L14.23,22.4z"/>
		<path class="st19" d="M14.6,19.19h0.31v1.41h0.01c0.05-0.12,0.13-0.22,0.22-0.29c0.09-0.07,0.2-0.12,0.32-0.12
			c0.23,0,0.6,0.19,0.6,0.97v1.34h-0.31v-1.3c0-0.36-0.1-0.67-0.4-0.67c-0.2,0-0.36,0.19-0.42,0.41c-0.02,0.06-0.02,0.12-0.02,0.2
			v1.36H14.6V19.19z"/>
		<path class="st19" d="M18.27,19.74c0.04,0.09,0.06,0.21,0.06,0.34c0,0.23-0.13,0.38-0.3,0.39l-0.04,0v1.42
			c0,0.23,0,0.44,0.01,0.62h-0.28l-0.02-0.37h-0.01c-0.08,0.18-0.26,0.42-0.57,0.42c-0.27,0-0.59-0.2-0.59-0.99v-1.32h0.31v1.25
			c0,0.43,0.1,0.72,0.38,0.72c0.21,0,0.35-0.19,0.41-0.37c0.02-0.06,0.03-0.14,0.03-0.21v-1.39h0.24c0.12,0,0.17-0.07,0.17-0.18
			c0-0.09-0.03-0.19-0.06-0.27L18.27,19.74z M17.82,19.27l-0.43,0.67h-0.22l0.31-0.67H17.82z"/>
		<path class="st19" d="M18.51,20.85c0-0.23,0-0.42-0.01-0.61h0.28l0.02,0.37h0.01c0.08-0.21,0.28-0.42,0.57-0.42
			c0.24,0,0.61,0.19,0.61,0.96v1.35h-0.31v-1.3c0-0.36-0.1-0.67-0.4-0.67c-0.21,0-0.36,0.19-0.42,0.42
			c-0.01,0.05-0.02,0.12-0.02,0.19v1.36h-0.31V20.85z"/>
		<path class="st19" d="M21.95,20.24c-0.01,0.16-0.01,0.35-0.01,0.62v1.31c0,0.52-0.08,0.84-0.24,1.03
			c-0.17,0.21-0.41,0.27-0.62,0.27c-0.21,0-0.43-0.07-0.57-0.19l0.08-0.31c0.11,0.09,0.29,0.18,0.5,0.18c0.32,0,0.55-0.22,0.55-0.79
			v-0.25h-0.01c-0.1,0.21-0.28,0.38-0.54,0.38c-0.43,0-0.73-0.48-0.73-1.1c0-0.77,0.38-1.2,0.77-1.2c0.3,0,0.46,0.21,0.54,0.39h0.01
			l0.01-0.34H21.95z M21.63,21.13c0-0.07,0-0.13-0.02-0.19c-0.06-0.24-0.21-0.43-0.44-0.43c-0.3,0-0.51,0.33-0.51,0.85
			c0,0.44,0.17,0.81,0.51,0.81c0.19,0,0.36-0.16,0.43-0.42c0.02-0.07,0.02-0.15,0.02-0.22V21.13z"/>
		<path class="st19" d="M23.22,22.5v-3.15h0.34l0.76,1.59c0.18,0.37,0.32,0.7,0.43,1.02l0.01,0c-0.03-0.42-0.04-0.8-0.04-1.29v-1.32
			h0.29v3.15h-0.31l-0.76-1.6c-0.17-0.35-0.32-0.71-0.45-1.05l-0.01,0c0.02,0.4,0.03,0.77,0.03,1.3v1.34H23.22z"/>
		<path class="st19" d="M25.57,19.19h0.31v1.41h0.01c0.05-0.12,0.13-0.22,0.22-0.29c0.09-0.07,0.2-0.12,0.32-0.12
			c0.23,0,0.6,0.19,0.6,0.97v1.34h-0.31v-1.3c0-0.36-0.1-0.67-0.4-0.67c-0.2,0-0.36,0.19-0.42,0.41c-0.02,0.06-0.02,0.12-0.02,0.2
			v1.36h-0.31V19.19z"/>
		<path class="st19" d="M28.48,22.5l-0.02-0.29h-0.01c-0.1,0.18-0.28,0.34-0.52,0.34c-0.35,0-0.52-0.32-0.52-0.65
			c0-0.55,0.37-0.84,1.03-0.84v-0.05c0-0.19-0.04-0.52-0.39-0.52c-0.16,0-0.33,0.07-0.45,0.17l-0.07-0.27
			c0.14-0.12,0.35-0.2,0.56-0.2c0.53,0,0.65,0.47,0.65,0.92v0.84c0,0.2,0.01,0.39,0.03,0.54H28.48z M28.23,19.27l0.34,0.67h-0.24
			l-0.2-0.44h-0.01l-0.21,0.44h-0.23l0.33-0.67H28.23z M28.43,21.35c-0.34-0.01-0.73,0.07-0.73,0.51c0,0.27,0.13,0.39,0.29,0.39
			c0.22,0,0.36-0.19,0.41-0.38c0.01-0.04,0.02-0.09,0.02-0.13V21.35z M28.3,23.11c0,0.13-0.07,0.24-0.18,0.24
			c-0.1,0-0.18-0.11-0.18-0.24s0.08-0.24,0.18-0.24C28.23,22.88,28.3,22.98,28.3,23.11z"/>
		<path class="st19" d="M29.24,20.85c0-0.23,0-0.42-0.02-0.61h0.28l0.02,0.37h0.01c0.09-0.21,0.28-0.42,0.57-0.42
			c0.24,0,0.61,0.19,0.61,0.96v1.35h-0.31v-1.3c0-0.36-0.1-0.67-0.4-0.67c-0.21,0-0.37,0.19-0.42,0.42
			c-0.01,0.05-0.02,0.12-0.02,0.19v1.36h-0.31V20.85z"/>
		<path class="st19" d="M31.94,22.5c0.01-0.15,0.01-0.38,0.01-0.58v-2.73h0.31v1.42h0.01c0.11-0.25,0.31-0.42,0.58-0.42
			c0.43,0,0.73,0.47,0.72,1.15c0,0.81-0.38,1.21-0.77,1.21c-0.25,0-0.45-0.13-0.57-0.43h-0.01l-0.01,0.37H31.94z M32.26,21.6
			c0,0.05,0.01,0.1,0.01,0.15c0.06,0.29,0.24,0.48,0.47,0.48c0.33,0,0.52-0.35,0.52-0.87c0-0.45-0.18-0.84-0.51-0.84
			c-0.21,0-0.41,0.19-0.47,0.5c-0.01,0.05-0.02,0.1-0.02,0.17V21.6z"/>
		<path class="st19" d="M35.61,19.86c0.04,0.1,0.06,0.21,0.06,0.34c0,0.25-0.11,0.42-0.33,0.41c0.11,0.19,0.18,0.44,0.18,0.75
			c0,0.84-0.44,1.2-0.85,1.2c-0.46,0-0.82-0.45-0.82-1.16c0-0.76,0.38-1.2,0.85-1.2c0.11,0,0.2,0.02,0.29,0.07
			c0.08,0.03,0.19,0.12,0.3,0.12c0.09,0,0.14-0.07,0.14-0.19c0-0.1-0.03-0.2-0.06-0.28L35.61,19.86z M34.15,21.38
			c0,0.5,0.22,0.87,0.52,0.87c0.3,0,0.52-0.37,0.52-0.88c0-0.38-0.14-0.87-0.51-0.87C34.31,20.5,34.15,20.95,34.15,21.38z
			 M34.56,19.97c0.04-0.21,0.2-0.27,0.2-0.44c0-0.1-0.05-0.16-0.12-0.16c-0.08,0-0.13,0.08-0.17,0.16l-0.12-0.09
			c0.06-0.17,0.17-0.31,0.34-0.31c0.17,0,0.3,0.14,0.3,0.35c0,0.26-0.19,0.34-0.27,0.55L34.56,19.97z"/>
		<path class="st19" d="M36.27,19.61c0,0.14-0.07,0.25-0.2,0.25c-0.11,0-0.19-0.11-0.19-0.25c0-0.15,0.08-0.26,0.2-0.26
			C36.19,19.35,36.27,19.46,36.27,19.61z M35.92,22.5v-2.26h0.31v2.26H35.92z"/>
		<path class="st19" d="M37.51,19.4c0.13-0.04,0.35-0.06,0.56-0.06c0.31,0,0.51,0.07,0.65,0.23c0.12,0.12,0.2,0.31,0.2,0.56
			c0,0.3-0.15,0.57-0.4,0.69v0.01c0.23,0.07,0.49,0.32,0.49,0.79c0,0.27-0.08,0.48-0.2,0.63c-0.17,0.2-0.44,0.29-0.83,0.29
			c-0.21,0-0.38-0.02-0.48-0.04V19.4z M37.82,20.69h0.28c0.33,0,0.52-0.22,0.52-0.53c0-0.37-0.21-0.51-0.52-0.51
			c-0.14,0-0.22,0.01-0.27,0.03V20.69z M37.82,22.19c0.06,0.01,0.15,0.02,0.26,0.02c0.32,0,0.61-0.15,0.61-0.61
			c0-0.43-0.28-0.61-0.62-0.61h-0.26V22.19z"/>
		<path class="st19" d="M39.96,22.5l-0.78-3.15h0.33l0.37,1.55c0.1,0.42,0.19,0.81,0.25,1.18h0.01c0.07-0.36,0.17-0.76,0.27-1.17
			l0.4-1.56h0.33L40.3,22.5H39.96z"/>
		<path class="st19" d="M43.08,22.4c-0.11,0.07-0.34,0.15-0.63,0.15c-0.67,0-1.18-0.56-1.18-1.59c0-0.98,0.51-1.65,1.25-1.65
			c0.3,0,0.48,0.08,0.57,0.14l-0.07,0.33c-0.12-0.08-0.28-0.13-0.48-0.13c-0.56,0-0.93,0.47-0.93,1.3c0,0.77,0.34,1.27,0.92,1.27
			c0.19,0,0.38-0.05,0.5-0.13L43.08,22.4z"/>
	</g>
	<g>
		<path class="st19" d="M4.94,52.25c0.13-0.04,0.35-0.06,0.56-0.06c0.31,0,0.51,0.07,0.66,0.23c0.12,0.12,0.2,0.31,0.2,0.56
			c0,0.3-0.15,0.57-0.4,0.69v0.01c0.23,0.07,0.49,0.32,0.49,0.79c0,0.27-0.08,0.48-0.2,0.63c-0.17,0.2-0.44,0.29-0.82,0.29
			c-0.21,0-0.38-0.02-0.48-0.04V52.25z M5.25,53.54h0.28c0.33,0,0.52-0.22,0.52-0.53c0-0.37-0.21-0.51-0.53-0.51
			c-0.14,0-0.22,0.01-0.27,0.03V53.54z M5.25,55.05c0.06,0.01,0.15,0.02,0.26,0.02c0.32,0,0.61-0.15,0.61-0.61
			c0-0.43-0.28-0.61-0.62-0.61H5.25V55.05z"/>
		<path class="st19" d="M7.39,55.36l-0.78-3.15h0.33l0.37,1.55c0.1,0.42,0.19,0.81,0.25,1.18h0.01c0.07-0.36,0.17-0.76,0.27-1.17
			l0.4-1.56h0.33l-0.85,3.15H7.39z"/>
		<path class="st19" d="M10.51,55.26c-0.11,0.07-0.34,0.15-0.63,0.15c-0.67,0-1.18-0.56-1.18-1.59c0-0.98,0.51-1.65,1.25-1.65
			c0.3,0,0.48,0.08,0.57,0.14l-0.08,0.33c-0.12-0.08-0.28-0.13-0.48-0.13c-0.56,0-0.93,0.47-0.93,1.3c0,0.77,0.34,1.27,0.92,1.27
			c0.19,0,0.38-0.05,0.5-0.13L10.51,55.26z"/>
		<path class="st19" d="M11.37,53.6h0.29v-1.35c0.19-0.04,0.41-0.07,0.65-0.07c0.44,0,0.76,0.14,0.97,0.39
			c0.21,0.26,0.34,0.63,0.34,1.14c0,0.52-0.12,0.93-0.34,1.23c-0.22,0.29-0.59,0.45-1.05,0.45c-0.22,0-0.4-0.01-0.56-0.03v-1.43
			h-0.29V53.6z M12.61,53.93h-0.64v1.12c0.08,0.01,0.19,0.02,0.31,0.02c0.67,0,1.02-0.48,1.02-1.35c0-0.75-0.31-1.21-0.97-1.21
			c-0.16,0-0.28,0.02-0.36,0.04v1.05h0.64V53.93z"/>
		<path class="st19" d="M15.73,52.6c0.04,0.09,0.06,0.21,0.06,0.34c0,0.23-0.13,0.38-0.3,0.39l-0.04,0v1.42c0,0.23,0,0.44,0.01,0.62
			h-0.28l-0.02-0.37h-0.01c-0.08,0.18-0.26,0.42-0.57,0.42c-0.27,0-0.59-0.2-0.59-0.99V53.1h0.31v1.25c0,0.43,0.1,0.72,0.38,0.72
			c0.21,0,0.35-0.19,0.41-0.37c0.02-0.06,0.03-0.14,0.03-0.21V53.1h0.24c0.12,0,0.17-0.07,0.17-0.18c0-0.09-0.03-0.19-0.06-0.27
			L15.73,52.6z"/>
		<path class="st19" d="M17.61,52.72c0.04,0.1,0.06,0.21,0.06,0.34c0,0.25-0.11,0.42-0.33,0.41c0.11,0.19,0.18,0.44,0.18,0.75
			c0,0.84-0.44,1.2-0.85,1.2c-0.46,0-0.82-0.45-0.82-1.16c0-0.76,0.38-1.2,0.85-1.2c0.11,0,0.2,0.02,0.29,0.07
			c0.09,0.03,0.19,0.12,0.3,0.12c0.09,0,0.14-0.07,0.14-0.19c0-0.1-0.03-0.2-0.06-0.28L17.61,52.72z M16.16,54.24
			c0,0.5,0.22,0.87,0.52,0.87c0.3,0,0.52-0.37,0.52-0.88c0-0.38-0.14-0.87-0.51-0.87C16.32,53.36,16.16,53.81,16.16,54.24z
			 M16.86,55.97c0,0.13-0.07,0.24-0.18,0.24c-0.1,0-0.18-0.11-0.18-0.24c0-0.13,0.08-0.24,0.18-0.24
			C16.78,55.73,16.86,55.84,16.86,55.97z"/>
		<path class="st19" d="M19.15,55.28c-0.08,0.06-0.26,0.13-0.49,0.13c-0.52,0-0.85-0.46-0.85-1.15c0-0.7,0.36-1.2,0.92-1.2
			c0.19,0,0.35,0.06,0.43,0.12l-0.07,0.32c-0.07-0.06-0.19-0.11-0.36-0.11c-0.39,0-0.61,0.38-0.61,0.85c0,0.52,0.26,0.84,0.6,0.84
			c0.18,0,0.29-0.06,0.38-0.11L19.15,55.28z"/>
		<path class="st19" d="M21.94,55.26c-0.11,0.07-0.34,0.15-0.63,0.15c-0.67,0-1.18-0.56-1.18-1.59c0-0.98,0.51-1.65,1.25-1.65
			c0.3,0,0.48,0.08,0.57,0.14l-0.07,0.33c-0.12-0.08-0.28-0.13-0.48-0.13c-0.56,0-0.93,0.47-0.93,1.3c0,0.77,0.34,1.27,0.92,1.27
			c0.19,0,0.38-0.05,0.5-0.13L21.94,55.26z"/>
		<path class="st19" d="M23.82,54.21c0,0.84-0.44,1.2-0.85,1.2c-0.46,0-0.82-0.45-0.82-1.16c0-0.76,0.38-1.2,0.85-1.2
			C23.49,53.05,23.82,53.52,23.82,54.21z M22.46,54.24c0,0.5,0.22,0.87,0.52,0.87c0.3,0,0.52-0.37,0.52-0.88
			c0-0.38-0.14-0.87-0.51-0.87C22.62,53.36,22.46,53.81,22.46,54.24z M23.09,52.12l0.34,0.67h-0.24l-0.21-0.44h-0.01l-0.2,0.44
			h-0.23l0.33-0.67H23.09z"/>
		<path class="st19" d="M24.21,53.71c0-0.23,0-0.42-0.01-0.61h0.28l0.02,0.37h0.01c0.08-0.21,0.28-0.42,0.57-0.42
			c0.24,0,0.61,0.19,0.61,0.96v1.35h-0.31v-1.3c0-0.36-0.1-0.67-0.4-0.67c-0.21,0-0.36,0.19-0.42,0.42
			c-0.01,0.05-0.02,0.12-0.02,0.19v1.36h-0.31V53.71z"/>
		<path class="st19" d="M27.66,53.1c-0.01,0.16-0.01,0.35-0.01,0.62v1.31c0,0.52-0.08,0.84-0.24,1.03
			c-0.17,0.21-0.41,0.27-0.62,0.27c-0.21,0-0.43-0.07-0.57-0.19l0.08-0.31c0.11,0.09,0.29,0.18,0.5,0.18c0.32,0,0.55-0.22,0.55-0.79
			v-0.25h-0.01c-0.1,0.21-0.28,0.38-0.54,0.38c-0.42,0-0.73-0.48-0.73-1.1c0-0.77,0.38-1.2,0.77-1.2c0.3,0,0.46,0.21,0.53,0.39h0.01
			l0.01-0.34H27.66z M27.33,53.99c0-0.07,0-0.13-0.02-0.19c-0.06-0.24-0.21-0.43-0.44-0.43c-0.3,0-0.51,0.33-0.51,0.85
			c0,0.44,0.17,0.81,0.51,0.81c0.19,0,0.37-0.16,0.43-0.42c0.02-0.07,0.03-0.15,0.03-0.22V53.99z"/>
		<path class="st19" d="M28.92,55.36v-3.15h0.34l0.76,1.59c0.18,0.37,0.32,0.7,0.43,1.02l0.01,0c-0.03-0.42-0.04-0.8-0.04-1.29
			v-1.32h0.29v3.15H30.4l-0.76-1.6c-0.17-0.35-0.32-0.71-0.45-1.05l-0.01,0c0.02,0.4,0.03,0.78,0.03,1.3v1.34H28.92z"/>
		<path class="st19" d="M31.27,52.04h0.31v1.41h0.01c0.05-0.12,0.13-0.22,0.22-0.29c0.09-0.07,0.2-0.12,0.32-0.12
			c0.23,0,0.6,0.19,0.6,0.97v1.34h-0.31v-1.3c0-0.36-0.1-0.67-0.4-0.67c-0.2,0-0.36,0.19-0.42,0.41c-0.02,0.06-0.02,0.12-0.02,0.2
			v1.36h-0.31V52.04z"/>
		<path class="st19" d="M34.18,55.36l-0.03-0.29h-0.01c-0.1,0.18-0.28,0.34-0.53,0.34c-0.35,0-0.52-0.32-0.52-0.65
			c0-0.55,0.37-0.84,1.03-0.84v-0.05c0-0.19-0.04-0.52-0.39-0.52c-0.16,0-0.32,0.07-0.45,0.17l-0.07-0.27
			c0.14-0.12,0.35-0.2,0.56-0.2c0.52,0,0.65,0.47,0.65,0.92v0.84c0,0.2,0.01,0.39,0.03,0.54H34.18z M33.93,52.12l0.34,0.67h-0.24
			l-0.21-0.44h-0.01l-0.21,0.44h-0.23l0.33-0.67H33.93z M34.14,54.21c-0.34-0.01-0.72,0.07-0.72,0.51c0,0.27,0.13,0.39,0.29,0.39
			c0.22,0,0.37-0.19,0.41-0.38c0.01-0.04,0.02-0.09,0.02-0.13V54.21z M34,55.97c0,0.13-0.07,0.24-0.18,0.24
			c-0.1,0-0.18-0.11-0.18-0.24c0-0.13,0.08-0.24,0.18-0.24C33.93,55.73,34,55.84,34,55.97z"/>
		<path class="st19" d="M34.94,53.71c0-0.23,0-0.42-0.01-0.61h0.28l0.02,0.37h0.01c0.08-0.21,0.28-0.42,0.57-0.42
			c0.24,0,0.61,0.19,0.61,0.96v1.35h-0.31v-1.3c0-0.36-0.1-0.67-0.4-0.67c-0.21,0-0.36,0.19-0.42,0.42
			c-0.01,0.05-0.02,0.12-0.02,0.19v1.36h-0.31V53.71z"/>
		<path class="st19" d="M37.64,55.36c0.01-0.15,0.02-0.38,0.02-0.58v-2.73h0.31v1.42h0.01c0.11-0.25,0.31-0.42,0.58-0.42
			c0.42,0,0.73,0.47,0.72,1.15c0,0.81-0.39,1.21-0.77,1.21c-0.25,0-0.45-0.13-0.57-0.42h-0.01l-0.01,0.37H37.64z M37.96,54.45
			c0,0.05,0.01,0.1,0.02,0.15c0.06,0.29,0.24,0.48,0.47,0.48c0.33,0,0.52-0.35,0.52-0.87c0-0.45-0.18-0.84-0.51-0.84
			c-0.21,0-0.41,0.19-0.47,0.5c-0.01,0.05-0.02,0.1-0.02,0.17V54.45z"/>
		<path class="st19" d="M41.31,52.72c0.04,0.1,0.06,0.21,0.06,0.34c0,0.25-0.11,0.42-0.33,0.41c0.11,0.19,0.18,0.44,0.18,0.75
			c0,0.84-0.44,1.2-0.85,1.2c-0.46,0-0.82-0.45-0.82-1.16c0-0.76,0.38-1.2,0.85-1.2c0.11,0,0.2,0.02,0.29,0.07
			c0.09,0.03,0.19,0.12,0.3,0.12c0.09,0,0.14-0.07,0.14-0.19c0-0.1-0.03-0.2-0.06-0.28L41.31,52.72z M39.86,54.24
			c0,0.5,0.22,0.87,0.52,0.87c0.3,0,0.52-0.37,0.52-0.88c0-0.38-0.14-0.87-0.51-0.87C40.02,53.36,39.86,53.81,39.86,54.24z
			 M40.26,52.83c0.04-0.21,0.2-0.27,0.2-0.44c0-0.1-0.05-0.16-0.12-0.16c-0.08,0-0.13,0.08-0.17,0.16l-0.12-0.09
			c0.06-0.17,0.17-0.31,0.34-0.31c0.17,0,0.3,0.14,0.3,0.35c0,0.26-0.19,0.34-0.27,0.55L40.26,52.83z"/>
		<path class="st19" d="M41.97,52.47c0,0.14-0.07,0.25-0.2,0.25c-0.11,0-0.19-0.11-0.19-0.25c0-0.15,0.08-0.26,0.19-0.26
			C41.89,52.21,41.97,52.32,41.97,52.47z M41.62,55.36V53.1h0.31v2.26H41.62z"/>
		<path class="st19" d="M7.4,58.51v2.33c0,0.7,0.2,1.05,0.55,1.05c0.37,0,0.56-0.34,0.56-1.05v-2.33h0.69v2.27
			c0,1.25-0.48,1.84-1.28,1.84c-0.77,0-1.23-0.56-1.23-1.85v-2.25H7.4z"/>
		<path class="st19" d="M9.81,58.51h0.69v1.79h0.01c0.07-0.16,0.14-0.3,0.21-0.44l0.7-1.34h0.85l-1.01,1.72l1.07,2.32h-0.81
			l-0.75-1.75l-0.26,0.43v1.32H9.81V58.51z"/>
		<path class="st19" d="M13.37,61.52l-0.22,1.04h-0.72l0.94-4.04h0.91l0.95,4.04h-0.75l-0.24-1.04H13.37z M14.15,60.83l-0.19-0.86
			c-0.05-0.24-0.11-0.54-0.15-0.78h-0.01c-0.04,0.24-0.09,0.55-0.14,0.78l-0.18,0.86H14.15z"/>
		<path class="st19" d="M15.66,61.61c0.19,0.13,0.47,0.25,0.77,0.25c0.32,0,0.49-0.17,0.49-0.44c0-0.25-0.14-0.4-0.51-0.57
			c-0.51-0.23-0.84-0.61-0.84-1.19c0-0.69,0.44-1.22,1.16-1.22c0.35,0,0.6,0.1,0.78,0.2l-0.15,0.74c-0.12-0.08-0.34-0.19-0.64-0.19
			c-0.3,0-0.45,0.18-0.45,0.39c0,0.26,0.17,0.37,0.57,0.57c0.54,0.26,0.79,0.64,0.79,1.21c0,0.68-0.39,1.25-1.24,1.25
			c-0.35,0-0.7-0.12-0.87-0.25L15.66,61.61z"/>
		<path class="st19" d="M19.72,61.52l-0.22,1.04h-0.72l0.94-4.04h0.91l0.95,4.04h-0.75l-0.24-1.04H19.72z M20.5,60.83l-0.19-0.86
			c-0.05-0.24-0.11-0.54-0.15-0.78h-0.01c-0.05,0.24-0.09,0.55-0.14,0.78l-0.18,0.86H20.5z"/>
		<path class="st19" d="M21.99,62.56v-4.04h0.81l0.64,1.48c0.18,0.43,0.37,0.93,0.5,1.38h0.01c-0.04-0.53-0.06-1.08-0.06-1.68v-1.18
			h0.64v4.04H23.8L23.15,61c-0.18-0.43-0.38-0.95-0.53-1.43l-0.01,0.01c0.02,0.53,0.03,1.1,0.03,1.76v1.22H21.99z"/>
		<path class="st19" d="M25.83,58.51v1.55h1.14v-1.55h0.69v4.04h-0.69v-1.69h-1.14v1.69h-0.7v-4.04H25.83z"/>
		<path class="st19" d="M31.8,63.25c-0.44-0.17-0.8-0.34-1.21-0.57c-0.07-0.04-0.14-0.05-0.21-0.06c-0.69-0.06-1.34-0.73-1.34-2.05
			c0-1.21,0.58-2.12,1.5-2.12c0.94,0,1.45,0.94,1.45,2.04c0,0.92-0.32,1.57-0.73,1.81v0.02c0.24,0.09,0.5,0.16,0.74,0.23L31.8,63.25
			z M31.25,60.52c0-0.74-0.26-1.35-0.74-1.35s-0.75,0.61-0.75,1.37c0,0.77,0.28,1.36,0.74,1.36C30.98,61.9,31.25,61.31,31.25,60.52z
			"/>
		<path class="st19" d="M33.13,58.51v2.33c0,0.7,0.2,1.05,0.55,1.05c0.37,0,0.56-0.34,0.56-1.05v-2.33h0.69v2.27
			c0,1.25-0.48,1.84-1.28,1.84c-0.77,0-1.23-0.56-1.23-1.85v-2.25H33.13z"/>
		<path class="st19" d="M38.34,60.49c0,1.33-0.61,2.13-1.5,2.13c-0.91,0-1.44-0.91-1.44-2.06c0-1.21,0.59-2.12,1.49-2.12
			C37.83,58.45,38.34,59.38,38.34,60.49z M36.13,60.55c0,0.79,0.28,1.35,0.74,1.35c0.47,0,0.74-0.59,0.74-1.37
			c0-0.73-0.26-1.35-0.74-1.35C36.4,59.17,36.13,59.76,36.13,60.55z M37.15,57.56l0.41,0.74h-0.45l-0.2-0.38H36.9l-0.2,0.38h-0.45
			l0.41-0.74H37.15z M38.27,57.07l-0.61,0.68h-0.33l0.35-0.68H38.27z"/>
		<path class="st19" d="M41.05,62.44c-0.13,0.08-0.41,0.17-0.79,0.17c-1.06,0-1.61-0.87-1.61-2.02c0-1.38,0.75-2.15,1.67-2.15
			c0.36,0,0.63,0.1,0.76,0.18l-0.14,0.73c-0.14-0.08-0.34-0.15-0.58-0.15c-0.55,0-0.98,0.44-0.98,1.34c0,0.81,0.36,1.32,0.98,1.32
			c0.21,0,0.44-0.06,0.58-0.13L41.05,62.44z"/>
	</g>
</g>
</svg>
