<?xml version="1.0" standalone="no"?>
<!DOCTYPE svg PUBLIC "-//W3C//DTD SVG 1.1//EN" "http://www.w3.org/Graphics/SVG/1.1/DTD/svg11.dtd" >
<svg xmlns="http://www.w3.org/2000/svg" xmlns:xlink="http://www.w3.org/1999/xlink" version="1.1">
<metadata>
Created by FontForge 20170731 at Thu Jul 30 12:11:41 2020
 By Aleksey,,,
Copyright (c) 2012 by Joshua Darden, Inc. All rights reserved.
Omnes is a trademark of Joshua Darden, Inc.
</metadata>
<defs>
<font id="OmnesHuggiesVN-Bold" horiz-adv-x="1536" >
  <font-face 
    font-family="OmnesHuggies VN"
    font-weight="700"
    font-stretch="normal"
    units-per-em="2048"
    panose-1="2 0 0 0 0 0 0 0 0 0"
    ascent="1638"
    descent="-410"
    x-height="1016"
    cap-height="1335"
    bbox="-216 -622.135 2290 2300"
    underline-thickness="102"
    underline-position="-307"
    unicode-range="U+000D-FB02"
  />
<missing-glyph horiz-adv-x="1024" 
 />
    <glyph glyph-name="fi" unicode="fi" horiz-adv-x="1437" 
d="M1147 1130q-98 0 -154.5 50.5t-56.5 136.5q0 85 56 134.5t151 49.5q98 0 154.5 -49t56.5 -135t-56 -136.5t-151 -50.5zM207 180v539h-41q-160 0 -160 141v23q0 133 160 133h41v28q0 115 28.5 196t82 126.5t121 65.5t155.5 20q145 0 218 -53t73 -133q0 -39 -18 -77.5
t-36 -58.5t-22 -16q-50 47 -125 47q-51 0 -75.5 -25.5t-24.5 -86.5v-33h86q159 0 159 -142v-22q0 -133 -159 -133h-70v-539q0 -103 -45.5 -146.5t-130.5 -43.5h-41q-176 0 -176 190zM948 180v658q0 188 176 188h41q84 0 130 -42.5t46 -145.5v-658q0 -190 -174 -190h-41
q-84 0 -131 43.5t-47 146.5z" />
    <glyph glyph-name="fl" unicode="fl" horiz-adv-x="1437" 
d="M207 180v539h-41q-160 0 -160 141v23q0 133 160 133h41v28q0 115 28.5 196t82 126.5t121 65.5t155.5 20q145 0 218 -53t73 -133q0 -39 -18 -77.5t-36 -58.5t-22 -16q-50 47 -125 47q-51 0 -75.5 -25.5t-24.5 -86.5v-33h86q159 0 159 -142v-22q0 -133 -159 -133h-70v-539
q0 -103 -45.5 -146.5t-130.5 -43.5h-41q-176 0 -176 190zM948 180v1217q0 7 20.5 17.5t57.5 19t74 8.5q36 0 68.5 -8t65 -28.5t55.5 -53t37.5 -86.5t14.5 -123v-963q0 -190 -174 -190h-41q-84 0 -131 43.5t-47 146.5z" />
    <glyph glyph-name=".notdef" horiz-adv-x="1024" 
 />
    <glyph glyph-name=".null" horiz-adv-x="0" 
 />
    <glyph glyph-name="nonmarkingreturn" horiz-adv-x="682" 
 />
    <glyph glyph-name="NULL" horiz-adv-x="0" 
 />
    <glyph glyph-name="NULL" horiz-adv-x="0" 
 />
    <glyph glyph-name="CR" unicode="&#xd;" horiz-adv-x="348" 
 />
    <glyph glyph-name="space" unicode=" " horiz-adv-x="348" 
 />
    <glyph glyph-name="exclam" unicode="!" horiz-adv-x="608" 
d="M283 442q-37 0 -59 29t-40 94l-104 535q-29 112 26.5 181t167.5 69h52q119 0 176 -68.5t28 -181.5l-104 -535q-18 -66 -41 -94.5t-63 -28.5h-39zM113 150v32q0 85 40.5 125.5t125.5 40.5h47q88 0 129 -40.5t41 -125.5v-32q0 -85 -41 -125.5t-129 -40.5h-47
q-166 0 -166 166z" />
    <glyph glyph-name="quotedbl" unicode="&#x22;" horiz-adv-x="980" 
d="M694 676q-40 0 -61.5 22t-30.5 68l-74 393q-18 90 28 137t159 47q115 0 160.5 -47t27.5 -137l-74 -393q-9 -46 -30.5 -68t-61.5 -22h-43zM242 676q-40 0 -61.5 22t-30.5 68l-74 393q-36 184 186 184q116 0 161.5 -47t27.5 -137l-74 -393q-9 -46 -30.5 -68t-61.5 -22h-43z
" />
    <glyph glyph-name="numbersign" unicode="#" horiz-adv-x="1429" 
d="M195 133q0 31 12 74l18 57h-57q-156 0 -156 119v47q0 57 40 87t116 30h145l74 231h-57q-156 0 -156 121v47q0 115 156 115h145l88 280q3 15 37 15q32 0 68 -17t66 -55.5t30 -89.5q0 -30 -12 -74l-19 -59h211l88 280q6 15 37 15q54 0 110 -44t56 -118q0 -33 -14 -74
l-19 -59h58q155 0 155 -115v-47q0 -121 -155 -121h-146l-74 -231h60q155 0 155 -117v-47q0 -119 -155 -119h-148l-86 -278q-3 -17 -37 -17q-31 0 -68 17.5t-67 56.5t-30 90q0 23 14 74l16 57h-211l-86 -278q-7 -17 -37 -17q-54 0 -109.5 45t-55.5 119zM569 545h215l74 235
h-215z" />
    <glyph glyph-name="dollar" unicode="$" horiz-adv-x="1175" 
d="M57 270q0 48 29.5 95t59 70.5t34.5 17.5q66 -58 173 -100t204 -42q170 0 170 97q0 25 -14.5 42.5t-42.5 29.5t-62 21t-78 19q-4 1 -6.5 1.5t-6.5 1t-7 1.5q-44 9 -77 17.5t-80 25t-81 35.5t-71 49t-60.5 65.5t-39 85.5t-15.5 109q0 153 91 255t257 137v45q0 96 38.5 143
t121.5 47h10q86 0 123 -45.5t37 -144.5v-35q162 -20 247 -82.5t85 -157.5q0 -32 -13 -64t-31 -55t-37 -41t-33 -26.5t-17 -5.5q-68 62 -159.5 99.5t-178.5 37.5q-164 0 -164 -96q0 -16 6 -28.5t20.5 -23t28.5 -17.5t41.5 -15t46.5 -12.5t55 -12.5l27 -6q43 -9 79 -18
t83 -25.5t83.5 -36t73.5 -49t61.5 -64.5t40 -83.5t15.5 -104.5q0 -161 -92.5 -263t-269.5 -136v-52q0 -96 -38.5 -143t-121.5 -47h-10q-86 0 -123 45.5t-37 144.5v41q-181 20 -278 87t-97 167z" />
    <glyph glyph-name="percent" unicode="%" horiz-adv-x="1521" 
d="M131 102q0 44 51 101l1032 1145q8 9 49.5 -5t82 -48t40.5 -74q0 -48 -49 -103l-1034 -1145q-7 -9 -49 5.5t-82.5 49t-40.5 74.5zM369 686q-163 0 -260 86.5t-97 235.5v14q0 149 97.5 236.5t259.5 87.5t258 -86.5t96 -235.5v-14q0 -149 -96 -236.5t-258 -87.5zM369 881
q45 0 73.5 29.5t28.5 88.5v33q0 59 -28.5 90t-73.5 31q-48 0 -75.5 -30t-27.5 -91v-33q0 -58 28.5 -88t74.5 -30zM797 297v14q0 148 98 236t260 88t258 -86.5t96 -235.5v-14q0 -149 -96 -236.5t-258 -87.5q-164 0 -261 86.5t-97 235.5zM1053 289q0 -59 28 -89t74 -30
q45 0 73.5 30t28.5 89v33q0 59 -28.5 89.5t-73.5 30.5q-48 0 -75 -29.5t-27 -90.5v-33z" />
    <glyph glyph-name="ampersand" unicode="&#x26;" horiz-adv-x="1456" 
d="M33 371q0 127 73 219.5t209 144.5q-122 112 -122 256q0 164 125.5 263.5t334.5 99.5q186 0 299 -91.5t113 -240.5q0 -105 -71.5 -186.5t-196.5 -126.5l180 -152q18 31 70 160q38 91 79 126.5t107 35.5q32 0 62 -10t50 -24t34.5 -29t21.5 -26t6 -14q-51 -210 -203 -414
l252 -210q2 -1 -5 -19t-24.5 -43t-41.5 -49.5t-61.5 -41.5t-78.5 -17q-123 0 -219 112l-35 35q-179 -158 -438 -158q-247 0 -383.5 104t-136.5 296zM616 834q77 26 111.5 63t34.5 90q0 51 -31 84t-80 33q-52 0 -83 -35t-31 -88q0 -77 79 -147zM373 416q0 -81 57.5 -128.5
t153.5 -47.5q106 0 200 84l-299 258q-112 -59 -112 -166z" />
    <glyph glyph-name="quotesingle" unicode="'" horiz-adv-x="528" 
d="M242 676q-40 0 -61.5 22t-30.5 68l-74 393q-36 184 186 184q116 0 161.5 -47t27.5 -137l-74 -393q-9 -46 -30.5 -68t-61.5 -22h-43z" />
    <glyph glyph-name="parenleft" unicode="(" horiz-adv-x="903" 
d="M63 473q0 176 54.5 340t143 280.5t204.5 186.5t235 70q90 0 139.5 -45.5t49.5 -124.5q0 -47 -27 -83.5t-43 -41.5q-178 -46 -271 -201t-93 -381q0 -228 92.5 -383t271.5 -203q8 -1 23.5 -15.5t31 -44.5t15.5 -63q0 -80 -49.5 -125t-139.5 -45q-119 0 -235 69.5
t-204.5 186t-143 281t-54.5 342.5z" />
    <glyph glyph-name="parenright" unicode=")" horiz-adv-x="903" 
d="M84 -113q179 48 272 203t93 383q0 226 -93 381t-272 201q-8 3 -23 17.5t-31 45t-16 62.5q0 79 50 124.5t139 45.5q119 0 235 -70t204.5 -186.5t143 -280.5t54.5 -340q0 -178 -54.5 -342.5t-143 -281t-204.5 -186t-235 -69.5q-89 0 -139 45t-50 125q0 32 16 62.5t31.5 45
t22.5 15.5z" />
    <glyph glyph-name="asterisk" unicode="*" horiz-adv-x="886" 
d="M190 578l-8 4q-78 41 -26 139l75 143l-133 68q-52 28 -62.5 54.5t3.5 72.5l2 8q13 46 39 62t84 6l155 -27l23 147q10 58 33.5 77.5t68.5 19.5h9q46 0 71 -20t33 -77l18 -147l154 27q59 10 86.5 -7t38.5 -61l2 -8q15 -43 4 -71t-63 -56l-135 -70l77 -141q19 -35 19 -63
t-12 -44.5t-35 -31.5l-6 -4q-24 -16 -42 -21.5t-44 2.5t-54 35l-119 119l-116 -119q-28 -27 -53 -34.5t-42 -2.5t-45 21z" />
    <glyph glyph-name="plus" unicode="+" horiz-adv-x="1095" 
d="M188 377q-76 0 -115.5 36t-39.5 97v18q0 58 40 94.5t115 36.5h209v220q0 75 37 115t98 40h31q59 0 96 -40t37 -115v-220h211q76 0 116 -36.5t40 -94.5v-18q0 -61 -39.5 -97t-116.5 -36h-211v-225q0 -77 -36.5 -116.5t-96.5 -39.5h-31q-61 0 -98 39.5t-37 116.5v225h-209z
" />
    <glyph glyph-name="comma" unicode="," horiz-adv-x="530" 
d="M18 -109l72 299q9 45 19.5 72t30 49t50 31.5t76.5 9.5h43q152 0 152 -162v-16q0 -97 -88 -188l-156 -185q-26 -26 -64.5 -31t-71 8t-52 43.5t-11.5 69.5z" />
    <glyph glyph-name="hyphen" unicode="-" horiz-adv-x="960" 
d="M217 326q-73 0 -114.5 42.5t-41.5 104.5v64q0 61 41.5 104t114.5 43h526q74 0 115 -43t41 -104v-64q0 -62 -41 -104.5t-115 -42.5h-526z" />
    <glyph glyph-name="period" unicode="." horiz-adv-x="530" 
d="M72 150v32q0 85 40.5 125.5t125.5 40.5h47q89 0 129.5 -40.5t40.5 -125.5v-32q0 -85 -41 -125.5t-129 -40.5h-47q-166 0 -166 166z" />
    <glyph glyph-name="slash" unicode="/" horiz-adv-x="782" 
d="M-6 -213l500 1554q1 2 12.5 5.5t32 6.5t41.5 3q34 0 64 -6t59.5 -20.5t47 -44t17.5 -71.5q0 -41 -16 -90l-500 -1556q0 -2 -11.5 -5t-32 -5t-42.5 -2q-34 0 -64 5.5t-60 19.5t-47.5 43t-17.5 71q0 37 17 92z" />
    <glyph glyph-name="zero" unicode="0" horiz-adv-x="1337" 
d="M55 600v127q0 289 164 458t451 169t449.5 -168.5t162.5 -458.5v-127q0 -290 -163 -459.5t-449 -169.5q-289 0 -452 168.5t-163 460.5zM467 565q0 -264 203 -264q200 0 200 262v201q0 266 -200 266q-103 0 -153 -65.5t-50 -200.5v-199z" />
    <glyph glyph-name="one" unicode="1" horiz-adv-x="860" 
d="M336 172v692q-49 -22 -96 -22q-89 0 -148 58t-59 147q0 39 9.5 72.5t23.5 55t29.5 36t27 20.5t16.5 4q62 -41 129 -41t117.5 40t67.5 109h106q180 0 180 -190v-981q0 -93 -46 -141.5t-134 -48.5h-51q-172 0 -172 190z" />
    <glyph glyph-name="two" unicode="2" horiz-adv-x="1181" 
d="M59 199v77q0 66 26 127t65 105.5t96.5 86.5t107.5 69t111 55q26 12 63 28.5t59 26.5t49.5 23.5t43 24t30 24.5t21 29t6.5 32q0 127 -170 127q-97 0 -160 -61t-79 -146q0 -1 -14.5 -1.5t-38 2t-51.5 8t-56.5 19t-52 32.5t-38 51t-14.5 72q0 152 141.5 249t389.5 97
q260 0 400.5 -112.5t140.5 -315.5q0 -74 -21 -133.5t-51.5 -98.5t-83 -74t-96.5 -55t-111 -45q-78 -30 -115 -45t-87.5 -40.5t-79 -51t-46.5 -57.5h508q103 0 148 -37.5t45 -112.5v-16q0 -80 -44.5 -120t-148.5 -40h-647q-76 0 -119.5 6.5t-74 28t-41.5 59.5t-11 103z" />
    <glyph glyph-name="three" unicode="3" horiz-adv-x="1198" 
d="M27 281q0 58 24.5 99t59.5 59.5t70.5 26.5t60.5 7t26 -6q26 -92 100.5 -140t186.5 -48q96 0 151.5 37t55.5 100t-38 92t-118 29h-41q-99 0 -143.5 32.5t-44.5 100.5v20q0 135 184 135h72q54 0 85.5 27.5t31.5 73.5q0 56 -54 88.5t-147 32.5q-62 0 -110.5 -16t-78 -43
t-46.5 -56t-27 -62q-1 -6 -25 -7.5t-59 6.5t-69.5 26.5t-58.5 60t-24 99.5q0 130 138.5 214.5t367.5 84.5q279 0 425 -95t146 -276q0 -98 -61.5 -166t-179.5 -102q128 -41 195 -126t67 -206q0 -197 -154 -304.5t-436 -107.5q-240 0 -386 90t-146 220z" />
    <glyph glyph-name="four" unicode="4" horiz-adv-x="1290" 
d="M246 289q-100 0 -158.5 46.5t-58.5 119.5v57q2 46 16 87t49 101l328 508q50 85 112 110t218 25q158 0 225 -59t67 -207v-491h50q95 0 134.5 -32.5t39.5 -107.5v-10q0 -81 -39 -114t-135 -33h-50v-117q0 -190 -172 -190h-34q-166 0 -166 190v117h-426zM377 578h311v491z
" />
    <glyph glyph-name="five" unicode="5" horiz-adv-x="1159" 
d="M29 229q0 49 35.5 97t72 72t43.5 18q148 -154 359 -154q105 0 164 42.5t59 117.5q0 158 -223 158q-137 0 -232 -70q-118 2 -177.5 55t-59.5 174v359q0 114 45 170.5t147 56.5h612q100 0 148.5 -38.5t48.5 -119.5v-10q0 -81 -47.5 -118.5t-149.5 -37.5h-471v-196
q101 33 205 33q234 0 371 -112t137 -310q0 -204 -152 -324.5t-415 -120.5q-241 0 -380.5 76.5t-139.5 181.5z" />
    <glyph glyph-name="six" unicode="6" horiz-adv-x="1273" 
d="M55 608v99q0 300 171 473.5t470 173.5q229 0 357.5 -77.5t128.5 -207.5q0 -45 -20 -79.5t-48 -51.5t-56.5 -27t-48.5 -12t-22 0q-80 135 -256 135q-137 0 -202 -71t-70 -222q57 49 143.5 80t192.5 31q202 0 320 -101t118 -292v-10q0 -214 -156.5 -346t-408.5 -132
q-285 0 -449 172t-164 465zM467 506q6 -112 57.5 -173t139.5 -61q77 0 127.5 41.5t50.5 110.5v6q0 72 -47.5 111t-132.5 39q-105 0 -195 -74z" />
    <glyph glyph-name="seven" unicode="7" horiz-adv-x="1150" 
d="M176 123l500 870h-473q-91 0 -135.5 36.5t-44.5 121.5v23q0 82 44.5 116.5t135.5 34.5h635q71 0 122.5 -12t80.5 -30.5t46 -47.5t22 -56.5t5 -64.5v-22q0 -27 -7 -57.5t-15.5 -54t-26 -58t-27 -51t-30.5 -51.5t-25 -42l-369 -653q-82 -143 -208 -143q-38 0 -76.5 12
t-67 30.5t-50.5 38t-31.5 36t-4.5 24.5z" />
    <glyph glyph-name="eight" unicode="8" horiz-adv-x="1271" 
d="M47 367q0 232 256 313q-217 77 -217 293q0 173 152.5 280t400.5 107q249 0 394 -104t145 -281q0 -211 -213 -293q260 -78 260 -315q0 -182 -158 -287t-434 -105q-279 0 -432.5 103t-153.5 289zM637 793q75 0 124.5 39t49.5 100q0 62 -48.5 101.5t-127.5 39.5
q-78 0 -126 -39t-48 -102q0 -62 49 -100.5t127 -38.5zM444 408q0 -67 52.5 -108.5t140.5 -41.5t139 41.5t51 108.5q0 70 -51.5 111.5t-140.5 41.5q-87 0 -139 -42t-52 -111z" />
    <glyph glyph-name="nine" unicode="9" horiz-adv-x="1273" 
d="M90 213q0 45 12 81.5t28.5 57.5t34.5 34.5t31 17.5t17 2q135 -117 319 -117q145 0 212.5 70.5t70.5 226.5q-58 -51 -144.5 -82t-191.5 -31q-202 0 -320 101t-118 292v6q0 214 156.5 348t408.5 134q282 0 447.5 -169.5t165.5 -465.5v-113q0 -308 -169.5 -472.5
t-482.5 -164.5q-232 0 -354.5 65.5t-122.5 178.5zM612 745q103 0 193 74q-4 112 -56.5 173t-140.5 61q-76 0 -127 -44t-51 -112v-2q0 -72 47.5 -111t134.5 -39z" />
    <glyph glyph-name="colon" unicode=":" horiz-adv-x="544" 
d="M246 561q-166 0 -166 166v35q0 166 166 166h47q87 0 128.5 -41t41.5 -125v-35q0 -85 -41 -125.5t-129 -40.5h-47zM80 150v32q0 85 40.5 125.5t125.5 40.5h47q88 0 129 -40.5t41 -125.5v-32q0 -85 -41 -125.5t-129 -40.5h-47q-166 0 -166 166z" />
    <glyph glyph-name="semicolon" unicode=";" horiz-adv-x="544" 
d="M246 561q-166 0 -166 166v35q0 166 166 166h47q87 0 128.5 -41t41.5 -125v-35q0 -85 -41 -125.5t-129 -40.5h-47zM27 -109l69 299q10 45 21 72t30.5 49t50 31.5t76.5 9.5h41q154 0 154 -162v-16q0 -97 -88 -188l-156 -185q-27 -26 -65.5 -31t-70.5 8t-51 43.5t-11 69.5z
" />
    <glyph glyph-name="less" unicode="&#x3c;" horiz-adv-x="927" 
d="M178 340q-50 28 -82.5 73t-32.5 105q0 61 32.5 107.5t82.5 74.5l592 324q9 3 30.5 -20.5t41.5 -68.5t20 -91q4 -128 -145 -197l-256 -125l256 -127q147 -70 147 -194q-1 -45 -21.5 -91t-42 -70t-30.5 -20z" />
    <glyph glyph-name="equal" unicode="=" horiz-adv-x="1095" 
d="M223 614q-74 0 -114.5 42.5t-40.5 105.5v33q0 61 40.5 104t114.5 43h649q74 0 115 -43t41 -104v-33q0 -62 -41 -105t-115 -43h-649zM223 98q-74 0 -114.5 43.5t-40.5 106.5v33q0 60 40.5 103.5t114.5 43.5h649q74 0 115 -43.5t41 -103.5v-33q0 -63 -41 -106.5t-115 -43.5
h-649z" />
    <glyph glyph-name="greater" unicode="&#x3e;" horiz-adv-x="927" 
d="M158 20q-9 -4 -31 20t-42.5 70t-21.5 91q0 123 148 194l256 127l-256 125q-149 69 -145 197q0 46 20 91t41.5 68.5t30.5 20.5l592 -324q49 -28 81.5 -74.5t32.5 -107.5q0 -114 -114 -178z" />
    <glyph glyph-name="question" unicode="?" horiz-adv-x="1069" 
d="M332 563q1 60 20 106.5t48.5 75t65.5 50t71.5 36t64.5 29t47.5 34t18.5 44.5q0 47 -38 74.5t-104 27.5q-102 0 -164 -60.5t-73 -145.5q0 -2 -27 -2.5t-65 6.5t-76 23.5t-65 57t-27 97.5q0 140 135 239t366 99q238 0 373 -104t135 -285q0 -80 -26.5 -140.5t-66.5 -94
t-88 -63t-90.5 -50t-74.5 -52.5t-39 -71q-20 -68 -155 -68q-76 0 -121 35t-45 102zM305 150v32q0 85 40.5 125.5t125.5 40.5h47q88 0 129 -40.5t41 -125.5v-32q0 -85 -42 -125.5t-128 -40.5h-47q-166 0 -166 166z" />
    <glyph glyph-name="at" unicode="@" horiz-adv-x="1507" 
d="M66 664q0 198 88.5 355.5t248 246t361.5 88.5q131 0 241.5 -31t190.5 -86.5t136.5 -131t84 -165t27.5 -188.5q0 -198 -94.5 -303t-272.5 -105q-83 0 -141.5 33t-85.5 90q-22 -57 -73 -92t-115 -35q-126 0 -197.5 87t-71.5 220q0 137 75 223t191 86q113 0 181 -98
q32 94 137 94q23 0 43.5 -5.5t31.5 -12.5t11 -12v-299q0 -70 23.5 -96.5t70.5 -26.5q59 0 102.5 60t43.5 188q0 95 -31.5 178t-95 150t-169.5 106t-243 39q-162 0 -288.5 -72t-196.5 -198.5t-70 -286.5q0 -161 69 -288.5t195.5 -199.5t288.5 -72q222 0 368 136q34 30 68 30
q26 0 47.5 -21t31 -41.5t5.5 -23.5q-92 -100 -225.5 -156.5t-294.5 -56.5q-205 0 -364 88t-245.5 245.5t-86.5 359.5zM621 647q0 -55 30 -88t78 -33q43 0 70.5 25t27.5 67v95q-33 57 -96 57q-51 0 -80.5 -33.5t-29.5 -89.5z" />
    <glyph glyph-name="A" unicode="A" horiz-adv-x="1409" 
d="M12 109l430 1114q17 55 74 83.5t186 28.5q130 0 183.5 -28t70.5 -84l447 -1110q7 -19 -21.5 -50t-84.5 -56t-113 -25q-72 0 -134 45.5t-102 148.5l-37 98h-428l-37 -102q-66 -190 -223 -190q-53 0 -106.5 24t-82.5 54t-22 49zM553 569h285l-144 385z" />
    <glyph glyph-name="B" unicode="B" horiz-adv-x="1351" 
d="M94 229v869q0 110 54 168.5t155 58.5h475q233 0 356 -86t123 -246q0 -219 -241 -276q146 -34 217.5 -120.5t71.5 -213.5q0 -200 -136.5 -291.5t-439.5 -91.5h-426q-102 0 -155.5 58.5t-53.5 170.5zM498 791h157q181 0 181 127q0 116 -174 116h-164v-243zM498 293h182
q108 0 155.5 31.5t47.5 103.5q0 66 -49 95.5t-158 29.5h-178v-260z" />
    <glyph glyph-name="C" unicode="C" horiz-adv-x="1331" 
d="M59 664q0 149 51 277t142 219t221 142.5t283 51.5q108 0 197.5 -21.5t148 -56t99 -78t58 -86t17.5 -82.5q0 -35 -13 -66t-33 -51.5t-45 -38t-49.5 -26t-46 -15t-34.5 -6t-15 1.5q-38 72 -106 111t-156 39q-130 0 -213.5 -86t-83.5 -229q0 -141 84.5 -229.5t212.5 -88.5
q94 0 163 42t103 118q2 1 15 1.5t34.5 -6t46.5 -15t50 -26t45.5 -38t33.5 -51.5t13 -66q0 -41 -18 -84.5t-59 -88.5t-100 -80.5t-150.5 -58t-200.5 -22.5q-204 0 -362.5 88t-245.5 246t-87 359z" />
    <glyph glyph-name="D" unicode="D" horiz-adv-x="1413" 
d="M94 225v873q0 107 59 167t154 60h350q327 0 516 -176t189 -479q0 -307 -193 -488.5t-520 -181.5h-327q-95 0 -161.5 65.5t-66.5 159.5zM500 348h139q146 0 231.5 84.5t85.5 235.5q0 147 -83.5 228t-227.5 81h-145v-629z" />
    <glyph glyph-name="E" unicode="E" horiz-adv-x="1261" 
d="M94 225v873q0 110 54 168.5t155 58.5h705q96 0 143 -45t47 -127v-10q0 -172 -190 -172h-504v-133h336q190 0 190 -158v-6q0 -168 -190 -168h-336v-154h514q188 0 188 -162v-10q0 -87 -46.5 -133.5t-141.5 -46.5h-715q-102 0 -155.5 56.5t-53.5 168.5z" />
    <glyph glyph-name="F" unicode="F" horiz-adv-x="1169" 
d="M94 229v869q0 110 54 168.5t155 58.5h647q189 0 189 -164v-12q0 -170 -189 -170h-452v-215h309q188 0 188 -156v-8q0 -166 -188 -166h-295v-252q0 -190 -180 -190h-66q-84 0 -128 61.5t-44 175.5z" />
    <glyph glyph-name="G" unicode="G" horiz-adv-x="1490" 
d="M59 664q0 149 52.5 276.5t146 219t229.5 143t297 51.5q243 0 384 -85.5t141 -219.5q0 -31 -10.5 -58.5t-28 -46.5t-38.5 -36t-42 -25.5t-40 -15.5t-31 -7t-15 2q-53 68 -130 105t-165 37q-143 0 -239.5 -100.5t-96.5 -260.5q0 -161 89 -259.5t229 -98.5q107 0 176 46
t84 128h-138q-101 0 -146.5 30.5t-45.5 110.5v18q0 84 44.5 113t147.5 29h361q85 0 114 -39.5t27 -134.5v-555q0 -6 -18 -15.5t-51.5 -17.5t-67.5 -8q-161 0 -203 155q-119 -168 -385 -168q-188 0 -332.5 89t-221.5 244.5t-77 353.5z" />
    <glyph glyph-name="H" unicode="H" horiz-adv-x="1433" 
d="M94 180v965q0 190 172 190h60q180 0 180 -190v-307h424v307q0 190 172 190h61q178 0 178 -190v-965q0 -190 -178 -190h-61q-172 0 -172 190v314h-424v-314q0 -190 -180 -190h-60q-172 0 -172 190z" />
    <glyph glyph-name="I" unicode="I" horiz-adv-x="626" 
d="M109 180v965q0 190 172 190h59q178 0 178 -190v-965q0 -190 -178 -190h-59q-172 0 -172 190z" />
    <glyph glyph-name="J" unicode="J" horiz-adv-x="1101" 
d="M31 236q0 43 13.5 80t32.5 60t39 39t34 22t16 3q98 -121 242 -121q96 0 137 48t41 165v613q0 190 174 190h59q178 0 178 -190v-619q0 -283 -132.5 -419t-395.5 -136q-211 0 -324.5 70t-113.5 195z" />
    <glyph glyph-name="K" unicode="K" horiz-adv-x="1335" 
d="M94 180v965q0 190 172 190h60q178 0 178 -190v-393l319 444q96 139 226 139q39 0 78 -13.5t67.5 -33.5t50 -41.5t31.5 -39t6 -25.5l-371 -508l389 -533q4 -8 -5.5 -25.5t-32.5 -38.5t-53 -41t-72 -33t-84 -13q-132 0 -226 137l-323 448v-395q0 -190 -178 -190h-60
q-172 0 -172 190z" />
    <glyph glyph-name="L" unicode="L" horiz-adv-x="1130" 
d="M94 225v920q0 190 172 190h60q178 0 178 -190v-789h403q189 0 189 -170v-6q0 -180 -189 -180h-604q-102 0 -155.5 56.5t-53.5 168.5z" />
    <glyph glyph-name="M" unicode="M" horiz-adv-x="1581" 
d="M94 180v959q0 97 46.5 146.5t135.5 49.5h117q80 0 117 -23t65 -87l216 -531l217 531q28 66 65.5 88t110.5 22h114q189 0 189 -196v-959q0 -96 -37 -143t-123 -47h-65q-83 0 -121.5 47t-38.5 143v568l-139 -390q-1 -2 -5.5 -16.5t-6 -17t-7.5 -14.5t-11 -15t-14.5 -11.5
t-21 -11t-27.5 -7t-36.5 -6t-45.5 -1.5q-32 0 -56.5 2.5t-41 8.5t-27 11t-18.5 16.5t-11.5 18t-9 21.5t-8.5 22l-137 373v-551q0 -97 -36.5 -143.5t-123.5 -46.5h-65q-83 0 -121.5 47t-38.5 143z" />
    <glyph glyph-name="N" unicode="N" horiz-adv-x="1439" 
d="M94 180v965q0 94 44 142t124 48h39q68 0 102.5 -20t81.5 -76l476 -618v524q0 190 178 190h35q172 0 172 -190v-965q0 -93 -44 -141.5t-122 -48.5h-33q-70 0 -104 18.5t-78 71.5l-486 629v-529q0 -190 -178 -190h-35q-172 0 -172 190z" />
    <glyph glyph-name="O" unicode="O" horiz-adv-x="1501" 
d="M51 664q0 198 89.5 355.5t250 246t361.5 88.5t360.5 -88t248.5 -245.5t89 -356.5t-89 -357.5t-248.5 -247t-360.5 -88.5q-152 0 -282.5 51.5t-222.5 142.5t-144 220t-52 279zM457 664q0 -148 80.5 -237t214.5 -89q132 0 212 89t80 237q0 147 -80 237t-212 90
q-135 0 -215 -88.5t-80 -238.5z" />
    <glyph glyph-name="P" unicode="P" horiz-adv-x="1257" 
d="M94 180v918q0 110 54 168.5t155 58.5h350q286 0 436 -122t150 -359q0 -235 -145 -353t-428 -118h-160v-193q0 -92 -46 -141t-134 -49h-60q-83 0 -127.5 48.5t-44.5 141.5zM500 672h149q93 0 142 44t49 128t-50.5 128t-146.5 44h-143v-344z" />
    <glyph glyph-name="Q" unicode="Q" horiz-adv-x="1501" 
d="M51 664q0 198 90 355.5t251.5 246t363.5 88.5q201 0 359.5 -88t246.5 -245.5t88 -356.5q0 -205 -117 -377l164 -181q3 -3 -6 -17.5t-29 -34.5t-47 -38.5t-66.5 -31.5t-80.5 -13q-97 0 -195 80q-151 -80 -319 -80q-152 0 -282.5 51.5t-223 142.5t-145 220t-52.5 279z
M457 662q0 -143 83.5 -234.5t215.5 -91.5q32 0 67 6l-24 27q-34 37 -50.5 83t-8 92.5t45.5 76.5l13 10q63 44 125.5 28t117.5 -79l9 -11q10 48 10 95q0 143 -82 236t-217 93q-139 0 -222 -93t-83 -238z" />
    <glyph glyph-name="R" unicode="R" horiz-adv-x="1331" 
d="M94 227v871q0 110 54 168.5t155 58.5h410q275 0 414 -110.5t139 -323.5q0 -146 -74.5 -248t-212.5 -141l299 -371q4 -5 -2.5 -20.5t-25 -36t-45.5 -39.5t-70 -32t-93 -13q-91 0 -149 39.5t-127 134.5l-188 250h-74v-234q0 -93 -45.5 -141.5t-134.5 -48.5h-58
q-84 0 -128 61.5t-44 175.5zM498 705h172q91 0 137.5 39.5t46.5 113.5q0 156 -188 156h-168v-309z" />
    <glyph glyph-name="S" unicode="S" horiz-adv-x="1204" 
d="M39 244q0 28 13 58.5t31.5 55t38 44.5t34 29.5t18.5 6.5q68 -62 180 -107.5t213 -45.5q185 0 185 104q0 20 -9.5 35t-22 24t-38.5 16.5t-46.5 11.5t-58.5 11.5t-63 12.5q-73 15 -132 34t-119 52t-101 76t-66.5 107.5t-25.5 143.5q0 206 147 323.5t418 117.5
q246 0 373 -72.5t127 -179.5q0 -32 -14.5 -65.5t-35 -58.5t-41.5 -45t-36.5 -29.5t-18.5 -6.5q-68 63 -163 103t-187 40q-178 0 -178 -102q0 -23 11 -37.5t37 -23.5t50 -14t70 -12.5t78 -14.5q103 -23 182 -55.5t143.5 -81t98.5 -118.5t34 -159q0 -219 -151 -335t-447 -116
q-140 0 -245.5 22.5t-165.5 62t-88.5 86.5t-28.5 102z" />
    <glyph glyph-name="T" unicode="T" horiz-adv-x="1267" 
d="M432 180v789h-223q-92 0 -140.5 46t-48.5 134v6q0 170 189 170h850q190 0 190 -170v-6q0 -180 -190 -180h-215v-789q0 -93 -47.5 -141.5t-137.5 -48.5h-57q-170 0 -170 190z" />
    <glyph glyph-name="U" unicode="U" horiz-adv-x="1390" 
d="M88 582v563q0 94 47 142t133 48h51q181 0 181 -190v-565q0 -246 196 -246q100 0 147.5 60.5t47.5 187.5v563q0 95 47 142.5t133 47.5h53q179 0 179 -190v-563q0 -299 -154 -452t-455 -153q-300 0 -453 152.5t-153 452.5z" />
    <glyph glyph-name="V" unicode="V" horiz-adv-x="1380" 
d="M461 143l-449 1051q-8 20 27 53.5t99.5 60.5t127.5 27q78 0 139 -51t89 -139l206 -660l205 660q28 95 87.5 142.5t131.5 47.5q62 0 124 -27t95 -60.5t25 -53.5l-436 -1051q-35 -83 -90 -118t-148 -35t-144.5 33.5t-88.5 119.5z" />
    <glyph glyph-name="W" unicode="W" horiz-adv-x="2013" 
d="M375 145l-314 1047q-1 6 8 21.5t30.5 35.5t50.5 38.5t73.5 31t93.5 12.5q34 0 66 -10.5t65 -33.5t58 -68t37 -107l110 -571l140 518q17 74 77.5 111.5t147.5 37.5q80 0 141 -40t78 -109l139 -518l111 577q10 58 33 100.5t54 66.5t64.5 35t71.5 11q46 0 88 -12.5
t69.5 -30.5t47.5 -38t28.5 -35.5t6.5 -22.5l-301 -1047q-22 -85 -82 -121t-160 -36q-98 0 -156.5 35t-85.5 122l-155 547l-154 -547q-24 -85 -85 -121t-159 -36q-101 0 -157 34.5t-80 122.5z" />
    <glyph glyph-name="X" unicode="X" horiz-adv-x="1374" 
d="M29 133l374 524l-370 523q-7 16 29 51.5t104 67.5t135 32q137 0 219 -147l172 -293l176 293q40 73 98 110t121 37q40 0 82 -13t73.5 -32t56.5 -40t36.5 -38.5t7.5 -25.5l-374 -525l374 -522q4 -9 -7.5 -27t-37 -39t-58 -40t-75.5 -32t-84 -13q-143 0 -225 149l-176 293
l-176 -295q-80 -149 -219 -149q-40 0 -82 13t-73.5 32.5t-56.5 40.5t-36.5 39t-7.5 26z" />
    <glyph glyph-name="Y" unicode="Y" horiz-adv-x="1308" 
d="M453 180v338l-461 660q-4 7 2.5 23.5t27 39t50 42.5t79.5 34t109 14q115 0 193 -141l202 -350l213 350q84 143 195 143q53 0 99.5 -14.5t75 -35t48.5 -43t27.5 -39.5t3.5 -23l-455 -660v-338q0 -190 -178 -190h-59q-172 0 -172 190z" />
    <glyph glyph-name="Z" unicode="Z" horiz-adv-x="1271" 
d="M63 162v18q0 43 6 75t24 61.5t32 46.5t47 53l504 571h-416q-92 0 -136 37t-44 123v18q0 83 44.5 121.5t135.5 38.5h741q105 0 157 -46.5t52 -113.5v-20q0 -56 -15 -99t-34 -67.5t-59 -67.5l-514 -571h454q92 0 136.5 -38t44.5 -124v-16q0 -84 -45 -123t-136 -39h-772
q-103 0 -155 47.5t-52 114.5z" />
    <glyph glyph-name="bracketleft" unicode="[" horiz-adv-x="831" 
d="M94 -182v1302q0 112 54.5 170t156.5 58h309q99 0 144 -34.5t45 -113.5v-12q0 -82 -45 -118t-144 -36h-157v-1130h164q99 0 143.5 -34t44.5 -112v-12q0 -83 -44.5 -118.5t-143.5 -35.5h-316q-102 0 -156.5 57t-54.5 169z" />
    <glyph glyph-name="backslash" unicode="\" horiz-adv-x="782" 
d="M528 -432l-499 1556q-17 63 -17 90q0 42 18 71.5t48 44t60.5 20.5t64.5 6q21 0 41.5 -3t32 -6.5t12.5 -5.5l499 -1554q17 -66 17 -92q0 -42 -18 -71t-48.5 -43t-60.5 -19.5t-64 -5.5q-21 0 -41.5 2t-32 5t-12.5 5z" />
    <glyph glyph-name="bracketright" unicode="]" horiz-adv-x="831" 
d="M213 -96h164v1130h-158q-101 0 -145.5 35.5t-44.5 118.5v12q0 79 45 113.5t145 34.5h309q102 0 155.5 -58t53.5 -170v-1302q0 -112 -53.5 -169t-155.5 -57h-315q-101 0 -145.5 35.5t-44.5 118.5v12q0 78 45 112t145 34z" />
    <glyph glyph-name="asciicircum" unicode="^" horiz-adv-x="1024" 
d="M299 897q-56 0 -90.5 33.5t-34.5 85.5q0 66 59 136t135.5 117t143.5 64q67 -17 143.5 -64t135.5 -117t59 -136q0 -52 -34.5 -85.5t-90.5 -33.5q-63 0 -118.5 50t-94.5 138q-40 -88 -96 -138t-117 -50z" />
    <glyph glyph-name="underscore" unicode="_" horiz-adv-x="1056" 
d="M16 -133q0 59 41 96t115 37h715q74 0 114.5 -37t40.5 -96v-17q0 -61 -40.5 -98t-114.5 -37h-715q-74 0 -115 37.5t-41 97.5v17z" />
    <glyph glyph-name="grave" unicode="`" horiz-adv-x="1024" 
d="M289 1182q-55 30 -87 82.5t-32 107.5q0 64 51.5 108t126.5 44q51 0 109 -33q63 -37 120.5 -111.5t85 -137.5t17.5 -81q-8 -14 -46 -25t-91 -14.5t-123 11.5t-131 49z" />
    <glyph glyph-name="a" unicode="a" horiz-adv-x="1175" 
d="M43 279q0 174 150.5 258.5t472.5 85.5h39q-6 66 -46.5 100.5t-111.5 34.5q-145 0 -205 -135q-1 -3 -27.5 -3.5t-65 5.5t-76.5 20t-64.5 48t-26.5 83q0 124 121 192t366 68q272 0 398.5 -106t126.5 -326v-577q0 -15 -48 -30t-104 -15q-175 0 -221 163
q-51 -78 -140.5 -121.5t-199.5 -43.5q-153 0 -245.5 83t-92.5 216zM416 313q0 -44 32.5 -69t86.5 -25q77 0 124.5 48.5t47.5 125.5v35h-50q-121 -3 -181 -30.5t-60 -84.5z" />
    <glyph glyph-name="b" unicode="b" horiz-adv-x="1288" 
d="M90 180v1217q0 7 20.5 17.5t57.5 19t74 8.5q36 0 68.5 -8t65 -28.5t55.5 -53t37.5 -86.5t14.5 -123v-252q46 68 124 106.5t171 38.5q212 0 338.5 -142.5t126.5 -387.5q0 -237 -128 -386t-337 -149q-103 0 -182 49t-117 130q-11 -160 -170 -160h-41q-84 0 -131 43.5
t-47 146.5zM481 457q0 -83 53 -132t136 -49q91 0 145.5 62.5t54.5 165.5q0 104 -53.5 165.5t-144.5 61.5q-66 0 -116 -32t-75 -89v-153z" />
    <glyph glyph-name="c" unicode="c" horiz-adv-x="1048" 
d="M45 506q0 231 152 379.5t389 148.5q92 0 168 -18.5t123.5 -47.5t80.5 -66t46.5 -71.5t13.5 -66.5t-11 -59t-29 -45t-40 -32t-44 -21t-40.5 -11t-31 -3.5t-13.5 3.5q-53 133 -201 133q-92 0 -151.5 -63t-59.5 -160q0 -100 59 -165t152 -65q74 0 125.5 36.5t75.5 99.5
q1 3 13 3.5t31 -2.5t41 -10t44 -21t40 -32.5t29 -47t11 -62.5q0 -40 -25 -84.5t-74 -87t-136 -70t-197 -27.5q-242 0 -391.5 148.5t-149.5 386.5z" />
    <glyph glyph-name="d" unicode="d" horiz-adv-x="1288" 
d="M45 506q0 244 127 387t340 143q93 0 171.5 -38t123.5 -101v500q0 7 20 17.5t56 19t73 8.5q46 0 86 -13.5t76.5 -45t58 -93t21.5 -147.5v-963q0 -190 -172 -190h-41q-167 0 -178 168q-39 -87 -118 -137t-181 -50q-208 0 -335.5 148.5t-127.5 386.5zM418 504
q0 -101 55.5 -164.5t144.5 -63.5q83 0 136 48.5t53 130.5v159q-54 117 -184 117q-93 0 -149 -61t-56 -166z" />
    <glyph glyph-name="e" unicode="e" horiz-adv-x="1153" 
d="M45 496q0 234 153.5 387t387.5 153q232 0 380 -142.5t148 -363.5v-24q-3 -103 -80 -103h-641q18 -78 79.5 -118.5t156.5 -40.5q87 0 150 36t95 93q0 2 18.5 -0.5t45.5 -12.5t53.5 -27t45 -49.5t18.5 -74.5q0 -105 -118 -171.5t-327 -66.5q-260 0 -412.5 140.5
t-152.5 384.5zM387 606h373q-2 79 -49.5 126.5t-128.5 47.5q-76 0 -131 -49.5t-64 -124.5z" />
    <glyph glyph-name="f" unicode="f" horiz-adv-x="851" 
d="M207 180v539h-41q-160 0 -160 141v23q0 133 160 133h41v28q0 115 28.5 196t82 126.5t121 65.5t155.5 20q145 0 218 -53t73 -133q0 -39 -18 -77.5t-36 -58.5t-22 -16q-50 47 -125 47q-51 0 -75.5 -25.5t-24.5 -86.5v-33h86q159 0 159 -142v-22q0 -133 -159 -133h-70v-539
q0 -103 -45.5 -146.5t-130.5 -43.5h-41q-176 0 -176 190z" />
    <glyph glyph-name="g" unicode="g" horiz-adv-x="1105" 
d="M-18 -145q0 99 84 162.5t227 78.5q-33 33 -33 92q0 39 23.5 74t62.5 57q-141 36 -219 122t-78 210q0 167 140 275t358 108q93 0 186 -26l35 69q35 68 76.5 96.5t99.5 28.5q38 0 71.5 -16t54.5 -39.5t36 -47.5t20 -41t2 -20l-176 -159q95 -101 95 -226q0 -164 -128 -259.5
t-354 -98.5v-2q0 -14 10.5 -24t35.5 -18.5t50 -14.5t71.5 -16.5t82.5 -20.5q57 -16 105 -39.5t91.5 -59t68 -87.5t24.5 -115q0 -150 -149.5 -240t-415.5 -90q-290 0 -423.5 69.5t-133.5 217.5zM547 510q63 0 102 39.5t39 105.5q0 65 -39.5 104.5t-103.5 39.5q-62 0 -102 -40
t-40 -104q0 -65 40 -105t104 -40zM352 -117q0 -38 48.5 -61t142.5 -23t141 23t47 63q0 18 -12 31.5t-40.5 23t-54.5 15.5t-75 15q-18 3 -27 5q-170 -16 -170 -92z" />
    <glyph glyph-name="h" unicode="h" horiz-adv-x="1241" 
d="M90 180v1217q0 7 20.5 17.5t57.5 19t74 8.5q36 0 68.5 -8t65 -28.5t55.5 -53t37.5 -86.5t14.5 -123v-289q103 182 318 182q77 0 138.5 -22.5t102.5 -61t68 -92t39 -113t12 -126.5v-441q0 -190 -174 -190h-39q-86 0 -133 43.5t-47 146.5v379q0 73 -34.5 115.5t-94.5 42.5
q-75 0 -115.5 -44t-40.5 -122v-371q0 -190 -174 -190h-41q-84 0 -131 43.5t-47 146.5z" />
    <glyph glyph-name="i" unicode="i" horiz-adv-x="585" 
d="M297 1147q-85 0 -133.5 42t-48.5 116q0 72 48 113.5t128 41.5q85 0 133.5 -41t48.5 -114t-48 -115.5t-128 -42.5zM96 180v658q0 188 176 188h41q86 0 131 -42.5t45 -145.5v-658q0 -190 -172 -190h-41q-86 0 -133 43.5t-47 146.5z" />
    <glyph glyph-name="j" unicode="j" horiz-adv-x="585" 
d="M297 1147q-85 0 -133.5 42t-48.5 116q0 72 48 113.5t128 41.5q85 0 133.5 -41t48.5 -114t-48 -115.5t-128 -42.5zM96 -14v852q0 188 176 188h41q86 0 131 -42.5t45 -145.5v-873q0 -180 -96 -277.5t-274 -97.5q-134 0 -206.5 50.5t-72.5 150.5q0 38 18.5 74.5t36.5 55.5
t21 16q34 -43 98 -43q82 0 82 92z" />
    <glyph glyph-name="k" unicode="k" horiz-adv-x="1148" 
d="M90 180v1217q0 7 20.5 17.5t57.5 19t74 8.5q36 0 68.5 -8t65 -28.5t55.5 -53t37.5 -86.5t14.5 -123v-537l203 305q38 61 94 90t113 29q55 0 109 -25.5t81.5 -54.5t22.5 -41l-272 -387l299 -420q5 -11 -24.5 -39t-85 -53.5t-108.5 -25.5q-60 0 -116.5 28t-96.5 90
l-219 318v-240q0 -190 -174 -190h-41q-84 0 -131 43.5t-47 146.5z" />
    <glyph glyph-name="l" unicode="l" horiz-adv-x="585" 
d="M96 180v1217q0 7 20.5 17.5t57.5 19t74 8.5q36 0 68.5 -8t65 -28.5t55.5 -53t37.5 -86.5t14.5 -123v-963q0 -190 -172 -190h-41q-86 0 -133 43.5t-47 146.5z" />
    <glyph glyph-name="m" unicode="m" horiz-adv-x="1861" 
d="M90 180v801q0 7 20.5 17.5t57.5 19t74 8.5q77 0 138 -40.5t87 -135.5q58 89 133 137.5t184 48.5q244 0 316 -202q39 63 81 104.5t107 69.5t146 28q94 0 163.5 -30t108.5 -84.5t57.5 -122.5t18.5 -152v-467q0 -190 -172 -190h-41q-86 0 -133 43.5t-47 146.5v398
q0 139 -121 139q-85 0 -135 -74v-463q0 -190 -175 -190h-38q-86 0 -133.5 43.5t-47.5 146.5v393q0 144 -121 144q-85 0 -135 -74v-463q0 -190 -174 -190h-41q-84 0 -131 43.5t-47 146.5z" />
    <glyph glyph-name="n" unicode="n" horiz-adv-x="1241" 
d="M90 180v801q0 7 20.5 17.5t57.5 19t74 8.5q77 0 138 -40.5t87 -135.5q59 89 138.5 137.5t195.5 48.5q77 0 138.5 -21.5t102.5 -58.5t68 -89t39 -109.5t12 -122.5v-455q0 -190 -174 -190h-39q-86 0 -133 43.5t-47 146.5v387q0 69 -35 109.5t-96 40.5q-102 0 -154 -82v-455
q0 -190 -174 -190h-41q-84 0 -131 43.5t-47 146.5z" />
    <glyph glyph-name="o" unicode="o" horiz-adv-x="1200" 
d="M45 506q0 238 153.5 384t405.5 146q249 0 400 -146t151 -386q0 -241 -152.5 -387t-404.5 -146t-402.5 145.5t-150.5 389.5zM379 506q0 -103 61.5 -168.5t159.5 -65.5q95 0 158 66t63 166q0 103 -62 169t-159 66t-159 -66t-62 -167z" />
    <glyph glyph-name="p" unicode="p" horiz-adv-x="1288" 
d="M90 -207v1188q0 7 20.5 17.5t57.5 19t74 8.5q79 0 141 -43t86 -143q36 91 117 143.5t192 52.5q212 0 338.5 -142.5t126.5 -387.5q0 -237 -128 -386t-337 -149q-100 0 -178.5 48.5t-116.5 127.5v-354q0 -188 -174 -188h-41q-85 0 -131.5 42.5t-46.5 145.5zM481 457
q0 -83 53 -132t136 -49q91 0 145.5 62.5t54.5 165.5q0 104 -53.5 165.5t-144.5 61.5q-66 0 -116 -32t-75 -89v-153z" />
    <glyph glyph-name="q" unicode="q" horiz-adv-x="1288" 
d="M45 506q0 244 127 387t340 143q105 0 189.5 -47.5t123.5 -124.5q27 87 88 124.5t136 37.5q37 0 73 -8.5t56 -19t20 -17.5v-1188q0 -103 -46.5 -145.5t-131.5 -42.5h-41q-172 0 -172 188v363q-40 -86 -119 -135.5t-180 -49.5q-208 0 -335.5 148.5t-127.5 386.5zM418 504
q0 -101 55.5 -164.5t144.5 -63.5q79 0 132.5 47.5t56.5 125.5v165q-26 54 -73 85.5t-111 31.5q-93 0 -149 -61t-56 -166z" />
    <glyph glyph-name="r" unicode="r" horiz-adv-x="956" 
d="M90 180v801q0 7 20.5 17.5t57.5 19t74 8.5q78 0 139.5 -41.5t85.5 -138.5q30 89 93 139.5t153 50.5q98 0 156.5 -57t58.5 -154q0 -44 -13 -82t-31.5 -60.5t-37.5 -38.5t-32 -22t-15 -4q-57 54 -142 54q-174 0 -174 -250v-242q0 -190 -174 -190h-41q-84 0 -131 43.5
t-47 146.5z" />
    <glyph glyph-name="s" unicode="s" horiz-adv-x="1007" 
d="M27 209q0 24 9.5 49t23.5 43.5t28.5 32.5t25 21t13.5 5q56 -52 141 -85t183 -33q66 0 96.5 11t30.5 40q0 10 -3.5 18t-12.5 14.5t-17.5 10.5t-25.5 9t-30 7.5t-37 7.5t-40 9q-39 8 -60.5 13.5t-65 19t-70 27.5t-61 39.5t-54.5 55t-34 72.5t-14 94q0 157 121.5 250.5
t325.5 93.5q215 0 324.5 -60.5t109.5 -170.5q0 -26 -10.5 -52t-25.5 -45t-31 -34t-27.5 -22t-14.5 -5q-56 56 -136 90.5t-159 34.5q-61 0 -90.5 -12t-29.5 -43q0 -14 7.5 -23t25.5 -15.5t35 -10.5t51 -10.5t57 -12.5q34 -8 47.5 -11t51 -13.5t56.5 -18t52.5 -23.5
t52.5 -31.5t43.5 -39t37 -49.5t22 -61t9.5 -74q0 -162 -126 -253.5t-351 -91.5q-230 0 -342 60.5t-112 171.5z" />
    <glyph glyph-name="t" unicode="t" horiz-adv-x="899" 
d="M201 336v383h-23q-78 0 -119 34t-41 99v22q0 142 160 142h23v98q0 93 45.5 142t130.5 49h33q84 0 130 -44t46 -147v-98h116q154 0 154 -133v-23q0 -141 -158 -141h-120v-340q0 -103 86 -103q64 0 112 62q4 6 24.5 -9.5t41 -52.5t20.5 -81q0 -99 -83.5 -161.5
t-221.5 -62.5q-356 0 -356 365z" />
    <glyph glyph-name="u" unicode="u" horiz-adv-x="1241" 
d="M80 373v465q0 188 174 188h39q86 0 133 -42.5t47 -145.5v-396q0 -69 35 -109t98 -40q99 0 152 80v465q0 188 174 188h41q85 0 131.5 -42.5t46.5 -145.5v-803q0 -6 -20.5 -16.5t-57.5 -19.5t-74 -9q-78 0 -138.5 39t-86.5 131q-59 -90 -139 -139.5t-195 -49.5
q-95 0 -167 33t-113 90.5t-60.5 127t-19.5 151.5z" />
    <glyph glyph-name="v" unicode="v" horiz-adv-x="1169" 
d="M379 78l-363 837q-4 11 26 38t84.5 52t106.5 25q151 0 207 -180l146 -473l151 473q56 180 201 180q53 0 107 -25t82.5 -52t23.5 -38l-356 -837q-12 -26 -36.5 -45t-55.5 -28t-59 -13t-56 -4q-29 0 -57 3.5t-59.5 12.5t-56 28t-36.5 46z" />
    <glyph glyph-name="w" unicode="w" horiz-adv-x="1656" 
d="M295 92l-275 823q-4 12 32.5 39.5t97 51.5t110.5 24q66 0 115 -33.5t63 -115.5l86 -484l129 426q17 59 69.5 91t123.5 32q70 0 120.5 -32.5t65.5 -90.5l113 -405l86 463q14 79 61.5 114t108.5 35q52 0 111 -24t93.5 -51.5t30.5 -39.5l-268 -823q-29 -104 -192 -104
q-99 0 -146 25.5t-72 103.5l-129 395l-124 -395q-23 -78 -71.5 -103.5t-144.5 -25.5q-157 0 -194 104z" />
    <glyph glyph-name="x" unicode="x" horiz-adv-x="1138" 
d="M31 109l280 399l-278 401q-8 11 21.5 39.5t86.5 55t113 26.5q143 0 201 -127l112 -201l115 201q31 64 83.5 95.5t113.5 31.5q58 0 116 -27t88 -55.5t23 -38.5l-283 -401l281 -399q4 -6 -5.5 -20.5t-31.5 -31.5t-50.5 -33t-67.5 -27t-77 -11q-61 0 -111.5 32t-80.5 95
l-115 198l-110 -196q-63 -129 -199 -129q-57 0 -114.5 27t-87.5 56t-23 40z" />
    <glyph glyph-name="y" unicode="y" horiz-adv-x="1167" 
d="M354 147l-338 768q-2 6 8.5 19.5t32.5 29.5t49.5 30.5t62 24.5t67.5 11q151 0 204 -178l154 -444l143 442q29 96 82.5 138t118.5 42q52 0 106 -24t83.5 -51.5t25.5 -39.5l-446 -1126q-68 -174 -209 -174q-53 0 -106.5 23.5t-81.5 49t-23 36.5l168 350q-79 17 -101 73z
" />
    <glyph glyph-name="z" unicode="z" horiz-adv-x="1040" 
d="M47 131v16q0 64 15 94t57 74l366 406h-278q-150 0 -150 139v14q0 68 38.5 105t111.5 37h627q69 0 106 -39.5t37 -91.5v-15q0 -63 -14.5 -92.5t-57.5 -72.5l-379 -408h324q147 0 147 -139v-17q0 -139 -147 -139h-664q-69 0 -104 38t-35 91z" />
    <glyph glyph-name="braceleft" unicode="{" horiz-adv-x="1017" 
d="M229 205q-120 60 -156 110t-36 156q0 103 40 156t152 110l56 29q14 126 50 227t84.5 166.5t110 109.5t125 62.5t131.5 18.5q91 0 150 -47t59 -125q0 -36 -15 -66.5t-30 -43.5t-22 -13q-155 -10 -218.5 -111.5t-74.5 -333.5l-242 -139l242 -139q11 -232 74 -333.5
t217 -111.5q8 -1 23 -14.5t30.5 -44t15.5 -66.5q0 -77 -59 -124.5t-150 -47.5q-69 0 -132.5 19t-125 63t-110 110t-84.5 167t-51 227z" />
    <glyph glyph-name="bar" unicode="|" horiz-adv-x="593" 
d="M100 -219v1380q0 189 176 189h41q86 0 131.5 -43t45.5 -146v-1380q0 -189 -172 -189h-41q-86 0 -133.5 43t-47.5 146z" />
    <glyph glyph-name="braceright" unicode="}" horiz-adv-x="1017" 
d="M92 -113q154 10 217 111.5t74 333.5l242 139l-242 139q-11 232 -74.5 333.5t-218.5 111.5q-7 0 -22 13t-30 43.5t-15 66.5q0 78 58.5 125t149.5 47q68 0 131.5 -18.5t125.5 -62.5t110.5 -109.5t84.5 -166.5t50 -227l55 -29q111 -56 152 -109.5t41 -156.5
q0 -105 -37.5 -156t-155.5 -110l-53 -29q-15 -126 -51 -227t-84.5 -167t-110.5 -110t-125.5 -63t-132.5 -19q-90 0 -149 47.5t-59 124.5q0 36 15.5 66.5t30.5 44t23 14.5z" />
    <glyph glyph-name="asciitilde" unicode="~" horiz-adv-x="1021" 
d="M266 317q-56 0 -91.5 37.5t-35.5 91.5q0 102 62 165t149 63q148 0 273 -125q20 55 54 88t79 33q56 0 91.5 -37.5t35.5 -91.5q0 -102 -62 -164t-149 -62q-150 0 -275 125q-18 -55 -52 -89t-79 -34z" />
    <glyph glyph-name="nbspace" unicode="&#xa0;" horiz-adv-x="348" 
 />
    <glyph glyph-name="exclamdown" unicode="&#xa1;" horiz-adv-x="608" 
d="M283 979q-89 0 -129.5 40.5t-40.5 125.5v33q0 85 41 125t129 40h47q166 0 166 -165v-33q0 -85 -40.5 -125.5t-125.5 -40.5h-47zM78 227l104 535q18 65 41.5 94t63.5 29h39q37 0 58.5 -28.5t39.5 -94.5l104 -535q29 -112 -26.5 -182t-169.5 -70h-51q-118 0 -175 70
t-28 182z" />
    <glyph glyph-name="cent" unicode="&#xa2;" horiz-adv-x="1071" 
d="M430 -23v74q-190 45 -297.5 183t-107.5 346q0 199 107.5 337.5t291.5 184.5v74q0 96 38.5 143t121.5 47h10q86 0 123 -45.5t37 -144.5v-62q147 -21 222 -86.5t75 -161.5q0 -30 -11 -56t-28.5 -43.5t-39 -32t-42.5 -22t-40 -13t-30.5 -4.5t-13.5 3q-43 65 -92.5 94
t-128.5 29q-101 0 -165.5 -66.5t-64.5 -172.5q0 -109 66 -176.5t170 -67.5q76 0 127.5 30t91.5 95q4 2 24.5 2.5t51 -12.5t59.5 -30t49.5 -51t20.5 -75q0 -95 -76.5 -162t-220.5 -90v-68q0 -94 -38.5 -141t-121.5 -47h-8q-87 0 -123.5 44.5t-36.5 143.5z" />
    <glyph glyph-name="sterling" unicode="&#xa3;" horiz-adv-x="1273" 
d="M35 147v19q0 75 41.5 109t134.5 34h6l31 180h-31q-57 0 -93 34.5t-36 88.5v33q0 54 36.5 87.5t92.5 33.5h80l31 164q38 211 163.5 317.5t323.5 106.5q193 0 305.5 -77t112.5 -208q0 -41 -12 -74t-31 -52t-42.5 -32.5t-46.5 -19t-42 -7.5t-31 -1t-12 2q-14 77 -57 117
t-125 40q-73 0 -114 -37.5t-58 -125.5l-21 -113h223q58 0 94.5 -33.5t36.5 -87.5v-33q0 -55 -36 -89t-95 -34h-272l-33 -180h494q93 0 134.5 -34t41.5 -109v-19q0 -78 -41 -112.5t-135 -34.5h-842q-95 0 -135.5 34.5t-40.5 112.5z" />
    <glyph glyph-name="currency" unicode="&#xa4;" horiz-adv-x="1298" 
d="M160 408q-62 0 -95.5 28.5t-33.5 69.5v29q0 41 33 68.5t96 27.5h35v61h-35q-63 0 -96 28t-33 71v28q0 40 33.5 68t95.5 28h53q50 206 206.5 322.5t383.5 116.5q211 0 335 -77.5t124 -199.5q0 -37 -18 -71t-44 -56t-52.5 -37.5t-46.5 -21.5t-24 -2q-58 70 -116 101.5
t-150 31.5q-144 0 -205 -107h244q63 0 96 -28t33 -68v-28q0 -43 -32.5 -71t-96.5 -28h-277v-61h277q64 0 96.5 -27.5t32.5 -68.5v-29q0 -42 -32.5 -70t-96.5 -28h-240q62 -105 203 -105q93 0 150.5 32t115.5 105q4 4 24 -2t46.5 -21.5t52.5 -37.5t44 -56t18 -71
q0 -51 -26 -99t-78.5 -89.5t-143.5 -67t-209 -25.5q-231 0 -387 114.5t-205 322.5h-55z" />
    <glyph glyph-name="yen" unicode="&#xa5;" horiz-adv-x="1318" 
d="M221 207q-69 0 -105 30.5t-36 77.5v29q0 45 36.5 76t104.5 31h260v71h-260q-68 0 -104.5 31.5t-36.5 77.5v28q0 46 36.5 77.5t104.5 31.5h139l-274 401q-1 5 -1.5 16t6.5 26.5t16.5 32t29 33.5t42.5 30t58 21.5t76 8.5q132 0 197 -141l152 -309l161 309q40 78 89 111.5
t114 33.5q47 0 86.5 -16.5t63 -39.5t38.5 -48t19.5 -44t1.5 -24l-272 -401h137q68 0 103.5 -31.5t35.5 -77.5v-28q0 -46 -35.5 -77.5t-103.5 -31.5h-256v-71h256q68 0 103.5 -31t35.5 -76v-29q0 -47 -35 -77.5t-104 -30.5h-256v-35q0 -96 -38.5 -143t-125.5 -47h-41
q-83 0 -120.5 47t-37.5 143v35h-260z" />
    <glyph glyph-name="section" unicode="&#xa7;" horiz-adv-x="1230" 
d="M74 -145q0 25 11 51t26.5 45t32.5 33.5t29.5 20.5t16.5 3q61 -57 178.5 -96t211.5 -39q84 0 121.5 20.5t37.5 63.5q0 21 -12 36.5t-49 29.5t-60.5 20.5t-89.5 21.5q-3 1 -4 1t-3.5 1t-4.5 1q-54 12 -89.5 21t-89.5 26.5t-90 35t-77 45.5t-65.5 59.5t-41 75.5t-16.5 95
q0 197 213 283q-154 84 -154 254q0 179 138.5 285t380.5 106q106 0 190 -15.5t135 -39.5t84.5 -57t46.5 -65t13 -65q0 -29 -12 -57t-29.5 -48t-36 -35t-31.5 -22t-16 -4q-69 63 -153 100t-167 37q-153 0 -153 -86q0 -14 7.5 -26t26.5 -22.5t35.5 -18t53 -17t58.5 -15
t70 -16.5q4 -1 7 -1.5t6 -1.5q49 -12 85 -22.5t83.5 -28t81 -36t69 -45.5t57.5 -58t36 -72t14 -89q0 -195 -209 -282q151 -81 151 -254q0 -179 -147.5 -286t-407.5 -107q-248 0 -373.5 69t-125.5 187zM381 489q0 -18 5 -33t17.5 -27t25 -21.5t35.5 -18t40.5 -14.5
t48.5 -12.5t51 -10.5t57 -11t58 -11q63 15 97 49.5t34 79.5q0 36 -18.5 61t-70.5 45t-82.5 27.5t-115.5 25.5q-14 3 -22 5q-74 -15 -117 -52.5t-43 -81.5z" />
    <glyph glyph-name="dieresis" unicode="&#xa8;" horiz-adv-x="1024" 
d="M748 1108q-87 0 -136 46.5t-49 133.5q0 84 48 132t130 48q84 0 133.5 -47.5t49.5 -132.5t-48 -132.5t-128 -47.5zM285 1108q-86 0 -135.5 47t-49.5 133q0 84 48.5 132t127.5 48q87 0 137 -47.5t50 -132.5t-48.5 -132.5t-129.5 -47.5z" />
    <glyph glyph-name="copyright" unicode="&#xa9;" horiz-adv-x="1513" 
d="M68 664q0 148 51 276t141 219t218.5 143t279.5 52q202 0 359 -88t243 -245t86 -357q0 -199 -86 -356.5t-243.5 -247t-358.5 -89.5q-202 0 -359.5 88t-244 246t-86.5 359zM211 664q0 -243 152.5 -399t394.5 -156q243 0 394 155.5t151 399.5q0 242 -152 397.5t-393 155.5
q-244 0 -395.5 -155t-151.5 -398zM393 662q0 163 108 268.5t275 105.5q160 0 242 -82q37 -37 37 -88q0 -38 -28.5 -68.5t-57 -42.5t-33.5 -7q-33 39 -66.5 55t-83.5 16q-62 0 -104.5 -44.5t-42.5 -112.5q0 -70 42.5 -115t106.5 -45q51 0 84.5 17t65.5 56q5 5 33.5 -7
t57 -42.5t28.5 -68.5q2 -47 -39 -92q-82 -82 -240 -82q-170 0 -277.5 106.5t-107.5 272.5z" />
    <glyph glyph-name="ordfeminine" unicode="&#xaa;" horiz-adv-x="933" 
d="M305 508q-123 0 -197.5 66t-74.5 171q0 67 23 113t81 80.5t160.5 52t257.5 19.5q-6 116 -127 116q-34 0 -61.5 -10t-46 -29t-29 -35t-21.5 -38q0 -2 -21.5 -3t-52 4t-60.5 16.5t-51.5 39t-21.5 66.5q0 101 96 159t290 58q217 0 316 -85.5t99 -264.5v-459q0 -12 -38 -23.5
t-83 -11.5q-136 0 -172 133q-36 -64 -107 -99.5t-159 -35.5zM428 702q57 0 92 37t35 92v37q-122 -5 -173.5 -25t-51.5 -67q0 -35 27 -54.5t71 -19.5zM289 131v31q0 76 36.5 112.5t112.5 36.5h41q79 0 116.5 -36t37.5 -113v-31q0 -149 -154 -149h-41q-149 0 -149 149z" />
    <glyph glyph-name="guillemotleft" unicode="&#xab;" horiz-adv-x="1128" 
d="M535 506q0 13 23.5 56.5t65 100t90 110t106.5 90t106 36.5h4q69 0 106 -39t37 -102v-8q0 -34 -25.5 -71.5t-66.5 -70t-81 -58t-79 -44.5q32 -17 62 -35t66 -44.5t62 -51.5t44 -55.5t18 -57.5v-10q0 -62 -37.5 -100.5t-105.5 -38.5h-4q-48 0 -106 36.5t-106.5 90t-90 110
t-65 100t-23.5 56.5zM418 152q-54 0 -122 50t-119.5 113.5t-87.5 119.5t-36 71t36 71t87.5 119.5t119.5 113.5t122 50h4q63 0 96 -35t33 -94v-6q0 -40 -40.5 -86t-88 -77.5t-96.5 -55.5q37 -20 71.5 -42.5t71.5 -52t59.5 -63t22.5 -63.5v-6q0 -57 -33 -92t-96 -35h-4z" />
    <glyph glyph-name="registered" unicode="&#xae;" horiz-adv-x="1513" 
d="M68 664q0 148 51 276t141 219t218.5 143t279.5 52q202 0 359 -88t243 -245t86 -357q0 -199 -86 -356.5t-243.5 -247t-358.5 -89.5q-202 0 -359.5 88t-244 246t-86.5 359zM211 664q0 -243 152.5 -399t394.5 -156q243 0 394 155.5t151 399.5q0 242 -152 397.5t-393 155.5
q-244 0 -395.5 -155t-151.5 -398zM545 295q-49 0 -76 37t-27 102v463q0 64 32 97.5t91 33.5h221q316 0 316 -242q0 -152 -141 -206l145 -209q5 -7 -13.5 -27t-54.5 -37.5t-71 -17.5q-84 0 -133 90l-95 147h-57v-120q0 -53 -26.5 -82t-77.5 -29h-33zM678 692h92q94 0 94 78
t-100 78h-86v-156z" />
    <glyph glyph-name="macron" unicode="&#xaf;" horiz-adv-x="1024" 
d="M272 1118q-74 0 -116.5 35t-42.5 98v17q0 61 43.5 97t115.5 36h480q74 0 116.5 -36t42.5 -97v-17q0 -63 -42 -98t-117 -35h-480z" />
    <glyph glyph-name="degree" unicode="&#xb0;" horiz-adv-x="768" 
d="M385 686q-154 0 -249 87.5t-95 236.5v14q0 149 96 236.5t250 87.5q153 0 246.5 -87t93.5 -237v-14q0 -149 -94.5 -236.5t-247.5 -87.5zM387 870q49 0 80 33.5t31 97.5v31q0 64 -32 98.5t-81 34.5q-52 0 -82.5 -33t-30.5 -98v-33q0 -64 31.5 -97.5t83.5 -33.5z" />
    <glyph glyph-name="plusminus" unicode="&#xb1;" horiz-adv-x="1228" 
d="M598 428q-61 0 -98 39.5t-37 116.5v139h-199q-76 0 -115.5 36t-39.5 97v16q0 58 40 95t115 37h199v178q0 75 37 115t98 40h31q59 0 96 -40t37 -115v-178h201q76 0 115.5 -36.5t39.5 -95.5v-16q0 -61 -39 -97t-116 -36h-201v-139q0 -77 -36.5 -116.5t-96.5 -39.5h-31z
M88 195v18q0 58 40.5 94.5t115.5 36.5h739q76 0 116 -36.5t40 -94.5v-18q0 -61 -39.5 -97.5t-116.5 -36.5h-739q-76 0 -116 36.5t-40 97.5z" />
    <glyph glyph-name="two.sups" unicode="&#xb2;" horiz-adv-x="688" 
d="M197 586q-93 0 -123.5 24t-30.5 97v49q0 41 11.5 73.5t27.5 54t48.5 43.5t60 35.5t77.5 34.5q20 9 48.5 20t43 17.5t30 15t22 17.5t6.5 20q0 30 -21.5 49t-58.5 19q-51 0 -84 -36.5t-41 -84.5q0 -1 -9 -1.5t-24 1t-32.5 5t-35 12.5t-32.5 21t-24 32t-9 45
q0 89 80.5 141.5t224.5 52.5q141 0 222 -65.5t81 -179.5q0 -51 -15.5 -89t-47 -63.5t-60.5 -40t-75 -31.5q-22 -8 -60.5 -20.5t-60.5 -20t-46 -20.5t-36 -29h283q62 0 91 -23t29 -71v-4q0 -52 -28.5 -76t-91.5 -24h-340z" />
    <glyph glyph-name="three.sups" unicode="&#xb3;" horiz-adv-x="688" 
d="M328 567q-138 0 -223 49t-85 125q0 36 15.5 62t38 37.5t45.5 16.5t39.5 4.5t17.5 -3.5q25 -102 143 -102q46 0 74.5 18.5t28.5 46.5q0 51 -66 51h-16q-62 0 -88.5 20t-26.5 62v15q0 84 113 84h33q21 0 34 11.5t13 29.5q0 27 -28 44t-75 17q-109 0 -133 -100q-5 -1 -38 -4
t-71 28t-38 90q0 79 78.5 126.5t212.5 47.5q323 0 323 -210q0 -113 -127 -152q135 -48 135 -182q0 -112 -83.5 -172t-245.5 -60z" />
    <glyph glyph-name="acute" unicode="&#xb4;" horiz-adv-x="1024" 
d="M342 1161q-10 18 17.5 81t85 137.5t120.5 111.5q58 33 109 33q74 0 125 -44t51 -108q0 -55 -31.5 -107.5t-85.5 -82.5q-62 -34 -132 -49t-123 -11.5t-90.5 14.5t-45.5 25z" />
    <glyph glyph-name="paragraph" unicode="&#xb6;" horiz-adv-x="1282" 
d="M967 86v1155q0 102 94 102h33q96 0 96 -102v-1155q0 -104 -96 -104h-33q-94 0 -94 104zM639 86v471h-127q-236 0 -360.5 98t-124.5 289q0 196 120.5 296.5t360.5 100.5h223q62 0 95.5 -32t33.5 -92v-1131q0 -104 -94 -104h-31q-47 0 -71.5 27t-24.5 77z" />
    <glyph glyph-name="periodcentered" unicode="&#xb7;" horiz-adv-x="536" 
d="M242 324q-168 0 -168 165v33q0 166 168 166h47q88 0 129 -40.5t41 -125.5v-33q0 -84 -41.5 -124.5t-128.5 -40.5h-47z" />
    <glyph glyph-name="cedilla" unicode="&#xb8;" horiz-adv-x="1024" 
d="M350 -197q20 61 55 85t123 24h41q156 0 156 -107v-10q0 -60 -94 -127l-154 -121q-41 -22 -89.5 -23t-83.5 23t-23 58z" />
    <glyph glyph-name="one.sups" unicode="&#xb9;" horiz-adv-x="688" 
d="M174 584q-61 0 -90 24.5t-29 77.5v2q0 109 119 109h82v254q-44 -21 -78 -21q-54 0 -92.5 35.5t-38.5 89.5q0 24 7 45.5t17 35.5t20.5 24t18.5 13.5t11 2.5q41 -23 72 -23q38 0 66.5 22.5t37.5 61.5h80q115 0 115 -120v-420h47q118 0 118 -109v-2q0 -53 -28.5 -77.5
t-89.5 -24.5h-365z" />
    <glyph glyph-name="ordmasculine" unicode="&#xba;" horiz-adv-x="974" 
d="M485 500q-197 0 -318.5 121t-121.5 307q0 182 125.5 304t318.5 122q196 0 319.5 -121t123.5 -305t-126 -306t-321 -122zM489 752q69 0 117.5 51.5t48.5 124.5q0 75 -48 126.5t-118 51.5q-72 0 -119.5 -51.5t-47.5 -126.5q0 -74 48 -125t119 -51zM313 131v31
q0 149 150 149h43q78 0 114.5 -36t36.5 -113v-31q0 -75 -36.5 -112t-114.5 -37h-43q-150 0 -150 149z" />
    <glyph glyph-name="guillemotright" unicode="&#xbb;" horiz-adv-x="1128" 
d="M199 113q-70 0 -107 38.5t-37 102.5v8q0 27 18 57.5t44 55.5t62 51.5t66 44.5t62 35q-39 19 -79 44.5t-80.5 58.5t-66.5 70.5t-26 70.5v8q0 65 37 103t107 38h4q60 0 132.5 -55.5t127 -126t92 -132.5t37.5 -79t-37.5 -79t-92 -132.5t-127 -126t-132.5 -55.5h-4zM578 279
v8q0 98 225 219q-49 24 -96.5 55.5t-88 77.5t-40.5 86v8q0 57 33 92t94 35h6q54 0 122 -50t119.5 -113.5t87 -119.5t35.5 -71t-35.5 -71t-87 -119.5t-119.5 -113.5t-122 -50h-6q-61 0 -94 35.5t-33 91.5z" />
    <glyph glyph-name="onequarter" unicode="&#xbc;" horiz-adv-x="1622" 
d="M174 584q-61 0 -90 24.5t-29 77.5v2q0 109 119 109h82v254q-44 -21 -78 -21q-54 0 -92.5 35.5t-38.5 89.5q0 24 7 45.5t17 35.5t20.5 24t18.5 13.5t11 2.5q41 -23 72 -23q38 0 66.5 22.5t37.5 61.5h80q115 0 115 -120v-420h47q118 0 118 -109v-2q0 -53 -28.5 -77.5
t-89.5 -24.5h-365zM270 25q3 44 47 102q1 1 30 35t72 85t94 112t109.5 131.5t104.5 127.5l547 689q4 5 16.5 5.5t28.5 -5.5t31.5 -16.5t26 -30t9.5 -43.5q-4 -52 -47 -103q-331 -397 -411 -496q-74 -91 -209.5 -263t-234.5 -299l-99 -126q-6 -3 -18.5 -4t-29.5 6.5t-32 18
t-25.5 30.5t-9.5 44zM934 256v33q2 40 39 112l147 271q27 52 67 67t142 15q96 0 136 -37t40 -131v-250h4q61 0 86 -20t25 -66v-6q0 -51 -24.5 -70.5t-86.5 -19.5h-4v-45q0 -119 -108 -119h-15q-104 0 -104 119v45h-209q-62 0 -98.5 28.5t-36.5 73.5zM1137 332h155v272z" />
    <glyph glyph-name="onehalf" unicode="&#xbd;" horiz-adv-x="1622" 
d="M174 584q-61 0 -90 24.5t-29 77.5v2q0 109 119 109h82v254q-44 -21 -78 -21q-54 0 -92.5 35.5t-38.5 89.5q0 24 7 45.5t17 35.5t20.5 24t18.5 13.5t11 2.5q41 -23 72 -23q38 0 66.5 22.5t37.5 61.5h80q115 0 115 -120v-420h47q118 0 118 -109v-2q0 -53 -28.5 -77.5
t-89.5 -24.5h-365zM225 25q3 44 47 102q1 1 30 35t72 85t94 112t109.5 131.5t104.5 127.5l547 689q4 5 16.5 5.5t28.5 -5.5t31.5 -16.5t26 -30t9.5 -43.5q-4 -52 -47 -103q-331 -397 -411 -496q-74 -91 -209.5 -263t-234.5 -299l-99 -126q-6 -3 -18.5 -4t-29.5 6.5t-32 18
t-25.5 30.5t-9.5 44zM977 123v49q0 41 11 73.5t27.5 54.5t49 43.5t60.5 35.5t77 35q20 9 48.5 20t43 17.5t30 15t22 17.5t6.5 20q0 30 -21.5 48.5t-58.5 18.5q-51 0 -84 -36t-41 -84q0 -1 -9 -1.5t-24 1t-32.5 5t-35 12t-32.5 20.5t-24 32t-9 45q0 89 80.5 142t224.5 53
q141 0 222 -66t81 -180q0 -41 -11.5 -74.5t-28 -55t-45.5 -40.5t-52.5 -29.5t-60.5 -23.5q-22 -8 -60.5 -20.5t-60.5 -20t-46 -20.5t-36 -29h282q121 0 121 -95v-4q0 -52 -29 -76t-92 -24h-340q-92 0 -122.5 24t-30.5 97z" />
    <glyph glyph-name="threequarters" unicode="&#xbe;" horiz-adv-x="1622" 
d="M328 567q-138 0 -223 49t-85 125q0 36 15.5 62t38 37.5t45.5 16.5t39.5 4.5t17.5 -3.5q25 -102 143 -102q46 0 74.5 18.5t28.5 46.5q0 51 -66 51h-16q-62 0 -88.5 20t-26.5 62v15q0 84 113 84h33q21 0 34 11.5t13 29.5q0 27 -28 44t-75 17q-109 0 -133 -100q-5 -1 -38 -4
t-71 28t-38 90q0 79 78.5 126.5t212.5 47.5q323 0 323 -210q0 -113 -127 -152q135 -48 135 -182q0 -112 -83.5 -172t-245.5 -60zM256 25q3 44 47 102q1 1 30 35t72 85t94 112t109.5 131.5t104.5 127.5l547 689q4 5 16.5 5.5t28.5 -5.5t31.5 -16.5t26 -30t9.5 -43.5
q-4 -52 -47 -103q-366 -439 -412 -496q-74 -91 -209.5 -263t-233.5 -299l-99 -126q-6 -3 -18.5 -4t-29.5 6.5t-32 18t-25.5 30.5t-9.5 44zM934 256v33q2 40 39 112l147 271q27 52 67 67t142 15q96 0 136 -37t40 -131v-250h4q61 0 86 -20t25 -66v-6q0 -51 -24.5 -70.5
t-86.5 -19.5h-4v-45q0 -119 -108 -119h-15q-104 0 -104 119v45h-209q-62 0 -98.5 28.5t-36.5 73.5zM1137 332h155v272z" />
    <glyph glyph-name="questiondown" unicode="&#xbf;" horiz-adv-x="1069" 
d="M553 979q-88 0 -130 40.5t-42 125.5v33q0 165 172 165h45q168 0 168 -165v-33q0 -166 -168 -166h-45zM33 362q0 69 19.5 123t51 88.5t70 61.5t78.5 48t74 41t59 48t31 62q12 36 50 51.5t107 15.5q76 0 120.5 -35t43.5 -102q0 -60 -19 -106.5t-48.5 -75t-65 -50t-71 -36
t-64.5 -29t-47.5 -34t-18.5 -44.5q0 -48 37.5 -75t104.5 -27q101 0 162.5 61t72.5 146q0 2 27 2.5t65 -7t76 -24t65 -57t27 -97.5q0 -140 -135 -239t-366 -99q-237 0 -371.5 104t-134.5 285z" />
    <glyph glyph-name="Agrave" unicode="&#xc0;" horiz-adv-x="1409" 
d="M590 1505q-47 26 -75 71t-28 91q0 55 44 92t108 37q45 0 92 -29q80 -46 142.5 -149t48.5 -131q-7 -12 -39.5 -21t-77.5 -12.5t-104.5 9.5t-110.5 42zM12 109l430 1114q17 55 74 83.5t186 28.5q130 0 183.5 -28t70.5 -84l447 -1110q7 -19 -21.5 -50t-84.5 -56t-113 -25
q-72 0 -134 45.5t-102 148.5l-37 98h-428l-37 -102q-66 -190 -223 -190q-53 0 -106.5 24t-82.5 54t-22 49zM553 569h285l-144 385z" />
    <glyph glyph-name="Aacute" unicode="&#xc1;" horiz-adv-x="1409" 
d="M12 109l430 1114q17 55 74 83.5t186 28.5q130 0 183.5 -28t70.5 -84l447 -1110q7 -19 -21.5 -50t-84.5 -56t-113 -25q-72 0 -134 45.5t-102 148.5l-37 98h-428l-37 -102q-66 -190 -223 -190q-53 0 -106.5 24t-82.5 54t-22 49zM553 569h285l-144 385zM528 1487
q-14 28 48.5 131t142.5 149q47 29 92 29q62 0 106 -37t44 -92q0 -47 -27.5 -91.5t-73.5 -70.5q-69 -38 -147.5 -47.5t-127 2t-57.5 27.5z" />
    <glyph glyph-name="Acircumflex" unicode="&#xc2;" horiz-adv-x="1409" 
d="M528 1434q-49 0 -77.5 28t-28.5 72q0 83 96 164t191 106q94 -25 190 -106t96 -164q0 -44 -28.5 -72t-77.5 -28q-52 0 -100 42.5t-80 116.5q-34 -74 -81.5 -116.5t-99.5 -42.5zM12 109l430 1114q17 55 74 83.5t186 28.5q130 0 183.5 -28t70.5 -84l447 -1110
q7 -19 -21.5 -50t-84.5 -56t-113 -25q-72 0 -134 45.5t-102 148.5l-37 98h-428l-37 -102q-66 -190 -223 -190q-53 0 -106.5 24t-82.5 54t-22 49zM553 569h285l-144 385z" />
    <glyph glyph-name="Atilde" unicode="&#xc3;" horiz-adv-x="1409" 
d="M530 1454q-40 0 -66 32.5t-26 78.5q0 86 45.5 139t108.5 53q106 0 196 -106q14 45 39.5 73.5t57.5 28.5q40 0 66 -31.5t26 -76.5q0 -87 -45.5 -140t-108.5 -53q-107 0 -198 107q-13 -47 -38 -76t-57 -29zM12 109l430 1114q17 55 74 83.5t186 28.5q130 0 183.5 -28
t70.5 -84l447 -1110q7 -19 -21.5 -50t-84.5 -56t-113 -25q-72 0 -134 45.5t-102 148.5l-37 98h-428l-37 -102q-66 -190 -223 -190q-53 0 -106.5 24t-82.5 54t-22 49zM553 569h285l-144 385z" />
    <glyph glyph-name="Adieresis" unicode="&#xc4;" horiz-adv-x="1409" 
d="M938 1425q-87 0 -135.5 47t-48.5 134q0 84 48 132t130 48q84 0 133 -47.5t49 -132.5t-48.5 -133t-127.5 -48zM475 1425q-86 0 -135 47t-49 134q0 84 48.5 132t127.5 48q87 0 136.5 -47t49.5 -133q0 -85 -48.5 -133t-129.5 -48zM12 109l430 1114q17 55 74 83.5t186 28.5
q130 0 183.5 -28t70.5 -84l447 -1110q7 -19 -21.5 -50t-84.5 -56t-113 -25q-72 0 -134 45.5t-102 148.5l-37 98h-428l-37 -102q-66 -190 -223 -190q-53 0 -106.5 24t-82.5 54t-22 49zM553 569h285l-144 385z" />
    <glyph glyph-name="Aring" unicode="&#xc5;" horiz-adv-x="1409" 
d="M12 109l430 1114q17 45 84 71q-90 65 -90 189q0 112 77 185t194 73t191.5 -72.5t74.5 -185.5q0 -124 -96 -191q61 -25 79 -69l447 -1110q7 -19 -21.5 -50t-84.5 -56t-113 -25q-72 0 -134 45.5t-102 148.5l-37 98h-428l-37 -102q-66 -190 -223 -190q-53 0 -106.5 24
t-82.5 54t-22 49zM705 1384q38 0 66 29.5t28 69.5q0 42 -27.5 71t-66.5 29q-40 0 -67.5 -28.5t-27.5 -71.5q0 -40 28 -69.5t67 -29.5zM553 569h285l-142 385z" />
    <glyph glyph-name="AE" unicode="&#xc6;" horiz-adv-x="1832" 
d="M12 109l418 1085q14 44 40.5 71t82.5 43.5t143 16.5h885q94 0 141 -45t47 -127v-10q0 -172 -188 -172h-539l52 -133h317q191 0 191 -158v-8q0 -166 -191 -166h-180l61 -154h297q191 0 191 -162v-10q0 -87 -47.5 -133.5t-143.5 -46.5h-364q-115 0 -176 36t-103 146l-35 92
h-428l-37 -102q-68 -190 -221 -190q-56 0 -110 24t-82 54t-21 49zM553 569h285l-144 385z" />
    <glyph glyph-name="Ccedilla" unicode="&#xc7;" horiz-adv-x="1331" 
d="M59 664q0 149 51 277t142 219t221 142.5t283 51.5q108 0 197.5 -21.5t148 -56t99 -78t58 -86t17.5 -82.5q0 -35 -13 -66t-33 -51.5t-45 -38t-49.5 -26t-46 -15t-34.5 -6t-15 1.5q-38 72 -106 111t-156 39q-130 0 -213.5 -86t-83.5 -229q0 -141 84.5 -229.5t212.5 -88.5
q94 0 163 42t103 118q2 1 15 1.5t34.5 -6t46.5 -15t50 -26t45.5 -38t33.5 -51.5t13 -66q0 -41 -18 -84.5t-59 -88.5t-100 -80.5t-150.5 -58t-200.5 -22.5q-204 0 -362.5 88t-245.5 246t-87 359zM557 -197q20 61 55 85t123 24h41q156 0 156 -107v-10q0 -60 -94 -127
l-154 -121q-41 -22 -89.5 -23t-84 23t-23.5 58z" />
    <glyph glyph-name="Egrave" unicode="&#xc8;" horiz-adv-x="1261" 
d="M535 1505q-47 26 -75 71t-28 91q0 55 44 92t108 37q45 0 92 -29q80 -46 142 -149t48 -131q-7 -12 -39 -21t-77 -12.5t-104.5 9.5t-110.5 42zM94 225v873q0 110 54 168.5t155 58.5h705q96 0 143 -45t47 -127v-10q0 -172 -190 -172h-504v-133h336q190 0 190 -158v-6
q0 -168 -190 -168h-336v-154h514q188 0 188 -162v-10q0 -87 -46.5 -133.5t-141.5 -46.5h-715q-102 0 -155.5 56.5t-53.5 168.5z" />
    <glyph glyph-name="Eacute" unicode="&#xc9;" horiz-adv-x="1261" 
d="M469 1487q-14 28 48 131t142 149q47 29 93 29q62 0 105.5 -37t43.5 -92q0 -47 -27 -91.5t-73 -70.5q-69 -38 -147.5 -47.5t-127 2t-57.5 27.5zM94 225v873q0 110 54 168.5t155 58.5h705q96 0 143 -45t47 -127v-10q0 -172 -190 -172h-504v-133h336q190 0 190 -158v-6
q0 -168 -190 -168h-336v-154h514q188 0 188 -162v-10q0 -87 -46.5 -133.5t-141.5 -46.5h-715q-102 0 -155.5 56.5t-53.5 168.5z" />
    <glyph glyph-name="Ecircumflex" unicode="&#xca;" horiz-adv-x="1261" 
d="M471 1434q-49 0 -77.5 28t-28.5 72q0 83 96 164t190 106q95 -25 191 -106t96 -164q0 -44 -29 -72t-78 -28q-52 0 -100 42.5t-80 116.5q-34 -75 -81 -117t-99 -42zM94 225v873q0 110 54 168.5t155 58.5h705q96 0 143 -45t47 -127v-10q0 -172 -190 -172h-504v-133h336
q190 0 190 -158v-6q0 -168 -190 -168h-336v-154h514q188 0 188 -162v-10q0 -87 -46.5 -133.5t-141.5 -46.5h-715q-102 0 -155.5 56.5t-53.5 168.5z" />
    <glyph glyph-name="Edieresis" unicode="&#xcb;" horiz-adv-x="1261" 
d="M893 1425q-87 0 -135.5 47t-48.5 134q0 84 48 132t130 48q84 0 133 -47.5t49 -132.5t-48.5 -133t-127.5 -48zM430 1425q-86 0 -135 47t-49 134q0 84 48.5 132t127.5 48q87 0 136.5 -47t49.5 -133q0 -85 -48.5 -133t-129.5 -48zM94 225v873q0 110 54 168.5t155 58.5h705
q96 0 143 -45t47 -127v-10q0 -172 -190 -172h-504v-133h336q190 0 190 -158v-6q0 -168 -190 -168h-336v-154h514q188 0 188 -162v-10q0 -87 -46.5 -133.5t-141.5 -46.5h-715q-102 0 -155.5 56.5t-53.5 168.5z" />
    <glyph glyph-name="Igrave" unicode="&#xcc;" horiz-adv-x="626" 
d="M195 1505q-47 26 -75 71t-28 91q0 55 44 92t108 37q45 0 92 -29q80 -46 142 -149t48 -131q-7 -12 -39 -21t-77 -12.5t-104.5 9.5t-110.5 42zM109 180v965q0 190 172 190h59q178 0 178 -190v-965q0 -190 -178 -190h-59q-172 0 -172 190z" />
    <glyph glyph-name="Iacute" unicode="&#xcd;" horiz-adv-x="626" 
d="M106 1487q-14 28 48.5 131t142.5 149q47 29 92 29q62 0 106 -37t44 -92q0 -47 -27.5 -91.5t-73.5 -70.5q-69 -38 -147.5 -47.5t-127 2t-57.5 27.5zM109 180v965q0 190 172 190h59q178 0 178 -190v-965q0 -190 -178 -190h-59q-172 0 -172 190z" />
    <glyph glyph-name="Icircumflex" unicode="&#xce;" horiz-adv-x="626" 
d="M94 1425q-56 0 -90.5 33.5t-34.5 85.5q0 50 34.5 104t87 96t110 73.5t106.5 44.5q49 -13 106.5 -44.5t110 -73.5t87 -96t34.5 -104q0 -52 -34.5 -85.5t-90.5 -33.5q-62 0 -118 50t-95 139q-40 -89 -96 -139t-117 -50zM109 180v965q0 190 172 190h59q178 0 178 -190v-965
q0 -190 -178 -190h-59q-172 0 -172 190z" />
    <glyph glyph-name="Idieresis" unicode="&#xcf;" horiz-adv-x="626" 
d="M543 1425q-87 0 -136 47t-49 134q0 84 48.5 132t130.5 48q84 0 133 -47.5t49 -132.5t-48.5 -133t-127.5 -48zM80 1425q-86 0 -135 47t-49 134q0 84 48.5 132t127.5 48q87 0 136.5 -47t49.5 -133q0 -85 -48.5 -133t-129.5 -48zM109 180v965q0 190 172 190h59
q178 0 178 -190v-965q0 -190 -178 -190h-59q-172 0 -172 190z" />
    <glyph glyph-name="Eth" unicode="&#xd0;" horiz-adv-x="1497" 
d="M172 225v301h-35q-63 0 -97 35t-34 88v33q0 51 34 86t97 35h35v295q0 107 59 167t154 60h354q326 0 516.5 -176.5t190.5 -478.5q0 -306 -194 -488t-521 -182h-330q-95 0 -162 65.5t-67 159.5zM580 350h143q146 0 232.5 84.5t86.5 233.5q0 147 -83 227t-230 80h-149v-172
h135q64 0 96.5 -35t32.5 -86v-33q0 -53 -32.5 -88t-96.5 -35h-135v-176z" />
    <glyph glyph-name="Ntilde" unicode="&#xd1;" horiz-adv-x="1439" 
d="M475 1427q-56 0 -91.5 37.5t-35.5 91.5q0 102 62 165t149 63q147 0 272 -125q20 54 54.5 87.5t79.5 33.5q56 0 91.5 -37.5t35.5 -91.5q0 -102 -62 -164t-149 -62q-150 0 -275 125q-18 -55 -52 -89t-79 -34zM94 180v965q0 94 44 142t124 48h39q68 0 102.5 -20t81.5 -76
l476 -618v524q0 190 178 190h35q172 0 172 -190v-965q0 -93 -44 -141.5t-122 -48.5h-33q-70 0 -104 18.5t-78 71.5l-486 629v-529q0 -190 -178 -190h-35q-172 0 -172 190z" />
    <glyph glyph-name="Ograve" unicode="&#xd2;" horiz-adv-x="1501" 
d="M635 1505q-47 26 -75 71t-28 91q0 55 44 92t108 37q45 0 92 -29q80 -46 142.5 -149t48.5 -131q-7 -12 -39.5 -21t-77.5 -12.5t-104.5 9.5t-110.5 42zM51 664q0 198 89.5 355.5t250 246t361.5 88.5t360.5 -88t248.5 -245.5t89 -356.5t-89 -357.5t-248.5 -247t-360.5 -88.5
q-152 0 -282.5 51.5t-222.5 142.5t-144 220t-52 279zM457 664q0 -148 80.5 -237t214.5 -89q132 0 212 89t80 237q0 147 -80 237t-212 90q-135 0 -215 -88.5t-80 -238.5z" />
    <glyph glyph-name="Oacute" unicode="&#xd3;" horiz-adv-x="1501" 
d="M537 1487q-14 28 48 131t142 149q47 29 92 29q62 0 106 -37t44 -92q0 -47 -27.5 -91.5t-73.5 -70.5q-69 -38 -147 -47.5t-126.5 2t-57.5 27.5zM51 664q0 198 89.5 355.5t250 246t361.5 88.5t360.5 -88t248.5 -245.5t89 -356.5t-89 -357.5t-248.5 -247t-360.5 -88.5
q-152 0 -282.5 51.5t-222.5 142.5t-144 220t-52 279zM457 664q0 -148 80.5 -237t214.5 -89q132 0 212 89t80 237q0 147 -80 237t-212 90q-135 0 -215 -88.5t-80 -238.5z" />
    <glyph glyph-name="Ocircumflex" unicode="&#xd4;" horiz-adv-x="1501" 
d="M569 1434q-49 0 -77.5 28t-28.5 72q0 83 96 164t191 106q94 -25 190 -106t96 -164q0 -44 -28.5 -72t-77.5 -28q-52 0 -100 42.5t-80 116.5q-34 -74 -81.5 -116.5t-99.5 -42.5zM51 664q0 198 89.5 355.5t250 246t361.5 88.5t360.5 -88t248.5 -245.5t89 -356.5t-89 -357.5
t-248.5 -247t-360.5 -88.5q-152 0 -282.5 51.5t-222.5 142.5t-144 220t-52 279zM457 664q0 -148 80.5 -237t214.5 -89q132 0 212 89t80 237q0 147 -80 237t-212 90q-135 0 -215 -88.5t-80 -238.5z" />
    <glyph glyph-name="Otilde" unicode="&#xd5;" horiz-adv-x="1501" 
d="M51 664q0 198 89.5 355.5t250 246t361.5 88.5t360.5 -88t248.5 -245.5t89 -356.5t-89 -357.5t-248.5 -247t-360.5 -88.5q-152 0 -282.5 51.5t-222.5 142.5t-144 220t-52 279zM457 664q0 -148 80.5 -237t214.5 -89q132 0 212 89t80 237q0 147 -80 237t-212 90
q-135 0 -215 -88.5t-80 -238.5zM573 1454q-40 0 -66 32.5t-26 78.5q0 86 45.5 139t108.5 53q106 0 196 -106q14 45 39.5 73.5t57.5 28.5q40 0 66 -31.5t26 -76.5q0 -87 -45.5 -140t-108.5 -53q-107 0 -198 107q-13 -47 -38 -76t-57 -29z" />
    <glyph glyph-name="Odieresis" unicode="&#xd6;" horiz-adv-x="1501" 
d="M987 1425q-87 0 -135.5 47t-48.5 134q0 84 48 132t130 48q84 0 133 -47.5t49 -132.5t-48.5 -133t-127.5 -48zM524 1425q-86 0 -135 47t-49 134q0 84 48.5 132t127.5 48q87 0 136.5 -47t49.5 -133q0 -85 -48.5 -133t-129.5 -48zM51 664q0 198 89.5 355.5t250 246
t361.5 88.5t360.5 -88t248.5 -245.5t89 -356.5t-89 -357.5t-248.5 -247t-360.5 -88.5q-152 0 -282.5 51.5t-222.5 142.5t-144 220t-52 279zM457 664q0 -148 80.5 -237t214.5 -89q132 0 212 89t80 237q0 147 -80 237t-212 90q-135 0 -215 -88.5t-80 -238.5z" />
    <glyph glyph-name="multiply" unicode="&#xd7;" horiz-adv-x="1157" 
d="M154 109q-28 28 -38.5 60.5t2 70t50.5 73.5l211 203l-211 203q-37 35 -49.5 73t-3 70t36.5 60l22 24q38 45 95 42.5t110 -60.5l201 -211l198 211q53 58 111 60.5t96 -42.5l21 -24q26 -28 36 -60t-3 -70t-50 -73l-209 -203l209 -203q38 -36 51 -73.5t3.5 -70t-37.5 -60.5
l-25 -25q-26 -26 -58 -35.5t-71 3t-74 50.5l-198 211l-201 -211q-35 -38 -74 -50.5t-70.5 -3t-58.5 35.5z" />
    <glyph glyph-name="Oslash" unicode="&#xd8;" horiz-adv-x="1501" 
d="M68 29q0 44 47 96l86 96q-146 186 -146 443q0 147 52 275t143.5 219t222.5 143.5t283 52.5q207 0 377 -101l139 152q8 9 45.5 -2t73.5 -43t36 -74q0 -46 -45 -96l-77 -86q147 -183 147 -440q0 -198 -88.5 -356t-248 -247.5t-361.5 -89.5q-208 0 -383 101l-146 -162
q-8 -9 -46 2.5t-74.5 43.5t-36.5 73zM459 506l430 477q-66 27 -135 27q-149 0 -236.5 -94.5t-87.5 -251.5q0 -86 29 -158zM618 346q62 -27 138 -27q144 0 233.5 96t89.5 249q0 86 -30 157z" />
    <glyph glyph-name="Ugrave" unicode="&#xd9;" horiz-adv-x="1390" 
d="M571 1505q-47 26 -74.5 71t-27.5 91q0 55 44 92t108 37q45 0 92 -29q80 -46 142 -149t48 -131q-7 -12 -39.5 -21t-77.5 -12.5t-104.5 9.5t-110.5 42zM88 582v563q0 94 47 142t133 48h51q181 0 181 -190v-565q0 -246 196 -246q100 0 147.5 60.5t47.5 187.5v563
q0 95 47 142.5t133 47.5h53q179 0 179 -190v-563q0 -299 -154 -452t-455 -153q-300 0 -453 152.5t-153 452.5z" />
    <glyph glyph-name="Uacute" unicode="&#xda;" horiz-adv-x="1390" 
d="M483 1489q-14 28 48.5 131t142.5 149q47 29 92 29q62 0 105.5 -37t43.5 -92q0 -47 -27 -91.5t-73 -70.5q-69 -38 -147.5 -47.5t-127 2t-57.5 27.5zM88 582v563q0 94 47 142t133 48h51q181 0 181 -190v-565q0 -246 196 -246q100 0 147.5 60.5t47.5 187.5v563
q0 95 47 142.5t133 47.5h53q179 0 179 -190v-563q0 -299 -154 -452t-455 -153q-300 0 -453 152.5t-153 452.5z" />
    <glyph glyph-name="Ucircumflex" unicode="&#xdb;" horiz-adv-x="1390" 
d="M481 1425q-56 0 -90.5 33.5t-34.5 85.5q0 50 34.5 104t87 96t110 73.5t106.5 44.5q49 -13 106.5 -44.5t110 -73.5t87 -96t34.5 -104q0 -52 -34.5 -85.5t-90.5 -33.5q-62 0 -118 50t-95 139q-40 -89 -96 -139t-117 -50zM88 582v563q0 94 47 142t133 48h51q181 0 181 -190
v-565q0 -246 196 -246q100 0 147.5 60.5t47.5 187.5v563q0 95 47 142.5t133 47.5h53q179 0 179 -190v-563q0 -299 -154 -452t-455 -153q-300 0 -453 152.5t-153 452.5z" />
    <glyph glyph-name="Udieresis" unicode="&#xdc;" horiz-adv-x="1390" 
d="M930 1425q-87 0 -136 47t-49 134q0 84 48.5 132t130.5 48q84 0 133 -47.5t49 -132.5t-48.5 -133t-127.5 -48zM467 1425q-86 0 -135 47t-49 134q0 84 48.5 132t127.5 48q87 0 136.5 -47t49.5 -133q0 -85 -48.5 -133t-129.5 -48zM88 582v563q0 94 47 142t133 48h51
q181 0 181 -190v-565q0 -246 196 -246q100 0 147.5 60.5t47.5 187.5v563q0 95 47 142.5t133 47.5h53q179 0 179 -190v-563q0 -299 -154 -452t-455 -153q-300 0 -453 152.5t-153 452.5z" />
    <glyph glyph-name="Yacute" unicode="&#xdd;" horiz-adv-x="1308" 
d="M438 1489q-14 28 48.5 131t142.5 149q47 29 92 29q62 0 105.5 -37t43.5 -92q0 -47 -27 -91.5t-73 -70.5q-69 -38 -147.5 -47.5t-127 2t-57.5 27.5zM453 180v338l-461 660q-4 7 2.5 23.5t27 39t50 42.5t79.5 34t109 14q115 0 193 -141l202 -350l213 350q84 143 195 143
q53 0 99.5 -14.5t75 -35t48.5 -43t27.5 -39.5t3.5 -23l-455 -660v-338q0 -190 -178 -190h-59q-172 0 -172 190z" />
    <glyph glyph-name="Thorn" unicode="&#xde;" horiz-adv-x="1275" 
d="M94 180v965q0 190 172 190h60q178 0 178 -190v-17h141q289 0 437.5 -117.5t148.5 -346.5q0 -457 -574 -457h-153v-27q0 -190 -178 -190h-60q-172 0 -172 190zM504 506h145q191 0 191 156q0 81 -46 119t-145 38h-145v-313z" />
    <glyph glyph-name="germandbls" unicode="&#xdf;" horiz-adv-x="1280" 
d="M90 172v743q0 282 134 408.5t431 126.5q245 0 382 -97t137 -263q0 -116 -51.5 -183.5t-159.5 -93.5q141 -57 217.5 -166t76.5 -250q0 -190 -111.5 -308t-291.5 -118q-153 0 -232 53t-79 150q0 36 19.5 73.5t39 57.5t23.5 17q28 -25 56.5 -37.5t76.5 -12.5q54 0 92.5 35.5
t38.5 87.5q0 64 -42 104t-136 70q-67 26 -102.5 64.5t-35.5 118.5q0 39 16.5 76t31.5 54t18 17q77 0 119.5 34t42.5 99q0 61 -42 96t-110 35q-166 0 -166 -209v-782q0 -91 -46.5 -140.5t-129.5 -49.5h-41q-80 0 -128 51.5t-48 138.5z" />
    <glyph glyph-name="agrave" unicode="&#xe0;" horiz-adv-x="1175" 
d="M43 279q0 174 150.5 258.5t472.5 85.5h39q-6 66 -46.5 100.5t-111.5 34.5q-145 0 -205 -135q-1 -3 -27.5 -3.5t-65 5.5t-76.5 20t-64.5 48t-26.5 83q0 124 121 192t366 68q272 0 398.5 -106t126.5 -326v-577q0 -15 -48 -30t-104 -15q-175 0 -221 163
q-51 -78 -140.5 -121.5t-199.5 -43.5q-153 0 -245.5 83t-92.5 216zM416 313q0 -44 32.5 -69t86.5 -25q77 0 124.5 48.5t47.5 125.5v35h-50q-121 -3 -181 -30.5t-60 -84.5zM455 1221q-47 26 -75 70.5t-28 90.5q0 55 44 92t108 37q47 0 92 -28q80 -46 142 -149.5t48 -131.5
q-10 -16 -59 -27t-127 -1.5t-145 47.5z" />
    <glyph glyph-name="aacute" unicode="&#xe1;" horiz-adv-x="1175" 
d="M356 1200q-14 28 48.5 131.5t142.5 149.5q45 28 92 28q62 0 105.5 -37t43.5 -92q0 -47 -27 -91t-73 -70q-69 -38 -147.5 -47.5t-127 1.5t-57.5 27zM43 279q0 174 150.5 258.5t472.5 85.5h39q-6 66 -46.5 100.5t-111.5 34.5q-145 0 -205 -135q-1 -3 -27.5 -3.5t-65 5.5
t-76.5 20t-64.5 48t-26.5 83q0 124 121 192t366 68q272 0 398.5 -106t126.5 -326v-577q0 -15 -48 -30t-104 -15q-175 0 -221 163q-51 -78 -140.5 -121.5t-199.5 -43.5q-153 0 -245.5 83t-92.5 216zM416 313q0 -44 32.5 -69t86.5 -25q77 0 124.5 48.5t47.5 125.5v35h-50
q-121 -3 -181 -30.5t-60 -84.5z" />
    <glyph glyph-name="acircumflex" unicode="&#xe2;" horiz-adv-x="1175" 
d="M391 1145q-49 0 -77.5 28t-28.5 72q0 57 49.5 116.5t114 99.5t122.5 55q94 -25 190.5 -106.5t96.5 -164.5q0 -44 -28.5 -72t-77.5 -28q-52 0 -100.5 43t-80.5 117q-34 -75 -81 -117.5t-99 -42.5zM43 279q0 174 150.5 258.5t472.5 85.5h39q-6 66 -46.5 100.5t-111.5 34.5
q-145 0 -205 -135q-1 -3 -27.5 -3.5t-65 5.5t-76.5 20t-64.5 48t-26.5 83q0 124 121 192t366 68q272 0 398.5 -106t126.5 -326v-577q0 -15 -48 -30t-104 -15q-175 0 -221 163q-51 -78 -140.5 -121.5t-199.5 -43.5q-153 0 -245.5 83t-92.5 216zM416 313q0 -44 32.5 -69
t86.5 -25q77 0 124.5 48.5t47.5 125.5v35h-50q-121 -3 -181 -30.5t-60 -84.5z" />
    <glyph glyph-name="atilde" unicode="&#xe3;" horiz-adv-x="1175" 
d="M43 279q0 174 150.5 258.5t472.5 85.5h39q-6 66 -46.5 100.5t-111.5 34.5q-145 0 -205 -135q-1 -3 -27.5 -3.5t-65 5.5t-76.5 20t-64.5 48t-26.5 83q0 124 121 192t366 68q272 0 398.5 -106t126.5 -326v-577q0 -15 -48 -30t-104 -15q-175 0 -221 163
q-51 -78 -140.5 -121.5t-199.5 -43.5q-153 0 -245.5 83t-92.5 216zM416 313q0 -44 32.5 -69t86.5 -25q77 0 124.5 48.5t47.5 125.5v35h-50q-121 -3 -181 -30.5t-60 -84.5zM391 1169q-40 0 -66 32.5t-26 78.5q0 86 45.5 139.5t108.5 53.5q105 0 196 -107q14 46 39 74t57 28
q41 0 67 -31.5t26 -76.5q0 -87 -45.5 -140t-108.5 -53q-108 0 -199 107q-13 -47 -37.5 -76t-56.5 -29z" />
    <glyph glyph-name="adieresis" unicode="&#xe4;" horiz-adv-x="1175" 
d="M809 1108q-87 0 -135.5 46.5t-48.5 133.5q0 84 48 132t130 48q84 0 133 -47.5t49 -132.5t-48 -132.5t-128 -47.5zM346 1108q-86 0 -135 46.5t-49 133.5q0 84 48.5 132t127.5 48q87 0 136.5 -47t49.5 -133q0 -85 -48.5 -132.5t-129.5 -47.5zM43 279q0 174 150.5 258.5
t472.5 85.5h39q-6 66 -46.5 100.5t-111.5 34.5q-145 0 -205 -135q-1 -3 -27.5 -3.5t-65 5.5t-76.5 20t-64.5 48t-26.5 83q0 124 121 192t366 68q272 0 398.5 -106t126.5 -326v-577q0 -15 -48 -30t-104 -15q-175 0 -221 163q-51 -78 -140.5 -121.5t-199.5 -43.5
q-153 0 -245.5 83t-92.5 216zM416 313q0 -44 32.5 -69t86.5 -25q77 0 124.5 48.5t47.5 125.5v35h-50q-121 -3 -181 -30.5t-60 -84.5z" />
    <glyph glyph-name="aring" unicode="&#xe5;" horiz-adv-x="1175" 
d="M571 1108q-120 0 -193 72t-73 186q0 110 75.5 184t194.5 74q118 0 192.5 -74t74.5 -184q0 -112 -75.5 -185t-195.5 -73zM573 1268q40 0 67.5 28.5t27.5 69.5t-27.5 70.5t-67.5 29.5t-67 -29.5t-27 -70.5q0 -42 27 -70t67 -28zM43 279q0 174 150.5 258.5t472.5 85.5h39
q-6 66 -46.5 100.5t-111.5 34.5q-145 0 -205 -135q-1 -3 -27.5 -3.5t-65 5.5t-76.5 20t-64.5 48t-26.5 83q0 124 121 192t366 68q272 0 398.5 -106t126.5 -326v-577q0 -15 -48 -30t-104 -15q-175 0 -221 163q-51 -78 -140.5 -121.5t-199.5 -43.5q-153 0 -245.5 83t-92.5 216
zM416 313q0 -44 32.5 -69t86.5 -25q77 0 124.5 48.5t47.5 125.5v35h-50q-121 -3 -181 -30.5t-60 -84.5z" />
    <glyph glyph-name="ae" unicode="&#xe6;" horiz-adv-x="1785" 
d="M43 279q0 174 150.5 258.5t472.5 85.5h39q-6 66 -46.5 100.5t-111.5 34.5q-145 0 -205 -135q-1 -3 -27.5 -3.5t-65 5.5t-76.5 20t-64.5 48t-26.5 83q0 123 113 191.5t337 68.5q242 0 357 -112q127 112 330 112q231 0 378.5 -142.5t147.5 -363.5v-24q-3 -103 -78 -103
h-643q18 -78 80 -118.5t156 -40.5q87 0 150 36t95 93q1 2 19.5 -0.5t45.5 -12.5t54 -27t45.5 -49.5t18.5 -74.5q0 -104 -118.5 -171t-326.5 -67q-325 0 -446 211q-55 -91 -164.5 -146.5t-247.5 -55.5q-153 0 -247.5 83t-94.5 216zM1018 606h375q-3 79 -50.5 126.5
t-128.5 47.5q-77 0 -132 -49t-64 -125zM416 313q0 -44 32.5 -69t86.5 -25q77 0 124.5 48.5t47.5 125.5v35h-50q-121 -3 -181 -30.5t-60 -84.5z" />
    <glyph glyph-name="ccedilla" unicode="&#xe7;" horiz-adv-x="1048" 
d="M45 506q0 231 152 379.5t389 148.5q92 0 168 -18.5t123.5 -47.5t80.5 -66t46.5 -71.5t13.5 -66.5t-11 -59t-29 -45t-40 -32t-44 -21t-40.5 -11t-31 -3.5t-13.5 3.5q-53 133 -201 133q-92 0 -151.5 -63t-59.5 -160q0 -100 59 -165t152 -65q74 0 125.5 36.5t75.5 99.5
q1 3 13 3.5t31 -2.5t41 -10t44 -21t40 -32.5t29 -47t11 -62.5q0 -40 -25 -84.5t-74 -87t-136 -70t-197 -27.5q-242 0 -391.5 148.5t-149.5 386.5zM401 -197q20 60 55.5 84.5t123.5 24.5h41q155 0 155 -107v-10q0 -60 -94 -127l-154 -121q-41 -22 -89.5 -23t-83.5 23t-23 58z
" />
    <glyph glyph-name="egrave" unicode="&#xe8;" horiz-adv-x="1153" 
d="M461 1219q-47 26 -75 70.5t-28 90.5q0 55 44 92t108 37q47 0 92 -28q80 -46 142.5 -149.5t48.5 -131.5q-10 -16 -59.5 -27t-127.5 -1.5t-145 47.5zM45 496q0 234 153.5 387t387.5 153q232 0 380 -142.5t148 -363.5v-24q-3 -103 -80 -103h-641q18 -78 79.5 -118.5
t156.5 -40.5q87 0 150 36t95 93q0 2 18.5 -0.5t45.5 -12.5t53.5 -27t45 -49.5t18.5 -74.5q0 -105 -118 -171.5t-327 -66.5q-260 0 -412.5 140.5t-152.5 384.5zM387 606h373q-2 79 -49.5 126.5t-128.5 47.5q-76 0 -131 -49.5t-64 -124.5z" />
    <glyph glyph-name="eacute" unicode="&#xe9;" horiz-adv-x="1153" 
d="M371 1200q-14 28 48 131.5t142 149.5q45 28 92 28q62 0 106 -37t44 -92q0 -47 -27.5 -91t-73.5 -70q-69 -38 -147 -47.5t-126.5 1.5t-57.5 27zM45 496q0 234 153.5 387t387.5 153q232 0 380 -142.5t148 -363.5v-24q-3 -103 -80 -103h-641q18 -78 79.5 -118.5t156.5 -40.5
q87 0 150 36t95 93q0 2 18.5 -0.5t45.5 -12.5t53.5 -27t45 -49.5t18.5 -74.5q0 -105 -118 -171.5t-327 -66.5q-260 0 -412.5 140.5t-152.5 384.5zM387 606h373q-2 79 -49.5 126.5t-128.5 47.5q-76 0 -131 -49.5t-64 -124.5z" />
    <glyph glyph-name="ecircumflex" unicode="&#xea;" horiz-adv-x="1153" 
d="M399 1147q-49 0 -77.5 28t-28.5 72q0 83 96.5 164.5t190.5 106.5q58 -15 122.5 -55t114 -99.5t49.5 -116.5q0 -44 -28.5 -72t-77.5 -28q-52 0 -99.5 43t-80.5 117q-34 -75 -81.5 -117.5t-99.5 -42.5zM45 496q0 234 153.5 387t387.5 153q232 0 380 -142.5t148 -363.5v-24
q-3 -103 -80 -103h-641q18 -78 79.5 -118.5t156.5 -40.5q87 0 150 36t95 93q0 2 18.5 -0.5t45.5 -12.5t53.5 -27t45 -49.5t18.5 -74.5q0 -105 -118 -171.5t-327 -66.5q-260 0 -412.5 140.5t-152.5 384.5zM387 606h373q-2 79 -49.5 126.5t-128.5 47.5q-76 0 -131 -49.5
t-64 -124.5z" />
    <glyph glyph-name="edieresis" unicode="&#xeb;" horiz-adv-x="1153" 
d="M819 1108q-87 0 -135.5 46.5t-48.5 133.5q0 84 48 132t130 48q84 0 133 -47.5t49 -132.5t-48 -132.5t-128 -47.5zM356 1108q-86 0 -135 46.5t-49 133.5q0 84 48.5 132t127.5 48q87 0 137 -47.5t50 -132.5t-49 -132.5t-130 -47.5zM45 496q0 234 153.5 387t387.5 153
q232 0 380 -142.5t148 -363.5v-24q-3 -103 -80 -103h-641q18 -78 79.5 -118.5t156.5 -40.5q87 0 150 36t95 93q0 2 18.5 -0.5t45.5 -12.5t53.5 -27t45 -49.5t18.5 -74.5q0 -105 -118 -171.5t-327 -66.5q-260 0 -412.5 140.5t-152.5 384.5zM387 606h373q-2 79 -49.5 126.5
t-128.5 47.5q-76 0 -131 -49.5t-64 -124.5z" />
    <glyph glyph-name="igrave" unicode="&#xec;" horiz-adv-x="585" 
d="M180 1219q-47 26 -74.5 70.5t-27.5 90.5q0 55 44 92t107 37q48 0 93 -28q80 -46 142 -149.5t48 -131.5q-10 -16 -59.5 -27t-127.5 -1.5t-145 47.5zM96 180v658q0 188 176 188h41q86 0 131 -42.5t45 -145.5v-658q0 -190 -172 -190h-41q-86 0 -133 43.5t-47 146.5z" />
    <glyph glyph-name="iacute" unicode="&#xed;" horiz-adv-x="585" 
d="M78 1200q-14 28 48 131.5t142 149.5q45 28 92 28q62 0 106 -37t44 -92q0 -47 -27 -91t-73 -70q-69 -38 -147.5 -47.5t-127 1.5t-57.5 27zM96 180v658q0 188 176 188h41q86 0 131 -42.5t45 -145.5v-658q0 -190 -172 -190h-41q-86 0 -133 43.5t-47 146.5z" />
    <glyph glyph-name="icircumflex" unicode="&#xee;" horiz-adv-x="585" 
d="M78 1108q-56 0 -90.5 33.5t-34.5 85.5q0 66 59 136t135.5 117t143.5 64q67 -17 143.5 -64t135.5 -117t59 -136q0 -52 -34.5 -85.5t-90.5 -33.5q-63 0 -118.5 50t-94.5 138q-40 -88 -96 -138t-117 -50zM96 180v658q0 188 176 188h41q86 0 131 -42.5t45 -145.5v-658
q0 -190 -172 -190h-41q-86 0 -133 43.5t-47 146.5z" />
    <glyph glyph-name="idieresis" unicode="&#xef;" horiz-adv-x="585" 
d="M526 1108q-87 0 -135.5 46.5t-48.5 133.5q0 84 48 132t130 48q84 0 133 -47.5t49 -132.5t-48 -132.5t-128 -47.5zM63 1108q-86 0 -135 46.5t-49 133.5q0 84 48.5 132t127.5 48q87 0 137 -47.5t50 -132.5t-49 -132.5t-130 -47.5zM96 180v658q0 188 176 188h41
q86 0 131 -42.5t45 -145.5v-658q0 -190 -172 -190h-41q-86 0 -133 43.5t-47 146.5z" />
    <glyph glyph-name="eth" unicode="&#xf0;" horiz-adv-x="1273" 
d="M49 479q0 215 132 351.5t343 136.5q101 0 179 -42.5t124 -111.5q-55 180 -206 305l-168 -84q-63 -31 -112 -17t-69 68l-4 11q-40 112 76 170h2q-81 28 -149 43q-2 3 -3 22.5t20.5 49.5t50 58.5t86.5 49t130 20.5q129 0 250 -53l203 100q30 15 56.5 17t48 -7.5t38 -24
t33.5 -36.5l8 -10q32 -40 10 -89t-86 -81l-77 -37q122 -125 192 -297.5t70 -359.5q0 -300 -169 -480t-442 -180q-259 0 -413 134t-154 374zM420 487q0 -93 56 -154t145 -61q93 0 148.5 57.5t55.5 153.5v109q-27 47 -81 78.5t-115 31.5q-94 0 -151.5 -60.5t-57.5 -154.5z" />
    <glyph glyph-name="ntilde" unicode="&#xf1;" horiz-adv-x="1241" 
d="M387 1110q-56 0 -91.5 37.5t-35.5 91.5q0 102 62 164.5t149 62.5q147 0 272 -125q20 54 54.5 87.5t79.5 33.5q56 0 91.5 -37.5t35.5 -91.5q0 -102 -62 -163.5t-149 -61.5q-150 0 -275 125q-18 -55 -52 -89t-79 -34zM90 180v801q0 7 20.5 17.5t57.5 19t74 8.5
q77 0 138 -40.5t87 -135.5q59 89 138.5 137.5t195.5 48.5q77 0 138.5 -21.5t102.5 -58.5t68 -89t39 -109.5t12 -122.5v-455q0 -190 -174 -190h-39q-86 0 -133 43.5t-47 146.5v387q0 69 -35 109.5t-96 40.5q-102 0 -154 -82v-455q0 -190 -174 -190h-41q-84 0 -131 43.5
t-47 146.5z" />
    <glyph glyph-name="ograve" unicode="&#xf2;" horiz-adv-x="1200" 
d="M485 1219q-47 26 -74.5 70.5t-27.5 90.5q0 55 44 92t108 37q47 0 92 -28q80 -46 142 -149.5t48 -131.5q-10 -16 -59.5 -27t-127.5 -1.5t-145 47.5zM45 506q0 238 153.5 384t405.5 146q249 0 400 -146t151 -386q0 -241 -152.5 -387t-404.5 -146t-402.5 145.5t-150.5 389.5
zM379 506q0 -103 61.5 -168.5t159.5 -65.5q95 0 158 66t63 166q0 103 -62 169t-159 66t-159 -66t-62 -167z" />
    <glyph glyph-name="oacute" unicode="&#xf3;" horiz-adv-x="1200" 
d="M385 1202q-14 28 48 131.5t142 149.5q45 28 93 28q62 0 105.5 -37t43.5 -92q0 -47 -27 -91t-73 -70q-69 -38 -147.5 -47.5t-127 1.5t-57.5 27zM45 506q0 238 153.5 384t405.5 146q249 0 400 -146t151 -386q0 -241 -152.5 -387t-404.5 -146t-402.5 145.5t-150.5 389.5z
M379 506q0 -103 61.5 -168.5t159.5 -65.5q95 0 158 66t63 166q0 103 -62 169t-159 66t-159 -66t-62 -167z" />
    <glyph glyph-name="ocircumflex" unicode="&#xf4;" horiz-adv-x="1200" 
d="M420 1147q-49 0 -78 28t-29 72q0 83 96.5 164.5t190.5 106.5q94 -25 190.5 -106.5t96.5 -164.5q0 -44 -29 -72t-78 -28q-52 0 -99.5 43t-80.5 117q-34 -75 -81 -117.5t-99 -42.5zM45 506q0 238 153.5 384t405.5 146q249 0 400 -146t151 -386q0 -241 -152.5 -387
t-404.5 -146t-402.5 145.5t-150.5 389.5zM379 506q0 -103 61.5 -168.5t159.5 -65.5q95 0 158 66t63 166q0 103 -62 169t-159 66t-159 -66t-62 -167z" />
    <glyph glyph-name="otilde" unicode="&#xf5;" horiz-adv-x="1200" 
d="M45 506q0 238 153.5 384t405.5 146q249 0 400 -146t151 -386q0 -241 -152.5 -387t-404.5 -146t-402.5 145.5t-150.5 389.5zM379 506q0 -103 61.5 -168.5t159.5 -65.5q95 0 158 66t63 166q0 103 -62 169t-159 66t-159 -66t-62 -167zM422 1169q-40 0 -66 32.5t-26 78.5
q0 86 45 139.5t108 53.5q106 0 197 -107q14 46 39 74t57 28q40 0 66 -31.5t26 -76.5q0 -87 -45 -140t-108 -53q-108 0 -199 107q-13 -47 -37.5 -76t-56.5 -29z" />
    <glyph glyph-name="odieresis" unicode="&#xf6;" horiz-adv-x="1200" 
d="M836 1108q-87 0 -136 46.5t-49 133.5q0 84 48 132t130 48q84 0 133.5 -47.5t49.5 -132.5t-48 -132.5t-128 -47.5zM373 1108q-86 0 -135.5 47t-49.5 133q0 83 49 131.5t128 48.5q87 0 136.5 -47t49.5 -133q0 -85 -48.5 -132.5t-129.5 -47.5zM45 506q0 238 153.5 384
t405.5 146q249 0 400 -146t151 -386q0 -241 -152.5 -387t-404.5 -146t-402.5 145.5t-150.5 389.5zM379 506q0 -103 61.5 -168.5t159.5 -65.5q95 0 158 66t63 166q0 103 -62 169t-159 66t-159 -66t-62 -167z" />
    <glyph glyph-name="divide" unicode="&#xf7;" horiz-adv-x="1228" 
d="M592 772q-137 0 -137 139v29q0 139 137 139h41q141 0 141 -139v-29q0 -139 -141 -139h-41zM244 373q-76 0 -116 36.5t-40 100.5v18q0 63 40 100.5t116 37.5h739q77 0 116.5 -37t39.5 -101v-18q0 -65 -39 -101t-117 -36h-739zM455 102v29q0 139 137 139h41q141 0 141 -139
v-29q0 -139 -141 -139h-41q-137 0 -137 139z" />
    <glyph glyph-name="oslash" unicode="&#xf8;" horiz-adv-x="1200" 
d="M10 -33q0 41 47 94l101 111q-109 140 -109 332q0 149 70 270.5t198 191.5t289 70q149 0 273 -65l174 192q8 9 45.5 -1.5t73.5 -41t36 -69.5q0 -47 -45 -97l-112 -127q104 -135 104 -321q0 -231 -156 -383t-401 -152q-151 0 -266 62l-164 -183q-8 -8 -46 3t-75 42.5
t-37 71.5zM391 395l303 332q-42 25 -92 25q-102 0 -167.5 -70t-65.5 -178q0 -57 22 -109zM516 283q41 -23 86 -23q101 0 167.5 69.5t66.5 174.5q0 59 -25 104q1 0 -73 -81t-148 -163z" />
    <glyph glyph-name="ugrave" unicode="&#xf9;" horiz-adv-x="1241" 
d="M498 1219q-47 26 -75 70.5t-28 90.5q0 55 44 92t108 37q47 0 92 -28q80 -46 142 -149.5t48 -131.5q-10 -16 -59 -27t-127 -1.5t-145 47.5zM80 373v465q0 188 174 188h39q86 0 133 -42.5t47 -145.5v-396q0 -69 35 -109t98 -40q99 0 152 80v465q0 188 174 188h41
q85 0 131.5 -42.5t46.5 -145.5v-803q0 -6 -20.5 -16.5t-57.5 -19.5t-74 -9q-78 0 -138.5 39t-86.5 131q-59 -90 -139 -139.5t-195 -49.5q-95 0 -167 33t-113 90.5t-60.5 127t-19.5 151.5z" />
    <glyph glyph-name="uacute" unicode="&#xfa;" horiz-adv-x="1241" 
d="M401 1200q-14 28 48.5 131.5t142.5 149.5q45 28 92 28q62 0 106 -37t44 -92q0 -47 -27.5 -91t-73.5 -70q-69 -38 -147.5 -47.5t-127 1.5t-57.5 27zM80 373v465q0 188 174 188h39q86 0 133 -42.5t47 -145.5v-396q0 -69 35 -109t98 -40q99 0 152 80v465q0 188 174 188h41
q85 0 131.5 -42.5t46.5 -145.5v-803q0 -6 -20.5 -16.5t-57.5 -19.5t-74 -9q-78 0 -138.5 39t-86.5 131q-59 -90 -139 -139.5t-195 -49.5q-95 0 -167 33t-113 90.5t-60.5 127t-19.5 151.5z" />
    <glyph glyph-name="ucircumflex" unicode="&#xfb;" horiz-adv-x="1241" 
d="M408 1108q-56 0 -90.5 33.5t-34.5 85.5q0 66 59 136t135.5 117t143.5 64q67 -17 143.5 -64t135 -117t58.5 -136q0 -52 -34 -85.5t-90 -33.5q-63 0 -118.5 50t-94.5 138q-40 -88 -96 -138t-117 -50zM80 373v465q0 188 174 188h39q86 0 133 -42.5t47 -145.5v-396
q0 -69 35 -109t98 -40q99 0 152 80v465q0 188 174 188h41q85 0 131.5 -42.5t46.5 -145.5v-803q0 -6 -20.5 -16.5t-57.5 -19.5t-74 -9q-78 0 -138.5 39t-86.5 131q-59 -90 -139 -139.5t-195 -49.5q-95 0 -167 33t-113 90.5t-60.5 127t-19.5 151.5z" />
    <glyph glyph-name="udieresis" unicode="&#xfc;" horiz-adv-x="1241" 
d="M856 1108q-87 0 -135.5 46.5t-48.5 133.5q0 84 48 132t130 48q84 0 133 -47.5t49 -132.5t-48 -132.5t-128 -47.5zM393 1108q-86 0 -135 46.5t-49 133.5q0 84 48.5 132t127.5 48q87 0 136.5 -47t49.5 -133q0 -85 -48.5 -132.5t-129.5 -47.5zM80 373v465q0 188 174 188h39
q86 0 133 -42.5t47 -145.5v-396q0 -69 35 -109t98 -40q99 0 152 80v465q0 188 174 188h41q85 0 131.5 -42.5t46.5 -145.5v-803q0 -6 -20.5 -16.5t-57.5 -19.5t-74 -9q-78 0 -138.5 39t-86.5 131q-59 -90 -139 -139.5t-195 -49.5q-95 0 -167 33t-113 90.5t-60.5 127
t-19.5 151.5z" />
    <glyph glyph-name="yacute" unicode="&#xfd;" horiz-adv-x="1167" 
d="M369 1200q-14 28 48 131.5t142 149.5q45 28 92 28q62 0 106 -37t44 -92q0 -47 -27.5 -91t-73.5 -70q-69 -38 -147 -47.5t-126.5 1.5t-57.5 27zM354 147l-338 768q-2 6 8.5 19.5t32.5 29.5t49.5 30.5t62 24.5t67.5 11q151 0 204 -178l154 -444l143 442q29 96 82.5 138
t118.5 42q52 0 106 -24t83.5 -51.5t25.5 -39.5l-446 -1126q-68 -174 -209 -174q-53 0 -106.5 23.5t-81.5 49t-23 36.5l168 350q-79 17 -101 73z" />
    <glyph glyph-name="thorn" unicode="&#xfe;" horiz-adv-x="1294" 
d="M90 -207v1604q0 7 20.5 17.5t57.5 19t74 8.5q36 0 68.5 -8t65 -28.5t55.5 -53t37.5 -86.5t14.5 -123v-262q56 73 132.5 114t164.5 41q210 0 336.5 -145t126.5 -389t-126 -387.5t-339 -143.5q-88 0 -166 36.5t-129 96.5v-311q0 -188 -174 -188h-41q-85 0 -131.5 42.5
t-46.5 145.5zM483 424q10 -69 61 -108.5t126 -39.5q91 0 145.5 62.5t54.5 165.5q0 104 -53.5 165.5t-144.5 61.5q-65 0 -114.5 -31t-74.5 -84v-192z" />
    <glyph glyph-name="ydieresis" unicode="&#xff;" horiz-adv-x="1167" 
d="M825 1108q-87 0 -135.5 46.5t-48.5 133.5q0 84 48 132t130 48q84 0 133 -47.5t49 -132.5t-48 -132.5t-128 -47.5zM362 1108q-86 0 -135 46.5t-49 133.5q0 84 48.5 132t127.5 48q87 0 137 -47.5t50 -132.5t-49 -132.5t-130 -47.5zM354 147l-338 768q-2 6 8.5 19.5
t32.5 29.5t49.5 30.5t62 24.5t67.5 11q151 0 204 -178l154 -444l143 442q29 96 82.5 138t118.5 42q52 0 106 -24t83.5 -51.5t25.5 -39.5l-446 -1126q-68 -174 -209 -174q-53 0 -106.5 23.5t-81.5 49t-23 36.5l168 350q-79 17 -101 73z" />
    <glyph glyph-name="Amacron" unicode="&#x100;" horiz-adv-x="1409" 
d="M463 1421q-74 0 -117 35t-43 98v17q0 61 44 97t116 36h479q74 0 117 -36t43 -97v-17q0 -63 -42.5 -98t-117.5 -35h-479zM12 109l430 1114q17 55 74 83.5t186 28.5q130 0 183.5 -28t70.5 -84l447 -1110q7 -19 -21.5 -50t-84.5 -56t-113 -25q-72 0 -134 45.5t-102 148.5
l-37 98h-428l-37 -102q-66 -190 -223 -190q-53 0 -106.5 24t-82.5 54t-22 49zM553 569h285l-144 385z" />
    <glyph glyph-name="amacron" unicode="&#x101;" horiz-adv-x="1175" 
d="M365 1118q-74 0 -117 35t-43 98v17q0 61 44 97t116 36h479q74 0 117 -36t43 -97v-17q0 -63 -42.5 -98t-117.5 -35h-479zM43 279q0 174 150.5 258.5t472.5 85.5h39q-6 66 -46.5 100.5t-111.5 34.5q-145 0 -205 -135q-1 -3 -27.5 -3.5t-65 5.5t-76.5 20t-64.5 48t-26.5 83
q0 124 121 192t366 68q272 0 398.5 -106t126.5 -326v-577q0 -15 -48 -30t-104 -15q-175 0 -221 163q-51 -78 -140.5 -121.5t-199.5 -43.5q-153 0 -245.5 83t-92.5 216zM416 313q0 -44 32.5 -69t86.5 -25q77 0 124.5 48.5t47.5 125.5v35h-50q-121 -3 -181 -30.5t-60 -84.5z
" />
    <glyph glyph-name="Abreve" unicode="&#x102;" horiz-adv-x="1409" 
d="M12 109l430 1114q17 55 74 83.5t186 28.5q130 0 183.5 -28t70.5 -84l447 -1110q7 -19 -21.5 -50t-84.5 -56t-113 -25q-72 0 -134 45.5t-102 148.5l-37 98h-428l-37 -102q-66 -190 -223 -190q-53 0 -106.5 24t-82.5 54t-22 49zM553 569h285l-144 385zM702 1454
q-120 0 -219.5 69t-99.5 156q0 44 32.5 75.5t82.5 31.5q47 0 106.5 -45.5t100.5 -114.5q36 68 95 114t107 46q50 0 82.5 -31.5t32.5 -75.5q0 -88 -100.5 -156.5t-219.5 -68.5z" />
    <glyph glyph-name="abreve" unicode="&#x103;" horiz-adv-x="1175" 
d="M565 1167q-120 0 -219.5 69.5t-99.5 156.5q0 44 32 75t82 31q47 0 106.5 -45.5t100.5 -114.5q36 68 95.5 114t107.5 46q50 0 82.5 -31t32.5 -75q0 -88 -100.5 -157t-219.5 -69zM43 279q0 174 150.5 258.5t472.5 85.5h39q-6 66 -46.5 100.5t-111.5 34.5q-145 0 -205 -135
q-1 -3 -27.5 -3.5t-65 5.5t-76.5 20t-64.5 48t-26.5 83q0 124 121 192t366 68q272 0 398.5 -106t126.5 -326v-577q0 -15 -48 -30t-104 -15q-175 0 -221 163q-51 -78 -140.5 -121.5t-199.5 -43.5q-153 0 -245.5 83t-92.5 216zM416 313q0 -44 32.5 -69t86.5 -25
q77 0 124.5 48.5t47.5 125.5v35h-50q-121 -3 -181 -30.5t-60 -84.5z" />
    <glyph glyph-name="Aogonek" unicode="&#x104;" horiz-adv-x="1409" 
d="M12 109l430 1114q17 55 74 83.5t186 28.5q130 0 183.5 -28t70.5 -84l447 -1110q5 -14 -11 -36.5t-46 -43.5q-75 -68 -106.5 -111t-31.5 -76q0 -28 16 -43.5t42 -15.5q42 0 65 37q32 -4 53 -33t21 -67q0 -65 -50 -104.5t-147 -39.5q-115 0 -180 50.5t-65 142.5
q0 63 43.5 121.5t117.5 95.5q-118 31 -176 186l-37 98h-428l-37 -102q-66 -190 -223 -190q-53 0 -106.5 24t-82.5 54t-22 49zM553 569h285l-144 385z" />
    <glyph glyph-name="aogonek" unicode="&#x105;" horiz-adv-x="1175" 
d="M43 279q0 174 150.5 258.5t472.5 85.5h39q-6 66 -46.5 100.5t-111.5 34.5q-145 0 -205 -135q-1 -3 -27.5 -3.5t-65 5.5t-76.5 20t-64.5 48t-26.5 83q0 124 121 192t366 68q272 0 398.5 -106t126.5 -326v-577q0 -9 -19 -19q-75 -70 -106 -113t-31 -75q0 -28 15.5 -44
t41.5 -16q43 0 66 37q32 -4 53 -33t21 -67q0 -65 -50 -104t-147 -39q-115 0 -180.5 50.5t-65.5 141.5q0 73 58.5 139.5t152.5 100.5q-142 15 -182 159q-51 -78 -140.5 -121.5t-199.5 -43.5q-153 0 -245.5 83t-92.5 216zM416 313q0 -44 32.5 -69t86.5 -25q77 0 124.5 48.5
t47.5 125.5v35h-50q-121 -3 -181 -30.5t-60 -84.5z" />
    <glyph glyph-name="Cacute" unicode="&#x106;" horiz-adv-x="1331" 
d="M547 1464q-10 18 17.5 81t85 137.5t120.5 111.5q58 33 109 33q74 0 125 -44t51 -108q0 -55 -31.5 -107.5t-85.5 -82.5q-62 -34 -132 -49t-123 -11.5t-90.5 14.5t-45.5 25zM59 664q0 149 51 277t142 219t221 142.5t283 51.5q108 0 197.5 -21.5t148 -56t99 -78t58 -86
t17.5 -82.5q0 -35 -13 -66t-33 -51.5t-45 -38t-49.5 -26t-46 -15t-34.5 -6t-15 1.5q-38 72 -106 111t-156 39q-130 0 -213.5 -86t-83.5 -229q0 -141 84.5 -229.5t212.5 -88.5q94 0 163 42t103 118q2 1 15 1.5t34.5 -6t46.5 -15t50 -26t45.5 -38t33.5 -51.5t13 -66
q0 -41 -18 -84.5t-59 -88.5t-100 -80.5t-150.5 -58t-200.5 -22.5q-204 0 -362.5 88t-245.5 246t-87 359z" />
    <glyph glyph-name="cacute" unicode="&#x107;" horiz-adv-x="1048" 
d="M385 1161q-10 18 17.5 81t85 137.5t120.5 111.5q58 33 109 33q74 0 125 -44t51 -108q0 -55 -31.5 -107.5t-85.5 -82.5q-62 -34 -132 -49t-123 -11.5t-90.5 14.5t-45.5 25zM45 506q0 231 152 379.5t389 148.5q92 0 168 -18.5t123.5 -47.5t80.5 -66t46.5 -71.5t13.5 -66.5
t-11 -59t-29 -45t-40 -32t-44 -21t-40.5 -11t-31 -3.5t-13.5 3.5q-53 133 -201 133q-92 0 -151.5 -63t-59.5 -160q0 -100 59 -165t152 -65q74 0 125.5 36.5t75.5 99.5q1 3 13 3.5t31 -2.5t41 -10t44 -21t40 -32.5t29 -47t11 -62.5q0 -40 -25 -84.5t-74 -87t-136 -70
t-197 -27.5q-242 0 -391.5 148.5t-149.5 386.5z" />
    <glyph glyph-name="Ccircumflex" unicode="&#x108;" horiz-adv-x="1331" 
d="M522 1411q-56 0 -90.5 33.5t-34.5 85.5q0 66 59 136t135.5 117t143.5 64q67 -17 143.5 -64t135.5 -117t59 -136q0 -52 -34.5 -85.5t-90.5 -33.5q-63 0 -118.5 50t-94.5 138q-40 -88 -96 -138t-117 -50zM59 664q0 149 51 277t142 219t221 142.5t283 51.5
q108 0 197.5 -21.5t148 -56t99 -78t58 -86t17.5 -82.5q0 -35 -13 -66t-33 -51.5t-45 -38t-49.5 -26t-46 -15t-34.5 -6t-15 1.5q-38 72 -106 111t-156 39q-130 0 -213.5 -86t-83.5 -229q0 -141 84.5 -229.5t212.5 -88.5q94 0 163 42t103 118q2 1 15 1.5t34.5 -6t46.5 -15
t50 -26t45.5 -38t33.5 -51.5t13 -66q0 -41 -18 -84.5t-59 -88.5t-100 -80.5t-150.5 -58t-200.5 -22.5q-204 0 -362.5 88t-245.5 246t-87 359z" />
    <glyph glyph-name="ccircumflex" unicode="&#x109;" horiz-adv-x="1048" 
d="M373 1108q-56 0 -90.5 33.5t-34.5 85.5q0 66 59 136t135.5 117t143.5 64q67 -17 143.5 -64t135.5 -117t59 -136q0 -52 -34.5 -85.5t-90.5 -33.5q-63 0 -118.5 50t-94.5 138q-40 -88 -96 -138t-117 -50zM45 506q0 231 152 379.5t389 148.5q92 0 168 -18.5t123.5 -47.5
t80.5 -66t46.5 -71.5t13.5 -66.5t-11 -59t-29 -45t-40 -32t-44 -21t-40.5 -11t-31 -3.5t-13.5 3.5q-53 133 -201 133q-92 0 -151.5 -63t-59.5 -160q0 -100 59 -165t152 -65q74 0 125.5 36.5t75.5 99.5q1 3 13 3.5t31 -2.5t41 -10t44 -21t40 -32.5t29 -47t11 -62.5
q0 -40 -25 -84.5t-74 -87t-136 -70t-197 -27.5q-242 0 -391.5 148.5t-149.5 386.5z" />
    <glyph glyph-name="Cdotaccent" unicode="&#x10a;" horiz-adv-x="1331" 
d="M745 1411q-88 0 -141 51.5t-53 134.5q0 81 55 134t144 53q88 0 141 -53t53 -134q0 -83 -54 -134.5t-145 -51.5zM59 664q0 149 51 277t142 219t221 142.5t283 51.5q108 0 197.5 -21.5t148 -56t99 -78t58 -86t17.5 -82.5q0 -35 -13 -66t-33 -51.5t-45 -38t-49.5 -26
t-46 -15t-34.5 -6t-15 1.5q-38 72 -106 111t-156 39q-130 0 -213.5 -86t-83.5 -229q0 -141 84.5 -229.5t212.5 -88.5q94 0 163 42t103 118q2 1 15 1.5t34.5 -6t46.5 -15t50 -26t45.5 -38t33.5 -51.5t13 -66q0 -41 -18 -84.5t-59 -88.5t-100 -80.5t-150.5 -58t-200.5 -22.5
q-204 0 -362.5 88t-245.5 246t-87 359z" />
    <glyph glyph-name="cdotaccent" unicode="&#x10b;" horiz-adv-x="1048" 
d="M578 1108q-88 0 -141.5 51.5t-53.5 134.5q0 81 55 134t144 53q88 0 141 -53t53 -134q0 -83 -53.5 -134.5t-144.5 -51.5zM45 506q0 231 152 379.5t389 148.5q92 0 168 -18.5t123.5 -47.5t80.5 -66t46.5 -71.5t13.5 -66.5t-11 -59t-29 -45t-40 -32t-44 -21t-40.5 -11
t-31 -3.5t-13.5 3.5q-53 133 -201 133q-92 0 -151.5 -63t-59.5 -160q0 -100 59 -165t152 -65q74 0 125.5 36.5t75.5 99.5q1 3 13 3.5t31 -2.5t41 -10t44 -21t40 -32.5t29 -47t11 -62.5q0 -40 -25 -84.5t-74 -87t-136 -70t-197 -27.5q-242 0 -391.5 148.5t-149.5 386.5z" />
    <glyph glyph-name="Ccaron" unicode="&#x10c;" horiz-adv-x="1331" 
d="M743 1386q-67 19 -143.5 66t-135 117.5t-58.5 136.5q0 52 34 85.5t90 33.5q61 0 118 -51.5t95 -141.5q39 90 95 141.5t118 51.5q56 0 90.5 -33.5t34.5 -85.5q0 -66 -59 -136.5t-135.5 -117.5t-143.5 -66zM59 664q0 149 51 277t142 219t221 142.5t283 51.5
q108 0 197.5 -21.5t148 -56t99 -78t58 -86t17.5 -82.5q0 -35 -13 -66t-33 -51.5t-45 -38t-49.5 -26t-46 -15t-34.5 -6t-15 1.5q-38 72 -106 111t-156 39q-130 0 -213.5 -86t-83.5 -229q0 -141 84.5 -229.5t212.5 -88.5q94 0 163 42t103 118q2 1 15 1.5t34.5 -6t46.5 -15
t50 -26t45.5 -38t33.5 -51.5t13 -66q0 -41 -18 -84.5t-59 -88.5t-100 -80.5t-150.5 -58t-200.5 -22.5q-204 0 -362.5 88t-245.5 246t-87 359z" />
    <glyph glyph-name="ccaron" unicode="&#x10d;" horiz-adv-x="1048" 
d="M580 1083q-67 19 -143.5 66t-135.5 117.5t-59 136.5q0 52 34.5 85.5t90.5 33.5q61 0 118 -51.5t95 -141.5q39 90 95 141.5t118 51.5q56 0 90.5 -33.5t34.5 -85.5q0 -66 -59 -136.5t-135.5 -117.5t-143.5 -66zM45 506q0 231 152 379.5t389 148.5q92 0 168 -18.5
t123.5 -47.5t80.5 -66t46.5 -71.5t13.5 -66.5t-11 -59t-29 -45t-40 -32t-44 -21t-40.5 -11t-31 -3.5t-13.5 3.5q-53 133 -201 133q-92 0 -151.5 -63t-59.5 -160q0 -100 59 -165t152 -65q74 0 125.5 36.5t75.5 99.5q1 3 13 3.5t31 -2.5t41 -10t44 -21t40 -32.5t29 -47
t11 -62.5q0 -40 -25 -84.5t-74 -87t-136 -70t-197 -27.5q-242 0 -391.5 148.5t-149.5 386.5z" />
    <glyph glyph-name="Dcaron" unicode="&#x10e;" horiz-adv-x="1413" 
d="M655 1386q-67 19 -143.5 66t-135.5 117.5t-59 136.5q0 52 34.5 85.5t90.5 33.5q61 0 118 -51.5t95 -141.5q39 90 95 141.5t118 51.5q56 0 90.5 -33.5t34.5 -85.5q0 -66 -59 -136.5t-135.5 -117.5t-143.5 -66zM94 225v873q0 107 59 167t154 60h350q327 0 516 -176
t189 -479q0 -307 -193 -488.5t-520 -181.5h-327q-95 0 -161.5 65.5t-66.5 159.5zM500 348h139q146 0 231.5 84.5t85.5 235.5q0 147 -83.5 228t-227.5 81h-145v-629z" />
    <glyph glyph-name="dcaron" unicode="&#x10f;" horiz-adv-x="1765" 
d="M45 506q0 244 127 387t340 143q93 0 171.5 -38t123.5 -101v500q0 7 20 17.5t56 19t73 8.5q46 0 86 -13.5t76.5 -45t58 -93t21.5 -147.5v-963q0 -190 -172 -190h-41q-167 0 -178 168q-39 -87 -118 -137t-181 -50q-208 0 -335.5 148.5t-127.5 386.5zM1292 977l72 297
q9 46 19.5 73t30 49t50 31t76.5 9h43q152 0 152 -162v-14q0 -100 -88 -191l-156 -182q-26 -27 -64.5 -32.5t-71 7.5t-52 44t-11.5 71zM418 504q0 -101 55.5 -164.5t144.5 -63.5q83 0 136 48.5t53 130.5v159q-54 117 -184 117q-93 0 -149 -61t-56 -166z" />
    <glyph glyph-name="Dcroat" unicode="&#x110;" horiz-adv-x="1413" 
d="M94 225v375h-63q-80 0 -80 57v25q0 59 80 59h63v357q0 107 59 167t154 60h350q327 0 516 -176t189 -479q0 -307 -193 -488.5t-520 -181.5h-327q-95 0 -161.5 65.5t-66.5 159.5zM500 348h139q146 0 231.5 84.5t85.5 235.5q0 147 -83.5 228t-227.5 81h-145v-236h100
q80 0 80 -59v-25q0 -57 -80 -57h-100v-252z" />
    <glyph glyph-name="dcroat" unicode="&#x111;" horiz-adv-x="1288" 
d="M45 506q0 244 127 387t340 143q93 0 171.5 -38t123.5 -101v233h-125q-80 0 -80 58v24q0 60 80 60h125v125q0 7 20 17.5t56 19t73 8.5q76 0 137.5 -39t88.5 -131h69q80 0 80 -60v-24q0 -58 -80 -58h-53v-950q0 -190 -172 -190h-41q-167 0 -178 168q-39 -87 -118 -137
t-181 -50q-208 0 -335.5 148.5t-127.5 386.5zM418 504q0 -101 55.5 -164.5t144.5 -63.5q83 0 136 48.5t53 130.5v159q-54 117 -184 117q-93 0 -149 -61t-56 -166z" />
    <glyph glyph-name="Emacron" unicode="&#x112;" horiz-adv-x="1261" 
d="M403 1421q-74 0 -116.5 35t-42.5 98v17q0 61 43.5 97t115.5 36h480q74 0 116.5 -36t42.5 -97v-17q0 -63 -42 -98t-117 -35h-480zM94 225v873q0 110 54 168.5t155 58.5h705q96 0 143 -45t47 -127v-10q0 -172 -190 -172h-504v-133h336q190 0 190 -158v-6q0 -168 -190 -168
h-336v-154h514q188 0 188 -162v-10q0 -87 -46.5 -133.5t-141.5 -46.5h-715q-102 0 -155.5 56.5t-53.5 168.5z" />
    <glyph glyph-name="emacron" unicode="&#x113;" horiz-adv-x="1153" 
d="M350 1118q-74 0 -117 35t-43 98v17q0 61 44 97t116 36h479q74 0 117 -36t43 -97v-17q0 -63 -42.5 -98t-117.5 -35h-479zM45 496q0 234 153.5 387t387.5 153q232 0 380 -142.5t148 -363.5v-24q-3 -103 -80 -103h-641q18 -78 79.5 -118.5t156.5 -40.5q87 0 150 36t95 93
q0 2 18.5 -0.5t45.5 -12.5t53.5 -27t45 -49.5t18.5 -74.5q0 -105 -118 -171.5t-327 -66.5q-260 0 -412.5 140.5t-152.5 384.5zM387 606h373q-2 79 -49.5 126.5t-128.5 47.5q-76 0 -131 -49.5t-64 -124.5z" />
    <glyph glyph-name="Ebreve" unicode="&#x114;" horiz-adv-x="1261" 
d="M659 1411q-91 0 -177.5 37t-141.5 98.5t-55 128.5q0 52 37 88.5t96 36.5q57 0 127 -53.5t117 -134.5q44 81 112.5 134.5t126.5 53.5q59 0 96 -36.5t37 -88.5q0 -102 -118 -183t-257 -81zM94 225v873q0 110 54 168.5t155 58.5h705q96 0 143 -45t47 -127v-10
q0 -172 -190 -172h-504v-133h336q190 0 190 -158v-6q0 -168 -190 -168h-336v-154h514q188 0 188 -162v-10q0 -87 -46.5 -133.5t-141.5 -46.5h-715q-102 0 -155.5 56.5t-53.5 168.5z" />
    <glyph glyph-name="ebreve" unicode="&#x115;" horiz-adv-x="1153" 
d="M590 1108q-91 0 -178 37t-142 98.5t-55 128.5q0 52 37 88.5t96 36.5q57 0 127 -53.5t117 -134.5q44 81 112.5 134.5t126.5 53.5q59 0 96.5 -36.5t37.5 -88.5q0 -102 -118 -183t-257 -81zM45 496q0 234 153.5 387t387.5 153q232 0 380 -142.5t148 -363.5v-24
q-3 -103 -80 -103h-641q18 -78 79.5 -118.5t156.5 -40.5q87 0 150 36t95 93q0 2 18.5 -0.5t45.5 -12.5t53.5 -27t45 -49.5t18.5 -74.5q0 -105 -118 -171.5t-327 -66.5q-260 0 -412.5 140.5t-152.5 384.5zM387 606h373q-2 79 -49.5 126.5t-128.5 47.5q-76 0 -131 -49.5
t-64 -124.5z" />
    <glyph glyph-name="Edotaccent" unicode="&#x116;" horiz-adv-x="1261" 
d="M662 1411q-88 0 -141.5 51.5t-53.5 134.5q0 81 55 134t144 53q88 0 141 -53t53 -134q0 -83 -53.5 -134.5t-144.5 -51.5zM94 225v873q0 110 54 168.5t155 58.5h705q96 0 143 -45t47 -127v-10q0 -172 -190 -172h-504v-133h336q190 0 190 -158v-6q0 -168 -190 -168h-336
v-154h514q188 0 188 -162v-10q0 -87 -46.5 -133.5t-141.5 -46.5h-715q-102 0 -155.5 56.5t-53.5 168.5z" />
    <glyph glyph-name="edotaccent" unicode="&#x117;" horiz-adv-x="1153" 
d="M580 1108q-88 0 -141.5 51.5t-53.5 134.5q0 81 55 134t144 53q88 0 141 -53t53 -134q0 -83 -53.5 -134.5t-144.5 -51.5zM45 496q0 234 153.5 387t387.5 153q232 0 380 -142.5t148 -363.5v-24q-3 -103 -80 -103h-641q18 -78 79.5 -118.5t156.5 -40.5q87 0 150 36t95 93
q0 2 18.5 -0.5t45.5 -12.5t53.5 -27t45 -49.5t18.5 -74.5q0 -105 -118 -171.5t-327 -66.5q-260 0 -412.5 140.5t-152.5 384.5zM387 606h373q-2 79 -49.5 126.5t-128.5 47.5q-76 0 -131 -49.5t-64 -124.5z" />
    <glyph glyph-name="Eogonek" unicode="&#x118;" horiz-adv-x="1261" 
d="M94 225v873q0 110 54 168.5t155 58.5h705q96 0 143 -45t47 -127v-10q0 -172 -190 -172h-504v-133h336q190 0 190 -158v-6q0 -168 -190 -168h-336v-154h514q188 0 188 -162v-10q0 -95 -55 -141l8 2q-83 -76 -116 -120.5t-33 -78.5q0 -28 15.5 -43.5t41.5 -15.5q43 0 66 37
q32 -4 52.5 -33t20.5 -68q0 -65 -49.5 -104t-146.5 -39q-115 0 -180.5 50.5t-65.5 142.5q0 70 52.5 133t139.5 98h-653q-102 0 -155.5 56.5t-53.5 168.5z" />
    <glyph glyph-name="eogonek" unicode="&#x119;" horiz-adv-x="1153" 
d="M45 496q0 234 153.5 387t387.5 153q232 0 380 -142.5t148 -363.5v-24q-3 -103 -80 -103h-641q18 -78 79.5 -118.5t156.5 -40.5q87 0 150 36t95 93q0 2 18.5 -0.5t45.5 -12.5t53.5 -27t45 -49.5t18.5 -74.5q0 -100 -103 -162q-69 -64 -97 -104t-28 -72q0 -27 15.5 -43
t42.5 -16q43 0 65 36q32 -4 53 -33t21 -67q0 -65 -50 -104t-147 -39q-115 0 -180 50t-65 142q0 100 98 176q-11 0 -34 -1t-36 -1q-260 0 -412.5 140.5t-152.5 384.5zM387 606h373q-2 79 -49.5 126.5t-128.5 47.5q-76 0 -131 -49.5t-64 -124.5z" />
    <glyph glyph-name="Ecaron" unicode="&#x11a;" horiz-adv-x="1261" 
d="M657 1386q-67 19 -143.5 66t-135.5 117.5t-59 136.5q0 52 34.5 85.5t90.5 33.5q61 0 118 -51.5t95 -141.5q39 90 95 141.5t118 51.5q56 0 90.5 -33.5t34.5 -85.5q0 -66 -59 -136.5t-135.5 -117.5t-143.5 -66zM94 225v873q0 110 54 168.5t155 58.5h705q96 0 143 -45
t47 -127v-10q0 -172 -190 -172h-504v-133h336q190 0 190 -158v-6q0 -168 -190 -168h-336v-154h514q188 0 188 -162v-10q0 -87 -46.5 -133.5t-141.5 -46.5h-715q-102 0 -155.5 56.5t-53.5 168.5z" />
    <glyph glyph-name="ecaron" unicode="&#x11b;" horiz-adv-x="1153" 
d="M592 1083q-67 19 -143.5 66t-135.5 117.5t-59 136.5q0 52 34.5 85.5t90.5 33.5q61 0 118 -51.5t95 -141.5q39 90 95 141.5t118 51.5q56 0 90.5 -33.5t34.5 -85.5q0 -66 -59 -136.5t-135.5 -117.5t-143.5 -66zM45 496q0 234 153.5 387t387.5 153q232 0 380 -142.5
t148 -363.5v-24q-3 -103 -80 -103h-641q18 -78 79.5 -118.5t156.5 -40.5q87 0 150 36t95 93q0 2 18.5 -0.5t45.5 -12.5t53.5 -27t45 -49.5t18.5 -74.5q0 -105 -118 -171.5t-327 -66.5q-260 0 -412.5 140.5t-152.5 384.5zM387 606h373q-2 79 -49.5 126.5t-128.5 47.5
q-76 0 -131 -49.5t-64 -124.5z" />
    <glyph glyph-name="Gcircumflex" unicode="&#x11c;" horiz-adv-x="1490" 
d="M541 1411q-56 0 -90.5 33.5t-34.5 85.5q0 66 59 136t135.5 117t143.5 64q67 -17 143.5 -64t135.5 -117t59 -136q0 -52 -34.5 -85.5t-90.5 -33.5q-63 0 -118.5 50t-94.5 138q-40 -88 -96 -138t-117 -50zM59 664q0 149 52.5 276.5t146 219t229.5 143t297 51.5
q243 0 384 -85.5t141 -219.5q0 -31 -10.5 -58.5t-28 -46.5t-38.5 -36t-42 -25.5t-40 -15.5t-31 -7t-15 2q-53 68 -130 105t-165 37q-143 0 -239.5 -100.5t-96.5 -260.5q0 -161 89 -259.5t229 -98.5q107 0 176 46t84 128h-138q-101 0 -146.5 30.5t-45.5 110.5v18
q0 84 44.5 113t147.5 29h361q85 0 114 -39.5t27 -134.5v-555q0 -6 -18 -15.5t-51.5 -17.5t-67.5 -8q-161 0 -203 155q-119 -168 -385 -168q-188 0 -332.5 89t-221.5 244.5t-77 353.5z" />
    <glyph glyph-name="gcircumflex" unicode="&#x11d;" horiz-adv-x="1105" 
d="M332 1192q-56 0 -90.5 33.5t-34.5 85.5q0 66 59 136t135.5 117t143.5 64q67 -17 143.5 -64t135.5 -117t59 -136q0 -52 -34.5 -85.5t-90.5 -33.5q-63 0 -118.5 50t-94.5 138q-40 -88 -96 -138t-117 -50zM-18 -145q0 99 84 162.5t227 78.5q-33 33 -33 92q0 39 23.5 74
t62.5 57q-141 36 -219 122t-78 210q0 167 140 275t358 108q113 0 213 -35l8 17q35 68 76.5 96.5t99.5 28.5q38 0 71.5 -16t54.5 -39.5t36 -47.5t20 -41t2 -20l-147 -133q66 -89 66 -191q0 -164 -128 -259.5t-354 -98.5v-2q0 -14 10.5 -24t35.5 -18.5t50 -14.5t71.5 -16.5
t82.5 -20.5q57 -16 105 -39.5t91.5 -59t68 -87.5t24.5 -115q0 -150 -149.5 -240t-415.5 -90q-290 0 -423.5 69.5t-133.5 217.5zM547 510q63 0 102 39.5t39 105.5q0 65 -39.5 104.5t-103.5 39.5q-62 0 -102 -40t-40 -104q0 -65 40 -105t104 -40zM352 -117q0 -38 48.5 -61
t142.5 -23t141 23t47 63q0 18 -12 31.5t-40.5 23t-54.5 15.5t-75 15q-18 3 -27 5q-170 -16 -170 -92z" />
    <glyph glyph-name="Gbreve" unicode="&#x11e;" horiz-adv-x="1490" 
d="M750 1411q-91 0 -178 37t-142 98.5t-55 128.5q0 52 37 88.5t96 36.5q57 0 127 -53.5t117 -134.5q44 81 112.5 134.5t126.5 53.5q59 0 96 -36.5t37 -88.5q0 -67 -55.5 -129t-142 -98.5t-176.5 -36.5zM59 664q0 149 52.5 276.5t146 219t229.5 143t297 51.5q243 0 384 -85.5
t141 -219.5q0 -31 -10.5 -58.5t-28 -46.5t-38.5 -36t-42 -25.5t-40 -15.5t-31 -7t-15 2q-53 68 -130 105t-165 37q-143 0 -239.5 -100.5t-96.5 -260.5q0 -161 89 -259.5t229 -98.5q107 0 176 46t84 128h-138q-101 0 -146.5 30.5t-45.5 110.5v18q0 84 44.5 113t147.5 29h361
q85 0 114 -39.5t27 -134.5v-555q0 -6 -18 -15.5t-51.5 -17.5t-67.5 -8q-161 0 -203 155q-119 -168 -385 -168q-188 0 -332.5 89t-221.5 244.5t-77 353.5z" />
    <glyph glyph-name="gbreve" unicode="&#x11f;" horiz-adv-x="1105" 
d="M545 1141q-91 0 -178 37t-142 98.5t-55 128.5q0 52 37 88.5t96 36.5q57 0 127 -54t117 -135q44 81 113 135t126 54q59 0 96.5 -36.5t37.5 -88.5q0 -102 -118 -183t-257 -81zM-18 -145q0 99 84 162.5t227 78.5q-33 33 -33 92q0 39 23.5 74t62.5 57q-141 36 -219 122
t-78 210q0 167 140 275t358 108q113 0 213 -35l8 17q35 68 76.5 96.5t99.5 28.5q38 0 71.5 -16t54.5 -39.5t36 -47.5t20 -41t2 -20l-147 -133q66 -89 66 -191q0 -164 -128 -259.5t-354 -98.5v-2q0 -14 10.5 -24t35.5 -18.5t50 -14.5t71.5 -16.5t82.5 -20.5q57 -16 105 -39.5
t91.5 -59t68 -87.5t24.5 -115q0 -150 -149.5 -240t-415.5 -90q-290 0 -423.5 69.5t-133.5 217.5zM547 510q63 0 102 39.5t39 105.5q0 65 -39.5 104.5t-103.5 39.5q-62 0 -102 -40t-40 -104q0 -65 40 -105t104 -40zM352 -117q0 -38 48.5 -61t142.5 -23t141 23t47 63
q0 18 -12 31.5t-40.5 23t-54.5 15.5t-75 15q-18 3 -27 5q-170 -16 -170 -92z" />
    <glyph glyph-name="Gdotaccent" unicode="&#x120;" horiz-adv-x="1490" 
d="M756 1411q-88 0 -141.5 51.5t-53.5 134.5q0 81 55 134t144 53q88 0 141 -53t53 -134q0 -83 -53.5 -134.5t-144.5 -51.5zM59 664q0 149 52.5 276.5t146 219t229.5 143t297 51.5q243 0 384 -85.5t141 -219.5q0 -31 -10.5 -58.5t-28 -46.5t-38.5 -36t-42 -25.5t-40 -15.5
t-31 -7t-15 2q-53 68 -130 105t-165 37q-143 0 -239.5 -100.5t-96.5 -260.5q0 -161 89 -259.5t229 -98.5q107 0 176 46t84 128h-138q-101 0 -146.5 30.5t-45.5 110.5v18q0 84 44.5 113t147.5 29h361q85 0 114 -39.5t27 -134.5v-555q0 -6 -18 -15.5t-51.5 -17.5t-67.5 -8
q-161 0 -203 155q-119 -168 -385 -168q-188 0 -332.5 89t-221.5 244.5t-77 353.5z" />
    <glyph glyph-name="gdotaccent" unicode="&#x121;" horiz-adv-x="1105" 
d="M545 1108q-88 0 -141.5 51.5t-53.5 134.5q0 81 55 134t144 53q88 0 141 -53t53 -134q0 -83 -53.5 -134.5t-144.5 -51.5zM-18 -145q0 99 84 162.5t227 78.5q-33 33 -33 92q0 39 23.5 74t62.5 57q-141 36 -219 122t-78 210q0 167 140 275t358 108q113 0 213 -35l8 17
q35 68 76.5 96.5t99.5 28.5q38 0 71.5 -16t54.5 -39.5t36 -47.5t20 -41t2 -20l-147 -133q66 -89 66 -191q0 -164 -128 -259.5t-354 -98.5v-2q0 -14 10.5 -24t35.5 -18.5t50 -14.5t71.5 -16.5t82.5 -20.5q57 -16 105 -39.5t91.5 -59t68 -87.5t24.5 -115q0 -150 -149.5 -240
t-415.5 -90q-290 0 -423.5 69.5t-133.5 217.5zM547 510q63 0 102 39.5t39 105.5q0 65 -39.5 104.5t-103.5 39.5q-62 0 -102 -40t-40 -104q0 -65 40 -105t104 -40zM352 -117q0 -38 48.5 -61t142.5 -23t141 23t47 63q0 18 -12 31.5t-40.5 23t-54.5 15.5t-75 15q-18 3 -27 5
q-170 -16 -170 -92z" />
    <glyph glyph-name="Gcommaaccent" unicode="&#x122;" horiz-adv-x="1490" 
d="M59 664q0 149 52.5 276.5t146 219t229.5 143t297 51.5q243 0 384 -85.5t141 -219.5q0 -31 -10.5 -58.5t-28 -46.5t-38.5 -36t-42 -25.5t-40 -15.5t-31 -7t-15 2q-53 68 -130 105t-165 37q-143 0 -239.5 -100.5t-96.5 -260.5q0 -161 89 -259.5t229 -98.5q107 0 176 46
t84 128h-138q-101 0 -146.5 30.5t-45.5 110.5v18q0 84 44.5 113t147.5 29h361q85 0 114 -39.5t27 -134.5v-555q0 -6 -18 -15.5t-51.5 -17.5t-67.5 -8q-161 0 -203 155q-119 -168 -385 -168q-188 0 -332.5 89t-221.5 244.5t-77 353.5zM625 -227q19 87 53.5 123t122.5 36h43
q153 0 153 -157v-17q0 -92 -92 -184l-153 -162q-27 -27 -65.5 -32.5t-70.5 7.5t-51.5 43.5t-11.5 69.5z" />
    <glyph glyph-name="gcommaaccent" unicode="&#x123;" horiz-adv-x="1105" 
d="M496 1094q-154 0 -154 157v17q0 92 92 184l154 162q27 27 65.5 32.5t70.5 -7.5t51 -43.5t11 -69.5l-71 -273q-19 -87 -53.5 -123t-122.5 -36h-43zM-18 -145q0 99 84 162.5t227 78.5q-33 33 -33 92q0 39 23.5 74t62.5 57q-141 36 -219 122t-78 210q0 167 140 275t358 108
q113 0 213 -35l8 17q35 68 76.5 96.5t99.5 28.5q38 0 71.5 -16t54.5 -39.5t36 -47.5t20 -41t2 -20l-147 -133q66 -89 66 -191q0 -164 -128 -259.5t-354 -98.5v-2q0 -14 10.5 -24t35.5 -18.5t50 -14.5t71.5 -16.5t82.5 -20.5q57 -16 105 -39.5t91.5 -59t68 -87.5t24.5 -115
q0 -150 -149.5 -240t-415.5 -90q-290 0 -423.5 69.5t-133.5 217.5zM547 510q63 0 102 39.5t39 105.5q0 65 -39.5 104.5t-103.5 39.5q-62 0 -102 -40t-40 -104q0 -65 40 -105t104 -40zM352 -117q0 -38 48.5 -61t142.5 -23t141 23t47 63q0 18 -12 31.5t-40.5 23t-54.5 15.5
t-75 15q-18 3 -27 5q-170 -16 -170 -92z" />
    <glyph glyph-name="Hcircumflex" unicode="&#x124;" horiz-adv-x="1433" 
d="M502 1411q-56 0 -90.5 33.5t-34.5 85.5q0 66 59 136t135.5 117t143.5 64q67 -17 143.5 -64t135.5 -117t59 -136q0 -52 -34.5 -85.5t-90.5 -33.5q-63 0 -118.5 50t-94.5 138q-40 -88 -96 -138t-117 -50zM94 180v965q0 190 172 190h60q180 0 180 -190v-307h424v307
q0 190 172 190h61q178 0 178 -190v-965q0 -190 -178 -190h-61q-172 0 -172 190v314h-424v-314q0 -190 -180 -190h-60q-172 0 -172 190z" />
    <glyph glyph-name="hcircumflex" unicode="&#x125;" horiz-adv-x="1241" 
d="M45 1458q-56 0 -90.5 33.5t-34.5 85.5q0 66 59 136t135.5 117t143.5 64q67 -17 143.5 -64t135.5 -117t59 -136q0 -52 -34.5 -85.5t-90.5 -33.5q-62 0 -118 50t-95 139q-40 -89 -96 -139t-117 -50zM90 180v1217q0 7 20.5 17.5t57.5 19t74 8.5q36 0 68.5 -8t65 -28.5
t55.5 -53t37.5 -86.5t14.5 -123v-289q103 182 318 182q77 0 138.5 -22.5t102.5 -61t68 -92t39 -113t12 -126.5v-441q0 -190 -174 -190h-39q-86 0 -133 43.5t-47 146.5v379q0 73 -34.5 115.5t-94.5 42.5q-75 0 -115.5 -44t-40.5 -122v-371q0 -190 -174 -190h-41
q-84 0 -131 43.5t-47 146.5z" />
    <glyph glyph-name="Hbar" unicode="&#x126;" horiz-adv-x="1433" 
d="M94 180v797h-74q-79 0 -79 59v25q0 57 79 57h74v27q0 190 172 190h60q180 0 180 -190v-27h424v27q0 190 172 190h61q178 0 178 -190v-27h82q80 0 80 -57v-25q0 -59 -80 -59h-82v-797q0 -190 -178 -190h-61q-172 0 -172 190v314h-424v-314q0 -190 -180 -190h-60
q-172 0 -172 190zM506 838h424v139h-424v-139z" />
    <glyph glyph-name="hbar" unicode="&#x127;" horiz-adv-x="1241" 
d="M90 180v950h-51q-82 0 -82 60v24q0 58 82 58h51v125q0 7 20.5 17.5t57.5 19t74 8.5q76 0 137 -39t88 -131h139q80 0 80 -58v-24q0 -60 -80 -60h-123v-276q103 182 318 182q77 0 138.5 -22.5t102.5 -61t68 -92t39 -113t12 -126.5v-441q0 -190 -174 -190h-39
q-86 0 -133 43.5t-47 146.5v379q0 73 -34.5 115.5t-94.5 42.5q-75 0 -115.5 -44t-40.5 -122v-371q0 -190 -174 -190h-41q-84 0 -131 43.5t-47 146.5z" />
    <glyph glyph-name="Itilde" unicode="&#x128;" horiz-adv-x="626" 
d="M137 1456q-40 0 -66 32.5t-26 78.5q0 86 45.5 139t108.5 53q106 0 196 -106q14 45 39.5 73.5t57.5 28.5q40 0 66 -31.5t26 -76.5q0 -87 -45.5 -140t-108.5 -53q-108 0 -199 107q-13 -47 -37.5 -76t-56.5 -29zM109 180v965q0 190 172 190h59q178 0 178 -190v-965
q0 -190 -178 -190h-59q-172 0 -172 190z" />
    <glyph glyph-name="itilde" unicode="&#x129;" horiz-adv-x="585" 
d="M96 180v658q0 188 176 188h41q86 0 131 -42.5t45 -145.5v-658q0 -190 -172 -190h-41q-86 0 -133 43.5t-47 146.5zM117 1169q-40 0 -66 32.5t-26 78.5q0 86 45 139.5t108 53.5q106 0 197 -107q14 46 39 74t57 28q40 0 66 -31.5t26 -76.5q0 -87 -45 -140t-108 -53
q-108 0 -199 107q-13 -47 -37.5 -76t-56.5 -29z" />
    <glyph glyph-name="Imacron" unicode="&#x12a;" horiz-adv-x="626" 
d="M74 1421q-74 0 -117 35t-43 98v17q0 61 44 97t116 36h479q74 0 117 -36t43 -97v-17q0 -63 -42.5 -98t-117.5 -35h-479zM109 180v965q0 190 172 190h59q178 0 178 -190v-965q0 -190 -178 -190h-59q-172 0 -172 190z" />
    <glyph glyph-name="imacron" unicode="&#x12b;" horiz-adv-x="585" 
d="M53 1118q-74 0 -116.5 35t-42.5 98v17q0 61 43.5 97t115.5 36h479q74 0 117 -36t43 -97v-17q0 -63 -42.5 -98t-117.5 -35h-479zM96 180v658q0 188 176 188h41q86 0 131 -42.5t45 -145.5v-658q0 -190 -172 -190h-41q-86 0 -133 43.5t-47 146.5z" />
    <glyph glyph-name="Ibreve" unicode="&#x12c;" horiz-adv-x="626" 
d="M313 1411q-91 0 -177.5 37t-141.5 98.5t-55 128.5q0 52 37 88.5t96 36.5q57 0 126.5 -53.5t116.5 -134.5q44 81 113 134.5t127 53.5q59 0 96 -36.5t37 -88.5q0 -102 -118 -183t-257 -81zM109 180v965q0 190 172 190h59q178 0 178 -190v-965q0 -190 -178 -190h-59
q-172 0 -172 190z" />
    <glyph glyph-name="ibreve" unicode="&#x12d;" horiz-adv-x="585" 
d="M293 1108q-91 0 -178 37t-142 98.5t-55 128.5q0 52 37 88.5t96 36.5q57 0 127 -53.5t117 -134.5q44 81 113 134.5t127 53.5q59 0 96 -36.5t37 -88.5q0 -102 -118 -183t-257 -81zM96 180v658q0 188 176 188h41q86 0 131 -42.5t45 -145.5v-658q0 -190 -172 -190h-41
q-86 0 -133 43.5t-47 146.5z" />
    <glyph glyph-name="Iogonek" unicode="&#x12e;" horiz-adv-x="626" 
d="M109 180v965q0 190 172 190h59q178 0 178 -190v-965q0 -120 -76 -168q-67 -63 -95 -102t-28 -70q0 -28 15.5 -43.5t42.5 -15.5q42 0 65 37q32 -4 53 -33t21 -68q0 -65 -50 -104t-147 -39q-115 0 -180 50.5t-65 142.5q0 67 49 128t129 97q-143 15 -143 188z" />
    <glyph glyph-name="iogonek" unicode="&#x12f;" horiz-adv-x="585" 
d="M297 1130q-98 0 -155.5 50.5t-57.5 136.5q0 85 56 134.5t151 49.5q99 0 156 -49t57 -135t-56 -136.5t-151 -50.5zM96 180v658q0 188 176 188h41q86 0 131 -42.5t45 -145.5v-658q0 -122 -67 -164q-70 -67 -98.5 -106.5t-28.5 -71.5q0 -28 15.5 -43.5t41.5 -15.5
q43 0 66 37q32 -4 53 -33t21 -68q0 -65 -50 -104t-147 -39q-115 0 -180.5 50.5t-65.5 141.5q0 69 50 131t134 99q-67 8 -102 51.5t-35 134.5z" />
    <glyph glyph-name="Idotaccent" unicode="&#x130;" horiz-adv-x="626" 
d="M311 1411q-88 0 -141 51.5t-53 134.5q0 81 54.5 134t143.5 53q88 0 141.5 -53t53.5 -134q0 -83 -54 -134.5t-145 -51.5zM109 180v965q0 190 172 190h59q178 0 178 -190v-965q0 -190 -178 -190h-59q-172 0 -172 190z" />
    <glyph glyph-name="dotlessi" unicode="&#x131;" horiz-adv-x="585" 
d="M96 180v658q0 188 176 188h41q86 0 131 -42.5t45 -145.5v-658q0 -190 -172 -190h-41q-86 0 -133 43.5t-47 146.5z" />
    <glyph glyph-name="Jcircumflex" unicode="&#x134;" horiz-adv-x="1101" 
d="M571 1411q-56 0 -90.5 33.5t-34.5 85.5q0 66 59 136t135.5 117t143.5 64q67 -17 143.5 -64t135.5 -117t59 -136q0 -52 -34.5 -85.5t-90.5 -33.5q-63 0 -118.5 50t-94.5 138q-40 -88 -96 -138t-117 -50zM31 236q0 43 13.5 80t32.5 60t39 39t34 22t16 3q98 -121 242 -121
q96 0 137 48t41 165v613q0 190 174 190h59q178 0 178 -190v-619q0 -283 -132.5 -419t-395.5 -136q-211 0 -324.5 70t-113.5 195z" />
    <glyph glyph-name="jcircumflex" unicode="&#x135;" horiz-adv-x="585" 
d="M80 1108q-56 0 -90.5 33.5t-34.5 85.5q0 66 59 136t135.5 117t143.5 64q67 -17 143.5 -64t135.5 -117t59 -136q0 -52 -34.5 -85.5t-90.5 -33.5q-63 0 -118.5 50t-94.5 138q-40 -88 -96 -138t-117 -50zM96 -14v852q0 188 176 188h41q86 0 131 -42.5t45 -145.5v-873
q0 -180 -96 -277.5t-274 -97.5q-134 0 -206.5 50.5t-72.5 150.5q0 38 18.5 74.5t36.5 55.5t21 16q34 -43 98 -43q82 0 82 92z" />
    <glyph glyph-name="Kcommaaccent" unicode="&#x136;" horiz-adv-x="1335" 
d="M94 180v965q0 190 172 190h60q178 0 178 -190v-393l319 444q96 139 226 139q39 0 78 -13.5t67.5 -33.5t50 -41.5t31.5 -39t6 -25.5l-371 -508l389 -533q4 -8 -5.5 -25.5t-32.5 -38.5t-53 -41t-72 -33t-84 -13q-132 0 -226 137l-323 448v-395q0 -190 -178 -190h-60
q-172 0 -172 190zM473 -227q19 87 53.5 123t122.5 36h43q154 0 154 -157v-17q0 -92 -92 -184l-154 -162q-27 -27 -65.5 -32.5t-70.5 7.5t-51.5 43.5t-11.5 69.5z" />
    <glyph glyph-name="kcommaaccent" unicode="&#x137;" horiz-adv-x="1148" 
d="M90 180v1217q0 7 20.5 17.5t57.5 19t74 8.5q36 0 68.5 -8t65 -28.5t55.5 -53t37.5 -86.5t14.5 -123v-537l203 305q38 61 94 90t113 29q55 0 109 -25.5t81.5 -54.5t22.5 -41l-272 -387l299 -420q5 -11 -24.5 -39t-85 -53.5t-108.5 -25.5q-60 0 -116.5 28t-96.5 90
l-219 318v-240q0 -190 -174 -190h-41q-84 0 -131 43.5t-47 146.5zM412 -227q19 87 53.5 123t122.5 36h43q153 0 153 -157v-17q0 -92 -92 -184l-153 -162q-27 -27 -65.5 -32.5t-70.5 7.5t-51.5 43.5t-11.5 69.5z" />
    <glyph glyph-name="Lacute" unicode="&#x139;" horiz-adv-x="1130" 
d="M129 1464q-10 18 17.5 81t85 137.5t120.5 111.5q58 33 109 33q74 0 125 -44t51 -108q0 -55 -31.5 -107.5t-85.5 -82.5q-62 -34 -132 -49t-123 -11.5t-90.5 14.5t-45.5 25zM94 225v920q0 190 172 190h60q178 0 178 -190v-789h403q189 0 189 -170v-6q0 -180 -189 -180h-604
q-102 0 -155.5 56.5t-53.5 168.5z" />
    <glyph glyph-name="lacute" unicode="&#x13a;" horiz-adv-x="585" 
d="M129 1548q-10 18 17.5 81t85 137.5t120.5 111.5q58 33 109 33q74 0 125 -44t51 -108q0 -55 -31.5 -107.5t-85.5 -82.5q-62 -34 -132 -49t-123 -11.5t-90.5 14.5t-45.5 25zM96 180v1217q0 7 20.5 17.5t57.5 19t74 8.5q36 0 68.5 -8t65 -28.5t55.5 -53t37.5 -86.5
t14.5 -123v-963q0 -190 -172 -190h-41q-86 0 -133 43.5t-47 146.5z" />
    <glyph glyph-name="Lcommaaccent" unicode="&#x13b;" horiz-adv-x="1130" 
d="M94 225v920q0 190 172 190h60q178 0 178 -190v-789h403q189 0 189 -170v-6q0 -180 -189 -180h-604q-102 0 -155.5 56.5t-53.5 168.5zM418 -227q19 87 53.5 123t122.5 36h43q154 0 154 -157v-17q0 -91 -93 -184l-153 -162q-27 -27 -65.5 -32.5t-70.5 7.5t-51.5 43.5
t-11.5 69.5z" />
    <glyph glyph-name="lcommaaccent" unicode="&#x13c;" horiz-adv-x="585" 
d="M96 180v1217q0 7 20.5 17.5t57.5 19t74 8.5q36 0 68.5 -8t65 -28.5t55.5 -53t37.5 -86.5t14.5 -123v-963q0 -190 -172 -190h-41q-86 0 -133 43.5t-47 146.5zM119 -227q19 87 53.5 123t122.5 36h43q154 0 154 -157v-17q0 -91 -93 -184l-153 -162q-27 -27 -65.5 -32.5
t-70.5 7.5t-51.5 43.5t-11.5 69.5z" />
    <glyph glyph-name="Lcaron" unicode="&#x13d;" horiz-adv-x="1357" 
d="M944 885l72 297q19 90 53 125.5t123 35.5h43q151 0 151 -161v-15q0 -99 -88 -190l-155 -182q-26 -27 -64.5 -32.5t-71 7.5t-52 44t-11.5 71zM94 225v920q0 190 172 190h60q178 0 178 -190v-789h403q189 0 189 -170v-6q0 -180 -189 -180h-604q-102 0 -155.5 56.5
t-53.5 168.5z" />
    <glyph glyph-name="lcaron" unicode="&#x13e;" horiz-adv-x="1058" 
d="M590 987l72 297q9 46 19.5 73t30 49t50 31t76.5 9h43q151 0 151 -162v-14q0 -100 -88 -191l-156 -182q-26 -27 -64.5 -32.5t-70.5 7.5t-51.5 44t-11.5 71zM96 180v1217q0 7 20.5 17.5t57.5 19t74 8.5q36 0 68.5 -8t65 -28.5t55.5 -53t37.5 -86.5t14.5 -123v-963
q0 -190 -172 -190h-41q-86 0 -133 43.5t-47 146.5z" />
    <glyph glyph-name="Ldot" unicode="&#x13f;" horiz-adv-x="1538" 
d="M94 225v920q0 190 172 190h60q178 0 178 -190v-789h403q189 0 189 -170v-6q0 -180 -189 -180h-604q-102 0 -155.5 56.5t-53.5 168.5zM1116 651v33q0 166 168 166h47q88 0 129 -40.5t41 -125.5v-33q0 -85 -42 -125.5t-128 -40.5h-47q-168 0 -168 166z" />
    <glyph glyph-name="ldot" unicode="&#x140;" horiz-adv-x="1015" 
d="M96 180v1217q0 7 20.5 17.5t57.5 19t74 8.5q36 0 68.5 -8t65 -28.5t55.5 -53t37.5 -86.5t14.5 -123v-963q0 -190 -172 -190h-41q-86 0 -133 43.5t-47 146.5zM608 641v33q0 166 168 166h47q88 0 129 -40.5t41 -125.5v-33q0 -85 -42 -125.5t-128 -40.5h-47q-168 0 -168 166
z" />
    <glyph glyph-name="Lslash" unicode="&#x141;" horiz-adv-x="1198" 
d="M172 225v174l-88 -26q-8 -3 -25 17.5t-32 59t-15 76.5q0 64 31.5 105.5t128.5 75.5v438q0 190 174 190h57q181 0 181 -190v-311l264 81q10 3 27 -17.5t31 -59t14 -76.5q0 -68 -41.5 -113.5t-159.5 -81.5l-135 -43v-168h397q190 0 190 -170v-8q0 -178 -190 -178h-598
q-102 0 -156.5 57t-54.5 168z" />
    <glyph glyph-name="lslash" unicode="&#x142;" horiz-adv-x="759" 
d="M182 172v231l-98 -28q-9 -2 -26 19t-31.5 59.5t-14.5 76.5q0 64 33 106t137 77v684q0 7 20 17.5t56.5 19t73.5 8.5q36 0 68.5 -8t65 -28.5t55.5 -53t37.5 -86.5t14.5 -123v-309l107 32q9 3 26 -18t31.5 -59.5t14.5 -75.5q0 -64 -37.5 -108.5t-141.5 -80.5v-352
q0 -190 -172 -190h-41q-84 0 -131 43.5t-47 146.5z" />
    <glyph glyph-name="Nacute" unicode="&#x143;" horiz-adv-x="1439" 
d="M530 1464q-9 18 18 81t85 137.5t121 111.5q58 33 108 33q74 0 125 -44t51 -108q0 -56 -31 -108t-85 -82q-62 -34 -132 -49t-123.5 -11.5t-91 14.5t-45.5 25zM94 180v965q0 94 44 142t124 48h39q68 0 102.5 -20t81.5 -76l476 -618v524q0 190 178 190h35q172 0 172 -190
v-965q0 -93 -44 -141.5t-122 -48.5h-33q-70 0 -104 18.5t-78 71.5l-486 629v-529q0 -190 -178 -190h-35q-172 0 -172 190z" />
    <glyph glyph-name="nacute" unicode="&#x144;" horiz-adv-x="1241" 
d="M434 1161q-10 18 17.5 81t85 137.5t120.5 111.5q58 33 109 33q74 0 125 -44t51 -108q0 -55 -31.5 -107.5t-85.5 -82.5q-62 -34 -132 -49t-123 -11.5t-90.5 14.5t-45.5 25zM90 180v801q0 7 20.5 17.5t57.5 19t74 8.5q77 0 138 -40.5t87 -135.5q59 89 138.5 137.5
t195.5 48.5q77 0 138.5 -21.5t102.5 -58.5t68 -89t39 -109.5t12 -122.5v-455q0 -190 -174 -190h-39q-86 0 -133 43.5t-47 146.5v387q0 69 -35 109.5t-96 40.5q-102 0 -154 -82v-455q0 -190 -174 -190h-41q-84 0 -131 43.5t-47 146.5z" />
    <glyph glyph-name="Ncommaaccent" unicode="&#x145;" horiz-adv-x="1439" 
d="M94 180v965q0 94 44 142t124 48h39q68 0 102.5 -20t81.5 -76l476 -618v524q0 190 178 190h35q172 0 172 -190v-965q0 -93 -44 -141.5t-122 -48.5h-33q-70 0 -104 18.5t-78 71.5l-486 629v-529q0 -190 -178 -190h-35q-172 0 -172 190zM551 -227q19 87 53.5 123t122.5 36
h43q154 0 154 -157v-17q0 -91 -93 -184l-153 -162q-27 -27 -65.5 -32.5t-70.5 7.5t-51.5 43.5t-11.5 69.5z" />
    <glyph glyph-name="ncommaaccent" unicode="&#x146;" horiz-adv-x="1241" 
d="M90 180v801q0 7 20.5 17.5t57.5 19t74 8.5q77 0 138 -40.5t87 -135.5q59 89 138.5 137.5t195.5 48.5q77 0 138.5 -21.5t102.5 -58.5t68 -89t39 -109.5t12 -122.5v-455q0 -190 -174 -190h-39q-86 0 -133 43.5t-47 146.5v387q0 69 -35 109.5t-96 40.5q-102 0 -154 -82v-455
q0 -190 -174 -190h-41q-84 0 -131 43.5t-47 146.5zM434 -227q19 87 53.5 123t122.5 36h43q154 0 154 -157v-17q0 -92 -92 -184l-154 -162q-27 -27 -65.5 -32.5t-70.5 7.5t-51.5 43.5t-11.5 69.5z" />
    <glyph glyph-name="Ncaron" unicode="&#x147;" horiz-adv-x="1439" 
d="M709 1386q-67 19 -143.5 66t-135.5 117.5t-59 136.5q0 52 34.5 85.5t90.5 33.5q61 0 118 -51.5t95 -141.5q39 90 95 141.5t118 51.5q56 0 90.5 -33.5t34.5 -85.5q0 -66 -59 -136.5t-135.5 -117.5t-143.5 -66zM94 180v965q0 94 44 142t124 48h39q68 0 102.5 -20t81.5 -76
l476 -618v524q0 190 178 190h35q172 0 172 -190v-965q0 -93 -44 -141.5t-122 -48.5h-33q-70 0 -104 18.5t-78 71.5l-486 629v-529q0 -190 -178 -190h-35q-172 0 -172 190z" />
    <glyph glyph-name="ncaron" unicode="&#x148;" horiz-adv-x="1241" 
d="M592 1083q-67 19 -143.5 66t-135.5 117.5t-59 136.5q0 52 34.5 85.5t90.5 33.5q61 0 118 -51.5t95 -141.5q39 90 95 141.5t118 51.5q56 0 90.5 -33.5t34.5 -85.5q0 -66 -59 -136.5t-135.5 -117.5t-143.5 -66zM90 180v801q0 7 20.5 17.5t57.5 19t74 8.5q77 0 138 -40.5
t87 -135.5q59 89 138.5 137.5t195.5 48.5q77 0 138.5 -21.5t102.5 -58.5t68 -89t39 -109.5t12 -122.5v-455q0 -190 -174 -190h-39q-86 0 -133 43.5t-47 146.5v387q0 69 -35 109.5t-96 40.5q-102 0 -154 -82v-455q0 -190 -174 -190h-41q-84 0 -131 43.5t-47 146.5z" />
    <glyph glyph-name="Omacron" unicode="&#x14c;" horiz-adv-x="1501" 
d="M528 1421q-74 0 -116.5 35t-42.5 98v17q0 61 43.5 97t115.5 36h480q74 0 116.5 -36t42.5 -97v-17q0 -63 -42 -98t-117 -35h-480zM51 664q0 198 89.5 355.5t250 246t361.5 88.5t360.5 -88t248.5 -245.5t89 -356.5t-89 -357.5t-248.5 -247t-360.5 -88.5q-152 0 -282.5 51.5
t-222.5 142.5t-144 220t-52 279zM457 664q0 -148 80.5 -237t214.5 -89q132 0 212 89t80 237q0 147 -80 237t-212 90q-135 0 -215 -88.5t-80 -238.5z" />
    <glyph glyph-name="omacron" unicode="&#x14d;" horiz-adv-x="1200" 
d="M365 1118q-74 0 -117 35t-43 98v17q0 61 44 97t116 36h479q74 0 117 -36t43 -97v-17q0 -63 -42.5 -98t-117.5 -35h-479zM45 506q0 238 153.5 384t405.5 146q249 0 400 -146t151 -386q0 -241 -152.5 -387t-404.5 -146t-402.5 145.5t-150.5 389.5zM379 506
q0 -103 61.5 -168.5t159.5 -65.5q95 0 158 66t63 166q0 103 -62 169t-159 66t-159 -66t-62 -167z" />
    <glyph glyph-name="Obreve" unicode="&#x14e;" horiz-adv-x="1501" 
d="M752 1411q-91 0 -178 37t-142 98.5t-55 128.5q0 52 37 88.5t96 36.5q57 0 127 -53.5t117 -134.5q44 81 112.5 134.5t126.5 53.5q59 0 96 -36.5t37 -88.5q0 -67 -55.5 -129t-142 -98.5t-176.5 -36.5zM51 664q0 198 89.5 355.5t250 246t361.5 88.5t360.5 -88t248.5 -245.5
t89 -356.5t-89 -357.5t-248.5 -247t-360.5 -88.5q-152 0 -282.5 51.5t-222.5 142.5t-144 220t-52 279zM457 664q0 -148 80.5 -237t214.5 -89q132 0 212 89t80 237q0 147 -80 237t-212 90q-135 0 -215 -88.5t-80 -238.5z" />
    <glyph glyph-name="obreve" unicode="&#x14f;" horiz-adv-x="1200" 
d="M604 1108q-91 0 -178 37t-142 98.5t-55 128.5q0 52 37 88.5t96 36.5q57 0 127 -53.5t117 -134.5q44 81 113 134.5t127 53.5q59 0 96 -36.5t37 -88.5q0 -102 -118 -183t-257 -81zM45 506q0 238 153.5 384t405.5 146q249 0 400 -146t151 -386q0 -241 -152.5 -387
t-404.5 -146t-402.5 145.5t-150.5 389.5zM379 506q0 -103 61.5 -168.5t159.5 -65.5q95 0 158 66t63 166q0 103 -62 169t-159 66t-159 -66t-62 -167z" />
    <glyph glyph-name="Ohungarumlaut" unicode="&#x150;" horiz-adv-x="1501" 
d="M854 1464q-10 18 17.5 81t85 137.5t120.5 111.5q58 33 109 33q74 0 125 -44t51 -108q0 -55 -31.5 -107.5t-85.5 -82.5q-62 -34 -132 -49t-123 -11.5t-90.5 14.5t-45.5 25zM348 1464q-10 19 17 81.5t84 137t120 111.5q61 33 111 33q74 0 125 -44t51 -108q0 -55 -32 -107.5
t-85 -82.5q-62 -34 -132 -49t-123.5 -11.5t-91 14.5t-44.5 25zM51 664q0 198 89.5 355.5t250 246t361.5 88.5t360.5 -88t248.5 -245.5t89 -356.5t-89 -357.5t-248.5 -247t-360.5 -88.5q-152 0 -282.5 51.5t-222.5 142.5t-144 220t-52 279zM457 664q0 -148 80.5 -237
t214.5 -89q132 0 212 89t80 237q0 147 -80 237t-212 90q-135 0 -215 -88.5t-80 -238.5z" />
    <glyph glyph-name="ohungarumlaut" unicode="&#x151;" horiz-adv-x="1200" 
d="M629 1161q-10 18 17.5 81t85 137.5t120.5 111.5q58 33 109 33q74 0 125 -44t51 -108q0 -55 -31.5 -107.5t-85.5 -82.5q-62 -34 -132 -49t-123 -11.5t-90.5 14.5t-45.5 25zM123 1161q-10 19 17 81.5t84 137t120 111.5q61 33 111 33q74 0 125 -44t51 -108q0 -55 -32 -107.5
t-85 -82.5q-62 -34 -132 -49t-123.5 -11.5t-91 14.5t-44.5 25zM45 506q0 238 153.5 384t405.5 146q249 0 400 -146t151 -386q0 -241 -152.5 -387t-404.5 -146t-402.5 145.5t-150.5 389.5zM379 506q0 -103 61.5 -168.5t159.5 -65.5q95 0 158 66t63 166q0 103 -62 169t-159 66
t-159 -66t-62 -167z" />
    <glyph glyph-name="OE" unicode="&#x152;" horiz-adv-x="2109" 
d="M51 664q0 198 89.5 355.5t250 246t361.5 88.5q116 0 215 -29h888q96 0 143.5 -45t47.5 -127v-10q0 -172 -191 -172h-489q55 -55 61 -133h261q188 0 188 -158v-6q0 -168 -188 -168h-258q-6 -91 -66 -154h502q188 0 188 -162v-10q0 -87 -46.5 -133.5t-141.5 -46.5h-899
q-99 -29 -215 -29q-152 0 -282.5 51.5t-222.5 142.5t-144 220t-52 279zM457 664q0 -148 80.5 -237t214.5 -89q132 0 212 89t80 237q0 147 -80 237t-212 90q-135 0 -215 -88.5t-80 -238.5z" />
    <glyph glyph-name="oe" unicode="&#x153;" horiz-adv-x="1929" 
d="M45 506q0 238 153.5 384t405.5 146q239 0 377 -157q139 157 381 157q232 0 380 -142.5t148 -363.5v-24q-3 -103 -80 -103h-641q18 -78 79.5 -118.5t156.5 -40.5q87 0 150.5 36t95.5 93q0 2 18.5 -0.5t45 -12.5t53 -27t45 -49.5t18.5 -74.5q0 -105 -118 -171.5t-327 -66.5
q-276 0 -413 152q-139 -152 -375 -152q-252 0 -402.5 145.5t-150.5 389.5zM1163 606h373q-2 79 -49.5 126.5t-128.5 47.5q-76 0 -131 -49.5t-64 -124.5zM379 506q0 -103 61.5 -168.5t159.5 -65.5q95 0 158 66t63 166q0 103 -62 169t-159 66t-159 -66t-62 -167z" />
    <glyph glyph-name="Racute" unicode="&#x154;" horiz-adv-x="1331" 
d="M434 1464q-10 18 17.5 81t85 137.5t120.5 111.5q58 33 109 33q74 0 125 -44t51 -108q0 -55 -31.5 -107.5t-85.5 -82.5q-62 -34 -132 -49t-123 -11.5t-90.5 14.5t-45.5 25zM94 227v871q0 110 54 168.5t155 58.5h410q275 0 414 -110.5t139 -323.5q0 -146 -74.5 -248
t-212.5 -141l299 -371q4 -5 -2.5 -20.5t-25 -36t-45.5 -39.5t-70 -32t-93 -13q-91 0 -149 39.5t-127 134.5l-188 250h-74v-234q0 -93 -45.5 -141.5t-134.5 -48.5h-58q-84 0 -128 61.5t-44 175.5zM498 705h172q91 0 137.5 39.5t46.5 113.5q0 156 -188 156h-168v-309z" />
    <glyph glyph-name="racute" unicode="&#x155;" horiz-adv-x="956" 
d="M328 1161q-10 18 17.5 81t85 137.5t120.5 111.5q58 33 108 33q74 0 125.5 -44t51.5 -108q0 -55 -31.5 -107.5t-85.5 -82.5q-62 -34 -132 -49t-123 -11.5t-90.5 14.5t-45.5 25zM90 180v801q0 7 20.5 17.5t57.5 19t74 8.5q78 0 139.5 -41.5t85.5 -138.5q30 89 93 139.5
t153 50.5q98 0 156.5 -57t58.5 -154q0 -44 -13 -82t-31.5 -60.5t-37.5 -38.5t-32 -22t-15 -4q-57 54 -142 54q-174 0 -174 -250v-242q0 -190 -174 -190h-41q-84 0 -131 43.5t-47 146.5z" />
    <glyph glyph-name="Rcommaaccent" unicode="&#x156;" horiz-adv-x="1331" 
d="M94 227v871q0 110 54 168.5t155 58.5h410q275 0 414 -110.5t139 -323.5q0 -146 -74.5 -248t-212.5 -141l299 -371q4 -5 -2.5 -20.5t-25 -36t-45.5 -39.5t-70 -32t-93 -13q-91 0 -149 39.5t-127 134.5l-188 250h-74v-234q0 -93 -45.5 -141.5t-134.5 -48.5h-58
q-84 0 -128 61.5t-44 175.5zM498 705h172q91 0 137.5 39.5t46.5 113.5q0 156 -188 156h-168v-309zM487 -227q19 87 54 123t123 36h43q153 0 153 -157v-17q0 -92 -92 -184l-154 -162q-27 -27 -65.5 -32.5t-70.5 7.5t-51 43.5t-11 69.5z" />
    <glyph glyph-name="rcommaaccent" unicode="&#x157;" horiz-adv-x="956" 
d="M90 180v801q0 7 20.5 17.5t57.5 19t74 8.5q78 0 139.5 -41.5t85.5 -138.5q30 89 93 139.5t153 50.5q98 0 156.5 -57t58.5 -154q0 -44 -13 -82t-31.5 -60.5t-37.5 -38.5t-32 -22t-15 -4q-57 54 -142 54q-174 0 -174 -250v-242q0 -190 -174 -190h-41q-84 0 -131 43.5
t-47 146.5zM104 -227q19 87 54 123t123 36h43q153 0 153 -157v-17q0 -92 -92 -184l-154 -162q-27 -27 -65.5 -32.5t-70.5 7.5t-51 43.5t-11 69.5z" />
    <glyph glyph-name="Rcaron" unicode="&#x158;" horiz-adv-x="1331" 
d="M629 1386q-67 19 -143.5 66t-135.5 117.5t-59 136.5q0 52 34.5 85.5t90.5 33.5q61 0 118 -51.5t95 -141.5q39 90 95 141.5t118 51.5q56 0 90.5 -33.5t34.5 -85.5q0 -66 -59 -136.5t-135.5 -117.5t-143.5 -66zM94 227v871q0 110 54 168.5t155 58.5h410q275 0 414 -110.5
t139 -323.5q0 -146 -74.5 -248t-212.5 -141l299 -371q4 -5 -2.5 -20.5t-25 -36t-45.5 -39.5t-70 -32t-93 -13q-91 0 -149 39.5t-127 134.5l-188 250h-74v-234q0 -93 -45.5 -141.5t-134.5 -48.5h-58q-84 0 -128 61.5t-44 175.5zM498 705h172q91 0 137.5 39.5t46.5 113.5
q0 156 -188 156h-168v-309z" />
    <glyph glyph-name="rcaron" unicode="&#x159;" horiz-adv-x="956" 
d="M494 1083q-67 19 -143.5 66t-135.5 117.5t-59 136.5q0 52 34.5 85.5t90.5 33.5q61 0 118 -51.5t95 -141.5q39 90 95 141.5t118 51.5q56 0 90 -33.5t34 -85.5q0 -66 -58.5 -136.5t-135 -117.5t-143.5 -66zM90 180v801q0 7 20.5 17.5t57.5 19t74 8.5q78 0 139.5 -41.5
t85.5 -138.5q30 89 93 139.5t153 50.5q98 0 156.5 -57t58.5 -154q0 -44 -13 -82t-31.5 -60.5t-37.5 -38.5t-32 -22t-15 -4q-57 54 -142 54q-174 0 -174 -250v-242q0 -190 -174 -190h-41q-84 0 -131 43.5t-47 146.5z" />
    <glyph glyph-name="Sacute" unicode="&#x15a;" horiz-adv-x="1204" 
d="M401 1464q-9 18 18 81t85 137.5t121 111.5q58 33 108 33q74 0 125 -44t51 -108q0 -56 -31 -108t-85 -82q-62 -34 -132 -49t-123.5 -11.5t-91 14.5t-45.5 25zM39 244q0 28 13 58.5t31.5 55t38 44.5t34 29.5t18.5 6.5q68 -62 180 -107.5t213 -45.5q185 0 185 104
q0 20 -9.5 35t-22 24t-38.5 16.5t-46.5 11.5t-58.5 11.5t-63 12.5q-73 15 -132 34t-119 52t-101 76t-66.5 107.5t-25.5 143.5q0 206 147 323.5t418 117.5q246 0 373 -72.5t127 -179.5q0 -32 -14.5 -65.5t-35 -58.5t-41.5 -45t-36.5 -29.5t-18.5 -6.5q-68 63 -163 103
t-187 40q-178 0 -178 -102q0 -23 11 -37.5t37 -23.5t50 -14t70 -12.5t78 -14.5q103 -23 182 -55.5t143.5 -81t98.5 -118.5t34 -159q0 -219 -151 -335t-447 -116q-140 0 -245.5 22.5t-165.5 62t-88.5 86.5t-28.5 102z" />
    <glyph glyph-name="sacute" unicode="&#x15b;" horiz-adv-x="1007" 
d="M324 1161q-10 18 17.5 81t85 137.5t120.5 111.5q58 33 108 33q74 0 125 -44t51 -108q0 -56 -31 -108t-85 -82q-62 -34 -132 -49t-123 -11.5t-90.5 14.5t-45.5 25zM27 209q0 24 9.5 49t23.5 43.5t28.5 32.5t25 21t13.5 5q56 -52 141 -85t183 -33q66 0 96.5 11t30.5 40
q0 10 -3.5 18t-12.5 14.5t-17.5 10.5t-25.5 9t-30 7.5t-37 7.5t-40 9q-39 8 -60.5 13.5t-65 19t-70 27.5t-61 39.5t-54.5 55t-34 72.5t-14 94q0 157 121.5 250.5t325.5 93.5q215 0 324.5 -60.5t109.5 -170.5q0 -26 -10.5 -52t-25.5 -45t-31 -34t-27.5 -22t-14.5 -5
q-56 56 -136 90.5t-159 34.5q-61 0 -90.5 -12t-29.5 -43q0 -14 7.5 -23t25.5 -15.5t35 -10.5t51 -10.5t57 -12.5q34 -8 47.5 -11t51 -13.5t56.5 -18t52.5 -23.5t52.5 -31.5t43.5 -39t37 -49.5t22 -61t9.5 -74q0 -162 -126 -253.5t-351 -91.5q-230 0 -342 60.5t-112 171.5z
" />
    <glyph glyph-name="Scircumflex" unicode="&#x15c;" horiz-adv-x="1204" 
d="M391 1411q-56 0 -90.5 33.5t-34.5 85.5q0 66 59 136t135.5 117t143.5 64q67 -17 143.5 -64t135.5 -117t59 -136q0 -52 -34.5 -85.5t-90.5 -33.5q-63 0 -118.5 50t-94.5 138q-40 -88 -96 -138t-117 -50zM39 244q0 28 13 58.5t31.5 55t38 44.5t34 29.5t18.5 6.5
q68 -62 180 -107.5t213 -45.5q185 0 185 104q0 20 -9.5 35t-22 24t-38.5 16.5t-46.5 11.5t-58.5 11.5t-63 12.5q-73 15 -132 34t-119 52t-101 76t-66.5 107.5t-25.5 143.5q0 206 147 323.5t418 117.5q246 0 373 -72.5t127 -179.5q0 -32 -14.5 -65.5t-35 -58.5t-41.5 -45
t-36.5 -29.5t-18.5 -6.5q-68 63 -163 103t-187 40q-178 0 -178 -102q0 -23 11 -37.5t37 -23.5t50 -14t70 -12.5t78 -14.5q103 -23 182 -55.5t143.5 -81t98.5 -118.5t34 -159q0 -219 -151 -335t-447 -116q-140 0 -245.5 22.5t-165.5 62t-88.5 86.5t-28.5 102z" />
    <glyph glyph-name="scircumflex" unicode="&#x15d;" horiz-adv-x="1007" 
d="M293 1108q-56 0 -90.5 33.5t-34.5 85.5q0 66 59 136t135.5 117t143.5 64q67 -17 143.5 -64t135.5 -117t59 -136q0 -52 -34.5 -85.5t-90.5 -33.5q-63 0 -118.5 50t-94.5 138q-40 -88 -96 -138t-117 -50zM27 209q0 24 9.5 49t23.5 43.5t28.5 32.5t25 21t13.5 5
q56 -52 141 -85t183 -33q66 0 96.5 11t30.5 40q0 10 -3.5 18t-12.5 14.5t-17.5 10.5t-25.5 9t-30 7.5t-37 7.5t-40 9q-39 8 -60.5 13.5t-65 19t-70 27.5t-61 39.5t-54.5 55t-34 72.5t-14 94q0 157 121.5 250.5t325.5 93.5q215 0 324.5 -60.5t109.5 -170.5q0 -26 -10.5 -52
t-25.5 -45t-31 -34t-27.5 -22t-14.5 -5q-56 56 -136 90.5t-159 34.5q-61 0 -90.5 -12t-29.5 -43q0 -14 7.5 -23t25.5 -15.5t35 -10.5t51 -10.5t57 -12.5q34 -8 47.5 -11t51 -13.5t56.5 -18t52.5 -23.5t52.5 -31.5t43.5 -39t37 -49.5t22 -61t9.5 -74q0 -162 -126 -253.5
t-351 -91.5q-230 0 -342 60.5t-112 171.5z" />
    <glyph glyph-name="Scedilla" unicode="&#x15e;" horiz-adv-x="1204" 
d="M39 244q0 28 13 58.5t31.5 55t38 44.5t34 29.5t18.5 6.5q68 -62 180 -107.5t213 -45.5q185 0 185 104q0 20 -9.5 35t-22 24t-38.5 16.5t-46.5 11.5t-58.5 11.5t-63 12.5q-73 15 -132 34t-119 52t-101 76t-66.5 107.5t-25.5 143.5q0 206 147 323.5t418 117.5
q246 0 373 -72.5t127 -179.5q0 -32 -14.5 -65.5t-35 -58.5t-41.5 -45t-36.5 -29.5t-18.5 -6.5q-68 63 -163 103t-187 40q-178 0 -178 -102q0 -23 11 -37.5t37 -23.5t50 -14t70 -12.5t78 -14.5q103 -23 182 -55.5t143.5 -81t98.5 -118.5t34 -159q0 -219 -151 -335t-447 -116
q-140 0 -245.5 22.5t-165.5 62t-88.5 86.5t-28.5 102zM414 -197q20 61 55 85t123 24h41q155 0 155 -107v-10q0 -60 -94 -127l-153 -121q-41 -22 -89.5 -23t-84 23t-23.5 58z" />
    <glyph glyph-name="scedilla" unicode="&#x15f;" horiz-adv-x="1007" 
d="M27 209q0 24 9.5 49t23.5 43.5t28.5 32.5t25 21t13.5 5q56 -52 141 -85t183 -33q66 0 96.5 11t30.5 40q0 10 -3.5 18t-12.5 14.5t-17.5 10.5t-25.5 9t-30 7.5t-37 7.5t-40 9q-39 8 -60.5 13.5t-65 19t-70 27.5t-61 39.5t-54.5 55t-34 72.5t-14 94q0 157 121.5 250.5
t325.5 93.5q215 0 324.5 -60.5t109.5 -170.5q0 -26 -10.5 -52t-25.5 -45t-31 -34t-27.5 -22t-14.5 -5q-56 56 -136 90.5t-159 34.5q-61 0 -90.5 -12t-29.5 -43q0 -14 7.5 -23t25.5 -15.5t35 -10.5t51 -10.5t57 -12.5q34 -8 47.5 -11t51 -13.5t56.5 -18t52.5 -23.5
t52.5 -31.5t43.5 -39t37 -49.5t22 -61t9.5 -74q0 -162 -126 -253.5t-351 -91.5q-230 0 -342 60.5t-112 171.5zM285 -197q20 61 55 85t123 24h41q155 0 155 -107v-10q0 -60 -94 -127l-153 -121q-41 -22 -89.5 -23t-84 23t-23.5 58z" />
    <glyph glyph-name="Scaron" unicode="&#x160;" horiz-adv-x="1204" 
d="M623 1401q-67 19 -143.5 66t-135.5 117t-59 136q0 52 34.5 85.5t90.5 33.5q61 0 118 -51t95 -141q39 90 95 141t118 51q56 0 90.5 -33.5t34.5 -85.5q0 -66 -59 -136t-135.5 -117t-143.5 -66zM39 244q0 28 13 58.5t31.5 55t38 44.5t34 29.5t18.5 6.5q68 -62 180 -107.5
t213 -45.5q185 0 185 104q0 20 -9.5 35t-22 24t-38.5 16.5t-46.5 11.5t-58.5 11.5t-63 12.5q-73 15 -132 34t-119 52t-101 76t-66.5 107.5t-25.5 143.5q0 206 147 323.5t418 117.5q246 0 373 -72.5t127 -179.5q0 -32 -14.5 -65.5t-35 -58.5t-41.5 -45t-36.5 -29.5
t-18.5 -6.5q-68 63 -163 103t-187 40q-178 0 -178 -102q0 -23 11 -37.5t37 -23.5t50 -14t70 -12.5t78 -14.5q103 -23 182 -55.5t143.5 -81t98.5 -118.5t34 -159q0 -219 -151 -335t-447 -116q-140 0 -245.5 22.5t-165.5 62t-88.5 86.5t-28.5 102z" />
    <glyph glyph-name="scaron" unicode="&#x161;" horiz-adv-x="1007" 
d="M496 1083q-67 19 -143.5 66t-135.5 117.5t-59 136.5q0 52 34.5 85.5t90.5 33.5q61 0 118 -51.5t95 -141.5q39 90 95 141.5t118 51.5q56 0 90.5 -33.5t34.5 -85.5q0 -66 -59 -136.5t-135.5 -117.5t-143.5 -66zM27 209q0 24 9.5 49t23.5 43.5t28.5 32.5t25 21t13.5 5
q56 -52 141 -85t183 -33q66 0 96.5 11t30.5 40q0 10 -3.5 18t-12.5 14.5t-17.5 10.5t-25.5 9t-30 7.5t-37 7.5t-40 9q-39 8 -60.5 13.5t-65 19t-70 27.5t-61 39.5t-54.5 55t-34 72.5t-14 94q0 157 121.5 250.5t325.5 93.5q215 0 324.5 -60.5t109.5 -170.5q0 -26 -10.5 -52
t-25.5 -45t-31 -34t-27.5 -22t-14.5 -5q-56 56 -136 90.5t-159 34.5q-61 0 -90.5 -12t-29.5 -43q0 -14 7.5 -23t25.5 -15.5t35 -10.5t51 -10.5t57 -12.5q34 -8 47.5 -11t51 -13.5t56.5 -18t52.5 -23.5t52.5 -31.5t43.5 -39t37 -49.5t22 -61t9.5 -74q0 -162 -126 -253.5
t-351 -91.5q-230 0 -342 60.5t-112 171.5z" />
    <glyph glyph-name="Tcommaaccent" unicode="&#x162;" horiz-adv-x="1267" 
d="M432 180v789h-223q-92 0 -140.5 46t-48.5 134v6q0 170 189 170h850q190 0 190 -170v-6q0 -180 -190 -180h-215v-789q0 -93 -47.5 -141.5t-137.5 -48.5h-57q-170 0 -170 190zM471 -227q19 87 53.5 123t122.5 36h43q154 0 154 -157v-17q0 -92 -92 -184l-154 -162
q-27 -27 -65.5 -32.5t-70.5 7.5t-51.5 43.5t-11.5 69.5z" />
    <glyph glyph-name="tcommaaccent" unicode="&#x163;" horiz-adv-x="899" 
d="M201 336v383h-23q-78 0 -119 34t-41 99v22q0 142 160 142h23v98q0 93 45.5 142t130.5 49h33q84 0 130 -44t46 -147v-98h116q154 0 154 -133v-23q0 -141 -158 -141h-120v-340q0 -103 86 -103q64 0 112 62q4 6 24.5 -9.5t41 -52.5t20.5 -81q0 -99 -83.5 -161.5
t-221.5 -62.5q-356 0 -356 365zM330 -227q19 87 53.5 123t122.5 36h43q153 0 153 -157v-17q0 -92 -92 -184l-153 -162q-27 -27 -65.5 -32.5t-70.5 7.5t-51.5 43.5t-11.5 69.5z" />
    <glyph glyph-name="Tcaron" unicode="&#x164;" horiz-adv-x="1267" 
d="M633 1386q-67 19 -143.5 66t-135.5 117.5t-59 136.5q0 52 34.5 85.5t90.5 33.5q61 0 118 -51.5t95 -141.5q39 90 95 141.5t118 51.5q56 0 90.5 -33.5t34.5 -85.5q0 -66 -59 -136.5t-135.5 -117.5t-143.5 -66zM432 180v789h-223q-92 0 -140.5 46t-48.5 134v6
q0 170 189 170h850q190 0 190 -170v-6q0 -180 -190 -180h-215v-789q0 -93 -47.5 -141.5t-137.5 -48.5h-57q-170 0 -170 190z" />
    <glyph glyph-name="tcaron" unicode="&#x165;" horiz-adv-x="911" 
d="M659 1204l70 285q16 86 49.5 121t118.5 35h41q145 0 145 -156v-12q0 -99 -84 -183l-149 -176q-25 -25 -61.5 -30t-67.5 7.5t-50 42t-12 66.5zM201 336v383h-23q-78 0 -119 34t-41 99v22q0 142 160 142h23v98q0 93 45.5 142t130.5 49h33q84 0 130 -44t46 -147v-98h116
q154 0 154 -133v-23q0 -141 -158 -141h-120v-340q0 -103 86 -103q64 0 112 62q4 6 24.5 -9.5t41 -52.5t20.5 -81q0 -99 -83.5 -161.5t-221.5 -62.5q-356 0 -356 365z" />
    <glyph glyph-name="Utilde" unicode="&#x168;" horiz-adv-x="1390" 
d="M518 1456q-40 0 -66 32.5t-26 78.5q0 86 45.5 139t108.5 53q106 0 196 -106q14 46 39 74t57 28q41 0 67 -31.5t26 -76.5q0 -87 -45.5 -140t-108.5 -53q-108 0 -199 107q-13 -47 -37.5 -76t-56.5 -29zM88 582v563q0 94 47 142t133 48h51q181 0 181 -190v-565
q0 -246 196 -246q100 0 147.5 60.5t47.5 187.5v563q0 95 47 142.5t133 47.5h53q179 0 179 -190v-563q0 -299 -154 -452t-455 -153q-300 0 -453 152.5t-153 452.5z" />
    <glyph glyph-name="utilde" unicode="&#x169;" horiz-adv-x="1241" 
d="M438 1169q-40 0 -66 32.5t-26 78.5q0 86 45.5 139.5t108.5 53.5q105 0 196 -107q14 45 39.5 73.5t57.5 28.5q40 0 66 -31.5t26 -76.5q0 -87 -45.5 -140t-108.5 -53q-108 0 -199 107q-13 -47 -37.5 -76t-56.5 -29zM80 373v465q0 188 174 188h39q86 0 133 -42.5t47 -145.5
v-396q0 -69 35 -109t98 -40q99 0 152 80v465q0 188 174 188h41q85 0 131.5 -42.5t46.5 -145.5v-803q0 -6 -20.5 -16.5t-57.5 -19.5t-74 -9q-78 0 -138.5 39t-86.5 131q-59 -90 -139 -139.5t-195 -49.5q-95 0 -167 33t-113 90.5t-60.5 127t-19.5 151.5z" />
    <glyph glyph-name="Umacron" unicode="&#x16a;" horiz-adv-x="1390" 
d="M461 1421q-74 0 -117 35t-43 98v17q0 61 44 97t116 36h479q74 0 117 -36t43 -97v-17q0 -63 -42.5 -98t-117.5 -35h-479zM88 582v563q0 94 47 142t133 48h51q181 0 181 -190v-565q0 -246 196 -246q100 0 147.5 60.5t47.5 187.5v563q0 95 47 142.5t133 47.5h53
q179 0 179 -190v-563q0 -299 -154 -452t-455 -153q-300 0 -453 152.5t-153 452.5z" />
    <glyph glyph-name="umacron" unicode="&#x16b;" horiz-adv-x="1241" 
d="M381 1118q-74 0 -117 35t-43 98v17q0 61 44 97t116 36h479q74 0 117 -36t43 -97v-17q0 -63 -42.5 -98t-117.5 -35h-479zM80 373v465q0 188 174 188h39q86 0 133 -42.5t47 -145.5v-396q0 -69 35 -109t98 -40q99 0 152 80v465q0 188 174 188h41q85 0 131.5 -42.5
t46.5 -145.5v-803q0 -6 -20.5 -16.5t-57.5 -19.5t-74 -9q-78 0 -138.5 39t-86.5 131q-59 -90 -139 -139.5t-195 -49.5q-95 0 -167 33t-113 90.5t-60.5 127t-19.5 151.5z" />
    <glyph glyph-name="Ubreve" unicode="&#x16c;" horiz-adv-x="1390" 
d="M696 1411q-91 0 -177.5 37t-141.5 98.5t-55 128.5q0 52 37 88.5t96 36.5q57 0 126.5 -53.5t116.5 -134.5q44 81 113 134.5t127 53.5q59 0 96 -36.5t37 -88.5q0 -102 -118 -183t-257 -81zM88 582v563q0 94 47 142t133 48h51q181 0 181 -190v-565q0 -246 196 -246
q100 0 147.5 60.5t47.5 187.5v563q0 95 47 142.5t133 47.5h53q179 0 179 -190v-563q0 -299 -154 -452t-455 -153q-300 0 -453 152.5t-153 452.5z" />
    <glyph glyph-name="ubreve" unicode="&#x16d;" horiz-adv-x="1241" 
d="M614 1108q-91 0 -177.5 37t-141.5 98.5t-55 128.5q0 52 37 88.5t96 36.5q57 0 126.5 -53.5t116.5 -134.5q44 81 113 134.5t127 53.5q59 0 96 -36.5t37 -88.5q0 -102 -118 -183t-257 -81zM80 373v465q0 188 174 188h39q86 0 133 -42.5t47 -145.5v-396q0 -69 35 -109
t98 -40q99 0 152 80v465q0 188 174 188h41q85 0 131.5 -42.5t46.5 -145.5v-803q0 -6 -20.5 -16.5t-57.5 -19.5t-74 -9q-78 0 -138.5 39t-86.5 131q-59 -90 -139 -139.5t-195 -49.5q-95 0 -167 33t-113 90.5t-60.5 127t-19.5 151.5z" />
    <glyph glyph-name="Uring" unicode="&#x16e;" horiz-adv-x="1390" 
d="M698 1411q-120 0 -193 72t-73 186q0 110 75.5 184t194.5 74q118 0 192.5 -74t74.5 -184q0 -112 -75.5 -185t-195.5 -73zM700 1571q40 0 67.5 28.5t27.5 69.5t-27.5 70.5t-67.5 29.5t-67 -29.5t-27 -70.5q0 -42 27 -70t67 -28zM88 582v563q0 94 47 142t133 48h51
q181 0 181 -190v-565q0 -246 196 -246q100 0 147.5 60.5t47.5 187.5v563q0 95 47 142.5t133 47.5h53q179 0 179 -190v-563q0 -299 -154 -452t-455 -153q-300 0 -453 152.5t-153 452.5z" />
    <glyph glyph-name="uring" unicode="&#x16f;" horiz-adv-x="1241" 
d="M614 1081q-120 0 -193 72t-73 186q0 110 75.5 184t194.5 74q118 0 192.5 -74t74.5 -184q0 -112 -75.5 -185t-195.5 -73zM616 1241q40 0 67.5 28.5t27.5 69.5t-27.5 71t-67.5 30q-39 0 -66.5 -29.5t-27.5 -71.5t27 -70t67 -28zM80 373v465q0 188 174 188h39
q86 0 133 -42.5t47 -145.5v-396q0 -69 35 -109t98 -40q99 0 152 80v465q0 188 174 188h41q85 0 131.5 -42.5t46.5 -145.5v-803q0 -6 -20.5 -16.5t-57.5 -19.5t-74 -9q-78 0 -138.5 39t-86.5 131q-59 -90 -139 -139.5t-195 -49.5q-95 0 -167 33t-113 90.5t-60.5 127
t-19.5 151.5z" />
    <glyph glyph-name="Uhungarumlaut" unicode="&#x170;" horiz-adv-x="1390" 
d="M772 1464q-10 18 17.5 81t85 137.5t120.5 111.5q58 33 109 33q74 0 125 -44t51 -108q0 -55 -31.5 -107.5t-85.5 -82.5q-62 -34 -132 -49t-123 -11.5t-90.5 14.5t-45.5 25zM266 1464q-10 19 17 81.5t84 137t120 111.5q61 33 111 33q74 0 125 -44t51 -108q0 -55 -32 -107.5
t-85 -82.5q-62 -34 -132 -49t-123.5 -11.5t-91 14.5t-44.5 25zM88 582v563q0 94 47 142t133 48h51q181 0 181 -190v-565q0 -246 196 -246q100 0 147.5 60.5t47.5 187.5v563q0 95 47 142.5t133 47.5h53q179 0 179 -190v-563q0 -299 -154 -452t-455 -153q-300 0 -453 152.5
t-153 452.5z" />
    <glyph glyph-name="uhungarumlaut" unicode="&#x171;" horiz-adv-x="1241" 
d="M688 1161q-10 18 17.5 81t85 137.5t120.5 111.5q58 33 109 33q74 0 125 -44t51 -108q0 -55 -31.5 -107.5t-85.5 -82.5q-62 -34 -132 -49t-123 -11.5t-90.5 14.5t-45.5 25zM182 1161q-10 19 17 81.5t84 137t120 111.5q61 33 111 33q74 0 125 -44t51 -108q0 -55 -32 -107.5
t-85 -82.5q-62 -34 -132 -49t-123.5 -11.5t-91 14.5t-44.5 25zM80 373v465q0 188 174 188h39q86 0 133 -42.5t47 -145.5v-396q0 -69 35 -109t98 -40q99 0 152 80v465q0 188 174 188h41q85 0 131.5 -42.5t46.5 -145.5v-803q0 -6 -20.5 -16.5t-57.5 -19.5t-74 -9
q-78 0 -138.5 39t-86.5 131q-59 -90 -139 -139.5t-195 -49.5q-95 0 -167 33t-113 90.5t-60.5 127t-19.5 151.5z" />
    <glyph glyph-name="Uogonek" unicode="&#x172;" horiz-adv-x="1390" 
d="M88 582v563q0 94 47 142t133 48h51q181 0 181 -190v-565q0 -246 196 -246q100 0 147.5 60.5t47.5 187.5v563q0 95 47 142.5t133 47.5h53q179 0 179 -190v-563q0 -340 -197 -490q-81 -72 -113 -116t-32 -78q0 -28 15.5 -44t41.5 -16q42 0 65 37q32 -4 53 -33t21 -67
q0 -65 -49.5 -104.5t-146.5 -39.5q-115 0 -180.5 50.5t-65.5 142.5q0 85 76 158q-77 -5 -97 -5q-300 0 -453 152.5t-153 452.5z" />
    <glyph glyph-name="uogonek" unicode="&#x173;" horiz-adv-x="1241" 
d="M80 373v465q0 188 174 188h39q86 0 133 -42.5t47 -145.5v-396q0 -69 35 -109t98 -40q99 0 152 80v465q0 188 174 188h41q85 0 131.5 -42.5t46.5 -145.5v-803q0 -9 -16 -15q-75 -71 -105.5 -112.5t-30.5 -73.5q0 -28 15.5 -43.5t42.5 -15.5q42 0 65 37q32 -4 53 -33
t21 -68q0 -65 -50 -104t-147 -39q-115 0 -180 50t-65 142q0 71 54.5 135.5t143.5 98.5q-138 22 -178 166q-59 -90 -139 -139.5t-195 -49.5q-95 0 -167 33t-113 90.5t-60.5 127t-19.5 151.5z" />
    <glyph glyph-name="Wcircumflex" unicode="&#x174;" horiz-adv-x="2013" 
d="M795 1401q-56 0 -90.5 33.5t-34.5 85.5q0 66 59 136t135.5 117t143.5 64q67 -17 143.5 -64t135.5 -117t59 -136q0 -52 -34.5 -85.5t-90.5 -33.5q-63 0 -118.5 50t-94.5 138q-40 -88 -96 -138t-117 -50zM375 145l-314 1047q-1 6 8 21.5t30.5 35.5t50.5 38.5t73.5 31
t93.5 12.5q34 0 66 -10.5t65 -33.5t58 -68t37 -107l110 -571l140 518q17 74 77.5 111.5t147.5 37.5q80 0 141 -40t78 -109l139 -518l111 577q10 58 33 100.5t54 66.5t64.5 35t71.5 11q46 0 88 -12.5t69.5 -30.5t47.5 -38t28.5 -35.5t6.5 -22.5l-301 -1047q-22 -85 -82 -121
t-160 -36q-98 0 -156.5 35t-85.5 122l-155 547l-154 -547q-24 -85 -85 -121t-159 -36q-101 0 -157 34.5t-80 122.5z" />
    <glyph glyph-name="wcircumflex" unicode="&#x175;" horiz-adv-x="1656" 
d="M616 1104q-56 0 -90 33.5t-34 85.5q0 66 58.5 136t135 117t143.5 64q67 -17 143.5 -64t135.5 -117t59 -136q0 -52 -34.5 -85.5t-90.5 -33.5q-63 0 -118.5 50t-94.5 138q-40 -88 -96 -138t-117 -50zM295 92l-275 823q-4 12 32.5 39.5t97 51.5t110.5 24q66 0 115 -33.5
t63 -115.5l86 -484l129 426q17 59 69.5 91t123.5 32q70 0 120.5 -32.5t65.5 -90.5l113 -405l86 463q14 79 61.5 114t108.5 35q52 0 111 -24t93.5 -51.5t30.5 -39.5l-268 -823q-29 -104 -192 -104q-99 0 -146 25.5t-72 103.5l-129 395l-124 -395q-23 -78 -71.5 -103.5
t-144.5 -25.5q-157 0 -194 104z" />
    <glyph glyph-name="Ycircumflex" unicode="&#x176;" horiz-adv-x="1308" 
d="M442 1411q-56 0 -90.5 33.5t-34.5 85.5q0 66 59 136t135.5 117t143.5 64q67 -17 143.5 -64t135.5 -117t59 -136q0 -52 -34.5 -85.5t-90.5 -33.5q-63 0 -118.5 50t-94.5 138q-40 -88 -96 -138t-117 -50zM453 180v338l-461 660q-4 7 2.5 23.5t27 39t50 42.5t79.5 34t109 14
q115 0 193 -141l202 -350l213 350q84 143 195 143q53 0 99.5 -14.5t75 -35t48.5 -43t27.5 -39.5t3.5 -23l-455 -660v-338q0 -190 -178 -190h-59q-172 0 -172 190z" />
    <glyph glyph-name="ycircumflex" unicode="&#x177;" horiz-adv-x="1167" 
d="M377 1108q-56 0 -90.5 33.5t-34.5 85.5q0 66 59 136t135.5 117t143.5 64q67 -17 143.5 -64t135.5 -117t59 -136q0 -52 -34.5 -85.5t-90.5 -33.5q-63 0 -118.5 50t-94.5 138q-40 -88 -96 -138t-117 -50zM354 147l-338 768q-2 6 8.5 19.5t32.5 29.5t49.5 30.5t62 24.5
t67.5 11q151 0 204 -178l154 -444l143 442q29 96 82.5 138t118.5 42q52 0 106 -24t83.5 -51.5t25.5 -39.5l-446 -1126q-68 -174 -209 -174q-53 0 -106.5 23.5t-81.5 49t-23 36.5l168 350q-79 17 -101 73z" />
    <glyph glyph-name="Ydieresis" unicode="&#x178;" horiz-adv-x="1308" 
d="M889 1425q-87 0 -135.5 47t-48.5 134q0 84 48 132t130 48q84 0 133 -47.5t49 -132.5t-48.5 -133t-127.5 -48zM426 1425q-86 0 -135 47t-49 134q0 84 48.5 132t127.5 48q87 0 136.5 -47t49.5 -133q0 -85 -48.5 -133t-129.5 -48zM453 180v338l-461 660q-4 7 2.5 23.5t27 39
t50 42.5t79.5 34t109 14q115 0 193 -141l202 -350l213 350q84 143 195 143q53 0 99.5 -14.5t75 -35t48.5 -43t27.5 -39.5t3.5 -23l-455 -660v-338q0 -190 -178 -190h-59q-172 0 -172 190z" />
    <glyph glyph-name="Zacute" unicode="&#x179;" horiz-adv-x="1271" 
d="M485 1464q-9 18 18 81t85 137.5t121 111.5q58 33 108 33q74 0 125 -44t51 -108q0 -56 -31 -108t-85 -82q-62 -34 -132 -49t-123.5 -11.5t-91 14.5t-45.5 25zM63 162v18q0 43 6 75t24 61.5t32 46.5t47 53l504 571h-416q-92 0 -136 37t-44 123v18q0 83 44.5 121.5
t135.5 38.5h741q105 0 157 -46.5t52 -113.5v-20q0 -56 -15 -99t-34 -67.5t-59 -67.5l-514 -571h454q92 0 136.5 -38t44.5 -124v-16q0 -84 -45 -123t-136 -39h-772q-103 0 -155 47.5t-52 114.5z" />
    <glyph glyph-name="zacute" unicode="&#x17a;" horiz-adv-x="1040" 
d="M365 1161q-10 18 17.5 81t85 137.5t120.5 111.5q58 33 108 33q74 0 125 -44t51 -108q0 -56 -31 -108t-85 -82q-62 -34 -132 -49t-123 -11.5t-90.5 14.5t-45.5 25zM47 131v16q0 64 15 94t57 74l366 406h-278q-150 0 -150 139v14q0 68 38.5 105t111.5 37h627
q69 0 106 -39.5t37 -91.5v-15q0 -63 -14.5 -92.5t-57.5 -72.5l-379 -408h324q147 0 147 -139v-17q0 -139 -147 -139h-664q-69 0 -104 38t-35 91z" />
    <glyph glyph-name="Zdotaccent" unicode="&#x17b;" horiz-adv-x="1271" 
d="M655 1411q-88 0 -141 51.5t-53 134.5q0 81 54.5 134t143.5 53q88 0 141.5 -53t53.5 -134q0 -83 -54 -134.5t-145 -51.5zM63 162v18q0 43 6 75t24 61.5t32 46.5t47 53l504 571h-416q-92 0 -136 37t-44 123v18q0 83 44.5 121.5t135.5 38.5h741q105 0 157 -46.5t52 -113.5
v-20q0 -56 -15 -99t-34 -67.5t-59 -67.5l-514 -571h454q92 0 136.5 -38t44.5 -124v-16q0 -84 -45 -123t-136 -39h-772q-103 0 -155 47.5t-52 114.5z" />
    <glyph glyph-name="zdotaccent" unicode="&#x17c;" horiz-adv-x="1040" 
d="M539 1108q-88 0 -141.5 51.5t-53.5 134.5q0 81 55 134t144 53q88 0 141 -53t53 -134q0 -83 -53.5 -134.5t-144.5 -51.5zM47 131v16q0 64 15 94t57 74l366 406h-278q-150 0 -150 139v14q0 68 38.5 105t111.5 37h627q69 0 106 -39.5t37 -91.5v-15q0 -63 -14.5 -92.5
t-57.5 -72.5l-379 -408h324q147 0 147 -139v-17q0 -139 -147 -139h-664q-69 0 -104 38t-35 91z" />
    <glyph glyph-name="Zcaron" unicode="&#x17d;" horiz-adv-x="1271" 
d="M616 1401q-49 14 -106.5 45.5t-109.5 73.5t-86.5 96t-34.5 104q0 52 34 85.5t90 33.5q61 0 118 -51t95 -141q39 90 95 141t118 51q56 0 90.5 -33.5t34.5 -85.5q0 -66 -59 -136t-135.5 -117t-143.5 -66zM63 162v18q0 43 6 75t24 61.5t32 46.5t47 53l504 571h-416
q-92 0 -136 37t-44 123v18q0 83 44.5 121.5t135.5 38.5h741q105 0 157 -46.5t52 -113.5v-20q0 -56 -15 -99t-34 -67.5t-59 -67.5l-514 -571h454q92 0 136.5 -38t44.5 -124v-16q0 -84 -45 -123t-136 -39h-772q-103 0 -155 47.5t-52 114.5z" />
    <glyph glyph-name="zcaron" unicode="&#x17e;" horiz-adv-x="1040" 
d="M506 1083q-67 19 -143.5 66t-135.5 117.5t-59 136.5q0 52 34.5 85.5t90.5 33.5q61 0 118 -51.5t95 -141.5q39 90 95 141.5t118 51.5q56 0 90.5 -33.5t34.5 -85.5q0 -66 -59 -136.5t-135.5 -117.5t-143.5 -66zM47 131v16q0 64 15 94t57 74l366 406h-278q-150 0 -150 139
v14q0 68 38.5 105t111.5 37h627q69 0 106 -39.5t37 -91.5v-15q0 -63 -14.5 -92.5t-57.5 -72.5l-379 -408h324q147 0 147 -139v-17q0 -139 -147 -139h-664q-69 0 -104 38t-35 91z" />
    <glyph glyph-name="florin" unicode="&#x192;" horiz-adv-x="1015" 
d="M125 23l96 542h-12q-158 0 -158 142v20q0 133 158 133h63l21 113q35 202 135.5 288.5t257.5 86.5q318 0 318 -203q0 -31 -11 -60t-26.5 -49t-31 -35t-26.5 -22.5t-12 -5.5q-49 61 -123 61q-47 0 -71.5 -24t-34.5 -82l-15 -68h74q160 0 160 -139v-23q0 -133 -160 -133
h-113l-57 -332q-15 -81 -44.5 -138t-68 -84.5t-74 -38.5t-73.5 -11q-48 0 -90.5 13t-62.5 27t-19 22z" />
    <glyph glyph-name="Ohorn" unicode="&#x1a0;" horiz-adv-x="1501" 
d="M1395 1184q-37 -59 -88 -84q143 -182 143 -436q0 -199 -89 -357.5t-248.5 -247t-360.5 -88.5q-152 0 -282.5 51.5t-222.5 142.5t-144 220t-52 279q0 198 89.5 355.5t250 246t361.5 88.5q260 0 446 -146q47 9 47 39q0 18 -4.5 68.5t-0.5 80.5t22 56q29 36 88 30t84 -40
q27 -35 17 -105t-56 -153zM752 338q132 0 212 89t80 237q0 147 -80 237t-212 90q-135 0 -215 -88.5t-80 -238.5q0 -148 80.5 -237t214.5 -89z" />
    <glyph glyph-name="ohorn" unicode="&#x1a1;" horiz-adv-x="1269" 
d="M1147 903q-31 -55 -84 -82q92 -134 92 -317q0 -241 -152.5 -387t-404.5 -146t-402.5 145.5t-150.5 389.5q0 238 153.5 384t405.5 146q215 0 354 -106q15 3 27 13t12 24q0 18 -4.5 68.5t-0.5 80t22 55.5q29 36 88 30t84 -40q27 -35 17 -105t-56 -153zM600 272q95 0 158 66
t63 166q0 103 -62 169t-159 66t-159 -66t-62 -167q0 -103 61.5 -168.5t159.5 -65.5z" />
    <glyph glyph-name="Uhorn" unicode="&#x1af;" 
d="M88 580v563q0 94 47 142t133 48h51q181 0 181 -190v-565q0 -246 196 -246q100 0 147.5 60.5t47.5 187.5v563q0 95 47 142.5t133 47.5h53q97 0 142 -57q0 18 -3.5 53t-4 55t4.5 46.5t19 46.5q29 36 88 29.5t84 -40.5q27 -35 17 -105t-56 -153q-43 -76 -112 -96v-532
q0 -299 -154 -452t-455 -153q-300 0 -453 152.5t-153 452.5z" />
    <glyph glyph-name="uhorn" unicode="&#x1b0;" horiz-adv-x="1351" 
d="M1288 1147q27 -35 17 -105t-56 -153q-39 -66 -96 -88v-766q0 -6 -20.5 -16.5t-57.5 -19.5t-74 -9q-78 0 -138.5 39t-86.5 131q-59 -90 -139 -139.5t-195 -49.5q-95 0 -167 33t-113 90.5t-60.5 127t-19.5 151.5v465q0 188 174 188h39q86 0 133 -42.5t47 -145.5v-396
q0 -69 35 -109t98 -40q99 0 152 80v465q0 188 174 188h41q82 0 125 -35q-6 41 -5 88.5t21 77.5q29 36 88 30t84 -40z" />
    <glyph glyph-name="Aringacute" unicode="&#x1fa;" horiz-adv-x="1409" 
d="M569 1837q-9 18 18 81t85 137.5t121 111.5q58 33 108 33q74 0 125 -44t51 -108q0 -56 -31 -108t-85 -82q-62 -34 -132 -49t-123.5 -11.5t-91 14.5t-45.5 25zM12 109l430 1114q17 45 84 71q-90 65 -90 189q0 112 77 185t194 73t191.5 -72.5t74.5 -185.5q0 -124 -96 -191
q61 -25 79 -69l447 -1110q7 -19 -21.5 -50t-84.5 -56t-113 -25q-72 0 -134 45.5t-102 148.5l-37 98h-428l-37 -102q-66 -190 -223 -190q-53 0 -106.5 24t-82.5 54t-22 49zM705 1384q38 0 66 29.5t28 69.5q0 42 -27.5 71t-66.5 29q-40 0 -67.5 -28.5t-27.5 -71.5
q0 -40 28 -69.5t67 -29.5zM553 569h285l-142 385z" />
    <glyph glyph-name="aringacute" unicode="&#x1fb;" horiz-adv-x="1175" 
d="M393 1729q-10 18 17.5 81t85 137t120.5 111q58 33 109 33q74 0 125 -44t51 -108q0 -55 -31.5 -107.5t-85.5 -82.5q-81 -45 -173 -55.5t-149.5 2.5t-68.5 33zM571 1108q-120 0 -193 72t-73 186q0 110 75.5 184t194.5 74q118 0 192.5 -74t74.5 -184q0 -112 -75.5 -185
t-195.5 -73zM573 1268q40 0 67.5 28.5t27.5 69.5t-27.5 70.5t-67.5 29.5t-67 -29.5t-27 -70.5q0 -42 27 -70t67 -28zM43 279q0 174 150.5 258.5t472.5 85.5h39q-6 66 -46.5 100.5t-111.5 34.5q-145 0 -205 -135q-1 -3 -27.5 -3.5t-65 5.5t-76.5 20t-64.5 48t-26.5 83
q0 124 121 192t366 68q272 0 398.5 -106t126.5 -326v-577q0 -15 -48 -30t-104 -15q-175 0 -221 163q-51 -78 -140.5 -121.5t-199.5 -43.5q-153 0 -245.5 83t-92.5 216zM416 313q0 -44 32.5 -69t86.5 -25q77 0 124.5 48.5t47.5 125.5v35h-50q-121 -3 -181 -30.5t-60 -84.5z
" />
    <glyph glyph-name="AEacute" unicode="&#x1fc;" horiz-adv-x="1832" 
d="M852 1464q-10 18 17.5 81t85 137.5t120.5 111.5q58 33 109 33q74 0 125 -44t51 -108q0 -55 -31.5 -107.5t-85.5 -82.5q-62 -34 -132 -49t-123 -11.5t-90.5 14.5t-45.5 25zM12 109l418 1085q14 44 40.5 71t82.5 43.5t143 16.5h885q94 0 141 -45t47 -127v-10
q0 -172 -188 -172h-539l52 -133h317q191 0 191 -158v-8q0 -166 -191 -166h-180l61 -154h297q191 0 191 -162v-10q0 -87 -47.5 -133.5t-143.5 -46.5h-364q-115 0 -176 36t-103 146l-35 92h-428l-37 -102q-68 -190 -221 -190q-56 0 -110 24t-82 54t-21 49zM553 569h285
l-144 385z" />
    <glyph glyph-name="aeacute" unicode="&#x1fd;" horiz-adv-x="1785" 
d="M754 1161q-10 18 17.5 81t85 137.5t120.5 111.5q58 33 108 33q74 0 125.5 -44t51.5 -108q0 -55 -31.5 -107.5t-85.5 -82.5q-62 -34 -132 -49t-123 -11.5t-90.5 14.5t-45.5 25zM43 279q0 174 150.5 258.5t472.5 85.5h39q-6 66 -46.5 100.5t-111.5 34.5q-145 0 -205 -135
q-1 -3 -27.5 -3.5t-65 5.5t-76.5 20t-64.5 48t-26.5 83q0 123 113 191.5t337 68.5q242 0 357 -112q127 112 330 112q231 0 378.5 -142.5t147.5 -363.5v-24q-3 -103 -78 -103h-643q18 -78 80 -118.5t156 -40.5q87 0 150 36t95 93q1 2 19.5 -0.5t45.5 -12.5t54 -27t45.5 -49.5
t18.5 -74.5q0 -104 -118.5 -171t-326.5 -67q-325 0 -446 211q-55 -91 -164.5 -146.5t-247.5 -55.5q-153 0 -247.5 83t-94.5 216zM1018 606h375q-3 79 -50.5 126.5t-128.5 47.5q-77 0 -132 -49t-64 -125zM416 313q0 -44 32.5 -69t86.5 -25q77 0 124.5 48.5t47.5 125.5v35h-50
q-121 -3 -181 -30.5t-60 -84.5z" />
    <glyph glyph-name="Oslashacute" unicode="&#x1fe;" horiz-adv-x="1501" 
d="M606 1464q-10 18 17.5 81t85 137.5t120.5 111.5q58 33 109 33q74 0 125 -44t51 -108q0 -55 -31.5 -107.5t-85.5 -82.5q-62 -34 -132 -49t-123 -11.5t-90.5 14.5t-45.5 25zM68 29q0 44 47 96l86 96q-146 186 -146 443q0 147 52 275t143.5 219t222.5 143.5t283 52.5
q207 0 377 -101l139 152q8 9 45.5 -2t73.5 -43t36 -74q0 -46 -45 -96l-77 -86q147 -183 147 -440q0 -198 -88.5 -356t-248 -247.5t-361.5 -89.5q-208 0 -383 101l-146 -162q-8 -9 -46 2.5t-74.5 43.5t-36.5 73zM459 506l430 477q-66 27 -135 27q-149 0 -236.5 -94.5
t-87.5 -251.5q0 -86 29 -158zM618 346q62 -27 138 -27q144 0 233.5 96t89.5 249q0 86 -30 157z" />
    <glyph glyph-name="oslashacute" unicode="&#x1ff;" horiz-adv-x="1200" 
d="M459 1161q-10 18 17.5 81t85 137.5t120.5 111.5q58 33 109 33q74 0 125 -44t51 -108q0 -55 -31.5 -107.5t-85.5 -82.5q-62 -34 -132 -49t-123 -11.5t-90.5 14.5t-45.5 25zM10 -33q0 41 47 94l101 111q-109 140 -109 332q0 149 70 270.5t198 191.5t289 70q149 0 273 -65
l174 192q8 9 45.5 -1.5t73.5 -41t36 -69.5q0 -47 -45 -97l-112 -127q104 -135 104 -321q0 -231 -156 -383t-401 -152q-151 0 -266 62l-164 -183q-8 -8 -46 3t-75 42.5t-37 71.5zM391 395l303 332q-42 25 -92 25q-102 0 -167.5 -70t-65.5 -178q0 -57 22 -109zM516 283
q41 -23 86 -23q101 0 167.5 69.5t66.5 174.5q0 59 -25 104q1 0 -73 -81t-148 -163z" />
    <glyph glyph-name="Scommaaccent" unicode="&#x218;" horiz-adv-x="1204" 
d="M39 244q0 28 13 58.5t31.5 55t38 44.5t34 29.5t18.5 6.5q68 -62 180 -107.5t213 -45.5q185 0 185 104q0 20 -9.5 35t-22 24t-38.5 16.5t-46.5 11.5t-58.5 11.5t-63 12.5q-73 15 -132 34t-119 52t-101 76t-66.5 107.5t-25.5 143.5q0 206 147 323.5t418 117.5
q246 0 373 -72.5t127 -179.5q0 -32 -14.5 -65.5t-35 -58.5t-41.5 -45t-36.5 -29.5t-18.5 -6.5q-68 63 -163 103t-187 40q-178 0 -178 -102q0 -23 11 -37.5t37 -23.5t50 -14t70 -12.5t78 -14.5q103 -23 182 -55.5t143.5 -81t98.5 -118.5t34 -159q0 -219 -151 -335t-447 -116
q-140 0 -245.5 22.5t-165.5 62t-88.5 86.5t-28.5 102zM414 -227q19 87 53.5 123t122.5 36h43q153 0 153 -157v-17q0 -92 -92 -184l-153 -162q-27 -27 -65.5 -32.5t-70.5 7.5t-51.5 43.5t-11.5 69.5z" />
    <glyph glyph-name="scommaaccent" unicode="&#x219;" horiz-adv-x="1007" 
d="M27 209q0 24 9.5 49t23.5 43.5t28.5 32.5t25 21t13.5 5q56 -52 141 -85t183 -33q66 0 96.5 11t30.5 40q0 10 -3.5 18t-12.5 14.5t-17.5 10.5t-25.5 9t-30 7.5t-37 7.5t-40 9q-39 8 -60.5 13.5t-65 19t-70 27.5t-61 39.5t-54.5 55t-34 72.5t-14 94q0 157 121.5 250.5
t325.5 93.5q215 0 324.5 -60.5t109.5 -170.5q0 -26 -10.5 -52t-25.5 -45t-31 -34t-27.5 -22t-14.5 -5q-56 56 -136 90.5t-159 34.5q-61 0 -90.5 -12t-29.5 -43q0 -14 7.5 -23t25.5 -15.5t35 -10.5t51 -10.5t57 -12.5q34 -8 47.5 -11t51 -13.5t56.5 -18t52.5 -23.5
t52.5 -31.5t43.5 -39t37 -49.5t22 -61t9.5 -74q0 -162 -126 -253.5t-351 -91.5q-230 0 -342 60.5t-112 171.5zM285 -227q19 87 53.5 123t122.5 36h43q153 0 153 -157v-17q0 -92 -92 -184l-153 -162q-27 -27 -65.5 -32.5t-70.5 7.5t-51.5 43.5t-11.5 69.5z" />
    <glyph glyph-name="circumflex" unicode="&#x2c6;" horiz-adv-x="1024" 
d="M299 1108q-56 0 -90.5 33.5t-34.5 85.5q0 66 59 136t135.5 117t143.5 64q67 -17 143.5 -64t135.5 -117t59 -136q0 -52 -34.5 -85.5t-90.5 -33.5q-63 0 -118.5 50t-94.5 138q-40 -88 -96 -138t-117 -50z" />
    <glyph glyph-name="caron" unicode="&#x2c7;" horiz-adv-x="1024" 
d="M512 1083q-67 19 -143.5 66t-135.5 117.5t-59 136.5q0 52 34.5 85.5t90.5 33.5q61 0 118 -51.5t95 -141.5q39 90 95 141.5t118 51.5q56 0 90.5 -33.5t34.5 -85.5q0 -66 -59 -136.5t-135.5 -117.5t-143.5 -66z" />
    <glyph glyph-name="breve" unicode="&#x2d8;" horiz-adv-x="1024" 
d="M512 1108q-91 0 -178 37t-142 98.5t-55 128.5q0 52 37 88.5t96 36.5q57 0 127 -53.5t117 -134.5q44 81 113 134.5t127 53.5q59 0 96 -36.5t37 -88.5q0 -102 -118 -183t-257 -81z" />
    <glyph glyph-name="dotaccent" unicode="&#x2d9;" horiz-adv-x="1024" 
d="M510 1108q-88 0 -141.5 51.5t-53.5 134.5q0 81 55 134t144 53q88 0 141.5 -53t53.5 -134q0 -83 -54 -134.5t-145 -51.5z" />
    <glyph glyph-name="ring" unicode="&#x2da;" horiz-adv-x="1024" 
d="M510 1108q-120 0 -193 72t-73 186q0 110 75.5 184t194.5 74q118 0 192 -73.5t74 -184.5q0 -112 -75 -185t-195 -73zM512 1268q40 0 67 28.5t27 69.5t-27 70.5t-67 29.5t-67 -29.5t-27 -70.5q0 -42 27 -70t67 -28z" />
    <glyph glyph-name="ogonek" unicode="&#x2db;" horiz-adv-x="1024" 
d="M332 -231q0 92 88.5 168.5t216.5 91.5l90 12q-83 -76 -116 -120.5t-33 -78.5q0 -28 15.5 -43.5t41.5 -15.5q42 0 65 37q32 -4 53 -33t21 -68q0 -65 -49.5 -104t-146.5 -39q-115 0 -180.5 50.5t-65.5 142.5z" />
    <glyph glyph-name="tilde" unicode="&#x2dc;" horiz-adv-x="1021" 
d="M266 1110q-56 0 -91.5 37.5t-35.5 91.5q0 102 62 164.5t149 62.5q148 0 273 -125q20 55 54 88t79 33q56 0 91.5 -37.5t35.5 -91.5q0 -102 -62 -163.5t-149 -61.5q-150 0 -275 125q-18 -55 -52 -89t-79 -34z" />
    <glyph glyph-name="hungarumlaut" unicode="&#x2dd;" horiz-adv-x="1024" 
d="M578 1161q-10 18 17.5 81t85 137.5t120.5 111.5q58 33 108 33q74 0 125 -44t51 -108q0 -56 -31 -108t-85 -82q-62 -34 -132 -49t-123 -11.5t-90.5 14.5t-45.5 25zM72 1161q-10 19 17 81.5t84 137t120 111.5q61 33 110 33q74 0 125.5 -44t51.5 -108q0 -55 -32 -107.5
t-85 -82.5q-62 -34 -132 -49t-123.5 -11.5t-91 14.5t-44.5 25z" />
    <glyph glyph-name="pi" unicode="&#x3c0;" horiz-adv-x="1513" 
d="M68 664q0 148 51 276t141 219t218.5 143t279.5 52q202 0 359 -88t243 -245t86 -357q0 -199 -86 -356.5t-243.5 -247t-358.5 -89.5q-202 0 -359.5 88t-244 246t-86.5 359zM211 664q0 -243 152.5 -399t394.5 -156q243 0 394 155.5t151 399.5q0 242 -152 397.5t-393 155.5
q-244 0 -395.5 -155t-151.5 -398zM463 383v491q0 63 32 97.5t91 34.5h194q159 0 241.5 -67.5t82.5 -199.5q0 -130 -79.5 -197t-233.5 -67h-89v-92q0 -53 -26.5 -81t-75.5 -28h-37q-48 0 -74 28t-26 81zM700 649h80q46 0 71.5 23.5t25.5 66.5q0 42 -26.5 66t-76.5 24h-74
v-180z" />
    <glyph glyph-name="Wgrave" unicode="&#x1e80;" horiz-adv-x="2013" 
d="M797 1475q-55 30 -87 82.5t-32 107.5q0 64 51.5 108t126.5 44q51 0 109 -33q63 -37 120.5 -111.5t85 -137.5t17.5 -81q-8 -14 -46 -25t-91 -14.5t-123 11.5t-131 49zM375 145l-314 1047q-1 6 8 21.5t30.5 35.5t50.5 38.5t73.5 31t93.5 12.5q34 0 66 -10.5t65 -33.5
t58 -68t37 -107l110 -571l140 518q17 74 77.5 111.5t147.5 37.5q80 0 141 -40t78 -109l139 -518l111 577q10 58 33 100.5t54 66.5t64.5 35t71.5 11q46 0 88 -12.5t69.5 -30.5t47.5 -38t28.5 -35.5t6.5 -22.5l-301 -1047q-22 -85 -82 -121t-160 -36q-98 0 -156.5 35
t-85.5 122l-155 547l-154 -547q-24 -85 -85 -121t-159 -36q-101 0 -157 34.5t-80 122.5z" />
    <glyph glyph-name="wgrave" unicode="&#x1e81;" horiz-adv-x="1656" 
d="M582 1178q-55 30 -87 82.5t-32 107.5q0 64 51.5 108t126.5 44q51 0 109 -33q63 -37 120.5 -111.5t85 -137.5t17.5 -81q-8 -14 -46 -25t-91 -14.5t-123 11.5t-131 49zM295 92l-275 823q-4 12 32.5 39.5t97 51.5t110.5 24q66 0 115 -33.5t63 -115.5l86 -484l129 426
q17 59 69.5 91t123.5 32q70 0 120.5 -32.5t65.5 -90.5l113 -405l86 463q14 79 61.5 114t108.5 35q52 0 111 -24t93.5 -51.5t30.5 -39.5l-268 -823q-29 -104 -192 -104q-99 0 -146 25.5t-72 103.5l-129 395l-124 -395q-23 -78 -71.5 -103.5t-144.5 -25.5q-157 0 -194 104z
" />
    <glyph glyph-name="Wacute" unicode="&#x1e82;" horiz-adv-x="2013" 
d="M836 1454q-10 18 17.5 81t85 137.5t120.5 111.5q58 33 108 33q74 0 125 -44t51 -108q0 -56 -31 -108t-85 -82q-62 -34 -132 -49t-123 -11.5t-90.5 14.5t-45.5 25zM375 145l-314 1047q-1 6 8 21.5t30.5 35.5t50.5 38.5t73.5 31t93.5 12.5q34 0 66 -10.5t65 -33.5t58 -68
t37 -107l110 -571l140 518q17 74 77.5 111.5t147.5 37.5q80 0 141 -40t78 -109l139 -518l111 577q10 58 33 100.5t54 66.5t64.5 35t71.5 11q46 0 88 -12.5t69.5 -30.5t47.5 -38t28.5 -35.5t6.5 -22.5l-301 -1047q-22 -85 -82 -121t-160 -36q-98 0 -156.5 35t-85.5 122
l-155 547l-154 -547q-24 -85 -85 -121t-159 -36q-101 0 -157 34.5t-80 122.5z" />
    <glyph glyph-name="wacute" unicode="&#x1e83;" horiz-adv-x="1656" 
d="M678 1157q-10 18 17.5 81t85 137.5t120.5 111.5q58 33 109 33q74 0 125 -44t51 -108q0 -55 -31.5 -107.5t-85.5 -82.5q-62 -34 -132 -49t-123 -11.5t-90.5 14.5t-45.5 25zM295 92l-275 823q-4 12 32.5 39.5t97 51.5t110.5 24q66 0 115 -33.5t63 -115.5l86 -484l129 426
q17 59 69.5 91t123.5 32q70 0 120.5 -32.5t65.5 -90.5l113 -405l86 463q14 79 61.5 114t108.5 35q52 0 111 -24t93.5 -51.5t30.5 -39.5l-268 -823q-29 -104 -192 -104q-99 0 -146 25.5t-72 103.5l-129 395l-124 -395q-23 -78 -71.5 -103.5t-144.5 -25.5q-157 0 -194 104z
" />
    <glyph glyph-name="Wdieresis" unicode="&#x1e84;" horiz-adv-x="2013" 
d="M1241 1401q-87 0 -135.5 46.5t-48.5 133.5q0 84 48 132t130 48q84 0 133 -47.5t49 -132.5t-48 -132.5t-128 -47.5zM778 1401q-86 0 -135 46.5t-49 133.5q0 84 48.5 132t127.5 48q87 0 136.5 -47t49.5 -133q0 -85 -48.5 -132.5t-129.5 -47.5zM375 145l-314 1047
q-1 6 8 21.5t30.5 35.5t50.5 38.5t73.5 31t93.5 12.5q34 0 66 -10.5t65 -33.5t58 -68t37 -107l110 -571l140 518q17 74 77.5 111.5t147.5 37.5q80 0 141 -40t78 -109l139 -518l111 577q10 58 33 100.5t54 66.5t64.5 35t71.5 11q46 0 88 -12.5t69.5 -30.5t47.5 -38
t28.5 -35.5t6.5 -22.5l-301 -1047q-22 -85 -82 -121t-160 -36q-98 0 -156.5 35t-85.5 122l-155 547l-154 -547q-24 -85 -85 -121t-159 -36q-101 0 -157 34.5t-80 122.5z" />
    <glyph glyph-name="wdieresis" unicode="&#x1e85;" horiz-adv-x="1656" 
d="M1065 1108q-87 0 -135.5 46.5t-48.5 133.5q0 84 48 132t130 48q84 0 133 -47.5t49 -132.5t-48 -132.5t-128 -47.5zM602 1108q-86 0 -135 46.5t-49 133.5q0 84 48.5 132t127.5 48q87 0 136.5 -47t49.5 -133q0 -85 -48.5 -132.5t-129.5 -47.5zM295 92l-275 823
q-4 12 32.5 39.5t97 51.5t110.5 24q66 0 115 -33.5t63 -115.5l86 -484l129 426q17 59 69.5 91t123.5 32q70 0 120.5 -32.5t65.5 -90.5l113 -405l86 463q14 79 61.5 114t108.5 35q52 0 111 -24t93.5 -51.5t30.5 -39.5l-268 -823q-29 -104 -192 -104q-99 0 -146 25.5
t-72 103.5l-129 395l-124 -395q-23 -78 -71.5 -103.5t-144.5 -25.5q-157 0 -194 104z" />
    <glyph glyph-name="uni1EA0" unicode="&#x1ea0;" horiz-adv-x="1409" 
d="M698 -432q-72 0 -113.5 36t-41.5 99q0 61 40.5 97t108.5 36q72 0 114 -35t42 -98q0 -62 -41 -98.5t-109 -36.5zM12 109l430 1114q17 55 74 83.5t186 28.5q130 0 183.5 -28t70.5 -84l447 -1110q7 -19 -21.5 -50t-84.5 -56t-113 -25q-72 0 -134 45.5t-102 148.5l-37 98
h-428l-37 -102q-66 -190 -223 -190q-53 0 -106.5 24t-82.5 54t-22 49zM553 569h285l-144 385z" />
    <glyph glyph-name="uni1EA1" unicode="&#x1ea1;" horiz-adv-x="1175" 
d="M569 -432q-72 0 -113.5 36t-41.5 99q0 61 40.5 97t108.5 36q72 0 114 -35t42 -98q0 -62 -41 -98.5t-109 -36.5zM43 279q0 174 150.5 258.5t472.5 85.5h39q-6 66 -46.5 100.5t-111.5 34.5q-145 0 -205 -135q-1 -3 -27.5 -3.5t-65 5.5t-76.5 20t-64.5 48t-26.5 83
q0 124 121 192t366 68q272 0 398.5 -106t126.5 -326v-577q0 -15 -48 -30t-104 -15q-175 0 -221 163q-51 -78 -140.5 -121.5t-199.5 -43.5q-153 0 -245.5 83t-92.5 216zM416 313q0 -44 32.5 -69t86.5 -25q77 0 124.5 48.5t47.5 125.5v35h-50q-121 -3 -181 -30.5t-60 -84.5z
" />
    <glyph glyph-name="uni1EA2" unicode="&#x1ea2;" horiz-adv-x="1409" 
d="M610 1507q1 42 17.5 72t39.5 46t46 28t39 25.5t16 31.5q0 49 -68 49q-50 0 -69.5 -26t-26.5 -74q0 -1 -8 -1t-21 1t-28 3.5t-30.5 9t-28.5 16t-21 26t-8 37.5q0 73 64.5 124.5t181.5 51.5q120 0 189 -54.5t69 -146.5q0 -40 -14.5 -70t-36 -45.5t-46.5 -30t-46.5 -24
t-35.5 -26t-14 -37.5q0 -14 -5 -22.5t-18 -12t-23 -4t-32 -0.5q-40 0 -61 11t-21 42zM12 109l430 1114q17 55 74 83.5t186 28.5q130 0 183.5 -28t70.5 -84l447 -1110q7 -19 -21.5 -50t-84.5 -56t-113 -25q-72 0 -134 45.5t-102 148.5l-37 98h-428l-37 -102
q-66 -190 -223 -190q-53 0 -106.5 24t-82.5 54t-22 49zM553 569h285l-144 385z" />
    <glyph glyph-name="uni1EA3" unicode="&#x1ea3;" horiz-adv-x="1175" 
d="M467 1221q1 42 17.5 72t39.5 45.5t46 27.5t39 25.5t16 31.5q0 50 -68 50q-50 0 -69 -26.5t-27 -74.5q0 -1 -8 -1t-21 1t-28.5 3.5t-31 9t-28.5 16t-21 26t-8 37.5q0 73 64.5 124.5t181.5 51.5q120 0 189 -54t69 -146q0 -47 -20 -80t-48.5 -50t-56.5 -30.5t-48 -31
t-19 -42.5q0 -14 -5 -22.5t-18 -12t-23 -4t-32 -0.5q-40 0 -61 11.5t-21 42.5zM43 279q0 174 150.5 258.5t472.5 85.5h39q-6 66 -46.5 100.5t-111.5 34.5q-145 0 -205 -135q-1 -3 -27.5 -3.5t-65 5.5t-76.5 20t-64.5 48t-26.5 83q0 124 121 192t366 68q272 0 398.5 -106
t126.5 -326v-577q0 -15 -48 -30t-104 -15q-175 0 -221 163q-51 -78 -140.5 -121.5t-199.5 -43.5q-153 0 -245.5 83t-92.5 216zM416 313q0 -44 32.5 -69t86.5 -25q77 0 124.5 48.5t47.5 125.5v35h-50q-121 -3 -181 -30.5t-60 -84.5z" />
    <glyph glyph-name="uni1EA4" unicode="&#x1ea4;" horiz-adv-x="1409" 
d="M997 1761q-14 28 48.5 131.5t142.5 149.5q47 29 92 29q62 0 106 -37t44 -92q0 -47 -27.5 -91.5t-73.5 -70.5q-69 -38 -147.5 -47.5t-127 1.5t-57.5 27zM528 1434q-49 0 -77.5 28t-28.5 72q0 83 96 164t191 106q94 -25 190 -106t96 -164q0 -44 -28.5 -72t-77.5 -28
q-52 0 -100 42.5t-80 116.5q-34 -74 -81.5 -116.5t-99.5 -42.5zM12 109l430 1114q17 55 74 83.5t186 28.5q130 0 183.5 -28t70.5 -84l447 -1110q7 -19 -21.5 -50t-84.5 -56t-113 -25q-72 0 -134 45.5t-102 148.5l-37 98h-428l-37 -102q-66 -190 -223 -190q-53 0 -106.5 24
t-82.5 54t-22 49zM553 569h285l-144 385z" />
    <glyph glyph-name="uni1EA5" unicode="&#x1ea5;" horiz-adv-x="1175" 
d="M860 1473q-14 28 48.5 131t142.5 149q47 29 92 29q62 0 105.5 -37t43.5 -92q0 -47 -27 -91.5t-73 -70.5q-69 -38 -147.5 -47.5t-127 2t-57.5 27.5zM391 1145q-49 0 -77.5 28t-28.5 72q0 57 49.5 116.5t114 99.5t122.5 55q94 -25 190.5 -106.5t96.5 -164.5
q0 -44 -28.5 -72t-77.5 -28q-52 0 -100.5 43t-80.5 117q-34 -75 -81 -117.5t-99 -42.5zM43 279q0 174 150.5 258.5t472.5 85.5h39q-6 66 -46.5 100.5t-111.5 34.5q-145 0 -205 -135q-1 -3 -27.5 -3.5t-65 5.5t-76.5 20t-64.5 48t-26.5 83q0 124 121 192t366 68
q272 0 398.5 -106t126.5 -326v-577q0 -15 -48 -30t-104 -15q-175 0 -221 163q-51 -78 -140.5 -121.5t-199.5 -43.5q-153 0 -245.5 83t-92.5 216zM416 313q0 -44 32.5 -69t86.5 -25q77 0 124.5 48.5t47.5 125.5v35h-50q-121 -3 -181 -30.5t-60 -84.5z" />
    <glyph glyph-name="uni1EA6" unicode="&#x1ea6;" horiz-adv-x="1409" 
d="M889 1812q-47 26 -75 71t-28 91q0 55 44 92t108 37q47 0 92 -28q80 -46 142.5 -149.5t48.5 -131.5q-7 -12 -39.5 -21t-77.5 -12.5t-104.5 9.5t-110.5 42zM528 1434q-49 0 -77.5 28t-28.5 72q0 83 96 164t191 106q94 -25 190 -106t96 -164q0 -44 -28.5 -72t-77.5 -28
q-52 0 -100 42.5t-80 116.5q-34 -74 -81.5 -116.5t-99.5 -42.5zM12 109l430 1114q17 55 74 83.5t186 28.5q130 0 183.5 -28t70.5 -84l447 -1110q7 -19 -21.5 -50t-84.5 -56t-113 -25q-72 0 -134 45.5t-102 148.5l-37 98h-428l-37 -102q-66 -190 -223 -190q-53 0 -106.5 24
t-82.5 54t-22 49zM553 569h285l-144 385z" />
    <glyph glyph-name="uni1EA7" unicode="&#x1ea7;" horiz-adv-x="1175" 
d="M752 1524q-47 26 -75 71t-28 91q0 55 44 92t108 37q45 0 92 -29q80 -46 142 -149.5t48 -131.5q-10 -16 -59 -27t-127 -1.5t-145 47.5zM391 1145q-49 0 -77.5 28t-28.5 72q0 57 49.5 116.5t114 99.5t122.5 55q94 -25 190.5 -106.5t96.5 -164.5q0 -44 -28.5 -72t-77.5 -28
q-52 0 -100.5 43t-80.5 117q-34 -75 -81 -117.5t-99 -42.5zM43 279q0 174 150.5 258.5t472.5 85.5h39q-6 66 -46.5 100.5t-111.5 34.5q-145 0 -205 -135q-1 -3 -27.5 -3.5t-65 5.5t-76.5 20t-64.5 48t-26.5 83q0 124 121 192t366 68q272 0 398.5 -106t126.5 -326v-577
q0 -15 -48 -30t-104 -15q-175 0 -221 163q-51 -78 -140.5 -121.5t-199.5 -43.5q-153 0 -245.5 83t-92.5 216zM416 313q0 -44 32.5 -69t86.5 -25q77 0 124.5 48.5t47.5 125.5v35h-50q-121 -3 -181 -30.5t-60 -84.5z" />
    <glyph glyph-name="uni1EA8" unicode="&#x1ea8;" horiz-adv-x="1409" 
d="M528 1434q-49 0 -77.5 28t-28.5 72q0 83 96 164t191 106q94 -25 190 -106t96 -164q0 -44 -28.5 -72t-77.5 -28q-52 0 -100 42.5t-80 116.5q-34 -74 -81.5 -116.5t-99.5 -42.5zM12 109l430 1114q17 55 74 83.5t186 28.5q130 0 183.5 -28t70.5 -84l447 -1110
q7 -19 -21.5 -50t-84.5 -56t-113 -25q-72 0 -134 45.5t-102 148.5l-37 98h-428l-37 -102q-66 -190 -223 -190q-53 0 -106.5 24t-82.5 54t-22 49zM553 569h285l-144 385zM922 1794q1 42 17 72t39 46t46 28t39 25.5t16 31.5q0 49 -67 49q-50 0 -70 -26.5t-27 -73.5q0 -1 -8 -1
t-21 1t-28.5 3.5t-30.5 9t-28 16t-21 26t-8 37.5q0 73 64.5 124.5t181.5 51.5q120 0 189 -54.5t69 -146.5q0 -40 -14.5 -70t-36 -45.5t-46.5 -30t-46.5 -24t-35.5 -26t-14 -37.5q0 -14 -5 -22.5t-17.5 -12t-22.5 -4t-32 -0.5q-40 0 -61 11t-21 42z" />
    <glyph glyph-name="uni1EA9" unicode="&#x1ea9;" horiz-adv-x="1175" 
d="M784 1505q1 42 17.5 72t39.5 46t46 28t39 25.5t16 31.5q0 49 -68 49q-50 0 -69.5 -26t-26.5 -74q0 -1 -8 -1t-21 1t-28 3.5t-30.5 9t-28.5 16t-21 26t-8 37.5q0 73 64.5 124.5t181.5 51.5q120 0 189 -54.5t69 -146.5q0 -40 -14.5 -70t-36 -45.5t-46.5 -30t-46.5 -24
t-35.5 -26t-14 -37.5q0 -14 -5 -22.5t-18 -12t-23 -4t-32 -0.5q-40 0 -61 11t-21 42zM391 1145q-49 0 -77.5 28t-28.5 72q0 57 49.5 116.5t114 99.5t122.5 55q94 -25 190.5 -106.5t96.5 -164.5q0 -44 -28.5 -72t-77.5 -28q-52 0 -100.5 43t-80.5 117q-34 -75 -81 -117.5
t-99 -42.5zM43 279q0 174 150.5 258.5t472.5 85.5h39q-6 66 -46.5 100.5t-111.5 34.5q-145 0 -205 -135q-1 -3 -27.5 -3.5t-65 5.5t-76.5 20t-64.5 48t-26.5 83q0 124 121 192t366 68q272 0 398.5 -106t126.5 -326v-577q0 -15 -48 -30t-104 -15q-175 0 -221 163
q-51 -78 -140.5 -121.5t-199.5 -43.5q-153 0 -245.5 83t-92.5 216zM416 313q0 -44 32.5 -69t86.5 -25q77 0 124.5 48.5t47.5 125.5v35h-50q-121 -3 -181 -30.5t-60 -84.5z" />
    <glyph glyph-name="uni1EAA" unicode="&#x1eaa;" horiz-adv-x="1409" 
d="M530 1847q-40 0 -66 32.5t-26 78.5q0 86 45.5 139t108.5 53q106 0 196 -106q14 45 39.5 73.5t57.5 28.5q40 0 66 -31.5t26 -76.5q0 -87 -45.5 -140t-108.5 -53q-107 0 -198 107q-13 -47 -38 -76t-57 -29zM528 1434q-49 0 -77.5 28t-28.5 72q0 83 96 164t191 106
q94 -25 190 -106t96 -164q0 -44 -28.5 -72t-77.5 -28q-52 0 -100 42.5t-80 116.5q-34 -74 -81.5 -116.5t-99.5 -42.5zM12 109l430 1114q17 55 74 83.5t186 28.5q130 0 183.5 -28t70.5 -84l447 -1110q7 -19 -21.5 -50t-84.5 -56t-113 -25q-72 0 -134 45.5t-102 148.5l-37 98
h-428l-37 -102q-66 -190 -223 -190q-53 0 -106.5 24t-82.5 54t-22 49zM553 569h285l-144 385z" />
    <glyph glyph-name="uni1EAB" unicode="&#x1eab;" horiz-adv-x="1175" 
d="M393 1559q-40 0 -66 32.5t-26 77.5q0 86 45.5 139.5t108.5 53.5q105 0 196 -107q14 46 39.5 74.5t57.5 28.5q40 0 66 -32t26 -77q0 -87 -45.5 -140t-108.5 -53q-108 0 -199 107q-13 -47 -37.5 -75.5t-56.5 -28.5zM391 1145q-49 0 -77.5 28t-28.5 72q0 57 49.5 116.5
t114 99.5t122.5 55q94 -25 190.5 -106.5t96.5 -164.5q0 -44 -28.5 -72t-77.5 -28q-52 0 -100.5 43t-80.5 117q-34 -75 -81 -117.5t-99 -42.5zM43 279q0 174 150.5 258.5t472.5 85.5h39q-6 66 -46.5 100.5t-111.5 34.5q-145 0 -205 -135q-1 -3 -27.5 -3.5t-65 5.5t-76.5 20
t-64.5 48t-26.5 83q0 124 121 192t366 68q272 0 398.5 -106t126.5 -326v-577q0 -15 -48 -30t-104 -15q-175 0 -221 163q-51 -78 -140.5 -121.5t-199.5 -43.5q-153 0 -245.5 83t-92.5 216zM416 313q0 -44 32.5 -69t86.5 -25q77 0 124.5 48.5t47.5 125.5v35h-50
q-121 -3 -181 -30.5t-60 -84.5z" />
    <glyph glyph-name="uni1EAC" unicode="&#x1eac;" horiz-adv-x="1409" 
d="M528 1434q-49 0 -77.5 28t-28.5 72q0 83 96 164t191 106q94 -25 190 -106t96 -164q0 -44 -28.5 -72t-77.5 -28q-52 0 -100 42.5t-80 116.5q-34 -74 -81.5 -116.5t-99.5 -42.5zM12 109l430 1114q17 55 74 83.5t186 28.5q130 0 183.5 -28t70.5 -84l447 -1110
q7 -19 -21.5 -50t-84.5 -56t-113 -25q-72 0 -134 45.5t-102 148.5l-37 98h-428l-37 -102q-66 -190 -223 -190q-53 0 -106.5 24t-82.5 54t-22 49zM553 569h285l-144 385zM698 -432q-72 0 -113.5 36t-41.5 99q0 61 40.5 97t108.5 36q72 0 114 -35t42 -98q0 -62 -41 -98.5
t-109 -36.5z" />
    <glyph glyph-name="uni1EAD" unicode="&#x1ead;" horiz-adv-x="1175" 
d="M391 1145q-49 0 -77.5 28t-28.5 72q0 57 49.5 116.5t114 99.5t122.5 55q94 -25 190.5 -106.5t96.5 -164.5q0 -44 -28.5 -72t-77.5 -28q-52 0 -100.5 43t-80.5 117q-34 -75 -81 -117.5t-99 -42.5zM43 279q0 174 150.5 258.5t472.5 85.5h39q-6 66 -46.5 100.5t-111.5 34.5
q-145 0 -205 -135q-1 -3 -27.5 -3.5t-65 5.5t-76.5 20t-64.5 48t-26.5 83q0 124 121 192t366 68q272 0 398.5 -106t126.5 -326v-577q0 -15 -48 -30t-104 -15q-175 0 -221 163q-51 -78 -140.5 -121.5t-199.5 -43.5q-153 0 -245.5 83t-92.5 216zM416 313q0 -44 32.5 -69
t86.5 -25q77 0 124.5 48.5t47.5 125.5v35h-50q-121 -3 -181 -30.5t-60 -84.5zM569 -432q-72 0 -113.5 36t-41.5 99q0 61 40.5 97t108.5 36q72 0 114 -35t42 -98q0 -62 -41 -98.5t-109 -36.5z" />
    <glyph glyph-name="uni1EAE" unicode="&#x1eae;" horiz-adv-x="1409" 
d="M606 1898q-14 28 48.5 131.5t142.5 149.5q47 29 92 29q62 0 105.5 -37t43.5 -92q0 -47 -27 -91.5t-73 -70.5q-69 -38 -147.5 -47.5t-127 1.5t-57.5 27zM12 109l430 1114q17 55 74 83.5t186 28.5q130 0 183.5 -28t70.5 -84l447 -1110q7 -19 -21.5 -50t-84.5 -56t-113 -25
q-72 0 -134 45.5t-102 148.5l-37 98h-428l-37 -102q-66 -190 -223 -190q-53 0 -106.5 24t-82.5 54t-22 49zM553 569h285l-144 385zM702 1454q-120 0 -219.5 69t-99.5 156q0 44 32.5 75.5t82.5 31.5q47 0 106.5 -45.5t100.5 -114.5q36 68 95 114t107 46q50 0 82.5 -31.5
t32.5 -75.5q0 -88 -100.5 -156.5t-219.5 -68.5z" />
    <glyph glyph-name="uni1EAF" unicode="&#x1eaf;" horiz-adv-x="1175" 
d="M469 1612q-14 28 48 131t142 149q47 29 93 29q62 0 105.5 -37t43.5 -92q0 -47 -27 -91.5t-73 -70.5q-69 -38 -147.5 -47.5t-127 2t-57.5 27.5zM565 1167q-120 0 -219.5 69.5t-99.5 156.5q0 44 32 75t82 31q47 0 106.5 -45.5t100.5 -114.5q36 68 95.5 114t107.5 46
q50 0 82.5 -31t32.5 -75q0 -88 -100.5 -157t-219.5 -69zM43 279q0 174 150.5 258.5t472.5 85.5h39q-6 66 -46.5 100.5t-111.5 34.5q-145 0 -205 -135q-1 -3 -27.5 -3.5t-65 5.5t-76.5 20t-64.5 48t-26.5 83q0 124 121 192t366 68q272 0 398.5 -106t126.5 -326v-577
q0 -15 -48 -30t-104 -15q-175 0 -221 163q-51 -78 -140.5 -121.5t-199.5 -43.5q-153 0 -245.5 83t-92.5 216zM416 313q0 -44 32.5 -69t86.5 -25q77 0 124.5 48.5t47.5 125.5v35h-50q-121 -3 -181 -30.5t-60 -84.5z" />
    <glyph glyph-name="uni1EB0" unicode="&#x1eb0;" horiz-adv-x="1409" 
d="M473 1917q-47 26 -74.5 71t-27.5 91q0 55 44 92t107 37q45 0 92 -29q80 -46 142.5 -149.5t48.5 -131.5q-10 -16 -59.5 -27t-127.5 -1.5t-145 47.5zM12 109l430 1114q17 55 74 83.5t186 28.5q130 0 183.5 -28t70.5 -84l447 -1110q7 -19 -21.5 -50t-84.5 -56t-113 -25
q-72 0 -134 45.5t-102 148.5l-37 98h-428l-37 -102q-66 -190 -223 -190q-53 0 -106.5 24t-82.5 54t-22 49zM553 569h285l-144 385zM702 1454q-120 0 -219.5 69t-99.5 156q0 44 32.5 75.5t82.5 31.5q47 0 106.5 -45.5t100.5 -114.5q36 68 95 114t107 46q50 0 82.5 -31.5
t32.5 -75.5q0 -88 -100.5 -156.5t-219.5 -68.5z" />
    <glyph glyph-name="uni1EB1" unicode="&#x1eb1;" horiz-adv-x="1175" 
d="M336 1630q-47 26 -75 71t-28 91q0 55 44 92t108 37q45 0 92 -29q80 -46 142.5 -149t48.5 -131q-7 -12 -39.5 -21t-77.5 -12.5t-104.5 9.5t-110.5 42zM565 1167q-120 0 -219.5 69.5t-99.5 156.5q0 44 32 75t82 31q47 0 106.5 -45.5t100.5 -114.5q36 68 95.5 114t107.5 46
q50 0 82.5 -31t32.5 -75q0 -88 -100.5 -157t-219.5 -69zM43 279q0 174 150.5 258.5t472.5 85.5h39q-6 66 -46.5 100.5t-111.5 34.5q-145 0 -205 -135q-1 -3 -27.5 -3.5t-65 5.5t-76.5 20t-64.5 48t-26.5 83q0 124 121 192t366 68q272 0 398.5 -106t126.5 -326v-577
q0 -15 -48 -30t-104 -15q-175 0 -221 163q-51 -78 -140.5 -121.5t-199.5 -43.5q-153 0 -245.5 83t-92.5 216zM416 313q0 -44 32.5 -69t86.5 -25q77 0 124.5 48.5t47.5 125.5v35h-50q-121 -3 -181 -30.5t-60 -84.5z" />
    <glyph glyph-name="uni1EB2" unicode="&#x1eb2;" horiz-adv-x="1409" 
d="M12 109l430 1114q17 55 74 83.5t186 28.5q130 0 183.5 -28t70.5 -84l447 -1110q7 -19 -21.5 -50t-84.5 -56t-113 -25q-72 0 -134 45.5t-102 148.5l-37 98h-428l-37 -102q-66 -190 -223 -190q-53 0 -106.5 24t-82.5 54t-22 49zM553 569h285l-144 385zM702 1454
q-120 0 -219.5 69t-99.5 156q0 44 32.5 75.5t82.5 31.5q47 0 106.5 -45.5t100.5 -114.5q36 68 95 114t107 46q50 0 82.5 -31.5t32.5 -75.5q0 -88 -100.5 -156.5t-219.5 -68.5zM610 1880q1 42 17.5 72t39.5 46t46 28t39 25.5t16 31.5q0 49 -68 49q-50 0 -69.5 -26t-26.5 -74
q0 -1 -8 -1t-21 1t-28 3.5t-30.5 9t-28.5 16t-21 26t-8 37.5q0 73 64.5 124.5t181.5 51.5q120 0 189 -54.5t69 -146.5q0 -40 -14.5 -70t-36 -45.5t-46.5 -30t-46.5 -24t-35.5 -26t-14 -37.5q0 -14 -5 -22.5t-18 -12t-23 -4t-32 -0.5q-40 0 -61 11t-21 42z" />
    <glyph glyph-name="uni1EB3" unicode="&#x1eb3;" horiz-adv-x="1175" 
d="M473 1593q1 42 17.5 72t39.5 46t46 28t39 25.5t16 31.5q0 49 -68 49q-50 0 -69.5 -26t-26.5 -74q0 -1 -8 -1t-21 1t-28.5 3.5t-30.5 9t-28 16t-21 26t-8 37.5q0 73 64.5 124.5t180.5 51.5q120 0 189 -54.5t69 -146.5q0 -47 -20 -80t-48.5 -49.5t-56.5 -30t-48 -31
t-19 -42.5q0 -14 -5 -22.5t-18 -12t-23 -4t-32 -0.5q-40 0 -61 11t-21 42zM565 1167q-120 0 -219.5 69.5t-99.5 156.5q0 44 32 75t82 31q47 0 106.5 -45.5t100.5 -114.5q36 68 95.5 114t107.5 46q50 0 82.5 -31t32.5 -75q0 -88 -100.5 -157t-219.5 -69zM43 279
q0 174 150.5 258.5t472.5 85.5h39q-6 66 -46.5 100.5t-111.5 34.5q-145 0 -205 -135q-1 -3 -27.5 -3.5t-65 5.5t-76.5 20t-64.5 48t-26.5 83q0 124 121 192t366 68q272 0 398.5 -106t126.5 -326v-577q0 -15 -48 -30t-104 -15q-175 0 -221 163q-51 -78 -140.5 -121.5
t-199.5 -43.5q-153 0 -245.5 83t-92.5 216zM416 313q0 -44 32.5 -69t86.5 -25q77 0 124.5 48.5t47.5 125.5v35h-50q-121 -3 -181 -30.5t-60 -84.5z" />
    <glyph glyph-name="uni1EB4" unicode="&#x1eb4;" horiz-adv-x="1409" 
d="M530 1860q-40 0 -66 32.5t-26 77.5q0 86 45.5 139.5t108.5 53.5q105 0 196 -107q14 46 39.5 74.5t57.5 28.5q40 0 66 -32t26 -77q0 -87 -45.5 -139.5t-108.5 -52.5q-108 0 -198 106q-13 -46 -37.5 -75t-57.5 -29zM12 109l430 1114q17 55 74 83.5t186 28.5
q130 0 183.5 -28t70.5 -84l447 -1110q7 -19 -21.5 -50t-84.5 -56t-113 -25q-72 0 -134 45.5t-102 148.5l-37 98h-428l-37 -102q-66 -190 -223 -190q-53 0 -106.5 24t-82.5 54t-22 49zM553 569h285l-144 385zM702 1454q-120 0 -219.5 69t-99.5 156q0 44 32.5 75.5t82.5 31.5
q47 0 106.5 -45.5t100.5 -114.5q36 68 95 114t107 46q50 0 82.5 -31.5t32.5 -75.5q0 -88 -100.5 -156.5t-219.5 -68.5z" />
    <glyph glyph-name="uni1EB5" unicode="&#x1eb5;" horiz-adv-x="1175" 
d="M393 1573q-40 0 -66 32.5t-26 77.5q0 86 45.5 139.5t108.5 53.5q105 0 196 -107q14 46 39.5 74.5t57.5 28.5q40 0 66 -32t26 -77q0 -87 -45.5 -139.5t-108.5 -52.5q-109 0 -199 106q-13 -47 -37.5 -75.5t-56.5 -28.5zM565 1167q-120 0 -219.5 69.5t-99.5 156.5
q0 44 32 75t82 31q47 0 106.5 -45.5t100.5 -114.5q36 68 95.5 114t107.5 46q50 0 82.5 -31t32.5 -75q0 -88 -100.5 -157t-219.5 -69zM43 279q0 174 150.5 258.5t472.5 85.5h39q-6 66 -46.5 100.5t-111.5 34.5q-145 0 -205 -135q-1 -3 -27.5 -3.5t-65 5.5t-76.5 20t-64.5 48
t-26.5 83q0 124 121 192t366 68q272 0 398.5 -106t126.5 -326v-577q0 -15 -48 -30t-104 -15q-175 0 -221 163q-51 -78 -140.5 -121.5t-199.5 -43.5q-153 0 -245.5 83t-92.5 216zM416 313q0 -44 32.5 -69t86.5 -25q77 0 124.5 48.5t47.5 125.5v35h-50q-121 -3 -181 -30.5
t-60 -84.5z" />
    <glyph glyph-name="uni1EB6" unicode="&#x1eb6;" horiz-adv-x="1409" 
d="M12 109l430 1114q17 55 74 83.5t186 28.5q130 0 183.5 -28t70.5 -84l447 -1110q7 -19 -21.5 -50t-84.5 -56t-113 -25q-72 0 -134 45.5t-102 148.5l-37 98h-428l-37 -102q-66 -190 -223 -190q-53 0 -106.5 24t-82.5 54t-22 49zM553 569h285l-144 385zM698 -432
q-72 0 -113.5 36t-41.5 99q0 61 40.5 97t108.5 36q72 0 114 -35t42 -98q0 -62 -41 -98.5t-109 -36.5zM707 1454q-120 0 -220 69t-100 156q0 44 32.5 75.5t82.5 31.5q47 0 106.5 -45.5t100.5 -114.5q36 68 95 114t107 46q50 0 82.5 -31.5t32.5 -75.5q0 -88 -100 -156.5
t-219 -68.5z" />
    <glyph glyph-name="uni1EB7" unicode="&#x1eb7;" horiz-adv-x="1175" 
d="M565 1167q-120 0 -219.5 69.5t-99.5 156.5q0 44 32 75t82 31q47 0 106.5 -45.5t100.5 -114.5q36 68 95.5 114t107.5 46q50 0 82.5 -31t32.5 -75q0 -88 -100.5 -157t-219.5 -69zM43 279q0 174 150.5 258.5t472.5 85.5h39q-6 66 -46.5 100.5t-111.5 34.5q-145 0 -205 -135
q-1 -3 -27.5 -3.5t-65 5.5t-76.5 20t-64.5 48t-26.5 83q0 124 121 192t366 68q272 0 398.5 -106t126.5 -326v-577q0 -15 -48 -30t-104 -15q-175 0 -221 163q-51 -78 -140.5 -121.5t-199.5 -43.5q-153 0 -245.5 83t-92.5 216zM416 313q0 -44 32.5 -69t86.5 -25
q77 0 124.5 48.5t47.5 125.5v35h-50q-121 -3 -181 -30.5t-60 -84.5zM569 -432q-72 0 -113.5 36t-41.5 99q0 61 40.5 97t108.5 36q72 0 114 -35t42 -98q0 -62 -41 -98.5t-109 -36.5z" />
    <glyph glyph-name="uni1EB8" unicode="&#x1eb8;" horiz-adv-x="1261" 
d="M94 225v873q0 110 54 168.5t155 58.5h705q96 0 143 -45t47 -127v-10q0 -172 -190 -172h-504v-133h336q190 0 190 -158v-6q0 -168 -190 -168h-336v-154h514q188 0 188 -162v-10q0 -87 -46.5 -133.5t-141.5 -46.5h-715q-102 0 -155.5 56.5t-53.5 168.5zM653 -436
q-72 0 -113.5 36t-41.5 99q0 61 40.5 97t108.5 36q72 0 114 -35t42 -98q0 -62 -41 -98.5t-109 -36.5z" />
    <glyph glyph-name="uni1EB9" unicode="&#x1eb9;" horiz-adv-x="1153" 
d="M45 496q0 234 153.5 387t387.5 153q232 0 380 -142.5t148 -363.5v-24q-3 -103 -80 -103h-641q18 -78 79.5 -118.5t156.5 -40.5q87 0 150 36t95 93q0 2 18.5 -0.5t45.5 -12.5t53.5 -27t45 -49.5t18.5 -74.5q0 -105 -118 -171.5t-327 -66.5q-260 0 -412.5 140.5
t-152.5 384.5zM387 606h373q-2 79 -49.5 126.5t-128.5 47.5q-76 0 -131 -49.5t-64 -124.5zM582 -434q-72 0 -114 36t-42 99q0 61 40.5 97t108.5 36q72 0 114 -35t42 -98t-40.5 -99t-108.5 -36z" />
    <glyph glyph-name="uni1EBA" unicode="&#x1eba;" horiz-adv-x="1261" 
d="M553 1507q1 42 17.5 72t39.5 46t46 28t39 25.5t16 31.5q0 49 -68 49q-50 0 -69.5 -26t-26.5 -74q0 -1 -8 -1t-21 1t-28.5 3.5t-31 9t-28.5 16t-21 26t-8 37.5q0 73 64.5 124.5t181.5 51.5q120 0 189 -54.5t69 -146.5q0 -47 -20 -80t-48.5 -49.5t-56.5 -30t-48 -31
t-19 -42.5q0 -14 -5 -22.5t-18 -12t-23 -4t-32 -0.5q-40 0 -61 11t-21 42zM94 225v873q0 110 54 168.5t155 58.5h705q96 0 143 -45t47 -127v-10q0 -172 -190 -172h-504v-133h336q190 0 190 -158v-6q0 -168 -190 -168h-336v-154h514q188 0 188 -162v-10q0 -87 -46.5 -133.5
t-141.5 -46.5h-715q-102 0 -155.5 56.5t-53.5 168.5z" />
    <glyph glyph-name="uni1EBB" unicode="&#x1ebb;" horiz-adv-x="1153" 
d="M477 1221q1 42 17.5 72t39.5 45.5t46 27.5t39 25.5t16 31.5q0 50 -68 50q-50 0 -69 -26.5t-27 -74.5q0 -1 -8 -1t-21 1t-28.5 3.5t-30.5 9t-28 16t-21 26t-8 37.5q0 73 64.5 124.5t180.5 51.5q120 0 189 -54t69 -146q0 -47 -20 -80t-48.5 -50t-56.5 -30.5t-48 -31
t-19 -42.5q0 -14 -5 -22.5t-18 -12t-23 -4t-32 -0.5q-40 0 -61 11.5t-21 42.5zM45 496q0 234 153.5 387t387.5 153q232 0 380 -142.5t148 -363.5v-24q-3 -103 -80 -103h-641q18 -78 79.5 -118.5t156.5 -40.5q87 0 150 36t95 93q0 2 18.5 -0.5t45.5 -12.5t53.5 -27t45 -49.5
t18.5 -74.5q0 -105 -118 -171.5t-327 -66.5q-260 0 -412.5 140.5t-152.5 384.5zM387 606h373q-2 79 -49.5 126.5t-128.5 47.5q-76 0 -131 -49.5t-64 -124.5z" />
    <glyph glyph-name="uni1EBC" unicode="&#x1ebc;" horiz-adv-x="1261" 
d="M473 1462q-40 0 -66 32.5t-26 78.5q0 86 45.5 139t108.5 53q106 0 196 -106q14 46 39 74t57 28q41 0 67 -31.5t26 -76.5q0 -87 -45.5 -140t-108.5 -53q-108 0 -199 107q-13 -47 -37.5 -76t-56.5 -29zM94 225v873q0 110 54 168.5t155 58.5h705q96 0 143 -45t47 -127v-10
q0 -172 -190 -172h-504v-133h336q190 0 190 -158v-6q0 -168 -190 -168h-336v-154h514q188 0 188 -162v-10q0 -87 -46.5 -133.5t-141.5 -46.5h-715q-102 0 -155.5 56.5t-53.5 168.5z" />
    <glyph glyph-name="uni1EBD" unicode="&#x1ebd;" horiz-adv-x="1153" 
d="M401 1169q-40 0 -66 32.5t-26 78.5q0 86 45.5 139.5t108.5 53.5q105 0 196 -107q14 45 39.5 73.5t57.5 28.5q40 0 66 -31.5t26 -76.5q0 -87 -45.5 -140t-108.5 -53q-107 0 -198 107q-13 -47 -38 -76t-57 -29zM45 496q0 234 153.5 387t387.5 153q232 0 380 -142.5
t148 -363.5v-24q-3 -103 -80 -103h-641q18 -78 79.5 -118.5t156.5 -40.5q87 0 150 36t95 93q0 2 18.5 -0.5t45.5 -12.5t53.5 -27t45 -49.5t18.5 -74.5q0 -105 -118 -171.5t-327 -66.5q-260 0 -412.5 140.5t-152.5 384.5zM387 606h373q-2 79 -49.5 126.5t-128.5 47.5
q-76 0 -131 -49.5t-64 -124.5z" />
    <glyph glyph-name="uni1EBE" unicode="&#x1ebe;" horiz-adv-x="1261" 
d="M940 1761q-14 28 48 131.5t142 149.5q47 29 93 29q62 0 105.5 -37t43.5 -92q0 -47 -27 -91.5t-73 -70.5q-69 -38 -147.5 -47.5t-127 1.5t-57.5 27zM471 1434q-49 0 -77.5 28t-28.5 72q0 83 96 164t190 106q95 -25 191 -106t96 -164q0 -44 -29 -72t-78 -28
q-52 0 -100 42.5t-80 116.5q-34 -75 -81 -117t-99 -42zM94 225v873q0 110 54 168.5t155 58.5h705q96 0 143 -45t47 -127v-10q0 -172 -190 -172h-504v-133h336q190 0 190 -158v-6q0 -168 -190 -168h-336v-154h514q188 0 188 -162v-10q0 -87 -46.5 -133.5t-141.5 -46.5h-715
q-102 0 -155.5 56.5t-53.5 168.5z" />
    <glyph glyph-name="uni1EBF" unicode="&#x1ebf;" horiz-adv-x="1153" 
d="M868 1475q-14 28 48.5 131t142.5 149q47 29 92 29q62 0 105.5 -37t43.5 -92q0 -47 -27 -91.5t-73 -70.5q-69 -38 -147.5 -47.5t-127 2t-57.5 27.5zM399 1147q-49 0 -77.5 28t-28.5 72q0 83 96.5 164.5t190.5 106.5q58 -15 122.5 -55t114 -99.5t49.5 -116.5
q0 -44 -28.5 -72t-77.5 -28q-52 0 -99.5 43t-80.5 117q-34 -75 -81.5 -117.5t-99.5 -42.5zM45 496q0 234 153.5 387t387.5 153q232 0 380 -142.5t148 -363.5v-24q-3 -103 -80 -103h-641q18 -78 79.5 -118.5t156.5 -40.5q87 0 150 36t95 93q0 2 18.5 -0.5t45.5 -12.5
t53.5 -27t45 -49.5t18.5 -74.5q0 -105 -118 -171.5t-327 -66.5q-260 0 -412.5 140.5t-152.5 384.5zM387 606h373q-2 79 -49.5 126.5t-128.5 47.5q-76 0 -131 -49.5t-64 -124.5z" />
    <glyph glyph-name="uni1EC0" unicode="&#x1ec0;" horiz-adv-x="1261" 
d="M831 1812q-47 26 -74.5 71t-27.5 91q0 55 44 92t108 37q47 0 92 -28q80 -46 142 -149.5t48 -131.5q-7 -12 -39.5 -21t-77.5 -12.5t-104.5 9.5t-110.5 42zM471 1434q-49 0 -77.5 28t-28.5 72q0 83 96 164t190 106q95 -25 191 -106t96 -164q0 -44 -29 -72t-78 -28
q-52 0 -100 42.5t-80 116.5q-34 -75 -81 -117t-99 -42zM94 225v873q0 110 54 168.5t155 58.5h705q96 0 143 -45t47 -127v-10q0 -172 -190 -172h-504v-133h336q190 0 190 -158v-6q0 -168 -190 -168h-336v-154h514q188 0 188 -162v-10q0 -87 -46.5 -133.5t-141.5 -46.5h-715
q-102 0 -155.5 56.5t-53.5 168.5z" />
    <glyph glyph-name="uni1EC1" unicode="&#x1ec1;" horiz-adv-x="1153" 
d="M760 1526q-47 26 -75 71t-28 91q0 55 44 92t108 37q45 0 92 -29q80 -46 142.5 -149.5t48.5 -131.5q-10 -16 -59.5 -27t-127.5 -1.5t-145 47.5zM399 1147q-49 0 -77.5 28t-28.5 72q0 83 96.5 164.5t190.5 106.5q58 -15 122.5 -55t114 -99.5t49.5 -116.5q0 -44 -28.5 -72
t-77.5 -28q-52 0 -99.5 43t-80.5 117q-34 -75 -81.5 -117.5t-99.5 -42.5zM45 496q0 234 153.5 387t387.5 153q232 0 380 -142.5t148 -363.5v-24q-3 -103 -80 -103h-641q18 -78 79.5 -118.5t156.5 -40.5q87 0 150 36t95 93q0 2 18.5 -0.5t45.5 -12.5t53.5 -27t45 -49.5
t18.5 -74.5q0 -105 -118 -171.5t-327 -66.5q-260 0 -412.5 140.5t-152.5 384.5zM387 606h373q-2 79 -49.5 126.5t-128.5 47.5q-76 0 -131 -49.5t-64 -124.5z" />
    <glyph glyph-name="uni1EC2" unicode="&#x1ec2;" horiz-adv-x="1261" 
d="M864 1794q1 42 17.5 72t39.5 46t46 28t39 25.5t16 31.5q0 49 -68 49q-50 0 -69.5 -26t-26.5 -74q0 -1 -8 -1t-21 1t-28 3.5t-30.5 9t-28.5 16t-21 26t-8 37.5q0 73 64.5 124.5t180.5 51.5q120 0 189.5 -54.5t69.5 -146.5q0 -40 -14.5 -70t-36 -45.5t-46.5 -30t-46.5 -24
t-35.5 -26t-14 -37.5q0 -14 -5 -22.5t-18 -12t-23 -4t-32 -0.5q-40 0 -61 11t-21 42zM471 1434q-49 0 -77.5 28t-28.5 72q0 83 96 164t190 106q95 -25 191 -106t96 -164q0 -44 -29 -72t-78 -28q-52 0 -100 42.5t-80 116.5q-34 -75 -81 -117t-99 -42zM94 225v873
q0 110 54 168.5t155 58.5h705q96 0 143 -45t47 -127v-10q0 -172 -190 -172h-504v-133h336q190 0 190 -158v-6q0 -168 -190 -168h-336v-154h514q188 0 188 -162v-10q0 -87 -46.5 -133.5t-141.5 -46.5h-715q-102 0 -155.5 56.5t-53.5 168.5z" />
    <glyph glyph-name="uni1EC3" unicode="&#x1ec3;" horiz-adv-x="1153" 
d="M793 1507q1 42 17 72t39 46t46 28t39 25.5t16 31.5q0 49 -67 49q-50 0 -70 -26.5t-27 -73.5q0 -1 -8 -1t-21 1t-28 3.5t-30.5 9t-28.5 16t-21 26t-8 37.5q0 73 64.5 124.5t181.5 51.5q120 0 189 -54.5t69 -146.5q0 -40 -14.5 -70t-36 -45.5t-46.5 -30t-46.5 -24
t-35.5 -26t-14 -37.5q0 -14 -5 -22.5t-18 -12t-23 -4t-32 -0.5q-40 0 -60.5 11t-20.5 42zM399 1147q-49 0 -77.5 28t-28.5 72q0 83 96.5 164.5t190.5 106.5q58 -15 122.5 -55t114 -99.5t49.5 -116.5q0 -44 -28.5 -72t-77.5 -28q-52 0 -99.5 43t-80.5 117
q-34 -75 -81.5 -117.5t-99.5 -42.5zM45 496q0 234 153.5 387t387.5 153q232 0 380 -142.5t148 -363.5v-24q-3 -103 -80 -103h-641q18 -78 79.5 -118.5t156.5 -40.5q87 0 150 36t95 93q0 2 18.5 -0.5t45.5 -12.5t53.5 -27t45 -49.5t18.5 -74.5q0 -105 -118 -171.5t-327 -66.5
q-260 0 -412.5 140.5t-152.5 384.5zM387 606h373q-2 79 -49.5 126.5t-128.5 47.5q-76 0 -131 -49.5t-64 -124.5z" />
    <glyph glyph-name="uni1EC4" unicode="&#x1ec4;" horiz-adv-x="1261" 
d="M473 1847q-40 0 -66 32.5t-26 78.5q0 86 45.5 139t108.5 53q106 0 196 -106q14 46 39 74t57 28q41 0 67 -31.5t26 -76.5q0 -87 -45.5 -140t-108.5 -53q-108 0 -199 107q-13 -47 -37.5 -76t-56.5 -29zM471 1434q-49 0 -77.5 28t-28.5 72q0 83 96 164t190 106
q95 -25 191 -106t96 -164q0 -44 -29 -72t-78 -28q-52 0 -100 42.5t-80 116.5q-34 -75 -81 -117t-99 -42zM94 225v873q0 110 54 168.5t155 58.5h705q96 0 143 -45t47 -127v-10q0 -172 -190 -172h-504v-133h336q190 0 190 -158v-6q0 -168 -190 -168h-336v-154h514
q188 0 188 -162v-10q0 -87 -46.5 -133.5t-141.5 -46.5h-715q-102 0 -155.5 56.5t-53.5 168.5z" />
    <glyph glyph-name="uni1EC5" unicode="&#x1ec5;" horiz-adv-x="1153" 
d="M401 1561q-40 0 -66 32.5t-26 77.5q0 86 45.5 139.5t108.5 53.5q105 0 196 -107q14 46 39.5 74.5t57.5 28.5q40 0 66 -32t26 -77q0 -87 -45.5 -139.5t-108.5 -52.5q-108 0 -198 106q-13 -46 -37.5 -75t-57.5 -29zM399 1147q-49 0 -77.5 28t-28.5 72q0 83 96.5 164.5
t190.5 106.5q58 -15 122.5 -55t114 -99.5t49.5 -116.5q0 -44 -28.5 -72t-77.5 -28q-52 0 -99.5 43t-80.5 117q-34 -75 -81.5 -117.5t-99.5 -42.5zM45 496q0 234 153.5 387t387.5 153q232 0 380 -142.5t148 -363.5v-24q-3 -103 -80 -103h-641q18 -78 79.5 -118.5t156.5 -40.5
q87 0 150 36t95 93q0 2 18.5 -0.5t45.5 -12.5t53.5 -27t45 -49.5t18.5 -74.5q0 -105 -118 -171.5t-327 -66.5q-260 0 -412.5 140.5t-152.5 384.5zM387 606h373q-2 79 -49.5 126.5t-128.5 47.5q-76 0 -131 -49.5t-64 -124.5z" />
    <glyph glyph-name="uni1EC6" unicode="&#x1ec6;" horiz-adv-x="1261" 
d="M471 1434q-49 0 -77.5 28t-28.5 72q0 83 96 164t190 106q95 -25 191 -106t96 -164q0 -44 -29 -72t-78 -28q-52 0 -100 42.5t-80 116.5q-34 -75 -81 -117t-99 -42zM94 225v873q0 110 54 168.5t155 58.5h705q96 0 143 -45t47 -127v-10q0 -172 -190 -172h-504v-133h336
q190 0 190 -158v-6q0 -168 -190 -168h-336v-154h514q188 0 188 -162v-10q0 -87 -46.5 -133.5t-141.5 -46.5h-715q-102 0 -155.5 56.5t-53.5 168.5z" />
    <glyph glyph-name="uni1EC7" unicode="&#x1ec7;" horiz-adv-x="1153" 
d="M399 1147q-49 0 -77.5 28t-28.5 72q0 83 96.5 164.5t190.5 106.5q58 -15 122.5 -55t114 -99.5t49.5 -116.5q0 -44 -28.5 -72t-77.5 -28q-52 0 -99.5 43t-80.5 117q-34 -75 -81.5 -117.5t-99.5 -42.5zM45 496q0 234 153.5 387t387.5 153q232 0 380 -142.5t148 -363.5v-24
q-3 -103 -80 -103h-641q18 -78 79.5 -118.5t156.5 -40.5q87 0 150 36t95 93q0 2 18.5 -0.5t45.5 -12.5t53.5 -27t45 -49.5t18.5 -74.5q0 -105 -118 -171.5t-327 -66.5q-260 0 -412.5 140.5t-152.5 384.5zM387 606h373q-2 79 -49.5 126.5t-128.5 47.5q-76 0 -131 -49.5
t-64 -124.5zM582 -434q-72 0 -114 36t-42 99q0 61 40.5 97t108.5 36q72 0 114 -35t42 -98t-40.5 -99t-108.5 -36z" />
    <glyph glyph-name="uni1EC8" unicode="&#x1ec8;" horiz-adv-x="626" 
d="M227 1507q1 42 17.5 72t39.5 46t46 28t39 25.5t16 31.5q0 49 -68 49q-50 0 -69.5 -26t-26.5 -74q0 -1 -8 -1t-21 1t-28.5 3.5t-30.5 9t-28 16t-21 26t-8 37.5q0 73 64.5 124.5t181.5 51.5q120 0 189 -54.5t69 -146.5q0 -40 -14.5 -70t-36 -45.5t-46.5 -30t-46.5 -24
t-35.5 -26t-14 -37.5q0 -14 -5 -22.5t-18 -12t-23 -4t-32 -0.5q-40 0 -61 11t-21 42zM109 180v965q0 190 172 190h59q178 0 178 -190v-965q0 -190 -178 -190h-59q-172 0 -172 190z" />
    <glyph glyph-name="uni1EC9" unicode="&#x1ec9;" horiz-adv-x="585" 
d="M96 180v658q0 188 176 188h41q86 0 131 -42.5t45 -145.5v-658q0 -190 -172 -190h-41q-86 0 -133 43.5t-47 146.5zM203 1221q1 42 17 72t39 45.5t46 27.5t39 25.5t16 31.5q0 50 -67 50q-50 0 -69 -26.5t-27 -74.5q0 -1 -8 -1t-21 1t-28.5 3.5t-31 9t-28.5 16t-21 26
t-8 37.5q0 73 64.5 124.5t181.5 51.5q120 0 189 -54t69 -146q0 -40 -14.5 -70t-36 -46t-46.5 -30t-46.5 -24t-35.5 -26.5t-14 -37.5q0 -14 -5 -22.5t-17.5 -12t-22.5 -4t-32 -0.5q-40 0 -61 11.5t-21 42.5z" />
    <glyph glyph-name="uni1ECA" unicode="&#x1eca;" horiz-adv-x="626" 
d="M313 -436q-72 0 -113.5 36t-41.5 99q0 61 40.5 97t108.5 36q72 0 114 -35t42 -98q0 -62 -41 -98.5t-109 -36.5zM109 180v965q0 190 172 190h59q178 0 178 -190v-965q0 -190 -178 -190h-59q-172 0 -172 190z" />
    <glyph glyph-name="uni1ECB" unicode="&#x1ecb;" horiz-adv-x="585" 
d="M293 -436q-72 0 -114 36t-42 99q0 61 41 97t109 36q72 0 113.5 -35t41.5 -98t-40.5 -99t-108.5 -36zM297 1147q-85 0 -133.5 42t-48.5 116q0 72 48 113.5t128 41.5q85 0 133.5 -41t48.5 -114t-48 -115.5t-128 -42.5zM96 180v658q0 188 176 188h41q86 0 131 -42.5
t45 -145.5v-658q0 -190 -172 -190h-41q-86 0 -133 43.5t-47 146.5z" />
    <glyph glyph-name="uni1ECC" unicode="&#x1ecc;" horiz-adv-x="1501" 
d="M51 664q0 198 89.5 355.5t250 246t361.5 88.5t360.5 -88t248.5 -245.5t89 -356.5t-89 -357.5t-248.5 -247t-360.5 -88.5q-152 0 -282.5 51.5t-222.5 142.5t-144 220t-52 279zM457 664q0 -148 80.5 -237t214.5 -89q132 0 212 89t80 237q0 147 -80 237t-212 90
q-135 0 -215 -88.5t-80 -238.5zM754 -436q-72 0 -114 36t-42 99q0 61 41 97t109 36q72 0 113.5 -35t41.5 -98t-40.5 -99t-108.5 -36z" />
    <glyph glyph-name="uni1ECD" unicode="&#x1ecd;" horiz-adv-x="1200" 
d="M45 506q0 238 153.5 384t405.5 146q249 0 400 -146t151 -386q0 -241 -152.5 -387t-404.5 -146t-402.5 145.5t-150.5 389.5zM379 506q0 -103 61.5 -168.5t159.5 -65.5q95 0 158 66t63 166q0 103 -62 169t-159 66t-159 -66t-62 -167zM602 -434q-72 0 -114 36t-42 99
q0 61 41 97t109 36q72 0 114 -35t42 -98q0 -62 -41 -98.5t-109 -36.5z" />
    <glyph glyph-name="uni1ECE" unicode="&#x1ece;" horiz-adv-x="1501" 
d="M651 1507q1 42 17.5 72t39.5 46t46 28t39 25.5t16 31.5q0 49 -68 49q-50 0 -69.5 -26t-26.5 -74q0 -1 -8 -1t-21 1t-28.5 3.5t-30.5 9t-28 16t-21 26t-8 37.5q0 73 64.5 124.5t180.5 51.5q120 0 189.5 -54.5t69.5 -146.5q0 -40 -14.5 -70t-36 -45.5t-46.5 -30t-46.5 -24
t-35.5 -26t-14 -37.5q0 -14 -5 -22.5t-18 -12t-23 -4t-32 -0.5q-40 0 -61 11t-21 42zM51 664q0 198 89.5 355.5t250 246t361.5 88.5t360.5 -88t248.5 -245.5t89 -356.5t-89 -357.5t-248.5 -247t-360.5 -88.5q-152 0 -282.5 51.5t-222.5 142.5t-144 220t-52 279zM457 664
q0 -148 80.5 -237t214.5 -89q132 0 212 89t80 237q0 147 -80 237t-212 90q-135 0 -215 -88.5t-80 -238.5z" />
    <glyph glyph-name="uni1ECF" unicode="&#x1ecf;" horiz-adv-x="1200" 
d="M500 1221q1 42 17 72t39 45.5t46 27.5t39 25.5t16 31.5q0 50 -67 50q-50 0 -69 -26.5t-27 -74.5q0 -1 -8 -1t-21 1t-28.5 3.5t-31 9t-28.5 16t-21 26t-8 37.5q0 73 64.5 124.5t181.5 51.5q120 0 189 -54t69 -146q0 -40 -14.5 -70t-36 -46t-46.5 -30t-46.5 -24
t-35.5 -26.5t-14 -37.5q0 -14 -5 -22.5t-17.5 -12t-22.5 -4t-32 -0.5q-40 0 -61 11.5t-21 42.5zM45 506q0 238 153.5 384t405.5 146q249 0 400 -146t151 -386q0 -241 -152.5 -387t-404.5 -146t-402.5 145.5t-150.5 389.5zM379 506q0 -103 61.5 -168.5t159.5 -65.5
q95 0 158 66t63 166q0 103 -62 169t-159 66t-159 -66t-62 -167z" />
    <glyph glyph-name="uni1ED0" unicode="&#x1ed0;" horiz-adv-x="1501" 
d="M1038 1761q-14 28 48.5 131.5t142.5 149.5q47 29 92 29q62 0 105.5 -37t43.5 -92q0 -47 -27 -91.5t-73 -70.5q-69 -38 -147.5 -47.5t-127 1.5t-57.5 27zM569 1434q-49 0 -77.5 28t-28.5 72q0 83 96 164t191 106q94 -25 190 -106t96 -164q0 -44 -28.5 -72t-77.5 -28
q-52 0 -100 42.5t-80 116.5q-34 -74 -81.5 -116.5t-99.5 -42.5zM51 664q0 198 89.5 355.5t250 246t361.5 88.5t360.5 -88t248.5 -245.5t89 -356.5t-89 -357.5t-248.5 -247t-360.5 -88.5q-152 0 -282.5 51.5t-222.5 142.5t-144 220t-52 279zM457 664q0 -148 80.5 -237
t214.5 -89q132 0 212 89t80 237q0 147 -80 237t-212 90q-135 0 -215 -88.5t-80 -238.5z" />
    <glyph glyph-name="uni1ED1" unicode="&#x1ed1;" horiz-adv-x="1200" 
d="M889 1475q-14 28 48 131t142 149q47 29 92 29q62 0 106 -37t44 -92q0 -47 -27 -91.5t-73 -70.5q-69 -38 -147.5 -47.5t-127 2t-57.5 27.5zM420 1147q-49 0 -78 28t-29 72q0 83 96.5 164.5t190.5 106.5q94 -25 190.5 -106.5t96.5 -164.5q0 -44 -29 -72t-78 -28
q-52 0 -99.5 43t-80.5 117q-34 -75 -81 -117.5t-99 -42.5zM45 506q0 238 153.5 384t405.5 146q249 0 400 -146t151 -386q0 -241 -152.5 -387t-404.5 -146t-402.5 145.5t-150.5 389.5zM379 506q0 -103 61.5 -168.5t159.5 -65.5q95 0 158 66t63 166q0 103 -62 169t-159 66
t-159 -66t-62 -167z" />
    <glyph glyph-name="uni1ED2" unicode="&#x1ed2;" horiz-adv-x="1501" 
d="M930 1812q-47 26 -75 71t-28 91q0 55 44 92t108 37q47 0 92 -28q80 -46 142.5 -149.5t48.5 -131.5q-7 -12 -39.5 -21t-77.5 -12.5t-104.5 9.5t-110.5 42zM569 1434q-49 0 -77.5 28t-28.5 72q0 83 96 164t191 106q94 -25 190 -106t96 -164q0 -44 -28.5 -72t-77.5 -28
q-52 0 -100 42.5t-80 116.5q-34 -74 -81.5 -116.5t-99.5 -42.5zM51 664q0 198 89.5 355.5t250 246t361.5 88.5t360.5 -88t248.5 -245.5t89 -356.5t-89 -357.5t-248.5 -247t-360.5 -88.5q-152 0 -282.5 51.5t-222.5 142.5t-144 220t-52 279zM457 664q0 -148 80.5 -237
t214.5 -89q132 0 212 89t80 237q0 147 -80 237t-212 90q-135 0 -215 -88.5t-80 -238.5z" />
    <glyph glyph-name="uni1ED3" unicode="&#x1ed3;" horiz-adv-x="1200" 
d="M780 1526q-47 26 -74.5 71t-27.5 91q0 55 44 92t107 37q46 0 93 -29q80 -46 142 -149.5t48 -131.5q-10 -16 -59.5 -27t-127.5 -1.5t-145 47.5zM420 1147q-49 0 -78 28t-29 72q0 83 96.5 164.5t190.5 106.5q94 -25 190.5 -106.5t96.5 -164.5q0 -44 -29 -72t-78 -28
q-52 0 -99.5 43t-80.5 117q-34 -75 -81 -117.5t-99 -42.5zM45 506q0 238 153.5 384t405.5 146q249 0 400 -146t151 -386q0 -241 -152.5 -387t-404.5 -146t-402.5 145.5t-150.5 389.5zM379 506q0 -103 61.5 -168.5t159.5 -65.5q95 0 158 66t63 166q0 103 -62 169t-159 66
t-159 -66t-62 -167z" />
    <glyph glyph-name="uni1ED4" unicode="&#x1ed4;" horiz-adv-x="1501" 
d="M963 1794q1 42 17 72t39 46t46 28t39 25.5t16 31.5q0 49 -67 49q-50 0 -70 -26.5t-27 -73.5q0 -1 -8 -1t-21 1t-28 3.5t-30.5 9t-28.5 16t-21 26t-8 37.5q0 73 64.5 124.5t181.5 51.5q120 0 189 -54.5t69 -146.5q0 -40 -14.5 -70t-36 -45.5t-46.5 -30t-46.5 -24
t-35.5 -26t-14 -37.5q0 -14 -5 -22.5t-18 -12t-23 -4t-32 -0.5q-40 0 -60.5 11t-20.5 42zM569 1434q-49 0 -77.5 28t-28.5 72q0 83 96 164t191 106q94 -25 190 -106t96 -164q0 -44 -28.5 -72t-77.5 -28q-52 0 -100 42.5t-80 116.5q-34 -74 -81.5 -116.5t-99.5 -42.5zM51 664
q0 198 89.5 355.5t250 246t361.5 88.5t360.5 -88t248.5 -245.5t89 -356.5t-89 -357.5t-248.5 -247t-360.5 -88.5q-152 0 -282.5 51.5t-222.5 142.5t-144 220t-52 279zM457 664q0 -148 80.5 -237t214.5 -89q132 0 212 89t80 237q0 147 -80 237t-212 90q-135 0 -215 -88.5
t-80 -238.5z" />
    <glyph glyph-name="uni1ED5" unicode="&#x1ed5;" horiz-adv-x="1200" 
d="M813 1507q1 42 17.5 72t39.5 46t46 28t39 25.5t16 31.5q0 49 -68 49q-50 0 -69.5 -26t-26.5 -74q0 -1 -8 -1t-21 1t-28.5 3.5t-30.5 9t-28 16t-21 26t-8 37.5q0 73 64.5 124.5t180.5 51.5q120 0 189 -54.5t69 -146.5q0 -47 -20 -80t-48.5 -49.5t-56.5 -30t-48 -31
t-19 -42.5q0 -14 -5 -22.5t-18 -12t-23 -4t-32 -0.5q-40 0 -61 11t-21 42zM420 1147q-49 0 -78 28t-29 72q0 83 96.5 164.5t190.5 106.5q94 -25 190.5 -106.5t96.5 -164.5q0 -44 -29 -72t-78 -28q-52 0 -99.5 43t-80.5 117q-34 -75 -81 -117.5t-99 -42.5zM45 506
q0 238 153.5 384t405.5 146q249 0 400 -146t151 -386q0 -241 -152.5 -387t-404.5 -146t-402.5 145.5t-150.5 389.5zM379 506q0 -103 61.5 -168.5t159.5 -65.5q95 0 158 66t63 166q0 103 -62 169t-159 66t-159 -66t-62 -167z" />
    <glyph glyph-name="uni1ED6" unicode="&#x1ed6;" horiz-adv-x="1501" 
d="M571 1847q-40 0 -66 32.5t-26 78.5q0 86 45.5 139t108.5 53q106 0 196 -106q14 45 39.5 73.5t57.5 28.5q40 0 66 -31.5t26 -76.5q0 -87 -45.5 -140t-108.5 -53q-107 0 -198 107q-13 -47 -38 -76t-57 -29zM569 1434q-49 0 -77.5 28t-28.5 72q0 83 96 164t191 106
q94 -25 190 -106t96 -164q0 -44 -28.5 -72t-77.5 -28q-52 0 -100 42.5t-80 116.5q-34 -74 -81.5 -116.5t-99.5 -42.5zM51 664q0 198 89.5 355.5t250 246t361.5 88.5t360.5 -88t248.5 -245.5t89 -356.5t-89 -357.5t-248.5 -247t-360.5 -88.5q-152 0 -282.5 51.5t-222.5 142.5
t-144 220t-52 279zM457 664q0 -148 80.5 -237t214.5 -89q132 0 212 89t80 237q0 147 -80 237t-212 90q-135 0 -215 -88.5t-80 -238.5z" />
    <glyph glyph-name="uni1ED7" unicode="&#x1ed7;" horiz-adv-x="1200" 
d="M422 1561q-40 0 -66 32.5t-26 77.5q0 86 45 139.5t108 53.5q106 0 197 -107q14 46 39 74.5t57 28.5q40 0 66 -32t26 -77q0 -87 -45 -139.5t-108 -52.5q-109 0 -199 106q-13 -47 -37.5 -75.5t-56.5 -28.5zM420 1147q-49 0 -78 28t-29 72q0 83 96.5 164.5t190.5 106.5
q94 -25 190.5 -106.5t96.5 -164.5q0 -44 -29 -72t-78 -28q-52 0 -99.5 43t-80.5 117q-34 -75 -81 -117.5t-99 -42.5zM45 506q0 238 153.5 384t405.5 146q249 0 400 -146t151 -386q0 -241 -152.5 -387t-404.5 -146t-402.5 145.5t-150.5 389.5zM379 506q0 -103 61.5 -168.5
t159.5 -65.5q95 0 158 66t63 166q0 103 -62 169t-159 66t-159 -66t-62 -167z" />
    <glyph glyph-name="uni1ED8" unicode="&#x1ed8;" horiz-adv-x="1501" 
d="M569 1434q-49 0 -77.5 28t-28.5 72q0 83 96 164t191 106q94 -25 190 -106t96 -164q0 -44 -28.5 -72t-77.5 -28q-52 0 -100 42.5t-80 116.5q-34 -74 -81.5 -116.5t-99.5 -42.5zM51 664q0 198 89.5 355.5t250 246t361.5 88.5t360.5 -88t248.5 -245.5t89 -356.5t-89 -357.5
t-248.5 -247t-360.5 -88.5q-152 0 -282.5 51.5t-222.5 142.5t-144 220t-52 279zM457 664q0 -148 80.5 -237t214.5 -89q132 0 212 89t80 237q0 147 -80 237t-212 90q-135 0 -215 -88.5t-80 -238.5zM754 -434q-72 0 -114 36t-42 99q0 61 41 97t109 36q72 0 113.5 -35t41.5 -98
t-40.5 -99t-108.5 -36z" />
    <glyph glyph-name="uni1ED9" unicode="&#x1ed9;" horiz-adv-x="1200" 
d="M420 1147q-49 0 -78 28t-29 72q0 83 96.5 164.5t190.5 106.5q94 -25 190.5 -106.5t96.5 -164.5q0 -44 -29 -72t-78 -28q-52 0 -99.5 43t-80.5 117q-34 -75 -81 -117.5t-99 -42.5zM45 506q0 238 153.5 384t405.5 146q249 0 400 -146t151 -386q0 -241 -152.5 -387
t-404.5 -146t-402.5 145.5t-150.5 389.5zM379 506q0 -103 61.5 -168.5t159.5 -65.5q95 0 158 66t63 166q0 103 -62 169t-159 66t-159 -66t-62 -167zM602 -434q-72 0 -114 36t-42 99q0 61 41 97t109 36q72 0 114 -35t42 -98q0 -62 -41 -98.5t-109 -36.5z" />
    <glyph glyph-name="uni1EDA" unicode="&#x1eda;" horiz-adv-x="1501" 
d="M537 1487q-14 28 48 131t142 149q47 29 92 29q62 0 106 -37t44 -92q0 -47 -27.5 -91.5t-73.5 -70.5q-69 -38 -147 -47.5t-126.5 2t-57.5 27.5zM1395 1184q-37 -59 -88 -84q143 -182 143 -436q0 -199 -89 -357.5t-248.5 -247t-360.5 -88.5q-152 0 -282.5 51.5
t-222.5 142.5t-144 220t-52 279q0 198 89.5 355.5t250 246t361.5 88.5q260 0 446 -146q47 9 47 39q0 18 -4.5 68.5t-0.5 80.5t22 56q29 36 88 30t84 -40q27 -35 17 -105t-56 -153zM752 338q132 0 212 89t80 237q0 147 -80 237t-212 90q-135 0 -215 -88.5t-80 -238.5
q0 -148 80.5 -237t214.5 -89z" />
    <glyph glyph-name="uni1EDB" unicode="&#x1edb;" horiz-adv-x="1269" 
d="M385 1202q-14 28 48 131.5t142 149.5q45 28 93 28q62 0 105.5 -37t43.5 -92q0 -47 -27 -91t-73 -70q-69 -38 -147.5 -47.5t-127 1.5t-57.5 27zM1147 903q-31 -55 -84 -82q92 -134 92 -317q0 -241 -152.5 -387t-404.5 -146t-402.5 145.5t-150.5 389.5q0 238 153.5 384
t405.5 146q215 0 354 -106q15 3 27 13t12 24q0 18 -4.5 68.5t-0.5 80t22 55.5q29 36 88 30t84 -40q27 -35 17 -105t-56 -153zM600 272q95 0 158 66t63 166q0 103 -62 169t-159 66t-159 -66t-62 -167q0 -103 61.5 -168.5t159.5 -65.5z" />
    <glyph glyph-name="uni1EDC" unicode="&#x1edc;" horiz-adv-x="1501" 
d="M635 1505q-47 26 -75 71t-28 91q0 55 44 92t108 37q45 0 92 -29q80 -46 142.5 -149t48.5 -131q-7 -12 -39.5 -21t-77.5 -12.5t-104.5 9.5t-110.5 42zM1395 1184q-37 -59 -88 -84q143 -182 143 -436q0 -199 -89 -357.5t-248.5 -247t-360.5 -88.5q-152 0 -282.5 51.5
t-222.5 142.5t-144 220t-52 279q0 198 89.5 355.5t250 246t361.5 88.5q260 0 446 -146q47 9 47 39q0 18 -4.5 68.5t-0.5 80.5t22 56q29 36 88 30t84 -40q27 -35 17 -105t-56 -153zM752 338q132 0 212 89t80 237q0 147 -80 237t-212 90q-135 0 -215 -88.5t-80 -238.5
q0 -148 80.5 -237t214.5 -89z" />
    <glyph glyph-name="uni1EDD" unicode="&#x1edd;" horiz-adv-x="1269" 
d="M485 1219q-47 26 -74.5 70.5t-27.5 90.5q0 55 44 92t108 37q47 0 92 -28q80 -46 142 -149.5t48 -131.5q-10 -16 -59.5 -27t-127.5 -1.5t-145 47.5zM1147 903q-31 -55 -84 -82q92 -134 92 -317q0 -241 -152.5 -387t-404.5 -146t-402.5 145.5t-150.5 389.5q0 238 153.5 384
t405.5 146q215 0 354 -106q15 3 27 13t12 24q0 18 -4.5 68.5t-0.5 80t22 55.5q29 36 88 30t84 -40q27 -35 17 -105t-56 -153zM600 272q95 0 158 66t63 166q0 103 -62 169t-159 66t-159 -66t-62 -167q0 -103 61.5 -168.5t159.5 -65.5z" />
    </font>
</defs>
</svg>
