<svg xmlns="http://www.w3.org/2000/svg">
<defs>
<font id="SVN-Helvesbold" horiz-adv-x="1176" >
  <font-face 
    font-family="SVN-Helves"
    font-weight="700"
    font-stretch="normal"
    units-per-em="2048"
    panose-1="2 4 6 3 5 5 6 2 2 4"
    ascent="1638"
    descent="-410"
    x-height="1090"
    cap-height="1470"
    bbox="-819 -446 4553 2327"
    underline-thickness="109"
    underline-position="-359"
    unicode-range="U+0020-2122"
  />
<missing-glyph horiz-adv-x="4653" 
d="M788 1681v510h343v-61h-274v-157h236v-61h-236v-231h-69zM1253 1865q0 -72 30 -106.5t76 -34.5t77 34.5t31 106.5q0 69 -31 104.5t-77 35.5t-76 -35.5t-30 -104.5zM1189 1865q0 104 56 151q45 42 114 42q37 0 68.5 -13t54.5 -37t36 -59t13 -79q0 -52 -12.5 -89t-35.5 -61
t-54.5 -35t-69.5 -11q-78 0 -124 48.5t-46 142.5zM1608 1681v369h58v-53q41 61 115 61q56 0 85 -27t37 -63q2 -10 3.5 -24.5t1.5 -36.5v-226h-64v223q0 54 -19.5 77.5t-57.5 23.5q-20 0 -37.5 -6t-30 -20t-20 -37.5t-7.5 -58.5v-202h-64zM2149 1679q-14 -2 -25.5 -3.5
t-21.5 -1.5q-27 5 -44 8t-27 13t-13.5 31t-3.5 62v214h-45v48h45v90l64 38v-128h63v-48h-63v-217q0 -18 1.5 -28t5.5 -15t10.5 -6t16.5 -1h29zM2444 1851q4 -56 40 -86t106 -30q62 0 94.5 23t32.5 61q0 24 -12 41t-44 31q-10 4 -33 10t-57 14t-59 16t-39 16q-40 18 -57 45.5
t-17 65.5q0 29 12.5 54.5t36 45t56.5 30.5t75 11q45 0 80.5 -11.5t60.5 -31.5t39 -47.5t16 -60.5l-69 -3q-11 93 -124 93q-62 0 -88 -22.5t-26 -54.5q0 -27 18 -45q11 -11 35 -19t66 -18q82 -16 112 -32q46 -18 66.5 -50t20.5 -72q0 -34 -14 -61.5t-39 -47.5t-60 -31
t-78 -11q-100 0 -157.5 45t-57.5 130zM3022 1681l-193 510h74l130 -372q8 -22 14 -42l12 -40q6 22 14 42l16 40l140 372h69l-202 -510h-74zM3356 1681v510h72l257 -398v398h69v-510h-74l-255 396v-396h-69zM128 1098q0 -70 29 -104t71 -34t71.5 33t29.5 99q0 78 -30.5 113.5
t-72.5 35.5t-70 -34.5t-28 -108.5zM327 917v45q-37 -53 -104 -53q-35 0 -64 14t-50 39t-33 60t-12 78q0 42 10.5 77.5t30.5 61.5t48.5 40.5t64.5 14.5q34 0 59.5 -14.5t43.5 -38.5v186h64v-510h-58zM725 917v53q-23 -29 -52 -45t-65 -16q-56 0 -85 25.5t-37 65.5

<glyph glyph-name=".notdef" horiz-adv-x="4653" 
d="M788 1681v510h343v-61h-274v-157h236v-61h-236v-231h-69zM1253 1865q0 -72 30 -106.5t76 -34.5t77 34.5t31 106.5q0 69 -31 104.5t-77 35.5t-76 -35.5t-30 -104.5zM1189 1865q0 104 56 151q45 42 114 42q37 0 68.5 -13t54.5 -37t36 -59t13 -79q0 -52 -12.5 -89t-35.5 -61
t-54.5 -35t-69.5 -11q-78 0 -124 48.5t-46 142.5zM1608 1681v369h58v-53q41 61 115 61q56 0 85 -27t37 -63q2 -10 3.5 -24.5t1.5 -36.5v-226h-64v223q0 54 -19.5 77.5t-57.5 23.5q-20 0 -37.5 -6t-30 -20t-20 -37.5t-7.5 -58.5v-202h-64zM2149 1679q-14 -2 -25.5 -3.5
t-21.5 -1.5q-27 5 -44 8t-27 13t-13.5 31t-3.5 62v214h-45v48h45v90l64 38v-128h63v-48h-63v-217q0 -18 1.5 -28t5.5 -15t10.5 -6t16.5 -1h29zM2444 1851q4 -56 40 -86t106 -30q62 0 94.5 23t32.5 61q0 24 -12 41t-44 31q-10 4 -33 10t-57 14t-59 16t-39 16q-40 18 -57 45.5
t-17 65.5q0 29 12.5 54.5t36 45t56.5 30.5t75 11q45 0 80.5 -11.5t60.5 -31.5t39 -47.5t16 -60.5l-69 -3q-11 93 -124 93q-62 0 -88 -22.5t-26 -54.5q0 -27 18 -45q11 -11 35 -19t66 -18q82 -16 112 -32q46 -18 66.5 -50t20.5 -72q0 -34 -14 -61.5t-39 -47.5t-60 -31
t-78 -11q-100 0 -157.5 45t-57.5 130zM3022 1681l-193 510h74l130 -372q8 -22 14 -42l12 -40q6 22 14 42l16 40l140 372h69l-202 -510h-74zM3356 1681v510h72l257 -398v398h69v-510h-74l-255 396v-396h-69zM128 1098q0 -70 29 -104t71 -34t71.5 33t29.5 99q0 78 -30.5 113.5
t-72.5 35.5t-70 -34.5t-28 -108.5zM327 917v45q-37 -53 -104 -53q-35 0 -64 14t-50 39t-33 60t-12 78q0 42 10.5 77.5t30.5 61.5t48.5 40.5t64.5 14.5q34 0 59.5 -14.5t43.5 -38.5v186h64v-510h-58zM725 917v53q-23 -29 -52 -45t-65 -16q-56 0 -85 25.5t-37 65.5
q-2 8 -2.5 21.5t-0.5 33.5v231h64v-207q0 -24 0.5 -40t2.5 -26q5 -24 23 -37.5t48 -13.5q46 0 72 28.5t26 96.5v199h64v-369h-58zM669 1360h-48l-79 99h82zM878 917v369h59v-53q40 61 114 61q56 0 85 -27t37 -63q2 -10 3.5 -24.5t1.5 -36.5v-226h-63v223q0 54 -19.5 77.5
t-57.5 23.5q-20 0 -37.5 -6t-30.5 -20t-20.5 -37.5t-7.5 -58.5v-202h-64zM1311 1106q0 -72 28 -104t70 -32t71.5 32t29.5 104q0 66 -29.5 100.5t-71.5 34.5t-70 -34.5t-28 -100.5zM1324 883q2 -16 6.5 -27.5t14.5 -17.5q20 -16 61 -16q42 0 65 15.5t31 45.5q5 22 5 79
q-22 -22 -46.5 -33.5t-54.5 -11.5q-39 0 -68.5 14.5t-49.5 40t-30.5 59t-10.5 72.5q0 40 11 74.5t31 60.5t49.5 41t67.5 15q62 0 107 -53v45h58v-318q1 -63 -9 -100t-31 -57.5t-52.5 -28.5t-74.5 -13q-64 0 -104.5 29t-38.5 93zM1921 1103q0 -69 16 -95q28 -48 80 -48
q21 0 39.5 8.5t32.5 26t22.5 43.5t8.5 62q0 72 -29 108t-69 36q-42 0 -71.5 -35.5t-29.5 -105.5zM1924 917h-61v510h63v-183q18 26 43.5 38t57.5 12q34 0 62.5 -14t49.5 -39t33 -59.5t12 -75.5q0 -48 -13 -85t-34.5 -61.5t-50.5 -37.5t-61 -13q-34 0 -58.5 13.5t-42.5 39.5
v-45zM2500 1103q-18 -8 -44 -13.5t-60 -10.5q-27 -5 -44 -10t-27 -12.5t-13.5 -17t-3.5 -23.5q0 -26 18.5 -42.5t56.5 -16.5q34 0 63 14.5t43 44.5q8 21 8 63zM2502 962q-34 -29 -65.5 -41t-69.5 -12q-62 0 -93.5 29t-31.5 75q0 44 26 69t62 37q10 2 24 4t31 4q76 12 112 24
q2 6 2.5 10t0.5 6q0 37 -19 53q-26 21 -72 21t-66.5 -15.5t-28.5 -53.5l-64 8q12 56 50.5 85t114.5 29q37 0 62 -6.5t41 -17.5t24.5 -26t12.5 -32q2 -10 4 -24t2 -34v-85q0 -43 0.5 -68.5t2 -41t5 -24.5t10.5 -18h-64q-6 11 -8.5 21t-4.5 24zM2407 1406q21 0 24 2
q17 4 21 13q0 10 -11 14q-16 8 -48 8q-6 0 -13.5 -0.5t-17.5 -2.5l-3 35q6 2 18 2h30q22 -2 39.5 -6t31.5 -10q27 -11 32 -37q0 -36 -64 -40v-18h-39v40zM2656 917v369h58v-53q41 61 115 61q56 0 85 -27t37 -63q2 -10 3.5 -24.5t1.5 -36.5v-226h-64v223q0 54 -19.5 77.5
t-57.5 23.5q-20 0 -37.5 -6t-30 -20t-20 -37.5t-7.5 -58.5v-202h-64zM3089 1106q0 -72 28 -104t70 -32t71 32t29 104q0 66 -29 100.5t-71 34.5t-70 -34.5t-28 -100.5zM3102 883q3 -34 21 -45q19 -16 61 -16t65 15.5t31 45.5q2 10 3.5 30t1.5 49q-22 -22 -46.5 -33.5
t-54.5 -11.5q-39 0 -68.5 14.5t-49.5 40t-30.5 59t-10.5 72.5q0 40 10.5 74.5t31 60.5t50 41t67.5 15q62 0 106 -53v45h59v-318q1 -63 -9.5 -100t-31.5 -57.5t-52.5 -28.5t-74.5 -13q-64 0 -104.5 29t-38.5 93zM3640 917v369h59v-53q18 26 45.5 43.5t65.5 17.5
q42 0 67.5 -17t36.5 -47q43 64 116 64q114 0 114 -125v-252h-63v231q0 51 -15.5 72t-51.5 21q-38 0 -64 -26.5t-26 -84.5v-213h-63v239q0 42 -15 63.5t-49 21.5q-44 0 -68.5 -30.5t-24.5 -102.5v-191h-64zM4473 1103q-17 -8 -43 -13.5t-60 -10.5q-27 -5 -44 -10t-27 -12.5
t-13.5 -17t-3.5 -23.5q0 -26 18.5 -42.5t56.5 -16.5q34 0 63 14.5t43 44.5q8 21 8 63zM4476 962q-34 -29 -65.5 -41t-69.5 -12q-62 0 -93.5 29t-31.5 75q0 44 26 69t62 37q10 2 23.5 4t31.5 4q76 12 112 24q2 6 2 10v6q0 38 -18 53q-26 21 -72 21t-66.5 -15.5t-28.5 -53.5
l-64 8q12 56 50.5 85t114.5 29q37 0 62 -6.5t41 -17.5t24.5 -26t12.5 -32q2 -10 3.5 -24t1.5 -34v-85q0 -43 0.5 -68.5t2 -41t5.5 -24.5t11 -18h-64q-6 11 -8.5 21t-4.5 24zM4288 1350q-2 32 17.5 53t51.5 21q10 0 25 -5.5t33 -15.5q21 -8 32 -8q10 0 17 7.5t9 21.5h46
q-4 -74 -69 -74q-11 0 -26 4t-33 12q-12 6 -20 9.5t-14 3.5q-29 0 -24 -29h-45zM1364 535h69v-294q0 -54 -10 -95.5t-33.5 -70t-61.5 -43t-94 -14.5q-55 0 -93 12.5t-61.5 39.5t-34 69t-10.5 102v294h69v-291q0 -47 6.5 -78t21.5 -50t39 -26.5t58 -7.5q36 0 61.5 7.5
t42 25.5t24 49.5t7.5 79.5v291zM1539 26v369h58v-53q20 29 48.5 45t66.5 16q55 0 84.5 -27.5t37.5 -63.5q2 -10 3.5 -24t1.5 -37v-225h-64v223q0 54 -19.5 77.5t-57.5 23.5q-20 0 -37.5 -6t-30 -20.5t-20 -38t-7.5 -57.5v-202h-64zM1934 26v369h64v-369h-64zM1934 464v71h64
v-71h-64zM2396 153q-10 -64 -53 -99.5t-101 -35.5q-78 0 -122.5 49t-44.5 139q0 94 44.5 145.5t120.5 51.5q62 0 98 -30.5t50 -86.5l-64 -8q-10 34 -31 54t-51 20q-48 0 -75.5 -34.5t-27.5 -108.5t27 -107.5t74 -33.5q77 0 92 93zM2489 209q0 -72 30 -106.5t76 -34.5
t77.5 34.5t31.5 106.5q0 70 -31.5 105.5t-77.5 35.5t-76 -35.5t-30 -105.5zM2425 209q0 103 56 151q47 43 114 43q37 0 68.5 -13t54.5 -37.5t36 -59.5t13 -79q0 -52 -12.5 -89t-35.5 -61t-54.5 -35t-69.5 -11q-78 0 -124 48.5t-46 142.5zM2884 206q0 -69 29.5 -103.5
t71.5 -34.5t71.5 33.5t29.5 99.5q0 78 -31 113.5t-73 35.5q-41 0 -69.5 -35t-28.5 -109zM3083 26v45q-37 -53 -103 -53q-35 0 -64 14t-50 39t-33 60t-12 78q0 42 10.5 77.5t30.5 61.5t48 40.5t64 14.5q35 0 60.5 -15t43.5 -38v185h64v-509h-59zM3497 244q-2 23 -9 41t-17 30
q-34 37 -80 37t-76.5 -30t-32.5 -78h215zM3558 137q-16 -58 -58 -88.5t-106 -30.5q-82 0 -130 49t-48 139q0 94 47 145.5t125 51.5q39 0 71 -13.5t54.5 -39t35 -61t12.5 -80.5q0 -2 -0.5 -6t-2.5 -10h-278q2 -62 34 -93.5t80 -31.5q38 0 62 17.5t38 59.5z" />
    <glyph glyph-name=".null" horiz-adv-x="0" 
 />
    <glyph glyph-name="nonmarkingreturn" horiz-adv-x="571" 
 />
    <glyph glyph-name="space" unicode=" " horiz-adv-x="602" 
 />
    <glyph glyph-name="exclam" unicode="!" horiz-adv-x="717" 
d="M492 291v-291h-299v291h299zM500 1098l-82 -688h-152l-82 688v372h316v-372z" />
    <glyph glyph-name="quotedbl" unicode="&#x22;" horiz-adv-x="1016" 
d="M569 918v552h201v-552h-201zM201 918v552h200v-552h-200z" />
    <glyph glyph-name="numbersign" unicode="#" 
d="M1044 594l-24 -184h-201l-57 -410h-193l58 410h-197l-57 -410h-193l58 410h-201l24 184h201l33 246h-197l25 184h196l58 406h192l-57 -406h201l57 406h193l-58 -406h197l-25 -184h-196l-37 -246h200zM688 840h-201l-32 -246h196z" />
    <glyph glyph-name="dollar" unicode="$" 
d="M1049 1028h-263q0 127 -53 174q-39 35 -115 35v-381q140 -45 221 -85t119 -79q56 -51 85.5 -122.5t29.5 -163.5q0 -168 -100 -291q-125 -152 -355 -152v-201h-94v201q-248 21 -355.5 133.5t-107.5 345.5h271q10 -123 41 -172q41 -65 151 -86v430q-198 54 -291 121
q-139 105 -139 293q0 182 105 297q116 129 325 129v135h94v-135q177 -18 271 -82q160 -106 160 -344zM524 885v352q-84 0 -128 -49t-44 -111q0 -90 56 -139q43 -39 116 -53zM618 578v-394q68 0 115 39q66 53 66 162q0 80 -60 133q-47 41 -121 60z" />
    <glyph glyph-name="percent" unicode="%" horiz-adv-x="1892" 
d="M1020 348q0 156 108.5 264.5t264.5 108.5q151 0 261.5 -108.5t110.5 -264.5q0 -151 -110.5 -262t-261.5 -111q-154 0 -263.5 107.5t-109.5 265.5zM1229 348q0 -67 48 -113.5t116 -46.5q65 0 112 45.5t47 114.5q0 66 -47 115t-112 49q-68 0 -116 -48t-48 -116zM57 1081
q0 156 108.5 264.5t264.5 108.5q154 0 263.5 -109.5t109.5 -263.5q0 -153 -109.5 -262.5t-263.5 -109.5t-263.5 107.5t-109.5 264.5zM270 1081q0 -65 47.5 -112t112.5 -47q68 0 116 46t48 113q0 68 -48 116t-116 48q-65 0 -112.5 -47t-47.5 -117zM1389 1454l-816 -1495h-151
l815 1495h152z" />
    <glyph glyph-name="ampersand" unicode="&#x26;" horiz-adv-x="1544" 
d="M795 1135q0 59 -34 88.5t-89 29.5q-49 0 -84 -30.5t-35 -87.5q0 -66 106 -185q66 41 97 80q39 49 39 105zM1171 324l267 -324h-348l-99 127q-78 -78 -160 -117q-108 -51 -262 -51q-202 0 -330 124t-128 298q0 123 49 209q65 115 233 217l33 20q-55 64 -90 131
q-45 91 -45 177q0 149 109.5 242t283.5 93q137 0 240 -79q120 -95 120 -261q0 -133 -98 -237q-59 -64 -147 -111l209 -258q28 45 48.5 104.5t28.5 137.5h254q-14 -150 -52 -245t-116 -197zM844 307l-271 336q-102 -72 -133 -111q-43 -53 -43 -135q0 -63 43 -116
q62 -76 174 -76q66 0 131 33q50 24 99 69z" />
    <glyph glyph-name="quotesingle" unicode="'" horiz-adv-x="508" 
d="M143 918v552h201v-552h-201z" />
    <glyph glyph-name="parenleft" unicode="(" horiz-adv-x="717" 
d="M643 -426h-209q-164 219 -250 422q-110 262 -110 541q0 276 106 536q86 207 254 430h209q-131 -225 -194 -424q-80 -254 -80 -542q0 -291 82 -545q59 -187 192 -418z" />
    <glyph glyph-name="parenright" unicode=")" horiz-adv-x="717" 
d="M41 1503h209q164 -219 250 -422q110 -262 110 -536q0 -281 -106 -541q-84 -207 -254 -430h-209q133 225 195 424q79 254 79 547q0 289 -82 540q-61 187 -192 418z" />
    <glyph glyph-name="asterisk" unicode="*" horiz-adv-x="831" 
d="M692 1298l49 -151l-213 -66l140 -196l-127 -90l-140 184l-143 -184l-127 90l139 196l-213 66l45 151l209 -69v241h176v-241z" />
    <glyph glyph-name="plus" unicode="+" horiz-adv-x="1245" 
d="M483 635v401h230v-401h401v-229h-401v-406h-230v406h-401v229h401z" />
    <glyph glyph-name="comma" unicode="," horiz-adv-x="602" 
d="M438 299v-258q0 -178 -86 -272q-71 -78 -217 -113l-4 106q82 31 115 64q57 59 57 174h-172v299h307z" />
    <glyph glyph-name="hyphen" unicode="-" horiz-adv-x="717" 
d="M627 709v-267h-570v267h570z" />
    <glyph glyph-name="period" unicode="." horiz-adv-x="602" 
d="M438 299v-299h-307v299h307z" />
    <glyph glyph-name="slash" unicode="/" horiz-adv-x="602" 
d="M639 1511l-467 -1552h-242l467 1552h242z" />
    <glyph glyph-name="zero" unicode="0" 
d="M66 709q0 385 122.5 565t380.5 180t381 -180t123 -565q0 -381 -123 -565.5t-381 -184.5q-503 0 -503 750zM360 709q0 -285 44.5 -400.5t164.5 -115.5q121 0 165 113.5t44 402.5q0 288 -44 402t-165 114q-120 0 -164.5 -114t-44.5 -402z" />
    <glyph glyph-name="one" unicode="1" 
d="M143 1004v200h41q187 0 281 84q76 68 76 166h233v-1454h-287v1004h-344z" />
    <glyph glyph-name="two" unicode="2" 
d="M348 942h-278q0 238 116 369q127 143 359 143q217 0 358 -122t141 -337q0 -168 -96 -293q-65 -86 -207 -178q-90 -63 -178 -125q-119 -88 -145 -145h631v-254h-996q0 160 51 266q76 156 289 312q178 131 230 176q135 118 135 254q0 79 -47 137q-56 67 -154 67
q-133 0 -180 -94q-29 -57 -29 -176z" />
    <glyph glyph-name="three" unicode="3" 
d="M438 639v205h45q101 0 152 26q90 48 90 170q0 64 -31 111q-47 74 -149 74q-127 0 -172 -99q-25 -53 -25 -139h-266q0 213 117 336q125 131 362 131q178 0 299 -86q152 -108 152 -319q0 -101 -56 -179q-47 -65 -116 -96q106 -45 161.5 -132t55.5 -212q0 -207 -138.5 -339
t-357.5 -132q-180 0 -301 72q-203 121 -203 415h279q0 -94 33 -155q53 -98 180 -98q92 0 152.5 60t60.5 177q0 133 -113 180q-67 29 -211 29z" />
    <glyph glyph-name="four" unicode="4" 
d="M266 545h365l4 626zM1077 545v-221h-159v-324h-287v324h-574v245l533 885h328v-909h159z" />
    <glyph glyph-name="five" unicode="5" 
d="M410 1188l-54 -316q60 41 97 56q67 26 165 26q168 0 291 -108q148 -131 148 -363q0 -196 -103 -336q-139 -188 -426 -188q-188 0 -319 104q-152 121 -152 326h287q10 -92 59.5 -144t141.5 -52q102 0 159.5 75.5t57.5 194.5q0 108 -49 180q-58 82 -164 82
q-68 0 -116 -26.5t-77 -80.5l-254 13l99 799h798v-242h-589z" />
    <glyph glyph-name="six" unicode="6" 
d="M1036 1085h-282q-6 64 -48 102t-120 38q-129 0 -191 -129q-51 -107 -51 -273l4 -4q39 51 90 80q76 43 185 43q211 0 333 -143q109 -127 109 -307q0 -238 -131 -385.5t-344 -147.5q-297 0 -426 231q-98 179 -98 502q0 195 26 320q41 194 150 305q135 137 364 137
q68 0 142 -18q106 -27 153 -76q62 -60 90.5 -113t44.5 -162zM778 467q0 127 -69 192q-58 54 -140 54q-88 0 -147 -58q-70 -67 -70 -192q0 -119 61.5 -194.5t164.5 -75.5q86 0 139 63q61 74 61 211z" />
    <glyph glyph-name="seven" unicode="7" 
d="M1081 1430v-222q-123 -133 -198 -239q-142 -197 -224 -410q-106 -274 -106 -559h-295q0 264 107 535q81 206 221 407q88 127 188 234h-721l4 254h1024z" />
    <glyph glyph-name="eight" unicode="8" 
d="M573 864q80 0 128.5 50.5t48.5 129.5q0 82 -47.5 131.5t-120.5 49.5q-95 0 -146 -49.5t-51 -131.5q0 -71 50 -125.5t138 -54.5zM1073 434q0 -174 -106 -305q-140 -170 -398 -170q-256 0 -391 147q-112 123 -112 300q0 104 26 172q51 131 195 196q-88 45 -132 112.5
t-44 170.5q0 184 128 290.5t326 106.5q215 0 342 -113q117 -104 117 -264q0 -100 -40 -175t-128 -120q111 -55 160 -129q57 -84 57 -219zM778 422q0 92 -45 151q-55 74 -168 74q-86 0 -141 -51q-64 -59 -64 -174q0 -105 58.5 -167t154.5 -62q103 0 158 75q47 64 47 154z" />
    <glyph glyph-name="nine" unicode="9" 
d="M348 975q0 -152 66 -215q53 -51 151 -51q84 0 142 55q67 65 67 186q0 271 -217 271q-78 0 -131 -43q-78 -64 -78 -203zM90 336h287q12 -76 54 -109.5t114 -33.5q102 0 164 86q73 104 73 319l-4 4q-45 -67 -125 -98q-63 -25 -149 -25q-203 0 -323 131t-120 324
q0 256 142 393q131 127 354 127q326 0 444 -295q68 -166 68 -450q0 -392 -166 -586q-139 -164 -362 -164q-185 0 -308.5 103.5t-142.5 273.5z" />
    <glyph glyph-name="colon" unicode=":" horiz-adv-x="717" 
d="M496 299v-299h-308v299h308zM496 1049v-299h-308v299h308z" />
    <glyph glyph-name="semicolon" unicode=";" horiz-adv-x="717" 
d="M496 299v-258q0 -178 -86 -272q-72 -78 -217 -113l-5 106q82 31 115 64q57 59 57 174h-172v299h308zM496 1049v-299h-308v299h308z" />
    <glyph glyph-name="less" unicode="&#x3c;" horiz-adv-x="1245" 
d="M1118 205v-221l-1040 442v184l1040 443v-222l-741 -311z" />
    <glyph glyph-name="equal" unicode="=" horiz-adv-x="1245" 
d="M1114 860v-229h-1032v229h1032zM1114 410v-230h-1032v230h1032z" />
    <glyph glyph-name="greater" unicode="&#x3e;" horiz-adv-x="1245" 
d="M78 205l745 315l-745 311v222l1040 -443v-184l-1040 -442v221z" />
    <glyph glyph-name="question" unicode="?" horiz-adv-x="1315" 
d="M766 426h-270q0 160 32 231q41 88 177 183q65 45 95.5 93t30.5 111q0 109 -65 162q-53 43 -131 43q-123 0 -180 -82q-41 -59 -41 -155l-291 -4q0 247 162 376q133 107 329 107q244 0 390 -123q135 -115 135 -315q0 -119 -64 -209q-55 -78 -182 -168q-72 -53 -96 -94
q-31 -54 -31 -156zM786 287v-287h-299v287h299z" />
    <glyph glyph-name="at" unicode="@" horiz-adv-x="2077" 
d="M1192 770q0 78 -45 127t-119 49q-102 0 -172 -87t-70 -191q0 -80 44 -130.5t116 -50.5q107 0 176.5 87.5t69.5 195.5zM1253 1012l25 106h180l-119 -520l-16 -90q0 -41 33 -41q88 0 160.5 101.5t72.5 258.5q0 244 -157.5 382.5t-403.5 138.5q-260 0 -421 -175.5
t-161 -439.5q0 -272 171 -439t440 -167q125 0 236.5 44t193.5 120h184q-106 -156 -270 -244t-357 -88q-335 0 -568.5 223.5t-233.5 554.5q0 326 232.5 550t557.5 224q291 0 500 -172q221 -182 221 -462q0 -289 -207 -461q-160 -133 -313 -133q-51 0 -85 26.5t-34 79.5l-4 4
q-41 -47 -98.5 -78.5t-114.5 -31.5q-135 0 -233.5 105.5t-98.5 250.5q0 199 121 346q129 158 318 158q81 0 142.5 -31t106.5 -100z" />
    <glyph glyph-name="A" unicode="A" horiz-adv-x="1454" 
d="M430 303l-102 -303h-324l524 1470h357l516 -1470h-332l-94 303h-545zM512 557h377l-184 582z" />
    <glyph glyph-name="B" unicode="B" horiz-adv-x="1544" 
d="M156 0v1470h716q242 0 361 -131q90 -100 90 -245q0 -138 -66 -217q-38 -48 -114 -82q127 -50 182 -150q47 -84 47 -207q0 -90 -32.5 -166.5t-94.5 -136.5q-76 -72 -151 -98q-107 -37 -316 -37h-622zM451 647v-393h376q117 0 177.5 52t60.5 165q0 88 -63.5 132t-157.5 44
h-393zM451 1217v-320h360q98 0 154 37q63 43 63 127q0 86 -56.5 121t-168.5 35h-352z" />
    <glyph glyph-name="C" unicode="C" horiz-adv-x="1544" 
d="M1401 991h-307q-31 107 -76 158q-84 96 -248 96q-143 0 -238 -100q-126 -133 -126 -416q0 -215 83 -348q97 -152 281 -152q127 0 212 71t112 204h307q-49 -250 -203 -391q-168 -154 -436 -154q-301 0 -481 197q-191 206 -191 577q0 373 197 582q184 196 479 196
q303 0 483 -178q152 -151 152 -342z" />
    <glyph glyph-name="D" unicode="D" horiz-adv-x="1544" 
d="M156 0v1470h651q332 0 485 -245q113 -181 113 -455q0 -297 -123 -502q-162 -268 -487 -268h-639zM459 1217v-963h299q174 0 260 156q72 129 72 340q0 284 -119 395q-78 72 -217 72h-295z" />
    <glyph glyph-name="E" unicode="E" horiz-adv-x="1430" 
d="M1237 1470v-258h-778v-311h717v-258h-717v-381h815v-262h-1118v1470h1081z" />
    <glyph glyph-name="F" unicode="F" horiz-adv-x="1315" 
d="M463 618v-618h-307v1470h1048v-258h-741v-331h647v-263h-647z" />
    <glyph glyph-name="G" unicode="G" horiz-adv-x="1659" 
d="M848 545v250h614v-795h-205l-32 184q-90 -102 -156 -145q-125 -80 -303 -80q-283 0 -469 193q-207 213 -207 581q0 326 174 539q197 239 547 239q307 0 489 -172q154 -145 154 -323h-307q0 63 -78 141q-98 100 -242 100q-180 0 -292 -122q-129 -142 -129 -406
q0 -276 133 -403q108 -105 292 -105q136 0 231 87t126 237h-340z" />
    <glyph glyph-name="H" unicode="H" horiz-adv-x="1544" 
d="M1028 659h-573v-659h-308v1470h308v-557h573v557h307v-1470h-307v659z" />
    <glyph glyph-name="I" unicode="I" horiz-adv-x="602" 
d="M438 1470v-1470h-307v1470h307z" />
    <glyph glyph-name="J" unicode="J" 
d="M991 1470v-1044q0 -231 -115.5 -347t-338.5 -116q-326 0 -431 191q-61 112 -61 403h287q0 -195 28 -260q37 -84 152 -84q109 0 145 63q27 46 27 150v1044h307z" />
    <glyph glyph-name="K" unicode="K" horiz-adv-x="1544" 
d="M487 500v-500h-307v1470h307v-598l562 598h397l-602 -602l635 -868h-394l-454 647z" />
    <glyph glyph-name="L" unicode="L" horiz-adv-x="1315" 
d="M463 1470v-1204h733v-266h-1040v1470h307z" />
    <glyph glyph-name="M" unicode="M" horiz-adv-x="1778" 
d="M1569 1470v-1470h-287v1229l-278 -1229h-304l-266 1229l-4 -1229h-287v1470h447l266 -1159l266 1159h447z" />
    <glyph glyph-name="N" unicode="N" horiz-adv-x="1544" 
d="M1053 1470h286v-1470h-307l-598 1049l-4 -1049h-287v1470h324l582 -1024z" />
    <glyph glyph-name="O" unicode="O" horiz-adv-x="1548" 
d="M86 737q0 314 139 506q109 152 297 219q135 49 273 49q139 0 268 -47q188 -69 297 -219q139 -192 139 -508q0 -313 -139 -508q-109 -151 -297 -221q-133 -49 -268 -49q-142 0 -271 47q-188 70 -297 219q-141 197 -141 512zM393 737q0 -278 137 -413q105 -103 265 -103
q155 0 260 103q137 135 137 413q0 277 -137 410q-105 102 -260 102q-156 0 -263 -102q-139 -135 -139 -410z" />
    <glyph glyph-name="P" unicode="P" horiz-adv-x="1430" 
d="M463 532v-532h-307v1470h671q215 0 337 -125.5t122 -345.5q0 -155 -86 -282q-125 -185 -385 -185h-352zM463 786h287q147 0 200 91q29 49 29 139q0 106 -63.5 153.5t-206.5 47.5h-246v-431z" />
    <glyph glyph-name="Q" unicode="Q" horiz-adv-x="1659" 
d="M815 401l160 164l155 -143q66 119 66 315q0 277 -137 410q-105 102 -260 102q-156 0 -262 -102q-140 -135 -140 -410q0 -278 138 -413q104 -103 264 -103q45 0 83 9.5t81 31.5zM1511 61l-163 -167l-172 167q-95 -57 -209 -84q-82 -18 -168 -18q-142 0 -271 47
q-188 70 -297 219q-141 197 -141 512q0 314 139 506q109 152 297 219q136 49 273 49q139 0 268 -47q188 -69 297 -219q139 -192 139 -508q0 -176 -39 -304t-112 -220z" />
    <glyph glyph-name="R" unicode="R" horiz-adv-x="1544" 
d="M156 0v1470h745q256 0 377 -157q86 -113 86 -256q0 -125 -60.5 -220.5t-168.5 -131.5q104 -46 139 -103q49 -80 49 -270q0 -152 5 -211.5t61 -79.5v-41h-340q-17 57 -25 120.5t-8 178.5q0 166 -35 215q-45 64 -207 64h-315v-578h-303zM459 823h360q123 0 180.5 47.5
t57.5 153.5q0 76 -41 125q-55 68 -176 68h-381v-394z" />
    <glyph glyph-name="S" unicode="S" horiz-adv-x="1430" 
d="M82 455h295q0 -90 53 -150q80 -88 258 -88q133 0 207 35q100 47 100 154q0 77 -73 120q-52 31 -193 64l-160 37q-235 53 -321 112q-146 101 -146 318q0 170 105 289q145 165 461 165q301 0 454 -170q119 -131 119 -305h-295q-10 88 -51 135q-74 86 -248 86
q-104 0 -174 -38q-84 -48 -84 -138q0 -75 53 -114q31 -23 103 -41l360 -86q182 -45 269 -117q116 -98 116 -281q0 -223 -147 -346q-164 -137 -434 -137q-355 0 -514 178q-113 127 -113 318z" />
    <glyph glyph-name="T" unicode="T" horiz-adv-x="1315" 
d="M782 1212v-1212h-307v1212h-446v258h1196v-258h-443z" />
    <glyph glyph-name="U" unicode="U" horiz-adv-x="1479" 
d="M1323 1470v-954q0 -285 -162 -424q-153 -133 -444 -133q-125 0 -234 35q-145 47 -233 145q-115 133 -115 357v974h316v-954q0 -145 73.5 -220t188.5 -75q151 0 223 72t72 211v966h315z" />
    <glyph glyph-name="V" unicode="V" horiz-adv-x="1430" 
d="M1008 1470h319l-500 -1470h-290l-496 1470h328l315 -1114z" />
    <glyph glyph-name="W" unicode="W" horiz-adv-x="2007" 
d="M451 0l-418 1470h327q138 -587 176.5 -763.5t57.5 -309.5q2 11 33 174q14 80 57 301.5t119 597.5h327q82 -383 136 -643q45 -223 82 -430q16 80 35.5 173.5t64.5 287t145 612.5h312l-414 -1470h-295q-57 276 -115 555q-30 145 -66 333.5t-48 258.5q-19 -105 -47 -254
q-35 -184 -64 -320q-59 -286 -119 -573h-286z" />
    <glyph glyph-name="X" unicode="X" horiz-adv-x="1430" 
d="M860 766l479 -766h-376l-279 504l-295 -504h-360l475 754l-447 716h365l262 -475l270 475h353z" />
    <glyph glyph-name="Y" unicode="Y" horiz-adv-x="1430" 
d="M848 553v-553h-307v557l-508 913h360l307 -639l291 639h348z" />
    <glyph glyph-name="Z" unicode="Z" horiz-adv-x="1315" 
d="M1200 262v-262h-1147v262l758 950h-737v258h1122v-241l-770 -967h774z" />
    <glyph glyph-name="bracketleft" unicode="[" horiz-adv-x="717" 
d="M381 1282v-1487h254v-196h-504v1880h504v-197h-254z" />
    <glyph glyph-name="backslash" unicode="\" horiz-adv-x="602" 
d="M397 -41l-467 1552h242l467 -1552h-242z" />
    <glyph glyph-name="bracketright" unicode="]" horiz-adv-x="717" 
d="M303 -205v1487h-254v197h504v-1880h-504v196h254z" />
    <glyph glyph-name="asciicircum" unicode="^" horiz-adv-x="1245" 
d="M352 664h-225l369 766h204l369 -766h-225l-246 536z" />
    <glyph glyph-name="underscore" unicode="_" 
d="M1139 -258h-1139v102h1139v-102z" />
    <glyph glyph-name="grave" unicode="`" horiz-adv-x="717" 
d="M254 1237l-303 299h319l193 -299h-209z" />
    <glyph glyph-name="a" unicode="a" 
d="M1016 803v-590q0 -88 16.5 -123t48.5 -45v-45h-311q-16 55 -20.5 72.5t-4.5 58.5q-65 -70 -127 -104q-98 -56 -225 -56q-137 0 -227 74q-105 86 -105 246q0 151 91 244q79 81 225 104l258 37q57 10 79.5 30.5t22.5 55.5q0 80 -65 108q-43 19 -123 19q-96 0 -139 -51
q-29 -33 -37 -101h-279q23 228 172 316q111 65 316 65q166 0 274 -55q160 -80 160 -260zM737 393v139q-22 -20 -62 -32.5t-134.5 -27.5t-134.5 -44q-58 -39 -58 -121q0 -67 45 -102q37 -29 86 -29q101 0 179.5 59.5t78.5 157.5z" />
    <glyph glyph-name="b" unicode="b" horiz-adv-x="1315" 
d="M889 537q0 143 -53 231q-64 104 -189 104q-135 0 -196 -108q-50 -88 -50 -244q0 -133 58 -215q67 -96 196 -96q125 0 187 115q47 88 47 213zM414 1470v-520q49 70 108 109q90 59 211 59q189 0 314 -139q137 -154 137 -422q0 -248 -107 -405q-123 -181 -352 -181
q-100 0 -176 37q-90 43 -139 131l-4 -139h-279v1470h287z" />
    <glyph glyph-name="c" unicode="c" 
d="M782 397h291q-16 -145 -102 -254q-135 -172 -398 -172q-276 0 -405 187q-98 141 -98 358q0 279 123 432q135 170 401 170q176 0 303 -80q176 -110 176 -338h-291q-8 66 -45 113q-51 64 -131 64h-12q-123 0 -182 -107q-47 -84 -47 -209q0 -143 28 -219q51 -133 193 -133
q96 0 153 76q43 57 43 112z" />
    <glyph glyph-name="d" unicode="d" horiz-adv-x="1315" 
d="M1130 1470v-1470h-282v139q-51 -86 -137 -127t-183 -41q-227 0 -350 181q-108 159 -108 405q0 270 135 422q125 139 319 139q123 0 209 -57q62 -41 107 -111l4 520h286zM365 537q0 -121 49 -211q63 -117 188 -117q127 0 195 94q59 84 59 217q0 154 -49 242
q-62 110 -197 110q-129 0 -192 -102q-53 -86 -53 -233z" />
    <glyph glyph-name="e" unicode="e" 
d="M774 319h295q-51 -182 -197 -272q-120 -76 -282 -76q-250 0 -385 129q-156 150 -156 469q0 258 146 410q135 139 374 139q205 0 336 -112q176 -152 176 -486v-53h-745q14 -143 75.5 -204.5t178.5 -61.5q65 0 117.5 30.5t66.5 87.5zM344 655h442q-12 121 -79 181
q-58 49 -142 49q-194 0 -221 -230z" />
    <glyph glyph-name="f" unicode="f" horiz-adv-x="717" 
d="M467 885v-885h-287v885h-160v205h160v90q0 161 83 236t237 75l147 -4v-234h-82q-69 0 -83.5 -21.5t-14.5 -96.5v-45h184v-205h-184z" />
    <glyph glyph-name="g" unicode="g" horiz-adv-x="1315" 
d="M860 1090h275v-1033q0 -215 -74 -321q-127 -182 -479 -182q-189 0 -322 77q-154 90 -154 250h312q12 -53 43 -76q45 -34 157 -34q117 0 173.5 60t56.5 194v131l-4 4q-58 -101 -135 -137q-64 -31 -156 -31q-207 0 -334 139q-137 152 -137 426q0 270 135 422
q125 139 320 139q133 0 221 -67q57 -43 98 -121zM377 541q0 -123 49 -203q61 -100 180 -100q131 0 193 100q49 80 49 215q0 139 -62 225q-67 94 -184 94q-92 0 -151 -69q-74 -88 -74 -262z" />
    <glyph glyph-name="h" unicode="h" horiz-adv-x="1315" 
d="M1118 754v-754h-287v664q0 90 -24 135q-43 78 -160 78q-98 0 -161.5 -66t-63.5 -184v-627h-287v1470h287v-520q31 70 120 119t199 49q168 0 269 -90q108 -98 108 -274z" />
    <glyph glyph-name="i" unicode="i" horiz-adv-x="602" 
d="M143 1090h287v-1090h-287v1090zM430 1487v-266h-287v266h287z" />
    <glyph glyph-name="j" unicode="j" horiz-adv-x="602" 
d="M430 1090v-1205q0 -198 -92 -268q-74 -55 -260 -55h-70v229h49q47 0 66.5 23.5t19.5 74.5v1201h287zM430 1487v-266h-287v266h287z" />
    <glyph glyph-name="k" unicode="k" 
d="M430 344v-344h-287v1470h287v-794l361 414h352l-385 -422l393 -668h-344l-258 467z" />
    <glyph glyph-name="l" unicode="l" horiz-adv-x="602" 
d="M430 1470v-1470h-287v1470h287z" />
    <glyph glyph-name="m" unicode="m" horiz-adv-x="1892" 
d="M1692 754v-754h-287v664q0 112 -42 162.5t-114 50.5q-102 0 -147 -58.5t-45 -163.5v-655h-287v655q0 105 -20 146q-37 76 -152 76q-96 0 -138 -57.5t-42 -155.5v-664h-287v1090h275v-160q43 76 100 121q88 67 215 67q110 0 182 -43q62 -37 121 -129q66 94 133.5 133
t157.5 39q168 0 268 -90q109 -98 109 -274z" />
    <glyph glyph-name="n" unicode="n" horiz-adv-x="1315" 
d="M1118 754v-754h-287v664q0 90 -24 135q-43 78 -160 78q-98 0 -161.5 -66t-63.5 -184v-627h-287v1090h275v-160q49 78 102 119q92 69 229 69q168 0 269 -90q108 -98 108 -274z" />
    <glyph glyph-name="o" unicode="o" horiz-adv-x="1245" 
d="M1192 545q0 -281 -168 -434q-152 -140 -389 -140q-236 0 -387 140q-170 155 -170 434q0 280 168 434q151 139 389 139q237 0 389 -139q168 -154 168 -434zM897 545q0 135 -47 217q-66 115 -215 115q-148 0 -213 -113q-49 -86 -49 -219q0 -135 47 -217q65 -115 215 -115
q147 0 213 113q49 86 49 219z" />
    <glyph glyph-name="p" unicode="p" horiz-adv-x="1315" 
d="M401 520q0 -133 58 -215q67 -96 196 -96q125 0 187 115q47 88 47 213q0 143 -53 231q-64 104 -189 104q-135 0 -196 -108q-50 -88 -50 -244zM401 1090v-156q58 84 115 125q86 59 217 59q189 0 314 -139q137 -154 137 -422q0 -248 -107 -405q-123 -181 -352 -181
q-131 0 -215 62q-45 33 -92 106l-4 -565h-287v1516h274z" />
    <glyph glyph-name="q" unicode="q" horiz-adv-x="1315" 
d="M856 1090h274v-1516h-286v561q-90 -164 -312 -164q-235 0 -360 189q-102 153 -102 364q0 252 110 410q129 184 369 184q121 0 205 -67q51 -41 98 -121zM365 524q0 -147 61 -229t184 -82q109 0 175.5 82t66.5 246q0 194 -100 278q-64 53 -146 53q-100 0 -162 -69
q-79 -90 -79 -279z" />
    <glyph glyph-name="r" unicode="r" horiz-adv-x="831" 
d="M131 0v1090h275v-189q65 109 110 150q76 67 193 67q36 0 57 -4v-291q-18 2 -44 3t-38 1q-152 0 -217 -84q-49 -63 -49 -174v-569h-287z" />
    <glyph glyph-name="s" unicode="s" 
d="M1032 758h-282q-13 69 -41 98q-45 45 -152 45q-104 0 -145 -35q-31 -26 -31 -71q0 -66 176 -103q260 -55 330 -88q178 -82 178 -256q0 -211 -174 -307q-127 -70 -305 -70q-219 0 -355 78q-170 98 -170 299h295q0 -74 52 -112q61 -48 186 -48q100 0 147 41q37 31 37 74
q0 68 -174 107q-266 57 -325 86q-177 82 -177 258q0 145 91 241q114 123 348 123q207 0 325 -63q166 -88 166 -297z" />
    <glyph glyph-name="t" unicode="t" horiz-adv-x="717" 
d="M455 1384v-294h180v-205h-180v-590q0 -55 19.5 -72.5t98.5 -17.5l62 4v-217q-33 -4 -73 -4h-62h-37q-176 0 -242 63q-53 51 -53 174v660h-148v205h148v294h287z" />
    <glyph glyph-name="u" unicode="u" horiz-adv-x="1245" 
d="M1126 1090v-1090h-274v156q-109 -185 -336 -185q-172 0 -268 97q-105 102 -105 305v717h287v-676q0 -115 59 -164q46 -37 129 -37q87 0 146 51q76 66 76 199v627h286z" />
    <glyph glyph-name="v" unicode="v" 
d="M1114 1090l-393 -1090h-303l-389 1090h319l225 -803l234 803h307z" />
    <glyph glyph-name="w" unicode="w" horiz-adv-x="1659" 
d="M1577 1090l-315 -1090h-295l-168 795l-176 -795h-295l-308 1090h308l168 -783l159 783h287l164 -783l176 783h295z" />
    <glyph glyph-name="x" unicode="x" 
d="M737 557l373 -557h-356l-189 328l-188 -328h-344l368 557l-356 533h348l185 -316l180 316h340z" />
    <glyph glyph-name="y" unicode="y" 
d="M1106 1090l-377 -1070q-102 -307 -169.5 -382.5t-252.5 -75.5h-45h-51q-23 4 -31 4v229q13 -4 53 -4q91 0 125 25q48 32 64 139l-402 1135h320l233 -803l230 803h303z" />
    <glyph glyph-name="z" unicode="z" horiz-adv-x="1061" 
d="M963 856l-549 -618h569v-238h-942v225l561 635h-520v230h881v-234z" />
    <glyph glyph-name="braceleft" unicode="{" horiz-adv-x="831" 
d="M750 -221v-180h-172q-111 0 -191 65q-96 78 -96 213v414q0 84 -74 125q-53 30 -119 30v189q66 0 117 29q76 43 76 127v409q0 133 94 211q82 68 193 68h172v-181h-95q-69 0 -96 -43q-18 -30 -18 -92v-401q-15 -113 -99 -172q-57 -39 -135 -49q74 -4 133 -47
q86 -62 101 -179v-401q0 -59 18 -90q27 -45 96 -45h95z" />
    <glyph glyph-name="bar" unicode="|" horiz-adv-x="602" 
d="M172 -41v1552h229v-1552h-229z" />
    <glyph glyph-name="braceright" unicode="}" horiz-adv-x="831" 
d="M700 635v-189q-65 0 -116 -28q-76 -43 -76 -127v-414q0 -133 -94 -211q-82 -67 -193 -67h-172v180h94q70 0 97 43q18 31 18 92v401q14 117 98 177q64 45 136 45q-82 14 -134 51q-86 61 -100 174v401q0 60 -18 90q-27 45 -97 45h-94v181h172q111 0 191 -66q96 -78 96 -213
v-409q0 -84 74 -125q53 -31 118 -31z" />
    <glyph glyph-name="asciitilde" unicode="~" horiz-adv-x="1245" 
d="M999 705l74 -185q-61 -86 -104 -121q-68 -55 -154 -55q-51 0 -97 15.5t-111.5 51t-104.5 50.5q-62 22 -129 22q-47 0 -84 -26q-47 -35 -88 -121l-74 184q41 80 92 121q68 55 162 55q45 0 111 -20q47 -14 118 -45q56 -27 114 -52.5t95 -25.5q55 0 103 47q24 25 77 105z
" />
    <glyph glyph-name="sterling" unicode="&#xa3;" 
d="M770 782v-123h-242q4 -28 6.5 -52.5t2.5 -57.5q0 -60 -21.5 -117t-64.5 -108q-33 -41 -123 -111l4 -4q76 27 129 40t104 13q76 0 144 -24q24 -9 59 -19t51 -10q47 0 105.5 23.5t99.5 50.5l86 -222q-66 -41 -133 -63q-88 -31 -178 -31q-43 0 -100.5 10.5t-100.5 26.5
q-119 45 -197 45q-32 0 -66 -8t-159 -66l-110 201q49 19 127 98q102 105 102 201q0 41 -15.5 94.5t-33.5 89.5h-189v123h119q-51 107 -66.5 162t-15.5 129q0 141 107 254q135 143 381 143q198 0 327 -94q168 -123 168 -377h-270q-19 125 -53 172q-52 70 -172 70
q-105 0 -160 -70q-41 -53 -41 -118q0 -33 13.5 -72t84.5 -199h291z" />
    <glyph glyph-name="yen" unicode="&#xa5;" 
d="M1126 831v-122h-340l-77 -156h417v-123h-417v-430h-263v430h-413v123h413l-81 156h-332v122h266l-319 599h311l295 -603l282 603h291l-307 -599h274z" />
    <glyph glyph-name="dieresis" unicode="&#xa8;" horiz-adv-x="1024" 
 />
    <glyph glyph-name="copyright" unicode="&#xa9;" horiz-adv-x="1569" 
d="M1536 737q0 -352 -236 -571q-221 -207 -542 -207q-324 0 -545 205q-238 219 -238 573q0 355 238 572q221 202 545 202q323 0 542 -202q236 -217 236 -572zM1311 737q0 260 -161 427t-392 167q-236 0 -396.5 -165t-160.5 -429q0 -260 158.5 -429t390.5 -169l8 4
q229 -4 391 164t162 430zM971 623h184q-25 -152 -127 -238t-242 -86q-190 0 -308 127t-118 319q0 193 115 318t307 125q146 0 243 -80t122 -236h-176q-15 68 -66 102t-123 34q-98 0 -153.5 -70t-55.5 -188q0 -117 58.5 -194t154.5 -77q82 0 133.5 36t51.5 108z" />
    <glyph glyph-name="registered" unicode="&#xae;" horiz-adv-x="1569" 
d="M627 672v-353h-176v836h311q170 0 250 -53q90 -62 90 -201q0 -110 -54.5 -163.5t-146.5 -53.5l213 -365h-209l-192 353h-86zM627 811h159q66 0 93 18q34 25 34 93q0 43 -34.5 66.5t-124.5 23.5h-127v-201zM1532 737q0 -354 -234 -573q-219 -205 -540 -205
q-326 0 -547 205q-236 217 -236 573q0 353 236 570q221 204 547 204q323 0 540 -202q234 -217 234 -572zM1311 737q0 260 -161 427t-392 167q-236 0 -396.5 -165t-160.5 -429q0 -260 158.5 -429t390.5 -169l8 4q229 -4 391 164t162 430z" />
    <glyph glyph-name="degree" unicode="&#xb0;" horiz-adv-x="82" 
d="M-819 1413q0 96 67.5 164t165.5 68q97 0 166.5 -68t69.5 -164q0 -98 -68.5 -166.5t-167.5 -68.5q-96 0 -164.5 68.5t-68.5 166.5zM-727 1413q0 -59 41 -102t100 -43q58 0 101 43t43 102q0 60 -41 100.5t-103 40.5q-59 0 -100 -40.5t-41 -100.5z" />
    <glyph glyph-name="plusminus" unicode="&#xb1;" horiz-adv-x="1245" 
d="M483 782v254h230v-254h401v-229h-401v-258h-230v258h-401v229h401zM82 0v229h1032v-229h-1032z" />
    <glyph glyph-name="paragraph" unicode="&#xb6;" 
d="M438 -393v1106q-215 0 -334.5 93t-119.5 259q0 203 143 293q121 76 356 76h623v-1827h-229v1655h-209v-1655h-230z" />
    <glyph glyph-name="onequarter" unicode="&#xbc;" horiz-adv-x="1780" 
 />
    <glyph glyph-name="onehalf" unicode="&#xbd;" horiz-adv-x="1780" 
 />
    <glyph glyph-name="threequarters" unicode="&#xbe;" horiz-adv-x="1780" 
 />
    <glyph glyph-name=".notdef.106" unicode="&#xc0;" horiz-adv-x="1454" 
d="M430 303l-102 -303h-324l524 1470h357l516 -1470h-332l-94 303h-545zM512 557h377l-184 582zM678 1596l-303 299h315l193 -299h-205z" />
    <glyph glyph-name=".notdef.107" unicode="&#xc1;" horiz-adv-x="1454" 
d="M430 303l-102 -303h-324l524 1470h357l516 -1470h-332l-94 303h-545zM512 557h377l-184 582zM1033 1894l-303 -299h-205l193 299h315z" />
    <glyph glyph-name=".notdef.111" unicode="&#xc2;" horiz-adv-x="1454" 
d="M430 303l-102 -303h-324l524 1470h357l516 -1470h-332l-94 303h-545zM512 557h377l-184 582zM830 1895l233 -299h-233l-131 167l-127 -167h-234l234 299h258z" />
    <glyph glyph-name=".notdef.109" unicode="&#xc3;" horiz-adv-x="1454" 
d="M430 303l-102 -303h-324l524 1470h357l516 -1470h-332l-94 303h-545zM512 557h377l-184 582zM1082 1881q-19 -131 -80 -201t-152 -70q-38 0 -71.5 8t-73.5 20q-20 7 -37.5 12.5t-33.5 10.5q-25 8 -45 13.5t-27 5.5q-17 0 -29.5 -7t-22.5 -18q-6 -9 -10.5 -23t-8.5 -37
h-166q3 13 6.5 29.5t5.5 26.5q2 9 4.5 19t5.5 18q6 20 19.5 45.5t27.5 48.5q33 42 78.5 65.5t109.5 25.5q38 2 70.5 -8.5t64.5 -27.5l6 -2q25 -13 57.5 -22.5t61.5 -9.5q35 0 52 22.5t26 55.5h162z" />
    <glyph glyph-name=".notdef.123" unicode="&#xc8;" horiz-adv-x="1430" 
d="M1237 1470v-258h-778v-311h717v-258h-717v-381h815v-262h-1118v1470h1081zM655 1596l-303 299h315l193 -299h-205z" />
    <glyph glyph-name=".notdef.124" unicode="&#xc9;" horiz-adv-x="1430" 
d="M1237 1470v-258h-778v-311h717v-258h-717v-381h815v-262h-1118v1470h1081zM1005 1894l-303 -299h-205l193 299h315z" />
    <glyph glyph-name=".notdef.128" unicode="&#xca;" horiz-adv-x="1430" 
d="M1237 1470v-258h-778v-311h717v-258h-717v-381h815v-262h-1118v1470h1081zM812 1895l233 -299h-233l-131 167l-127 -167h-234l234 299h258z" />
    <glyph glyph-name=".notdef.104" unicode="&#xcc;" horiz-adv-x="602" 
d="M438 1470v-1470h-307v1470h307zM228 1596l-303 299h315l193 -299h-205z" />
    <glyph glyph-name=".notdef.103" unicode="&#xcd;" horiz-adv-x="602" 
d="M438 1470v-1470h-307v1470h307zM633 1894l-303 -299h-205l193 299h315z" />
    <glyph glyph-name=".notdef.099" unicode="&#xd2;" horiz-adv-x="1548" 
d="M86 737q0 314 139 506q109 152 297 219q135 49 273 49q139 0 268 -47q188 -69 297 -219q139 -192 139 -508q0 -313 -139 -508q-109 -151 -297 -221q-133 -49 -268 -49q-142 0 -271 47q-188 70 -297 219q-141 197 -141 512zM393 737q0 -278 137 -413q105 -103 265 -103
q155 0 260 103q137 135 137 413q0 277 -137 410q-105 102 -260 102q-156 0 -263 -102q-139 -135 -139 -410zM790 1596l-303 299h315l193 -299h-205z" />
    <glyph glyph-name=".notdef.098" unicode="&#xd3;" horiz-adv-x="1548" 
d="M86 737q0 314 139 506q109 152 297 219q135 49 273 49q139 0 268 -47q188 -69 297 -219q139 -192 139 -508q0 -313 -139 -508q-109 -151 -297 -221q-133 -49 -268 -49q-142 0 -271 47q-188 70 -297 219q-141 197 -141 512zM393 737q0 -278 137 -413q105 -103 265 -103
q155 0 260 103q137 135 137 413q0 277 -137 410q-105 102 -260 102q-156 0 -263 -102q-139 -135 -139 -410zM1094 1894l-303 -299h-205l193 299h315z" />
    <glyph glyph-name=".notdef.094" unicode="&#xd4;" horiz-adv-x="1548" 
d="M86 737q0 314 139 506q109 152 297 219q135 49 273 49q139 0 268 -47q188 -69 297 -219q139 -192 139 -508q0 -313 -139 -508q-109 -151 -297 -221q-133 -49 -268 -49q-142 0 -271 47q-188 70 -297 219q-141 197 -141 512zM393 737q0 -278 137 -413q105 -103 265 -103
q155 0 260 103q137 135 137 413q0 277 -137 410q-105 102 -260 102q-156 0 -263 -102q-139 -135 -139 -410zM925 1895l233 -299h-233l-131 167l-127 -167h-234l234 299h258z" />
    <glyph glyph-name=".notdef.096" unicode="&#xd5;" horiz-adv-x="1548" 
d="M86 737q0 314 139 506q109 152 297 219q135 49 273 49q139 0 268 -47q188 -69 297 -219q139 -192 139 -508q0 -313 -139 -508q-109 -151 -297 -221q-133 -49 -268 -49q-142 0 -271 47q-188 70 -297 219q-141 197 -141 512zM393 737q0 -278 137 -413q105 -103 265 -103
q155 0 260 103q137 135 137 413q0 277 -137 410q-105 102 -260 102q-156 0 -263 -102q-139 -135 -139 -410zM1170 1881q-19 -131 -80 -201t-152 -70q-38 0 -71.5 8t-73.5 20q-20 7 -37.5 12.5t-33.5 10.5q-25 8 -45 13.5t-27 5.5q-17 0 -29.5 -7t-22.5 -18q-6 -9 -10.5 -23
t-8.5 -37h-166q3 13 6.5 29.5t5.5 26.5q2 9 4.5 19t5.5 18q6 20 19.5 45.5t27.5 48.5q33 42 78.5 65.5t109.5 25.5q38 2 70.5 -8.5t64.5 -27.5l6 -2q25 -13 57.5 -22.5t61.5 -9.5q35 0 52 22.5t26 55.5h162z" />
    <glyph glyph-name="multiply" unicode="&#xd7;" horiz-adv-x="1245" 
d="M438 520l-356 352l164 164l352 -356l356 356l160 -164l-352 -352l356 -356l-164 -160l-356 352l-352 -352l-164 160z" />
    <glyph glyph-name=".notdef.088" unicode="&#xd9;" horiz-adv-x="1479" 
d="M1323 1470v-954q0 -285 -162 -424q-153 -133 -444 -133q-125 0 -234 35q-145 47 -233 145q-115 133 -115 357v974h316v-954q0 -145 73.5 -220t188.5 -75q151 0 223 72t72 211v966h315zM655 1596l-303 299h315l193 -299h-205z" />
    <glyph glyph-name=".notdef.087" unicode="&#xda;" horiz-adv-x="1479" 
d="M1323 1470v-954q0 -285 -162 -424q-153 -133 -444 -133q-125 0 -234 35q-145 47 -233 145q-115 133 -115 357v974h316v-954q0 -145 73.5 -220t188.5 -75q151 0 223 72t72 211v966h315zM1057 1894l-303 -299h-205l193 299h315z" />
    <glyph glyph-name=".notdef.070" unicode="&#xdd;" horiz-adv-x="1430" 
d="M848 553v-553h-307v557l-508 913h360l307 -639l291 639h348zM1041 1894l-303 -299h-205l193 299h315z" />
    <glyph glyph-name=".notdef.066" unicode="&#xe0;" 
d="M1016 803v-590q0 -88 16.5 -123t48.5 -45v-45h-311q-16 55 -20.5 72.5t-4.5 58.5q-65 -70 -127 -104q-98 -56 -225 -56q-137 0 -227 74q-105 86 -105 246q0 151 91 244q79 81 225 104l258 37q57 10 79.5 30.5t22.5 55.5q0 80 -65 108q-43 19 -123 19q-96 0 -139 -51
q-29 -33 -37 -101h-279q23 228 172 316q111 65 316 65q166 0 274 -55q160 -80 160 -260zM737 393v139q-22 -20 -62 -32.5t-134.5 -27.5t-134.5 -44q-58 -39 -58 -121q0 -67 45 -102q37 -29 86 -29q101 0 179.5 59.5t78.5 157.5zM580 1216l-303 299h315l193 -299h-205z" />
    <glyph glyph-name=".notdef.065" unicode="&#xe1;" 
d="M1016 803v-590q0 -88 16.5 -123t48.5 -45v-45h-311q-16 55 -20.5 72.5t-4.5 58.5q-65 -70 -127 -104q-98 -56 -225 -56q-137 0 -227 74q-105 86 -105 246q0 151 91 244q79 81 225 104l258 37q57 10 79.5 30.5t22.5 55.5q0 80 -65 108q-43 19 -123 19q-96 0 -139 -51
q-29 -33 -37 -101h-279q23 228 172 316q111 65 316 65q166 0 274 -55q160 -80 160 -260zM737 393v139q-22 -20 -62 -32.5t-134.5 -27.5t-134.5 -44q-58 -39 -58 -121q0 -67 45 -102q37 -29 86 -29q101 0 179.5 59.5t78.5 157.5zM879 1516l-303 -299h-205l193 299h315z" />
    <glyph glyph-name=".notdef.061" unicode="&#xe2;" 
d="M1016 803v-590q0 -88 16.5 -123t48.5 -45v-45h-311q-16 55 -20.5 72.5t-4.5 58.5q-65 -70 -127 -104q-98 -56 -225 -56q-137 0 -227 74q-105 86 -105 246q0 151 91 244q79 81 225 104l258 37q57 10 79.5 30.5t22.5 55.5q0 80 -65 108q-43 19 -123 19q-96 0 -139 -51
q-29 -33 -37 -101h-279q23 228 172 316q111 65 316 65q166 0 274 -55q160 -80 160 -260zM737 393v139q-22 -20 -62 -32.5t-134.5 -27.5t-134.5 -44q-58 -39 -58 -121q0 -67 45 -102q37 -29 86 -29q101 0 179.5 59.5t78.5 157.5zM718 1514l233 -299h-233l-131 167l-127 -167
h-234l234 299h258z" />
    <glyph glyph-name=".notdef.063" unicode="&#xe3;" 
d="M1016 803v-590q0 -88 16.5 -123t48.5 -45v-45h-311q-16 55 -20.5 72.5t-4.5 58.5q-65 -70 -127 -104q-98 -56 -225 -56q-137 0 -227 74q-105 86 -105 246q0 151 91 244q79 81 225 104l258 37q57 10 79.5 30.5t22.5 55.5q0 80 -65 108q-43 19 -123 19q-96 0 -139 -51
q-29 -33 -37 -101h-279q23 228 172 316q111 65 316 65q166 0 274 -55q160 -80 160 -260zM737 393v139q-22 -20 -62 -32.5t-134.5 -27.5t-134.5 -44q-58 -39 -58 -121q0 -67 45 -102q37 -29 86 -29q101 0 179.5 59.5t78.5 157.5zM955 1531q-19 -131 -80 -201t-152 -70
q-38 0 -71.5 8t-73.5 20q-20 7 -37.5 12.5t-33.5 10.5q-25 8 -45 13.5t-27 5.5q-17 0 -29.5 -7t-22.5 -18q-6 -9 -10.5 -23t-8.5 -37h-166q3 13 6.5 29.5t5.5 26.5q2 9 4.5 19t5.5 18q6 20 19.5 45.5t27.5 48.5q33 42 78.5 65.5t109.5 25.5q38 2 70.5 -8.5t64.5 -27.5l6 -2
q25 -13 57.5 -22.5t61.5 -9.5q35 0 52 22.5t26 55.5h162z" />
    <glyph glyph-name=".notdef.049" unicode="&#xe8;" 
d="M774 319h295q-51 -182 -197 -272q-120 -76 -282 -76q-250 0 -385 129q-156 150 -156 469q0 258 146 410q135 139 374 139q205 0 336 -112q176 -152 176 -486v-53h-745q14 -143 75.5 -204.5t178.5 -61.5q65 0 117.5 30.5t66.5 87.5zM344 655h442q-12 121 -79 181
q-58 49 -142 49q-194 0 -221 -230zM565 1216l-303 299h315l193 -299h-205z" />
    <glyph glyph-name=".notdef.048" unicode="&#xe9;" 
d="M774 319h295q-51 -182 -197 -272q-120 -76 -282 -76q-250 0 -385 129q-156 150 -156 469q0 258 146 410q135 139 374 139q205 0 336 -112q176 -152 176 -486v-53h-745q14 -143 75.5 -204.5t178.5 -61.5q65 0 117.5 30.5t66.5 87.5zM344 655h442q-12 121 -79 181
q-58 49 -142 49q-194 0 -221 -230zM873 1516l-303 -299h-205l193 299h315z" />
    <glyph glyph-name=".notdef.044" unicode="&#xea;" 
d="M774 319h295q-51 -182 -197 -272q-120 -76 -282 -76q-250 0 -385 129q-156 150 -156 469q0 258 146 410q135 139 374 139q205 0 336 -112q176 -152 176 -486v-53h-745q14 -143 75.5 -204.5t178.5 -61.5q65 0 117.5 30.5t66.5 87.5zM344 655h442q-12 121 -79 181
q-58 49 -142 49q-194 0 -221 -230zM695 1514l233 -299h-233l-131 167l-127 -167h-234l234 299h258z" />
    <glyph glyph-name=".notdef.038" unicode="&#xec;" horiz-adv-x="602" 
d="M143 1090h287v-1090h-287v1090zM221 1216l-303 299h315l193 -299h-205z" />
    <glyph glyph-name=".notdef.037" unicode="&#xed;" horiz-adv-x="602" 
d="M143 1090h287v-1090h-287v1090zM650 1514l-303 -299h-205l193 299h315z" />
    <glyph glyph-name=".notdef.033" unicode="&#xf2;" horiz-adv-x="1245" 
d="M1192 545q0 -281 -168 -434q-152 -140 -389 -140q-236 0 -387 140q-170 155 -170 434q0 280 168 434q151 139 389 139q237 0 389 -139q168 -154 168 -434zM897 545q0 135 -47 217q-66 115 -215 115q-148 0 -213 -113q-49 -86 -49 -219q0 -135 47 -217q65 -115 215 -115
q147 0 213 113q49 86 49 219zM630 1216l-303 299h315l193 -299h-205z" />
    <glyph glyph-name=".notdef.032" unicode="&#xf3;" horiz-adv-x="1245" 
d="M1192 545q0 -281 -168 -434q-152 -140 -389 -140q-236 0 -387 140q-170 155 -170 434q0 280 168 434q151 139 389 139q237 0 389 -139q168 -154 168 -434zM897 545q0 135 -47 217q-66 115 -215 115q-148 0 -213 -113q-49 -86 -49 -219q0 -135 47 -217q65 -115 215 -115
q147 0 213 113q49 86 49 219zM938 1516l-303 -299h-205l193 299h315z" />
    <glyph glyph-name=".notdef.028" unicode="&#xf4;" horiz-adv-x="1245" 
d="M1192 545q0 -281 -168 -434q-152 -140 -389 -140q-236 0 -387 140q-170 155 -170 434q0 280 168 434q151 139 389 139q237 0 389 -139q168 -154 168 -434zM897 545q0 135 -47 217q-66 115 -215 115q-148 0 -213 -113q-49 -86 -49 -219q0 -135 47 -217q65 -115 215 -115
q147 0 213 113q49 86 49 219zM766 1514l233 -299h-233l-131 167l-127 -167h-234l234 299h258z" />
    <glyph glyph-name=".notdef.030" unicode="&#xf5;" horiz-adv-x="1245" 
d="M1192 545q0 -281 -168 -434q-152 -140 -389 -140q-236 0 -387 140q-170 155 -170 434q0 280 168 434q151 139 389 139q237 0 389 -139q168 -154 168 -434zM897 545q0 135 -47 217q-66 115 -215 115q-148 0 -213 -113q-49 -86 -49 -219q0 -135 47 -217q65 -115 215 -115
q147 0 213 113q49 86 49 219zM1004 1531q-19 -131 -80 -201t-152 -70q-38 0 -71.5 8t-73.5 20q-20 7 -37.5 12.5t-33.5 10.5q-25 8 -45 13.5t-27 5.5q-17 0 -29.5 -7t-22.5 -18q-6 -9 -10.5 -23t-8.5 -37h-166q3 13 6.5 29.5t5.5 26.5q2 9 4.5 19t5.5 18q6 20 19.5 45.5
t27.5 48.5q33 42 78.5 65.5t109.5 25.5q38 2 70.5 -8.5t64.5 -27.5l6 -2q25 -13 57.5 -22.5t61.5 -9.5q35 0 52 22.5t26 55.5h162z" />
    <glyph glyph-name="divide" unicode="&#xf7;" horiz-adv-x="1706" 
 />
    <glyph glyph-name=".notdef.022" unicode="&#xf9;" horiz-adv-x="1245" 
d="M1126 1090v-1090h-274v156q-109 -185 -336 -185q-172 0 -268 97q-105 102 -105 305v717h287v-676q0 -115 59 -164q46 -37 129 -37q87 0 146 51q76 66 76 199v627h286zM628 1216l-303 299h315l193 -299h-205z" />
    <glyph glyph-name=".notdef.021" unicode="&#xfa;" horiz-adv-x="1245" 
d="M1126 1090v-1090h-274v156q-109 -185 -336 -185q-172 0 -268 97q-105 102 -105 305v717h287v-676q0 -115 59 -164q46 -37 129 -37q87 0 146 51q76 66 76 199v627h286zM942 1516l-303 -299h-205l193 299h315z" />
    <glyph glyph-name=".notdef.004" unicode="&#xfd;" 
d="M1106 1090l-377 -1070q-102 -307 -169.5 -382.5t-252.5 -75.5h-45h-51q-23 4 -31 4v229q13 -4 53 -4q91 0 125 25q48 32 64 139l-402 1135h320l233 -803l230 803h303zM899 1516l-303 -299h-205l193 299h315z" />
    <glyph glyph-name=".notdef.117" unicode="&#x102;" horiz-adv-x="1454" 
d="M430 303l-102 -303h-324l524 1470h357l516 -1470h-332l-94 303h-545zM512 557h377l-184 582zM886 1871h178q-14 -148 -116 -227q-94 -72 -248 -72q-178 0 -264 119q-53 73 -64 180h162q12 -53 35 -76q43 -43 135 -43q74 0 115 18q55 27 67 101z" />
    <glyph glyph-name=".notdef.055" unicode="&#x103;" 
d="M1016 803v-590q0 -88 16.5 -123t48.5 -45v-45h-311q-16 55 -20.5 72.5t-4.5 58.5q-65 -70 -127 -104q-98 -56 -225 -56q-137 0 -227 74q-105 86 -105 246q0 151 91 244q79 81 225 104l258 37q57 10 79.5 30.5t22.5 55.5q0 80 -65 108q-43 19 -123 19q-96 0 -139 -51
q-29 -33 -37 -101h-279q23 228 172 316q111 65 316 65q166 0 274 -55q160 -80 160 -260zM737 393v139q-22 -20 -62 -32.5t-134.5 -27.5t-134.5 -44q-58 -39 -58 -121q0 -67 45 -102q37 -29 86 -29q101 0 179.5 59.5t78.5 157.5zM773 1494h178q-14 -148 -116 -227
q-94 -72 -248 -72q-178 0 -264 119q-53 73 -64 180h162q12 -53 35 -76q43 -43 135 -43q74 0 115 18q55 27 67 101z" />
    <glyph glyph-name="Ccaron" unicode="&#x10c;" horiz-adv-x="1274" 
 />
    <glyph glyph-name="ccaron" unicode="&#x10d;" horiz-adv-x="922" 
 />
    <glyph glyph-name="Dslash" unicode="&#x110;" horiz-adv-x="1544" 
d="M156 647h-95v254h95v569h651q332 0 485 -245q113 -181 113 -455q0 -297 -123 -502q-162 -268 -487 -268h-639v647zM459 1217v-316h340v-254h-340v-393h299q174 0 260 156q72 129 72 340q0 284 -119 395q-78 72 -217 72h-295z" />
    <glyph glyph-name="dcroat" unicode="&#x111;" horiz-adv-x="1315" 
d="M844 1389v81h286v-81h70v-201h-70v-1188h-282v139q-51 -86 -137 -127t-183 -41q-227 0 -350 181q-108 159 -108 405q0 270 135 422q125 139 319 139q123 0 209 -57q62 -41 107 -111l4 238h-303v201h303zM365 537q0 -121 49 -211q63 -117 188 -117q127 0 195 94
q59 84 59 217q0 154 -49 242q-62 110 -197 110q-129 0 -192 -102q-53 -86 -53 -233z" />
    <glyph glyph-name=".notdef.101" unicode="&#x128;" horiz-adv-x="602" 
d="M438 1470v-1470h-307v1470h307zM674 1881q-19 -131 -80 -201t-152 -70q-38 0 -71.5 8t-73.5 20q-20 7 -37.5 12.5t-33.5 10.5q-25 8 -45 13.5t-27 5.5q-17 0 -29.5 -7t-22.5 -18q-6 -9 -10.5 -23t-8.5 -37h-166q3 13 6.5 29.5t5.5 26.5q2 9 4.5 19t5.5 18q6 20 19.5 45.5
t27.5 48.5q33 42 78.5 65.5t109.5 25.5q38 2 70.5 -8.5t64.5 -27.5l6 -2q25 -13 57.5 -22.5t61.5 -9.5q35 0 52 22.5t26 55.5h162z" />
    <glyph glyph-name=".notdef.035" unicode="&#x129;" horiz-adv-x="602" 
d="M143 1090h287v-1090h-287v1090zM663 1531q-19 -131 -80 -201t-152 -70q-38 0 -71.5 8t-73.5 20q-20 7 -37.5 12.5t-33.5 10.5q-25 8 -45 13.5t-27 5.5q-17 0 -29.5 -7t-22.5 -18q-6 -9 -10.5 -23t-8.5 -37h-166q3 13 6.5 29.5t5.5 26.5q2 9 4.5 19t5.5 18q6 20 19.5 45.5
t27.5 48.5q33 42 78.5 65.5t109.5 25.5q38 2 70.5 -8.5t64.5 -27.5l6 -2q25 -13 57.5 -22.5t61.5 -9.5q35 0 52 22.5t26 55.5h162z" />
    <glyph glyph-name=".notdef.085" unicode="&#x168;" horiz-adv-x="1479" 
d="M1323 1470v-954q0 -285 -162 -424q-153 -133 -444 -133q-125 0 -234 35q-145 47 -233 145q-115 133 -115 357v974h316v-954q0 -145 73.5 -220t188.5 -75q151 0 223 72t72 211v966h315zM1135 1881q-19 -131 -80 -201t-152 -70q-38 0 -71.5 8t-73.5 20q-20 7 -37.5 12.5
t-33.5 10.5q-25 8 -45 13.5t-27 5.5q-17 0 -29.5 -7t-22.5 -18q-6 -9 -10.5 -23t-8.5 -37h-166q3 13 6.5 29.5t5.5 26.5q2 9 4.5 19t5.5 18q6 20 19.5 45.5t27.5 48.5q33 42 78.5 65.5t109.5 25.5q38 2 70.5 -8.5t64.5 -27.5l6 -2q25 -13 57.5 -22.5t61.5 -9.5q35 0 52 22.5
t26 55.5h162z" />
    <glyph glyph-name=".notdef.019" unicode="&#x169;" horiz-adv-x="1245" 
d="M1126 1090v-1090h-274v156q-109 -185 -336 -185q-172 0 -268 97q-105 102 -105 305v717h287v-676q0 -115 59 -164q46 -37 129 -37q87 0 146 51q76 66 76 199v627h286zM1014 1531q-19 -131 -80 -201t-152 -70q-38 0 -71.5 8t-73.5 20q-20 7 -37.5 12.5t-33.5 10.5
q-25 8 -45 13.5t-27 5.5q-17 0 -29.5 -7t-22.5 -18q-6 -9 -10.5 -23t-8.5 -37h-166q3 13 6.5 29.5t5.5 26.5q2 9 4.5 19t5.5 18q6 20 19.5 45.5t27.5 48.5q33 42 78.5 65.5t109.5 25.5q38 2 70.5 -8.5t64.5 -27.5l6 -2q25 -13 57.5 -22.5t61.5 -9.5q35 0 52 22.5t26 55.5
h162z" />
    <glyph glyph-name=".notdef.077" unicode="&#x1a0;" horiz-adv-x="1548" 
d="M1249 1364q43 22 66.5 72.5t23.5 99.5h-106v168h242v-172q0 -84 -25 -135q-33 -68 -119 -111q82 -90 125 -224t43 -325q0 -313 -139 -508q-109 -151 -297 -221q-133 -49 -268 -49q-142 0 -271 47q-188 70 -297 219q-141 197 -141 512q0 314 139 506q109 152 297 219
q135 49 273 49q108 0 204 -24q142 -37 250 -123zM393 737q0 -278 137 -413q105 -103 265 -103q155 0 260 103q137 135 137 413q0 277 -137 410q-105 102 -260 102q-156 0 -263 -102q-139 -135 -139 -410z" />
    <glyph glyph-name=".notdef.011" unicode="&#x1a1;" horiz-adv-x="1245" 
d="M995 987q43 23 64.5 68t21.5 92h-106v168h242v-172q0 -76 -31 -124t-121 -93q127 -146 127 -381q0 -281 -168 -434q-152 -140 -389 -140q-236 0 -387 140q-170 155 -170 434q0 280 168 434q151 139 389 139q98 0 189 -33.5t171 -97.5zM897 545q0 135 -47 217
q-66 115 -215 115q-148 0 -213 -113q-49 -86 -49 -219q0 -135 47 -217q65 -115 215 -115q147 0 213 113q49 86 49 219z" />
    <glyph glyph-name=".notdef.083" unicode="&#x1af;" horiz-adv-x="1479" 
d="M1323 1409q41 23 51 50.5t10 80.5h-106v168h242v-172q0 -152 -197 -250v-770q0 -285 -162 -424q-153 -133 -444 -133q-125 0 -234 35q-145 47 -233 145q-115 133 -115 357v974h316v-954q0 -145 73.5 -220t188.5 -75q151 0 223 72t72 211v966h315v-61z" />
    <glyph glyph-name=".notdef.017" unicode="&#x1b0;" horiz-adv-x="1245" 
d="M1126 1057q41 22 51.5 52t10.5 83h-107v168h242v-172q0 -70 -49 -125t-148 -105v-958h-274v156q-109 -185 -336 -185q-172 0 -268 97q-105 102 -105 305v717h287v-676q0 -115 59 -164q46 -37 129 -37q87 0 146 51q76 66 76 199v627h286v-33z" />
    <glyph glyph-name=".notdef.110" unicode="&#x1ea0;" horiz-adv-x="1454" 
d="M430 303l-102 -303h-324l524 1470h357l516 -1470h-332l-94 303h-545zM512 557h377l-184 582zM841 -377h-270v258h270v-258z" />
    <glyph glyph-name=".notdef.062" unicode="&#x1ea1;" 
d="M1016 803v-590q0 -88 16.5 -123t48.5 -45v-45h-311q-16 55 -20.5 72.5t-4.5 58.5q-65 -70 -127 -104q-98 -56 -225 -56q-137 0 -227 74q-105 86 -105 246q0 151 91 244q79 81 225 104l258 37q57 10 79.5 30.5t22.5 55.5q0 80 -65 108q-43 19 -123 19q-96 0 -139 -51
q-29 -33 -37 -101h-279q23 228 172 316q111 65 316 65q166 0 274 -55q160 -80 160 -260zM737 393v139q-22 -20 -62 -32.5t-134.5 -27.5t-134.5 -44q-58 -39 -58 -121q0 -67 45 -102q37 -29 86 -29q101 0 179.5 59.5t78.5 157.5zM707 -377h-270v258h270v-258z" />
    <glyph glyph-name=".notdef.108" unicode="&#x1ea2;" horiz-adv-x="1454" 
d="M430 303l-102 -303h-324l524 1470h357l516 -1470h-332l-94 303h-545zM512 557h377l-184 582zM633 1584q-1 39 2.5 70.5t11.5 55.5q17 47 77 89q48 33 48 72q0 35 -20 51t-46 16q-40 0 -55.5 -29t-15.5 -71l-160 -2q0 131 74 190h-1q61 49 152 49q74 0 137 -29
q101 -56 101 -171q0 -56 -28 -97q-23 -34 -83 -76q-25 -18 -37.5 -47t-11.5 -71h-145z" />
    <glyph glyph-name=".notdef.064" unicode="&#x1ea3;" 
d="M1016 803v-590q0 -88 16.5 -123t48.5 -45v-45h-311q-16 55 -20.5 72.5t-4.5 58.5q-65 -70 -127 -104q-98 -56 -225 -56q-137 0 -227 74q-105 86 -105 246q0 151 91 244q79 81 225 104l258 37q57 10 79.5 30.5t22.5 55.5q0 80 -65 108q-43 19 -123 19q-96 0 -139 -51
q-29 -33 -37 -101h-279q23 228 172 316q111 65 316 65q166 0 274 -55q160 -80 160 -260zM737 393v139q-22 -20 -62 -32.5t-134.5 -27.5t-134.5 -44q-58 -39 -58 -121q0 -67 45 -102q37 -29 86 -29q101 0 179.5 59.5t78.5 157.5zM509 1199q-1 39 2.5 70.5t11.5 55.5
q17 47 77 89q48 33 48 72q0 35 -20 51t-46 16q-40 0 -55.5 -29t-15.5 -71l-160 -2q0 131 74 190h-1q61 49 152 49q74 0 137 -29q101 -56 101 -171q0 -56 -28 -97q-23 -34 -83 -76q-25 -18 -37.5 -47t-11.5 -71h-145z" />
    <glyph glyph-name=".notdef.113" unicode="&#x1ea4;" horiz-adv-x="1454" 
d="M430 303l-102 -303h-324l524 1470h357l516 -1470h-332l-94 303h-545zM512 557h377l-184 582zM830 1895l233 -299h-233l-131 167l-127 -167h-234l234 299h258zM1469 2130l-303 -299h-205l193 299h315z" />
    <glyph glyph-name=".notdef.059" unicode="&#x1ea5;" 
d="M1016 803v-590q0 -88 16.5 -123t48.5 -45v-45h-311q-16 55 -20.5 72.5t-4.5 58.5q-65 -70 -127 -104q-98 -56 -225 -56q-137 0 -227 74q-105 86 -105 246q0 151 91 244q79 81 225 104l258 37q57 10 79.5 30.5t22.5 55.5q0 80 -65 108q-43 19 -123 19q-96 0 -139 -51
q-29 -33 -37 -101h-279q23 228 172 316q111 65 316 65q166 0 274 -55q160 -80 160 -260zM737 393v139q-22 -20 -62 -32.5t-134.5 -27.5t-134.5 -44q-58 -39 -58 -121q0 -67 45 -102q37 -29 86 -29q101 0 179.5 59.5t78.5 157.5zM718 1514l233 -299h-233l-131 167l-127 -167
h-234l234 299h258zM1357 1749l-303 -299h-205l193 299h315z" />
    <glyph glyph-name=".notdef.112" unicode="&#x1ea6;" horiz-adv-x="1454" 
d="M430 303l-102 -303h-324l524 1470h357l516 -1470h-332l-94 303h-545zM512 557h377l-184 582zM830 1895l233 -299h-233l-131 167l-127 -167h-234l234 299h258zM1057 1832l-303 299h315l193 -299h-205z" />
    <glyph glyph-name=".notdef.060" unicode="&#x1ea7;" 
d="M1016 803v-590q0 -88 16.5 -123t48.5 -45v-45h-311q-16 55 -20.5 72.5t-4.5 58.5q-65 -70 -127 -104q-98 -56 -225 -56q-137 0 -227 74q-105 86 -105 246q0 151 91 244q79 81 225 104l258 37q57 10 79.5 30.5t22.5 55.5q0 80 -65 108q-43 19 -123 19q-96 0 -139 -51
q-29 -33 -37 -101h-279q23 228 172 316q111 65 316 65q166 0 274 -55q160 -80 160 -260zM737 393v139q-22 -20 -62 -32.5t-134.5 -27.5t-134.5 -44q-58 -39 -58 -121q0 -67 45 -102q37 -29 86 -29q101 0 179.5 59.5t78.5 157.5zM718 1514l233 -299h-233l-131 167l-127 -167
h-234l234 299h258zM944 1451l-303 299h315l193 -299h-205z" />
    <glyph glyph-name=".notdef.114" unicode="&#x1ea8;" horiz-adv-x="1454" 
d="M430 303l-102 -303h-324l524 1470h357l516 -1470h-332l-94 303h-545zM512 557h377l-184 582zM830 1895l233 -299h-233l-131 167l-127 -167h-234l234 299h258zM990 1835q-1 39 2.5 70.5t11.5 55.5q17 47 77 89q48 33 48 72q0 35 -20 51t-46 16q-40 0 -55.5 -29t-15.5 -71
l-160 -2q0 131 74 190h-1q61 49 152 49q74 0 137 -29q101 -56 101 -171q0 -56 -28 -97q-23 -34 -83 -76q-25 -18 -37.5 -47t-11.5 -71h-145z" />
    <glyph glyph-name=".notdef.058" unicode="&#x1ea9;" 
d="M1016 803v-590q0 -88 16.5 -123t48.5 -45v-45h-311q-16 55 -20.5 72.5t-4.5 58.5q-65 -70 -127 -104q-98 -56 -225 -56q-137 0 -227 74q-105 86 -105 246q0 151 91 244q79 81 225 104l258 37q57 10 79.5 30.5t22.5 55.5q0 80 -65 108q-43 19 -123 19q-96 0 -139 -51
q-29 -33 -37 -101h-279q23 228 172 316q111 65 316 65q166 0 274 -55q160 -80 160 -260zM737 393v139q-22 -20 -62 -32.5t-134.5 -27.5t-134.5 -44q-58 -39 -58 -121q0 -67 45 -102q37 -29 86 -29q101 0 179.5 59.5t78.5 157.5zM718 1514l233 -299h-233l-131 167l-127 -167
h-234l234 299h258zM879 1454q-1 39 2.5 70.5t11.5 55.5q17 47 77 89q48 33 48 72q0 35 -20 51t-46 16q-40 0 -55.5 -29t-15.5 -71l-160 -2q0 131 74 190h-1q61 49 152 49q74 0 137 -29q101 -56 101 -171q0 -56 -28 -97q-23 -34 -83 -76q-25 -18 -37.5 -47t-11.5 -71h-145z
" />
    <glyph glyph-name=".notdef.115" unicode="&#x1eaa;" horiz-adv-x="1454" 
d="M430 303l-102 -303h-324l524 1470h357l516 -1470h-332l-94 303h-545zM512 557h377l-184 582zM830 1895l233 -299h-233l-131 167l-127 -167h-234l234 299h258zM1082 2264q-19 -131 -80 -201t-152 -70q-38 0 -71.5 8t-73.5 20q-20 7 -37.5 12.5t-33.5 10.5q-25 8 -45 13.5
t-27 5.5q-17 0 -29.5 -7t-22.5 -18q-6 -9 -10.5 -23t-8.5 -37h-166q3 13 6.5 29.5t5.5 26.5q2 9 4.5 19t5.5 18q6 20 19.5 45.5t27.5 48.5q33 42 78.5 65.5t109.5 25.5q38 2 70.5 -8.5t64.5 -27.5l6 -2q25 -13 57.5 -22.5t61.5 -9.5q35 0 52 22.5t26 55.5h162z" />
    <glyph glyph-name=".notdef.057" unicode="&#x1eab;" 
d="M1016 803v-590q0 -88 16.5 -123t48.5 -45v-45h-311q-16 55 -20.5 72.5t-4.5 58.5q-65 -70 -127 -104q-98 -56 -225 -56q-137 0 -227 74q-105 86 -105 246q0 151 91 244q79 81 225 104l258 37q57 10 79.5 30.5t22.5 55.5q0 80 -65 108q-43 19 -123 19q-96 0 -139 -51
q-29 -33 -37 -101h-279q23 228 172 316q111 65 316 65q166 0 274 -55q160 -80 160 -260zM737 393v139q-22 -20 -62 -32.5t-134.5 -27.5t-134.5 -44q-58 -39 -58 -121q0 -67 45 -102q37 -29 86 -29q101 0 179.5 59.5t78.5 157.5zM718 1514l233 -299h-233l-131 167l-127 -167
h-234l234 299h258zM970 1883q-19 -131 -80 -201t-152 -70q-38 0 -71.5 8t-73.5 20q-20 7 -37.5 12.5t-33.5 10.5q-25 8 -45 13.5t-27 5.5q-17 0 -29.5 -7t-22.5 -18q-6 -9 -10.5 -23t-8.5 -37h-166q3 13 6.5 29.5t5.5 26.5q2 9 4.5 19t5.5 18q6 20 19.5 45.5t27.5 48.5
q33 42 78.5 65.5t109.5 25.5q38 2 70.5 -8.5t64.5 -27.5l6 -2q25 -13 57.5 -22.5t61.5 -9.5q35 0 52 22.5t26 55.5h162z" />
    <glyph glyph-name=".notdef.116" unicode="&#x1eac;" horiz-adv-x="1454" 
d="M430 303l-102 -303h-324l524 1470h357l516 -1470h-332l-94 303h-545zM512 557h377l-184 582zM830 1895l233 -299h-233l-131 167l-127 -167h-234l234 299h258zM841 -377h-270v258h270v-258z" />
    <glyph glyph-name=".notdef.056" unicode="&#x1ead;" 
d="M1016 803v-590q0 -88 16.5 -123t48.5 -45v-45h-311q-16 55 -20.5 72.5t-4.5 58.5q-65 -70 -127 -104q-98 -56 -225 -56q-137 0 -227 74q-105 86 -105 246q0 151 91 244q79 81 225 104l258 37q57 10 79.5 30.5t22.5 55.5q0 80 -65 108q-43 19 -123 19q-96 0 -139 -51
q-29 -33 -37 -101h-279q23 228 172 316q111 65 316 65q166 0 274 -55q160 -80 160 -260zM737 393v139q-22 -20 -62 -32.5t-134.5 -27.5t-134.5 -44q-58 -39 -58 -121q0 -67 45 -102q37 -29 86 -29q101 0 179.5 59.5t78.5 157.5zM718 1514l233 -299h-233l-131 167l-127 -167
h-234l234 299h258zM707 -377h-270v258h270v-258z" />
    <glyph glyph-name=".notdef.119" unicode="&#x1eae;" horiz-adv-x="1454" 
d="M430 303l-102 -303h-324l524 1470h357l516 -1470h-332l-94 303h-545zM512 557h377l-184 582zM886 1871h178q-14 -148 -116 -227q-94 -72 -248 -72q-178 0 -264 119q-53 73 -64 180h162q12 -53 35 -76q43 -43 135 -43q74 0 115 18q55 27 67 101zM1047 2237l-303 -299h-205
l193 299h315z" />
    <glyph glyph-name=".notdef.053" unicode="&#x1eaf;" 
d="M1016 803v-590q0 -88 16.5 -123t48.5 -45v-45h-311q-16 55 -20.5 72.5t-4.5 58.5q-65 -70 -127 -104q-98 -56 -225 -56q-137 0 -227 74q-105 86 -105 246q0 151 91 244q79 81 225 104l258 37q57 10 79.5 30.5t22.5 55.5q0 80 -65 108q-43 19 -123 19q-96 0 -139 -51
q-29 -33 -37 -101h-279q23 228 172 316q111 65 316 65q166 0 274 -55q160 -80 160 -260zM737 393v139q-22 -20 -62 -32.5t-134.5 -27.5t-134.5 -44q-58 -39 -58 -121q0 -67 45 -102q37 -29 86 -29q101 0 179.5 59.5t78.5 157.5zM773 1494h178q-14 -148 -116 -227
q-94 -72 -248 -72q-178 0 -264 119q-53 73 -64 180h162q12 -53 35 -76q43 -43 135 -43q74 0 115 18q55 27 67 101zM934 1858l-303 -299h-205l193 299h315z" />
    <glyph glyph-name=".notdef.118" unicode="&#x1eb0;" horiz-adv-x="1454" 
d="M430 303l-102 -303h-324l524 1470h357l516 -1470h-332l-94 303h-545zM512 557h377l-184 582zM886 1871h178q-14 -148 -116 -227q-94 -72 -248 -72q-178 0 -264 119q-53 73 -64 180h162q12 -53 35 -76q43 -43 135 -43q74 0 115 18q55 27 67 101zM677 1937l-303 299h315
l193 -299h-205z" />
    <glyph glyph-name=".notdef.054" unicode="&#x1eb1;" 
d="M1016 803v-590q0 -88 16.5 -123t48.5 -45v-45h-311q-16 55 -20.5 72.5t-4.5 58.5q-65 -70 -127 -104q-98 -56 -225 -56q-137 0 -227 74q-105 86 -105 246q0 151 91 244q79 81 225 104l258 37q57 10 79.5 30.5t22.5 55.5q0 80 -65 108q-43 19 -123 19q-96 0 -139 -51
q-29 -33 -37 -101h-279q23 228 172 316q111 65 316 65q166 0 274 -55q160 -80 160 -260zM737 393v139q-22 -20 -62 -32.5t-134.5 -27.5t-134.5 -44q-58 -39 -58 -121q0 -67 45 -102q37 -29 86 -29q101 0 179.5 59.5t78.5 157.5zM773 1494h178q-14 -148 -116 -227
q-94 -72 -248 -72q-178 0 -264 119q-53 73 -64 180h162q12 -53 35 -76q43 -43 135 -43q74 0 115 18q55 27 67 101zM564 1560l-303 299h315l193 -299h-205z" />
    <glyph glyph-name=".notdef.120" unicode="&#x1eb2;" horiz-adv-x="1454" 
d="M430 303l-102 -303h-324l524 1470h357l516 -1470h-332l-94 303h-545zM512 557h377l-184 582zM886 1871h178q-14 -148 -116 -227q-94 -72 -248 -72q-178 0 -264 119q-53 73 -64 180h162q12 -53 35 -76q43 -43 135 -43q74 0 115 18q55 27 67 101zM631 1844q-1 38 2.5 69
t11.5 55q17 46 76 88q48 31 48 70q0 35 -20 50.5t-46 15.5q-39 0 -54.5 -28t-15.5 -70l-159 -2q0 128 74 187h-1q60 48 151 48q73 0 136 -29q100 -55 100 -168q0 -55 -28 -95q-12 -18 -32.5 -36.5t-49.5 -38.5q-25 -18 -37.5 -46t-11.5 -70h-144z" />
    <glyph glyph-name=".notdef.052" unicode="&#x1eb3;" 
d="M1016 803v-590q0 -88 16.5 -123t48.5 -45v-45h-311q-16 55 -20.5 72.5t-4.5 58.5q-65 -70 -127 -104q-98 -56 -225 -56q-137 0 -227 74q-105 86 -105 246q0 151 91 244q79 81 225 104l258 37q57 10 79.5 30.5t22.5 55.5q0 80 -65 108q-43 19 -123 19q-96 0 -139 -51
q-29 -33 -37 -101h-279q23 228 172 316q111 65 316 65q166 0 274 -55q160 -80 160 -260zM737 393v139q-22 -20 -62 -32.5t-134.5 -27.5t-134.5 -44q-58 -39 -58 -121q0 -67 45 -102q37 -29 86 -29q101 0 179.5 59.5t78.5 157.5zM773 1494h178q-14 -148 -116 -227
q-94 -72 -248 -72q-178 0 -264 119q-53 73 -64 180h162q12 -53 35 -76q43 -43 135 -43q74 0 115 18q55 27 67 101zM525 1500q-1 38 2.5 69t11.5 55q17 46 76 88q48 31 48 70q0 35 -20 50.5t-46 15.5q-39 0 -54.5 -28t-15.5 -70l-159 -2q0 128 74 187h-1q60 48 151 48
q73 0 136 -29q100 -55 100 -168q0 -55 -28 -95q-12 -18 -32.5 -36.5t-49.5 -38.5q-25 -18 -37.5 -46t-11.5 -70h-144z" />
    <glyph glyph-name=".notdef.121" unicode="&#x1eb4;" horiz-adv-x="1454" 
d="M430 303l-102 -303h-324l524 1470h357l516 -1470h-332l-94 303h-545zM512 557h377l-184 582zM886 1871h178q-14 -148 -116 -227q-94 -72 -248 -72q-178 0 -264 119q-53 73 -64 180h162q12 -53 35 -76q43 -43 135 -43q74 0 115 18q55 27 67 101zM1093 2252
q-19 -131 -80 -201t-152 -70q-38 0 -71.5 8t-73.5 20q-20 7 -37.5 12.5t-33.5 10.5q-25 8 -45 13.5t-27 5.5q-17 0 -29.5 -7t-22.5 -18q-6 -9 -10.5 -23t-8.5 -37h-166q3 13 6.5 29.5t5.5 26.5q2 9 4.5 19t5.5 18q6 20 19.5 45.5t27.5 48.5q33 42 78.5 65.5t109.5 25.5
q38 2 70.5 -8.5t64.5 -27.5l6 -2q25 -13 57.5 -22.5t61.5 -9.5q35 0 52 22.5t26 55.5h162z" />
    <glyph glyph-name=".notdef.051" unicode="&#x1eb5;" 
d="M1016 803v-590q0 -88 16.5 -123t48.5 -45v-45h-311q-16 55 -20.5 72.5t-4.5 58.5q-65 -70 -127 -104q-98 -56 -225 -56q-137 0 -227 74q-105 86 -105 246q0 151 91 244q79 81 225 104l258 37q57 10 79.5 30.5t22.5 55.5q0 80 -65 108q-43 19 -123 19q-96 0 -139 -51
q-29 -33 -37 -101h-279q23 228 172 316q111 65 316 65q166 0 274 -55q160 -80 160 -260zM737 393v139q-22 -20 -62 -32.5t-134.5 -27.5t-134.5 -44q-58 -39 -58 -121q0 -67 45 -102q37 -29 86 -29q101 0 179.5 59.5t78.5 157.5zM773 1494h178q-14 -148 -116 -227
q-94 -72 -248 -72q-178 0 -264 119q-53 73 -64 180h162q12 -53 35 -76q43 -43 135 -43q74 0 115 18q55 27 67 101zM982 1875q-19 -131 -80 -201t-152 -70q-38 0 -71.5 8t-73.5 20q-20 7 -37.5 12.5t-33.5 10.5q-25 8 -45 13.5t-27 5.5q-17 0 -29.5 -7t-22.5 -18
q-6 -9 -10.5 -23t-8.5 -37h-166q3 13 6.5 29.5t5.5 26.5q2 9 4.5 19t5.5 18q6 20 19.5 45.5t27.5 48.5q33 42 78.5 65.5t109.5 25.5q38 2 70.5 -8.5t64.5 -27.5l6 -2q25 -13 57.5 -22.5t61.5 -9.5q35 0 52 22.5t26 55.5h162z" />
    <glyph glyph-name=".notdef.122" unicode="&#x1eb6;" horiz-adv-x="1454" 
d="M430 303l-102 -303h-324l524 1470h357l516 -1470h-332l-94 303h-545zM512 557h377l-184 582zM886 1871h178q-14 -148 -116 -227q-94 -72 -248 -72q-178 0 -264 119q-53 73 -64 180h162q12 -53 35 -76q43 -43 135 -43q74 0 115 18q55 27 67 101zM841 -377h-270v258h270
v-258z" />
    <glyph glyph-name=".notdef.050" unicode="&#x1eb7;" 
d="M1016 803v-590q0 -88 16.5 -123t48.5 -45v-45h-311q-16 55 -20.5 72.5t-4.5 58.5q-65 -70 -127 -104q-98 -56 -225 -56q-137 0 -227 74q-105 86 -105 246q0 151 91 244q79 81 225 104l258 37q57 10 79.5 30.5t22.5 55.5q0 80 -65 108q-43 19 -123 19q-96 0 -139 -51
q-29 -33 -37 -101h-279q23 228 172 316q111 65 316 65q166 0 274 -55q160 -80 160 -260zM737 393v139q-22 -20 -62 -32.5t-134.5 -27.5t-134.5 -44q-58 -39 -58 -121q0 -67 45 -102q37 -29 86 -29q101 0 179.5 59.5t78.5 157.5zM773 1494h178q-14 -148 -116 -227
q-94 -72 -248 -72q-178 0 -264 119q-53 73 -64 180h162q12 -53 35 -76q43 -43 135 -43q74 0 115 18q55 27 67 101zM707 -377h-270v258h270v-258z" />
    <glyph glyph-name=".notdef.127" unicode="&#x1eb8;" horiz-adv-x="1430" 
d="M1237 1470v-258h-778v-311h717v-258h-717v-381h815v-262h-1118v1470h1081zM828 -377h-270v258h270v-258z" />
    <glyph glyph-name=".notdef.045" unicode="&#x1eb9;" 
d="M774 319h295q-51 -182 -197 -272q-120 -76 -282 -76q-250 0 -385 129q-156 150 -156 469q0 258 146 410q135 139 374 139q205 0 336 -112q176 -152 176 -486v-53h-745q14 -143 75.5 -204.5t178.5 -61.5q65 0 117.5 30.5t66.5 87.5zM344 655h442q-12 121 -79 181
q-58 49 -142 49q-194 0 -221 -230zM707 -377h-270v258h270v-258z" />
    <glyph glyph-name=".notdef.125" unicode="&#x1eba;" horiz-adv-x="1430" 
d="M1237 1470v-258h-778v-311h717v-258h-717v-381h815v-262h-1118v1470h1081zM633 1584q-1 39 2.5 70.5t11.5 55.5q17 47 77 89q48 33 48 72q0 35 -20 51t-46 16q-40 0 -55.5 -29t-15.5 -71l-160 -2q0 131 74 190h-1q61 49 152 49q74 0 137 -29q101 -56 101 -171
q0 -56 -28 -97q-23 -34 -83 -76q-25 -18 -37.5 -47t-11.5 -71h-145z" />
    <glyph glyph-name=".notdef.047" unicode="&#x1ebb;" 
d="M774 319h295q-51 -182 -197 -272q-120 -76 -282 -76q-250 0 -385 129q-156 150 -156 469q0 258 146 410q135 139 374 139q205 0 336 -112q176 -152 176 -486v-53h-745q14 -143 75.5 -204.5t178.5 -61.5q65 0 117.5 30.5t66.5 87.5zM344 655h442q-12 121 -79 181
q-58 49 -142 49q-194 0 -221 -230zM497 1199q-1 39 2.5 70.5t11.5 55.5q17 47 77 89q48 33 48 72q0 35 -20 51t-46 16q-40 0 -55.5 -29t-15.5 -71l-160 -2q0 131 74 190h-1q61 49 152 49q74 0 137 -29q101 -56 101 -171q0 -56 -28 -97q-23 -34 -83 -76q-25 -18 -37.5 -47
t-11.5 -71h-145z" />
    <glyph glyph-name=".notdef.126" unicode="&#x1ebc;" horiz-adv-x="1430" 
d="M1237 1470v-258h-778v-311h717v-258h-717v-381h815v-262h-1118v1470h1081zM1077 1881q-19 -131 -80 -201t-152 -70q-38 0 -71.5 8t-73.5 20q-20 7 -37.5 12.5t-33.5 10.5q-25 8 -45 13.5t-27 5.5q-17 0 -29.5 -7t-22.5 -18q-6 -9 -10.5 -23t-8.5 -37h-166q3 13 6.5 29.5
t5.5 26.5q2 9 4.5 19t5.5 18q6 20 19.5 45.5t27.5 48.5q33 42 78.5 65.5t109.5 25.5q38 2 70.5 -8.5t64.5 -27.5l6 -2q25 -13 57.5 -22.5t61.5 -9.5q35 0 52 22.5t26 55.5h162z" />
    <glyph glyph-name=".notdef.046" unicode="&#x1ebd;" 
d="M774 319h295q-51 -182 -197 -272q-120 -76 -282 -76q-250 0 -385 129q-156 150 -156 469q0 258 146 410q135 139 374 139q205 0 336 -112q176 -152 176 -486v-53h-745q14 -143 75.5 -204.5t178.5 -61.5q65 0 117.5 30.5t66.5 87.5zM344 655h442q-12 121 -79 181
q-58 49 -142 49q-194 0 -221 -230zM943 1531q-19 -131 -80 -201t-152 -70q-38 0 -71.5 8t-73.5 20q-20 7 -37.5 12.5t-33.5 10.5q-25 8 -45 13.5t-27 5.5q-17 0 -29.5 -7t-22.5 -18q-6 -9 -10.5 -23t-8.5 -37h-166q3 13 6.5 29.5t5.5 26.5q2 9 4.5 19t5.5 18q6 20 19.5 45.5
t27.5 48.5q33 42 78.5 65.5t109.5 25.5q38 2 70.5 -8.5t64.5 -27.5l6 -2q25 -13 57.5 -22.5t61.5 -9.5q35 0 52 22.5t26 55.5h162z" />
    <glyph glyph-name=".notdef.130" unicode="&#x1ebe;" horiz-adv-x="1430" 
d="M1237 1470v-258h-778v-311h717v-258h-717v-381h815v-262h-1118v1470h1081zM812 1895l233 -299h-233l-131 167l-127 -167h-234l234 299h258zM1451 2130l-303 -299h-205l193 299h315z" />
    <glyph glyph-name=".notdef.042" unicode="&#x1ebf;" 
d="M774 319h295q-51 -182 -197 -272q-120 -76 -282 -76q-250 0 -385 129q-156 150 -156 469q0 258 146 410q135 139 374 139q205 0 336 -112q176 -152 176 -486v-53h-745q14 -143 75.5 -204.5t178.5 -61.5q65 0 117.5 30.5t66.5 87.5zM344 655h442q-12 121 -79 181
q-58 49 -142 49q-194 0 -221 -230zM695 1514l233 -299h-233l-131 167l-127 -167h-234l234 299h258zM1334 1749l-303 -299h-205l193 299h315z" />
    <glyph glyph-name=".notdef.129" unicode="&#x1ec0;" horiz-adv-x="1430" 
d="M1237 1470v-258h-778v-311h717v-258h-717v-381h815v-262h-1118v1470h1081zM812 1895l233 -299h-233l-131 167l-127 -167h-234l234 299h258zM1040 1832l-303 299h315l193 -299h-205z" />
    <glyph glyph-name=".notdef.043" unicode="&#x1ec1;" 
d="M774 319h295q-51 -182 -197 -272q-120 -76 -282 -76q-250 0 -385 129q-156 150 -156 469q0 258 146 410q135 139 374 139q205 0 336 -112q176 -152 176 -486v-53h-745q14 -143 75.5 -204.5t178.5 -61.5q65 0 117.5 30.5t66.5 87.5zM344 655h442q-12 121 -79 181
q-58 49 -142 49q-194 0 -221 -230zM695 1514l233 -299h-233l-131 167l-127 -167h-234l234 299h258zM922 1451l-303 299h315l193 -299h-205z" />
    <glyph glyph-name=".notdef.131" unicode="&#x1ec2;" horiz-adv-x="1430" 
d="M1237 1470v-258h-778v-311h717v-258h-717v-381h815v-262h-1118v1470h1081zM812 1895l233 -299h-233l-131 167l-127 -167h-234l234 299h258zM972 1835q-1 39 2.5 70.5t11.5 55.5q17 47 77 89q48 33 48 72q0 35 -20 51t-46 16q-40 0 -55.5 -29t-15.5 -71l-160 -2
q0 131 74 190h-1q61 49 152 49q74 0 137 -29q101 -56 101 -171q0 -56 -28 -97q-23 -34 -83 -76q-25 -18 -37.5 -47t-11.5 -71h-145z" />
    <glyph glyph-name=".notdef.041" unicode="&#x1ec3;" 
d="M774 319h295q-51 -182 -197 -272q-120 -76 -282 -76q-250 0 -385 129q-156 150 -156 469q0 258 146 410q135 139 374 139q205 0 336 -112q176 -152 176 -486v-53h-745q14 -143 75.5 -204.5t178.5 -61.5q65 0 117.5 30.5t66.5 87.5zM344 655h442q-12 121 -79 181
q-58 49 -142 49q-194 0 -221 -230zM695 1514l233 -299h-233l-131 167l-127 -167h-234l234 299h258zM855 1454q-1 39 2.5 70.5t11.5 55.5q17 47 77 89q48 33 48 72q0 35 -20 51t-46 16q-40 0 -55.5 -29t-15.5 -71l-160 -2q0 131 74 190h-1q61 49 152 49q74 0 137 -29
q101 -56 101 -171q0 -56 -28 -97q-23 -34 -83 -76q-25 -18 -37.5 -47t-11.5 -71h-145z" />
    <glyph glyph-name=".notdef.132" unicode="&#x1ec4;" horiz-adv-x="1430" 
d="M1237 1470v-258h-778v-311h717v-258h-717v-381h815v-262h-1118v1470h1081zM812 1895l233 -299h-233l-131 167l-127 -167h-234l234 299h258zM1064 2264q-19 -131 -80 -201t-152 -70q-38 0 -71.5 8t-73.5 20q-20 7 -37.5 12.5t-33.5 10.5q-25 8 -45 13.5t-27 5.5
q-17 0 -29.5 -7t-22.5 -18q-6 -9 -10.5 -23t-8.5 -37h-166q3 13 6.5 29.5t5.5 26.5q2 9 4.5 19t5.5 18q6 20 19.5 45.5t27.5 48.5q33 42 78.5 65.5t109.5 25.5q38 2 70.5 -8.5t64.5 -27.5l6 -2q25 -13 57.5 -22.5t61.5 -9.5q35 0 52 22.5t26 55.5h162z" />
    <glyph glyph-name=".notdef.040" unicode="&#x1ec5;" 
d="M774 319h295q-51 -182 -197 -272q-120 -76 -282 -76q-250 0 -385 129q-156 150 -156 469q0 258 146 410q135 139 374 139q205 0 336 -112q176 -152 176 -486v-53h-745q14 -143 75.5 -204.5t178.5 -61.5q65 0 117.5 30.5t66.5 87.5zM344 655h442q-12 121 -79 181
q-58 49 -142 49q-194 0 -221 -230zM695 1514l233 -299h-233l-131 167l-127 -167h-234l234 299h258zM947 1883q-19 -131 -80 -201t-152 -70q-38 0 -71.5 8t-73.5 20q-20 7 -37.5 12.5t-33.5 10.5q-25 8 -45 13.5t-27 5.5q-17 0 -29.5 -7t-22.5 -18q-6 -9 -10.5 -23t-8.5 -37
h-166q3 13 6.5 29.5t5.5 26.5q2 9 4.5 19t5.5 18q6 20 19.5 45.5t27.5 48.5q33 42 78.5 65.5t109.5 25.5q38 2 70.5 -8.5t64.5 -27.5l6 -2q25 -13 57.5 -22.5t61.5 -9.5q35 0 52 22.5t26 55.5h162z" />
    <glyph glyph-name=".notdef.105" unicode="&#x1ec6;" horiz-adv-x="1430" 
d="M1237 1470v-258h-778v-311h717v-258h-717v-381h815v-262h-1118v1470h1081zM812 1895l233 -299h-233l-131 167l-127 -167h-234l234 299h258zM828 -377h-270v258h270v-258z" />
    <glyph glyph-name=".notdef.039" unicode="&#x1ec7;" 
d="M774 319h295q-51 -182 -197 -272q-120 -76 -282 -76q-250 0 -385 129q-156 150 -156 469q0 258 146 410q135 139 374 139q205 0 336 -112q176 -152 176 -486v-53h-745q14 -143 75.5 -204.5t178.5 -61.5q65 0 117.5 30.5t66.5 87.5zM344 655h442q-12 121 -79 181
q-58 49 -142 49q-194 0 -221 -230zM695 1514l233 -299h-233l-131 167l-127 -167h-234l234 299h258zM707 -377h-270v258h270v-258z" />
    <glyph glyph-name=".notdef.102" unicode="&#x1ec8;" horiz-adv-x="602" 
d="M438 1470v-1470h-307v1470h307zM206 1584q-1 39 2.5 70.5t11.5 55.5q17 47 77 89q48 33 48 72q0 35 -20 51t-46 16q-40 0 -55.5 -29t-15.5 -71l-160 -2q0 131 74 190h-1q61 49 152 49q74 0 137 -29q101 -56 101 -171q0 -56 -28 -97q-23 -34 -83 -76q-25 -18 -37.5 -47
t-11.5 -71h-145z" />
    <glyph glyph-name=".notdef.036" unicode="&#x1ec9;" horiz-adv-x="602" 
d="M143 1090h287v-1090h-287v1090zM210 1199q-1 39 2.5 70.5t11.5 55.5q17 47 77 89q48 33 48 72q0 35 -20 51t-46 16q-40 0 -55.5 -29t-15.5 -71l-160 -2q0 131 74 190h-1q61 49 152 49q74 0 137 -29q101 -56 101 -171q0 -56 -28 -97q-23 -34 -83 -76q-25 -18 -37.5 -47
t-11.5 -71h-145z" />
    <glyph glyph-name=".notdef.100" unicode="&#x1eca;" horiz-adv-x="602" 
d="M438 1470v-1470h-307v1470h307zM419 -377h-270v258h270v-258z" />
    <glyph glyph-name=".notdef.034" unicode="&#x1ecb;" horiz-adv-x="602" 
d="M143 1090h287v-1090h-287v1090zM430 1487v-266h-287v266h287zM424 -377h-270v258h270v-258z" />
    <glyph glyph-name=".notdef.095" unicode="&#x1ecc;" horiz-adv-x="1548" 
d="M86 737q0 314 139 506q109 152 297 219q135 49 273 49q139 0 268 -47q188 -69 297 -219q139 -192 139 -508q0 -313 -139 -508q-109 -151 -297 -221q-133 -49 -268 -49q-142 0 -271 47q-188 70 -297 219q-141 197 -141 512zM393 737q0 -278 137 -413q105 -103 265 -103
q155 0 260 103q137 135 137 413q0 277 -137 410q-105 102 -260 102q-156 0 -263 -102q-139 -135 -139 -410zM923 -377h-270v258h270v-258z" />
    <glyph glyph-name=".notdef.029" unicode="&#x1ecd;" horiz-adv-x="1245" 
d="M1192 545q0 -281 -168 -434q-152 -140 -389 -140q-236 0 -387 140q-170 155 -170 434q0 280 168 434q151 139 389 139q237 0 389 -139q168 -154 168 -434zM897 545q0 135 -47 217q-66 115 -215 115q-148 0 -213 -113q-49 -86 -49 -219q0 -135 47 -217q65 -115 215 -115
q147 0 213 113q49 86 49 219zM766 -377h-270v258h270v-258z" />
    <glyph glyph-name=".notdef.097" unicode="&#x1ece;" horiz-adv-x="1548" 
d="M86 737q0 314 139 506q109 152 297 219q135 49 273 49q139 0 268 -47q188 -69 297 -219q139 -192 139 -508q0 -313 -139 -508q-109 -151 -297 -221q-133 -49 -268 -49q-142 0 -271 47q-188 70 -297 219q-141 197 -141 512zM393 737q0 -278 137 -413q105 -103 265 -103
q155 0 260 103q137 135 137 413q0 277 -137 410q-105 102 -260 102q-156 0 -263 -102q-139 -135 -139 -410zM719 1584q-1 39 2.5 70.5t11.5 55.5q17 47 77 89q48 33 48 72q0 35 -20 51t-46 16q-40 0 -55.5 -29t-15.5 -71l-160 -2q0 131 74 190h-1q61 49 152 49q74 0 137 -29
q101 -56 101 -171q0 -56 -28 -97q-23 -34 -83 -76q-25 -18 -37.5 -47t-11.5 -71h-145z" />
    <glyph glyph-name=".notdef.031" unicode="&#x1ecf;" horiz-adv-x="1245" 
d="M1192 545q0 -281 -168 -434q-152 -140 -389 -140q-236 0 -387 140q-170 155 -170 434q0 280 168 434q151 139 389 139q237 0 389 -139q168 -154 168 -434zM897 545q0 135 -47 217q-66 115 -215 115q-148 0 -213 -113q-49 -86 -49 -219q0 -135 47 -217q65 -115 215 -115
q147 0 213 113q49 86 49 219zM557 1199q-1 39 2.5 70.5t11.5 55.5q17 47 77 89q48 33 48 72q0 35 -20 51t-46 16q-40 0 -55.5 -29t-15.5 -71l-160 -2q0 131 74 190h-1q61 49 152 49q74 0 137 -29q101 -56 101 -171q0 -56 -28 -97q-23 -34 -83 -76q-25 -18 -37.5 -47
t-11.5 -71h-145z" />
    <glyph glyph-name=".notdef.092" unicode="&#x1ed0;" horiz-adv-x="1548" 
d="M86 737q0 314 139 506q109 152 297 219q135 49 273 49q139 0 268 -47q188 -69 297 -219q139 -192 139 -508q0 -313 -139 -508q-109 -151 -297 -221q-133 -49 -268 -49q-142 0 -271 47q-188 70 -297 219q-141 197 -141 512zM393 737q0 -278 137 -413q105 -103 265 -103
q155 0 260 103q137 135 137 413q0 277 -137 410q-105 102 -260 102q-156 0 -263 -102q-139 -135 -139 -410zM925 1895l233 -299h-233l-131 167l-127 -167h-234l234 299h258zM1564 2130l-303 -299h-205l193 299h315z" />
    <glyph glyph-name=".notdef.026" unicode="&#x1ed1;" horiz-adv-x="1245" 
d="M1192 545q0 -281 -168 -434q-152 -140 -389 -140q-236 0 -387 140q-170 155 -170 434q0 280 168 434q151 139 389 139q237 0 389 -139q168 -154 168 -434zM897 545q0 135 -47 217q-66 115 -215 115q-148 0 -213 -113q-49 -86 -49 -219q0 -135 47 -217q65 -115 215 -115
q147 0 213 113q49 86 49 219zM766 1514l233 -299h-233l-131 167l-127 -167h-234l234 299h258zM1405 1749l-303 -299h-205l193 299h315z" />
    <glyph glyph-name=".notdef.093" unicode="&#x1ed2;" horiz-adv-x="1548" 
d="M86 737q0 314 139 506q109 152 297 219q135 49 273 49q139 0 268 -47q188 -69 297 -219q139 -192 139 -508q0 -313 -139 -508q-109 -151 -297 -221q-133 -49 -268 -49q-142 0 -271 47q-188 70 -297 219q-141 197 -141 512zM393 737q0 -278 137 -413q105 -103 265 -103
q155 0 260 103q137 135 137 413q0 277 -137 410q-105 102 -260 102q-156 0 -263 -102q-139 -135 -139 -410zM925 1895l233 -299h-233l-131 167l-127 -167h-234l234 299h258zM1152 1832l-303 299h315l193 -299h-205z" />
    <glyph glyph-name=".notdef.027" unicode="&#x1ed3;" horiz-adv-x="1245" 
d="M1192 545q0 -281 -168 -434q-152 -140 -389 -140q-236 0 -387 140q-170 155 -170 434q0 280 168 434q151 139 389 139q237 0 389 -139q168 -154 168 -434zM897 545q0 135 -47 217q-66 115 -215 115q-148 0 -213 -113q-49 -86 -49 -219q0 -135 47 -217q65 -115 215 -115
q147 0 213 113q49 86 49 219zM766 1514l233 -299h-233l-131 167l-127 -167h-234l234 299h258zM993 1451l-303 299h315l193 -299h-205z" />
    <glyph glyph-name=".notdef.091" unicode="&#x1ed4;" horiz-adv-x="1548" 
d="M86 737q0 314 139 506q109 152 297 219q135 49 273 49q139 0 268 -47q188 -69 297 -219q139 -192 139 -508q0 -313 -139 -508q-109 -151 -297 -221q-133 -49 -268 -49q-142 0 -271 47q-188 70 -297 219q-141 197 -141 512zM393 737q0 -278 137 -413q105 -103 265 -103
q155 0 260 103q137 135 137 413q0 277 -137 410q-105 102 -260 102q-156 0 -263 -102q-139 -135 -139 -410zM925 1895l233 -299h-233l-131 167l-127 -167h-234l234 299h258zM1085 1835q-1 39 2.5 70.5t11.5 55.5q17 47 77 89q48 33 48 72q0 35 -20 51t-46 16
q-40 0 -55.5 -29t-15.5 -71l-160 -2q0 131 74 190h-1q61 49 152 49q74 0 137 -29q101 -56 101 -171q0 -56 -28 -97q-23 -34 -83 -76q-25 -18 -37.5 -47t-11.5 -71h-145z" />
    <glyph glyph-name=".notdef.025" unicode="&#x1ed5;" horiz-adv-x="1245" 
d="M1192 545q0 -281 -168 -434q-152 -140 -389 -140q-236 0 -387 140q-170 155 -170 434q0 280 168 434q151 139 389 139q237 0 389 -139q168 -154 168 -434zM897 545q0 135 -47 217q-66 115 -215 115q-148 0 -213 -113q-49 -86 -49 -219q0 -135 47 -217q65 -115 215 -115
q147 0 213 113q49 86 49 219zM766 1514l233 -299h-233l-131 167l-127 -167h-234l234 299h258zM926 1454q-1 39 2.5 70.5t11.5 55.5q17 47 77 89q48 33 48 72q0 35 -20 51t-46 16q-40 0 -55.5 -29t-15.5 -71l-160 -2q0 131 74 190h-1q61 49 152 49q74 0 137 -29
q101 -56 101 -171q0 -56 -28 -97q-23 -34 -83 -76q-25 -18 -37.5 -47t-11.5 -71h-145z" />
    <glyph glyph-name=".notdef.090" unicode="&#x1ed6;" horiz-adv-x="1548" 
d="M86 737q0 314 139 506q109 152 297 219q135 49 273 49q139 0 268 -47q188 -69 297 -219q139 -192 139 -508q0 -313 -139 -508q-109 -151 -297 -221q-133 -49 -268 -49q-142 0 -271 47q-188 70 -297 219q-141 197 -141 512zM393 737q0 -278 137 -413q105 -103 265 -103
q155 0 260 103q137 135 137 413q0 277 -137 410q-105 102 -260 102q-156 0 -263 -102q-139 -135 -139 -410zM925 1895l233 -299h-233l-131 167l-127 -167h-234l234 299h258zM1176 2264q-19 -131 -80 -201t-152 -70q-38 0 -71.5 8t-73.5 20q-20 7 -37.5 12.5t-33.5 10.5
q-25 8 -45 13.5t-27 5.5q-17 0 -29.5 -7t-22.5 -18q-6 -9 -10.5 -23t-8.5 -37h-166q3 13 6.5 29.5t5.5 26.5q2 9 4.5 19t5.5 18q6 20 19.5 45.5t27.5 48.5q33 42 78.5 65.5t109.5 25.5q38 2 70.5 -8.5t64.5 -27.5l6 -2q25 -13 57.5 -22.5t61.5 -9.5q35 0 52 22.5t26 55.5
h162z" />
    <glyph glyph-name=".notdef.024" unicode="&#x1ed7;" horiz-adv-x="1245" 
d="M1192 545q0 -281 -168 -434q-152 -140 -389 -140q-236 0 -387 140q-170 155 -170 434q0 280 168 434q151 139 389 139q237 0 389 -139q168 -154 168 -434zM897 545q0 135 -47 217q-66 115 -215 115q-148 0 -213 -113q-49 -86 -49 -219q0 -135 47 -217q65 -115 215 -115
q147 0 213 113q49 86 49 219zM766 1514l233 -299h-233l-131 167l-127 -167h-234l234 299h258zM1018 1883q-19 -131 -80 -201t-152 -70q-38 0 -71.5 8t-73.5 20q-20 7 -37.5 12.5t-33.5 10.5q-25 8 -45 13.5t-27 5.5q-17 0 -29.5 -7t-22.5 -18q-6 -9 -10.5 -23t-8.5 -37h-166
q3 13 6.5 29.5t5.5 26.5q2 9 4.5 19t5.5 18q6 20 19.5 45.5t27.5 48.5q33 42 78.5 65.5t109.5 25.5q38 2 70.5 -8.5t64.5 -27.5l6 -2q25 -13 57.5 -22.5t61.5 -9.5q35 0 52 22.5t26 55.5h162z" />
    <glyph glyph-name=".notdef.089" unicode="&#x1ed8;" horiz-adv-x="1548" 
d="M86 737q0 314 139 506q109 152 297 219q135 49 273 49q139 0 268 -47q188 -69 297 -219q139 -192 139 -508q0 -313 -139 -508q-109 -151 -297 -221q-133 -49 -268 -49q-142 0 -271 47q-188 70 -297 219q-141 197 -141 512zM393 737q0 -278 137 -413q105 -103 265 -103
q155 0 260 103q137 135 137 413q0 277 -137 410q-105 102 -260 102q-156 0 -263 -102q-139 -135 -139 -410zM925 1895l233 -299h-233l-131 167l-127 -167h-234l234 299h258zM923 -377h-270v258h270v-258z" />
    <glyph glyph-name=".notdef.023" unicode="&#x1ed9;" horiz-adv-x="1245" 
d="M1192 545q0 -281 -168 -434q-152 -140 -389 -140q-236 0 -387 140q-170 155 -170 434q0 280 168 434q151 139 389 139q237 0 389 -139q168 -154 168 -434zM897 545q0 135 -47 217q-66 115 -215 115q-148 0 -213 -113q-49 -86 -49 -219q0 -135 47 -217q65 -115 215 -115
q147 0 213 113q49 86 49 219zM766 1514l233 -299h-233l-131 167l-127 -167h-234l234 299h258zM766 -377h-270v258h270v-258z" />
    <glyph glyph-name=".notdef.075" unicode="&#x1eda;" horiz-adv-x="1548" 
d="M1249 1364q43 22 66.5 72.5t23.5 99.5h-106v168h242v-172q0 -84 -25 -135q-33 -68 -119 -111q82 -90 125 -224t43 -325q0 -313 -139 -508q-109 -151 -297 -221q-133 -49 -268 -49q-142 0 -271 47q-188 70 -297 219q-141 197 -141 512q0 314 139 506q109 152 297 219
q135 49 273 49q108 0 204 -24q142 -37 250 -123zM393 737q0 -278 137 -413q105 -103 265 -103q155 0 260 103q137 135 137 413q0 277 -137 410q-105 102 -260 102q-156 0 -263 -102q-139 -135 -139 -410zM1094 1894l-303 -299h-205l193 299h315z" />
    <glyph glyph-name=".notdef.009" unicode="&#x1edb;" horiz-adv-x="1245" 
d="M995 987q43 23 64.5 68t21.5 92h-106v168h242v-172q0 -76 -31 -124t-121 -93q127 -146 127 -381q0 -281 -168 -434q-152 -140 -389 -140q-236 0 -387 140q-170 155 -170 434q0 280 168 434q151 139 389 139q98 0 189 -33.5t171 -97.5zM897 545q0 135 -47 217
q-66 115 -215 115q-148 0 -213 -113q-49 -86 -49 -219q0 -135 47 -217q65 -115 215 -115q147 0 213 113q49 86 49 219zM938 1516l-303 -299h-205l193 299h315z" />
    <glyph glyph-name=".notdef.076" unicode="&#x1edc;" horiz-adv-x="1548" 
d="M1249 1364q43 22 66.5 72.5t23.5 99.5h-106v168h242v-172q0 -84 -25 -135q-33 -68 -119 -111q82 -90 125 -224t43 -325q0 -313 -139 -508q-109 -151 -297 -221q-133 -49 -268 -49q-142 0 -271 47q-188 70 -297 219q-141 197 -141 512q0 314 139 506q109 152 297 219
q135 49 273 49q108 0 204 -24q142 -37 250 -123zM393 737q0 -278 137 -413q105 -103 265 -103q155 0 260 103q137 135 137 413q0 277 -137 410q-105 102 -260 102q-156 0 -263 -102q-139 -135 -139 -410zM790 1596l-303 299h315l193 -299h-205z" />
    <glyph glyph-name=".notdef.010" unicode="&#x1edd;" horiz-adv-x="1245" 
d="M995 987q43 23 64.5 68t21.5 92h-106v168h242v-172q0 -76 -31 -124t-121 -93q127 -146 127 -381q0 -281 -168 -434q-152 -140 -389 -140q-236 0 -387 140q-170 155 -170 434q0 280 168 434q151 139 389 139q98 0 189 -33.5t171 -97.5zM897 545q0 135 -47 217
q-66 115 -215 115q-148 0 -213 -113q-49 -86 -49 -219q0 -135 47 -217q65 -115 215 -115q147 0 213 113q49 86 49 219zM630 1216l-303 299h315l193 -299h-205z" />
    <glyph glyph-name=".notdef.074" unicode="&#x1ede;" horiz-adv-x="1548" 
d="M1249 1364q43 22 66.5 72.5t23.5 99.5h-106v168h242v-172q0 -84 -25 -135q-33 -68 -119 -111q82 -90 125 -224t43 -325q0 -313 -139 -508q-109 -151 -297 -221q-133 -49 -268 -49q-142 0 -271 47q-188 70 -297 219q-141 197 -141 512q0 314 139 506q109 152 297 219
q135 49 273 49q108 0 204 -24q142 -37 250 -123zM393 737q0 -278 137 -413q105 -103 265 -103q155 0 260 103q137 135 137 413q0 277 -137 410q-105 102 -260 102q-156 0 -263 -102q-139 -135 -139 -410zM719 1584q-1 39 2.5 70.5t11.5 55.5q17 47 77 89q48 33 48 72
q0 35 -20 51t-46 16q-40 0 -55.5 -29t-15.5 -71l-160 -2q0 131 74 190h-1q61 49 152 49q74 0 137 -29q101 -56 101 -171q0 -56 -28 -97q-23 -34 -83 -76q-25 -18 -37.5 -47t-11.5 -71h-145z" />
    <glyph glyph-name=".notdef.008" unicode="&#x1edf;" horiz-adv-x="1245" 
d="M995 987q43 23 64.5 68t21.5 92h-106v168h242v-172q0 -76 -31 -124t-121 -93q127 -146 127 -381q0 -281 -168 -434q-152 -140 -389 -140q-236 0 -387 140q-170 155 -170 434q0 280 168 434q151 139 389 139q98 0 189 -33.5t171 -97.5zM897 545q0 135 -47 217
q-66 115 -215 115q-148 0 -213 -113q-49 -86 -49 -219q0 -135 47 -217q65 -115 215 -115q147 0 213 113q49 86 49 219zM557 1199q-1 39 2.5 70.5t11.5 55.5q17 47 77 89q48 33 48 72q0 35 -20 51t-46 16q-40 0 -55.5 -29t-15.5 -71l-160 -2q0 131 74 190h-1q61 49 152 49
q74 0 137 -29q101 -56 101 -171q0 -56 -28 -97q-23 -34 -83 -76q-25 -18 -37.5 -47t-11.5 -71h-145z" />
    <glyph glyph-name=".notdef.073" unicode="&#x1ee0;" horiz-adv-x="1548" 
d="M1249 1364q43 22 66.5 72.5t23.5 99.5h-106v168h242v-172q0 -84 -25 -135q-33 -68 -119 -111q82 -90 125 -224t43 -325q0 -313 -139 -508q-109 -151 -297 -221q-133 -49 -268 -49q-142 0 -271 47q-188 70 -297 219q-141 197 -141 512q0 314 139 506q109 152 297 219
q135 49 273 49q108 0 204 -24q142 -37 250 -123zM393 737q0 -278 137 -413q105 -103 265 -103q155 0 260 103q137 135 137 413q0 277 -137 410q-105 102 -260 102q-156 0 -263 -102q-139 -135 -139 -410zM1170 1881q-19 -131 -80 -201t-152 -70q-38 0 -71.5 8t-73.5 20
q-20 7 -37.5 12.5t-33.5 10.5q-25 8 -45 13.5t-27 5.5q-17 0 -29.5 -7t-22.5 -18q-6 -9 -10.5 -23t-8.5 -37h-166q3 13 6.5 29.5t5.5 26.5q2 9 4.5 19t5.5 18q6 20 19.5 45.5t27.5 48.5q33 42 78.5 65.5t109.5 25.5q38 2 70.5 -8.5t64.5 -27.5l6 -2q25 -13 57.5 -22.5
t61.5 -9.5q35 0 52 22.5t26 55.5h162z" />
    <glyph glyph-name=".notdef.007" unicode="&#x1ee1;" horiz-adv-x="1245" 
d="M995 987q43 23 64.5 68t21.5 92h-106v168h242v-172q0 -76 -31 -124t-121 -93q127 -146 127 -381q0 -281 -168 -434q-152 -140 -389 -140q-236 0 -387 140q-170 155 -170 434q0 280 168 434q151 139 389 139q98 0 189 -33.5t171 -97.5zM897 545q0 135 -47 217
q-66 115 -215 115q-148 0 -213 -113q-49 -86 -49 -219q0 -135 47 -217q65 -115 215 -115q147 0 213 113q49 86 49 219zM1004 1531q-19 -131 -80 -201t-152 -70q-38 0 -71.5 8t-73.5 20q-20 7 -37.5 12.5t-33.5 10.5q-25 8 -45 13.5t-27 5.5q-17 0 -29.5 -7t-22.5 -18
q-6 -9 -10.5 -23t-8.5 -37h-166q3 13 6.5 29.5t5.5 26.5q2 9 4.5 19t5.5 18q6 20 19.5 45.5t27.5 48.5q33 42 78.5 65.5t109.5 25.5q38 2 70.5 -8.5t64.5 -27.5l6 -2q25 -13 57.5 -22.5t61.5 -9.5q35 0 52 22.5t26 55.5h162z" />
    <glyph glyph-name=".notdef.072" unicode="&#x1ee2;" horiz-adv-x="1548" 
d="M1249 1364q43 22 66.5 72.5t23.5 99.5h-106v168h242v-172q0 -84 -25 -135q-33 -68 -119 -111q82 -90 125 -224t43 -325q0 -313 -139 -508q-109 -151 -297 -221q-133 -49 -268 -49q-142 0 -271 47q-188 70 -297 219q-141 197 -141 512q0 314 139 506q109 152 297 219
q135 49 273 49q108 0 204 -24q142 -37 250 -123zM393 737q0 -278 137 -413q105 -103 265 -103q155 0 260 103q137 135 137 413q0 277 -137 410q-105 102 -260 102q-156 0 -263 -102q-139 -135 -139 -410zM923 -377h-270v258h270v-258z" />
    <glyph glyph-name=".notdef.006" unicode="&#x1ee3;" horiz-adv-x="1245" 
d="M995 987q43 23 64.5 68t21.5 92h-106v168h242v-172q0 -76 -31 -124t-121 -93q127 -146 127 -381q0 -281 -168 -434q-152 -140 -389 -140q-236 0 -387 140q-170 155 -170 434q0 280 168 434q151 139 389 139q98 0 189 -33.5t171 -97.5zM897 545q0 135 -47 217
q-66 115 -215 115q-148 0 -213 -113q-49 -86 -49 -219q0 -135 47 -217q65 -115 215 -115q147 0 213 113q49 86 49 219zM766 -377h-270v258h270v-258z" />
    <glyph glyph-name=".notdef.084" unicode="&#x1ee4;" horiz-adv-x="1479" 
d="M1323 1470v-954q0 -285 -162 -424q-153 -133 -444 -133q-125 0 -234 35q-145 47 -233 145q-115 133 -115 357v974h316v-954q0 -145 73.5 -220t188.5 -75q151 0 223 72t72 211v966h315zM846 -377h-270v258h270v-258z" />
    <glyph glyph-name=".notdef.018" unicode="&#x1ee5;" horiz-adv-x="1245" 
d="M1126 1090v-1090h-274v156q-109 -185 -336 -185q-172 0 -268 97q-105 102 -105 305v717h287v-676q0 -115 59 -164q46 -37 129 -37q87 0 146 51q76 66 76 199v627h286zM766 -377h-270v258h270v-258z" />
    <glyph glyph-name=".notdef.086" unicode="&#x1ee6;" horiz-adv-x="1479" 
d="M1323 1470v-954q0 -285 -162 -424q-153 -133 -444 -133q-125 0 -234 35q-145 47 -233 145q-115 133 -115 357v974h316v-954q0 -145 73.5 -220t188.5 -75q151 0 223 72t72 211v966h315zM657 1584q-1 39 2.5 70.5t11.5 55.5q17 47 77 89q48 33 48 72q0 35 -20 51t-46 16
q-40 0 -55.5 -29t-15.5 -71l-160 -2q0 131 74 190h-1q61 49 152 49q74 0 137 -29q101 -56 101 -171q0 -56 -28 -97q-23 -34 -83 -76q-25 -18 -37.5 -47t-11.5 -71h-145z" />
    <glyph glyph-name=".notdef.020" unicode="&#x1ee7;" horiz-adv-x="1245" 
d="M1126 1090v-1090h-274v156q-109 -185 -336 -185q-172 0 -268 97q-105 102 -105 305v717h287v-676q0 -115 59 -164q46 -37 129 -37q87 0 146 51q76 66 76 199v627h286zM568 1199q-1 39 2.5 70.5t11.5 55.5q17 47 77 89q48 33 48 72q0 35 -20 51t-46 16q-40 0 -55.5 -29
t-15.5 -71l-160 -2q0 131 74 190h-1q61 49 152 49q74 0 137 -29q101 -56 101 -171q0 -56 -28 -97q-23 -34 -83 -76q-25 -18 -37.5 -47t-11.5 -71h-145z" />
    <glyph glyph-name=".notdef.081" unicode="&#x1ee8;" horiz-adv-x="1479" 
d="M1323 1409q41 23 51 50.5t10 80.5h-106v168h242v-172q0 -152 -197 -250v-770q0 -285 -162 -424q-153 -133 -444 -133q-125 0 -234 35q-145 47 -233 145q-115 133 -115 357v974h316v-954q0 -145 73.5 -220t188.5 -75q151 0 223 72t72 211v966h315v-61zM1057 1894
l-303 -299h-205l193 299h315z" />
    <glyph glyph-name=".notdef.015" unicode="&#x1ee9;" horiz-adv-x="1245" 
d="M1126 1057q41 22 51.5 52t10.5 83h-107v168h242v-172q0 -70 -49 -125t-148 -105v-958h-274v156q-109 -185 -336 -185q-172 0 -268 97q-105 102 -105 305v717h287v-676q0 -115 59 -164q46 -37 129 -37q87 0 146 51q76 66 76 199v627h286v-33zM942 1516l-303 -299h-205
l193 299h315z" />
    <glyph glyph-name=".notdef.082" unicode="&#x1eea;" horiz-adv-x="1479" 
d="M1323 1409q41 23 51 50.5t10 80.5h-106v168h242v-172q0 -152 -197 -250v-770q0 -285 -162 -424q-153 -133 -444 -133q-125 0 -234 35q-145 47 -233 145q-115 133 -115 357v974h316v-954q0 -145 73.5 -220t188.5 -75q151 0 223 72t72 211v966h315v-61zM655 1596l-303 299
h315l193 -299h-205z" />
    <glyph glyph-name=".notdef.016" unicode="&#x1eeb;" horiz-adv-x="1245" 
d="M1126 1057q41 22 51.5 52t10.5 83h-107v168h242v-172q0 -70 -49 -125t-148 -105v-958h-274v156q-109 -185 -336 -185q-172 0 -268 97q-105 102 -105 305v717h287v-676q0 -115 59 -164q46 -37 129 -37q87 0 146 51q76 66 76 199v627h286v-33zM628 1216l-303 299h315
l193 -299h-205z" />
    <glyph glyph-name=".notdef.080" unicode="&#x1eec;" horiz-adv-x="1479" 
d="M1323 1409q41 23 51 50.5t10 80.5h-106v168h242v-172q0 -152 -197 -250v-770q0 -285 -162 -424q-153 -133 -444 -133q-125 0 -234 35q-145 47 -233 145q-115 133 -115 357v974h316v-954q0 -145 73.5 -220t188.5 -75q151 0 223 72t72 211v966h315v-61zM657 1584
q-1 39 2.5 70.5t11.5 55.5q17 47 77 89q48 33 48 72q0 35 -20 51t-46 16q-40 0 -55.5 -29t-15.5 -71l-160 -2q0 131 74 190h-1q61 49 152 49q74 0 137 -29q101 -56 101 -171q0 -56 -28 -97q-23 -34 -83 -76q-25 -18 -37.5 -47t-11.5 -71h-145z" />
    <glyph glyph-name=".notdef.014" unicode="&#x1eed;" horiz-adv-x="1245" 
d="M1126 1057q41 22 51.5 52t10.5 83h-107v168h242v-172q0 -70 -49 -125t-148 -105v-958h-274v156q-109 -185 -336 -185q-172 0 -268 97q-105 102 -105 305v717h287v-676q0 -115 59 -164q46 -37 129 -37q87 0 146 51q76 66 76 199v627h286v-33zM568 1199q-1 39 2.5 70.5
t11.5 55.5q17 47 77 89q48 33 48 72q0 35 -20 51t-46 16q-40 0 -55.5 -29t-15.5 -71l-160 -2q0 131 74 190h-1q61 49 152 49q74 0 137 -29q101 -56 101 -171q0 -56 -28 -97q-23 -34 -83 -76q-25 -18 -37.5 -47t-11.5 -71h-145z" />
    <glyph glyph-name=".notdef.079" unicode="&#x1eee;" horiz-adv-x="1479" 
d="M1323 1409q41 23 51 50.5t10 80.5h-106v168h242v-172q0 -152 -197 -250v-770q0 -285 -162 -424q-153 -133 -444 -133q-125 0 -234 35q-145 47 -233 145q-115 133 -115 357v974h316v-954q0 -145 73.5 -220t188.5 -75q151 0 223 72t72 211v966h315v-61zM1135 1881
q-19 -131 -80 -201t-152 -70q-38 0 -71.5 8t-73.5 20q-20 7 -37.5 12.5t-33.5 10.5q-25 8 -45 13.5t-27 5.5q-17 0 -29.5 -7t-22.5 -18q-6 -9 -10.5 -23t-8.5 -37h-166q3 13 6.5 29.5t5.5 26.5q2 9 4.5 19t5.5 18q6 20 19.5 45.5t27.5 48.5q33 42 78.5 65.5t109.5 25.5
q38 2 70.5 -8.5t64.5 -27.5l6 -2q25 -13 57.5 -22.5t61.5 -9.5q35 0 52 22.5t26 55.5h162z" />
    <glyph glyph-name=".notdef.013" unicode="&#x1eef;" horiz-adv-x="1245" 
d="M1126 1057q41 22 51.5 52t10.5 83h-107v168h242v-172q0 -70 -49 -125t-148 -105v-958h-274v156q-109 -185 -336 -185q-172 0 -268 97q-105 102 -105 305v717h287v-676q0 -115 59 -164q46 -37 129 -37q87 0 146 51q76 66 76 199v627h286v-33zM1014 1531q-19 -131 -80 -201
t-152 -70q-38 0 -71.5 8t-73.5 20q-20 7 -37.5 12.5t-33.5 10.5q-25 8 -45 13.5t-27 5.5q-17 0 -29.5 -7t-22.5 -18q-6 -9 -10.5 -23t-8.5 -37h-166q3 13 6.5 29.5t5.5 26.5q2 9 4.5 19t5.5 18q6 20 19.5 45.5t27.5 48.5q33 42 78.5 65.5t109.5 25.5q38 2 70.5 -8.5
t64.5 -27.5l6 -2q25 -13 57.5 -22.5t61.5 -9.5q35 0 52 22.5t26 55.5h162z" />
    <glyph glyph-name=".notdef.078" unicode="&#x1ef0;" horiz-adv-x="1479" 
d="M1323 1409q41 23 51 50.5t10 80.5h-106v168h242v-172q0 -152 -197 -250v-770q0 -285 -162 -424q-153 -133 -444 -133q-125 0 -234 35q-145 47 -233 145q-115 133 -115 357v974h316v-954q0 -145 73.5 -220t188.5 -75q151 0 223 72t72 211v966h315v-61zM846 -377h-270v258
h270v-258z" />
    <glyph glyph-name=".notdef.012" unicode="&#x1ef1;" horiz-adv-x="1245" 
d="M1126 1057q41 22 51.5 52t10.5 83h-107v168h242v-172q0 -70 -49 -125t-148 -105v-958h-274v156q-109 -185 -336 -185q-172 0 -268 97q-105 102 -105 305v717h287v-676q0 -115 59 -164q46 -37 129 -37q87 0 146 51q76 66 76 199v627h286v-33zM766 -377h-270v258h270v-258z
" />
    <glyph glyph-name=".notdef.071" unicode="&#x1ef2;" horiz-adv-x="1430" 
d="M848 553v-553h-307v557l-508 913h360l307 -639l291 639h348zM639 1596l-303 299h315l193 -299h-205z" />
    <glyph glyph-name=".notdef.005" unicode="&#x1ef3;" 
d="M1106 1090l-377 -1070q-102 -307 -169.5 -382.5t-252.5 -75.5h-45h-51q-23 4 -31 4v229q13 -4 53 -4q91 0 125 25q48 32 64 139l-402 1135h320l233 -803l230 803h303zM523 1216l-303 299h315l193 -299h-205z" />
    <glyph glyph-name=".notdef.067" unicode="&#x1ef4;" horiz-adv-x="1430" 
d="M848 553v-553h-307v557l-508 913h360l307 -639l291 639h348zM834 -377h-270v258h270v-258z" />
    <glyph glyph-name=".notdef.001" unicode="&#x1ef5;" 
d="M1106 1090l-377 -1070q-102 -307 -169.5 -382.5t-252.5 -75.5h-45h-51q-23 4 -31 4v229q13 -4 53 -4q91 0 125 25q48 32 64 139l-402 1135h320l233 -803l230 803h303zM1023 -377h-270v258h270v-258z" />
    <glyph glyph-name=".notdef.069" unicode="&#x1ef6;" horiz-adv-x="1430" 
d="M848 553v-553h-307v557l-508 913h360l307 -639l291 639h348zM627 1584q-1 39 2.5 70.5t11.5 55.5q17 47 77 89q48 33 48 72q0 35 -20 51t-46 16q-40 0 -55.5 -29t-15.5 -71l-160 -2q0 131 74 190h-1q61 49 152 49q74 0 137 -29q101 -56 101 -171q0 -56 -28 -97
q-23 -34 -83 -76q-25 -18 -37.5 -47t-11.5 -71h-145z" />
    <glyph glyph-name=".notdef.003" unicode="&#x1ef7;" 
d="M1106 1090l-377 -1070q-102 -307 -169.5 -382.5t-252.5 -75.5h-45h-51q-23 4 -31 4v229q13 -4 53 -4q91 0 125 25q48 32 64 139l-402 1135h320l233 -803l230 803h303zM504 1199q-1 39 2.5 70.5t11.5 55.5q17 47 77 89q48 33 48 72q0 35 -20 51t-46 16q-40 0 -55.5 -29
t-15.5 -71l-160 -2q0 131 74 190h-1q61 49 152 49q74 0 137 -29q101 -56 101 -171q0 -56 -28 -97q-23 -34 -83 -76q-25 -18 -37.5 -47t-11.5 -71h-145z" />
    <glyph glyph-name=".notdef.068" unicode="&#x1ef8;" horiz-adv-x="1430" 
d="M848 553v-553h-307v557l-508 913h360l307 -639l291 639h348zM1071 1881q-19 -131 -80 -201t-152 -70q-38 0 -71.5 8t-73.5 20q-20 7 -37.5 12.5t-33.5 10.5q-25 8 -45 13.5t-27 5.5q-17 0 -29.5 -7t-22.5 -18q-6 -9 -10.5 -23t-8.5 -37h-166q3 13 6.5 29.5t5.5 26.5
q2 9 4.5 19t5.5 18q6 20 19.5 45.5t27.5 48.5q33 42 78.5 65.5t109.5 25.5q38 2 70.5 -8.5t64.5 -27.5l6 -2q25 -13 57.5 -22.5t61.5 -9.5q35 0 52 22.5t26 55.5h162z" />
    <glyph glyph-name=".notdef.002" unicode="&#x1ef9;" 
d="M1106 1090l-377 -1070q-102 -307 -169.5 -382.5t-252.5 -75.5h-45h-51q-23 4 -31 4v229q13 -4 53 -4q91 0 125 25q48 32 64 139l-402 1135h320l233 -803l230 803h303zM943 1531q-19 -131 -80 -201t-152 -70q-38 0 -71.5 8t-73.5 20q-20 7 -37.5 12.5t-33.5 10.5
q-25 8 -45 13.5t-27 5.5q-17 0 -29.5 -7t-22.5 -18q-6 -9 -10.5 -23t-8.5 -37h-166q3 13 6.5 29.5t5.5 26.5q2 9 4.5 19t5.5 18q6 20 19.5 45.5t27.5 48.5q33 42 78.5 65.5t109.5 25.5q38 2 70.5 -8.5t64.5 -27.5l6 -2q25 -13 57.5 -22.5t61.5 -9.5q35 0 52 22.5t26 55.5
h162z" />
    <glyph glyph-name="quoteleft" unicode="&#x2018;" horiz-adv-x="602" 
d="M430 1192v-262h-287v209q0 172 97 264q65 63 182 88v-107q-92 -28 -127 -81q-25 -39 -25 -111h160z" />
    <glyph glyph-name="quoteright" unicode="&#x2019;" horiz-adv-x="602" 
d="M143 1212v258h287v-208q0 -172 -96 -263q-66 -61 -187 -86v103q93 31 127 86q25 39 25 110h-156z" />
    <glyph glyph-name="quotedblleft" unicode="&#x201c;" horiz-adv-x="1061" 
d="M418 1192v-262h-287v209q0 172 96 264q66 63 187 88v-107q-92 -28 -127 -81q-25 -39 -25 -111h156zM893 1192v-262h-287v209q0 172 96 264q66 63 187 88v-107q-92 -28 -127 -81q-25 -39 -25 -111h156z" />
    <glyph glyph-name="quotedblright" unicode="&#x201d;" horiz-adv-x="1061" 
d="M131 1212v258h287v-208q0 -172 -96 -263q-66 -61 -183 -86v103q92 31 127 86q25 39 25 110h-160zM606 1212v258h287v-208q0 -172 -96 -263q-66 -61 -183 -86v103q93 31 127 86q25 39 25 110h-160z" />
    <glyph glyph-name="ellipsis" unicode="&#x2026;" horiz-adv-x="1130" 
d="M270 238v-238h-258v238h258zM672 238v-238h-258v238h258zM1073 238v-238h-258v238h258zM1073 238v-238h-258v238h258z" />
    <glyph glyph-name="trademark" unicode="&#x2122;" horiz-adv-x="2048" 
d="M1262 1470l192 -512l191 512h313v-843h-217v575l-205 -575h-166l-201 575l-4 -575h-217v843h314zM788 1470v-174h-235v-669h-229v669h-234v174h698z" />
    <glyph glyph-name="ugrave" horiz-adv-x="582" 
 />
    <glyph glyph-name="uacute" horiz-adv-x="580" 
 />
    <glyph glyph-name="yacute" horiz-adv-x="629" 
 />
    <glyph glyph-name="ellipsis.001" horiz-adv-x="1245" 
d="M373 209v-209h-189v209h189zM705 209v-209h-189v209h189zM1036 209v-209h-188v209h188z" />
  </font>
</defs>
</svg>
