<?xml version="1.0" standalone="no"?>
<!DOCTYPE svg PUBLIC "-//W3C//DTD SVG 1.1//EN" "http://www.w3.org/Graphics/SVG/1.1/DTD/svg11.dtd" >
<svg xmlns="http://www.w3.org/2000/svg" xmlns:xlink="http://www.w3.org/1999/xlink" version="1.1">
<metadata>
Created by FontForge 20170731 at Tue Sep 25 05:27:40 2001
 By Aleksey,,,
(c) Copyright 2001 by Tom Truong. All Rights Reserved
</metadata>
<defs>
<font id="UVNVan" horiz-adv-x="1096" >
  <font-face 
    font-family="UVN Van"
    font-weight="400"
    font-stretch="normal"
    units-per-em="2048"
    panose-1="0 0 4 0 0 0 0 0 0 0"
    ascent="1638"
    descent="-410"
    x-height="1092"
    cap-height="1473"
    bbox="-113 -457 2149 2282"
    underline-thickness="50"
    underline-position="-175"
    unicode-range="U+0020-F002"
  />
<missing-glyph horiz-adv-x="1024" 
d="M128 0v2282h768v-2282h-768zM256 128h512v2026h-512v-2026z" />
    <glyph glyph-name=".notdef" horiz-adv-x="1024" 
d="M128 0v2282h768v-2282h-768zM256 128h512v2026h-512v-2026z" />
    <glyph glyph-name=".null" horiz-adv-x="0" 
 />
    <glyph glyph-name="glyph2" horiz-adv-x="492" 
 />
    <glyph glyph-name="space" unicode=" " horiz-adv-x="492" 
 />
    <glyph glyph-name="exclam" unicode="!" horiz-adv-x="568" 
d="M391 488q0 -101 -92 -101q-86 0 -86 97v897q0 88 86 88q92 0 92 -88v-893zM408 92q0 -43 -31 -74t-74 -31t-74.5 31t-31.5 74q0 44 31 74.5t75 30.5t74.5 -30.5t30.5 -74.5z" />
    <glyph glyph-name="quotedbl" unicode="&#x22;" horiz-adv-x="643" 
d="M572 1096q0 -80 -88 -80q-80 0 -80 80v289q0 88 84 88t84 -88v-289zM281 1096q0 -80 -88 -80q-80 0 -80 80v289q0 88 84 88t84 -88v-289z" />
    <glyph glyph-name="numbersign" unicode="#" 
d="M1071 944q0 -63 -84 -63h-143l-43 -305h127q80 0 80 -68q0 -63 -76 -63h-151l-54 -377q-6 -45 -18 -60q-16 -21 -57 -21q-71 0 -76 77q1 2 57 381h-246l-51 -377q-11 -81 -80 -81q-66 0 -71 77q1 2 51 381h-131q-80 0 -80 63q0 68 88 68h143l43 305h-131q-84 0 -84 63
q0 72 80 72h152l57 381q6 43 20 59.5t56 16.5q68 0 68 -76q0 -10 -1 -20l-47 -361h240l55 385q10 72 80 72q35 0 54 -28.5t14 -63.5l-52 -365h127q84 0 84 -72zM692 881h-243l-41 -305h239z" />
    <glyph glyph-name="dollar" unicode="$" horiz-adv-x="948" 
d="M944 420q0 -22 -11 -73q-41 -182 -195 -280q-90 -57 -205 -71v-105q0 -43 -45 -43q-39 0 -39 43v96q-215 0 -348 97q-60 43 -60 84q0 32 20.5 58t51.5 26q39 0 67 -16q157 -92 269 -92v569q-181 55 -270 126q-124 99 -124 257q0 90 56 177q112 179 338 200v100
q0 35 39 35q45 0 45 -39v-96q106 -11 189 -45q122 -49 122 -127q0 -74 -84 -80q-31 9 -112 53q-69 38 -115 43v-448q201 -65 293 -151q118 -110 118 -298zM449 899v418q-85 -10 -141 -64q-60 -58 -60 -141q0 -143 201 -213zM752 436q0 99 -64 160q-49 45 -155 84v-528
q99 19 160 101q59 79 59 183z" />
    <glyph glyph-name="percent" unicode="%" horiz-adv-x="1516" 
d="M709 1116q0 -146 -83 -239q-87 -96 -230 -96q-140 0 -228 98q-84 95 -84 237q0 155 79 252q86 105 237 105q147 0 231 -108q78 -98 78 -249zM1116 1432q0 -20 -8 -39l-571 -1372q-21 -50 -72 -50q-56 0 -69 58q7 27 16 47l565 1356q24 57 64 57q75 0 75 -57zM1432 320
q0 -146 -82 -239q-86 -98 -229 -98q-141 0 -228 99q-84 94 -84 238q0 156 78 252q85 104 238 104q146 0 230 -108q77 -98 77 -248zM572 1121q0 96 -37 160q-46 79 -135 79q-95 0 -142 -79q-39 -65 -39 -166q0 -81 43 -149q50 -77 127 -77q183 0 183 232zM1297 332
q0 96 -40 157q-46 74 -136 74q-94 0 -140 -79q-37 -65 -37 -166q0 -86 44 -150q50 -71 133 -71q88 0 136 77q40 64 40 158z" />
    <glyph glyph-name="ampersand" unicode="&#x26;" horiz-adv-x="1368" 
d="M1293 56q0 -29 -25.5 -46.5t-54.5 -17.5q-39 0 -60 25l-176 206q-190 -236 -461 -236q-257 0 -383 208q-61 101 -61 221q0 27 8 84q20 132 112 232q68 75 208 157q-83 87 -114 142q-46 80 -46 173q0 132 105 205q92 64 231 64q137 0 231 -65q109 -73 109 -204
q0 -205 -264 -348l325 -387q30 38 74 107q29 47 59 94q47 65 82 65q76 0 76 -59q0 -76 -68 -174q-20 -29 -120 -149l188 -228q25 -30 25 -69zM744 1188q0 65 -53 104q-48 35 -115 35q-151 0 -160 -147q1 -3 4 -27q5 -39 133 -184q191 98 191 219zM873 344l-373 428
q-252 -131 -252 -340q0 -161 140 -242q66 -38 145 -38q198 0 340 192z" />
    <glyph glyph-name="quotesingle" unicode="'" horiz-adv-x="381" 
d="M369 1393q0 -35 -16 -66l-130 -247q-38 -72 -83 -72q-34 0 -62 28q-25 25 -31 60q6 31 21 59l125 250q31 64 88 64q88 0 88 -76z" />
    <glyph glyph-name="parenleft" unicode="(" horiz-adv-x="416" 
d="M412 -140q0 -26 -22.5 -45.5t-49.5 -19.5q-48 0 -80 70q-129 279 -129 802q0 439 125 765q29 76 88 76q68 0 68 -64q0 -53 -28 -135q-35 -107 -40 -134q-45 -231 -45 -534q0 -362 59 -595q16 -47 46 -143q8 -27 8 -43z" />
    <glyph glyph-name="parenright" unicode=")" horiz-adv-x="416" 
d="M361 625q0 -508 -129 -760q-36 -70 -80 -70q-71 0 -76 70q117 344 117 811q0 367 -88 667q-8 23 -21 68q0 9 -4 29q6 68 64 68t92 -76q125 -286 125 -807z" />
    <glyph glyph-name="asterisk" unicode="*" horiz-adv-x="797" 
d="M725 969q0 -72 -73 -72q-30 0 -68 31l-131 104q0 -34 9 -100.5t9 -99.5q0 -88 -75 -88q-30 0 -51 24.5t-21 55.5q0 -18 13 62q11 63 11 134v12q-156 -135 -204 -135q-26 0 -47 25t-21 51q0 38 41 55l190 80q-110 31 -189 73q-46 24 -46 62q0 32 22 53t54 21q42 0 106 -50
q47 -40 94 -79q-2 36 -18 151l-6 50q0 34 21 59t55 25q71 0 71 -72q0 -36 -9 -106.5t-9 -106.5q70 69 130 109q30 20 69 20q69 0 69 -74q0 -38 -41 -55l-188 -80l196 -80q37 -15 37 -59z" />
    <glyph glyph-name="plus" unicode="+" horiz-adv-x="1229" 
d="M1137 520q0 -84 -84 -84h-352v-356q0 -80 -84 -80t-84 84v352h-361q-80 0 -80 84t80 84h361v353q0 80 84 80t84 -80v-353h356q80 0 80 -84z" />
    <glyph glyph-name="comma" unicode="," horiz-adv-x="492" 
d="M357 117q0 -37 -13 -61l-131 -257q-30 -59 -92 -59q-80 0 -80 80q0 23 19 59l133 261q29 57 84 57q80 0 80 -80z" />
    <glyph glyph-name="hyphen" unicode="-" horiz-adv-x="721" 
d="M647 549q0 -78 -84 -78h-407q-88 0 -88 74q0 84 84 84h411q84 0 84 -80z" />
    <glyph glyph-name="hyphen" unicode="&#x2010;" horiz-adv-x="721" 
d="M647 549q0 -78 -84 -78h-407q-88 0 -88 74q0 84 84 84h411q84 0 84 -80z" />
    <glyph glyph-name="period" unicode="." horiz-adv-x="492" 
d="M361 92q0 -42 -31.5 -73.5t-73.5 -31.5t-73 31.5t-31 73.5q0 43 30.5 74t73.5 31t74 -31t31 -74z" />
    <glyph glyph-name="slash" unicode="/" horiz-adv-x="832" 
d="M793 1397q0 -23 -8 -41l-580 -1305q-28 -64 -88 -64q-80 0 -80 77q0 6 10 49l582 1298q27 62 84 62q80 0 80 -76z" />
    <glyph glyph-name="zero" unicode="0" 
d="M1032 752q0 -347 -132 -554q-134 -211 -347 -211q-262 0 -389 269q-96 205 -96 500q0 384 204 595q118 122 291 122q109 0 203 -64q136 -94 207 -295q59 -168 59 -362zM840 713q0 407 -141 540q-68 64 -149 64q-96 0 -165 -88q-125 -157 -125 -481q0 -214 50 -370
q75 -234 243 -234q159 0 234 217q53 152 53 352z" />
    <glyph glyph-name="one" unicode="1" horiz-adv-x="721" 
d="M516 84q0 -97 -92 -97q-40 0 -64 28.5t-24 68.5v1221h-184q-84 0 -84 76q0 79 88 79h309q51 0 51 -51v-1325z" />
    <glyph glyph-name="two" unicode="2" 
d="M1004 76q0 -76 -80 -76h-719q-88 0 -88 64q0 34 23 65l552 744q76 102 76 215q0 97 -67 161t-164 64q-116 0 -191 -92q-69 -86 -69 -205q0 -111 -88 -117q-4 3 -9 4q-75 11 -75 113q0 117 55 226q117 231 412 231q104 0 198 -51q195 -107 195 -330q0 -152 -109 -295
l-483 -641h555q76 0 76 -80z" />
    <glyph glyph-name="three" unicode="3" 
d="M973 428q0 -212 -136 -330q-129 -111 -345 -111q-199 0 -324 144q-64 73 -80 146q-8 35 -8 51q0 96 88 96q61 0 88 -80q51 -148 182 -190q45 -14 66 -14q107 0 192 73q89 77 89 183q0 292 -248 292q-121 0 -121 72q0 50 78 75q112 36 145 62q78 62 78 201q0 93 -56.5 156
t-148.5 63q-189 0 -209 -213q-9 -92 -84 -92q-84 0 -84 129q0 19 13 67q43 153 191 223q88 42 193 42q159 0 262 -111t103 -270q0 -197 -170 -307q246 -77 246 -357z" />
    <glyph glyph-name="four" unicode="4" 
d="M1037 449q0 -59 -64 -71q-8 -1 -108 -1v-293q0 -42 -26 -69.5t-67 -27.5q-88 0 -88 93v297h-579q-88 0 -88 51q0 35 43 105l528 856q30 48 57.5 66t81.5 18q138 0 138 -146v-794q94 0 111 -5q61 -14 61 -79zM684 533v747h-4l-428 -747h432z" />
    <glyph glyph-name="five" unicode="5" 
d="M975 496q0 -219 -125 -361q-131 -148 -346 -148q-201 0 -333 106q-83 66 -83 135q0 75 64 75q38 0 76 -34q125 -117 268 -117q131 0 210 92q75 87 75 221q0 138 -58 220q-66 96 -198 96q-43 0 -133 -28t-115 -28q-56 0 -62 64l4 26l84 566q8 51 13 60q11 19 53 19h516
q76 0 76 -79q0 -76 -80 -76h-412l-61 -397q89 40 184 40q180 0 286 -140q97 -127 97 -312z" />
    <glyph glyph-name="six" unicode="6" 
d="M991 453q0 -196 -127 -329q-129 -137 -323 -137q-206 0 -327 162q-109 146 -109 359q0 319 204 591q170 228 324 345q37 29 64 29q71 0 71 -88q0 -47 -91 -122q-135 -112 -290 -378h4q113 59 226 59q181 0 285 -161q89 -138 89 -330zM799 475q0 138 -58 220
q-67 94 -198 94q-110 0 -178 -75q-63 -69 -72 -181q-1 -9 -5 -37q-3 -23 -3 -35q0 -124 64 -210q72 -95 192 -95q132 0 199 97q59 84 59 222z" />
    <glyph glyph-name="seven" unicode="7" horiz-adv-x="983" 
d="M899 766q0 -78 -84 -78h-155l-273 -620q-35 -81 -110 -81q-72 0 -72 73q0 31 18 71l248 557h-250q-88 0 -88 74q0 84 84 84h325l210 471h-612q-93 0 -93 76q0 80 88 80h746q92 0 92 -49q0 -26 -20 -72l-223 -506h85q84 0 84 -80z" />
    <glyph glyph-name="eight" unicode="8" 
d="M996 445q0 -196 -124 -327t-319 -131q-275 0 -396 240q-56 111 -56 222q0 133 69 231q72 102 199 135q-87 47 -140 131.5t-53 182.5q0 85 45 168q95 176 325 176q162 0 265 -90q109 -95 109 -254q0 -222 -189 -318q129 -30 199 -133q66 -97 66 -233zM756 1108
q0 91 -55 150t-146 59q-98 0 -154.5 -57.5t-56.5 -155.5q0 -215 209 -215q96 0 151 62q52 60 52 157zM805 441q0 123 -67 204q-72 86 -193 86q-115 0 -187 -92q-65 -84 -65 -203q0 -115 67 -200q73 -92 185 -92q123 0 194 88q66 82 66 209z" />
    <glyph glyph-name="nine" unicode="9" 
d="M987 948q0 -338 -258 -663q-150 -188 -264 -268q-35 -25 -69 -25q-64 0 -72 80l4 25q12 23 69 75q74 68 82 76q102 110 230 328h-4q-104 -60 -221 -60q-190 0 -292 157q-87 135 -87 335q0 278 228 407q103 58 222 58q206 0 326 -164q106 -147 106 -361zM809 987
q0 133 -59 219q-68 99 -195 99q-132 0 -199 -98q-59 -85 -59 -222t59 -219q67 -95 198 -95q93 0 166 64q86 74 89 193v59z" />
    <glyph glyph-name="colon" unicode=":" horiz-adv-x="492" 
d="M361 781q0 -45 -30.5 -75t-74.5 -30q-42 0 -73 31t-31 74q0 42 31 73t73 31q44 0 74.5 -30t30.5 -74zM361 92q0 -45 -30 -75t-75 -30q-43 0 -73.5 31t-30.5 74t30.5 74t73.5 31q44 0 74.5 -30.5t30.5 -74.5z" />
    <glyph glyph-name="semicolon" unicode=";" horiz-adv-x="492" 
d="M361 781q0 -45 -30.5 -75t-74.5 -30q-42 0 -73 31t-31 74q0 42 31 73t73 31q44 0 74.5 -30t30.5 -74zM361 121q0 -28 -17 -61l-129 -261q-28 -55 -90 -55q-32 0 -58 24t-26 56q0 19 15 47l141 273q27 53 84 53q80 0 80 -76z" />
    <glyph glyph-name="less" unicode="&#x3c;" horiz-adv-x="1229" 
d="M1141 981q0 -52 -66 -84l-768 -377l781 -389q49 -24 49 -75q0 -69 -70 -69q-22 0 -55 17l-864 428q-56 27 -56 80q0 63 68 97l848 423q33 17 63 17q70 0 70 -68z" />
    <glyph glyph-name="equal" unicode="=" horiz-adv-x="1229" 
d="M1133 731q0 -84 -80 -84h-873q-88 0 -88 80q0 88 88 88h877q76 0 76 -84zM1133 303q0 -84 -80 -84h-873q-88 0 -88 80q0 88 88 88h877q76 0 76 -84z" />
    <glyph glyph-name="greater" unicode="&#x3e;" horiz-adv-x="1229" 
d="M1137 512q0 -52 -57 -80l-861 -428q-33 -17 -59 -17q-68 0 -68 69q0 49 52 75l780 389l-768 377q-72 35 -72 86q0 28 23 47t53 19t63 -17l848 -423q66 -33 66 -97z" />
    <glyph glyph-name="question" unicode="?" horiz-adv-x="908" 
d="M877 1092q0 -325 -348 -400v-213q0 -92 -93 -92q-88 0 -88 92v273q0 66 85 92q148 45 158 50q85 49 85 173q0 109 -65.5 173.5t-174.5 64.5q-115 0 -171 -61q-20 -22 -61 -114q-28 -63 -75 -65q-92 30 -92 99q0 128 142 229q113 80 270 80q96 0 195 -44
q233 -102 233 -337zM545 92q0 -41 -31.5 -73t-72.5 -32q-44 0 -76.5 31t-32.5 74q0 44 32 74.5t77 30.5q42 0 73 -31.5t31 -73.5z" />
    <glyph glyph-name="at" unicode="@" horiz-adv-x="1641" 
d="M1567 860q0 -162 -81 -302q-83 -143 -224 -216q-101 -53 -201 -53q-134 0 -145 119h-8q-100 -119 -244 -119q-128 0 -216 101q-83 97 -83 227q0 30 10 92q42 231 214 357q103 75 239 75q164 0 239 -154q18 60 54 135q12 11 43 11q75 0 75 -53q0 -21 -2 -27l-145 -498
q-8 -40 -12 -67q0 -60 61 -60q13 0 56 19q147 63 196 261q16 67 16 136q0 298 -288 431q-133 61 -283 61q-163 0 -310 -81q-300 -166 -300 -538q0 -249 182 -420.5t433 -171.5q106 0 191 21q114 28 267 147q70 55 108 55q51 0 51 -49q0 -28 -32 -71q-83 -110 -333 -196
q-127 -45 -257 -45q-307 0 -532 213q-230 217 -230 521q0 211 105.5 385t293.5 272q182 95 363 95q290 0 499 -158q230 -173 230 -455zM991 836q0 151 -135 151q-107 0 -187 -66q-76 -64 -106 -169q-18 -64 -18 -119q0 -133 126 -177q32 -11 42 -11q125 0 207 137
q71 119 71 254z" />
    <glyph glyph-name="A" unicode="A" horiz-adv-x="1252" 
d="M1237 56q0 -73 -84 -73q-67 0 -92 68l-96 265h-676l-96 -265q-24 -64 -92 -64q-84 0 -84 73q5 25 12 49l471 1259q40 109 125 109q87 0 127 -105l477 -1263q8 -22 8 -53zM912 471l-283 793h-4l-281 -793h568z" />
    <glyph glyph-name="B" unicode="B" horiz-adv-x="1100" 
d="M1041 420q0 -189 -138 -308q-131 -112 -323 -112h-361q-98 0 -98 97v1267q0 96 92 96h328q222 0 332 -171q55 -86 55 -180q0 -109 -51 -193q-54 -92 -152 -123v-4q230 -46 291 -229q25 -74 25 -140zM748 1075q0 100 -60.5 165t-158.5 65h-230v-461h209q105 0 172.5 63
t67.5 168zM860 424q0 129 -88 203q-82 70 -213 70h-260v-541h242q206 0 282 133q37 64 37 135z" />
    <glyph glyph-name="C" unicode="C" horiz-adv-x="1217" 
d="M1164 193q0 -43 -27 -68q-147 -138 -432 -138q-317 0 -492 247q-149 209 -149 475q0 322 160 532q177 232 489 232q158 0 291 -70t133 -156q0 -75 -76 -75q-23 0 -75 37q-70 51 -109 70q-77 38 -161 38q-218 0 -347 -187q-113 -165 -113 -393q0 -309 175 -487
q104 -107 274 -107q92 0 165 29q43 17 167 84q30 17 59 17q68 0 68 -80z" />
    <glyph glyph-name="D" unicode="D" horiz-adv-x="1293" 
d="M1229 735q0 -210 -74 -381q-155 -354 -546 -354h-386q-37 0 -64 21q-30 23 -30 59v1284q0 96 94 96h369q298 0 474 -218q163 -202 163 -507zM1037 748q0 240 -114 390q-126 167 -360 167h-256v-1149h281q157 0 283 110q166 145 166 482z" />
    <glyph glyph-name="E" unicode="E" horiz-adv-x="908" 
d="M824 80q0 -80 -89 -80h-526q-88 0 -88 97v1263q0 100 76 100h551q76 0 76 -83q0 -84 -80 -84h-445v-482h406q80 0 80 -84t-84 -84h-402v-475h449q76 0 76 -88z" />
    <glyph glyph-name="F" unicode="F" horiz-adv-x="832" 
d="M815 1372q0 -79 -84 -79h-432v-482h389q80 0 80 -86q0 -82 -76 -82h-393v-559q0 -97 -90 -97q-88 0 -88 93v1280q0 100 76 100h551q67 0 67 -88z" />
    <glyph glyph-name="G" unicode="G" horiz-adv-x="1368" 
d="M1323 668q0 -377 -219 -563q-137 -118 -399 -118q-319 0 -492 248q-150 214 -150 481q0 321 165 530q180 227 492 227q133 0 265 -43q158 -50 224 -137q20 -28 20 -60q0 -34 -27 -57t-61 -23q-33 0 -70 27q-51 38 -162 102q-84 35 -188 35q-227 0 -354 -183
q-111 -160 -111 -398q0 -235 105 -399q123 -194 345 -194q104 0 209 51q230 110 230 410v64h-260q-84 0 -84 80q0 88 76 88h327q75 0 101 -51q18 -35 18 -117z" />
    <glyph glyph-name="H" unicode="H" horiz-adv-x="1368" 
d="M1247 88q0 -101 -92 -101q-41 0 -65 31q-23 28 -23 70v564h-768v-564q0 -101 -90 -101q-88 0 -88 101v1280q0 105 88 105q90 0 90 -105v-559h768v559q0 43 22 74q24 35 66 35q92 0 92 -109v-1280z" />
    <glyph glyph-name="I" unicode="I" horiz-adv-x="416" 
d="M299 88q0 -101 -86 -101q-92 0 -92 97v1293q0 96 92 96q86 0 86 -96v-1289z" />
    <glyph glyph-name="J" unicode="J" horiz-adv-x="721" 
d="M641 381q0 -394 -340 -394q-90 0 -191 39q-127 48 -127 122q0 75 73 75q35 0 49 -8q46 -27 92 -53q40 -18 106 -18q158 0 158 200v1037q0 92 88 92q92 0 92 -92v-1000z" />
    <glyph glyph-name="K" unicode="K" horiz-adv-x="1141" 
d="M1159 60q0 -35 -26.5 -56t-61.5 -21q-44 0 -90 46l-682 668v-617q0 -93 -90 -93q-88 0 -88 93v1297q0 96 88 96q90 0 90 -92v-537l645 592q40 37 80 37q76 0 76 -84q0 -44 -35 -76l-600 -541l664 -641q30 -29 30 -71z" />
    <glyph glyph-name="L" unicode="L" horiz-adv-x="756" 
d="M772 88q0 -88 -75 -88h-492q-84 0 -84 109v1268q0 96 92 96q86 0 86 -105v-1200h369q104 0 104 -80z" />
    <glyph glyph-name="M" unicode="M" horiz-adv-x="1708" 
d="M1649 105q1 -10 -3 -37q-12 -85 -85 -85q-81 0 -92 81l-168 1179l-357 -1187q-22 -73 -88 -73q-71 0 -92 73l-352 1187l-172 -1187q-13 -89 -100 -89q-84 0 -84 105q0 17 4 41l213 1235q22 129 135 129q103 0 133 -100l311 -1070h4l312 1078q26 92 129 92q118 0 139 -121
z" />
    <glyph glyph-name="N" unicode="N" horiz-adv-x="1364" 
d="M1247 76q0 -93 -79 -93q-61 0 -101 58l-768 1104v-1069q0 -89 -90 -89q-88 0 -88 93v1301q0 96 76 96q59 0 102 -62l766 -1099h2v1061q0 96 88 96q92 0 92 -96v-1301z" />
    <glyph glyph-name="O" unicode="O" horiz-adv-x="1401" 
d="M1344 719q0 -301 -167 -508q-180 -224 -472 -224q-296 0 -476 228q-165 209 -165 512q0 306 164 516q179 230 477 230q301 0 478 -232q161 -211 161 -522zM1153 737q0 240 -101 396q-120 184 -347 184q-226 0 -347 -188q-102 -159 -102 -398q0 -242 101 -400
q119 -187 348 -187q226 0 347 191q101 161 101 402z" />
    <glyph glyph-name="P" unicode="P" horiz-adv-x="1065" 
d="M1045 1004q0 -191 -129.5 -325t-319.5 -134h-297v-469q0 -39 -25.5 -64t-64.5 -25q-88 0 -88 93v1284q0 96 88 96h363q207 0 338 -124q135 -126 135 -332zM865 1008q0 135 -83.5 216t-218.5 81h-264v-604h256q136 0 223 85t87 222z" />
    <glyph glyph-name="Q" unicode="Q" horiz-adv-x="1401" 
d="M1401 43q0 -68 -80 -68q-36 0 -61 25l-148 144q-168 -157 -407 -157q-296 0 -476 228q-165 209 -165 512q0 306 164 516q179 230 477 230q301 0 478 -233q161 -210 161 -522q0 -250 -127 -449l168 -168q16 -17 16 -58zM1153 731q0 243 -100 400q-119 186 -348 186
q-226 0 -347 -188q-102 -159 -102 -398q0 -242 101 -400q119 -187 348 -187q174 0 291 116l-131 127q-33 32 -33 66q0 30 22.5 53t53.5 23q45 0 69 -25l107 -108q69 155 69 335z" />
    <glyph glyph-name="R" unicode="R" horiz-adv-x="1065" 
d="M1024 56q0 -64 -84 -64q-51 0 -84 37l-557 612v-565q0 -89 -90 -89q-88 0 -88 93v1284q0 96 88 96h350q182 0 309.5 -120t127.5 -300q0 -105 -44 -195q-97 -198 -432 -198l467 -512q37 -41 37 -79zM815 1049q0 116 -78 187q-74 69 -192 69h-246v-520h254q262 0 262 264z
" />
    <glyph glyph-name="S" unicode="S" horiz-adv-x="948" 
d="M944 445q0 -208 -144 -336q-138 -122 -347 -122q-123 0 -246 39q-166 53 -166 146q0 35 22.5 59.5t57.5 24.5q21 0 51 -16q18 -12 55 -34q118 -62 248 -62q115 0 194 84t79 200q0 100 -81 169q-59 50 -179 93q-92 33 -185 66q-64 26 -131 79q-116 91 -116 253
q0 110 63 199q133 186 373 186q110 0 213 -36q139 -48 139 -136q0 -80 -84 -80q-19 0 -100 38q-124 58 -181 58q-98 0 -160 -57q-75 -70 -75 -156q0 -126 172 -196q122 -46 244 -91q137 -56 201 -128q83 -93 83 -244z" />
    <glyph glyph-name="T" unicode="T" horiz-adv-x="873" 
d="M908 1377q0 -84 -80 -84h-283v-1213q0 -40 -26 -66.5t-66 -26.5q-88 0 -88 93v1213h-281q-84 0 -84 84q0 83 88 83h731q89 0 89 -83z" />
    <glyph glyph-name="U" unicode="U" horiz-adv-x="1364" 
d="M1247 563q0 -275 -139 -423q-143 -153 -416 -153q-275 0 -423 148t-148 424v822q0 92 88 92q90 0 90 -92v-877q0 -171 111 -268q105 -93 279 -93q169 0 273 96q109 98 109 265v877q0 92 84 92q92 0 92 -92v-818z" />
    <glyph glyph-name="V" unicode="V" horiz-adv-x="1141" 
d="M1133 1389q0 -27 -8 -49l-453 -1264q-32 -89 -100 -89q-72 0 -101 81l-454 1268q-17 46 -17 65q0 37 22 64.5t58 27.5q73 0 105 -92l383 -1108h4l385 1112q24 72 96 72q80 0 80 -88z" />
    <glyph glyph-name="W" unicode="W" horiz-adv-x="1671" 
d="M1649 1344l-213 -1235q-23 -130 -139 -130q-101 0 -129 97l-312 1073h-4l-311 -1077q-27 -93 -133 -93q-115 0 -135 122l-213 1251q-2 6 1 32q10 89 83 89q84 0 96 -80l168 -1180l356 1188q21 72 84 72q75 0 96 -72l353 -1188l172 1188q12 88 96 88t84 -108v-37z" />
    <glyph glyph-name="X" unicode="X" horiz-adv-x="1217" 
d="M1200 60q0 -33 -25.5 -53t-58.5 -20q-47 0 -79 46l-428 608l-429 -608q-32 -46 -83 -46q-29 0 -54.5 24t-25.5 53q0 26 24 61l463 660l-383 538q-33 46 -33 78q0 31 24.5 51.5t55.5 20.5q58 0 92 -49l349 -508l348 508q33 49 88 49q76 0 76 -76q0 -39 -25 -74l-383 -538
l463 -654q24 -35 24 -71z" />
    <glyph glyph-name="Y" unicode="Y" horiz-adv-x="987" 
d="M1020 1397q0 -31 -16 -57l-400 -652v-604q0 -42 -25 -71.5t-67 -29.5q-40 0 -65 32q-23 28 -23 69v604l-399 648q-25 39 -25 65q0 31 24.5 51.5t55.5 20.5q58 0 88 -49l344 -559l344 555q33 53 84 53q80 0 80 -76z" />
    <glyph glyph-name="Z" unicode="Z" horiz-adv-x="1141" 
d="M1092 80q0 -80 -88 -80h-856q-105 0 -105 80q0 32 29 76l760 1149h-664q-88 0 -88 76q0 79 92 79h801q92 0 92 -71q0 -35 -33 -84l-763 -1149h739q84 0 84 -76z" />
    <glyph glyph-name="bracketleft" unicode="[" horiz-adv-x="457" 
d="M471 -92q0 -76 -86 -76h-133q-96 0 -96 96v1444q0 101 96 101h139q80 0 80 -80q0 -31 -21.5 -52.5t-59.5 -24.5q15 1 -66 1v-1330q83 0 99 -4q48 -14 48 -75z" />
    <glyph glyph-name="backslash" unicode="\" horiz-adv-x="832" 
d="M797 51q0 -72 -76 -72q-58 0 -84 58l-581 1299q-19 41 -19 65q0 76 76 76q64 0 88 -53l584 -1311q12 -27 12 -62z" />
    <glyph glyph-name="bracketright" unicode="]" horiz-adv-x="457" 
d="M336 -68q0 -100 -92 -100h-143q-80 0 -80 80q0 31 21.5 52.5t59.5 24.5q-15 -2 66 -2v1330h-67q-84 0 -84 80q0 76 92 76h131q96 0 96 -96v-1445z" />
    <glyph glyph-name="asciicircum" unicode="^" horiz-adv-x="1229" 
d="M1116 660q0 -72 -75 -72q-46 0 -80 64l-344 641l-357 -652q-29 -53 -75 -53q-66 0 -72 72q4 17 16 49l391 700q38 68 93 68q59 0 100 -72l391 -696q12 -22 12 -49z" />
    <glyph glyph-name="underscore" unicode="_" horiz-adv-x="1024" 
d="M1088 -205q0 -51 -64 -51h-1024q-64 0 -64 59q0 45 60 45h1028q64 0 64 -53z" />
    <glyph glyph-name="grave" unicode="`" horiz-adv-x="416" 
d="M860 1649q0 -76 -88 -76q-7 0 -47 10l-260 105q-65 26 -65 76q0 34 26 59t62 25q21 0 32 -5l273 -114q67 -29 67 -80z" />
    <glyph glyph-name="a" unicode="a" horiz-adv-x="1141" 
d="M1020 80q0 -93 -84 -93q-66 0 -80 55q-4 15 -4 110h-4q-119 -165 -292 -165q-130 0 -243 69q-241 146 -241 485q0 358 250 501q108 62 219 62q179 0 307 -147h4q0 72 8 97q17 50 76 50q84 0 84 -92v-932zM848 545q0 165 -65 273q-79 130 -234 130q-153 0 -232 -135
q-65 -110 -65 -274q0 -156 66 -265q78 -130 223 -130q162 0 241 125q66 104 66 276z" />
    <glyph glyph-name="b" unicode="b" horiz-adv-x="1141" 
d="M1067 541q0 -229 -120 -384q-132 -170 -354 -170q-206 0 -281 148h-5q0 -81 -8 -102q-17 -46 -84 -46q-38 0 -62 27t-24 66v1409q0 94 86 94q92 0 92 -90v-536h5q114 147 292 147q220 0 348 -177q115 -158 115 -386zM591 948q-78 0 -150 -46q-153 -100 -156 -349
q4 -3 4 -8q14 -244 133 -343q70 -59 175 -59q146 0 226 132q66 110 66 266q0 160 -68 273q-81 134 -230 134z" />
    <glyph glyph-name="c" unicode="c" horiz-adv-x="908" 
d="M856 965q0 -70 -80 -76q-165 55 -213 55q-148 0 -235 -128q-76 -112 -76 -267q0 -154 63 -264q76 -130 218 -141q10 -1 30 -4q50 3 91 18l64 28q44 19 63 19q67 0 67 -76q0 -142 -285 -142q-298 0 -429 266q-63 125 -63 275q0 246 122 403q133 173 371 173q93 0 177 -28
q115 -39 115 -111z" />
    <glyph glyph-name="d" unicode="d" horiz-adv-x="1141" 
d="M1012 80q0 -93 -92 -93q-37 0 -62.5 26t-25.5 122h-4q-73 -148 -280 -148q-223 0 -356 173q-121 157 -121 387q0 220 119 380q131 177 343 177q183 0 295 -147h4v536q0 90 88 90q92 0 92 -94v-1409zM852 553q0 156 -70 266q-81 129 -229 129q-151 0 -232 -133
q-69 -112 -69 -273q0 -159 66 -268q79 -131 227 -131q156 0 238 133q69 110 69 277z" />
    <glyph glyph-name="e" unicode="e" horiz-adv-x="1065" 
d="M1012 563q0 -88 -100 -88h-680q2 -153 90.5 -242t240.5 -89q147 0 293 112q43 33 68 33q63 0 63 -76q0 -92 -196 -177q-111 -49 -238 -49q-237 0 -374 163q-128 152 -132 395q4 7 4 10q2 32 10 97q38 241 220 372q110 80 252 80q212 0 349 -167q130 -157 130 -374z
M832 613q-3 145 -75 235q-80 100 -221 100q-143 0 -225 -99q-74 -90 -79 -236h600z" />
    <glyph glyph-name="f" unicode="f" horiz-adv-x="492" 
d="M572 1499q0 -71 -93 -71q-71 0 -87 -7q-35 -14 -35 -73v-256h114q88 0 88 -72q0 -84 -88 -84h-114v-856q0 -93 -93 -93q-88 0 -88 93v856q-92 0 -107 3q-57 14 -57 75t58 74q15 4 106 4v260q0 101 68 163q76 68 184 68q144 0 144 -84z" />
    <glyph glyph-name="g" unicode="g" horiz-adv-x="1141" 
d="M1012 76q0 -230 -125 -372q-131 -149 -358 -149q-186 0 -340 97q-88 55 -88 112q0 24 23.5 50t47.5 26q33 0 147.5 -64.5t217.5 -64.5q151 0 230 125q67 106 67 267q0 6 -1 20t-1 21h-4q-87 -157 -291 -157q-215 0 -347 181q-118 163 -118 385q0 226 122 382
q133 169 353 169q207 0 281 -151h4q0 80 7 101q16 46 81 46q92 0 92 -92v-932zM852 533q0 164 -71 279q-84 136 -238 136q-144 0 -224 -132q-67 -111 -67 -264q0 -160 65 -272q80 -137 229 -137q151 0 234 124q72 108 72 266z" />
    <glyph glyph-name="h" unicode="h" 
d="M983 80q0 -93 -90 -93q-88 0 -88 93v596q0 118 -67 194q-70 78 -187 78q-116 0 -184 -76t-68 -192v-600q0 -93 -90 -93q-88 0 -88 93v1409q0 94 88 94q89 0 90 -94l4 -528q106 143 293 143q169 0 278 -117t109 -286v-621z" />
    <glyph glyph-name="i" unicode="i" horiz-adv-x="416" 
d="M320 1360q0 -45 -33 -79t-78 -34q-46 0 -79 33.5t-33 79.5t33 79.5t79 33.5t78.5 -33.5t32.5 -79.5zM299 80q0 -93 -90 -93q-88 0 -88 93v928q0 96 88 96q90 0 90 -92v-932z" />
    <glyph glyph-name="j" unicode="j" horiz-adv-x="416" 
d="M320 1360q0 -45 -33 -79t-78 -34q-46 0 -79 33.5t-33 79.5t33 79.5t79 33.5t78.5 -33.5t32.5 -79.5zM299 -348q0 -97 -90 -97q-88 0 -88 97v1356q0 96 88 96q90 0 90 -92v-1360z" />
    <glyph glyph-name="k" unicode="k" horiz-adv-x="908" 
d="M932 60q0 -73 -76 -73q-48 0 -92 46l-465 483v-436q0 -93 -90 -93q-88 0 -88 93v1413q0 86 88 86q90 0 90 -90v-772l422 354q35 29 72 29q76 0 76 -84q0 -37 -33 -63l-420 -332l481 -473q35 -35 35 -88z" />
    <glyph glyph-name="l" unicode="l" horiz-adv-x="416" 
d="M299 84q0 -97 -90 -97q-88 0 -88 97v1401q0 94 88 94q90 0 90 -90v-1405z" />
    <glyph glyph-name="m" unicode="m" horiz-adv-x="1704" 
d="M1592 76q0 -89 -93 -89q-37 0 -62.5 26t-25.5 63v621q0 111 -57 179q-61 72 -170 72q-240 0 -240 -251v-621q0 -84 -92 -84q-37 0 -62.5 23.5t-25.5 60.5v612q0 117 -56 186q-61 74 -175 74q-110 0 -172 -65t-62 -174v-633q0 -89 -90 -89q-38 0 -63 25.5t-25 63.5v940
q0 84 92 84q57 0 75 -38q11 -24 11 -89h4q103 131 274 131q191 0 300 -184q132 184 344 184q97 0 186 -50q185 -105 185 -345v-633z" />
    <glyph glyph-name="n" unicode="n" 
d="M983 80q0 -88 -90 -88q-88 0 -88 88v604q0 114 -69.5 187t-182.5 73q-115 0 -184.5 -74t-69.5 -190v-600q0 -97 -86 -97q-40 0 -66 28t-26 69v928q0 96 88 96q62 0 80 -43q10 -24 10 -96l4 -4q109 143 297 143q181 0 284 -119q99 -114 99 -297v-608z" />
    <glyph glyph-name="o" unicode="o" 
d="M1032 545q0 -328 -225 -482q-110 -76 -254 -76q-225 0 -359 170q-122 156 -122 388q0 335 233 487q111 72 248 72q219 0 354 -174q125 -160 125 -385zM852 551q0 160 -68 269q-81 128 -231 128q-155 0 -234 -130q-67 -108 -67 -273q0 -161 66 -270q80 -131 231 -131
q157 0 237 130q66 108 66 277z" />
    <glyph glyph-name="p" unicode="p" horiz-adv-x="1141" 
d="M1067 553q0 -333 -221 -490q-105 -76 -242 -76q-183 0 -292 148h-5v-483q0 -109 -88 -109q-40 0 -66 33q-24 30 -24 71v1361q0 96 86 96q66 0 83 -46q9 -22 9 -101h5q75 147 279 147q222 0 354 -168q122 -155 122 -383zM889 552q0 156 -67 265q-79 131 -225 131
q-157 0 -239 -130q-69 -109 -69 -276q0 -157 68 -268q80 -131 227 -134q6 3 16 4q151 13 226 139q63 106 63 269z" />
    <glyph glyph-name="q" unicode="q" horiz-adv-x="1141" 
d="M1012 -353q0 -44 -26.5 -74t-69.5 -30q-84 0 -84 109v483h-8q-99 -148 -291 -148q-216 0 -347 175q-119 159 -119 382q0 231 125 389q136 171 361 171q203 0 275 -147h4v55q0 39 24.5 65.5t63.5 26.5q92 0 92 -96v-1361zM848 537q0 164 -71 277q-84 134 -238 134
q-147 0 -224 -135q-63 -110 -63 -268q0 -161 66 -270q80 -132 232 -132q78 0 149 47q149 98 149 347z" />
    <glyph glyph-name="r" unicode="r" horiz-adv-x="643" 
d="M647 1012q0 -60 -78 -90q-62 -21 -124 -41q-146 -80 -146 -272v-529q0 -93 -86 -93q-92 0 -92 97v924q0 92 88 92q72 0 87 -62q3 -14 3 -122h4q40 71 101 124q73 64 141 64q41 0 71.5 -26.5t30.5 -65.5z" />
    <glyph glyph-name="s" unicode="s" horiz-adv-x="908" 
d="M856 307q0 -80 -47 -155q-102 -165 -356 -165q-204 0 -356 122q-50 39 -50 88q0 33 22.5 56.5t55.5 23.5q29 0 131.5 -67t203.5 -67q82 0 140 34q72 41 72 116q0 90 -150 157l-276 122q-149 88 -149 229q0 140 115 226q105 77 250 77q104 0 221 -47q145 -59 145 -145
q0 -31 -25 -55.5t-55 -24.5q-20 0 -100 45q-44 24 -87 49q-48 22 -96 22q-91 0 -139 -39q-53 -43 -53 -98q0 -9 8 -30q28 -68 128 -113q97 -38 194 -75q120 -46 176 -100q77 -73 77 -186z" />
    <glyph glyph-name="t" unicode="t" horiz-adv-x="492" 
d="M520 1012q0 -63 -56 -75q-7 -1 -107 -1v-860q0 -89 -97 -89q-84 0 -84 93v856h-79q-89 0 -89 76q0 80 89 80h79v244q0 84 88 84q93 0 93 -89v-239q94 0 107 -4q56 -13 56 -76z" />
    <glyph glyph-name="u" unicode="u" 
d="M983 412q0 -201 -118.5 -313t-319.5 -112q-198 0 -311 113t-113 312v600q0 92 88 92q90 0 90 -92v-596q0 -272 250 -272q256 0 256 272v596q0 92 88 92q90 0 90 -92v-600z" />
    <glyph glyph-name="v" unicode="v" horiz-adv-x="873" 
d="M865 1024q0 -19 -9 -43l-323 -917q-27 -77 -97 -77q-66 0 -92 73l-323 909q-17 46 -17 63q0 89 84 89q72 0 97 -76l251 -768l256 768q21 63 84 63q89 0 89 -84z" />
    <glyph glyph-name="w" unicode="w" horiz-adv-x="1516" 
d="M1516 1016q0 -20 -8 -43l-308 -897q-30 -89 -100 -89q-72 0 -104 101l-232 727h-4l-227 -710q-19 -59 -36 -82q-27 -36 -77 -36q-71 0 -108 110l-304 884q-2 10 -6 29l-2 10q0 80 88 80q76 0 97 -63l243 -773l240 764q26 84 92 84q65 0 92 -84l244 -759h4l236 755
q24 80 96 80q84 0 84 -88z" />
    <glyph glyph-name="x" unicode="x" horiz-adv-x="948" 
d="M944 47q0 -72 -75 -72q-53 0 -97 62l-297 412l-299 -416q-33 -46 -88 -46q-80 0 -80 81q0 38 35 84l330 424l-289 377q-33 43 -33 75q0 33 23.5 54.5t56.5 21.5q49 0 78 -39l266 -356l265 352q32 43 75 43q78 0 78 -84q0 -31 -24 -63l-289 -381l328 -428q36 -48 36 -101z
" />
    <glyph glyph-name="y" unicode="y" horiz-adv-x="873" 
d="M877 1016q0 -20 -8 -43l-473 -1346q-29 -80 -99 -80q-67 0 -74 84q3 21 13 57l133 353l-326 932q-1 3 -10 47q0 80 84 80q71 0 92 -63l248 -748h4l248 752q20 63 84 63q84 0 84 -88z" />
    <glyph glyph-name="z" unicode="z" horiz-adv-x="908" 
d="M873 76q0 -76 -88 -76h-656q-96 0 -96 51q0 38 47 109l520 776h-460q-84 0 -84 76q0 80 88 80h616q84 0 84 -64q0 -40 -35 -92l-528 -780h504q88 0 88 -80z" />
    <glyph glyph-name="braceleft" unicode="{" horiz-adv-x="529" 
d="M525 -109q0 -59 -80 -59h-88q-93 0 -147 58t-54 151v316q0 95 -16 137q-22 58 -102 88q-71 26 -71 70q0 46 71 71q81 28 103 89q15 40 15 136v316q0 92 54 150.5t147 58.5h88q80 0 80 -64q0 -46 -53 -54l-96 -17q-52 -22 -52 -101v-301q0 -266 -189 -280v-9
q189 -12 189 -278v-301q0 -83 52 -105l96 -14q53 -8 53 -58z" />
    <glyph glyph-name="bar" unicode="|" horiz-adv-x="457" 
d="M312 68q0 -81 -84 -81t-84 85v1431q0 76 84 76t84 -80v-1431z" />
    <glyph glyph-name="braceright" unicode="}" horiz-adv-x="529" 
d="M525 647q0 -41 -67 -64q-77 -26 -97 -69t-21 -157l-4 -316q-1 -91 -54 -150t-142 -59h-93q-80 0 -80 59q0 47 52 56q96 16 97 17q52 23 52 104v301q0 265 189 278v9q-189 15 -189 280v301q0 82 -52 103q-48 7 -97 14q-52 8 -52 57q0 62 80 62h93q89 0 143 -61
q52 -57 53 -148l4 -316q1 -115 23 -158q19 -41 96 -69q66 -24 66 -74z" />
    <glyph glyph-name="asciitilde" unicode="~" horiz-adv-x="1229" 
d="M1100 609q0 -96 -88 -168q-83 -68 -180 -68q-99 0 -241.5 69.5t-186.5 69.5q-37 0 -95.5 -69.5t-103.5 -69.5q-74 0 -74 59q0 92 88 164q82 68 177 68q102 0 243 -67.5t189 -67.5q37 0 95.5 67.5t104.5 67.5q72 0 72 -55z" />
    <glyph glyph-name="nonbreakingspace" unicode="&#xa0;" horiz-adv-x="0" 
 />
    <glyph glyph-name="exclamdown" unicode="&#xa1;" horiz-adv-x="568" 
d="M408 996q0 -43 -31 -73t-74 -30q-44 0 -75 29.5t-31 73.5q0 45 30 74.5t76 29.5q45 0 75 -29.5t30 -74.5zM391 -293q0 -88 -92 -88q-86 0 -86 88v902q0 37 24.5 62.5t61.5 25.5q92 0 92 -93v-897z" />
    <glyph glyph-name="cent" unicode="&#xa2;" horiz-adv-x="908" 
d="M856 965q0 -70 -80 -76q-166 59 -223 59v-804q52 0 133 30.5t95 30.5q67 0 67 -76q0 -142 -295 -142v-112q0 -39 -49 -39q-39 0 -39 43v117q-198 41 -302 206q-92 147 -92 361q0 198 99 342q107 155 295 191v121q0 39 39 39q49 0 49 -43v-113q303 0 303 -135zM465 160
v772q-108 -43 -164 -155q-49 -98 -49 -225q0 -129 48 -231q57 -121 165 -161z" />
    <glyph glyph-name="sterling" unicode="&#xa3;" horiz-adv-x="1217" 
d="M1155 84q0 -84 -84 -84h-848q-88 0 -88 72q0 40 62 108q90 100 114 137q62 96 62 203q0 41 -16 127h-213q-88 0 -88 80q0 88 88 88h163q-102 170 -102 293q0 160 146 267q134 98 300 98q225 0 385 -178q85 -94 85 -170q0 -52 -25 -73q-12 -9 -72 -32q-43 4 -81 79
q-51 100 -88 134q-76 72 -212 72q-110 0 -180 -57q-76 -61 -76 -168q0 -55 39 -137q4 -8 70 -128h272q80 0 80 -84t-80 -84h-231q12 -54 12 -118q0 -184 -172 -361h694q84 0 84 -84z" />
    <glyph glyph-name="currency" unicode="&#xa4;" 
d="M1083 199q0 -40 -25 -67q-124 -138 -357 -138q-195 0 -324 157q-111 135 -142 342h-115q-80 0 -80 68q0 69 80 69h100q-4 43 -4 86q0 60 4 114h-100q-80 0 -80 68q0 69 80 69h113q26 205 146 350q135 163 331 163q236 0 336 -150q20 -31 20 -61q0 -29 -19.5 -51
t-48.5 -22q-24 0 -76 42q-63 52 -79 60q-53 26 -140 26q-125 0 -202 -122q-61 -96 -77 -235h393q80 0 80 -69q0 -68 -80 -68h-407q-4 -58 -4 -114q0 -42 3 -86h308q80 0 80 -69q0 -68 -80 -68h-291q19 -139 80 -229q76 -113 201 -113q116 0 197.5 59t116.5 59q62 0 62 -70z
" />
    <glyph glyph-name="yen" unicode="&#xa5;" 
d="M1080 1401q0 -37 -19 -65l-336 -521h199q80 0 80 -67q0 -68 -80 -68h-283v-143h283q80 0 80 -68q0 -69 -84 -69h-279v-320q0 -93 -92 -93q-88 0 -88 93v320h-289q-80 0 -80 65q0 72 80 72h289v143h-285q-88 0 -88 68q0 67 84 67h205l-340 521q-24 37 -24 65q0 31 22 51.5
t53 20.5q53 0 92 -58l369 -550l363 544q42 64 100 64q68 0 68 -72z" />
    <glyph glyph-name="section" unicode="&#xa7;" horiz-adv-x="1141" 
d="M1080 465q0 -217 -220 -348q131 -91 131 -238q0 -158 -142 -247q-121 -77 -288 -77q-141 0 -275 69q-156 80 -181 204q-4 19 -4 30q0 99 84 99q52 0 91 -64q58 -94 85 -118q73 -64 207 -64q93 0 159 35q82 44 82 129q0 92 -100 150q-70 39 -217 101t-216 101
q-225 129 -225 328q0 236 256 348q-135 82 -135 242q0 79 52 159q110 169 389 169q117 0 213 -47q157 -76 193 -204q9 -33 9 -50q0 -107 -84 -107q-52 0 -84 65q-47 95 -75 122q-69 65 -209 65q-84 0 -149 -43q-74 -50 -74 -129q0 -61 59.5 -113.5t221.5 -130.5
q122 -57 245 -115q201 -104 201 -321zM903 469q0 137 -168 215l-270 125q-229 -82 -229 -241q0 -124 192 -220l297 -147q178 124 178 268z" />
    <glyph glyph-name="dieresis" unicode="&#xa8;" horiz-adv-x="416" 
d="M512 1348q0 -46 -33 -77.5t-79 -31.5q-47 0 -79 31t-32 78q0 48 31 80t80 32q48 0 80 -32t32 -80zM129 1348q0 -46 -31.5 -77.5t-76.5 -31.5q-47 0 -80 31t-33 78q0 48 32 80t81 32q47 0 77.5 -32.5t30.5 -79.5z" />
    <glyph glyph-name="copyright" unicode="&#xa9;" horiz-adv-x="1641" 
d="M1565 727q0 -307 -219.5 -523.5t-526.5 -216.5q-306 0 -524.5 217t-218.5 523q0 307 218 526.5t525 219.5q308 0 527 -219t219 -527zM1393 727q0 242 -165 415q-168 175 -409 175q-240 0 -407.5 -174.5t-167.5 -415.5q0 -240 168 -413.5t407 -173.5q241 0 407.5 173
t166.5 414zM1192 549q0 -57 -61 -127q-124 -141 -307 -141q-193 0 -315 128.5t-122 321.5q0 202 117 327q120 130 320 130q170 0 277 -100q91 -85 91 -160q0 -59 -67 -59q-40 0 -117 101q-62 83 -184 83q-135 0 -206 -97q-63 -85 -63 -225q0 -128 69 -217q75 -98 200 -98
q94 0 155 48q25 21 76 91q36 49 70 49q67 0 67 -55z" />
    <glyph glyph-name="ordfeminine" unicode="&#xaa;" horiz-adv-x="740" 
d="M680 856q0 -55 -67 -55q-48 0 -60 23q-8 14 -8 65h-4q-60 -88 -173 -88q-140 0 -227 102q-81 96 -81 238q0 83 42 165q86 167 267 167q64 0 100 -23q7 -4 76 -65q0 50 8 64q13 24 60 24q67 0 67 -53v-564zM549 1137q0 82 -44 143q-48 68 -128 68q-79 0 -126 -69
q-42 -60 -42 -142q0 -84 41 -145q47 -68 127 -68t129 68q43 61 43 145z" />
    <glyph glyph-name="guillemotleft" unicode="&#xab;" horiz-adv-x="797" 
d="M756 197q0 -29 -25 -48.5t-55 -19.5q-39 0 -67 51l-209 369l204 367q30 53 76 53q28 0 52 -21.5t24 -48.5q0 -26 -25 -67l-168 -283l177 -293q16 -27 16 -59zM432 201q0 -31 -26 -51.5t-58 -20.5q-35 0 -63 51l-209 369l205 367q29 53 72 53q27 0 51 -22.5t24 -49.5
q0 -31 -20 -65l-168 -283l176 -293q16 -27 16 -55z" />
    <glyph glyph-name="logicalnot" unicode="&#xac;" horiz-adv-x="1229" 
d="M1133 299q0 -80 -84 -80t-84 84v344h-789q-84 0 -84 84t80 84h877q84 0 84 -88v-428z" />
    <glyph glyph-name="registered" unicode="&#xae;" horiz-adv-x="1641" 
d="M1561 727q0 -307 -217 -523.5t-525 -216.5t-525.5 216t-217.5 524q0 312 216 529t527 217t526.5 -217.5t215.5 -528.5zM1397 727q0 240 -169 415t-409 175q-239 0 -407 -175.5t-168 -414.5q0 -238 168.5 -410.5t406.5 -172.5q239 0 408.5 171.5t169.5 411.5zM1141 899
q0 -206 -209 -235l184 -283q17 -25 17 -49q0 -35 -76 -35q-50 0 -80 47l-196 312h-134v-295q0 -64 -67 -64q-64 0 -64 64v743q0 41 43 41h273q149 0 221 -48q88 -58 88 -198zM1008 908q0 112 -193 112h-168v-239h158q94 0 137 18q66 28 66 109z" />
    <glyph glyph-name="plusminus" unicode="&#xb1;" horiz-adv-x="1229" 
d="M1133 637q0 -82 -80 -82h-352v-227q0 -88 -84 -88t-84 88v227h-348q-97 0 -97 86q0 84 97 84h348v223q0 89 80 89q88 0 88 -89v-223h356q76 0 76 -88zM1141 80q0 -80 -84 -80h-872q-93 0 -93 84t93 84h872q84 0 84 -88z" />
    <glyph glyph-name="twosuperior" unicode="&#xb2;" horiz-adv-x="713" 
d="M652 656q0 -60 -72 -60h-455q-59 0 -65 41q8 28 16 39l365 457q51 63 51 110q0 50 -42 79q-37 26 -89 26q-68 0 -120 -50.5t-52 -117.5q0 -51 -64 -51q-61 0 -61 71q0 126 91 201q85 72 214 72q113 0 188 -53q84 -59 84 -168q0 -78 -78 -172l-294 -359h311q72 0 72 -65z
" />
    <glyph glyph-name="threesuperior" unicode="&#xb3;" horiz-adv-x="713" 
d="M652 852q0 -126 -102 -201q-92 -67 -222 -67q-214 0 -260 176q-3 12 -8 37q8 68 57 68q30 0 70 -67q43 -70 98 -81q43 -8 51 -8q62 0 113 39q55 42 55 102q0 97 -60 125q-17 8 -111 19q-60 7 -60 51q0 32 47 50q73 28 89 40q48 35 48 112q0 48 -42 76q-37 25 -87 25
q-117 0 -127 -96q-7 -56 -61 -56q-52 0 -52 80q0 100 96 158q64 39 162 39q107 0 178 -61q76 -64 76 -169q0 -123 -108 -182q160 -48 160 -209z" />
    <glyph glyph-name="acute" unicode="&#xb4;" horiz-adv-x="416" 
d="M852 1764q0 -48 -67 -76l-240 -101q-24 -10 -66 -10q-30 0 -54.5 21t-24.5 51q0 55 79 88l242 98q20 8 47 8q33 0 58.5 -23.5t25.5 -55.5z" />
    <glyph glyph-name="mu" unicode="&#xb5;" 
d="M983 88q0 -101 -90 -101q-74 0 -84 60q-113 -60 -256 -60q-178 0 -254 97v-437q0 -88 -90 -88q-88 0 -88 84v1369q0 92 88 92q90 0 90 -92v-580q0 -155 62 -221.5t215 -66.5q142 0 187 85q42 79 42 199v584q0 92 88 92q90 0 90 -92v-924z" />
    <glyph glyph-name="mu" unicode="&#x3bc;" 
d="M983 88q0 -101 -90 -101q-74 0 -84 60q-113 -60 -256 -60q-178 0 -254 97v-437q0 -88 -90 -88q-88 0 -88 84v1369q0 92 88 92q90 0 90 -92v-580q0 -155 62 -221.5t215 -66.5q142 0 187 85q42 79 42 199v584q0 92 88 92q90 0 90 -92v-924z" />
    <glyph glyph-name="paragraph" unicode="&#xb6;" horiz-adv-x="1229" 
d="M1067 -361q0 -80 -84 -80t-84 76v1688h-235v-1692q0 -76 -84 -76t-84 80v1070q-187 0 -309 98q-131 106 -131 289q0 186 160 285q134 83 333 83h424q94 0 94 -104v-1717z" />
    <glyph glyph-name="periodcentered" unicode="&#xb7;" horiz-adv-x="492" 
d="M369 621q0 -46 -33.5 -77.5t-79.5 -31.5t-79 31.5t-33 77.5t32.5 78t79.5 32t80 -31.5t33 -78.5z" />
    <glyph glyph-name="periodcentered" unicode="&#x2219;" horiz-adv-x="492" 
d="M369 621q0 -46 -33.5 -77.5t-79.5 -31.5t-79 31.5t-33 77.5t32.5 78t79.5 32t80 -31.5t33 -78.5z" />
    <glyph glyph-name="cedilla" unicode="&#xb8;" horiz-adv-x="416" 
d="M500 -198q0 -171 -227 -171q-148 0 -148 72q0 57 39 57q18 0 54 -10t55 -10q71 0 71 55q0 41 -70 41h-8q-68 0 -73 35q8 37 76 129h108l-61 -88q49 8 45 8q53 0 94 -32q45 -34 45 -86z" />
    <glyph glyph-name="onesuperior" unicode="&#xb9;" horiz-adv-x="469" 
d="M324 647q0 -63 -72 -63t-72 63v689h-108q-59 0 -59 61q0 63 59 63h217q35 0 35 -28v-785z" />
    <glyph glyph-name="ordmasculine" unicode="&#xba;" horiz-adv-x="713" 
d="M672 1137q0 -145 -83 -238q-86 -98 -228 -98t-229 98q-85 94 -85 238q0 146 83 238q86 98 231 98q142 0 228 -98q83 -93 83 -238zM525 1137q0 81 -41 141q-45 70 -123 70q-80 0 -127 -68q-41 -60 -41 -143q0 -82 42 -144q48 -69 126 -69q76 0 123 70q41 62 41 143z" />
    <glyph glyph-name="guillemotright" unicode="&#xbb;" horiz-adv-x="797" 
d="M756 549l-203 -369q-28 -51 -74 -51q-69 0 -79 68q8 39 20 59l176 293l-172 283q-24 40 -24 65q0 27 24 49.5t51 22.5q49 0 78 -53zM432 549l-209 -369q-29 -51 -67 -51q-69 0 -80 68q8 39 21 59l176 293l-172 283q-25 40 -25 65q0 27 24.5 49.5t51.5 22.5q46 0 76 -53z
" />
    <glyph glyph-name="onequarter" unicode="&#xbc;" horiz-adv-x="1649" 
d="M1577 260q0 -46 -32 -56q-11 -3 -72 -3v-154q0 -60 -72 -60q-78 0 -78 64v150h-366q-45 0 -45 43q0 26 32 76l328 495q41 62 105 62q96 0 96 -80v-477q59 0 71 -4q33 -11 33 -56zM1100 1428q0 -29 -25 -88l-546 -1307q-26 -62 -76 -62q-72 0 -72 54q0 15 19 59l561 1348
q23 57 71 57q68 0 68 -61zM385 647q0 -63 -78 -63q-28 0 -49.5 18t-21.5 45v689h-105q-59 0 -59 61q0 63 57 63h215q41 0 41 -28v-785zM1323 320v407h-2l-237 -407h239z" />
    <glyph glyph-name="onehalf" unicode="&#xbd;" horiz-adv-x="1649" 
d="M1516 60q0 -60 -72 -60h-453q-57 0 -63 41q6 16 16 35l361 461q51 65 51 110q0 50 -40 79q-35 26 -87 26q-70 0 -123 -49.5t-53 -118.5q0 -51 -62 -51q-59 0 -59 71q0 127 91 202q84 71 214 71q113 0 186 -55q80 -61 80 -170q0 -88 -71 -173l-299 -354h315q68 0 68 -65z
M1037 1428q0 -29 -25 -88l-547 -1307q-26 -62 -78 -62q-60 0 -71 54q2 16 20 59l561 1348q24 57 72 57q68 0 68 -61zM385 647q0 -63 -78 -63q-28 0 -49.5 18t-21.5 45v689h-105q-63 0 -63 61q0 63 61 63h215q41 0 41 -28v-785z" />
    <glyph glyph-name="threequarters" unicode="&#xbe;" horiz-adv-x="1649" 
d="M1577 260q0 -47 -32 -57q-9 -2 -72 -2v-154q0 -60 -72 -60q-78 0 -78 64v150h-366q-45 0 -45 43q0 26 32 76l328 495q41 62 105 62q96 0 96 -80v-477q61 0 72 -4q32 -10 32 -56zM1225 1428q0 -30 -25 -88l-548 -1307q-26 -62 -76 -62q-57 0 -68 54q4 30 17 59l559 1348
q23 57 71 57q70 0 70 -61zM676 848q0 -125 -100 -198q-90 -66 -219 -66q-212 0 -260 176q-3 12 -9 37q9 68 56 68q35 0 70 -66q37 -71 98 -82q44 -8 53 -8q57 0 110 38q58 41 58 97q0 98 -61 128q-19 10 -112 22q-61 8 -61 51q0 35 47 51q72 26 86 36q47 35 47 115
q0 101 -122 101q-123 0 -134 -96q-7 -56 -55 -56q-51 0 -51 80q0 87 78 146q66 51 179 51q107 0 179 -61q76 -64 76 -169q0 -119 -113 -182q160 -48 160 -213zM1323 320v407h-2l-237 -407h239z" />
    <glyph glyph-name="questiondown" unicode="&#xbf;" horiz-adv-x="908" 
d="M576 996q0 -43 -31 -73t-74 -30q-44 0 -73 29.5t-29 73.5q0 45 28 74.5t74 29.5q45 0 75 -29.5t30 -74.5zM869 -72q0 -139 -139 -229q-122 -80 -269 -80q-172 0 -294 99q-130 107 -130 275q0 161 93 267q90 101 251 136v213q0 88 84 88q94 0 94 -88v-269q0 -62 -62 -88
q-58 -14 -116 -29q-71 -19 -112 -75.5t-41 -130.5q0 -9 4 -50q2 -25 17 -59q52 -121 226 -121q171 0 222 149q28 85 84 85q88 0 88 -93z" />
    <glyph glyph-name="Agrave" unicode="&#xc0;" horiz-adv-x="1252" 
d="M1237 56q0 -73 -84 -73q-67 0 -92 68l-96 265h-676l-96 -265q-24 -64 -92 -64q-84 0 -84 73q5 25 12 49l471 1259q40 109 125 109q87 0 127 -105l477 -1263q8 -22 8 -53zM912 471l-283 793h-4l-281 -793h568zM852 1649q0 -76 -88 -76q-7 0 -47 10l-260 105q-65 26 -65 76
q0 34 26 59t62 25q21 0 32 -5l273 -114q67 -29 67 -80z" />
    <glyph glyph-name="Aacute" unicode="&#xc1;" horiz-adv-x="1252" 
d="M1237 56q0 -73 -84 -73q-67 0 -92 68l-96 265h-676l-96 -265q-24 -64 -92 -64q-84 0 -84 73q5 25 12 49l471 1259q40 109 125 109q87 0 127 -105l477 -1263q8 -22 8 -53zM912 471l-283 793h-4l-281 -793h568zM848 1760q0 -48 -67 -76l-240 -101q-24 -10 -66 -10
q-30 0 -54.5 21t-24.5 51q0 55 79 88l242 98q20 8 47 8q33 0 58.5 -23.5t25.5 -55.5z" />
    <glyph glyph-name="Acircumflex" unicode="&#xc2;" horiz-adv-x="1252" 
d="M1237 56q0 -73 -84 -73q-67 0 -92 68l-96 265h-676l-96 -265q-24 -64 -92 -64q-84 0 -84 73q5 25 12 49l471 1259q40 109 125 109q87 0 127 -105l477 -1263q8 -22 8 -53zM912 471l-283 793h-4l-281 -793h568zM941 1641q0 -74 -76 -74q-19 0 -244 92q-235 -92 -252 -92
q-70 0 -70 74q0 59 49 80l273 115l266 -115q54 -24 54 -80z" />
    <glyph glyph-name="Atilde" unicode="&#xc3;" horiz-adv-x="1252" 
d="M1237 56q0 -73 -84 -73q-67 0 -92 68l-96 265h-676l-96 -265q-24 -64 -92 -64q-84 0 -84 73q5 25 12 49l471 1259q40 109 125 109q87 0 127 -105l477 -1263q8 -22 8 -53zM912 471l-283 793h-4l-281 -793h568zM928 1721q0 -65 -69 -102q-54 -28 -127 -31q-9 4 -19 4
q-33 0 -98 18.5t-98 18.5q-25 0 -130 -41q-63 30 -63 80q0 129 180 129q41 0 113 -18q95 -23 111 -23q19 0 64 20.5t69 20.5q28 0 47.5 -23.5t19.5 -52.5z" />
    <glyph glyph-name="Adieresis" unicode="&#xc4;" horiz-adv-x="1252" 
d="M1237 56q0 -73 -84 -73q-67 0 -92 68l-96 265h-676l-96 -265q-24 -64 -92 -64q-84 0 -84 73q5 25 12 49l471 1259q40 109 125 109q87 0 127 -105l477 -1263q8 -22 8 -53zM912 471l-283 793h-4l-281 -793h568zM932 1676q0 -46 -33 -77.5t-79 -31.5q-47 0 -79 31t-32 78
q0 48 31 80t80 32q48 0 80 -32t32 -80zM549 1676q0 -46 -31.5 -77.5t-76.5 -31.5q-47 0 -80 31t-33 78q0 48 32 80t81 32q47 0 77.5 -32.5t30.5 -79.5z" />
    <glyph glyph-name="Aring" unicode="&#xc5;" horiz-adv-x="1252" 
d="M1237 56q0 -73 -84 -73q-67 0 -92 68l-96 265h-676l-96 -265q-24 -64 -92 -64q-84 0 -84 73q5 25 12 49l471 1259q40 109 125 109q87 0 127 -105l477 -1263q8 -22 8 -53zM912 471l-283 793h-4l-281 -793h568zM816 1701q0 -81 -57 -137t-138 -56q-80 0 -136 56.5
t-56 136.5t55.5 137t136.5 57q82 0 138.5 -56.5t56.5 -137.5zM715 1701q0 38 -27.5 67t-66.5 29t-65.5 -28.5t-26.5 -67.5q0 -40 26 -66t66 -26t67 26t27 66z" />
    <glyph glyph-name="AE" unicode="&#xc6;" horiz-adv-x="1516" 
d="M1473 80q0 -36 -27.5 -58t-64.5 -22h-521q-96 0 -96 101v215h-471l-149 -283q-25 -46 -80 -46q-81 0 -81 69q0 33 17 65l647 1268q36 71 117 71h600q84 0 84 -83q0 -84 -88 -84h-416v-478h404q80 0 80 -90q0 -82 -84 -82h-400v-475h441q88 0 88 -88zM764 471v781h-4
l-391 -781h395z" />
    <glyph glyph-name="Ccedilla" unicode="&#xc7;" horiz-adv-x="1217" 
d="M1164 193q0 -43 -27 -68q-137 -128 -402 -138l-51 -75q57 8 43 8q54 0 96 -31q46 -35 46 -87q0 -171 -228 -171q-149 0 -149 72q0 57 45 57q17 0 51.5 -10t52.5 -10q72 0 72 55q0 38 -74 41.5t-80 38.5q11 39 70 117q-280 31 -433 267q-132 204 -132 450q0 322 160 532
q177 232 489 232q158 0 291 -70t133 -156q0 -75 -76 -75q-23 0 -75 37q-70 51 -109 70q-77 38 -161 38q-218 0 -347 -187q-113 -165 -113 -393q0 -309 175 -487q104 -107 274 -107q93 0 165 29q50 19 167 84q29 17 59 17q68 0 68 -80z" />
    <glyph glyph-name="Egrave" unicode="&#xc8;" horiz-adv-x="908" 
d="M824 80q0 -80 -89 -80h-526q-88 0 -88 97v1263q0 100 76 100h551q76 0 76 -83q0 -84 -80 -84h-445v-482h406q80 0 80 -84t-84 -84h-402v-475h449q76 0 76 -88zM696 1649q0 -76 -88 -76q-7 0 -47 10l-260 105q-65 26 -65 76q0 34 26 59t62 25q21 0 32 -5l273 -114
q67 -29 67 -80z" />
    <glyph glyph-name="Eacute" unicode="&#xc9;" horiz-adv-x="908" 
d="M824 80q0 -80 -89 -80h-526q-88 0 -88 97v1263q0 100 76 100h551q76 0 76 -83q0 -84 -80 -84h-445v-482h406q80 0 80 -84t-84 -84h-402v-475h449q76 0 76 -88zM676 1760q0 -48 -67 -76l-240 -101q-24 -10 -66 -10q-30 0 -54.5 21t-24.5 51q0 55 79 88l242 98q20 8 47 8
q33 0 58.5 -23.5t25.5 -55.5z" />
    <glyph glyph-name="Ecircumflex" unicode="&#xca;" horiz-adv-x="908" 
d="M824 80q0 -80 -89 -80h-526q-88 0 -88 97v1263q0 100 76 100h551q76 0 76 -83q0 -84 -80 -84h-445v-482h406q80 0 80 -84t-84 -84h-402v-475h449q76 0 76 -88zM781 1641q0 -74 -76 -74q-19 0 -244 92q-235 -92 -252 -92q-70 0 -70 74q0 59 49 80l273 115l266 -115
q54 -24 54 -80z" />
    <glyph glyph-name="Edieresis" unicode="&#xcb;" horiz-adv-x="908" 
d="M824 80q0 -80 -89 -80h-526q-88 0 -88 97v1263q0 100 76 100h551q76 0 76 -83q0 -84 -80 -84h-445v-482h406q80 0 80 -84t-84 -84h-402v-475h449q76 0 76 -88zM764 1672q0 -46 -33 -77.5t-79 -31.5q-47 0 -79 31t-32 78q0 48 31 80t80 32q48 0 80 -32t32 -80zM381 1672
q0 -46 -31.5 -77.5t-76.5 -31.5q-47 0 -80 31t-33 78q0 48 32 80t81 32q47 0 77.5 -32.5t30.5 -79.5z" />
    <glyph glyph-name="Igrave" unicode="&#xcc;" horiz-adv-x="416" 
d="M299 88q0 -101 -86 -101q-92 0 -92 97v1293q0 96 92 96q86 0 86 -96v-1289zM444 1636q0 -76 -88 -76q-7 0 -47 10l-260 105q-65 26 -65 76q0 34 26 59t62 25q21 0 32 -5l273 -114q67 -29 67 -80z" />
    <glyph glyph-name="Iacute" unicode="&#xcd;" horiz-adv-x="416" 
d="M299 88q0 -101 -86 -101q-92 0 -92 97v1293q0 96 92 96q86 0 86 -96v-1289zM416 1756q0 -48 -67 -76l-240 -101q-24 -10 -66 -10q-30 0 -54.5 21t-24.5 51q0 55 79 88l242 98q20 8 47 8q33 0 58.5 -23.5t25.5 -55.5z" />
    <glyph glyph-name="Icircumflex" unicode="&#xce;" horiz-adv-x="416" 
d="M299 88q0 -101 -86 -101q-92 0 -92 97v1293q0 96 92 96q86 0 86 -96v-1289zM529 1641q0 -74 -76 -74q-19 0 -244 92q-235 -92 -252 -92q-70 0 -70 74q0 59 49 80l273 115l266 -115q54 -24 54 -80z" />
    <glyph glyph-name="Idieresis" unicode="&#xcf;" horiz-adv-x="416" 
d="M299 88q0 -101 -86 -101q-92 0 -92 97v1293q0 96 92 96q86 0 86 -96v-1289zM512 1676q0 -46 -33 -77.5t-79 -31.5q-47 0 -79 31t-32 78q0 48 31 80t80 32q48 0 80 -32t32 -80zM129 1676q0 -46 -31.5 -77.5t-76.5 -31.5q-47 0 -80 31t-33 78q0 48 32 80t81 32
q47 0 77.5 -32.5t30.5 -79.5z" />
    <glyph glyph-name="Eth" unicode="&#xd0;" horiz-adv-x="1293" 
d="M1229 735q0 -210 -74 -381q-155 -354 -546 -354h-386q-37 0 -64 21q-30 23 -30 59v580q-99 0 -108 1q-58 12 -58 74q0 61 59 74q10 2 107 2v553q0 96 94 96h369q298 0 474 -218q163 -201 163 -507zM1037 748q0 240 -114 390q-126 167 -360 167h-256v-494h252q84 0 84 -76
q0 -75 -84 -75h-252v-504h281q157 0 283 110q166 145 166 482z" />
    <glyph glyph-name="Ntilde" unicode="&#xd1;" horiz-adv-x="1364" 
d="M1247 76q0 -93 -79 -93q-61 0 -101 58l-768 1104v-1069q0 -89 -90 -89q-88 0 -88 93v1301q0 96 76 96q59 0 102 -62l766 -1099h2v1061q0 96 88 96q92 0 92 -96v-1301zM987 1721q0 -65 -69 -102q-54 -28 -127 -31q-9 4 -19 4q-33 0 -98 18.5t-98 18.5q-25 0 -130 -41
q-63 30 -63 80q0 129 180 129q41 0 113 -18q95 -23 111 -23q19 0 64 20.5t69 20.5q28 0 47.5 -23.5t19.5 -52.5z" />
    <glyph glyph-name="Ograve" unicode="&#xd2;" horiz-adv-x="1401" 
d="M1344 719q0 -301 -167 -508q-180 -224 -472 -224q-296 0 -476 228q-165 209 -165 512q0 306 164 516q179 230 477 230q301 0 478 -232q161 -211 161 -522zM1153 737q0 240 -101 396q-120 184 -347 184q-226 0 -347 -188q-102 -159 -102 -398q0 -242 101 -400
q119 -187 348 -187q226 0 347 191q101 161 101 402zM936 1653q0 -76 -88 -76q-7 0 -47 10l-260 105q-65 26 -65 76q0 34 26 59t62 25q21 0 32 -5l273 -114q67 -29 67 -80z" />
    <glyph glyph-name="Oacute" unicode="&#xd3;" horiz-adv-x="1401" 
d="M1344 719q0 -301 -167 -508q-180 -224 -472 -224q-296 0 -476 228q-165 209 -165 512q0 306 164 516q179 230 477 230q301 0 478 -232q161 -211 161 -522zM1153 737q0 240 -101 396q-120 184 -347 184q-226 0 -347 -188q-102 -159 -102 -398q0 -242 101 -400
q119 -187 348 -187q226 0 347 191q101 161 101 402zM928 1764q0 -48 -67 -76l-240 -101q-24 -10 -66 -10q-30 0 -54.5 21t-24.5 51q0 55 79 88l242 98q20 8 47 8q33 0 58.5 -23.5t25.5 -55.5z" />
    <glyph glyph-name="Ocircumflex" unicode="&#xd4;" horiz-adv-x="1401" 
d="M1344 719q0 -301 -167 -508q-180 -224 -472 -224q-296 0 -476 228q-165 209 -165 512q0 306 164 516q179 230 477 230q301 0 478 -232q161 -211 161 -522zM1153 737q0 240 -101 396q-120 184 -347 184q-226 0 -347 -188q-102 -159 -102 -398q0 -242 101 -400
q119 -187 348 -187q226 0 347 191q101 161 101 402zM1026 1641q0 -74 -76 -74q-19 0 -244 92q-235 -92 -252 -92q-70 0 -70 74q0 59 49 80l273 115l266 -115q54 -24 54 -80z" />
    <glyph glyph-name="Otilde" unicode="&#xd5;" horiz-adv-x="1401" 
d="M1344 719q0 -301 -167 -508q-180 -224 -472 -224q-296 0 -476 228q-165 209 -165 512q0 306 164 516q179 230 477 230q301 0 478 -232q161 -211 161 -522zM1153 737q0 240 -101 396q-120 184 -347 184q-226 0 -347 -188q-102 -159 -102 -398q0 -242 101 -400
q119 -187 348 -187q226 0 347 191q101 161 101 402zM1004 1721q0 -65 -69 -102q-54 -28 -127 -31q-9 4 -19 4q-33 0 -98 18.5t-98 18.5q-25 0 -130 -41q-63 30 -63 80q0 129 180 129q41 0 113 -18q95 -23 111 -23q19 0 64 20.5t69 20.5q28 0 47.5 -23.5t19.5 -52.5z" />
    <glyph glyph-name="Odieresis" unicode="&#xd6;" horiz-adv-x="1401" 
d="M1344 719q0 -301 -167 -508q-180 -224 -472 -224q-296 0 -476 228q-165 209 -165 512q0 306 164 516q179 230 477 230q301 0 478 -232q161 -211 161 -522zM1153 737q0 240 -101 396q-120 184 -347 184q-226 0 -347 -188q-102 -159 -102 -398q0 -242 101 -400
q119 -187 348 -187q226 0 347 191q101 161 101 402zM1008 1676q0 -46 -33 -77.5t-79 -31.5q-47 0 -79 31t-32 78q0 48 31 80t80 32q48 0 80 -32t32 -80zM625 1676q0 -46 -31.5 -77.5t-76.5 -31.5q-47 0 -80 31t-33 78q0 48 32 80t81 32q47 0 77.5 -32.5t30.5 -79.5z" />
    <glyph glyph-name="Oslash" unicode="&#xd8;" horiz-adv-x="1401" 
d="M1364 1428q0 -20 -16 -39l-148 -172q144 -207 144 -502q0 -298 -168 -505q-181 -223 -471 -223q-242 0 -416 165l-125 -148q-31 -37 -72 -37q-55 0 -55 58q0 25 23 51l145 168q-141 208 -141 483q0 306 164 516q179 230 477 230q244 0 411 -164l127 151q24 29 58 29
q63 0 63 -61zM1008 1184q-121 133 -303 133q-226 0 -347 -188q-102 -159 -102 -398q0 -195 68 -344zM1153 731q0 196 -73 340l-684 -794q115 -133 309 -133q192 0 317 148q131 155 131 439z" />
    <glyph glyph-name="Ugrave" unicode="&#xd9;" horiz-adv-x="1364" 
d="M1247 563q0 -275 -139 -423q-143 -153 -416 -153q-275 0 -423 148t-148 424v822q0 92 88 92q90 0 90 -92v-877q0 -171 111 -268q105 -93 279 -93q169 0 273 96q109 98 109 265v877q0 92 84 92q92 0 92 -92v-818zM916 1649q0 -76 -88 -76q-7 0 -47 10l-260 105
q-65 26 -65 76q0 34 26 59t62 25q21 0 32 -5l273 -114q67 -29 67 -80z" />
    <glyph glyph-name="Uacute" unicode="&#xda;" horiz-adv-x="1364" 
d="M1247 563q0 -275 -139 -423q-143 -153 -416 -153q-275 0 -423 148t-148 424v822q0 92 88 92q90 0 90 -92v-877q0 -171 111 -268q105 -93 279 -93q169 0 273 96q109 98 109 265v877q0 92 84 92q92 0 92 -92v-818zM933 1764q0 -48 -67 -76l-240 -101q-24 -10 -66 -10
q-30 0 -54.5 21t-24.5 51q0 55 79 88l242 98q20 8 47 8q33 0 58.5 -23.5t25.5 -55.5z" />
    <glyph glyph-name="Ucircumflex" unicode="&#xdb;" horiz-adv-x="1364" 
d="M1247 563q0 -275 -139 -423q-143 -153 -416 -153q-275 0 -423 148t-148 424v822q0 92 88 92q90 0 90 -92v-877q0 -171 111 -268q105 -93 279 -93q169 0 273 96q109 98 109 265v877q0 92 84 92q92 0 92 -92v-818zM1000 1641q0 -74 -76 -74q-19 0 -244 92
q-235 -92 -252 -92q-70 0 -70 74q0 59 49 80l273 115l266 -115q54 -24 54 -80z" />
    <glyph glyph-name="Udieresis" unicode="&#xdc;" horiz-adv-x="1364" 
d="M1247 563q0 -275 -139 -423q-143 -153 -416 -153q-275 0 -423 148t-148 424v822q0 92 88 92q90 0 90 -92v-877q0 -171 111 -268q105 -93 279 -93q169 0 273 96q109 98 109 265v877q0 92 84 92q92 0 92 -92v-818zM987 1676q0 -46 -33 -77.5t-79 -31.5q-47 0 -79 31t-32 78
q0 48 31 80t80 32q48 0 80 -32t32 -80zM604 1676q0 -46 -31.5 -77.5t-76.5 -31.5q-47 0 -80 31t-33 78q0 48 32 80t81 32q47 0 77.5 -32.5t30.5 -79.5z" />
    <glyph glyph-name="Yacute" unicode="&#xdd;" horiz-adv-x="987" 
d="M1020 1397q0 -31 -16 -57l-400 -652v-604q0 -42 -25 -71.5t-67 -29.5q-40 0 -65 32q-23 28 -23 69v604l-399 648q-25 39 -25 65q0 31 24.5 51.5t55.5 20.5q58 0 88 -49l344 -559l344 555q33 53 84 53q80 0 80 -76zM739 1768q0 -48 -67 -76l-240 -101q-24 -10 -66 -10
q-30 0 -54.5 21t-24.5 51q0 55 79 88l242 98q20 8 47 8q33 0 58.5 -23.5t25.5 -55.5z" />
    <glyph glyph-name="Thorn" unicode="&#xde;" horiz-adv-x="1065" 
d="M1045 772q0 -198 -137 -327q-133 -125 -332 -125h-277v-236q0 -105 -90 -105q-41 0 -66 33q-22 30 -22 72v1293q0 42 22 71q25 33 66 33q90 0 90 -104v-148h273q289 0 415 -226q58 -104 58 -231zM865 772q0 140 -84.5 221.5t-225.5 81.5h-256v-600h264q131 0 216.5 83
t85.5 214z" />
    <glyph glyph-name="germandbls" unicode="&#xdf;" horiz-adv-x="1141" 
d="M1037 449q0 -179 -113 -316q-119 -146 -294 -146q-118 0 -118 93q0 63 80 68q158 9 205 98.5t47 218.5q0 125 -59 205q-65 86 -185 98q-96 9 -96 80q0 52 61 72q88 31 114 55q61 59 61 203q0 105 -59 175q-62 75 -166 75q-109 0 -166 -89q-48 -73 -52 -190l2 -3v-1074
q0 -85 -90 -85q-88 0 -88 85v1104q0 177 107.5 292t283.5 115q165 0 284 -108q124 -112 124 -275q0 -222 -156 -335q135 -38 207 -159q66 -109 66 -257z" />
    <glyph glyph-name="agrave" unicode="&#xe0;" horiz-adv-x="1141" 
d="M1020 80q0 -93 -84 -93q-66 0 -80 55q-4 15 -4 110h-4q-119 -165 -292 -165q-130 0 -243 69q-241 146 -241 485q0 358 250 501q108 62 219 62q179 0 307 -147h4q0 72 8 97q17 50 76 50q84 0 84 -92v-932zM848 545q0 165 -65 273q-79 130 -234 130q-153 0 -232 -135
q-65 -110 -65 -274q0 -156 66 -265q78 -130 223 -130q162 0 241 125q66 104 66 276zM796 1329q0 -76 -88 -76q-7 0 -47 10l-260 105q-65 26 -65 76q0 34 26 59t62 25q21 0 32 -5l273 -114q67 -29 67 -80z" />
    <glyph glyph-name="aacute" unicode="&#xe1;" horiz-adv-x="1141" 
d="M1020 80q0 -93 -84 -93q-66 0 -80 55q-4 15 -4 110h-4q-119 -165 -292 -165q-130 0 -243 69q-241 146 -241 485q0 358 250 501q108 62 219 62q179 0 307 -147h4q0 72 8 97q17 50 76 50q84 0 84 -92v-932zM848 545q0 165 -65 273q-79 130 -234 130q-153 0 -232 -135
q-65 -110 -65 -274q0 -156 66 -265q78 -130 223 -130q162 0 241 125q66 104 66 276zM792 1436q0 -48 -67 -76l-240 -101q-24 -10 -66 -10q-30 0 -54.5 21t-24.5 51q0 55 79 88l242 98q20 8 47 8q33 0 58.5 -23.5t25.5 -55.5z" />
    <glyph glyph-name="acircumflex" unicode="&#xe2;" horiz-adv-x="1141" 
d="M1020 80q0 -93 -84 -93q-66 0 -80 55q-4 15 -4 110h-4q-119 -165 -292 -165q-130 0 -243 69q-241 146 -241 485q0 358 250 501q108 62 219 62q179 0 307 -147h4q0 72 8 97q17 50 76 50q84 0 84 -92v-932zM848 545q0 165 -65 273q-79 130 -234 130q-153 0 -232 -135
q-65 -110 -65 -274q0 -156 66 -265q78 -130 223 -130q162 0 241 125q66 104 66 276zM890 1313q0 -74 -76 -74q-19 0 -244 92q-235 -92 -252 -92q-70 0 -70 74q0 59 49 80l273 115l266 -115q54 -24 54 -80z" />
    <glyph glyph-name="atilde" unicode="&#xe3;" horiz-adv-x="1141" 
d="M1020 80q0 -93 -84 -93q-66 0 -80 55q-4 15 -4 110h-4q-119 -165 -292 -165q-130 0 -243 69q-241 146 -241 485q0 358 250 501q108 62 219 62q179 0 307 -147h4q0 72 8 97q17 50 76 50q84 0 84 -92v-932zM848 545q0 165 -65 273q-79 130 -234 130q-153 0 -232 -135
q-65 -110 -65 -274q0 -156 66 -265q78 -130 223 -130q162 0 241 125q66 104 66 276zM877 1393q0 -65 -69 -102q-54 -28 -127 -31q-9 4 -19 4q-33 0 -98 18.5t-98 18.5q-25 0 -130 -41q-63 30 -63 80q0 129 180 129q41 0 113 -18q95 -23 111 -23q19 0 64 20.5t69 20.5
q28 0 47.5 -23.5t19.5 -52.5z" />
    <glyph glyph-name="adieresis" unicode="&#xe4;" horiz-adv-x="1141" 
d="M1020 80q0 -93 -84 -93q-66 0 -80 55q-4 15 -4 110h-4q-119 -165 -292 -165q-130 0 -243 69q-241 146 -241 485q0 358 250 501q108 62 219 62q179 0 307 -147h4q0 72 8 97q17 50 76 50q84 0 84 -92v-932zM848 545q0 165 -65 273q-79 130 -234 130q-153 0 -232 -135
q-65 -110 -65 -274q0 -156 66 -265q78 -130 223 -130q162 0 241 125q66 104 66 276zM873 1348q0 -46 -33 -77.5t-79 -31.5q-47 0 -79 31t-32 78q0 48 31 80t80 32q48 0 80 -32t32 -80zM490 1348q0 -46 -31.5 -77.5t-76.5 -31.5q-47 0 -80 31t-33 78q0 48 32 80t81 32
q47 0 77.5 -32.5t30.5 -79.5z" />
    <glyph glyph-name="aring" unicode="&#xe5;" horiz-adv-x="1141" 
d="M1020 80q0 -93 -84 -93q-66 0 -80 55q-4 15 -4 110h-4q-119 -165 -292 -165q-130 0 -243 69q-241 146 -241 485q0 358 250 501q108 62 219 62q179 0 307 -147h4q0 72 8 97q17 50 76 50q84 0 84 -92v-932zM848 545q0 165 -65 273q-79 130 -234 130q-153 0 -232 -135
q-65 -110 -65 -274q0 -156 66 -265q78 -130 223 -130q162 0 241 125q66 104 66 276zM765 1393q0 -81 -57 -137t-138 -56q-80 0 -136 56.5t-56 136.5t55.5 137t136.5 57q82 0 138.5 -56.5t56.5 -137.5zM664 1393q0 38 -27.5 67t-66.5 29t-65.5 -28.5t-26.5 -67.5
q0 -40 26 -66t66 -26t67 26t27 66z" />
    <glyph glyph-name="ae" unicode="&#xe6;" horiz-adv-x="1821" 
d="M1768 576q0 -101 -101 -101h-663q4 -140 91 -232q89 -95 228 -95q117 0 257 88q21 17 65 45q16 8 35 8q65 0 65 -76q0 -27 -8 -45q-30 -64 -161 -125q-119 -56 -228 -56q-223 0 -324 134h-4q0 -69 -9 -91q-17 -43 -75 -43q-62 0 -78 58q-6 23 -6 107h-4
q-108 -160 -303 -160q-288 0 -414 278q-60 129 -60 277q0 170 71 299q63 116 165 184q108 74 234 74q180 0 307 -147h4q0 78 6 96q14 47 74 47q61 0 78 -40q10 -22 10 -91h4q46 57 128.5 96t157.5 39q195 0 331 -170q127 -158 127 -358zM1587 613q-2 139 -71 231
q-77 104 -211 104q-142 0 -218 -100q-66 -88 -71 -235h571zM852 537q0 168 -67 278q-82 133 -240 133q-147 0 -226 -132q-67 -110 -67 -267q0 -165 66 -274q80 -131 235 -131q151 0 231 125q68 107 68 268z" />
    <glyph glyph-name="ccedilla" unicode="&#xe7;" horiz-adv-x="908" 
d="M856 965q0 -70 -80 -76q-165 55 -213 55q-148 0 -235 -128q-76 -112 -76 -267q0 -154 64 -264q75 -131 217 -141q10 -1 30 -4q50 3 91 18l64 28q44 19 63 19q67 0 67 -76q0 -75 -100 -113q-74 -29 -164 -29l-51 -75q46 8 43 8q52 0 94 -29q47 -32 47 -84
q0 -176 -229 -176q-152 0 -152 72q0 57 45 57q18 0 53 -10t54 -10q71 0 71 55q0 41 -73 41t-78 39q9 36 67 121q-293 45 -378 360q-26 94 -26 172q0 244 122 402q134 174 371 174q103 0 180 -25q112 -37 112 -114z" />
    <glyph glyph-name="egrave" unicode="&#xe8;" horiz-adv-x="1065" 
d="M1012 563q0 -88 -100 -88h-680q2 -153 90.5 -242t240.5 -89q147 0 293 112q43 33 68 33q63 0 63 -76q0 -92 -196 -177q-111 -49 -238 -49q-237 0 -374 163q-128 152 -132 395q4 7 4 10q2 32 10 97q38 241 220 372q110 80 252 80q212 0 349 -167q130 -157 130 -374z
M832 613q-3 145 -75 235q-80 100 -221 100q-143 0 -225 -99q-74 -90 -79 -236h600zM768 1321q0 -76 -88 -76q-7 0 -47 10l-260 105q-65 26 -65 76q0 34 26 59t62 25q21 0 32 -5l273 -114q67 -29 67 -80z" />
    <glyph glyph-name="eacute" unicode="&#xe9;" horiz-adv-x="1065" 
d="M1012 563q0 -88 -100 -88h-680q2 -153 90.5 -242t240.5 -89q147 0 293 112q43 33 68 33q63 0 63 -76q0 -92 -196 -177q-111 -49 -238 -49q-237 0 -374 163q-128 152 -132 395q4 7 4 10q2 32 10 97q38 241 220 372q110 80 252 80q212 0 349 -167q130 -157 130 -374z
M832 613q-3 145 -75 235q-80 100 -221 100q-143 0 -225 -99q-74 -90 -79 -236h600zM760 1440q0 -48 -67 -76l-240 -101q-24 -10 -66 -10q-30 0 -54.5 21t-24.5 51q0 55 79 88l242 98q20 8 47 8q33 0 58.5 -23.5t25.5 -55.5z" />
    <glyph glyph-name="ecircumflex" unicode="&#xea;" horiz-adv-x="1065" 
d="M1012 563q0 -88 -100 -88h-680q2 -153 90.5 -242t240.5 -89q147 0 293 112q43 33 68 33q63 0 63 -76q0 -92 -196 -177q-111 -49 -238 -49q-237 0 -374 163q-128 152 -132 395q4 7 4 10q2 32 10 97q38 241 220 372q110 80 252 80q212 0 349 -167q130 -157 130 -374z
M832 613q-3 145 -75 235q-80 100 -221 100q-143 0 -225 -99q-74 -90 -79 -236h600zM865 1313q0 -74 -76 -74q-19 0 -244 92q-235 -92 -252 -92q-70 0 -70 74q0 59 49 80l273 115l266 -115q54 -24 54 -80z" />
    <glyph glyph-name="edieresis" unicode="&#xeb;" horiz-adv-x="1065" 
d="M1012 563q0 -88 -100 -88h-680q2 -153 90.5 -242t240.5 -89q147 0 293 112q43 33 68 33q63 0 63 -76q0 -92 -196 -177q-111 -49 -238 -49q-237 0 -374 163q-128 152 -132 395q4 7 4 10q2 32 10 97q38 241 220 372q110 80 252 80q212 0 349 -167q130 -157 130 -374z
M832 613q-3 145 -75 235q-80 100 -221 100q-143 0 -225 -99q-74 -90 -79 -236h600zM836 1348q0 -46 -33 -77.5t-79 -31.5q-47 0 -79 31t-32 78q0 48 31 80t80 32q48 0 80 -32t32 -80zM453 1348q0 -46 -31.5 -77.5t-76.5 -31.5q-47 0 -80 31t-33 78q0 48 32 80t81 32
q47 0 77.5 -32.5t30.5 -79.5z" />
    <glyph glyph-name="igrave" unicode="&#xec;" horiz-adv-x="416" 
d="M299 80q0 -93 -90 -93q-88 0 -88 93v932q0 92 88 92q90 0 90 -96v-928zM436 1325q0 -76 -88 -76q-7 0 -47 10l-260 105q-65 26 -65 76q0 34 26 59t62 25q21 0 32 -5l273 -114q67 -29 67 -80z" />
    <glyph glyph-name="iacute" unicode="&#xed;" horiz-adv-x="416" 
d="M299 80q0 -93 -90 -93q-88 0 -88 93v932q0 92 88 92q90 0 90 -96v-928zM428 1436q0 -48 -67 -76l-240 -101q-24 -10 -66 -10q-30 0 -54.5 21t-24.5 51q0 55 79 88l242 98q20 8 47 8q33 0 58.5 -23.5t25.5 -55.5z" />
    <glyph glyph-name="icircumflex" unicode="&#xee;" horiz-adv-x="416" 
d="M299 80q0 -93 -90 -93q-88 0 -88 93v932q0 92 88 92q90 0 90 -96v-928zM533 1313q0 -74 -76 -74q-19 0 -244 92q-235 -92 -252 -92q-70 0 -70 74q0 59 49 80l273 115l266 -115q54 -24 54 -80z" />
    <glyph glyph-name="idieresis" unicode="&#xef;" horiz-adv-x="416" 
d="M299 80q0 -93 -90 -93q-88 0 -88 93v932q0 92 88 92q90 0 90 -96v-928zM516 1348q0 -46 -33 -77.5t-79 -31.5q-47 0 -79 31t-32 78q0 48 31 80t80 32q48 0 80 -32t32 -80zM133 1348q0 -46 -31.5 -77.5t-76.5 -31.5q-47 0 -80 31t-33 78q0 48 32 80t81 32q47 0 77.5 -32.5
t30.5 -79.5z" />
    <glyph glyph-name="eth" unicode="&#xf0;" 
d="M1032 613q0 -272 -108 -435q-127 -191 -383 -191q-215 0 -348 172q-121 157 -121 378q0 223 120 381q132 174 349 174q164 0 256 -123l4 4q-65 171 -248 328l-176 -84q-31 -15 -65 -21q-28 5 -48 51q7 40 35 54l162 76q-22 16 -93 48q-64 28 -84 50q-15 16 -15 45
q0 63 75 63q112 0 277 -127q220 113 244 113q51 0 51 -49q0 -40 -43 -60l-160 -75q319 -281 319 -772zM852 537q0 156 -70 266q-81 129 -229 129q-149 0 -231 -128q-70 -109 -70 -267q0 -156 71 -266q82 -127 230 -127t229 127q70 109 70 266z" />
    <glyph glyph-name="ntilde" unicode="&#xf1;" 
d="M983 80q0 -88 -90 -88q-88 0 -88 88v604q0 114 -69.5 187t-182.5 73q-115 0 -184.5 -74t-69.5 -190v-600q0 -97 -86 -97q-40 0 -66 28t-26 69v928q0 96 88 96q62 0 80 -43q10 -24 10 -96l4 -4q109 143 297 143q181 0 284 -119q99 -114 99 -297v-608zM856 1393
q0 -65 -69 -102q-54 -28 -127 -31q-9 4 -19 4q-33 0 -98 18.5t-98 18.5q-25 0 -130 -41q-63 30 -63 80q0 129 180 129q41 0 113 -18q95 -23 111 -23q19 0 64 20.5t69 20.5q28 0 47.5 -23.5t19.5 -52.5z" />
    <glyph glyph-name="ograve" unicode="&#xf2;" 
d="M1032 545q0 -328 -225 -482q-110 -76 -254 -76q-225 0 -359 170q-122 156 -122 388q0 335 233 487q111 72 248 72q219 0 354 -174q125 -160 125 -385zM852 551q0 160 -68 269q-81 128 -231 128q-155 0 -234 -130q-67 -108 -67 -273q0 -161 66 -270q80 -131 231 -131
q157 0 237 130q66 108 66 277zM788 1317q0 -76 -88 -76q-7 0 -47 10l-260 105q-65 26 -65 76q0 34 26 59t62 25q21 0 32 -5l273 -114q67 -29 67 -80z" />
    <glyph glyph-name="oacute" unicode="&#xf3;" 
d="M1032 545q0 -328 -225 -482q-110 -76 -254 -76q-225 0 -359 170q-122 156 -122 388q0 335 233 487q111 72 248 72q219 0 354 -174q125 -160 125 -385zM852 551q0 160 -68 269q-81 128 -231 128q-155 0 -234 -130q-67 -108 -67 -273q0 -161 66 -270q80 -131 231 -131
q157 0 237 130q66 108 66 277zM780 1440q0 -48 -67 -76l-240 -101q-24 -10 -66 -10q-30 0 -54.5 21t-24.5 51q0 55 79 88l242 98q20 8 47 8q33 0 58.5 -23.5t25.5 -55.5z" />
    <glyph glyph-name="ocircumflex" unicode="&#xf4;" 
d="M1032 545q0 -328 -225 -482q-110 -76 -254 -76q-225 0 -359 170q-122 156 -122 388q0 335 233 487q111 72 248 72q219 0 354 -174q125 -160 125 -385zM852 551q0 160 -68 269q-81 128 -231 128q-155 0 -234 -130q-67 -108 -67 -273q0 -161 66 -270q80 -131 231 -131
q157 0 237 130q66 108 66 277zM875 1313q0 -74 -76 -74q-19 0 -244 92q-235 -92 -252 -92q-70 0 -70 74q0 59 49 80l273 115l266 -115q54 -24 54 -80z" />
    <glyph glyph-name="otilde" unicode="&#xf5;" 
d="M1032 545q0 -328 -225 -482q-110 -76 -254 -76q-225 0 -359 170q-122 156 -122 388q0 335 233 487q111 72 248 72q219 0 354 -174q125 -160 125 -385zM852 551q0 160 -68 269q-81 128 -231 128q-155 0 -234 -130q-67 -108 -67 -273q0 -161 66 -270q80 -131 231 -131
q157 0 237 130q66 108 66 277zM848 1397q0 -65 -69 -102q-54 -28 -127 -31q-9 4 -19 4q-33 0 -98 18.5t-98 18.5q-25 0 -130 -41q-63 30 -63 80q0 129 180 129q41 0 113 -18q95 -23 111 -23q19 0 64 20.5t69 20.5q28 0 47.5 -23.5t19.5 -52.5z" />
    <glyph glyph-name="odieresis" unicode="&#xf6;" 
d="M1032 545q0 -328 -225 -482q-110 -76 -254 -76q-225 0 -359 170q-122 156 -122 388q0 335 233 487q111 72 248 72q219 0 354 -174q125 -160 125 -385zM852 551q0 160 -68 269q-81 128 -231 128q-155 0 -234 -130q-67 -108 -67 -273q0 -161 66 -270q80 -131 231 -131
q157 0 237 130q66 108 66 277zM856 1352q0 -46 -33 -77.5t-79 -31.5q-47 0 -79 31t-32 78q0 48 31 80t80 32q48 0 80 -32t32 -80zM473 1352q0 -46 -31.5 -77.5t-76.5 -31.5q-47 0 -80 31t-33 78q0 48 32 80t81 32q47 0 77.5 -32.5t30.5 -79.5z" />
    <glyph glyph-name="oslash" unicode="&#xf8;" 
d="M1057 1080q0 -23 -20 -48l-109 -133q104 -148 104 -358q0 -225 -125 -383q-135 -171 -354 -171q-169 0 -293 105l-92 -109q-26 -30 -59 -30q-25 0 -45 15q-23 16 -23 40q0 23 135 185q-104 133 -104 344q0 333 223 490q110 77 260 77q184 0 289 -108l88 108q30 37 59 37
q24 0 45 -19t21 -42zM740 873q-77 75 -187 75q-278 0 -301 -389q-1 -17 -4 -26q8 -126 45 -201zM852 551q0 108 -43 205l-444 -537q75 -75 190 -75q151 0 231 134q66 111 66 273z" />
    <glyph glyph-name="ugrave" unicode="&#xf9;" 
d="M983 412q0 -201 -118.5 -313t-319.5 -112q-198 0 -311 113t-113 312v600q0 92 88 92q90 0 90 -92v-596q0 -272 250 -272q256 0 256 272v596q0 92 88 92q90 0 90 -92v-600zM784 1317q0 -76 -88 -76q-7 0 -47 10l-260 105q-65 26 -65 76q0 34 26 59t62 25q21 0 32 -5
l273 -114q67 -29 67 -80z" />
    <glyph glyph-name="uacute" unicode="&#xfa;" 
d="M983 412q0 -201 -118.5 -313t-319.5 -112q-198 0 -311 113t-113 312v600q0 92 88 92q90 0 90 -92v-596q0 -272 250 -272q256 0 256 272v596q0 92 88 92q90 0 90 -92v-600zM789 1432q0 -48 -67 -76l-240 -101q-24 -10 -66 -10q-30 0 -54.5 21t-24.5 51q0 55 79 88l242 98
q20 8 47 8q33 0 58.5 -23.5t25.5 -55.5z" />
    <glyph glyph-name="ucircumflex" unicode="&#xfb;" 
d="M983 412q0 -201 -118.5 -313t-319.5 -112q-198 0 -311 113t-113 312v600q0 92 88 92q90 0 90 -92v-596q0 -272 250 -272q256 0 256 272v596q0 92 88 92q90 0 90 -92v-600zM877 1313q0 -74 -76 -74q-19 0 -244 92q-235 -92 -252 -92q-70 0 -70 74q0 59 49 80l273 115
l266 -115q54 -24 54 -80z" />
    <glyph glyph-name="udieresis" unicode="&#xfc;" 
d="M983 412q0 -201 -118.5 -313t-319.5 -112q-198 0 -311 113t-113 312v600q0 92 88 92q90 0 90 -92v-596q0 -272 250 -272q256 0 256 272v596q0 92 88 92q90 0 90 -92v-600zM860 1344q0 -46 -33 -77.5t-79 -31.5q-47 0 -79 31t-32 78q0 48 31 80t80 32q48 0 80 -32t32 -80z
M477 1344q0 -46 -31.5 -77.5t-76.5 -31.5q-47 0 -80 31t-33 78q0 48 32 80t81 32q47 0 77.5 -32.5t30.5 -79.5z" />
    <glyph glyph-name="yacute" unicode="&#xfd;" horiz-adv-x="873" 
d="M877 1016q0 -20 -8 -43l-473 -1346q-29 -80 -99 -80q-67 0 -74 84q3 21 13 57l133 353l-326 932q-1 3 -10 47q0 80 84 80q71 0 92 -63l248 -748h4l248 752q20 63 84 63q84 0 84 -88zM680 1436q0 -48 -67 -76l-240 -101q-24 -10 -66 -10q-30 0 -54.5 21t-24.5 51
q0 55 79 88l242 98q20 8 47 8q33 0 58.5 -23.5t25.5 -55.5z" />
    <glyph glyph-name="thorn" unicode="&#xfe;" horiz-adv-x="1141" 
d="M1067 553q0 -333 -221 -490q-105 -76 -242 -76q-183 0 -292 148h-5v-483q0 -109 -88 -109q-39 0 -65 34q-25 30 -25 70v1842q0 90 86 90q92 0 92 -86v-536h5q75 147 279 147q222 0 354 -168q122 -155 122 -383zM889 552q0 156 -67 265q-79 131 -225 131q-157 0 -239 -130
q-69 -109 -69 -276q0 -157 68 -268q80 -131 227 -134q6 3 16 4q151 13 226 139q63 106 63 269z" />
    <glyph glyph-name="ydieresis" unicode="&#xff;" horiz-adv-x="873" 
d="M877 1016q0 -20 -8 -43l-473 -1346q-29 -80 -99 -80q-67 0 -74 84q3 21 13 57l133 353l-326 932q-1 3 -10 47q0 80 84 80q71 0 92 -63l248 -748h4l248 752q20 63 84 63q84 0 84 -88zM752 1348q0 -46 -33 -77.5t-79 -31.5q-47 0 -79 31t-32 78q0 48 31 80t80 32
q48 0 80 -32t32 -80zM369 1348q0 -46 -31.5 -77.5t-76.5 -31.5q-47 0 -80 31t-33 78q0 48 32 80t81 32q47 0 77.5 -32.5t30.5 -79.5z" />
    <glyph glyph-name="glyph226" unicode="&#x102;" horiz-adv-x="1252" 
d="M1237 56q0 -73 -84 -73q-67 0 -92 68l-96 265h-676l-96 -265q-24 -64 -92 -64q-84 0 -84 73q5 25 12 49l471 1259q40 109 125 109q87 0 127 -105l477 -1263q8 -22 8 -53zM912 471l-283 793h-4l-281 -793h568zM896 1756q0 -88 -97 -147q-84 -52 -178 -52q-140 0 -233 97
q-44 46 -44 102q0 75 64 75q22 0 72 -42l70 -60q21 -16 71 -16q62 0 126.5 59t88.5 59q60 0 60 -75z" />
    <glyph glyph-name="glyph227" unicode="&#x103;" horiz-adv-x="1141" 
d="M1020 80q0 -93 -84 -93q-66 0 -80 55q-4 15 -4 110h-4q-119 -165 -292 -165q-130 0 -243 69q-241 146 -241 485q0 358 250 501q108 62 219 62q179 0 307 -147h4q0 72 8 97q17 50 76 50q84 0 84 -92v-932zM848 545q0 165 -65 273q-79 130 -234 130q-153 0 -232 -135
q-65 -110 -65 -274q0 -156 66 -265q78 -130 223 -130q162 0 241 125q66 104 66 276zM845 1428q0 -88 -97 -147q-84 -52 -178 -52q-140 0 -233 97q-44 46 -44 102q0 75 64 75q22 0 72 -42l70 -60q21 -16 71 -16q62 0 126.5 59t88.5 59q60 0 60 -75z" />
    <glyph glyph-name="Dslash" unicode="&#x110;" horiz-adv-x="1293" 
d="M1229 735q0 -210 -74 -381q-155 -354 -546 -354h-386q-37 0 -64 21q-30 23 -30 59v580q-99 0 -108 1q-58 12 -58 74q0 61 59 74q10 2 107 2v553q0 96 94 96h369q298 0 474 -218q163 -201 163 -507zM1037 748q0 240 -114 390q-126 167 -360 167h-256v-494h252q84 0 84 -76
q0 -75 -84 -75h-252v-504h281q157 0 283 110q166 145 166 482z" />
    <glyph glyph-name="dcroat" unicode="&#x111;" horiz-adv-x="1141" 
d="M1012 80q0 -93 -92 -93q-37 0 -62.5 26t-25.5 122h-4q-73 -148 -280 -148q-223 0 -356 173q-121 157 -121 387q0 220 119 380q131 177 343 177q183 0 295 -147h4v266l-251 1q-84 0 -84 75q0 76 84 76h251v118q0 90 88 90q91 0 92 -94v-114q85 0 107 -5q58 -14 58 -71
t-58 -71q-21 -5 -107 -5v-1143zM852 553q0 156 -70 266q-81 129 -229 129q-151 0 -232 -133q-69 -112 -69 -273q0 -159 66 -268q79 -131 227 -131q156 0 238 133q69 110 69 277z" />
    <glyph glyph-name="glyph228" unicode="&#x128;" horiz-adv-x="416" 
d="M299 88q0 -101 -86 -101q-92 0 -92 97v1293q0 96 92 96q86 0 86 -96v-1289zM518 1721q0 -65 -69 -102q-54 -28 -127 -31q-9 4 -19 4q-33 0 -98 18.5t-98 18.5q-25 0 -130 -41q-63 30 -63 80q0 129 180 129q41 0 113 -18q95 -23 111 -23q19 0 64 20.5t69 20.5
q28 0 47.5 -23.5t19.5 -52.5z" />
    <glyph glyph-name="glyph229" unicode="&#x129;" horiz-adv-x="416" 
d="M513 1397q0 -65 -69 -102q-54 -28 -127 -31q-9 4 -19 4q-33 0 -98 18.5t-98 18.5q-25 0 -130 -41q-63 30 -63 80q0 129 180 129q41 0 113 -18q95 -23 111 -23q19 0 64 20.5t69 20.5q28 0 47.5 -23.5t19.5 -52.5zM299 80q0 -93 -90 -93q-88 0 -88 93v932q0 92 88 92
q90 0 90 -96v-928z" />
    <glyph glyph-name="dotlessi" unicode="&#x131;" horiz-adv-x="416" 
d="M299 80q0 -93 -90 -93q-88 0 -88 93v932q0 92 88 92q90 0 90 -96v-928z" />
    <glyph glyph-name="OE" unicode="&#x152;" horiz-adv-x="1897" 
d="M1835 80q0 -80 -86 -80h-516q-96 0 -96 101v112h-4q-73 -104 -188 -165t-240 -61q-296 0 -476 227q-165 210 -165 513q0 305 164 516q180 230 477 230q242 0 432 -205q0 110 4 127q16 65 92 65h508q80 0 80 -83q0 -84 -92 -84h-412v-482h404q79 0 79 -84t-88 -84h-395
v-475h438q80 0 80 -88zM1149 735q0 242 -99 397q-117 185 -345 185t-348 -189q-101 -159 -101 -401q0 -244 102 -400q119 -183 351 -183q227 0 344 190q96 159 96 401z" />
    <glyph glyph-name="oe" unicode="&#x153;" horiz-adv-x="1860" 
d="M1805 576q0 -101 -101 -101h-676q0 -182 133 -272q69 -47 140 -51q65 -4 63 -4q138 0 301 121q28 20 51 20q28 0 46 -23.5t18 -52.5q0 -22 -8 -41q-4 -7 -20 -27q-70 -84 -227 -130q-92 -28 -173 -28q-128 0 -235 53q-116 56 -177 161q-156 -214 -411 -214
q-117 0 -228 75q-229 153 -229 479q0 357 250 500q109 63 233 63q236 0 385 -215q127 215 396 215q96 0 189 -47q131 -68 207 -201q73 -129 73 -280zM1624 613q-4 214 -147 295q-71 40 -150 40q-139 0 -222 -100q-77 -94 -77 -235h596zM848 541q0 162 -66 273
q-80 134 -231 134t-231 -130q-68 -109 -68 -269q0 -163 65 -273q79 -132 232 -132t233 126q66 107 66 271z" />
    <glyph glyph-name="glyph230" unicode="&#x168;" horiz-adv-x="1364" 
d="M1247 563q0 -275 -139 -423q-143 -153 -416 -153q-275 0 -423 148t-148 424v822q0 92 88 92q90 0 90 -92v-877q0 -171 111 -268q105 -93 279 -93q169 0 273 96q109 98 109 265v877q0 92 84 92q92 0 92 -92v-818zM1004 1721q0 -65 -69 -102q-54 -28 -127 -31q-9 4 -19 4
q-33 0 -98 18.5t-98 18.5q-25 0 -130 -41q-63 30 -63 80q0 129 180 129q41 0 113 -18q95 -23 111 -23q19 0 64 20.5t69 20.5q28 0 47.5 -23.5t19.5 -52.5z" />
    <glyph glyph-name="glyph231" unicode="&#x169;" 
d="M983 412q0 -201 -118.5 -313t-319.5 -112q-198 0 -311 113t-113 312v600q0 92 88 92q90 0 90 -92v-596q0 -272 250 -272q256 0 256 272v596q0 92 88 92q90 0 90 -92v-600zM858 1397q0 -65 -69 -102q-54 -28 -127 -31q-9 4 -19 4q-33 0 -98 18.5t-98 18.5q-25 0 -130 -41
q-63 30 -63 80q0 129 180 129q41 0 113 -18q95 -23 111 -23q19 0 64 20.5t69 20.5q28 0 47.5 -23.5t19.5 -52.5z" />
    <glyph glyph-name="florin" unicode="&#x192;" 
d="M957 1493q0 -68 -99 -75q-120 -9 -155 -54q-26 -34 -43 -108l-64 -273h129q72 0 72 -63q0 -64 -72 -64h-145l-160 -856q-33 -175 -104 -257q-86 -100 -252 -100q-97 0 -97 80q0 68 80 68q92 0 148 45q51 41 82 197l159 823h-129q-75 0 -75 64q0 63 75 63h146l63 322
q29 146 119 206q80 54 238 54q84 0 84 -72z" />
    <glyph glyph-name="glyph232" unicode="&#x1a0;" horiz-adv-x="1401" 
d="M1344 719q0 -301 -167 -508q-180 -224 -472 -224q-296 0 -476 228q-165 209 -165 512q0 306 164 516q179 230 477 230q301 0 478 -232q161 -211 161 -522zM1153 737q0 240 -101 396q-120 184 -347 184q-226 0 -347 -188q-102 -159 -102 -398q0 -242 101 -400
q119 -187 348 -187q226 0 347 191q101 161 101 402zM1389 1479q0 -35 -16 -66l-130 -247q-38 -72 -83 -72q-34 0 -62 28q-25 25 -31 60q6 31 21 59l125 250q31 64 88 64q88 0 88 -76z" />
    <glyph glyph-name="glyph233" unicode="&#x1a1;" horiz-adv-x="1127" 
d="M1032 545q0 -328 -225 -482q-110 -76 -254 -76q-225 0 -359 170q-122 156 -122 388q0 335 233 487q111 72 248 72q219 0 354 -174q125 -160 125 -385zM852 551q0 160 -68 269q-81 128 -231 128q-155 0 -234 -130q-67 -108 -67 -273q0 -161 66 -270q80 -131 231 -131
q157 0 237 130q66 108 66 277zM1143 1106q0 -35 -16 -66l-130 -247q-38 -72 -83 -72q-34 0 -62 28q-25 25 -31 60q6 31 21 59l125 250q31 64 88 64q88 0 88 -76z" />
    <glyph glyph-name="glyph234" unicode="&#x1af;" horiz-adv-x="1420" 
d="M1247 563q0 -275 -139 -423q-143 -153 -416 -153q-275 0 -423 148t-148 424v822q0 92 88 92q90 0 90 -92v-877q0 -171 111 -268q105 -93 279 -93q169 0 273 96q109 98 109 265v877q0 92 84 92q92 0 92 -92v-818zM1469 1479q0 -35 -16 -66l-130 -247q-38 -72 -83 -72
q-34 0 -62 28q-25 25 -31 60q6 31 21 59l125 250q31 64 88 64q88 0 88 -76z" />
    <glyph glyph-name="glyph235" unicode="&#x1b0;" horiz-adv-x="1160" 
d="M983 412q0 -201 -118.5 -313t-319.5 -112q-198 0 -311 113t-113 312v600q0 92 88 92q90 0 90 -92v-596q0 -272 250 -272q256 0 256 272v596q0 92 88 92q90 0 90 -92v-600zM1208 1106q0 -35 -16 -66l-130 -247q-38 -72 -83 -72q-34 0 -62 28q-25 25 -31 60q6 31 21 59
l125 250q31 64 88 64q88 0 88 -76z" />
    <glyph glyph-name="circumflex" unicode="&#x2c6;" horiz-adv-x="416" 
d="M529 1313q0 -74 -76 -74q-19 0 -244 92q-235 -92 -252 -92q-70 0 -70 74q0 59 49 80l273 115l266 -115q54 -24 54 -80z" />
    <glyph glyph-name="breve" unicode="&#x2d8;" horiz-adv-x="416" 
d="M484 1428q0 -88 -97 -147q-84 -52 -178 -52q-140 0 -233 97q-44 46 -44 102q0 75 64 75q22 0 72 -42l70 -60q21 -16 71 -16q62 0 126.5 59t88.5 59q60 0 60 -75z" />
    <glyph glyph-name="ring" unicode="&#x2da;" horiz-adv-x="416" 
d="M404 1389q0 -81 -57 -137t-138 -56q-80 0 -136 56.5t-56 136.5t55.5 137t136.5 57q82 0 138.5 -56.5t56.5 -137.5zM303 1389q0 38 -27.5 67t-66.5 29t-65.5 -28.5t-26.5 -67.5q0 -40 26 -66t66 -26t67 26t27 66z" />
    <glyph glyph-name="tilde" unicode="&#x2dc;" horiz-adv-x="416" 
d="M512 1393q0 -65 -69 -102q-54 -28 -127 -31q-9 4 -19 4q-33 0 -98 18.5t-98 18.5q-25 0 -130 -41q-63 30 -63 80q0 129 180 129q41 0 113 -18q95 -23 111 -23q19 0 64 20.5t69 20.5q28 0 47.5 -23.5t19.5 -52.5z" />
    <glyph glyph-name="glyph236" unicode="&#x1ea0;" horiz-adv-x="1252" 
d="M1237 56q0 -73 -84 -73q-67 0 -92 68l-96 265h-676l-96 -265q-24 -64 -92 -64q-84 0 -84 73q5 25 12 49l471 1259q40 109 125 109q87 0 127 -105l477 -1263q8 -22 8 -53zM912 471l-283 793h-4l-281 -793h568zM726 -241q0 -42 -31.5 -73.5t-73.5 -31.5t-73 31.5t-31 73.5
q0 43 30.5 74t73.5 31t74 -31t31 -74z" />
    <glyph glyph-name="glyph237" unicode="&#x1ea1;" horiz-adv-x="1141" 
d="M1020 80q0 -93 -84 -93q-66 0 -80 55q-4 15 -4 110h-4q-119 -165 -292 -165q-130 0 -243 69q-241 146 -241 485q0 358 250 501q108 62 219 62q179 0 307 -147h4q0 72 8 97q17 50 76 50q84 0 84 -92v-932zM848 545q0 165 -65 273q-79 130 -234 130q-153 0 -232 -135
q-65 -110 -65 -274q0 -156 66 -265q78 -130 223 -130q162 0 241 125q66 104 66 276zM672 -241q0 -42 -31.5 -73.5t-73.5 -31.5t-73 31.5t-31 73.5q0 43 30.5 74t73.5 31t74 -31t31 -74z" />
    <glyph glyph-name="glyph238" unicode="&#x1ea2;" horiz-adv-x="1252" 
d="M1237 56q0 -73 -84 -73q-67 0 -92 68l-96 265h-676l-96 -265q-24 -64 -92 -64q-84 0 -84 73q5 25 12 49l471 1259q40 109 125 109q87 0 127 -105l477 -1263q8 -22 8 -53zM912 471l-283 793h-4l-281 -793h568zM851 1786q0 -81 -43 -132q-37 -44 -93 -53v-37q0 -33 -69 -33
q-66 0 -66 33v99q0 25 64 40.5t64 73.5q0 86 -87 86q-71 0 -71 -58q0 -34 -65 -34q-58 0 -58 36q0 74 54 126q58 56 150 56q97 0 158.5 -58.5t61.5 -144.5z" />
    <glyph glyph-name="glyph239" unicode="&#x1ea3;" horiz-adv-x="1141" 
d="M1020 80q0 -93 -84 -93q-66 0 -80 55q-4 15 -4 110h-4q-119 -165 -292 -165q-130 0 -243 69q-241 146 -241 485q0 358 250 501q108 62 219 62q179 0 307 -147h4q0 72 8 97q17 50 76 50q84 0 84 -92v-932zM848 545q0 165 -65 273q-79 130 -234 130q-153 0 -232 -135
q-65 -110 -65 -274q0 -156 66 -265q78 -130 223 -130q162 0 241 125q66 104 66 276zM770 1477q0 -81 -43 -132q-37 -44 -93 -53v-37q0 -33 -69 -33q-66 0 -66 33v99q0 25 64 40.5t64 73.5q0 86 -87 86q-71 0 -71 -58q0 -34 -65 -34q-58 0 -58 36q0 74 54 126q58 56 150 56
q97 0 158.5 -58.5t61.5 -144.5z" />
    <glyph glyph-name="glyph240" unicode="&#x1ea4;" horiz-adv-x="1252" 
d="M1237 56q0 -73 -84 -73q-67 0 -92 68l-96 265h-676l-96 -265q-24 -64 -92 -64q-84 0 -84 73q5 25 12 49l471 1259q40 109 125 109q87 0 127 -105l477 -1263q8 -22 8 -53zM912 471l-283 793h-4l-281 -793h568zM941 1641q0 -74 -76 -74q-19 0 -244 92q-235 -92 -252 -92
q-70 0 -70 74q0 59 49 80l273 115l266 -115q54 -24 54 -80zM838 2092q0 -48 -67 -76l-240 -101q-24 -10 -66 -10q-30 0 -54.5 21t-24.5 51q0 55 79 88l242 98q20 8 47 8q33 0 58.5 -23.5t25.5 -55.5z" />
    <glyph glyph-name="glyph241" unicode="&#x1ea5;" horiz-adv-x="1141" 
d="M1020 80q0 -93 -84 -93q-66 0 -80 55q-4 15 -4 110h-4q-119 -165 -292 -165q-130 0 -243 69q-241 146 -241 485q0 358 250 501q108 62 219 62q179 0 307 -147h4q0 72 8 97q17 50 76 50q84 0 84 -92v-932zM848 545q0 165 -65 273q-79 130 -234 130q-153 0 -232 -135
q-65 -110 -65 -274q0 -156 66 -265q78 -130 223 -130q162 0 241 125q66 104 66 276zM890 1313q0 -74 -76 -74q-19 0 -244 92q-235 -92 -252 -92q-70 0 -70 74q0 59 49 80l273 115l266 -115q54 -24 54 -80zM787 1764q0 -48 -67 -76l-240 -101q-24 -10 -66 -10q-30 0 -54.5 21
t-24.5 51q0 55 79 88l242 98q20 8 47 8q33 0 58.5 -23.5t25.5 -55.5z" />
    <glyph glyph-name="glyph242" unicode="&#x1ea6;" horiz-adv-x="1252" 
d="M1237 56q0 -73 -84 -73q-67 0 -92 68l-96 265h-676l-96 -265q-24 -64 -92 -64q-84 0 -84 73q5 25 12 49l471 1259q40 109 125 109q87 0 127 -105l477 -1263q8 -22 8 -53zM912 471l-283 793h-4l-281 -793h568zM941 1641q0 -74 -76 -74q-19 0 -244 92q-235 -92 -252 -92
q-70 0 -70 74q0 59 49 80l273 115l266 -115q54 -24 54 -80zM863 1976q0 -76 -88 -76q-7 0 -47 10l-260 105q-65 26 -65 76q0 34 26 59t62 25q21 0 32 -5l273 -114q67 -29 67 -80z" />
    <glyph glyph-name="glyph243" unicode="&#x1ea7;" horiz-adv-x="1141" 
d="M1020 80q0 -93 -84 -93q-66 0 -80 55q-4 15 -4 110h-4q-119 -165 -292 -165q-130 0 -243 69q-241 146 -241 485q0 358 250 501q108 62 219 62q179 0 307 -147h4q0 72 8 97q17 50 76 50q84 0 84 -92v-932zM848 545q0 165 -65 273q-79 130 -234 130q-153 0 -232 -135
q-65 -110 -65 -274q0 -156 66 -265q78 -130 223 -130q162 0 241 125q66 104 66 276zM890 1313q0 -74 -76 -74q-19 0 -244 92q-235 -92 -252 -92q-70 0 -70 74q0 59 49 80l273 115l266 -115q54 -24 54 -80zM811 1649q0 -76 -88 -76q-7 0 -47 10l-260 105q-65 26 -65 76
q0 34 26 59t62 25q21 0 32 -5l273 -114q67 -29 67 -80z" />
    <glyph glyph-name="glyph244" unicode="&#x1ea8;" horiz-adv-x="1252" 
d="M1237 56q0 -73 -84 -73q-67 0 -92 68l-96 265h-676l-96 -265q-24 -64 -92 -64q-84 0 -84 73q5 25 12 49l471 1259q40 109 125 109q87 0 127 -105l477 -1263q8 -22 8 -53zM912 471l-283 793h-4l-281 -793h568zM941 1641q0 -74 -76 -74q-19 0 -244 92q-235 -92 -252 -92
q-70 0 -70 74q0 59 49 80l273 115l266 -115q54 -24 54 -80zM1011 2079q0 -81 -43 -132q-37 -44 -93 -53v-37q0 -33 -69 -33q-66 0 -66 33v99q0 25 64 40.5t64 73.5q0 86 -87 86q-71 0 -71 -58q0 -34 -65 -34q-58 0 -58 36q0 74 54 126q58 56 150 56q97 0 158.5 -58.5
t61.5 -144.5z" />
    <glyph glyph-name="glyph245" unicode="&#x1ea9;" horiz-adv-x="1141" 
d="M1020 80q0 -93 -84 -93q-66 0 -80 55q-4 15 -4 110h-4q-119 -165 -292 -165q-130 0 -243 69q-241 146 -241 485q0 358 250 501q108 62 219 62q179 0 307 -147h4q0 72 8 97q17 50 76 50q84 0 84 -92v-932zM848 545q0 165 -65 273q-79 130 -234 130q-153 0 -232 -135
q-65 -110 -65 -274q0 -156 66 -265q78 -130 223 -130q162 0 241 125q66 104 66 276zM890 1313q0 -74 -76 -74q-19 0 -244 92q-235 -92 -252 -92q-70 0 -70 74q0 59 49 80l273 115l266 -115q54 -24 54 -80zM960 1752q0 -81 -43 -132q-37 -44 -93 -53v-37q0 -33 -69 -33
q-66 0 -66 33v99q0 25 64 40.5t64 73.5q0 86 -87 86q-71 0 -71 -58q0 -34 -65 -34q-58 0 -58 36q0 74 54 126q58 56 150 56q97 0 158.5 -58.5t61.5 -144.5z" />
    <glyph glyph-name="glyph246" unicode="&#x1eaa;" horiz-adv-x="1252" 
d="M1237 56q0 -73 -84 -73q-67 0 -92 68l-96 265h-676l-96 -265q-24 -64 -92 -64q-84 0 -84 73q5 25 12 49l471 1259q40 109 125 109q87 0 127 -105l477 -1263q8 -22 8 -53zM912 471l-283 793h-4l-281 -793h568zM941 1641q0 -74 -76 -74q-19 0 -244 92q-235 -92 -252 -92
q-70 0 -70 74q0 59 49 80l273 115l266 -115q54 -24 54 -80zM1013 2044q0 -65 -69 -102q-54 -28 -127 -31q-9 4 -19 4q-33 0 -98 18.5t-98 18.5q-25 0 -130 -41q-63 30 -63 80q0 129 180 129q41 0 113 -18q95 -23 111 -23q19 0 64 20.5t69 20.5q28 0 47.5 -23.5t19.5 -52.5z
" />
    <glyph glyph-name="glyph247" unicode="&#x1eab;" horiz-adv-x="1141" 
d="M1020 80q0 -93 -84 -93q-66 0 -80 55q-4 15 -4 110h-4q-119 -165 -292 -165q-130 0 -243 69q-241 146 -241 485q0 358 250 501q108 62 219 62q179 0 307 -147h4q0 72 8 97q17 50 76 50q84 0 84 -92v-932zM848 545q0 165 -65 273q-79 130 -234 130q-153 0 -232 -135
q-65 -110 -65 -274q0 -156 66 -265q78 -130 223 -130q162 0 241 125q66 104 66 276zM890 1313q0 -74 -76 -74q-19 0 -244 92q-235 -92 -252 -92q-70 0 -70 74q0 59 49 80l273 115l266 -115q54 -24 54 -80zM962 1716q0 -65 -69 -102q-54 -28 -127 -31q-9 4 -19 4
q-33 0 -98 18.5t-98 18.5q-25 0 -130 -41q-63 30 -63 80q0 129 180 129q41 0 113 -18q95 -23 111 -23q19 0 64 20.5t69 20.5q28 0 47.5 -23.5t19.5 -52.5z" />
    <glyph glyph-name="glyph248" unicode="&#x1eac;" horiz-adv-x="1252" 
d="M1237 56q0 -73 -84 -73q-67 0 -92 68l-96 265h-676l-96 -265q-24 -64 -92 -64q-84 0 -84 73q5 25 12 49l471 1259q40 109 125 109q87 0 127 -105l477 -1263q8 -22 8 -53zM912 471l-283 793h-4l-281 -793h568zM941 1641q0 -74 -76 -74q-19 0 -244 92q-235 -92 -252 -92
q-70 0 -70 74q0 59 49 80l273 115l266 -115q54 -24 54 -80zM726 -241q0 -42 -31.5 -73.5t-73.5 -31.5t-73 31.5t-31 73.5q0 43 30.5 74t73.5 31t74 -31t31 -74z" />
    <glyph glyph-name="glyph249" unicode="&#x1ead;" horiz-adv-x="1141" 
d="M1020 80q0 -93 -84 -93q-66 0 -80 55q-4 15 -4 110h-4q-119 -165 -292 -165q-130 0 -243 69q-241 146 -241 485q0 358 250 501q108 62 219 62q179 0 307 -147h4q0 72 8 97q17 50 76 50q84 0 84 -92v-932zM848 545q0 165 -65 273q-79 130 -234 130q-153 0 -232 -135
q-65 -110 -65 -274q0 -156 66 -265q78 -130 223 -130q162 0 241 125q66 104 66 276zM890 1313q0 -74 -76 -74q-19 0 -244 92q-235 -92 -252 -92q-70 0 -70 74q0 59 49 80l273 115l266 -115q54 -24 54 -80zM672 -241q0 -42 -31.5 -73.5t-73.5 -31.5t-73 31.5t-31 73.5
q0 43 30.5 74t73.5 31t74 -31t31 -74z" />
    <glyph glyph-name="glyph250" unicode="&#x1eae;" horiz-adv-x="1252" 
d="M1237 56q0 -73 -84 -73q-67 0 -92 68l-96 265h-676l-96 -265q-24 -64 -92 -64q-84 0 -84 73q5 25 12 49l471 1259q40 109 125 109q87 0 127 -105l477 -1263q8 -22 8 -53zM912 471l-283 793h-4l-281 -793h568zM896 1756q0 -88 -97 -147q-84 -52 -178 -52q-140 0 -233 97
q-44 46 -44 102q0 75 64 75q22 0 72 -42l70 -60q21 -16 71 -16q62 0 126.5 59t88.5 59q60 0 60 -75zM894 2092q0 -48 -67 -76l-240 -101q-24 -10 -66 -10q-30 0 -54.5 21t-24.5 51q0 55 79 88l242 98q20 8 47 8q33 0 58.5 -23.5t25.5 -55.5z" />
    <glyph glyph-name="glyph251" unicode="&#x1eaf;" horiz-adv-x="1141" 
d="M1020 80q0 -93 -84 -93q-66 0 -80 55q-4 15 -4 110h-4q-119 -165 -292 -165q-130 0 -243 69q-241 146 -241 485q0 358 250 501q108 62 219 62q179 0 307 -147h4q0 72 8 97q17 50 76 50q84 0 84 -92v-932zM848 545q0 165 -65 273q-79 130 -234 130q-153 0 -232 -135
q-65 -110 -65 -274q0 -156 66 -265q78 -130 223 -130q162 0 241 125q66 104 66 276zM845 1428q0 -88 -97 -147q-84 -52 -178 -52q-140 0 -233 97q-44 46 -44 102q0 75 64 75q22 0 72 -42l70 -60q21 -16 71 -16q62 0 126.5 59t88.5 59q60 0 60 -75zM842 1764q0 -48 -67 -76
l-240 -101q-24 -10 -66 -10q-30 0 -54.5 21t-24.5 51q0 55 79 88l242 98q20 8 47 8q33 0 58.5 -23.5t25.5 -55.5z" />
    <glyph glyph-name="glyph252" unicode="&#x1eb0;" horiz-adv-x="1252" 
d="M1237 56q0 -73 -84 -73q-67 0 -92 68l-96 265h-676l-96 -265q-24 -64 -92 -64q-84 0 -84 73q5 25 12 49l471 1259q40 109 125 109q87 0 127 -105l477 -1263q8 -22 8 -53zM912 471l-283 793h-4l-281 -793h568zM896 1756q0 -88 -97 -147q-84 -52 -178 -52q-140 0 -233 97
q-44 46 -44 102q0 75 64 75q22 0 72 -42l70 -60q21 -16 71 -16q62 0 126.5 59t88.5 59q60 0 60 -75zM803 1976q0 -76 -88 -76q-7 0 -47 10l-260 105q-65 26 -65 76q0 34 26 59t62 25q21 0 32 -5l273 -114q67 -29 67 -80z" />
    <glyph glyph-name="glyph253" unicode="&#x1eb1;" horiz-adv-x="1141" 
d="M1020 80q0 -93 -84 -93q-66 0 -80 55q-4 15 -4 110h-4q-119 -165 -292 -165q-130 0 -243 69q-241 146 -241 485q0 358 250 501q108 62 219 62q179 0 307 -147h4q0 72 8 97q17 50 76 50q84 0 84 -92v-932zM848 545q0 165 -65 273q-79 130 -234 130q-153 0 -232 -135
q-65 -110 -65 -274q0 -156 66 -265q78 -130 223 -130q162 0 241 125q66 104 66 276zM845 1428q0 -88 -97 -147q-84 -52 -178 -52q-140 0 -233 97q-44 46 -44 102q0 75 64 75q22 0 72 -42l70 -60q21 -16 71 -16q62 0 126.5 59t88.5 59q60 0 60 -75zM751 1649q0 -76 -88 -76
q-7 0 -47 10l-260 105q-65 26 -65 76q0 34 26 59t62 25q21 0 32 -5l273 -114q67 -29 67 -80z" />
    <glyph glyph-name="glyph254" unicode="&#x1eb2;" horiz-adv-x="1252" 
d="M1237 56q0 -73 -84 -73q-67 0 -92 68l-96 265h-676l-96 -265q-24 -64 -92 -64q-84 0 -84 73q5 25 12 49l471 1259q40 109 125 109q87 0 127 -105l477 -1263q8 -22 8 -53zM912 471l-283 793h-4l-281 -793h568zM896 1756q0 -88 -97 -147q-84 -52 -178 -52q-140 0 -233 97
q-44 46 -44 102q0 75 64 75q22 0 72 -42l70 -60q21 -16 71 -16q62 0 126.5 59t88.5 59q60 0 60 -75zM830 2079q0 -81 -43 -132q-37 -44 -93 -53v-37q0 -33 -69 -33q-66 0 -66 33v99q0 25 64 40.5t64 73.5q0 86 -87 86q-71 0 -71 -58q0 -34 -65 -34q-58 0 -58 36q0 74 54 126
q58 56 150 56q97 0 158.5 -58.5t61.5 -144.5z" />
    <glyph glyph-name="glyph255" unicode="&#x1eb3;" horiz-adv-x="1141" 
d="M1020 80q0 -93 -84 -93q-66 0 -80 55q-4 15 -4 110h-4q-119 -165 -292 -165q-130 0 -243 69q-241 146 -241 485q0 358 250 501q108 62 219 62q179 0 307 -147h4q0 72 8 97q17 50 76 50q84 0 84 -92v-932zM848 545q0 165 -65 273q-79 130 -234 130q-153 0 -232 -135
q-65 -110 -65 -274q0 -156 66 -265q78 -130 223 -130q162 0 241 125q66 104 66 276zM845 1428q0 -88 -97 -147q-84 -52 -178 -52q-140 0 -233 97q-44 46 -44 102q0 75 64 75q22 0 72 -42l70 -60q21 -16 71 -16q62 0 126.5 59t88.5 59q60 0 60 -75zM778 1752q0 -81 -43 -132
q-37 -44 -93 -53v-37q0 -33 -69 -33q-66 0 -66 33v99q0 25 64 40.5t64 73.5q0 86 -87 86q-71 0 -71 -58q0 -34 -65 -34q-58 0 -58 36q0 74 54 126q58 56 150 56q97 0 158.5 -58.5t61.5 -144.5z" />
    <glyph glyph-name="glyph256" unicode="&#x1eb4;" horiz-adv-x="1252" 
d="M1237 56q0 -73 -84 -73q-67 0 -92 68l-96 265h-676l-96 -265q-24 -64 -92 -64q-84 0 -84 73q5 25 12 49l471 1259q40 109 125 109q87 0 127 -105l477 -1263q8 -22 8 -53zM912 471l-283 793h-4l-281 -793h568zM896 1756q0 -88 -97 -147q-84 -52 -178 -52q-140 0 -233 97
q-44 46 -44 102q0 75 64 75q22 0 72 -42l70 -60q21 -16 71 -16q62 0 126.5 59t88.5 59q60 0 60 -75zM1012 2044q0 -65 -69 -102q-54 -28 -127 -31q-9 4 -19 4q-33 0 -98 18.5t-98 18.5q-25 0 -130 -41q-63 30 -63 80q0 129 180 129q41 0 113 -18q95 -23 111 -23
q19 0 64 20.5t69 20.5q28 0 47.5 -23.5t19.5 -52.5z" />
    <glyph glyph-name="glyph257" unicode="&#x1eb5;" horiz-adv-x="1141" 
d="M1020 80q0 -93 -84 -93q-66 0 -80 55q-4 15 -4 110h-4q-119 -165 -292 -165q-130 0 -243 69q-241 146 -241 485q0 358 250 501q108 62 219 62q179 0 307 -147h4q0 72 8 97q17 50 76 50q84 0 84 -92v-932zM848 545q0 165 -65 273q-79 130 -234 130q-153 0 -232 -135
q-65 -110 -65 -274q0 -156 66 -265q78 -130 223 -130q162 0 241 125q66 104 66 276zM845 1428q0 -88 -97 -147q-84 -52 -178 -52q-140 0 -233 97q-44 46 -44 102q0 75 64 75q22 0 72 -42l70 -60q21 -16 71 -16q62 0 126.5 59t88.5 59q60 0 60 -75zM962 1716q0 -65 -69 -102
q-54 -28 -127 -31q-9 4 -19 4q-33 0 -98 18.5t-98 18.5q-25 0 -130 -41q-63 30 -63 80q0 129 180 129q41 0 113 -18q95 -23 111 -23q19 0 64 20.5t69 20.5q28 0 47.5 -23.5t19.5 -52.5z" />
    <glyph glyph-name="glyph258" unicode="&#x1eb6;" horiz-adv-x="1252" 
d="M1237 56q0 -73 -84 -73q-67 0 -92 68l-96 265h-676l-96 -265q-24 -64 -92 -64q-84 0 -84 73q5 25 12 49l471 1259q40 109 125 109q87 0 127 -105l477 -1263q8 -22 8 -53zM912 471l-283 793h-4l-281 -793h568zM896 1756q0 -88 -97 -147q-84 -52 -178 -52q-140 0 -233 97
q-44 46 -44 102q0 75 64 75q22 0 72 -42l70 -60q21 -16 71 -16q62 0 126.5 59t88.5 59q60 0 60 -75zM726 -241q0 -42 -31.5 -73.5t-73.5 -31.5t-73 31.5t-31 73.5q0 43 30.5 74t73.5 31t74 -31t31 -74z" />
    <glyph glyph-name="glyph259" unicode="&#x1eb7;" horiz-adv-x="1141" 
d="M1020 80q0 -93 -84 -93q-66 0 -80 55q-4 15 -4 110h-4q-119 -165 -292 -165q-130 0 -243 69q-241 146 -241 485q0 358 250 501q108 62 219 62q179 0 307 -147h4q0 72 8 97q17 50 76 50q84 0 84 -92v-932zM848 545q0 165 -65 273q-79 130 -234 130q-153 0 -232 -135
q-65 -110 -65 -274q0 -156 66 -265q78 -130 223 -130q162 0 241 125q66 104 66 276zM845 1428q0 -88 -97 -147q-84 -52 -178 -52q-140 0 -233 97q-44 46 -44 102q0 75 64 75q22 0 72 -42l70 -60q21 -16 71 -16q62 0 126.5 59t88.5 59q60 0 60 -75zM672 -241
q0 -42 -31.5 -73.5t-73.5 -31.5t-73 31.5t-31 73.5q0 43 30.5 74t73.5 31t74 -31t31 -74z" />
    <glyph glyph-name="glyph260" unicode="&#x1eb8;" horiz-adv-x="908" 
d="M824 80q0 -80 -89 -80h-526q-88 0 -88 97v1263q0 100 76 100h551q76 0 76 -83q0 -84 -80 -84h-445v-482h406q80 0 80 -84t-84 -84h-402v-475h449q76 0 76 -88zM566 -241q0 -42 -31.5 -73.5t-73.5 -31.5t-73 31.5t-31 73.5q0 43 30.5 74t73.5 31t74 -31t31 -74z" />
    <glyph glyph-name="glyph261" unicode="&#x1eb9;" horiz-adv-x="1065" 
d="M1012 563q0 -88 -100 -88h-680q2 -153 90.5 -242t240.5 -89q147 0 293 112q43 33 68 33q63 0 63 -76q0 -92 -196 -177q-111 -49 -238 -49q-237 0 -374 163q-128 152 -132 395q4 7 4 10q2 32 10 97q38 241 220 372q110 80 252 80q212 0 349 -167q130 -157 130 -374z
M832 613q-3 145 -75 235q-80 100 -221 100q-143 0 -225 -99q-74 -90 -79 -236h600zM648 -241q0 -42 -31.5 -73.5t-73.5 -31.5t-73 31.5t-31 73.5q0 43 30.5 74t73.5 31t74 -31t31 -74z" />
    <glyph glyph-name="glyph262" unicode="&#x1eba;" horiz-adv-x="908" 
d="M824 80q0 -80 -89 -80h-526q-88 0 -88 97v1263q0 100 76 100h551q76 0 76 -83q0 -84 -80 -84h-445v-482h406q80 0 80 -84t-84 -84h-402v-475h449q76 0 76 -88zM686 1786q0 -81 -43 -132q-37 -44 -93 -53v-37q0 -33 -69 -33q-66 0 -66 33v99q0 25 64 40.5t64 73.5
q0 86 -87 86q-71 0 -71 -58q0 -34 -65 -34q-58 0 -58 36q0 74 54 126q58 56 150 56q97 0 158.5 -58.5t61.5 -144.5z" />
    <glyph glyph-name="glyph263" unicode="&#x1ebb;" horiz-adv-x="1065" 
d="M1012 563q0 -88 -100 -88h-680q2 -153 90.5 -242t240.5 -89q147 0 293 112q43 33 68 33q63 0 63 -76q0 -92 -196 -177q-111 -49 -238 -49q-237 0 -374 163q-128 152 -132 395q4 7 4 10q2 32 10 97q38 241 220 372q110 80 252 80q212 0 349 -167q130 -157 130 -374z
M832 613q-3 145 -75 235q-80 100 -221 100q-143 0 -225 -99q-74 -90 -79 -236h600zM770 1477q0 -81 -43 -132q-37 -44 -93 -53v-37q0 -33 -69 -33q-66 0 -66 33v99q0 25 64 40.5t64 73.5q0 86 -87 86q-71 0 -71 -58q0 -34 -65 -34q-58 0 -58 36q0 74 54 126q58 56 150 56
q97 0 158.5 -58.5t61.5 -144.5z" />
    <glyph glyph-name="glyph264" unicode="&#x1ebc;" horiz-adv-x="908" 
d="M824 80q0 -80 -89 -80h-526q-88 0 -88 97v1263q0 100 76 100h551q76 0 76 -83q0 -84 -80 -84h-445v-482h406q80 0 80 -84t-84 -84h-402v-475h449q76 0 76 -88zM769 1721q0 -65 -69 -102q-54 -28 -127 -31q-9 4 -19 4q-33 0 -98 18.5t-98 18.5q-25 0 -130 -41
q-63 30 -63 80q0 129 180 129q41 0 113 -18q95 -23 111 -23q19 0 64 20.5t69 20.5q28 0 47.5 -23.5t19.5 -52.5z" />
    <glyph glyph-name="glyph265" unicode="&#x1ebd;" horiz-adv-x="1065" 
d="M1012 563q0 -88 -100 -88h-680q2 -153 90.5 -242t240.5 -89q147 0 293 112q43 33 68 33q63 0 63 -76q0 -92 -196 -177q-111 -49 -238 -49q-237 0 -374 163q-128 152 -132 395q4 7 4 10q2 32 10 97q38 241 220 372q110 80 252 80q212 0 349 -167q130 -157 130 -374z
M832 613q-3 145 -75 235q-80 100 -221 100q-143 0 -225 -99q-74 -90 -79 -236h600zM858 1397q0 -65 -69 -102q-54 -28 -127 -31q-9 4 -19 4q-33 0 -98 18.5t-98 18.5q-25 0 -130 -41q-63 30 -63 80q0 129 180 129q41 0 113 -18q95 -23 111 -23q19 0 64 20.5t69 20.5
q28 0 47.5 -23.5t19.5 -52.5z" />
    <glyph glyph-name="glyph266" unicode="&#x1ebe;" horiz-adv-x="908" 
d="M824 80q0 -80 -89 -80h-526q-88 0 -88 97v1263q0 100 76 100h551q76 0 76 -83q0 -84 -80 -84h-445v-482h406q80 0 80 -84t-84 -84h-402v-475h449q76 0 76 -88zM781 1641q0 -74 -76 -74q-19 0 -244 92q-235 -92 -252 -92q-70 0 -70 74q0 59 49 80l273 115l266 -115
q54 -24 54 -80zM679 2092q0 -48 -67 -76l-240 -101q-24 -10 -66 -10q-30 0 -54.5 21t-24.5 51q0 55 79 88l242 98q20 8 47 8q33 0 58.5 -23.5t25.5 -55.5z" />
    <glyph glyph-name="glyph267" unicode="&#x1ebf;" horiz-adv-x="1065" 
d="M1012 563q0 -88 -100 -88h-680q2 -153 90.5 -242t240.5 -89q147 0 293 112q43 33 68 33q63 0 63 -76q0 -92 -196 -177q-111 -49 -238 -49q-237 0 -374 163q-128 152 -132 395q4 7 4 10q2 32 10 97q38 241 220 372q110 80 252 80q212 0 349 -167q130 -157 130 -374z
M832 613q-3 145 -75 235q-80 100 -221 100q-143 0 -225 -99q-74 -90 -79 -236h600zM865 1313q0 -74 -76 -74q-19 0 -244 92q-235 -92 -252 -92q-70 0 -70 74q0 59 49 80l273 115l266 -115q54 -24 54 -80zM762 1764q0 -48 -67 -76l-240 -101q-24 -10 -66 -10q-30 0 -54.5 21
t-24.5 51q0 55 79 88l242 98q20 8 47 8q33 0 58.5 -23.5t25.5 -55.5zM762 1764q0 -48 -67 -76l-240 -101q-24 -10 -66 -10q-30 0 -54.5 21t-24.5 51q0 55 79 88l242 98q20 8 47 8q33 0 58.5 -23.5t25.5 -55.5z" />
    <glyph glyph-name="glyph268" unicode="&#x1ec0;" horiz-adv-x="908" 
d="M824 80q0 -80 -89 -80h-526q-88 0 -88 97v1263q0 100 76 100h551q76 0 76 -83q0 -84 -80 -84h-445v-482h406q80 0 80 -84t-84 -84h-402v-475h449q76 0 76 -88zM781 1641q0 -74 -76 -74q-19 0 -244 92q-235 -92 -252 -92q-70 0 -70 74q0 59 49 80l273 115l266 -115
q54 -24 54 -80zM703 1976q0 -76 -88 -76q-7 0 -47 10l-260 105q-65 26 -65 76q0 34 26 59t62 25q21 0 32 -5l273 -114q67 -29 67 -80z" />
    <glyph glyph-name="glyph269" unicode="&#x1ec1;" horiz-adv-x="1065" 
d="M1012 563q0 -88 -100 -88h-680q2 -153 90.5 -242t240.5 -89q147 0 293 112q43 33 68 33q63 0 63 -76q0 -92 -196 -177q-111 -49 -238 -49q-237 0 -374 163q-128 152 -132 395q4 7 4 10q2 32 10 97q38 241 220 372q110 80 252 80q212 0 349 -167q130 -157 130 -374z
M832 613q-3 145 -75 235q-80 100 -221 100q-143 0 -225 -99q-74 -90 -79 -236h600zM865 1313q0 -74 -76 -74q-19 0 -244 92q-235 -92 -252 -92q-70 0 -70 74q0 59 49 80l273 115l266 -115q54 -24 54 -80zM786 1649q0 -76 -88 -76q-7 0 -47 10l-260 105q-65 26 -65 76
q0 34 26 59t62 25q21 0 32 -5l273 -114q67 -29 67 -80z" />
    <glyph glyph-name="glyph270" unicode="&#x1ec2;" horiz-adv-x="908" 
d="M824 80q0 -80 -89 -80h-526q-88 0 -88 97v1263q0 100 76 100h551q76 0 76 -83q0 -84 -80 -84h-445v-482h406q80 0 80 -84t-84 -84h-402v-475h449q76 0 76 -88zM781 1641q0 -74 -76 -74q-19 0 -244 92q-235 -92 -252 -92q-70 0 -70 74q0 59 49 80l273 115l266 -115
q54 -24 54 -80zM852 2079q0 -81 -43 -132q-37 -44 -93 -53v-37q0 -33 -69 -33q-66 0 -66 33v99q0 25 64 40.5t64 73.5q0 86 -87 86q-71 0 -71 -58q0 -34 -65 -34q-58 0 -58 36q0 74 54 126q58 56 150 56q97 0 158.5 -58.5t61.5 -144.5z" />
    <glyph glyph-name="glyph271" unicode="&#x1ec3;" horiz-adv-x="1065" 
d="M1012 563q0 -88 -100 -88h-680q2 -153 90.5 -242t240.5 -89q147 0 293 112q43 33 68 33q63 0 63 -76q0 -92 -196 -177q-111 -49 -238 -49q-237 0 -374 163q-128 152 -132 395q4 7 4 10q2 32 10 97q38 241 220 372q110 80 252 80q212 0 349 -167q130 -157 130 -374z
M832 613q-3 145 -75 235q-80 100 -221 100q-143 0 -225 -99q-74 -90 -79 -236h600zM865 1313q0 -74 -76 -74q-19 0 -244 92q-235 -92 -252 -92q-70 0 -70 74q0 59 49 80l273 115l266 -115q54 -24 54 -80zM935 1752q0 -81 -43 -132q-37 -44 -93 -53v-37q0 -33 -69 -33
q-66 0 -66 33v99q0 25 64 40.5t64 73.5q0 86 -87 86q-71 0 -71 -58q0 -34 -65 -34q-58 0 -58 36q0 74 54 126q58 56 150 56q97 0 158.5 -58.5t61.5 -144.5z" />
    <glyph glyph-name="glyph272" unicode="&#x1ec4;" horiz-adv-x="908" 
d="M824 80q0 -80 -89 -80h-526q-88 0 -88 97v1263q0 100 76 100h551q76 0 76 -83q0 -84 -80 -84h-445v-482h406q80 0 80 -84t-84 -84h-402v-475h449q76 0 76 -88zM781 1641q0 -74 -76 -74q-19 0 -244 92q-235 -92 -252 -92q-70 0 -70 74q0 59 49 80l273 115l266 -115
q54 -24 54 -80zM854 2044q0 -65 -69 -102q-54 -28 -127 -31q-9 4 -19 4q-33 0 -98 18.5t-98 18.5q-25 0 -130 -41q-63 30 -63 80q0 129 180 129q41 0 113 -18q95 -23 111 -23q19 0 64 20.5t69 20.5q28 0 47.5 -23.5t19.5 -52.5z" />
    <glyph glyph-name="glyph273" unicode="&#x1ec5;" horiz-adv-x="1065" 
d="M1012 563q0 -88 -100 -88h-680q2 -153 90.5 -242t240.5 -89q147 0 293 112q43 33 68 33q63 0 63 -76q0 -92 -196 -177q-111 -49 -238 -49q-237 0 -374 163q-128 152 -132 395q4 7 4 10q2 32 10 97q38 241 220 372q110 80 252 80q212 0 349 -167q130 -157 130 -374z
M832 613q-3 145 -75 235q-80 100 -221 100q-143 0 -225 -99q-74 -90 -79 -236h600zM865 1313q0 -74 -76 -74q-19 0 -244 92q-235 -92 -252 -92q-70 0 -70 74q0 59 49 80l273 115l266 -115q54 -24 54 -80zM937 1716q0 -65 -69 -102q-54 -28 -127 -31q-9 4 -19 4
q-33 0 -98 18.5t-98 18.5q-25 0 -130 -41q-63 30 -63 80q0 129 180 129q41 0 113 -18q95 -23 111 -23q19 0 64 20.5t69 20.5q28 0 47.5 -23.5t19.5 -52.5z" />
    <glyph glyph-name="glyph274" unicode="&#x1ec6;" horiz-adv-x="908" 
d="M824 80q0 -80 -89 -80h-526q-88 0 -88 97v1263q0 100 76 100h551q76 0 76 -83q0 -84 -80 -84h-445v-482h406q80 0 80 -84t-84 -84h-402v-475h449q76 0 76 -88zM781 1641q0 -74 -76 -74q-19 0 -244 92q-235 -92 -252 -92q-70 0 -70 74q0 59 49 80l273 115l266 -115
q54 -24 54 -80zM566 -241q0 -42 -31.5 -73.5t-73.5 -31.5t-73 31.5t-31 73.5q0 43 30.5 74t73.5 31t74 -31t31 -74z" />
    <glyph glyph-name="glyph275" unicode="&#x1ec7;" horiz-adv-x="1065" 
d="M1012 563q0 -88 -100 -88h-680q2 -153 90.5 -242t240.5 -89q147 0 293 112q43 33 68 33q63 0 63 -76q0 -92 -196 -177q-111 -49 -238 -49q-237 0 -374 163q-128 152 -132 395q4 7 4 10q2 32 10 97q38 241 220 372q110 80 252 80q212 0 349 -167q130 -157 130 -374z
M832 613q-3 145 -75 235q-80 100 -221 100q-143 0 -225 -99q-74 -90 -79 -236h600zM865 1313q0 -74 -76 -74q-19 0 -244 92q-235 -92 -252 -92q-70 0 -70 74q0 59 49 80l273 115l266 -115q54 -24 54 -80zM648 -241q0 -42 -31.5 -73.5t-73.5 -31.5t-73 31.5t-31 73.5
q0 43 30.5 74t73.5 31t74 -31t31 -74z" />
    <glyph glyph-name="glyph276" unicode="&#x1ec8;" horiz-adv-x="416" 
d="M299 88q0 -101 -86 -101q-92 0 -92 97v1293q0 96 92 96q86 0 86 -96v-1289zM431 1786q0 -81 -43 -132q-37 -44 -93 -53v-37q0 -33 -69 -33q-66 0 -66 33v99q0 25 64 40.5t64 73.5q0 86 -87 86q-71 0 -71 -58q0 -34 -65 -34q-58 0 -58 36q0 74 54 126q58 56 150 56
q97 0 158.5 -58.5t61.5 -144.5z" />
    <glyph glyph-name="glyph277" unicode="&#x1ec9;" horiz-adv-x="416" 
d="M299 80q0 -93 -90 -93q-88 0 -88 93v932q0 92 88 92q90 0 90 -96v-928zM430 1477q0 -81 -43 -132q-37 -44 -93 -53v-37q0 -33 -69 -33q-66 0 -66 33v99q0 25 64 40.5t64 73.5q0 86 -87 86q-71 0 -71 -58q0 -34 -65 -34q-58 0 -58 36q0 74 54 126q58 56 150 56
q97 0 158.5 -58.5t61.5 -144.5z" />
    <glyph glyph-name="glyph278" unicode="&#x1eca;" horiz-adv-x="416" 
d="M299 88q0 -101 -86 -101q-92 0 -92 97v1293q0 96 92 96q86 0 86 -96v-1289zM316 -241q0 -42 -31.5 -73.5t-73.5 -31.5t-73 31.5t-31 73.5q0 43 30.5 74t73.5 31t74 -31t31 -74z" />
    <glyph glyph-name="glyph279" unicode="&#x1ecb;" horiz-adv-x="416" 
d="M320 1360q0 -45 -33 -79t-78 -34q-46 0 -79 33.5t-33 79.5t33 79.5t79 33.5t78.5 -33.5t32.5 -79.5zM299 80q0 -93 -90 -93q-88 0 -88 93v928q0 96 88 96q90 0 90 -92v-932zM316 -241q0 -42 -31.5 -73.5t-73.5 -31.5t-73 31.5t-31 73.5q0 43 30.5 74t73.5 31t74 -31
t31 -74z" />
    <glyph glyph-name="glyph280" unicode="&#x1ecc;" horiz-adv-x="1401" 
d="M1344 719q0 -301 -167 -508q-180 -224 -472 -224q-296 0 -476 228q-165 209 -165 512q0 306 164 516q179 230 477 230q301 0 478 -232q161 -211 161 -522zM1153 737q0 240 -101 396q-120 184 -347 184q-226 0 -347 -188q-102 -159 -102 -398q0 -242 101 -400
q119 -187 348 -187q226 0 347 191q101 161 101 402zM811 -241q0 -42 -31.5 -73.5t-73.5 -31.5t-73 31.5t-31 73.5q0 43 30.5 74t73.5 31t74 -31t31 -74z" />
    <glyph glyph-name="glyph281" unicode="&#x1ecd;" 
d="M1032 545q0 -328 -225 -482q-110 -76 -254 -76q-225 0 -359 170q-122 156 -122 388q0 335 233 487q111 72 248 72q219 0 354 -174q125 -160 125 -385zM852 551q0 160 -68 269q-81 128 -231 128q-155 0 -234 -130q-67 -108 -67 -273q0 -161 66 -270q80 -131 231 -131
q157 0 237 130q66 108 66 277zM654 -241q0 -42 -31.5 -73.5t-73.5 -31.5t-73 31.5t-31 73.5q0 43 30.5 74t73.5 31t74 -31t31 -74z" />
    <glyph glyph-name="glyph282" unicode="&#x1ece;" horiz-adv-x="1401" 
d="M1344 719q0 -301 -167 -508q-180 -224 -472 -224q-296 0 -476 228q-165 209 -165 512q0 306 164 516q179 230 477 230q301 0 478 -232q161 -211 161 -522zM1153 737q0 240 -101 396q-120 184 -347 184q-226 0 -347 -188q-102 -159 -102 -398q0 -242 101 -400
q119 -187 348 -187q226 0 347 191q101 161 101 402zM931 1786q0 -81 -43 -132q-37 -44 -93 -53v-37q0 -33 -69 -33q-66 0 -66 33v99q0 25 64 40.5t64 73.5q0 86 -87 86q-71 0 -71 -58q0 -34 -65 -34q-58 0 -58 36q0 74 54 126q58 56 150 56q97 0 158.5 -58.5t61.5 -144.5z
" />
    <glyph glyph-name="glyph283" unicode="&#x1ecf;" 
d="M1032 545q0 -328 -225 -482q-110 -76 -254 -76q-225 0 -359 170q-122 156 -122 388q0 335 233 487q111 72 248 72q219 0 354 -174q125 -160 125 -385zM852 551q0 160 -68 269q-81 128 -231 128q-155 0 -234 -130q-67 -108 -67 -273q0 -161 66 -270q80 -131 231 -131
q157 0 237 130q66 108 66 277zM775 1477q0 -81 -43 -132q-37 -44 -93 -53v-37q0 -33 -69 -33q-66 0 -66 33v99q0 25 64 40.5t64 73.5q0 86 -87 86q-71 0 -71 -58q0 -34 -65 -34q-58 0 -58 36q0 74 54 126q58 56 150 56q97 0 158.5 -58.5t61.5 -144.5z" />
    <glyph glyph-name="glyph284" unicode="&#x1ed0;" horiz-adv-x="1401" 
d="M1344 719q0 -301 -167 -508q-180 -224 -472 -224q-296 0 -476 228q-165 209 -165 512q0 306 164 516q179 230 477 230q301 0 478 -232q161 -211 161 -522zM1153 737q0 240 -101 396q-120 184 -347 184q-226 0 -347 -188q-102 -159 -102 -398q0 -242 101 -400
q119 -187 348 -187q226 0 347 191q101 161 101 402zM1026 1641q0 -74 -76 -74q-19 0 -244 92q-235 -92 -252 -92q-70 0 -70 74q0 59 49 80l273 115l266 -115q54 -24 54 -80zM923 2092q0 -48 -67 -76l-240 -101q-24 -10 -66 -10q-30 0 -54.5 21t-24.5 51q0 55 79 88l242 98
q20 8 47 8q33 0 58.5 -23.5t25.5 -55.5z" />
    <glyph glyph-name="glyph285" unicode="&#x1ed1;" 
d="M1032 545q0 -328 -225 -482q-110 -76 -254 -76q-225 0 -359 170q-122 156 -122 388q0 335 233 487q111 72 248 72q219 0 354 -174q125 -160 125 -385zM852 551q0 160 -68 269q-81 128 -231 128q-155 0 -234 -130q-67 -108 -67 -273q0 -161 66 -270q80 -131 231 -131
q157 0 237 130q66 108 66 277zM875 1313q0 -74 -76 -74q-19 0 -244 92q-235 -92 -252 -92q-70 0 -70 74q0 59 49 80l273 115l266 -115q54 -24 54 -80zM772 1764q0 -48 -67 -76l-240 -101q-24 -10 -66 -10q-30 0 -54.5 21t-24.5 51q0 55 79 88l242 98q20 8 47 8
q33 0 58.5 -23.5t25.5 -55.5z" />
    <glyph glyph-name="glyph286" unicode="&#x1ed2;" horiz-adv-x="1401" 
d="M1344 719q0 -301 -167 -508q-180 -224 -472 -224q-296 0 -476 228q-165 209 -165 512q0 306 164 516q179 230 477 230q301 0 478 -232q161 -211 161 -522zM1153 737q0 240 -101 396q-120 184 -347 184q-226 0 -347 -188q-102 -159 -102 -398q0 -242 101 -400
q119 -187 348 -187q226 0 347 191q101 161 101 402zM1026 1641q0 -74 -76 -74q-19 0 -244 92q-235 -92 -252 -92q-70 0 -70 74q0 59 49 80l273 115l266 -115q54 -24 54 -80zM948 1976q0 -76 -88 -76q-7 0 -47 10l-260 105q-65 26 -65 76q0 34 26 59t62 25q21 0 32 -5
l273 -114q67 -29 67 -80z" />
    <glyph glyph-name="glyph287" unicode="&#x1ed3;" 
d="M1032 545q0 -328 -225 -482q-110 -76 -254 -76q-225 0 -359 170q-122 156 -122 388q0 335 233 487q111 72 248 72q219 0 354 -174q125 -160 125 -385zM852 551q0 160 -68 269q-81 128 -231 128q-155 0 -234 -130q-67 -108 -67 -273q0 -161 66 -270q80 -131 231 -131
q157 0 237 130q66 108 66 277zM875 1313q0 -74 -76 -74q-19 0 -244 92q-235 -92 -252 -92q-70 0 -70 74q0 59 49 80l273 115l266 -115q54 -24 54 -80zM796 1649q0 -76 -88 -76q-7 0 -47 10l-260 105q-65 26 -65 76q0 34 26 59t62 25q21 0 32 -5l273 -114q67 -29 67 -80z" />
    <glyph glyph-name="glyph288" unicode="&#x1ed4;" horiz-adv-x="1401" 
d="M1344 719q0 -301 -167 -508q-180 -224 -472 -224q-296 0 -476 228q-165 209 -165 512q0 306 164 516q179 230 477 230q301 0 478 -232q161 -211 161 -522zM1153 737q0 240 -101 396q-120 184 -347 184q-226 0 -347 -188q-102 -159 -102 -398q0 -242 101 -400
q119 -187 348 -187q226 0 347 191q101 161 101 402zM1026 1641q0 -74 -76 -74q-19 0 -244 92q-235 -92 -252 -92q-70 0 -70 74q0 59 49 80l273 115l266 -115q54 -24 54 -80zM1096 2079q0 -81 -43 -132q-37 -44 -93 -53v-37q0 -33 -69 -33q-66 0 -66 33v99q0 25 64 40.5
t64 73.5q0 86 -87 86q-71 0 -71 -58q0 -34 -65 -34q-58 0 -58 36q0 74 54 126q58 56 150 56q97 0 158.5 -58.5t61.5 -144.5z" />
    <glyph glyph-name="glyph289" unicode="&#x1ed5;" 
d="M1032 545q0 -328 -225 -482q-110 -76 -254 -76q-225 0 -359 170q-122 156 -122 388q0 335 233 487q111 72 248 72q219 0 354 -174q125 -160 125 -385zM852 551q0 160 -68 269q-81 128 -231 128q-155 0 -234 -130q-67 -108 -67 -273q0 -161 66 -270q80 -131 231 -131
q157 0 237 130q66 108 66 277zM875 1313q0 -74 -76 -74q-19 0 -244 92q-235 -92 -252 -92q-70 0 -70 74q0 59 49 80l273 115l266 -115q54 -24 54 -80zM945 1752q0 -81 -43 -132q-37 -44 -93 -53v-37q0 -33 -69 -33q-66 0 -66 33v99q0 25 64 40.5t64 73.5q0 86 -87 86
q-71 0 -71 -58q0 -34 -65 -34q-58 0 -58 36q0 74 54 126q58 56 150 56q97 0 158.5 -58.5t61.5 -144.5z" />
    <glyph glyph-name="glyph290" unicode="&#x1ed6;" horiz-adv-x="1401" 
d="M1344 719q0 -301 -167 -508q-180 -224 -472 -224q-296 0 -476 228q-165 209 -165 512q0 306 164 516q179 230 477 230q301 0 478 -232q161 -211 161 -522zM1153 737q0 240 -101 396q-120 184 -347 184q-226 0 -347 -188q-102 -159 -102 -398q0 -242 101 -400
q119 -187 348 -187q226 0 347 191q101 161 101 402zM1026 1641q0 -74 -76 -74q-19 0 -244 92q-235 -92 -252 -92q-70 0 -70 74q0 59 49 80l273 115l266 -115q54 -24 54 -80zM1098 2044q0 -65 -69 -102q-54 -28 -127 -31q-9 4 -19 4q-33 0 -98 18.5t-98 18.5q-25 0 -130 -41
q-63 30 -63 80q0 129 180 129q41 0 113 -18q95 -23 111 -23q19 0 64 20.5t69 20.5q28 0 47.5 -23.5t19.5 -52.5z" />
    <glyph glyph-name="glyph291" unicode="&#x1ed7;" 
d="M1032 545q0 -328 -225 -482q-110 -76 -254 -76q-225 0 -359 170q-122 156 -122 388q0 335 233 487q111 72 248 72q219 0 354 -174q125 -160 125 -385zM852 551q0 160 -68 269q-81 128 -231 128q-155 0 -234 -130q-67 -108 -67 -273q0 -161 66 -270q80 -131 231 -131
q157 0 237 130q66 108 66 277zM875 1313q0 -74 -76 -74q-19 0 -244 92q-235 -92 -252 -92q-70 0 -70 74q0 59 49 80l273 115l266 -115q54 -24 54 -80zM947 1716q0 -65 -69 -102q-54 -28 -127 -31q-9 4 -19 4q-33 0 -98 18.5t-98 18.5q-25 0 -130 -41q-63 30 -63 80
q0 129 180 129q41 0 113 -18q95 -23 111 -23q19 0 64 20.5t69 20.5q28 0 47.5 -23.5t19.5 -52.5z" />
    <glyph glyph-name="glyph292" unicode="&#x1ed8;" horiz-adv-x="1401" 
d="M1344 719q0 -301 -167 -508q-180 -224 -472 -224q-296 0 -476 228q-165 209 -165 512q0 306 164 516q179 230 477 230q301 0 478 -232q161 -211 161 -522zM1153 737q0 240 -101 396q-120 184 -347 184q-226 0 -347 -188q-102 -159 -102 -398q0 -242 101 -400
q119 -187 348 -187q226 0 347 191q101 161 101 402zM1026 1641q0 -74 -76 -74q-19 0 -244 92q-235 -92 -252 -92q-70 0 -70 74q0 59 49 80l273 115l266 -115q54 -24 54 -80zM811 -241q0 -42 -31.5 -73.5t-73.5 -31.5t-73 31.5t-31 73.5q0 43 30.5 74t73.5 31t74 -31t31 -74z
" />
    <glyph glyph-name="glyph293" unicode="&#x1ed9;" 
d="M1032 545q0 -328 -225 -482q-110 -76 -254 -76q-225 0 -359 170q-122 156 -122 388q0 335 233 487q111 72 248 72q219 0 354 -174q125 -160 125 -385zM852 551q0 160 -68 269q-81 128 -231 128q-155 0 -234 -130q-67 -108 -67 -273q0 -161 66 -270q80 -131 231 -131
q157 0 237 130q66 108 66 277zM875 1313q0 -74 -76 -74q-19 0 -244 92q-235 -92 -252 -92q-70 0 -70 74q0 59 49 80l273 115l266 -115q54 -24 54 -80zM654 -241q0 -42 -31.5 -73.5t-73.5 -31.5t-73 31.5t-31 73.5q0 43 30.5 74t73.5 31t74 -31t31 -74z" />
    <glyph glyph-name="glyph294" unicode="&#x1eda;" horiz-adv-x="1401" 
d="M1344 719q0 -301 -167 -508q-180 -224 -472 -224q-296 0 -476 228q-165 209 -165 512q0 306 164 516q179 230 477 230q301 0 478 -232q161 -211 161 -522zM1153 737q0 240 -101 396q-120 184 -347 184q-226 0 -347 -188q-102 -159 -102 -398q0 -242 101 -400
q119 -187 348 -187q226 0 347 191q101 161 101 402zM1389 1479q0 -35 -16 -66l-130 -247q-38 -72 -83 -72q-34 0 -62 28q-25 25 -31 60q6 31 21 59l125 250q31 64 88 64q88 0 88 -76zM928 1764q0 -48 -67 -76l-240 -101q-24 -10 -66 -10q-30 0 -54.5 21t-24.5 51q0 55 79 88
l242 98q20 8 47 8q33 0 58.5 -23.5t25.5 -55.5z" />
    <glyph glyph-name="glyph295" unicode="&#x1edb;" horiz-adv-x="1127" 
d="M1032 545q0 -328 -225 -482q-110 -76 -254 -76q-225 0 -359 170q-122 156 -122 388q0 335 233 487q111 72 248 72q219 0 354 -174q125 -160 125 -385zM852 551q0 160 -68 269q-81 128 -231 128q-155 0 -234 -130q-67 -108 -67 -273q0 -161 66 -270q80 -131 231 -131
q157 0 237 130q66 108 66 277zM1143 1106q0 -35 -16 -66l-130 -247q-38 -72 -83 -72q-34 0 -62 28q-25 25 -31 60q6 31 21 59l125 250q31 64 88 64q88 0 88 -76zM780 1440q0 -48 -67 -76l-240 -101q-24 -10 -66 -10q-30 0 -54.5 21t-24.5 51q0 55 79 88l242 98q20 8 47 8
q33 0 58.5 -23.5t25.5 -55.5z" />
    <glyph glyph-name="glyph296" unicode="&#x1edc;" horiz-adv-x="1401" 
d="M1344 719q0 -301 -167 -508q-180 -224 -472 -224q-296 0 -476 228q-165 209 -165 512q0 306 164 516q179 230 477 230q301 0 478 -232q161 -211 161 -522zM1153 737q0 240 -101 396q-120 184 -347 184q-226 0 -347 -188q-102 -159 -102 -398q0 -242 101 -400
q119 -187 348 -187q226 0 347 191q101 161 101 402zM1389 1479q0 -35 -16 -66l-130 -247q-38 -72 -83 -72q-34 0 -62 28q-25 25 -31 60q6 31 21 59l125 250q31 64 88 64q88 0 88 -76zM936 1653q0 -76 -88 -76q-7 0 -47 10l-260 105q-65 26 -65 76q0 34 26 59t62 25
q21 0 32 -5l273 -114q67 -29 67 -80z" />
    <glyph glyph-name="glyph297" unicode="&#x1edd;" horiz-adv-x="1127" 
d="M1032 545q0 -328 -225 -482q-110 -76 -254 -76q-225 0 -359 170q-122 156 -122 388q0 335 233 487q111 72 248 72q219 0 354 -174q125 -160 125 -385zM852 551q0 160 -68 269q-81 128 -231 128q-155 0 -234 -130q-67 -108 -67 -273q0 -161 66 -270q80 -131 231 -131
q157 0 237 130q66 108 66 277zM1143 1106q0 -35 -16 -66l-130 -247q-38 -72 -83 -72q-34 0 -62 28q-25 25 -31 60q6 31 21 59l125 250q31 64 88 64q88 0 88 -76zM788 1317q0 -76 -88 -76q-7 0 -47 10l-260 105q-65 26 -65 76q0 34 26 59t62 25q21 0 32 -5l273 -114
q67 -29 67 -80z" />
    <glyph glyph-name="glyph298" unicode="&#x1ede;" horiz-adv-x="1401" 
d="M1344 719q0 -301 -167 -508q-180 -224 -472 -224q-296 0 -476 228q-165 209 -165 512q0 306 164 516q179 230 477 230q301 0 478 -232q161 -211 161 -522zM1153 737q0 240 -101 396q-120 184 -347 184q-226 0 -347 -188q-102 -159 -102 -398q0 -242 101 -400
q119 -187 348 -187q226 0 347 191q101 161 101 402zM1389 1479q0 -35 -16 -66l-130 -247q-38 -72 -83 -72q-34 0 -62 28q-25 25 -31 60q6 31 21 59l125 250q31 64 88 64q88 0 88 -76zM931 1786q0 -81 -43 -132q-37 -44 -93 -53v-37q0 -33 -69 -33q-66 0 -66 33v99
q0 25 64 40.5t64 73.5q0 86 -87 86q-71 0 -71 -58q0 -34 -65 -34q-58 0 -58 36q0 74 54 126q58 56 150 56q97 0 158.5 -58.5t61.5 -144.5z" />
    <glyph glyph-name="glyph299" unicode="&#x1edf;" horiz-adv-x="1127" 
d="M1032 545q0 -328 -225 -482q-110 -76 -254 -76q-225 0 -359 170q-122 156 -122 388q0 335 233 487q111 72 248 72q219 0 354 -174q125 -160 125 -385zM852 551q0 160 -68 269q-81 128 -231 128q-155 0 -234 -130q-67 -108 -67 -273q0 -161 66 -270q80 -131 231 -131
q157 0 237 130q66 108 66 277zM1143 1106q0 -35 -16 -66l-130 -247q-38 -72 -83 -72q-34 0 -62 28q-25 25 -31 60q6 31 21 59l125 250q31 64 88 64q88 0 88 -76zM775 1477q0 -81 -43 -132q-37 -44 -93 -53v-37q0 -33 -69 -33q-66 0 -66 33v99q0 25 64 40.5t64 73.5
q0 86 -87 86q-71 0 -71 -58q0 -34 -65 -34q-58 0 -58 36q0 74 54 126q58 56 150 56q97 0 158.5 -58.5t61.5 -144.5z" />
    <glyph glyph-name="glyph300" unicode="&#x1ee0;" horiz-adv-x="1401" 
d="M1344 719q0 -301 -167 -508q-180 -224 -472 -224q-296 0 -476 228q-165 209 -165 512q0 306 164 516q179 230 477 230q301 0 478 -232q161 -211 161 -522zM1153 737q0 240 -101 396q-120 184 -347 184q-226 0 -347 -188q-102 -159 -102 -398q0 -242 101 -400
q119 -187 348 -187q226 0 347 191q101 161 101 402zM1389 1479q0 -35 -16 -66l-130 -247q-38 -72 -83 -72q-34 0 -62 28q-25 25 -31 60q6 31 21 59l125 250q31 64 88 64q88 0 88 -76zM1004 1721q0 -65 -69 -102q-54 -28 -127 -31q-9 4 -19 4q-33 0 -98 18.5t-98 18.5
q-25 0 -130 -41q-63 30 -63 80q0 129 180 129q41 0 113 -18q95 -23 111 -23q19 0 64 20.5t69 20.5q28 0 47.5 -23.5t19.5 -52.5z" />
    <glyph glyph-name="glyph301" unicode="&#x1ee1;" horiz-adv-x="1127" 
d="M1032 545q0 -328 -225 -482q-110 -76 -254 -76q-225 0 -359 170q-122 156 -122 388q0 335 233 487q111 72 248 72q219 0 354 -174q125 -160 125 -385zM852 551q0 160 -68 269q-81 128 -231 128q-155 0 -234 -130q-67 -108 -67 -273q0 -161 66 -270q80 -131 231 -131
q157 0 237 130q66 108 66 277zM1143 1106q0 -35 -16 -66l-130 -247q-38 -72 -83 -72q-34 0 -62 28q-25 25 -31 60q6 31 21 59l125 250q31 64 88 64q88 0 88 -76zM848 1397q0 -65 -69 -102q-54 -28 -127 -31q-9 4 -19 4q-33 0 -98 18.5t-98 18.5q-25 0 -130 -41
q-63 30 -63 80q0 129 180 129q41 0 113 -18q95 -23 111 -23q19 0 64 20.5t69 20.5q28 0 47.5 -23.5t19.5 -52.5z" />
    <glyph glyph-name="glyph302" unicode="&#x1ee2;" horiz-adv-x="1401" 
d="M1344 719q0 -301 -167 -508q-180 -224 -472 -224q-296 0 -476 228q-165 209 -165 512q0 306 164 516q179 230 477 230q301 0 478 -232q161 -211 161 -522zM1153 737q0 240 -101 396q-120 184 -347 184q-226 0 -347 -188q-102 -159 -102 -398q0 -242 101 -400
q119 -187 348 -187q226 0 347 191q101 161 101 402zM1389 1479q0 -35 -16 -66l-130 -247q-38 -72 -83 -72q-34 0 -62 28q-25 25 -31 60q6 31 21 59l125 250q31 64 88 64q88 0 88 -76zM811 -241q0 -42 -31.5 -73.5t-73.5 -31.5t-73 31.5t-31 73.5q0 43 30.5 74t73.5 31
t74 -31t31 -74z" />
    <glyph glyph-name="glyph303" unicode="&#x1ee3;" horiz-adv-x="1127" 
d="M1032 545q0 -328 -225 -482q-110 -76 -254 -76q-225 0 -359 170q-122 156 -122 388q0 335 233 487q111 72 248 72q219 0 354 -174q125 -160 125 -385zM852 551q0 160 -68 269q-81 128 -231 128q-155 0 -234 -130q-67 -108 -67 -273q0 -161 66 -270q80 -131 231 -131
q157 0 237 130q66 108 66 277zM1143 1106q0 -35 -16 -66l-130 -247q-38 -72 -83 -72q-34 0 -62 28q-25 25 -31 60q6 31 21 59l125 250q31 64 88 64q88 0 88 -76zM654 -241q0 -42 -31.5 -73.5t-73.5 -31.5t-73 31.5t-31 73.5q0 43 30.5 74t73.5 31t74 -31t31 -74z" />
    <glyph glyph-name="glyph304" unicode="&#x1ee4;" horiz-adv-x="1364" 
d="M1247 563q0 -275 -139 -423q-143 -153 -416 -153q-275 0 -423 148t-148 424v822q0 92 88 92q90 0 90 -92v-877q0 -171 111 -268q105 -93 279 -93q169 0 273 96q109 98 109 265v877q0 92 84 92q92 0 92 -92v-818zM792 -241q0 -42 -31.5 -73.5t-73.5 -31.5t-73 31.5
t-31 73.5q0 43 30.5 74t73.5 31t74 -31t31 -74z" />
    <glyph glyph-name="glyph305" unicode="&#x1ee5;" 
d="M983 412q0 -201 -118.5 -313t-319.5 -112q-198 0 -311 113t-113 312v600q0 92 88 92q90 0 90 -92v-596q0 -272 250 -272q256 0 256 272v596q0 92 88 92q90 0 90 -92v-600zM651 -241q0 -42 -31.5 -73.5t-73.5 -31.5t-73 31.5t-31 73.5q0 43 30.5 74t73.5 31t74 -31t31 -74
z" />
    <glyph glyph-name="glyph306" unicode="&#x1ee6;" horiz-adv-x="1364" 
d="M1247 563q0 -275 -139 -423q-143 -153 -416 -153q-275 0 -423 148t-148 424v822q0 92 88 92q90 0 90 -92v-877q0 -171 111 -268q105 -93 279 -93q169 0 273 96q109 98 109 265v877q0 92 84 92q92 0 92 -92v-818zM921 1786q0 -81 -43 -132q-37 -44 -93 -53v-37
q0 -33 -69 -33q-66 0 -66 33v99q0 25 64 40.5t64 73.5q0 86 -87 86q-71 0 -71 -58q0 -34 -65 -34q-58 0 -58 36q0 74 54 126q58 56 150 56q97 0 158.5 -58.5t61.5 -144.5z" />
    <glyph glyph-name="glyph307" unicode="&#x1ee7;" 
d="M983 412q0 -201 -118.5 -313t-319.5 -112q-198 0 -311 113t-113 312v600q0 92 88 92q90 0 90 -92v-596q0 -272 250 -272q256 0 256 272v596q0 92 88 92q90 0 90 -92v-600zM775 1477q0 -81 -43 -132q-37 -44 -93 -53v-37q0 -33 -69 -33q-66 0 -66 33v99q0 25 64 40.5
t64 73.5q0 86 -87 86q-71 0 -71 -58q0 -34 -65 -34q-58 0 -58 36q0 74 54 126q58 56 150 56q97 0 158.5 -58.5t61.5 -144.5z" />
    <glyph glyph-name="glyph308" unicode="&#x1ee8;" horiz-adv-x="1420" 
d="M1247 563q0 -275 -139 -423q-143 -153 -416 -153q-275 0 -423 148t-148 424v822q0 92 88 92q90 0 90 -92v-877q0 -171 111 -268q105 -93 279 -93q169 0 273 96q109 98 109 265v877q0 92 84 92q92 0 92 -92v-818zM1469 1479q0 -35 -16 -66l-130 -247q-38 -72 -83 -72
q-34 0 -62 28q-25 25 -31 60q6 31 21 59l125 250q31 64 88 64q88 0 88 -76zM933 1764q0 -48 -67 -76l-240 -101q-24 -10 -66 -10q-30 0 -54.5 21t-24.5 51q0 55 79 88l242 98q20 8 47 8q33 0 58.5 -23.5t25.5 -55.5z" />
    <glyph glyph-name="glyph309" unicode="&#x1ee9;" horiz-adv-x="1160" 
d="M983 412q0 -201 -118.5 -313t-319.5 -112q-198 0 -311 113t-113 312v600q0 92 88 92q90 0 90 -92v-596q0 -272 250 -272q256 0 256 272v596q0 92 88 92q90 0 90 -92v-600zM1208 1106q0 -35 -16 -66l-130 -247q-38 -72 -83 -72q-34 0 -62 28q-25 25 -31 60q6 31 21 59
l125 250q31 64 88 64q88 0 88 -76zM789 1432q0 -48 -67 -76l-240 -101q-24 -10 -66 -10q-30 0 -54.5 21t-24.5 51q0 55 79 88l242 98q20 8 47 8q33 0 58.5 -23.5t25.5 -55.5z" />
    <glyph glyph-name="glyph310" unicode="&#x1eea;" horiz-adv-x="1420" 
d="M1247 563q0 -275 -139 -423q-143 -153 -416 -153q-275 0 -423 148t-148 424v822q0 92 88 92q90 0 90 -92v-877q0 -171 111 -268q105 -93 279 -93q169 0 273 96q109 98 109 265v877q0 92 84 92q92 0 92 -92v-818zM1469 1479q0 -35 -16 -66l-130 -247q-38 -72 -83 -72
q-34 0 -62 28q-25 25 -31 60q6 31 21 59l125 250q31 64 88 64q88 0 88 -76zM916 1649q0 -76 -88 -76q-7 0 -47 10l-260 105q-65 26 -65 76q0 34 26 59t62 25q21 0 32 -5l273 -114q67 -29 67 -80z" />
    <glyph glyph-name="glyph311" unicode="&#x1eeb;" horiz-adv-x="1160" 
d="M983 412q0 -201 -118.5 -313t-319.5 -112q-198 0 -311 113t-113 312v600q0 92 88 92q90 0 90 -92v-596q0 -272 250 -272q256 0 256 272v596q0 92 88 92q90 0 90 -92v-600zM1208 1106q0 -35 -16 -66l-130 -247q-38 -72 -83 -72q-34 0 -62 28q-25 25 -31 60q6 31 21 59
l125 250q31 64 88 64q88 0 88 -76zM784 1317q0 -76 -88 -76q-7 0 -47 10l-260 105q-65 26 -65 76q0 34 26 59t62 25q21 0 32 -5l273 -114q67 -29 67 -80z" />
    <glyph glyph-name="glyph312" unicode="&#x1eec;" horiz-adv-x="1420" 
d="M1247 563q0 -275 -139 -423q-143 -153 -416 -153q-275 0 -423 148t-148 424v822q0 92 88 92q90 0 90 -92v-877q0 -171 111 -268q105 -93 279 -93q169 0 273 96q109 98 109 265v877q0 92 84 92q92 0 92 -92v-818zM1469 1479q0 -35 -16 -66l-130 -247q-38 -72 -83 -72
q-34 0 -62 28q-25 25 -31 60q6 31 21 59l125 250q31 64 88 64q88 0 88 -76zM921 1786q0 -81 -43 -132q-37 -44 -93 -53v-37q0 -33 -69 -33q-66 0 -66 33v99q0 25 64 40.5t64 73.5q0 86 -87 86q-71 0 -71 -58q0 -34 -65 -34q-58 0 -58 36q0 74 54 126q58 56 150 56
q97 0 158.5 -58.5t61.5 -144.5z" />
    <glyph glyph-name="glyph313" unicode="&#x1eed;" horiz-adv-x="1160" 
d="M983 412q0 -201 -118.5 -313t-319.5 -112q-198 0 -311 113t-113 312v600q0 92 88 92q90 0 90 -92v-596q0 -272 250 -272q256 0 256 272v596q0 92 88 92q90 0 90 -92v-600zM1208 1106q0 -35 -16 -66l-130 -247q-38 -72 -83 -72q-34 0 -62 28q-25 25 -31 60q6 31 21 59
l125 250q31 64 88 64q88 0 88 -76zM775 1477q0 -81 -43 -132q-37 -44 -93 -53v-37q0 -33 -69 -33q-66 0 -66 33v99q0 25 64 40.5t64 73.5q0 86 -87 86q-71 0 -71 -58q0 -34 -65 -34q-58 0 -58 36q0 74 54 126q58 56 150 56q97 0 158.5 -58.5t61.5 -144.5z" />
    <glyph glyph-name="glyph314" unicode="&#x1eee;" horiz-adv-x="1420" 
d="M1247 563q0 -275 -139 -423q-143 -153 -416 -153q-275 0 -423 148t-148 424v822q0 92 88 92q90 0 90 -92v-877q0 -171 111 -268q105 -93 279 -93q169 0 273 96q109 98 109 265v877q0 92 84 92q92 0 92 -92v-818zM1469 1479q0 -35 -16 -66l-130 -247q-38 -72 -83 -72
q-34 0 -62 28q-25 25 -31 60q6 31 21 59l125 250q31 64 88 64q88 0 88 -76zM1004 1721q0 -65 -69 -102q-54 -28 -127 -31q-9 4 -19 4q-33 0 -98 18.5t-98 18.5q-25 0 -130 -41q-63 30 -63 80q0 129 180 129q41 0 113 -18q95 -23 111 -23q19 0 64 20.5t69 20.5
q28 0 47.5 -23.5t19.5 -52.5z" />
    <glyph glyph-name="glyph315" unicode="&#x1eef;" horiz-adv-x="1160" 
d="M983 412q0 -201 -118.5 -313t-319.5 -112q-198 0 -311 113t-113 312v600q0 92 88 92q90 0 90 -92v-596q0 -272 250 -272q256 0 256 272v596q0 92 88 92q90 0 90 -92v-600zM1208 1106q0 -35 -16 -66l-130 -247q-38 -72 -83 -72q-34 0 -62 28q-25 25 -31 60q6 31 21 59
l125 250q31 64 88 64q88 0 88 -76zM858 1397q0 -65 -69 -102q-54 -28 -127 -31q-9 4 -19 4q-33 0 -98 18.5t-98 18.5q-25 0 -130 -41q-63 30 -63 80q0 129 180 129q41 0 113 -18q95 -23 111 -23q19 0 64 20.5t69 20.5q28 0 47.5 -23.5t19.5 -52.5z" />
    <glyph glyph-name="glyph316" unicode="&#x1ef0;" horiz-adv-x="1420" 
d="M1247 563q0 -275 -139 -423q-143 -153 -416 -153q-275 0 -423 148t-148 424v822q0 92 88 92q90 0 90 -92v-877q0 -171 111 -268q105 -93 279 -93q169 0 273 96q109 98 109 265v877q0 92 84 92q92 0 92 -92v-818zM1469 1479q0 -35 -16 -66l-130 -247q-38 -72 -83 -72
q-34 0 -62 28q-25 25 -31 60q6 31 21 59l125 250q31 64 88 64q88 0 88 -76zM792 -241q0 -42 -31.5 -73.5t-73.5 -31.5t-73 31.5t-31 73.5q0 43 30.5 74t73.5 31t74 -31t31 -74z" />
    <glyph glyph-name="glyph317" unicode="&#x1ef1;" horiz-adv-x="1160" 
d="M983 412q0 -201 -118.5 -313t-319.5 -112q-198 0 -311 113t-113 312v600q0 92 88 92q90 0 90 -92v-596q0 -272 250 -272q256 0 256 272v596q0 92 88 92q90 0 90 -92v-600zM1208 1106q0 -35 -16 -66l-130 -247q-38 -72 -83 -72q-34 0 -62 28q-25 25 -31 60q6 31 21 59
l125 250q31 64 88 64q88 0 88 -76zM651 -241q0 -42 -31.5 -73.5t-73.5 -31.5t-73 31.5t-31 73.5q0 43 30.5 74t73.5 31t74 -31t31 -74z" />
    <glyph glyph-name="glyph318" unicode="&#x1ef2;" horiz-adv-x="987" 
d="M1020 1397q0 -31 -16 -57l-400 -652v-604q0 -42 -25 -71.5t-67 -29.5q-40 0 -65 32q-23 28 -23 69v604l-399 648q-25 39 -25 65q0 31 24.5 51.5t55.5 20.5q58 0 88 -49l344 -559l344 555q33 53 84 53q80 0 80 -76zM705 1649q0 -76 -88 -76q-7 0 -47 10l-260 105
q-65 26 -65 76q0 34 26 59t62 25q21 0 32 -5l273 -114q67 -29 67 -80z" />
    <glyph glyph-name="glyph319" unicode="&#x1ef3;" horiz-adv-x="873" 
d="M877 1016q0 -20 -8 -43l-473 -1346q-29 -80 -99 -80q-67 0 -74 84q3 21 13 57l133 353l-326 932q-1 3 -10 47q0 80 84 80q71 0 92 -63l248 -748h4l248 752q20 63 84 63q84 0 84 -88zM629 1317q0 -76 -88 -76q-7 0 -47 10l-260 105q-65 26 -65 76q0 34 26 59t62 25
q21 0 32 -5l273 -114q67 -29 67 -80z" />
    <glyph glyph-name="glyph320" unicode="&#x1ef4;" horiz-adv-x="987" 
d="M1020 1397q0 -31 -16 -57l-400 -652v-604q0 -42 -25 -71.5t-67 -29.5q-40 0 -65 32q-23 28 -23 69v604l-399 648q-25 39 -25 65q0 31 24.5 51.5t55.5 20.5q58 0 88 -49l344 -559l344 555q33 53 84 53q80 0 80 -76zM617 -241q0 -42 -31.5 -73.5t-73.5 -31.5t-73 31.5
t-31 73.5q0 43 30.5 74t73.5 31t74 -31t31 -74z" />
    <glyph glyph-name="glyph321" unicode="&#x1ef5;" horiz-adv-x="873" 
d="M877 1016q0 -20 -8 -43l-473 -1346q-29 -80 -99 -80q-67 0 -74 84q3 21 13 57l133 353l-326 932q-1 3 -10 47q0 80 84 80q71 0 92 -63l248 -748h4l248 752q20 63 84 63q84 0 84 -88zM777 -241q0 -42 -31.5 -73.5t-73.5 -31.5t-73 31.5t-31 73.5q0 43 30.5 74t73.5 31
t74 -31t31 -74z" />
    <glyph glyph-name="glyph322" unicode="&#x1ef6;" horiz-adv-x="987" 
d="M1020 1397q0 -31 -16 -57l-400 -652v-604q0 -42 -25 -71.5t-67 -29.5q-40 0 -65 32q-23 28 -23 69v604l-399 648q-25 39 -25 65q0 31 24.5 51.5t55.5 20.5q58 0 88 -49l344 -559l344 555q33 53 84 53q80 0 80 -76zM741 1786q0 -81 -43 -132q-37 -44 -93 -53v-37
q0 -33 -69 -33q-66 0 -66 33v99q0 25 64 40.5t64 73.5q0 86 -87 86q-71 0 -71 -58q0 -34 -65 -34q-58 0 -58 36q0 74 54 126q58 56 150 56q97 0 158.5 -58.5t61.5 -144.5z" />
    <glyph glyph-name="glyph323" unicode="&#x1ef7;" horiz-adv-x="873" 
d="M877 1016q0 -20 -8 -43l-473 -1346q-29 -80 -99 -80q-67 0 -74 84q3 21 13 57l133 353l-326 932q-1 3 -10 47q0 80 84 80q71 0 92 -63l248 -748h4l248 752q20 63 84 63q84 0 84 -88zM670 1477q0 -81 -43 -132q-37 -44 -93 -53v-37q0 -33 -69 -33q-66 0 -66 33v99
q0 25 64 40.5t64 73.5q0 86 -87 86q-71 0 -71 -58q0 -34 -65 -34q-58 0 -58 36q0 74 54 126q58 56 150 56q97 0 158.5 -58.5t61.5 -144.5z" />
    <glyph glyph-name="glyph324" unicode="&#x1ef8;" horiz-adv-x="987" 
d="M1020 1397q0 -31 -16 -57l-400 -652v-604q0 -42 -25 -71.5t-67 -29.5q-40 0 -65 32q-23 28 -23 69v604l-399 648q-25 39 -25 65q0 31 24.5 51.5t55.5 20.5q58 0 88 -49l344 -559l344 555q33 53 84 53q80 0 80 -76zM824 1721q0 -65 -69 -102q-54 -28 -127 -31q-9 4 -19 4
q-33 0 -98 18.5t-98 18.5q-25 0 -130 -41q-63 30 -63 80q0 129 180 129q41 0 113 -18q95 -23 111 -23q19 0 64 20.5t69 20.5q28 0 47.5 -23.5t19.5 -52.5z" />
    <glyph glyph-name="glyph325" unicode="&#x1ef9;" horiz-adv-x="873" 
d="M877 1016q0 -20 -8 -43l-473 -1346q-29 -80 -99 -80q-67 0 -74 84q3 21 13 57l133 353l-326 932q-1 3 -10 47q0 80 84 80q71 0 92 -63l248 -748h4l248 752q20 63 84 63q84 0 84 -88zM758 1397q0 -65 -69 -102q-54 -28 -127 -31q-9 4 -19 4q-33 0 -98 18.5t-98 18.5
q-25 0 -130 -41q-63 30 -63 80q0 129 180 129q41 0 113 -18q95 -23 111 -23q19 0 64 20.5t69 20.5q28 0 47.5 -23.5t19.5 -52.5z" />
    <glyph glyph-name="endash" unicode="&#x2013;" horiz-adv-x="2048" 
d="M2128 549q0 -78 -76 -78h-2052q-76 0 -76 78q0 80 76 80h2052q76 0 76 -80z" />
    <glyph glyph-name="emdash" unicode="&#x2014;" horiz-adv-x="1024" 
d="M1024 549q0 -78 -84 -78h-856q-84 0 -84 78q0 80 88 80h852q84 0 84 -80z" />
    <glyph glyph-name="quoteleft" unicode="&#x2018;" horiz-adv-x="381" 
d="M365 1393q0 -39 -12 -62l-134 -256q-33 -63 -90 -63q-78 0 -78 84q0 31 17 63l133 256q29 58 84 58q80 0 80 -80z" />
    <glyph glyph-name="quoteright" unicode="&#x2019;" horiz-adv-x="381" 
d="M369 1393q0 -35 -16 -66l-130 -247q-38 -72 -83 -72q-34 0 -62 28q-25 25 -31 60q6 31 21 59l125 250q31 64 88 64q88 0 88 -76z" />
    <glyph glyph-name="quotedblleft" unicode="&#x201c;" horiz-adv-x="643" 
d="M643 1389q0 -34 -10 -53l-133 -256q-34 -64 -92 -64q-76 0 -76 80q0 26 16 59l123 254q31 64 88 64q84 0 84 -84zM353 1389q0 -28 -13 -53l-127 -256q-32 -64 -96 -64q-76 0 -76 80q0 29 15 59l124 254q31 64 93 64q80 0 80 -84z" />
    <glyph glyph-name="quotedblright" unicode="&#x201d;" horiz-adv-x="643" 
d="M643 1389q0 -34 -10 -53l-133 -256q-34 -64 -92 -64q-76 0 -76 80q0 26 16 59l123 254q31 64 88 64q84 0 84 -84zM353 1389q0 -28 -13 -53l-127 -256q-32 -64 -96 -64q-76 0 -76 80q0 29 15 59l124 254q31 64 93 64q80 0 80 -84z" />
    <glyph glyph-name="quotedblbase" unicode="&#x201e;" horiz-adv-x="643" 
d="M643 113q0 -34 -10 -53l-133 -257q-32 -59 -92 -59q-76 0 -76 80q0 22 16 55l123 252q32 66 88 66q84 0 84 -84zM353 113q0 -28 -13 -53l-127 -257q-30 -59 -96 -59q-76 0 -76 80q0 26 15 55l124 252q32 66 93 66q80 0 80 -84z" />
    <glyph glyph-name="dagger" unicode="&#x2020;" horiz-adv-x="1247" 
d="M1200 881q0 -84 -84 -84h-403v-1158q0 -80 -84 -80t-84 84v1154h-414q-80 0 -80 84t80 84h414v428q0 80 84 80t84 -80v-428h408q79 0 79 -84z" />
    <glyph glyph-name="daggerdbl" unicode="&#x2021;" horiz-adv-x="1247" 
d="M1200 105q0 -80 -79 -80h-408v-390q0 -80 -84 -80t-84 80v390h-414q-80 0 -80 80q0 88 80 88h414v643h-414q-80 0 -80 84t80 84h414v389q0 80 84 80t84 -80v-389h408q79 0 79 -84t-84 -84h-403v-643h403q84 0 84 -88z" />
    <glyph glyph-name="bullet" unicode="&#x2022;" horiz-adv-x="1024" 
d="M877 727q0 -153 -106 -257.5t-259 -104.5t-258.5 105t-105.5 257q0 155 104.5 262t259.5 107t260 -106.5t105 -262.5z" />
    <glyph glyph-name="ellipsis" unicode="&#x2026;" horiz-adv-x="2048" 
d="M1813 92q0 -42 -31.5 -73.5t-73.5 -31.5t-73 31.5t-31 73.5q0 43 30.5 74t73.5 31t74 -31t31 -74zM1129 92q0 -44 -30.5 -74.5t-74.5 -30.5q-42 0 -73 31.5t-31 73.5q0 43 30.5 74t73.5 31q44 0 74.5 -30.5t30.5 -74.5zM449 92q0 -42 -31.5 -73.5t-73.5 -31.5
q-43 0 -75.5 31t-32.5 74q0 44 32 74.5t76 30.5q43 0 74 -31t31 -74z" />
    <glyph glyph-name="perthousand" unicode="&#x2030;" horiz-adv-x="2241" 
d="M1835 -13q-141 0 -228 99q-83 94 -83 238q0 157 77 252q84 104 238 104q141 0 228 -104q82 -98 82 -242q0 -148 -82 -244q-86 -103 -232 -103zM717 1116q0 -146 -83 -239q-86 -96 -230 -96q-143 0 -229 97q-83 93 -83 238q0 155 79 252q85 105 237 105q145 0 231 -108
q78 -99 78 -249zM1121 1432q0 -19 -9 -39l-567 -1372q-20 -50 -76 -50t-69 58q7 27 16 47l565 1356q24 57 68 57q72 0 72 -57zM1428 324q0 -146 -83 -239q-85 -98 -229 -98q-141 0 -228 99q-83 95 -83 238q0 156 78 252q84 104 238 104q146 0 230 -108q77 -98 77 -248z
M2011 336q0 94 -40 159q-48 77 -136 77q-174 0 -174 -244q0 -88 39 -153q47 -76 129 -78q4 3 6 4q176 15 176 235zM580 1129q0 94 -41 157q-47 74 -135 74q-92 0 -139 -80q-38 -66 -38 -165q0 -82 43 -149q49 -77 127 -77q183 0 183 240zM1293 336q0 96 -40 158
q-47 74 -137 74q-93 0 -139 -80q-37 -65 -37 -166q0 -84 43 -148q49 -74 129 -74q181 0 181 236z" />
    <glyph glyph-name="guilsinglleft" unicode="&#x2039;" horiz-adv-x="492" 
d="M441 197q0 -29 -25.5 -48.5t-54.5 -19.5q-35 0 -64 51l-209 369l205 367q30 53 72 53q27 0 51.5 -22.5t24.5 -49.5q0 -32 -21 -65l-172 -283l176 -293q17 -27 17 -59z" />
    <glyph glyph-name="guilsinglright" unicode="&#x203a;" horiz-adv-x="492" 
d="M445 549l-205 -364q-32 -56 -72 -56q-68 0 -80 68q8 44 25 72l168 280l-176 291q-8 12 -21 53q6 72 80 72q46 0 72 -45z" />
    <glyph glyph-name="u20AB" unicode="&#x20ab;" horiz-adv-x="781" 
d="M666 487q0 -61 -61 -61q-24 0 -40.5 17t-16.5 80h-3q-48 -97 -184 -97q-147 0 -234 114q-79 103 -79 254q0 145 77 250q86 117 226 117q121 0 194 -97h3v175l-165 1q-55 0 -55 49q0 50 55 50h165v78q0 59 57 59q61 0 61 -62v-75q56 0 71 -3q38 -10 38 -47t-38 -47
q-14 -3 -71 -3v-752zM561 798q0 103 -46 176q-54 84 -151 84q-99 0 -153 -87q-45 -74 -45 -180q0 -104 44 -176q51 -86 149 -86q103 0 157 87q45 73 45 182zM610 300q0 -34 -42 -34h-413q-42 0 -42 39q0 30 39 30h416q42 0 42 -35z" />
    <glyph glyph-name="euro" unicode="&#x20ac;" 
d="M1083 199q0 -40 -25 -67q-124 -138 -357 -138q-195 0 -324 157q-111 135 -142 342h-115q-80 0 -80 68q0 69 80 69h100q-4 43 -4 86q0 60 4 114h-100q-80 0 -80 68q0 69 80 69h113q26 205 146 350q135 163 331 163q236 0 336 -150q20 -31 20 -61q0 -29 -19.5 -51
t-48.5 -22q-24 0 -76 42q-63 52 -79 60q-53 26 -140 26q-125 0 -202 -122q-61 -96 -77 -235h393q80 0 80 -69q0 -68 -80 -68h-407q-4 -58 -4 -114q0 -42 3 -86h308q80 0 80 -69q0 -68 -80 -68h-291q19 -139 80 -229q76 -113 201 -113q116 0 197.5 59t116.5 59q62 0 62 -70z
" />
    <glyph glyph-name="trademark" unicode="&#x2122;" horiz-adv-x="2028" 
d="M1913 692q0 -83 -78 -83q-80 0 -80 79v592h-4l-227 -608q-24 -63 -84 -63q-56 0 -80 63l-227 608h-4v-588q0 -83 -80 -83q-76 0 -76 83v644q0 137 123 137q109 0 143 -88l205 -529l201 533q31 84 135 84q133 0 133 -133v-648zM809 1393q0 -70 -57 -70h-203v-635
q0 -79 -84 -79t-84 79v635h-205q-59 0 -59 66q0 71 59 71h572q61 0 61 -67z" />
    <glyph glyph-name="SF370000" unicode="&#x255f;" horiz-adv-x="1252" 
d="M1237 56q0 -73 -84 -73q-67 0 -92 68l-96 265h-676l-96 -265q-24 -64 -92 -64q-84 0 -84 73q5 25 12 49l471 1259q40 109 125 109q87 0 127 -105l477 -1263q8 -22 8 -53zM912 471l-283 793h-4l-281 -793h568z" />
    <glyph glyph-name="SF420000" unicode="&#x2560;" horiz-adv-x="908" 
d="M824 80q0 -80 -89 -80h-526q-88 0 -88 97v1263q0 100 76 100h551q76 0 76 -83q0 -84 -80 -84h-445v-482h406q80 0 80 -84t-84 -84h-402v-475h449q76 0 76 -88z" />
    <glyph glyph-name="SF190000" unicode="&#x2561;" horiz-adv-x="416" 
d="M299 88q0 -101 -86 -101q-92 0 -92 97v1293q0 96 92 96q86 0 86 -96v-1289z" />
    <glyph glyph-name="SF200000" unicode="&#x2562;" horiz-adv-x="1401" 
d="M1344 719q0 -301 -167 -508q-180 -224 -472 -224q-296 0 -476 228q-165 209 -165 512q0 306 164 516q179 230 477 230q301 0 478 -232q161 -211 161 -522zM1153 737q0 240 -101 396q-120 184 -347 184q-226 0 -347 -188q-102 -159 -102 -398q0 -242 101 -400
q119 -187 348 -187q226 0 347 191q101 161 101 402z" />
    <glyph glyph-name="SF230000" unicode="&#x2563;" horiz-adv-x="1364" 
d="M1247 563q0 -275 -139 -423q-143 -153 -416 -153q-275 0 -423 148t-148 424v822q0 92 88 92q90 0 90 -92v-877q0 -171 111 -268q105 -93 279 -93q169 0 273 96q109 98 109 265v877q0 92 84 92q92 0 92 -92v-818z" />
    <glyph glyph-name="SF470000" unicode="&#x2564;" horiz-adv-x="987" 
d="M1020 1397q0 -31 -16 -57l-400 -652v-604q0 -42 -25 -71.5t-67 -29.5q-40 0 -65 32q-23 28 -23 69v604l-399 648q-25 39 -25 65q0 31 24.5 51.5t55.5 20.5q58 0 88 -49l344 -559l344 555q33 53 84 53q80 0 80 -76z" />
    <glyph glyph-name="SF480000" unicode="&#x2565;" horiz-adv-x="1141" 
d="M1020 80q0 -93 -84 -93q-66 0 -80 55q-4 15 -4 110h-4q-119 -165 -292 -165q-130 0 -243 69q-241 146 -241 485q0 358 250 501q108 62 219 62q179 0 307 -147h4q0 72 8 97q17 50 76 50q84 0 84 -92v-932zM848 545q0 165 -65 273q-79 130 -234 130q-153 0 -232 -135
q-65 -110 -65 -274q0 -156 66 -265q78 -130 223 -130q162 0 241 125q66 104 66 276z" />
    <glyph glyph-name="SF410000" unicode="&#x2566;" horiz-adv-x="1065" 
d="M1012 563q0 -88 -100 -88h-680q2 -153 90.5 -242t240.5 -89q147 0 293 112q43 33 68 33q63 0 63 -76q0 -92 -196 -177q-111 -49 -238 -49q-237 0 -374 163q-128 152 -132 395q4 7 4 10q2 32 10 97q38 241 220 372q110 80 252 80q212 0 349 -167q130 -157 130 -374z
M832 613q-3 145 -75 235q-80 100 -221 100q-143 0 -225 -99q-74 -90 -79 -236h600z" />
    <glyph glyph-name="SF450000" unicode="&#x2567;" horiz-adv-x="416" 
d="M320 1360q0 -45 -33 -79t-78 -34q-46 0 -79 33.5t-33 79.5t33 79.5t79 33.5t78.5 -33.5t32.5 -79.5zM299 80q0 -93 -90 -93q-88 0 -88 93v928q0 96 88 96q90 0 90 -92v-932z" />
    <glyph glyph-name="SF460000" unicode="&#x2568;" horiz-adv-x="416" 
d="M299 80q0 -93 -90 -93q-88 0 -88 93v932q0 92 88 92q90 0 90 -96v-928z" />
    <glyph glyph-name="SF400000" unicode="&#x2569;" 
d="M1032 545q0 -328 -225 -482q-110 -76 -254 -76q-225 0 -359 170q-122 156 -122 388q0 335 233 487q111 72 248 72q219 0 354 -174q125 -160 125 -385zM852 551q0 160 -68 269q-81 128 -231 128q-155 0 -234 -130q-67 -108 -67 -273q0 -161 66 -270q80 -131 231 -131
q157 0 237 130q66 108 66 277z" />
    <glyph glyph-name="SF540000" unicode="&#x256a;" 
d="M983 412q0 -201 -118.5 -313t-319.5 -112q-198 0 -311 113t-113 312v600q0 92 88 92q90 0 90 -92v-596q0 -272 250 -272q256 0 256 272v596q0 92 88 92q90 0 90 -92v-600z" />
    <glyph glyph-name="SF530000" unicode="&#x256b;" horiz-adv-x="873" 
d="M877 1016q0 -20 -8 -43l-473 -1346q-29 -80 -99 -80q-67 0 -74 84q3 21 13 57l133 353l-326 932q-1 3 -10 47q0 80 84 80q71 0 92 -63l248 -748h4l248 752q20 63 84 63q84 0 84 -88z" />
    <glyph glyph-name="H22073" unicode="&#x25a1;" horiz-adv-x="1252" 
d="M941 1641q0 -74 -76 -74q-19 0 -244 92q-235 -92 -252 -92q-70 0 -70 74q0 59 49 80l273 115l266 -115q54 -24 54 -80zM838 2092q0 -48 -67 -76l-240 -101q-24 -10 -66 -10q-30 0 -54.5 21t-24.5 51q0 55 79 88l242 98q20 8 47 8q33 0 58.5 -23.5t25.5 -55.5z" />
    <glyph glyph-name="H18543" unicode="&#x25aa;" horiz-adv-x="1252" 
d="M941 1641q0 -74 -76 -74q-19 0 -244 92q-235 -92 -252 -92q-70 0 -70 74q0 59 49 80l273 115l266 -115q54 -24 54 -80zM863 1976q0 -76 -88 -76q-7 0 -47 10l-260 105q-65 26 -65 76q0 34 26 59t62 25q21 0 32 -5l273 -114q67 -29 67 -80z" />
    <glyph glyph-name="H18551" unicode="&#x25ab;" horiz-adv-x="1252" 
d="M941 1641q0 -74 -76 -74q-19 0 -244 92q-235 -92 -252 -92q-70 0 -70 74q0 59 49 80l273 115l266 -115q54 -24 54 -80zM1011 2079q0 -81 -43 -132q-37 -44 -93 -53v-37q0 -33 -69 -33q-66 0 -66 33v99q0 25 64 40.5t64 73.5q0 86 -87 86q-71 0 -71 -58q0 -34 -65 -34
q-58 0 -58 36q0 74 54 126q58 56 150 56q97 0 158.5 -58.5t61.5 -144.5z" />
    <glyph glyph-name="filledrect" unicode="&#x25ac;" horiz-adv-x="1252" 
d="M941 1641q0 -74 -76 -74q-19 0 -244 92q-235 -92 -252 -92q-70 0 -70 74q0 59 49 80l273 115l266 -115q54 -24 54 -80zM1013 2044q0 -65 -69 -102q-54 -28 -127 -31q-9 4 -19 4q-33 0 -98 18.5t-98 18.5q-25 0 -130 -41q-63 30 -63 80q0 129 180 129q41 0 113 -18
q95 -23 111 -23q19 0 64 20.5t69 20.5q28 0 47.5 -23.5t19.5 -52.5z" />
    <glyph glyph-name="fi" unicode="&#xf001;" horiz-adv-x="908" 
d="M852 1360q0 -46 -31.5 -79.5t-76.5 -33.5q-47 0 -79 33.5t-32 79.5q0 47 32 80t79 33q46 0 77 -33t31 -80zM832 80q0 -93 -92 -93q-39 0 -63.5 27t-24.5 66v928q0 96 88 96q92 0 92 -92v-932zM572 1499q0 -71 -93 -71q-71 0 -87 -7q-35 -14 -35 -73v-256h114q88 0 88 -72
q0 -84 -88 -84h-114v-856q0 -93 -93 -93q-88 0 -88 93v856q-92 0 -107 3q-57 14 -57 75t58 74q15 4 106 4v260q0 101 68 163q76 68 184 68q144 0 144 -84z" />
    <glyph glyph-name="fl" unicode="&#xf002;" horiz-adv-x="908" 
d="M828 84q0 -97 -93 -97q-40 0 -64 28.5t-24 68.5v1401q0 94 88 94q93 0 93 -90v-1405zM572 1499q0 -71 -93 -71q-71 0 -87 -7q-35 -14 -35 -73v-256h114q88 0 88 -72q0 -84 -88 -84h-114v-856q0 -93 -93 -93q-88 0 -88 93v856q-92 0 -107 3q-57 14 -57 75t58 74
q15 4 106 4v260q0 101 68 163q76 68 184 68q144 0 144 -84z" />
    <glyph glyph-name="glyph216" horiz-adv-x="416" 
d="M375 -198q0 -171 -227 -171q-148 0 -148 72q0 57 39 57q18 0 54 -10t55 -10q71 0 71 55q0 41 -70 41h-8q-68 0 -73 35q8 37 76 129h108l-61 -88q49 8 45 8q53 0 94 -32q45 -34 45 -86z" />
    <glyph glyph-name="HT" horiz-adv-x="416" 
d="M450 1409q0 -81 -43 -132q-37 -44 -93 -53v-37q0 -33 -69 -33q-66 0 -66 33v99q0 25 64 40.5t64 73.5q0 86 -87 86q-71 0 -71 -58q0 -34 -65 -34q-58 0 -58 36q0 74 54 126q58 56 150 56q97 0 158.5 -58.5t61.5 -144.5z" />
    <glyph glyph-name="nonmarkingreturn" horiz-adv-x="1141" 
d="M890 1313q0 -74 -76 -74q-19 0 -244 92q-235 -92 -252 -92q-70 0 -70 74q0 59 49 80l273 115l266 -115q54 -24 54 -80zM787 1764q0 -48 -67 -76l-240 -101q-24 -10 -66 -10q-30 0 -54.5 21t-24.5 51q0 55 79 88l242 98q20 8 47 8q33 0 58.5 -23.5t25.5 -55.5z" />
    <glyph glyph-name="glyph217" horiz-adv-x="1141" 
d="M890 1313q0 -74 -76 -74q-19 0 -244 92q-235 -92 -252 -92q-70 0 -70 74q0 59 49 80l273 115l266 -115q54 -24 54 -80zM811 1649q0 -76 -88 -76q-7 0 -47 10l-260 105q-65 26 -65 76q0 34 26 59t62 25q21 0 32 -5l273 -114q67 -29 67 -80z" />
    <glyph glyph-name="glyph237" horiz-adv-x="1141" 
d="M890 1313q0 -74 -76 -74q-19 0 -244 92q-235 -92 -252 -92q-70 0 -70 74q0 59 49 80l273 115l266 -115q54 -24 54 -80zM960 1752q0 -81 -43 -132q-37 -44 -93 -53v-37q0 -33 -69 -33q-66 0 -66 33v99q0 25 64 40.5t64 73.5q0 86 -87 86q-71 0 -71 -58q0 -34 -65 -34
q-58 0 -58 36q0 74 54 126q58 56 150 56q97 0 158.5 -58.5t61.5 -144.5z" />
    <glyph glyph-name="glyph218" horiz-adv-x="1141" 
d="M890 1313q0 -74 -76 -74q-19 0 -244 92q-235 -92 -252 -92q-70 0 -70 74q0 59 49 80l273 115l266 -115q54 -24 54 -80zM962 1716q0 -65 -69 -102q-54 -28 -127 -31q-9 4 -19 4q-33 0 -98 18.5t-98 18.5q-25 0 -130 -41q-63 30 -63 80q0 129 180 129q41 0 113 -18
q95 -23 111 -23q19 0 64 20.5t69 20.5q28 0 47.5 -23.5t19.5 -52.5z" />
    <glyph glyph-name="glyph219" horiz-adv-x="1141" 
d="M845 1428q0 -88 -97 -147q-84 -52 -178 -52q-140 0 -233 97q-44 46 -44 102q0 75 64 75q22 0 72 -42l70 -60q21 -16 71 -16q62 0 126.5 59t88.5 59q60 0 60 -75zM842 1764q0 -48 -67 -76l-240 -101q-24 -10 -66 -10q-30 0 -54.5 21t-24.5 51q0 55 79 88l242 98q20 8 47 8
q33 0 58.5 -23.5t25.5 -55.5z" />
    <glyph glyph-name="glyph240" horiz-adv-x="1141" 
d="M845 1428q0 -88 -97 -147q-84 -52 -178 -52q-140 0 -233 97q-44 46 -44 102q0 75 64 75q22 0 72 -42l70 -60q21 -16 71 -16q62 0 126.5 59t88.5 59q60 0 60 -75zM751 1649q0 -76 -88 -76q-7 0 -47 10l-260 105q-65 26 -65 76q0 34 26 59t62 25q21 0 32 -5l273 -114
q67 -29 67 -80z" />
    <glyph glyph-name="glyph224" horiz-adv-x="1141" 
d="M845 1428q0 -88 -97 -147q-84 -52 -178 -52q-140 0 -233 97q-44 46 -44 102q0 75 64 75q22 0 72 -42l70 -60q21 -16 71 -16q62 0 126.5 59t88.5 59q60 0 60 -75zM778 1752q0 -81 -43 -132q-37 -44 -93 -53v-37q0 -33 -69 -33q-66 0 -66 33v99q0 25 64 40.5t64 73.5
q0 86 -87 86q-71 0 -71 -58q0 -34 -65 -34q-58 0 -58 36q0 74 54 126q58 56 150 56q97 0 158.5 -58.5t61.5 -144.5z" />
    <glyph glyph-name="glyph225" horiz-adv-x="1141" 
d="M845 1428q0 -88 -97 -147q-84 -52 -178 -52q-140 0 -233 97q-44 46 -44 102q0 75 64 75q22 0 72 -42l70 -60q21 -16 71 -16q62 0 126.5 59t88.5 59q60 0 60 -75zM962 1716q0 -65 -69 -102q-54 -28 -127 -31q-9 4 -19 4q-33 0 -98 18.5t-98 18.5q-25 0 -130 -41
q-63 30 -63 80q0 129 180 129q41 0 113 -18q95 -23 111 -23q19 0 64 20.5t69 20.5q28 0 47.5 -23.5t19.5 -52.5z" />
    <glyph glyph-name="glyph221" horiz-adv-x="492" 
 />
    <glyph glyph-name="glyph223" horiz-adv-x="492" 
 />
    <glyph glyph-name="glyph222" horiz-adv-x="492" 
 />
    <glyph glyph-name="glyph220" horiz-adv-x="492" 
 />
  </font>
</defs>
</svg>
