<?xml version="1.0" standalone="no"?>
<!DOCTYPE svg PUBLIC "-//W3C//DTD SVG 1.1//EN" "http://www.w3.org/Graphics/SVG/1.1/DTD/svg11.dtd" >
<svg xmlns="http://www.w3.org/2000/svg" xmlns:xlink="http://www.w3.org/1999/xlink" version="1.1">
<metadata>
Created by FontForge 20170731 at Sat Nov 23 07:04:22 2013
 By Aleksey,,,
(c) Copyright 2001 by Tom Truong. All Rights Reserved
</metadata>
<defs>
<font id="UVNVanBold" horiz-adv-x="1233" >
  <font-face 
    font-family="UVN Van"
    font-weight="700"
    font-stretch="normal"
    units-per-em="2048"
    panose-1="0 0 7 0 0 0 0 0 0 0"
    ascent="1638"
    descent="-410"
    x-height="1090"
    cap-height="1475"
    bbox="-92 -503 2048 2432"
    underline-thickness="209"
    underline-position="-537"
    unicode-range="U+000D-E000"
  />
<missing-glyph horiz-adv-x="748" 
d="M68 0v1365h544v-1365h-544zM136 68h408v1229h-408v-1229z" />
    <glyph glyph-name=".notdef" horiz-adv-x="748" 
d="M68 0v1365h544v-1365h-544zM136 68h408v1229h-408v-1229z" />
    <glyph glyph-name="glyph1" horiz-adv-x="2048" 
 />
    <glyph glyph-name="glyph1" horiz-adv-x="2048" 
 />
    <glyph glyph-name="uni000D" unicode="&#xd;" horiz-adv-x="664" 
 />
    <glyph glyph-name="space" unicode=" " horiz-adv-x="664" 
 />
    <glyph glyph-name="exclam" unicode="!" horiz-adv-x="606" 
d="M125 137q0 75 51.5 126.5t126.5 51.5q74 0 126 -52t52 -126t-52 -127t-126 -53q-75 0 -126.5 52.5t-51.5 127.5zM143 662v602q0 233 160 233t160 -233v-602q0 -236 -160 -236t-160 236z" />
    <glyph glyph-name="quotedbl" unicode="&#x22;" horiz-adv-x="678" 
d="M80 879v559h192v-559h-192zM406 879v559h192v-559h-192z" />
    <glyph glyph-name="numbersign" unicode="#" horiz-adv-x="1575" 
d="M45 406l76 200h282l86 242h-299l74 201h297l148 415h221l-146 -415h242l148 415h221l-148 -415h283l-74 -201h-280l-84 -242h290l-71 -200h-291l-148 -416h-221l148 416h-244l-149 -416h-220l146 416h-287zM621 604h251l86 244h-249z" />
    <glyph glyph-name="dollar" unicode="$" horiz-adv-x="1128" 
d="M51 195q0 70 48 111q44 38 116 38q35 0 155 -37t199 -37q68 0 116 41.5t48 108.5t-48 111q-45 41 -206 90q-201 61 -288 133q-123 101 -123 280t115 301q108 115 288 152v102q0 111 82 111t82 -111v-94q131 -10 224 -51q134 -59 134 -164q0 -141 -149 -141
q-44 0 -129.5 25.5t-130.5 25.5q-66 0 -110 -29q-52 -33 -52 -96q0 -88 194 -150q225 -72 325 -151q146 -117 146 -313t-129 -331q-126 -130 -323 -153v-135q0 -113 -82 -113t-82 113v129q-146 14 -257 59q-163 66 -163 175z" />
    <glyph glyph-name="percent" unicode="%" horiz-adv-x="1432" 
d="M20 1149q0 135 90 230.5t224 95.5q133 0 223 -96t90 -230t-90 -230t-223 -96q-135 0 -224.5 95t-89.5 231zM229 1149q0 -44 30.5 -76.5t74.5 -32.5t75 32.5t31 76.5q0 45 -30.5 76.5t-75.5 31.5t-75 -31.5t-30 -76.5zM231 84q0 52 31 106l676 1180q66 115 143 115
q50 0 83.5 -32.5t33.5 -82.5q0 -47 -35 -108l-674 -1180q-67 -117 -143 -117q-50 0 -82.5 34.5t-32.5 84.5zM784 307q0 135 90 230.5t224 95.5q133 0 223 -96t90 -230t-89 -228q-91 -97 -224 -97q-135 0 -225 96q-89 93 -89 229zM993 307q0 -44 30.5 -76t74.5 -32t74 32
t30 76q0 45 -29.5 77t-74.5 32t-75 -32t-30 -77z" />
    <glyph glyph-name="ampersand" unicode="&#x26;" horiz-adv-x="1403" 
d="M41 408q0 284 336 448q-139 149 -139 299q0 162 134 257q118 85 287 85q172 0 291 -90q131 -99 131 -266q0 -224 -247 -373l198 -236q77 95 104 122q76 75 134 75q54 0 89.5 -41t35.5 -96q0 -95 -185 -266q127 -147 127 -217q0 -60 -39.5 -100t-99.5 -40q-80 0 -209 152
q-178 -164 -461 -164q-205 0 -343 122q-144 127 -144 329zM371 414q0 -86 54.5 -138.5t141.5 -52.5q127 0 252 111l-268 307q-180 -83 -180 -227zM541 1147q0 -78 114 -182q162 66 162 176q0 52 -46 90q-44 35 -97 35t-92 -32q-41 -35 -41 -87z" />
    <glyph glyph-name="quotesingle" unicode="'" horiz-adv-x="352" 
d="M80 879v559h192v-559h-192z" />
    <glyph glyph-name="parenleft" unicode="(" horiz-adv-x="664" 
d="M143 666q0 189 33 374q23 128 64 260q56 176 111 233q40 42 91 42q127 0 127 -127q0 -8 -73.5 -268t-73.5 -514q0 -257 73.5 -516t73.5 -267q0 -127 -127 -127q-47 0 -86 35q-55 51 -111 222q-41 124 -64 249q-38 198 -38 404z" />
    <glyph glyph-name="parenright" unicode=")" horiz-adv-x="664" 
d="M94 -117q0 10 74 270t74 513q0 255 -74 514.5t-74 267.5q0 127 127 127q48 0 87 -35q104 -95 175 -469q37 -200 37 -405q0 -187 -33 -371q-23 -127 -64 -262q-56 -178 -109 -234q-42 -43 -93 -43q-127 0 -127 127z" />
    <glyph glyph-name="asterisk" unicode="*" horiz-adv-x="1024" 
d="M160 965q0 72 194 141q-194 68 -194 141q0 40 27.5 71.5t66.5 31.5q38 0 94 -39q42 -33 84 -65q-1 12 -12 70q-8 43 -8 70q0 111 100 111q102 0 102 -108q0 -28 -9 -72q-11 -57 -13 -71q42 32 83 65q56 39 95 39t66.5 -31.5t27.5 -71.5q0 -57 -72 -96q-26 -14 -122 -45
q96 -32 122 -46q72 -38 72 -95q0 -40 -27.5 -71.5t-66.5 -31.5q-37 0 -94 40l-84 66q2 -13 13 -71q9 -44 9 -72q0 -110 -102 -110q-100 0 -100 110q0 28 8 72q11 60 12 71q-42 -33 -83 -66q-55 -40 -95 -40q-39 0 -66.5 31.5t-27.5 71.5z" />
    <glyph glyph-name="plus" unicode="+" horiz-adv-x="1706" 
d="M254 512v199h498v510h202v-510h498v-199h-498v-512h-202v512h-498z" />
    <glyph glyph-name="comma" unicode="," horiz-adv-x="473" 
d="M-72 -178q0 42 33 102l162 295q62 113 143 113q56 0 95.5 -36t39.5 -91q0 -47 -32 -105l-162 -295q-62 -112 -144 -112q-55 0 -95 37t-40 92z" />
    <glyph glyph-name="hyphen" unicode="-" horiz-adv-x="877" 
d="M70 569q0 140 161 140h416q160 0 160 -142q0 -139 -162 -139h-416q-159 0 -159 141z" />
    <glyph glyph-name="period" unicode="." horiz-adv-x="473" 
d="M51 172q0 78 54.5 132t132.5 54q77 0 130.5 -54.5t53.5 -131.5q0 -78 -53 -132t-131 -54q-79 0 -133 53.5t-54 132.5z" />
    <glyph glyph-name="slash" unicode="/" horiz-adv-x="758" 
d="M-92 82q0 43 29 98l636 1202q63 119 144 119q56 0 95.5 -36t39.5 -91q0 -41 -31 -100l-635 -1202q-63 -119 -143 -119q-56 0 -95.5 37t-39.5 92z" />
    <glyph glyph-name="zero" unicode="0" horiz-adv-x="1327" 
d="M57 727q0 321 139 528q162 242 468 242t469 -241q139 -208 139 -529t-139 -529q-163 -241 -469 -241t-468 242q-139 207 -139 528zM403 729q0 -174 48 -295q68 -170 215 -170t214 170q48 121 48 295q0 172 -48 294q-68 169 -214 169q-147 0 -215 -169q-48 -121 -48 -294z
" />
    <glyph glyph-name="one" unicode="1" horiz-adv-x="735" 
d="M-27 1303q0 153 236 153h166q109 0 153 -66q35 -53 35 -169v-1000q0 -235 -168 -235t-168 235v928q-254 0 -254 154z" />
    <glyph glyph-name="two" unicode="2" horiz-adv-x="1071" 
d="M8 154q0 62 164 248q152 172 305 344q164 202 164 303q0 58 -34 98.5t-91 40.5q-49 0 -90 -38q-34 -31 -66 -110q-36 -90 -56 -116q-40 -54 -107 -54q-75 0 -119.5 47.5t-44.5 122.5q0 61 28 137q55 146 181.5 233t283.5 87q200 0 330 -115q137 -120 137 -317
q0 -142 -98 -297.5t-406 -460.5h306q235 0 235 -153q0 -154 -235 -154h-588q-199 0 -199 154z" />
    <glyph glyph-name="three" unicode="3" horiz-adv-x="1110" 
d="M0 360q0 69 41 113.5t109 44.5q80 0 161 -112q101 -140 203 -140q77 0 127 56q49 53 49 131q0 89 -65 129q-41 25 -146 43q-74 13 -104 42q-35 33 -35 105q0 76 46 110q24 16 103 38q73 21 105 53q37 37 37 94q0 125 -119 125q-63 0 -163.5 -91t-164.5 -91q-57 0 -97 41
t-40 98q0 129 144 238.5t327 109.5q180 0 305 -107q131 -113 131 -290q0 -179 -166 -299q242 -126 242 -373q0 -211 -157 -345q-148 -126 -363 -126q-90 0 -172 28q-122 42 -223 144q-115 116 -115 231z" />
    <glyph glyph-name="four" unicode="4" horiz-adv-x="1276" 
d="M6 442q0 68 78 191l434 686q100 158 246 158q135 0 203 -105q57 -88 57 -231v-535h49q75 0 123 -31q57 -37 57 -108q0 -96 -72 -130q-49 -24 -157 -24q0 -16 1 -51.5t1 -54.5q0 -104 -27 -155q-38 -70 -137 -70q-141 0 -141 188v143h-514q-201 0 -201 129zM379 606h342
v557z" />
    <glyph glyph-name="five" unicode="5" horiz-adv-x="1053" 
d="M-25 248q0 62 38.5 104.5t99.5 42.5q37 0 144.5 -62.5t178.5 -62.5q89 0 148 66t59 156t-46 145q-49 59 -138 59q-42 0 -122.5 -25.5t-121.5 -25.5q-129 0 -129 143q0 32 10 113l47 379q13 106 62 143q44 33 155 33h404q213 0 213 -153q0 -152 -201 -152h-342l-22 -176
q76 18 141 18q197 0 321 -145q117 -137 117 -338q0 -242 -154.5 -397.5t-396.5 -155.5q-189 0 -327 88.5t-138 202.5z" />
    <glyph glyph-name="six" unicode="6" horiz-adv-x="1147" 
d="M45 483q0 156 86 344q84 185 254 396q224 278 328 278q63 0 111 -45.5t48 -107.5q0 -59 -119 -193q-125 -140 -183 -225q82 10 116 10q184 0 304 -145q112 -136 112 -324q0 -224 -162 -371q-157 -143 -383 -143q-227 0 -371 150q-141 147 -141 376zM383 467
q0 -81 54 -142t134 -61q81 0 136 62q53 59 53 141q0 81 -54 141t-135 60q-80 0 -134 -60t-54 -141z" />
    <glyph glyph-name="seven" unicode="7" horiz-adv-x="963" 
d="M-29 1298q0 158 199 158h545q241 0 241 -182q0 -52 -34 -125l-153 -329q144 -10 144 -142q0 -139 -162 -139h-112l-197 -426q-72 -156 -174 -156q-72 0 -122 45.5t-50 116.5q0 52 45 145l133 275h-94q-159 0 -159 141q0 140 161 140h229l160 331h-376q-105 0 -153 22
q-71 33 -71 125z" />
    <glyph glyph-name="eight" unicode="8" horiz-adv-x="1118" 
d="M31 432q0 240 194 365q-133 117 -133 290q0 186 144 302q133 108 323 108t323 -108q144 -116 144 -302q0 -173 -133 -290q194 -127 194 -365q0 -215 -159 -349q-151 -126 -369 -126t-369 126q-159 134 -159 349zM362 463q0 -85 56.5 -147t140.5 -62q85 0 142 63
q55 60 55 146t-56 148.5t-141 62.5q-84 0 -140.5 -63t-56.5 -148zM408 1057q0 -61 45 -107.5t106 -46.5q64 0 108 45t44 109t-44 109.5t-108 45.5q-62 0 -106.5 -46t-44.5 -109z" />
    <glyph glyph-name="nine" unicode="9" horiz-adv-x="1147" 
d="M45 979q0 227 160 375q156 145 385 145q228 0 369 -147.5t141 -376.5q0 -157 -86 -345t-254 -397q-224 -278 -326 -278q-63 0 -111.5 46.5t-48.5 109.5q0 58 120 193q125 139 184 224q-83 -10 -107 -10q-187 0 -309 139q-117 132 -117 322zM387 991q0 -82 53.5 -141
t134.5 -59t135 59.5t54 140.5q0 82 -54 141.5t-135 59.5q-80 0 -134 -60t-54 -141z" />
    <glyph glyph-name="colon" unicode=":" horiz-adv-x="473" 
d="M51 172q0 78 54.5 132t132.5 54q77 0 130.5 -54.5t53.5 -131.5q0 -78 -53 -132t-131 -54q-79 0 -133 53.5t-54 132.5zM51 793q0 77 54.5 130.5t132.5 53.5q77 0 130.5 -53.5t53.5 -130.5q0 -78 -53 -132.5t-131 -54.5q-79 0 -133 54t-54 133z" />
    <glyph glyph-name="semicolon" unicode=";" horiz-adv-x="473" 
d="M-72 -178q0 42 33 102l162 295q62 113 143 113q56 0 95.5 -36t39.5 -91q0 -47 -32 -105l-162 -295q-62 -112 -144 -112q-55 0 -95 37t-40 92zM51 793q0 77 54.5 130.5t132.5 53.5q77 0 130.5 -53.5t53.5 -130.5q0 -78 -53 -132.5t-131 -54.5q-79 0 -133 54t-54 133z" />
    <glyph glyph-name="less" unicode="&#x3c;" horiz-adv-x="1706" 
d="M264 512v199l1178 483v-219l-893 -365l893 -364v-219z" />
    <glyph glyph-name="equal" unicode="=" horiz-adv-x="1706" 
d="M254 297v199h1198v-199h-1198zM254 727v199h1198v-199h-1198z" />
    <glyph glyph-name="greater" unicode="&#x3e;" horiz-adv-x="1706" 
d="M264 27v219l895 364l-895 365v219l1178 -483v-199z" />
    <glyph glyph-name="question" unicode="?" horiz-adv-x="1042" 
d="M10 1124q0 140 145 253.5t343 113.5q205 0 345 -125q146 -130 146 -332q0 -167 -96.5 -283t-261.5 -147q0 -207 -160 -207q-156 0 -156 187v129q0 57 16 86q21 38 105 61q107 29 137 49q68 44 68 140q0 57 -42.5 96t-100.5 39q-96 0 -196.5 -104.5t-158.5 -104.5
q-61 0 -98 45q-35 42 -35 104zM293 137q0 75 52 126.5t128 51.5q74 0 126 -52t52 -126t-52 -127t-126 -53q-75 0 -127.5 52.5t-52.5 127.5z" />
    <glyph glyph-name="at" unicode="@" horiz-adv-x="2048" 
d="M90 520q0 285 151.5 518t411.5 350q208 93 463 93q349 0 585 -180q259 -199 259 -537q0 -165 -65 -304q-74 -157 -207 -252q-141 -102 -306 -102q-211 0 -215 166q-107 -163 -297 -163q-323 0 -323 340q0 225 127 387q137 176 356 176q160 0 236 -131l53 98h178
l-147 -598q-7 -28 -7 -41q0 -70 95 -70q79 0 161 76q175 163 175 422q0 261 -207 413q-186 136 -457 136q-141 0 -262 -34q-258 -72 -416 -282.5t-158 -478.5q0 -323 223 -505q207 -169 537 -169q331 0 604 191l82 -117q-307 -231 -682 -231q-400 0 -663 210
q-285 228 -285 619zM760 444q0 -188 158 -188q83 0 151.5 62.5t93.5 164.5l54 217q-27 166 -175 166q-113 0 -197.5 -123.5t-84.5 -298.5z" />
    <glyph glyph-name="A" unicode="A" horiz-adv-x="1280" 
d="M0 137q0 53 16 96l379 1029q79 215 254 215q176 0 244 -193l369 -1046q22 -62 22 -105q0 -71 -46.5 -113.5t-117.5 -42.5q-125 0 -174 162l-41 135h-538l-50 -147q-51 -150 -159 -150q-69 0 -113.5 45.5t-44.5 114.5zM461 580h348l-168 540z" />
    <glyph glyph-name="B" unicode="B" horiz-adv-x="1262" 
d="M129 209v1014q0 129 50 181t179 52h273q196 0 315 -81q139 -94 139 -281q0 -209 -180 -287q295 -72 295 -369q0 -221 -153 -336q-137 -102 -365 -102h-328q-125 0 -173 41q-52 45 -52 168zM461 285h166q225 0 225 164q0 163 -231 163h-160v-327zM461 889h139q69 0 115 35
q49 39 49 106q0 70 -50 109q-46 35 -118 35h-135v-285z" />
    <glyph glyph-name="C" unicode="C" 
d="M57 727q0 328 193 545q200 225 524 225q186 0 311 -70.5t125 -162.5q0 -59 -41 -104.5t-100 -45.5q-36 0 -136.5 28.5t-156.5 28.5q-179 0 -275 -142q-83 -122 -83 -310t88 -307q98 -133 280 -133q75 0 178 37.5t132 37.5q54 0 93.5 -45t39.5 -100q0 -102 -131.5 -177
t-327.5 -75q-332 0 -527 221q-186 212 -186 549z" />
    <glyph glyph-name="D" unicode="D" horiz-adv-x="1427" 
d="M129 209v1014q0 129 50 181t179 52h267q137 0 246 -25q233 -55 369 -253q128 -187 128 -435q0 -339 -185 -538q-190 -205 -526 -205h-303q-125 0 -173 41q-52 45 -52 168zM461 307h151q396 0 396 438q0 402 -402 402h-145v-840z" />
    <glyph glyph-name="E" unicode="E" horiz-adv-x="1034" 
d="M129 209v1014q0 130 50 181.5t179 51.5h373q236 0 236 -156q0 -153 -236 -153h-270v-260h233q236 0 236 -154q0 -153 -236 -153h-233v-273h280q236 0 236 -153q0 -154 -236 -154h-387q-125 0 -173 41q-52 45 -52 168z" />
    <glyph glyph-name="F" unicode="F" horiz-adv-x="999" 
d="M129 217v1006q0 130 50 181.5t179 51.5h373q236 0 236 -156q0 -153 -236 -153h-270v-260h233q236 0 236 -154q0 -153 -236 -153h-233v-363q0 -235 -166 -235t-166 235z" />
    <glyph glyph-name="G" unicode="G" horiz-adv-x="1479" 
d="M57 729q0 347 193 556q198 214 543 214q225 0 380.5 -92.5t155.5 -210.5q0 -60 -41 -108t-100 -48q-27 0 -166 71t-240 71q-184 0 -281 -136q-85 -120 -85 -311t84 -316q98 -145 280 -145q133 0 212.5 79.5t82.5 213.5q-13 0 -46 -1h-51q-253 0 -253 155q0 156 233 156
h244q121 0 176.5 -51t55.5 -171q0 -310 -184 -502q-188 -196 -496 -196q-322 0 -515 229q-182 215 -182 543z" />
    <glyph glyph-name="H" unicode="H" horiz-adv-x="1532" 
d="M129 217v1022q0 236 166 236t166 -236v-344h610v344q0 236 166 236t166 -236v-1022q0 -235 -166 -235t-166 235v371h-610v-371q0 -235 -166 -235t-166 235z" />
    <glyph glyph-name="I" unicode="I" horiz-adv-x="606" 
d="M137 217v1022q0 236 166 236t166 -236v-1022q0 -235 -166 -235t-166 235z" />
    <glyph glyph-name="J" unicode="J" horiz-adv-x="918" 
d="M-14 201q0 68 42.5 110.5t110.5 42.5q40 0 111 -36.5t100 -36.5q75 0 98 106q11 48 11 164v688q0 236 166 236t166 -236v-795q0 -483 -426 -483q-134 0 -243 53q-136 67 -136 187z" />
    <glyph glyph-name="K" unicode="K" horiz-adv-x="1262" 
d="M129 217v1022q0 236 166 236t166 -236v-360l422 477q101 114 172 114q61 0 105 -45t44 -106q0 -76 -84 -164l-358 -373l444 -483q84 -91 84 -164q0 -60 -46 -106.5t-107 -46.5q-74 0 -179 116l-497 549v-430q0 -235 -166 -235t-166 235z" />
    <glyph glyph-name="L" unicode="L" horiz-adv-x="944" 
d="M129 209v1030q0 236 166 236t166 -236v-932h280q236 0 236 -153q0 -154 -236 -154h-387q-125 0 -173 41q-52 45 -52 168z" />
    <glyph glyph-name="M" unicode="M" horiz-adv-x="1767" 
d="M31 154q0 33 12 100l178 993q20 112 65 165q54 63 160 63q182 0 232 -197l221 -870l207 872q46 195 227 195q111 0 168 -67q47 -55 66 -173l162 -1002q8 -49 8 -79q0 -79 -45 -126.5t-123 -47.5q-141 0 -164 194l-105 870q-99 -427 -121 -514q-104 -423 -149 -491
q-39 -59 -139 -59q-155 0 -195 167l-215 897l-114 -849q-29 -215 -174 -215q-76 0 -120 50q-42 47 -42 124z" />
    <glyph glyph-name="N" unicode="N" horiz-adv-x="1532" 
d="M129 217v1034q0 222 154 222q95 0 176 -107l612 -809v682q0 236 166 236t166 -236v-1059q0 -207 -152 -207q-98 0 -190 121l-600 793v-670q0 -235 -166 -235t-166 235z" />
    <glyph glyph-name="O" unicode="O" horiz-adv-x="1546" 
d="M57 727q0 336 187 548q197 222 528 222q332 0 529 -222q188 -212 188 -548q0 -337 -188 -549q-196 -221 -529 -221t-528 221q-187 212 -187 549zM418 723q0 -185 82 -307q96 -142 272 -142t272 142q82 122 82 307q0 189 -80 313q-94 146 -274 146t-274 -146
q-80 -124 -80 -313z" />
    <glyph glyph-name="P" unicode="P" horiz-adv-x="1241" 
d="M129 217v1006q0 130 50 181.5t179 51.5h299q239 0 383 -126q150 -133 150 -369q0 -235 -135 -364.5t-371 -129.5h-223v-250q0 -235 -166 -235t-166 235zM461 768h143q227 0 227 193q0 190 -227 190h-143v-383z" />
    <glyph glyph-name="Q" unicode="Q" horiz-adv-x="1546" 
d="M57 727q0 335 187 548q197 222 528 222q332 0 529 -222q188 -212 188 -548q0 -260 -133 -469q110 -101 112 -104q62 -68 62 -134q0 -58 -41.5 -100.5t-99.5 -42.5q-63 0 -140 62l-116 108q-147 -90 -361 -90q-333 0 -528 221q-187 212 -187 549zM418 723q0 -187 83 -309
q96 -140 275 -140q54 0 107 21q-92 80 -92 151q0 57 35.5 96.5t91.5 39.5q66 0 165 -97q43 115 43 238q0 189 -80 313q-94 146 -274 146t-274 -146q-80 -124 -80 -313z" />
    <glyph glyph-name="R" unicode="R" horiz-adv-x="1223" 
d="M129 217v1006q0 130 50 181.5t179 51.5h258q238 0 386 -106q169 -121 169 -349q0 -160 -96 -264q-92 -102 -252 -129l262 -291q99 -110 99 -190q0 -67 -45.5 -111.5t-112.5 -44.5q-83 0 -178 119l-387 485v-358q0 -235 -166 -235t-166 235zM461 797h153q211 0 211 180
q0 174 -207 174h-157v-354z" />
    <glyph glyph-name="S" unicode="S" horiz-adv-x="1128" 
d="M51 195q0 71 48 111q44 38 116 38q35 0 155 -37t199 -37q68 0 116 41.5t48 108.5t-48 111q-44 41 -206 90q-201 61 -288 133q-123 101 -123 280q0 216 159 344q147 117 369 117q135 0 246 -43q151 -59 151 -172q0 -141 -149 -141q-44 0 -129.5 25.5t-130.5 25.5
q-66 0 -110 -29q-52 -33 -52 -96q0 -88 194 -150q225 -72 325 -151q146 -117 146 -313q0 -233 -170 -367q-156 -123 -395 -123q-197 0 -334 70.5t-137 163.5z" />
    <glyph glyph-name="T" unicode="T" horiz-adv-x="967" 
d="M-41 1300q0 156 236 156h577q236 0 236 -156q0 -155 -261 -155q-20 0 -52.5 1t-45.5 1v-930q0 -235 -166 -235t-166 235v930q-13 0 -46 -1t-52 -1q-260 0 -260 155z" />
    <glyph glyph-name="U" unicode="U" horiz-adv-x="1507" 
d="M129 625v614q0 236 166 236t166 -236v-577q0 -388 293 -388t293 388v577q0 236 165 236q166 0 166 -236v-614q0 -308 -156 -483q-164 -185 -468 -185q-305 0 -469 184q-156 176 -156 484z" />
    <glyph glyph-name="V" unicode="V" horiz-adv-x="1180" 
d="M-27 1305q0 73 49.5 119t122.5 46q99 0 152 -143l307 -827l285 815q27 77 55 109q40 46 109 46q161 0 161 -153q0 -59 -22 -115l-430 -1093q-54 -138 -168 -138q-108 0 -158 125l-444 1114q-19 48 -19 95z" />
    <glyph glyph-name="W" unicode="W" horiz-adv-x="1872" 
d="M14 1327q0 71 49 112q47 38 119 38q133 0 160 -146l174 -925l242 929q36 140 184 140q143 0 180 -144l238 -925l174 903q32 166 168 166q70 0 117 -42.5t47 -111.5q0 -46 -13 -98l-254 -1022q-29 -118 -68 -162q-51 -57 -161 -57q-172 0 -221 186l-217 831l-205 -813
q-51 -204 -240 -204q-103 0 -158 61q-44 49 -69 158l-242 1053q-4 17 -4 73z" />
    <glyph glyph-name="X" unicode="X" horiz-adv-x="1186" 
d="M-29 127q0 65 74 168l354 493l-266 373q-74 104 -74 164q0 67 47 108.5t115 41.5q79 0 170 -127l205 -287l209 291q90 125 176 125q55 0 100 -44.5t45 -99.5q0 -66 -73 -167l-269 -373l355 -500q75 -106 75 -168q0 -58 -46 -100.5t-105 -42.5q-92 0 -180 124l-295 414
l-293 -411q-91 -127 -174 -127q-57 0 -103.5 44t-46.5 101z" />
    <glyph glyph-name="Y" unicode="Y" horiz-adv-x="1057" 
d="M-39 1329q0 64 49 106q46 40 111 40q81 0 170 -127l248 -355l252 359q88 125 178 125q55 0 100 -44.5t45 -99.5q0 -60 -76 -168l-336 -479v-469q0 -235 -165 -235q-166 0 -166 235v469l-336 475q-74 105 -74 168z" />
    <glyph glyph-name="Z" unicode="Z" horiz-adv-x="1090" 
d="M-12 166q0 79 92 201l594 788h-428q-236 0 -236 150q0 151 236 151h563q285 0 285 -162q0 -72 -97 -203l-579 -784h469q235 0 235 -153q0 -154 -235 -154h-666q-233 0 -233 166z" />
    <glyph glyph-name="bracketleft" unicode="[" horiz-adv-x="664" 
d="M119 -94v1401q0 130 50 181.5t179 51.5h148q157 0 157 -108q0 -112 -178 -112h-42q-26 1 -36 1v-1405q128 0 159 -7q97 -20 97 -104q0 -108 -159 -108h-148q-125 0 -174 41q-53 45 -53 168z" />
    <glyph glyph-name="backslash" unicode="\" horiz-adv-x="758" 
d="M-92 1374q0 55 39.5 91t95.5 36q80 0 143 -119l635 -1202q31 -59 31 -98q0 -55 -40.5 -92t-96.5 -37q-81 0 -144 119l-634 1202q-29 55 -29 100z" />
    <glyph glyph-name="bracketright" unicode="]" horiz-adv-x="664" 
d="M10 -195q0 84 97 104q31 7 159 7v1405q-10 0 -36 -1h-40q-180 0 -180 112q0 108 158 108h147q129 0 179.5 -51.5t50.5 -181.5v-1401q0 -123 -52 -168q-48 -41 -174 -41h-149q-160 0 -160 108z" />
    <glyph glyph-name="asciicircum" unicode="^" horiz-adv-x="2048" 
d="M416 899l481 561h252l481 -561h-235l-371 371l-373 -371h-235z" />
    <glyph glyph-name="underscore" unicode="_" horiz-adv-x="1024" 
d="M0 -279h1024v-204h-1024v204z" />
    <glyph glyph-name="grave" unicode="`" horiz-adv-x="1024" 
d="M242 1528q0 56 36.5 91.5t92.5 35.5q68 0 116 -66l150 -205q35 -48 35 -90q0 -112 -111 -112q-53 0 -110 63l-156 172q-53 58 -53 111z" />
    <glyph glyph-name="a" unicode="a" 
d="M47 545q0 229 135 394q144 177 367 177q163 0 258 -115q56 103 154 103q159 0 159 -234v-649q0 -235 -159 -235q-104 0 -154 112q-100 -123 -270 -123q-222 0 -362 178q-128 164 -128 392zM381 549q0 -107 49 -180q57 -84 160 -84q101 0 158 85q49 74 49 179
q0 103 -51 176q-57 82 -156 82q-101 0 -158 -81q-51 -72 -51 -177z" />
    <glyph glyph-name="b" unicode="b" 
d="M111 221v1106q0 236 161 236q162 0 162 -236v-295q106 92 254 92q225 0 366 -181q130 -166 130 -398q0 -234 -147 -399.5t-349 -165.5q-164 0 -262 110q-60 -104 -154 -104q-161 0 -161 235zM428 551q0 -109 50 -184q58 -86 163 -86q103 0 162 87q51 75 51 183
q0 110 -50 186q-59 88 -163 88q-105 0 -163 -88q-50 -76 -50 -186z" />
    <glyph glyph-name="c" unicode="c" horiz-adv-x="973" 
d="M47 545q0 254 151.5 413.5t403.5 159.5q129 0 228 -41q133 -55 133 -166q0 -59 -37.5 -98t-96.5 -39q-30 0 -107 24.5t-120 24.5q-108 0 -169 -85q-54 -74 -54 -187q0 -119 57 -192q62 -80 178 -80q44 0 120.5 24.5t101.5 24.5q56 0 90.5 -41.5t34.5 -98.5
q0 -88 -108 -151.5t-271 -63.5q-246 0 -393 165q-142 158 -142 407z" />
    <glyph glyph-name="d" unicode="d" 
d="M47 555q0 227 134 392q143 177 364 177q146 0 254 -92v295q0 236 162 236q159 0 159 -236v-1106q0 -235 -159 -235q-97 0 -154 104q-102 -110 -262 -110q-203 0 -350.5 167.5t-147.5 407.5zM379 551q0 -108 51 -183q59 -87 162 -87t161 87q50 75 50 183q0 110 -49 186
q-57 88 -162 88q-104 0 -163 -88q-50 -76 -50 -186z" />
    <glyph glyph-name="e" unicode="e" horiz-adv-x="1147" 
d="M47 543q0 242 149 407q155 170 394 170q225 0 375.5 -154t150.5 -380q0 -81 -44 -110q-33 -21 -116 -21h-577q23 -193 244 -193q80 0 199.5 52.5t140.5 52.5q56 0 92.5 -34.5t36.5 -90.5q0 -103 -144 -187t-342 -84q-243 0 -401 164t-158 408zM375 666h426
q-6 83 -66 137.5t-143 54.5q-85 0 -143 -53.5t-74 -138.5z" />
    <glyph glyph-name="f" unicode="f" horiz-adv-x="719" 
d="M-18 932q0 132 194 144q0 9 -1 27t-1 27q0 189 72 300q86 133 264 133q88 0 145 -36q68 -43 68 -126q0 -69 -46 -100q-25 -18 -91 -31q-57 -11 -69.5 -28.5t-12.5 -166.5q252 0 252 -143q0 -92 -88 -122q-50 -17 -164 -17v-572q0 -235 -166 -235q-162 0 -162 235v572
q-194 0 -194 139z" />
    <glyph glyph-name="g" unicode="g" horiz-adv-x="1223" 
d="M47 545q0 229 135 394q144 177 367 177q163 0 258 -115q56 103 143 103q162 0 162 -234v-649q0 -181 -17 -280q-37 -203 -193 -310q-142 -98 -357 -98q-159 0 -290 45q-183 63 -183 191q0 61 39 101t100 40q27 0 139.5 -43t206.5 -43q252 0 252 272q0 7 -1 20t-1 19
q-105 -151 -293 -151q-196 0 -331.5 161t-135.5 400zM381 545q0 -108 50 -184q58 -87 161 -87t162 87q51 76 51 184q0 106 -52 180q-59 84 -161 84t-160 -84q-51 -74 -51 -180z" />
    <glyph glyph-name="h" unicode="h" horiz-adv-x="1206" 
d="M111 221v1106q0 236 161 236q162 0 162 -236v-319q98 102 277 102q393 0 393 -426v-463q0 -235 -162 -235t-162 235v365q0 115 -28 171q-40 79 -146 79q-172 0 -172 -246v-369q0 -235 -162 -235q-161 0 -161 235z" />
    <glyph glyph-name="i" unicode="i" horiz-adv-x="563" 
d="M96 1376q0 78 54.5 132.5t132.5 54.5q77 0 130.5 -55t53.5 -132q0 -78 -53 -132t-131 -54q-79 0 -133 53.5t-54 132.5zM121 221v649q0 234 162 234q159 0 159 -234v-649q0 -235 -159 -235q-162 0 -162 235z" />
    <glyph glyph-name="j" unicode="j" horiz-adv-x="563" 
d="M96 1376q0 78 54.5 132.5t132.5 54.5q77 0 130.5 -55t53.5 -132q0 -78 -53 -132t-131 -54q-79 0 -133 53.5t-54 132.5zM121 -215v1085q0 234 162 234q159 0 159 -234v-1085q0 -236 -159 -236q-162 0 -162 236z" />
    <glyph glyph-name="k" unicode="k" horiz-adv-x="1053" 
d="M111 221v1106q0 236 161 236q162 0 162 -236v-594l275 285q85 88 165 88q55 0 95.5 -35.5t40.5 -89.5q0 -80 -82 -156l-217 -200l301 -355q63 -74 63 -155q0 -59 -47 -98q-43 -35 -104 -35q-93 0 -168 100l-322 430v-291q0 -239 -162 -239q-161 0 -161 239z" />
    <glyph glyph-name="l" unicode="l" horiz-adv-x="563" 
d="M121 221v1106q0 236 162 236q159 0 159 -236v-1106q0 -235 -159 -235q-162 0 -162 235z" />
    <glyph glyph-name="m" unicode="m" horiz-adv-x="1798" 
d="M111 221v649q0 238 161 238q95 0 154 -107q97 107 258 107q206 0 322 -152q137 152 325 152q184 0 279 -123q86 -111 86 -301v-463q0 -235 -162 -235q-160 0 -160 235v365q0 245 -147 245q-162 0 -162 -241v-369q0 -235 -162 -235t-162 235v365q0 245 -145 245
q-162 0 -162 -241v-369q0 -235 -162 -235q-161 0 -161 235z" />
    <glyph glyph-name="n" unicode="n" horiz-adv-x="1206" 
d="M111 221v649q0 234 161 234q97 0 154 -103q99 109 285 109q393 0 393 -426v-463q0 -235 -162 -235t-162 235v365q0 115 -28 171q-40 79 -146 79q-172 0 -172 -246v-369q0 -235 -162 -235q-161 0 -161 235z" />
    <glyph glyph-name="o" unicode="o" horiz-adv-x="1188" 
d="M47 545q0 247 149 409q153 168 398 168q246 0 398 -167q147 -162 147 -410t-147 -410q-152 -168 -398 -168q-245 0 -398 168q-149 163 -149 410zM381 549q0 -111 50 -187q57 -88 163 -88q105 0 163 88q50 76 50 187q0 107 -52 183q-59 87 -161 87q-104 0 -162 -86
q-51 -76 -51 -184z" />
    <glyph glyph-name="p" unicode="p" 
d="M111 -215v1085q0 234 161 234q97 0 154 -103q101 111 266 111q223 0 363 -176q129 -163 129 -391q0 -242 -145.5 -411t-350.5 -169q-142 0 -254 94v-274q0 -236 -162 -236q-161 0 -161 236zM428 541q0 -111 50 -187q57 -88 163 -88q105 0 163 88q50 76 50 187
q0 107 -52 183q-59 87 -161 87q-103 0 -162 -87q-51 -75 -51 -183z" />
    <glyph glyph-name="q" unicode="q" 
d="M47 545q0 228 130 391q141 176 364 176q165 0 266 -111q57 103 154 103q159 0 159 -234v-1085q0 -236 -159 -236q-162 0 -162 236v274q-110 -94 -256 -94q-205 0 -350.5 169t-145.5 411zM379 541q0 -111 50 -187q58 -88 163 -88q106 0 163 88q48 75 48 187q0 108 -50 183
q-58 87 -161 87t-162 -87q-51 -76 -51 -183z" />
    <glyph glyph-name="r" unicode="r" horiz-adv-x="778" 
d="M111 221v649q0 234 161 234q97 0 154 -103q101 109 219 109q67 0 115.5 -47t48.5 -113q0 -69 -78 -115q-20 -12 -158 -68q-95 -39 -119 -81q-20 -36 -20 -129v-336q0 -235 -162 -235q-161 0 -161 235z" />
    <glyph glyph-name="s" unicode="s" horiz-adv-x="891" 
d="M20 209q0 57 32 99q36 46 91 46q52 0 149.5 -47t149.5 -47q90 0 90 66q0 50 -155.5 110t-224.5 118q-103 86 -103 220q0 160 125 258q115 90 279 90q159 0 268.5 -67.5t109.5 -157.5q0 -57 -38 -96t-95 -39q-41 0 -128 39t-132 39q-73 0 -73 -56q0 -41 127 -94
q175 -71 237 -117q127 -94 127 -235q0 -171 -136 -274q-124 -95 -300 -95q-140 0 -253 51q-147 66 -147 189z" />
    <glyph glyph-name="t" unicode="t" horiz-adv-x="682" 
d="M-18 932q0 132 194 144q0 15 -1 53t-1 60q0 263 164 263q162 0 162 -263q0 -22 -1 -60.5t-1 -53.5q231 0 231 -143q0 -139 -231 -139v-572q0 -235 -160 -235q-162 0 -162 235v572q-194 0 -194 139z" />
    <glyph glyph-name="u" unicode="u" horiz-adv-x="1186" 
d="M104 440v430q0 234 162 234q160 0 160 -234v-364q0 -110 27 -162q38 -74 139 -74t139 74q27 52 27 162v364q0 234 162 234q159 0 159 -234v-430q0 -233 -126.5 -353t-360.5 -120q-235 0 -360 119q-128 121 -128 354z" />
    <glyph glyph-name="v" unicode="v" horiz-adv-x="948" 
d="M-8 944q0 68 44 114t111 46q116 0 166 -158l176 -561l175 582q40 133 151 133q70 0 111 -44t41 -114q0 -41 -25 -106l-272 -705q-31 -80 -65 -114q-45 -44 -120 -44q-79 0 -126 48q-34 35 -68 120l-281 715q-18 46 -18 88z" />
    <glyph glyph-name="w" unicode="w" horiz-adv-x="1550" 
d="M-8 944q0 68 44 114t111 46q120 0 166 -158l170 -590l138 592q34 146 149 146q126 0 164 -150l147 -579l170 602q38 133 152 133q69 0 110 -44t41 -114q0 -38 -24 -106l-248 -705q-56 -158 -184 -158q-152 0 -195 168l-133 514l-125 -524q-38 -158 -184 -158
q-135 0 -195 168l-256 716q-18 50 -18 87z" />
    <glyph glyph-name="x" unicode="x" horiz-adv-x="1010" 
d="M-10 145q0 69 67 142l269 295l-226 229q-61 62 -61 131q0 63 44.5 112.5t106.5 49.5q75 0 134 -68l196 -227l180 221q62 76 131 76q67 0 116.5 -46.5t49.5 -113.5q0 -63 -71 -139l-213 -227l252 -285q75 -85 75 -160q0 -61 -43 -105t-104 -44q-77 0 -148 84l-231 274
l-229 -274q-70 -84 -140 -84q-64 0 -109.5 47t-45.5 112z" />
    <glyph glyph-name="y" unicode="y" horiz-adv-x="985" 
d="M2 944q0 68 44.5 114t111.5 46t108 -47q27 -32 56 -109l182 -487l198 514q50 129 144 129q72 0 115 -41t43 -113q0 -48 -27 -112l-492 -1168q-55 -131 -141 -131q-73 0 -116.5 41.5t-43.5 114.5q0 51 27 110l133 289l-326 760q-16 37 -16 90z" />
    <glyph glyph-name="z" unicode="z" horiz-adv-x="915" 
d="M-12 100q0 59 49 123l442 574h-278q-203 0 -203 147q0 146 205 146h518q95 0 130 -10q73 -20 73 -89q0 -56 -66 -141l-430 -551h320q202 0 202 -152q0 -147 -205 -147h-587q-79 0 -113 13q-57 22 -57 87z" />
    <glyph glyph-name="braceleft" unicode="{" horiz-adv-x="1024" 
d="M158 426v209q7 0 20.5 -1t20.5 -1q126 0 178 66q45 58 45 188v250q0 144 24 201q57 141 361 141q13 0 38.5 -1t37.5 -1v-209q-7 0 -23 1t-24 1q-111 0 -146 -52q-26 -38 -26 -149v-240q0 -136 -38 -198q-44 -72 -169 -101q125 -29 169 -100q38 -61 38 -197v-241
q0 -123 35 -161q28 -30 87 -35q6 -1 97 -1v-209q-12 0 -37.5 -1t-38.5 -1q-303 0 -361 140q-24 57 -24 200v252q0 137 -51 195q-36 40 -99 50q-30 5 -114 5z" />
    <glyph glyph-name="bar" unicode="|" horiz-adv-x="1024" 
d="M410 -483v2048h206v-2048h-206z" />
    <glyph glyph-name="braceright" unicode="}" horiz-adv-x="1024" 
d="M143 -205q7 0 23 -1t24 -1q110 0 145 51q27 38 27 148v239q0 137 37 198q44 73 170 101q-125 29 -169 101q-38 62 -38 198v242q0 122 -35 161q-28 29 -87 35q-7 1 -97 1v209h79q302 0 359 -141q23 -59 23 -199v-252q0 -137 51 -194q36 -41 99 -51q30 -5 114 -5v-209
q-151 0 -205 -49q-59 -52 -59 -201v-252q0 -144 -23 -201q-58 -139 -362 -139q-13 0 -38.5 1t-37.5 1v209z" />
    <glyph glyph-name="asciitilde" unicode="~" horiz-adv-x="1706" 
d="M178 418v221q212 143 387 143q86 0 295 -59q73 -24 145 -47q86 -27 150 -27q163 0 375 154v-221q-202 -138 -379 -138q-93 0 -255 56q-217 75 -333 75q-165 0 -385 -157z" />
    <glyph glyph-name="uni00A0" unicode="&#xa0;" horiz-adv-x="664" 
 />
    <glyph glyph-name="uni00AD" unicode="&#xad;" horiz-adv-x="877" 
d="M70 569q0 140 161 140h416q160 0 160 -142q0 -139 -162 -139h-416q-159 0 -159 141z" />
    <glyph glyph-name="Agrave" unicode="&#xc0;" horiz-adv-x="1280" 
d="M0 137q0 53 16 96l379 1029q79 215 254 215q176 0 244 -193l369 -1046q22 -62 22 -105q0 -71 -46.5 -113.5t-117.5 -42.5q-125 0 -174 162l-41 135h-538l-50 -147q-51 -150 -159 -150q-69 0 -113.5 45.5t-44.5 114.5zM371 1899q0 56 36.5 91.5t92.5 35.5q68 0 116 -66
l150 -205q35 -48 35 -90q0 -112 -111 -112q-53 0 -110 63l-156 172q-53 58 -53 111zM461 580h348l-168 540z" />
    <glyph glyph-name="Aacute" unicode="&#xc1;" horiz-adv-x="1280" 
d="M0 137q0 53 16 96l379 1029q79 215 254 215q176 0 244 -193l369 -1046q22 -62 22 -105q0 -71 -46.5 -113.5t-117.5 -42.5q-125 0 -174 162l-41 135h-538l-50 -147q-51 -150 -159 -150q-69 0 -113.5 45.5t-44.5 114.5zM461 580h348l-168 540zM475 1665q0 42 35 90l149 205
q48 66 117 66q53 0 91 -35t38 -88q0 -57 -53 -115l-156 -172q-57 -63 -110 -63q-111 0 -111 112z" />
    <glyph glyph-name="Acircumflex" unicode="&#xc2;" horiz-adv-x="1280" 
d="M0 137q0 53 16 96l379 1029q79 215 254 215q176 0 244 -193l369 -1046q22 -62 22 -105q0 -71 -46.5 -113.5t-117.5 -42.5q-125 0 -174 162l-41 135h-538l-50 -147q-51 -150 -159 -150q-69 0 -113.5 45.5t-44.5 114.5zM282 1624q0 62 62 110l223 174q42 33 84 33t84 -33
l223 -174q62 -48 62 -110q0 -105 -97 -105q-43 0 -94 31l-178 108l-178 -108q-51 -31 -94 -31q-97 0 -97 105zM461 580h348l-168 540z" />
    <glyph glyph-name="Atilde" unicode="&#xc3;" horiz-adv-x="1280" 
d="M0 137q0 53 16 96l379 1029q79 215 254 215q176 0 244 -193l369 -1046q22 -62 22 -105q0 -71 -46.5 -113.5t-117.5 -42.5q-125 0 -174 162l-41 135h-538l-50 -147q-51 -150 -159 -150q-69 0 -113.5 45.5t-44.5 114.5zM350 1712q0 75 48.5 127t123.5 52q33 0 95 -19.5
t94 -19.5q27 0 70 18.5t61 18.5q90 0 90 -111q0 -74 -49 -126t-123 -52q-33 0 -95.5 19.5t-95.5 19.5q-27 0 -69.5 -17.5t-59.5 -17.5q-90 0 -90 108zM461 580h348l-168 540z" />
    <glyph glyph-name="Egrave" unicode="&#xc8;" horiz-adv-x="1034" 
d="M129 209v1014q0 130 50 181.5t179 51.5h373q236 0 236 -156q0 -153 -236 -153h-270v-260h233q236 0 236 -154q0 -153 -236 -153h-233v-273h280q236 0 236 -153q0 -154 -236 -154h-387q-125 0 -173 41q-52 45 -52 168zM248 1899q0 56 36.5 91.5t92.5 35.5q68 0 116 -66
l150 -205q35 -48 35 -90q0 -112 -111 -112q-53 0 -110 63l-156 172q-53 58 -53 111z" />
    <glyph glyph-name="Eacute" unicode="&#xc9;" horiz-adv-x="1034" 
d="M129 209v1014q0 130 50 181.5t179 51.5h373q236 0 236 -156q0 -153 -236 -153h-270v-260h233q236 0 236 -154q0 -153 -236 -153h-233v-273h280q236 0 236 -153q0 -154 -236 -154h-387q-125 0 -173 41q-52 45 -52 168zM352 1665q0 42 35 90l149 205q48 66 117 66
q53 0 91 -35t38 -88q0 -57 -53 -115l-156 -172q-57 -63 -110 -63q-111 0 -111 112z" />
    <glyph glyph-name="Ecircumflex" unicode="&#xca;" horiz-adv-x="1034" 
d="M129 209v1014q0 130 50 181.5t179 51.5h373q236 0 236 -156q0 -153 -236 -153h-270v-260h233q236 0 236 -154q0 -153 -236 -153h-233v-273h280q236 0 236 -153q0 -154 -236 -154h-387q-125 0 -173 41q-52 45 -52 168zM162 1624q0 62 62 110l223 174q42 33 84 33t84 -33
l223 -174q62 -48 62 -110q0 -105 -97 -105q-43 0 -94 31l-178 108l-178 -108q-51 -31 -94 -31q-97 0 -97 105z" />
    <glyph glyph-name="Igrave" unicode="&#xcc;" horiz-adv-x="606" 
d="M33 1899q0 56 36.5 91.5t92.5 35.5q68 0 116 -66l150 -205q35 -48 35 -90q0 -112 -111 -112q-53 0 -110 63l-156 172q-53 58 -53 111zM137 217v1022q0 236 166 236t166 -236v-1022q0 -235 -166 -235t-166 235z" />
    <glyph glyph-name="Iacute" unicode="&#xcd;" horiz-adv-x="606" 
d="M137 217v1022q0 236 166 236t166 -236v-1022q0 -235 -166 -235t-166 235zM137 1665q0 42 35 90l149 205q48 66 117 66q53 0 91 -35t38 -88q0 -57 -53 -115l-156 -172q-57 -63 -110 -63q-111 0 -111 112z" />
    <glyph glyph-name="Ograve" unicode="&#xd2;" horiz-adv-x="1546" 
d="M57 727q0 336 187 548q197 222 528 222q332 0 529 -222q188 -212 188 -548q0 -337 -188 -549q-196 -221 -529 -221t-528 221q-187 212 -187 549zM418 723q0 -185 82 -307q96 -142 272 -142t272 142q82 122 82 307q0 189 -80 313q-94 146 -274 146t-274 -146
q-80 -124 -80 -313zM504 1899q0 56 36.5 91.5t92.5 35.5q68 0 116 -66l150 -205q35 -48 35 -90q0 -112 -111 -112q-53 0 -110 63l-156 172q-53 58 -53 111z" />
    <glyph glyph-name="Oacute" unicode="&#xd3;" horiz-adv-x="1546" 
d="M57 727q0 336 187 548q197 222 528 222q332 0 529 -222q188 -212 188 -548q0 -337 -188 -549q-196 -221 -529 -221t-528 221q-187 212 -187 549zM418 723q0 -185 82 -307q96 -142 272 -142t272 142q82 122 82 307q0 189 -80 313q-94 146 -274 146t-274 -146
q-80 -124 -80 -313zM608 1665q0 42 35 90l149 205q48 66 117 66q53 0 91 -35t38 -88q0 -57 -53 -115l-156 -172q-57 -63 -110 -63q-111 0 -111 112z" />
    <glyph glyph-name="Ocircumflex" unicode="&#xd4;" horiz-adv-x="1546" 
d="M57 727q0 336 187 548q197 222 528 222q332 0 529 -222q188 -212 188 -548q0 -337 -188 -549q-196 -221 -529 -221t-528 221q-187 212 -187 549zM402 1624q0 62 62 110l223 174q42 33 84 33t84 -33l223 -174q62 -48 62 -110q0 -105 -97 -105q-43 0 -94 31l-178 108
l-178 -108q-51 -31 -94 -31q-97 0 -97 105zM418 723q0 -185 82 -307q96 -142 272 -142t272 142q82 122 82 307q0 189 -80 313q-94 146 -274 146t-274 -146q-80 -124 -80 -313z" />
    <glyph glyph-name="Otilde" unicode="&#xd5;" horiz-adv-x="1546" 
d="M57 727q0 336 187 548q197 222 528 222q332 0 529 -222q188 -212 188 -548q0 -337 -188 -549q-196 -221 -529 -221t-528 221q-187 212 -187 549zM418 723q0 -185 82 -307q96 -142 272 -142t272 142q82 122 82 307q0 189 -80 313q-94 146 -274 146t-274 -146
q-80 -124 -80 -313zM483 1712q0 75 48.5 127t123.5 52q33 0 95 -19.5t94 -19.5q27 0 70 18.5t61 18.5q90 0 90 -111q0 -74 -49 -126t-123 -52q-33 0 -95.5 19.5t-95.5 19.5q-27 0 -69.5 -17.5t-59.5 -17.5q-90 0 -90 108z" />
    <glyph glyph-name="Ugrave" unicode="&#xd9;" horiz-adv-x="1507" 
d="M129 625v614q0 236 166 236t166 -236v-577q0 -388 293 -388t293 388v577q0 236 165 236q166 0 166 -236v-614q0 -308 -156 -483q-164 -185 -468 -185q-305 0 -469 184q-156 176 -156 484zM494 1899q0 56 36.5 91.5t92.5 35.5q68 0 116 -66l150 -205q35 -48 35 -90
q0 -112 -111 -112q-53 0 -110 63l-156 172q-53 58 -53 111z" />
    <glyph glyph-name="Uacute" unicode="&#xda;" horiz-adv-x="1507" 
d="M129 625v614q0 236 166 236t166 -236v-577q0 -388 293 -388t293 388v577q0 236 165 236q166 0 166 -236v-614q0 -308 -156 -483q-164 -185 -468 -185q-305 0 -469 184q-156 176 -156 484zM588 1665q0 42 35 90l149 205q48 66 117 66q53 0 91 -35t38 -88q0 -57 -53 -115
l-156 -172q-57 -63 -110 -63q-111 0 -111 112z" />
    <glyph glyph-name="Yacute" unicode="&#xdd;" horiz-adv-x="1057" 
d="M-39 1329q0 64 49 106q46 40 111 40q81 0 170 -127l248 -355l252 359q88 125 178 125q55 0 100 -44.5t45 -99.5q0 -60 -76 -168l-336 -479v-469q0 -235 -165 -235q-166 0 -166 235v469l-336 475q-74 105 -74 168zM362 1665q0 42 35 90l149 205q48 66 117 66q53 0 91 -35
t38 -88q0 -57 -53 -115l-156 -172q-57 -63 -110 -63q-111 0 -111 112z" />
    <glyph glyph-name="agrave" unicode="&#xe0;" 
d="M47 545q0 229 135 394q144 177 367 177q163 0 258 -115q56 103 154 103q159 0 159 -234v-649q0 -235 -159 -235q-104 0 -154 112q-100 -123 -270 -123q-222 0 -362 178q-128 164 -128 392zM346 1528q0 56 36.5 91.5t92.5 35.5q68 0 116 -66l150 -205q35 -48 35 -90
q0 -112 -111 -112q-53 0 -110 63l-156 172q-53 58 -53 111zM381 549q0 -107 49 -180q57 -84 160 -84q101 0 158 85q49 74 49 179q0 103 -51 176q-57 82 -156 82q-101 0 -158 -81q-51 -72 -51 -177z" />
    <glyph glyph-name="aacute" unicode="&#xe1;" 
d="M47 545q0 229 135 394q144 177 367 177q163 0 258 -115q56 103 154 103q159 0 159 -234v-649q0 -235 -159 -235q-104 0 -154 112q-100 -123 -270 -123q-222 0 -362 178q-128 164 -128 392zM381 549q0 -107 49 -180q57 -84 160 -84q101 0 158 85q49 74 49 179
q0 103 -51 176q-57 82 -156 82q-101 0 -158 -81q-51 -72 -51 -177zM450 1294q0 42 35 90l149 205q48 66 117 66q53 0 91 -35t38 -88q0 -57 -53 -115l-156 -172q-57 -63 -110 -63q-111 0 -111 112z" />
    <glyph glyph-name="acircumflex" unicode="&#xe2;" 
d="M47 545q0 229 135 394q144 177 367 177q163 0 258 -115q56 103 154 103q159 0 159 -234v-649q0 -235 -159 -235q-104 0 -154 112q-100 -123 -270 -123q-222 0 -362 178q-128 164 -128 392zM247 1303q0 62 62 110l223 174q42 33 84 33t84 -33l223 -174q62 -48 62 -110
q0 -105 -97 -105q-43 0 -94 31l-178 108l-178 -108q-51 -31 -94 -31q-97 0 -97 105zM381 549q0 -107 49 -180q57 -84 160 -84q101 0 158 85q49 74 49 179q0 103 -51 176q-57 82 -156 82q-101 0 -158 -81q-51 -72 -51 -177z" />
    <glyph glyph-name="atilde" unicode="&#xe3;" 
d="M47 545q0 229 135 394q144 177 367 177q163 0 258 -115q56 103 154 103q159 0 159 -234v-649q0 -235 -159 -235q-104 0 -154 112q-100 -123 -270 -123q-222 0 -362 178q-128 164 -128 392zM325 1341q0 75 48.5 127t123.5 52q33 0 95 -19.5t94 -19.5q27 0 70 18.5t61 18.5
q90 0 90 -111q0 -74 -49 -126t-123 -52q-33 0 -95.5 19.5t-95.5 19.5q-27 0 -69.5 -17.5t-59.5 -17.5q-90 0 -90 108zM381 549q0 -107 49 -180q57 -84 160 -84q101 0 158 85q49 74 49 179q0 103 -51 176q-57 82 -156 82q-101 0 -158 -81q-51 -72 -51 -177z" />
    <glyph glyph-name="egrave" unicode="&#xe8;" horiz-adv-x="1147" 
d="M47 543q0 242 149 407q155 170 394 170q225 0 375.5 -154t150.5 -380q0 -81 -44 -110q-33 -21 -116 -21h-577q23 -193 244 -193q80 0 199.5 52.5t140.5 52.5q56 0 92.5 -34.5t36.5 -90.5q0 -103 -144 -187t-342 -84q-243 0 -401 164t-158 408zM336 1528q0 56 36.5 91.5
t92.5 35.5q68 0 116 -66l150 -205q35 -48 35 -90q0 -112 -111 -112q-53 0 -110 63l-156 172q-53 58 -53 111zM375 666h426q-6 83 -66 137.5t-143 54.5q-85 0 -143 -53.5t-74 -138.5z" />
    <glyph glyph-name="eacute" unicode="&#xe9;" horiz-adv-x="1147" 
d="M47 543q0 242 149 407q155 170 394 170q225 0 375.5 -154t150.5 -380q0 -81 -44 -110q-33 -21 -116 -21h-577q23 -193 244 -193q80 0 199.5 52.5t140.5 52.5q56 0 92.5 -34.5t36.5 -90.5q0 -103 -144 -187t-342 -84q-243 0 -401 164t-158 408zM375 666h426
q-6 83 -66 137.5t-143 54.5q-85 0 -143 -53.5t-74 -138.5zM440 1294q0 42 35 90l149 205q48 66 117 66q53 0 91 -35t38 -88q0 -57 -53 -115l-156 -172q-57 -63 -110 -63q-111 0 -111 112z" />
    <glyph glyph-name="ecircumflex" unicode="&#xea;" horiz-adv-x="1147" 
d="M47 543q0 242 149 407q155 170 394 170q225 0 375.5 -154t150.5 -380q0 -81 -44 -110q-33 -21 -116 -21h-577q23 -193 244 -193q80 0 199.5 52.5t140.5 52.5q56 0 92.5 -34.5t36.5 -90.5q0 -103 -144 -187t-342 -84q-243 0 -401 164t-158 408zM237 1303q0 62 62 110
l223 174q42 33 84 33t84 -33l223 -174q62 -48 62 -110q0 -105 -97 -105q-43 0 -94 31l-178 108l-178 -108q-51 -31 -94 -31q-97 0 -97 105zM375 666h426q-6 83 -66 137.5t-143 54.5q-85 0 -143 -53.5t-74 -138.5z" />
    <glyph glyph-name="igrave" unicode="&#xec;" horiz-adv-x="563" 
d="M13 1528q0 56 36.5 91.5t92.5 35.5q68 0 116 -66l150 -205q35 -48 35 -90q0 -112 -111 -112q-53 0 -110 63l-156 172q-53 58 -53 111zM121 221v649q0 234 162 234q159 0 159 -234v-649q0 -235 -159 -235q-162 0 -162 235z" />
    <glyph glyph-name="iacute" unicode="&#xed;" horiz-adv-x="563" 
d="M117 1294q0 42 35 90l149 205q48 66 117 66q53 0 91 -35t38 -88q0 -57 -53 -115l-156 -172q-57 -63 -110 -63q-111 0 -111 112zM121 221v649q0 234 162 234q159 0 159 -234v-649q0 -235 -159 -235q-162 0 -162 235z" />
    <glyph glyph-name="ograve" unicode="&#xf2;" horiz-adv-x="1188" 
d="M47 545q0 247 149 409q153 168 398 168q246 0 398 -167q147 -162 147 -410t-147 -410q-152 -168 -398 -168q-245 0 -398 168q-149 163 -149 410zM324 1528q0 56 36.5 91.5t92.5 35.5q68 0 116 -66l150 -205q35 -48 35 -90q0 -112 -111 -112q-53 0 -110 63l-156 172
q-53 58 -53 111zM381 549q0 -111 50 -187q57 -88 163 -88q105 0 163 88q50 76 50 187q0 107 -52 183q-59 87 -161 87q-104 0 -162 -86q-51 -76 -51 -184z" />
    <glyph glyph-name="oacute" unicode="&#xf3;" horiz-adv-x="1188" 
d="M47 545q0 247 149 409q153 168 398 168q246 0 398 -167q147 -162 147 -410t-147 -410q-152 -168 -398 -168q-245 0 -398 168q-149 163 -149 410zM381 549q0 -111 50 -187q57 -88 163 -88q105 0 163 88q50 76 50 187q0 107 -52 183q-59 87 -161 87q-104 0 -162 -86
q-51 -76 -51 -184zM428 1294q0 42 35 90l149 205q48 66 117 66q53 0 91 -35t38 -88q0 -57 -53 -115l-156 -172q-57 -63 -110 -63q-111 0 -111 112z" />
    <glyph glyph-name="ocircumflex" unicode="&#xf4;" horiz-adv-x="1188" 
d="M47 545q0 247 149 409q153 168 398 168q246 0 398 -167q147 -162 147 -410t-147 -410q-152 -168 -398 -168q-245 0 -398 168q-149 163 -149 410zM225 1303q0 62 62 110l223 174q42 33 84 33t84 -33l223 -174q62 -48 62 -110q0 -105 -97 -105q-43 0 -94 31l-178 108
l-178 -108q-51 -31 -94 -31q-97 0 -97 105zM381 549q0 -111 50 -187q57 -88 163 -88q105 0 163 88q50 76 50 187q0 107 -52 183q-59 87 -161 87q-104 0 -162 -86q-51 -76 -51 -184z" />
    <glyph glyph-name="otilde" unicode="&#xf5;" horiz-adv-x="1188" 
d="M47 545q0 247 149 409q153 168 398 168q246 0 398 -167q147 -162 147 -410t-147 -410q-152 -168 -398 -168q-245 0 -398 168q-149 163 -149 410zM303 1341q0 75 48.5 127t123.5 52q33 0 95 -19.5t94 -19.5q27 0 70 18.5t61 18.5q90 0 90 -111q0 -74 -49 -126t-123 -52
q-33 0 -95.5 19.5t-95.5 19.5q-27 0 -69.5 -17.5t-59.5 -17.5q-90 0 -90 108zM381 549q0 -111 50 -187q57 -88 163 -88q105 0 163 88q50 76 50 187q0 107 -52 183q-59 87 -161 87q-104 0 -162 -86q-51 -76 -51 -184z" />
    <glyph glyph-name="ugrave" unicode="&#xf9;" horiz-adv-x="1186" 
d="M104 440v430q0 234 162 234q160 0 160 -234v-364q0 -110 27 -162q38 -74 139 -74t139 74q27 52 27 162v364q0 234 162 234q159 0 159 -234v-430q0 -233 -126.5 -353t-360.5 -120q-235 0 -360 119q-128 121 -128 354zM324 1528q0 56 36.5 91.5t92.5 35.5q68 0 116 -66
l150 -205q35 -48 35 -90q0 -112 -111 -112q-53 0 -110 63l-156 172q-53 58 -53 111z" />
    <glyph glyph-name="uacute" unicode="&#xfa;" horiz-adv-x="1186" 
d="M104 440v430q0 234 162 234q160 0 160 -234v-364q0 -110 27 -162q38 -74 139 -74t139 74q27 52 27 162v364q0 234 162 234q159 0 159 -234v-430q0 -233 -126.5 -353t-360.5 -120q-235 0 -360 119q-128 121 -128 354zM428 1294q0 42 35 90l149 205q48 66 117 66
q53 0 91 -35t38 -88q0 -57 -53 -115l-156 -172q-57 -63 -110 -63q-111 0 -111 112z" />
    <glyph glyph-name="yacute" unicode="&#xfd;" horiz-adv-x="985" 
d="M2 944q0 68 44.5 114t111.5 46t108 -47q27 -32 56 -109l182 -487l198 514q50 129 144 129q72 0 115 -41t43 -113q0 -48 -27 -112l-492 -1168q-55 -131 -141 -131q-73 0 -116.5 41.5t-43.5 114.5q0 51 27 110l133 289l-326 760q-16 37 -16 90zM328 1294q0 42 35 90
l149 205q48 66 117 66q53 0 91 -35t38 -88q0 -57 -53 -115l-156 -172q-57 -63 -110 -63q-111 0 -111 112z" />
    <glyph glyph-name="Abreve" unicode="&#x102;" horiz-adv-x="1280" 
d="M0 137q0 53 16 96l379 1029q79 215 254 215q176 0 244 -193l369 -1046q22 -62 22 -105q0 -71 -46.5 -113.5t-117.5 -42.5q-125 0 -174 162l-41 135h-538l-50 -147q-51 -150 -159 -150q-69 0 -113.5 45.5t-44.5 114.5zM314 1797q0 112 107 112q52 0 100 -66.5t131 -66.5
q84 0 131 66.5t98 66.5q109 0 109 -112q0 -116 -115 -188q-100 -62 -223 -62q-122 0 -222 63q-116 72 -116 187zM461 580h348l-168 540z" />
    <glyph glyph-name="abreve" unicode="&#x103;" 
d="M47 545q0 229 135 394q144 177 367 177q163 0 258 -115q56 103 154 103q159 0 159 -234v-649q0 -235 -159 -235q-104 0 -154 112q-100 -123 -270 -123q-222 0 -362 178q-128 164 -128 392zM284 1473q0 112 107 112q52 0 100 -66.5t131 -66.5q84 0 131 66.5t98 66.5
q109 0 109 -112q0 -116 -115 -188q-100 -62 -223 -62q-122 0 -222 63q-116 72 -116 187zM381 549q0 -107 49 -180q57 -84 160 -84q101 0 158 85q49 74 49 179q0 103 -51 176q-57 82 -156 82q-101 0 -158 -81q-51 -72 -51 -177z" />
    <glyph glyph-name="Dcroat" unicode="&#x110;" horiz-adv-x="1522" 
d="M27 729q0 75 66 101q41 16 130 16v377q0 129 51.5 181t180.5 52h266q135 0 245 -25q233 -56 369 -254q129 -187 129 -434q0 -338 -186 -538q-191 -205 -526 -205h-301q-126 0 -175 41q-53 46 -53 168v399q-196 0 -196 121zM555 307h152q397 0 397 438q0 402 -402 402
h-147v-301q10 0 38 1h44q199 0 199 -120q0 -119 -193 -119q-17 0 -47 1t-41 1v-303z" />
    <glyph glyph-name="dcroat" unicode="&#x111;" horiz-adv-x="1255" 
d="M47 555q0 227 134 392q143 177 364 177q146 0 254 -92v180h-168q-119 0 -119 82q0 84 121 84h166q14 185 162 185q141 0 159 -184q76 -1 106 -10q62 -19 62 -75q0 -58 -61 -75q-27 -7 -107 -7v-991q0 -235 -159 -235q-97 0 -154 104q-102 -110 -262 -110
q-203 0 -350.5 167.5t-147.5 407.5zM379 551q0 -108 51 -183q59 -87 162 -87t161 87q50 75 50 183q0 110 -49 186q-57 88 -162 88q-104 0 -163 -88q-50 -76 -50 -186z" />
    <glyph glyph-name="Itilde" unicode="&#x128;" horiz-adv-x="606" 
d="M13 1712q0 75 48.5 127t123.5 52q33 0 95 -19.5t94 -19.5q27 0 70 18.5t61 18.5q90 0 90 -111q0 -74 -49 -126t-123 -52q-33 0 -95.5 19.5t-95.5 19.5q-27 0 -69.5 -17.5t-59.5 -17.5q-90 0 -90 108zM137 217v1022q0 236 166 236t166 -236v-1022q0 -235 -166 -235
t-166 235z" />
    <glyph glyph-name="itilde" unicode="&#x129;" horiz-adv-x="563" 
d="M-7 1341q0 75 48.5 127t123.5 52q33 0 95 -19.5t94 -19.5q27 0 70 18.5t61 18.5q90 0 90 -111q0 -74 -49 -126t-123 -52q-33 0 -95.5 19.5t-95.5 19.5q-27 0 -69.5 -17.5t-59.5 -17.5q-90 0 -90 108zM121 221v649q0 234 162 234q159 0 159 -234v-649q0 -235 -159 -235
q-162 0 -162 235z" />
    <glyph glyph-name="Utilde" unicode="&#x168;" horiz-adv-x="1507" 
d="M129 625v614q0 236 166 236t166 -236v-577q0 -388 293 -388t293 388v577q0 236 165 236q166 0 166 -236v-614q0 -308 -156 -483q-164 -185 -468 -185q-305 0 -469 184q-156 176 -156 484zM483 1712q0 75 48.5 127t123.5 52q33 0 95 -19.5t94 -19.5q27 0 70 18.5t61 18.5
q90 0 90 -111q0 -74 -49 -126t-123 -52q-33 0 -95.5 19.5t-95.5 19.5q-27 0 -69.5 -17.5t-59.5 -17.5q-90 0 -90 108z" />
    <glyph glyph-name="utilde" unicode="&#x169;" horiz-adv-x="1186" 
d="M104 440v430q0 234 162 234q160 0 160 -234v-364q0 -110 27 -162q38 -74 139 -74t139 74q27 52 27 162v364q0 234 162 234q159 0 159 -234v-430q0 -233 -126.5 -353t-360.5 -120q-235 0 -360 119q-128 121 -128 354zM306 1341q0 75 48.5 127t123.5 52q33 0 95 -19.5
t94 -19.5q27 0 70 18.5t61 18.5q90 0 90 -111q0 -74 -49 -126t-123 -52q-33 0 -95.5 19.5t-95.5 19.5q-27 0 -69.5 -17.5t-59.5 -17.5q-90 0 -90 108z" />
    <glyph glyph-name="Ohorn" unicode="&#x1a0;" horiz-adv-x="1576" 
d="M57 727q0 336 187 548q197 222 528 222q332 0 529 -222q188 -212 188 -548q0 -337 -188 -549q-196 -221 -529 -221t-528 221q-187 212 -187 549zM418 723q0 -185 82 -307q96 -142 272 -142t272 142q82 122 82 307q0 189 -80 313q-94 146 -274 146t-274 -146
q-80 -124 -80 -313zM1192 1168q0 34 55 51q101 32 109 36q64 33 80 102q-14 -2 -29 -2q-63 0 -106 34q-48 36 -48 97q0 66 44.5 108t109.5 42q86 0 136.5 -57.5t50.5 -144.5q0 -120 -95 -220q-97 -103 -216 -103q-91 0 -91 57z" />
    <glyph glyph-name="ohorn" unicode="&#x1a1;" horiz-adv-x="1207" 
d="M47 545q0 247 149 409q153 168 398 168q246 0 398 -167q147 -162 147 -410t-147 -410q-152 -168 -398 -168q-245 0 -398 168q-149 163 -149 410zM381 549q0 -111 50 -187q57 -88 163 -88q105 0 163 88q50 76 50 187q0 107 -52 183q-59 87 -161 87q-104 0 -162 -86
q-51 -76 -51 -184zM803 863q0 34 55 51q101 32 109 36q64 33 80 102q-14 -2 -29 -2q-63 0 -106 34q-48 36 -48 97q0 66 44.5 108t109.5 42q86 0 136.5 -57.5t50.5 -144.5q0 -120 -95 -220q-97 -103 -216 -103q-91 0 -91 57z" />
    <glyph glyph-name="Uhorn" unicode="&#x1af;" horiz-adv-x="1574" 
d="M129 625v614q0 236 166 236t166 -236v-577q0 -388 293 -388t293 388v577q0 236 165 236q166 0 166 -236v-614q0 -308 -156 -483q-164 -185 -468 -185q-305 0 -469 184q-156 176 -156 484zM1212 1168q0 34 55 51q101 32 109 36q64 33 80 102q-14 -2 -29 -2q-63 0 -106 34
q-48 36 -48 97q0 66 44.5 108t109.5 42q86 0 136.5 -57.5t50.5 -144.5q0 -120 -95 -220q-97 -103 -216 -103q-91 0 -91 57z" />
    <glyph glyph-name="uhorn" unicode="&#x1b0;" horiz-adv-x="1266" 
d="M104 440v430q0 234 162 234q160 0 160 -234v-364q0 -110 27 -162q38 -74 139 -74t139 74q27 52 27 162v364q0 234 162 234q159 0 159 -234v-430q0 -233 -126.5 -353t-360.5 -120q-235 0 -360 119q-128 121 -128 354zM923 863q0 34 55 51q101 32 109 36q64 33 80 102
q-14 -2 -29 -2q-63 0 -106 34q-48 36 -48 97q0 66 44.5 108t109.5 42q86 0 136.5 -57.5t50.5 -144.5q0 -120 -95 -220q-97 -103 -216 -103q-91 0 -91 57z" />
    <glyph glyph-name="uni1EA0" unicode="&#x1ea0;" horiz-adv-x="1280" 
d="M0 137q0 53 16 96l379 1029q79 215 254 215q176 0 244 -193l369 -1046q22 -62 22 -105q0 -71 -46.5 -113.5t-117.5 -42.5q-125 0 -174 162l-41 135h-538l-50 -147q-51 -150 -159 -150q-69 0 -113.5 45.5t-44.5 114.5zM458 -317q0 78 54.5 132t132.5 54q77 0 130.5 -54.5
t53.5 -131.5q0 -78 -53 -132t-131 -54q-79 0 -133 53.5t-54 132.5zM461 580h348l-168 540z" />
    <glyph glyph-name="uni1EA1" unicode="&#x1ea1;" 
d="M47 545q0 229 135 394q144 177 367 177q163 0 258 -115q56 103 154 103q159 0 159 -234v-649q0 -235 -159 -235q-104 0 -154 112q-100 -123 -270 -123q-222 0 -362 178q-128 164 -128 392zM381 549q0 -107 49 -180q57 -84 160 -84q101 0 158 85q49 74 49 179
q0 103 -51 176q-57 82 -156 82q-101 0 -158 -81q-51 -72 -51 -177zM434 -317q0 78 54.5 132t132.5 54q77 0 130.5 -54.5t53.5 -131.5q0 -78 -53 -132t-131 -54q-79 0 -133 53.5t-54 132.5z" />
    <glyph glyph-name="uni1EA2" unicode="&#x1ea2;" horiz-adv-x="1280" 
d="M0 137q0 53 16 96l379 1029q79 215 254 215q176 0 244 -193l369 -1046q22 -62 22 -105q0 -71 -46.5 -113.5t-117.5 -42.5q-125 0 -174 162l-41 135h-538l-50 -147q-51 -150 -159 -150q-69 0 -113.5 45.5t-44.5 114.5zM401 1839q0 88 76 145q71 54 172 54q106 0 181 -78
q68 -71 68 -155q0 -63 -41 -115t-102 -64q0 -28 -31.5 -52.5t-65.5 -24.5t-70 21.5t-36 48.5v48q0 21 6 32t65 30q50 16 50 63q0 50 -53 50q-36 0 -83 -39t-69 -39q-30 0 -50 27q-17 22 -17 48zM461 580h348l-168 540z" />
    <glyph glyph-name="uni1EA3" unicode="&#x1ea3;" 
d="M47 545q0 229 135 394q144 177 367 177q163 0 258 -115q56 103 154 103q159 0 159 -234v-649q0 -235 -159 -235q-104 0 -154 112q-100 -123 -270 -123q-222 0 -362 178q-128 164 -128 392zM370 1482q0 88 76 145q71 54 172 54q106 0 181 -78q68 -71 68 -155
q0 -63 -41 -115t-102 -64q0 -28 -31.5 -52.5t-65.5 -24.5t-70 21.5t-36 48.5v48q0 21 6 32t65 30q50 16 50 63q0 50 -53 50q-36 0 -83 -39t-69 -39q-30 0 -50 27q-17 22 -17 48zM381 549q0 -107 49 -180q57 -84 160 -84q101 0 158 85q49 74 49 179q0 103 -51 176
q-57 82 -156 82q-101 0 -158 -81q-51 -72 -51 -177z" />
    <glyph glyph-name="uni1EA4" unicode="&#x1ea4;" horiz-adv-x="1280" 
d="M0 137q0 53 16 96l379 1029q79 215 254 215q176 0 244 -193l369 -1046q22 -62 22 -105q0 -71 -46.5 -113.5t-117.5 -42.5q-125 0 -174 162l-41 135h-538l-50 -147q-51 -150 -159 -150q-69 0 -113.5 45.5t-44.5 114.5zM282 1624q0 62 62 110l223 174q42 33 84 33t84 -33
l223 -174q62 -48 62 -110q0 -105 -97 -105q-43 0 -94 31l-178 108l-178 -108q-51 -31 -94 -31q-97 0 -97 105zM354 2067q0 42 35 90l149 205q48 66 117 66q53 0 91 -35t38 -88q0 -57 -53 -115l-156 -172q-57 -63 -110 -63q-111 0 -111 112zM461 580h348l-168 540z" />
    <glyph glyph-name="uni1EA5" unicode="&#x1ea5;" 
d="M47 545q0 229 135 394q144 177 367 177q163 0 258 -115q56 103 154 103q159 0 159 -234v-649q0 -235 -159 -235q-104 0 -154 112q-100 -123 -270 -123q-222 0 -362 178q-128 164 -128 392zM247 1303q0 62 62 110l223 174q42 33 84 33t84 -33l223 -174q62 -48 62 -110
q0 -105 -97 -105q-43 0 -94 31l-178 108l-178 -108q-51 -31 -94 -31q-97 0 -97 105zM319 1746q0 42 35 90l149 205q48 66 117 66q53 0 91 -35t38 -88q0 -57 -53 -115l-156 -172q-57 -63 -110 -63q-111 0 -111 112zM381 549q0 -107 49 -180q57 -84 160 -84q101 0 158 85
q49 74 49 179q0 103 -51 176q-57 82 -156 82q-101 0 -158 -81q-51 -72 -51 -177z" />
    <glyph glyph-name="uni1EA6" unicode="&#x1ea6;" horiz-adv-x="1280" 
d="M0 137q0 53 16 96l379 1029q79 215 254 215q176 0 244 -193l369 -1046q22 -62 22 -105q0 -71 -46.5 -113.5t-117.5 -42.5q-125 0 -174 162l-41 135h-538l-50 -147q-51 -150 -159 -150q-69 0 -113.5 45.5t-44.5 114.5zM282 1624q0 62 62 110l223 174q42 33 84 33t84 -33
l223 -174q62 -48 62 -110q0 -105 -97 -105q-43 0 -94 31l-178 108l-178 -108q-51 -31 -94 -31q-97 0 -97 105zM461 580h348l-168 540zM519 2301q0 56 36.5 91.5t92.5 35.5q68 0 116 -66l150 -205q35 -48 35 -90q0 -112 -111 -112q-53 0 -110 63l-156 172q-53 58 -53 111z
" />
    <glyph glyph-name="uni1EA7" unicode="&#x1ea7;" 
d="M47 545q0 229 135 394q144 177 367 177q163 0 258 -115q56 103 154 103q159 0 159 -234v-649q0 -235 -159 -235q-104 0 -154 112q-100 -123 -270 -123q-222 0 -362 178q-128 164 -128 392zM247 1303q0 62 62 110l223 174q42 33 84 33t84 -33l223 -174q62 -48 62 -110
q0 -105 -97 -105q-43 0 -94 31l-178 108l-178 -108q-51 -31 -94 -31q-97 0 -97 105zM381 549q0 -107 49 -180q57 -84 160 -84q101 0 158 85q49 74 49 179q0 103 -51 176q-57 82 -156 82q-101 0 -158 -81q-51 -72 -51 -177zM483 1980q0 56 36.5 91.5t92.5 35.5q68 0 116 -66
l150 -205q35 -48 35 -90q0 -112 -111 -112q-53 0 -110 63l-156 172q-53 58 -53 111z" />
    <glyph glyph-name="uni1EA8" unicode="&#x1ea8;" horiz-adv-x="1280" 
d="M0 137q0 53 16 96l379 1029q79 215 254 215q176 0 244 -193l369 -1046q22 -62 22 -105q0 -71 -46.5 -113.5t-117.5 -42.5q-125 0 -174 162l-41 135h-538l-50 -147q-51 -150 -159 -150q-69 0 -113.5 45.5t-44.5 114.5zM282 1624q0 62 62 110l223 174q42 33 84 33t84 -33
l223 -174q62 -48 62 -110q0 -105 -97 -105q-43 0 -94 31l-178 108l-178 -108q-51 -31 -94 -31q-97 0 -97 105zM461 580h348l-168 540zM647 2183q0 88 76 145q71 54 172 54q106 0 181 -78q68 -71 68 -155q0 -63 -41 -115t-102 -64q0 -28 -31.5 -52.5t-65.5 -24.5t-70 21.5
t-36 48.5v48q0 21 6 32t65 30q50 16 50 63q0 50 -53 50q-36 0 -83 -39t-69 -39q-30 0 -50 27q-17 22 -17 48z" />
    <glyph glyph-name="uni1EA9" unicode="&#x1ea9;" 
d="M47 545q0 229 135 394q144 177 367 177q163 0 258 -115q56 103 154 103q159 0 159 -234v-649q0 -235 -159 -235q-104 0 -154 112q-100 -123 -270 -123q-222 0 -362 178q-128 164 -128 392zM247 1303q0 62 62 110l223 174q42 33 84 33t84 -33l223 -174q62 -48 62 -110
q0 -105 -97 -105q-43 0 -94 31l-178 108l-178 -108q-51 -31 -94 -31q-97 0 -97 105zM381 549q0 -107 49 -180q57 -84 160 -84q101 0 158 85q49 74 49 179q0 103 -51 176q-57 82 -156 82q-101 0 -158 -81q-51 -72 -51 -177zM611 1862q0 88 76 145q71 54 172 54q106 0 181 -78
q68 -71 68 -155q0 -63 -41 -115t-102 -64q0 -28 -31.5 -52.5t-65.5 -24.5t-70 21.5t-36 48.5v48q0 21 6 32t65 30q50 16 50 63q0 50 -53 50q-36 0 -83 -39t-69 -39q-30 0 -50 27q-17 22 -17 48z" />
    <glyph glyph-name="uni1EAA" unicode="&#x1eaa;" horiz-adv-x="1280" 
d="M0 137q0 53 16 96l379 1029q79 215 254 215q176 0 244 -193l369 -1046q22 -62 22 -105q0 -71 -46.5 -113.5t-117.5 -42.5q-125 0 -174 162l-41 135h-538l-50 -147q-51 -150 -159 -150q-69 0 -113.5 45.5t-44.5 114.5zM282 1624q0 62 62 110l223 174q42 33 84 33t84 -33
l223 -174q62 -48 62 -110q0 -105 -97 -105q-43 0 -94 31l-178 108l-178 -108q-51 -31 -94 -31q-97 0 -97 105zM425 2131q0 75 48.5 127t123.5 52q33 0 95 -19.5t94 -19.5q27 0 70 18.5t61 18.5q90 0 90 -111q0 -74 -49 -126t-123 -52q-33 0 -95.5 19.5t-95.5 19.5
q-27 0 -69.5 -17.5t-59.5 -17.5q-90 0 -90 108zM461 580h348l-168 540z" />
    <glyph glyph-name="uni1EAB" unicode="&#x1eab;" 
d="M47 545q0 229 135 394q144 177 367 177q163 0 258 -115q56 103 154 103q159 0 159 -234v-649q0 -235 -159 -235q-104 0 -154 112q-100 -123 -270 -123q-222 0 -362 178q-128 164 -128 392zM247 1303q0 62 62 110l223 174q42 33 84 33t84 -33l223 -174q62 -48 62 -110
q0 -105 -97 -105q-43 0 -94 31l-178 108l-178 -108q-51 -31 -94 -31q-97 0 -97 105zM381 549q0 -107 49 -180q57 -84 160 -84q101 0 158 85q49 74 49 179q0 103 -51 176q-57 82 -156 82q-101 0 -158 -81q-51 -72 -51 -177zM390 1810q0 75 48.5 127t123.5 52q33 0 95 -19.5
t94 -19.5q27 0 70 18.5t61 18.5q90 0 90 -111q0 -74 -49 -126t-123 -52q-33 0 -95.5 19.5t-95.5 19.5q-27 0 -69.5 -17.5t-59.5 -17.5q-90 0 -90 108z" />
    <glyph glyph-name="uni1EAC" unicode="&#x1eac;" horiz-adv-x="1280" 
d="M0 137q0 53 16 96l379 1029q79 215 254 215q176 0 244 -193l369 -1046q22 -62 22 -105q0 -71 -46.5 -113.5t-117.5 -42.5q-125 0 -174 162l-41 135h-538l-50 -147q-51 -150 -159 -150q-69 0 -113.5 45.5t-44.5 114.5zM282 1624q0 62 62 110l223 174q42 33 84 33t84 -33
l223 -174q62 -48 62 -110q0 -105 -97 -105q-43 0 -94 31l-178 108l-178 -108q-51 -31 -94 -31q-97 0 -97 105zM458 -317q0 78 54.5 132t132.5 54q77 0 130.5 -54.5t53.5 -131.5q0 -78 -53 -132t-131 -54q-79 0 -133 53.5t-54 132.5zM461 580h348l-168 540z" />
    <glyph glyph-name="uni1EAD" unicode="&#x1ead;" 
d="M47 545q0 229 135 394q144 177 367 177q163 0 258 -115q56 103 154 103q159 0 159 -234v-649q0 -235 -159 -235q-104 0 -154 112q-100 -123 -270 -123q-222 0 -362 178q-128 164 -128 392zM247 1303q0 62 62 110l223 174q42 33 84 33t84 -33l223 -174q62 -48 62 -110
q0 -105 -97 -105q-43 0 -94 31l-178 108l-178 -108q-51 -31 -94 -31q-97 0 -97 105zM381 549q0 -107 49 -180q57 -84 160 -84q101 0 158 85q49 74 49 179q0 103 -51 176q-57 82 -156 82q-101 0 -158 -81q-51 -72 -51 -177zM434 -317q0 78 54.5 132t132.5 54
q77 0 130.5 -54.5t53.5 -131.5q0 -78 -53 -132t-131 -54q-79 0 -133 53.5t-54 132.5z" />
    <glyph glyph-name="uni1EAE" unicode="&#x1eae;" horiz-adv-x="1280" 
d="M0 137q0 53 16 96l379 1029q79 215 254 215q176 0 244 -193l369 -1046q22 -62 22 -105q0 -71 -46.5 -113.5t-117.5 -42.5q-125 0 -174 162l-41 135h-538l-50 -147q-51 -150 -159 -150q-69 0 -113.5 45.5t-44.5 114.5zM314 1797q0 112 107 112q52 0 100 -66.5t131 -66.5
q84 0 131 66.5t98 66.5q109 0 109 -112q0 -116 -115 -188q-100 -62 -223 -62q-122 0 -222 63q-116 72 -116 187zM461 580h348l-168 540zM498 2070q0 42 35 90l149 205q48 66 117 66q53 0 91 -35t38 -88q0 -57 -53 -115l-156 -172q-57 -63 -110 -63q-111 0 -111 112z" />
    <glyph glyph-name="uni1EAF" unicode="&#x1eaf;" 
d="M47 545q0 229 135 394q144 177 367 177q163 0 258 -115q56 103 154 103q159 0 159 -234v-649q0 -235 -159 -235q-104 0 -154 112q-100 -123 -270 -123q-222 0 -362 178q-128 164 -128 392zM284 1473q0 112 107 112q52 0 100 -66.5t131 -66.5q84 0 131 66.5t98 66.5
q109 0 109 -112q0 -116 -115 -188q-100 -62 -223 -62q-122 0 -222 63q-116 72 -116 187zM381 549q0 -107 49 -180q57 -84 160 -84q101 0 158 85q49 74 49 179q0 103 -51 176q-57 82 -156 82q-101 0 -158 -81q-51 -72 -51 -177zM469 1746q0 42 35 90l149 205q48 66 117 66
q53 0 91 -35t38 -88q0 -57 -53 -115l-156 -172q-57 -63 -110 -63q-111 0 -111 112z" />
    <glyph glyph-name="uni1EB0" unicode="&#x1eb0;" horiz-adv-x="1280" 
d="M0 137q0 53 16 96l379 1029q79 215 254 215q176 0 244 -193l369 -1046q22 -62 22 -105q0 -71 -46.5 -113.5t-117.5 -42.5q-125 0 -174 162l-41 135h-538l-50 -147q-51 -150 -159 -150q-69 0 -113.5 45.5t-44.5 114.5zM314 1797q0 112 107 112q52 0 100 -66.5t131 -66.5
q84 0 131 66.5t98 66.5q109 0 109 -112q0 -116 -115 -188q-100 -62 -223 -62q-122 0 -222 63q-116 72 -116 187zM393 2305q0 56 36.5 91.5t92.5 35.5q68 0 116 -66l150 -205q35 -48 35 -90q0 -112 -111 -112q-53 0 -110 63l-156 172q-53 58 -53 111zM461 580h348l-168 540z
" />
    <glyph glyph-name="uni1EB1" unicode="&#x1eb1;" 
d="M47 545q0 229 135 394q144 177 367 177q163 0 258 -115q56 103 154 103q159 0 159 -234v-649q0 -235 -159 -235q-104 0 -154 112q-100 -123 -270 -123q-222 0 -362 178q-128 164 -128 392zM284 1473q0 112 107 112q52 0 100 -66.5t131 -66.5q84 0 131 66.5t98 66.5
q109 0 109 -112q0 -116 -115 -188q-100 -62 -223 -62q-122 0 -222 63q-116 72 -116 187zM363 1980q0 56 36.5 91.5t92.5 35.5q68 0 116 -66l150 -205q35 -48 35 -90q0 -112 -111 -112q-53 0 -110 63l-156 172q-53 58 -53 111zM381 549q0 -107 49 -180q57 -84 160 -84
q101 0 158 85q49 74 49 179q0 103 -51 176q-57 82 -156 82q-101 0 -158 -81q-51 -72 -51 -177z" />
    <glyph glyph-name="uni1EB2" unicode="&#x1eb2;" horiz-adv-x="1280" 
d="M0 137q0 53 16 96l379 1029q79 215 254 215q176 0 244 -193l369 -1046q22 -62 22 -105q0 -71 -46.5 -113.5t-117.5 -42.5q-125 0 -174 162l-41 135h-538l-50 -147q-51 -150 -159 -150q-69 0 -113.5 45.5t-44.5 114.5zM314 1797q0 112 107 112q52 0 100 -66.5t131 -66.5
q84 0 131 66.5t98 66.5q109 0 109 -112q0 -116 -115 -188q-100 -62 -223 -62q-122 0 -222 63q-116 72 -116 187zM400 2186q0 88 76 145q71 54 172 54q106 0 181 -78q68 -71 68 -155q0 -63 -41 -115t-102 -64q0 -28 -31.5 -52.5t-65.5 -24.5t-70 21.5t-36 48.5v48q0 21 6 32
t65 30q50 16 50 63q0 50 -53 50q-36 0 -83 -39t-69 -39q-30 0 -50 27q-17 22 -17 48zM461 580h348l-168 540z" />
    <glyph glyph-name="uni1EB3" unicode="&#x1eb3;" 
d="M47 545q0 229 135 394q144 177 367 177q163 0 258 -115q56 103 154 103q159 0 159 -234v-649q0 -235 -159 -235q-104 0 -154 112q-100 -123 -270 -123q-222 0 -362 178q-128 164 -128 392zM284 1473q0 112 107 112q52 0 100 -66.5t131 -66.5q84 0 131 66.5t98 66.5
q109 0 109 -112q0 -116 -115 -188q-100 -62 -223 -62q-122 0 -222 63q-116 72 -116 187zM370 1862q0 88 76 145q71 54 172 54q106 0 181 -78q68 -71 68 -155q0 -63 -41 -115t-102 -64q0 -28 -31.5 -52.5t-65.5 -24.5t-70 21.5t-36 48.5v48q0 21 6 32t65 30q50 16 50 63
q0 50 -53 50q-36 0 -83 -39t-69 -39q-30 0 -50 27q-17 22 -17 48zM381 549q0 -107 49 -180q57 -84 160 -84q101 0 158 85q49 74 49 179q0 103 -51 176q-57 82 -156 82q-101 0 -158 -81q-51 -72 -51 -177z" />
    <glyph glyph-name="uni1EB4" unicode="&#x1eb4;" horiz-adv-x="1280" 
d="M0 137q0 53 16 96l379 1029q79 215 254 215q176 0 244 -193l369 -1046q22 -62 22 -105q0 -71 -46.5 -113.5t-117.5 -42.5q-125 0 -174 162l-41 135h-538l-50 -147q-51 -150 -159 -150q-69 0 -113.5 45.5t-44.5 114.5zM314 1797q0 112 107 112q52 0 100 -66.5t131 -66.5
q84 0 131 66.5t98 66.5q109 0 109 -112q0 -116 -115 -188q-100 -62 -223 -62q-122 0 -222 63q-116 72 -116 187zM420 2134q0 75 48.5 127t123.5 52q33 0 95 -19.5t94 -19.5q27 0 70 18.5t61 18.5q90 0 90 -111q0 -74 -49 -126t-123 -52q-33 0 -95.5 19.5t-95.5 19.5
q-27 0 -69.5 -17.5t-59.5 -17.5q-90 0 -90 108zM461 580h348l-168 540z" />
    <glyph glyph-name="uni1EB5" unicode="&#x1eb5;" 
d="M47 545q0 229 135 394q144 177 367 177q163 0 258 -115q56 103 154 103q159 0 159 -234v-649q0 -235 -159 -235q-104 0 -154 112q-100 -123 -270 -123q-222 0 -362 178q-128 164 -128 392zM284 1473q0 112 107 112q52 0 100 -66.5t131 -66.5q84 0 131 66.5t98 66.5
q109 0 109 -112q0 -116 -115 -188q-100 -62 -223 -62q-122 0 -222 63q-116 72 -116 187zM381 549q0 -107 49 -180q57 -84 160 -84q101 0 158 85q49 74 49 179q0 103 -51 176q-57 82 -156 82q-101 0 -158 -81q-51 -72 -51 -177zM390 1810q0 75 48.5 127t123.5 52
q33 0 95 -19.5t94 -19.5q27 0 70 18.5t61 18.5q90 0 90 -111q0 -74 -49 -126t-123 -52q-33 0 -95.5 19.5t-95.5 19.5q-27 0 -69.5 -17.5t-59.5 -17.5q-90 0 -90 108z" />
    <glyph glyph-name="uni1EB6" unicode="&#x1eb6;" horiz-adv-x="1280" 
d="M0 137q0 53 16 96l379 1029q79 215 254 215q176 0 244 -193l369 -1046q22 -62 22 -105q0 -71 -46.5 -113.5t-117.5 -42.5q-125 0 -174 162l-41 135h-538l-50 -147q-51 -150 -159 -150q-69 0 -113.5 45.5t-44.5 114.5zM314 1797q0 112 107 112q52 0 100 -66.5t131 -66.5
q84 0 131 66.5t98 66.5q109 0 109 -112q0 -116 -115 -188q-100 -62 -223 -62q-122 0 -222 63q-116 72 -116 187zM458 -317q0 78 54.5 132t132.5 54q77 0 130.5 -54.5t53.5 -131.5q0 -78 -53 -132t-131 -54q-79 0 -133 53.5t-54 132.5zM461 580h348l-168 540z" />
    <glyph glyph-name="uni1EB7" unicode="&#x1eb7;" 
d="M47 545q0 229 135 394q144 177 367 177q163 0 258 -115q56 103 154 103q159 0 159 -234v-649q0 -235 -159 -235q-104 0 -154 112q-100 -123 -270 -123q-222 0 -362 178q-128 164 -128 392zM284 1473q0 112 107 112q52 0 100 -66.5t131 -66.5q84 0 131 66.5t98 66.5
q109 0 109 -112q0 -116 -115 -188q-100 -62 -223 -62q-122 0 -222 63q-116 72 -116 187zM381 549q0 -107 49 -180q57 -84 160 -84q101 0 158 85q49 74 49 179q0 103 -51 176q-57 82 -156 82q-101 0 -158 -81q-51 -72 -51 -177zM434 -317q0 78 54.5 132t132.5 54
q77 0 130.5 -54.5t53.5 -131.5q0 -78 -53 -132t-131 -54q-79 0 -133 53.5t-54 132.5z" />
    <glyph glyph-name="uni1EB8" unicode="&#x1eb8;" horiz-adv-x="1034" 
d="M129 209v1014q0 130 50 181.5t179 51.5h373q236 0 236 -156q0 -153 -236 -153h-270v-260h233q236 0 236 -154q0 -153 -236 -153h-233v-273h280q236 0 236 -153q0 -154 -236 -154h-387q-125 0 -173 41q-52 45 -52 168zM348 -317q0 78 54.5 132t132.5 54q77 0 130.5 -54.5
t53.5 -131.5q0 -78 -53 -132t-131 -54q-79 0 -133 53.5t-54 132.5z" />
    <glyph glyph-name="uni1EB9" unicode="&#x1eb9;" horiz-adv-x="1147" 
d="M47 543q0 242 149 407q155 170 394 170q225 0 375.5 -154t150.5 -380q0 -81 -44 -110q-33 -21 -116 -21h-577q23 -193 244 -193q80 0 199.5 52.5t140.5 52.5q56 0 92.5 -34.5t36.5 -90.5q0 -103 -144 -187t-342 -84q-243 0 -401 164t-158 408zM375 666h426
q-6 83 -66 137.5t-143 54.5q-85 0 -143 -53.5t-74 -138.5zM414 -317q0 78 54.5 132t132.5 54q77 0 130.5 -54.5t53.5 -131.5q0 -78 -53 -132t-131 -54q-79 0 -133 53.5t-54 132.5z" />
    <glyph glyph-name="uni1EBA" unicode="&#x1eba;" horiz-adv-x="1034" 
d="M129 209v1014q0 130 50 181.5t179 51.5h373q236 0 236 -156q0 -153 -236 -153h-270v-260h233q236 0 236 -154q0 -153 -236 -153h-233v-273h280q236 0 236 -153q0 -154 -236 -154h-387q-125 0 -173 41q-52 45 -52 168zM291 1839q0 88 76 145q71 54 172 54q106 0 181 -78
q68 -71 68 -155q0 -63 -41 -115t-102 -64q0 -28 -31.5 -52.5t-65.5 -24.5t-70 21.5t-36 48.5v48q0 21 6 32t65 30q50 16 50 63q0 50 -53 50q-36 0 -83 -39t-69 -39q-30 0 -50 27q-17 22 -17 48z" />
    <glyph glyph-name="uni1EBB" unicode="&#x1ebb;" horiz-adv-x="1147" 
d="M47 543q0 242 149 407q155 170 394 170q225 0 375.5 -154t150.5 -380q0 -81 -44 -110q-33 -21 -116 -21h-577q23 -193 244 -193q80 0 199.5 52.5t140.5 52.5q56 0 92.5 -34.5t36.5 -90.5q0 -103 -144 -187t-342 -84q-243 0 -401 164t-158 408zM350 1482q0 88 76 145
q71 54 172 54q106 0 181 -78q68 -71 68 -155q0 -63 -41 -115t-102 -64q0 -28 -31.5 -52.5t-65.5 -24.5t-70 21.5t-36 48.5v48q0 21 6 32t65 30q50 16 50 63q0 50 -53 50q-36 0 -83 -39t-69 -39q-30 0 -50 27q-17 22 -17 48zM375 666h426q-6 83 -66 137.5t-143 54.5
q-85 0 -143 -53.5t-74 -138.5z" />
    <glyph glyph-name="uni1EBC" unicode="&#x1ebc;" horiz-adv-x="1034" 
d="M129 209v1014q0 130 50 181.5t179 51.5h373q236 0 236 -156q0 -153 -236 -153h-270v-260h233q236 0 236 -154q0 -153 -236 -153h-233v-273h280q236 0 236 -153q0 -154 -236 -154h-387q-125 0 -173 41q-52 45 -52 168zM253 1712q0 75 48.5 127t123.5 52q33 0 95 -19.5
t94 -19.5q27 0 70 18.5t61 18.5q90 0 90 -111q0 -74 -49 -126t-123 -52q-33 0 -95.5 19.5t-95.5 19.5q-27 0 -69.5 -17.5t-59.5 -17.5q-90 0 -90 108z" />
    <glyph glyph-name="uni1EBD" unicode="&#x1ebd;" horiz-adv-x="1147" 
d="M47 543q0 242 149 407q155 170 394 170q225 0 375.5 -154t150.5 -380q0 -81 -44 -110q-33 -21 -116 -21h-577q23 -193 244 -193q80 0 199.5 52.5t140.5 52.5q56 0 92.5 -34.5t36.5 -90.5q0 -103 -144 -187t-342 -84q-243 0 -401 164t-158 408zM306 1341q0 75 48.5 127
t123.5 52q33 0 95 -19.5t94 -19.5q27 0 70 18.5t61 18.5q90 0 90 -111q0 -74 -49 -126t-123 -52q-33 0 -95.5 19.5t-95.5 19.5q-27 0 -69.5 -17.5t-59.5 -17.5q-90 0 -90 108zM375 666h426q-6 83 -66 137.5t-143 54.5q-85 0 -143 -53.5t-74 -138.5z" />
    <glyph glyph-name="uni1EBE" unicode="&#x1ebe;" horiz-adv-x="1034" 
d="M129 209v1014q0 130 50 181.5t179 51.5h373q236 0 236 -156q0 -153 -236 -153h-270v-260h233q236 0 236 -154q0 -153 -236 -153h-233v-273h280q236 0 236 -153q0 -154 -236 -154h-387q-125 0 -173 41q-52 45 -52 168zM162 1624q0 62 62 110l223 174q42 33 84 33t84 -33
l223 -174q62 -48 62 -110q0 -105 -97 -105q-43 0 -94 31l-178 108l-178 -108q-51 -31 -94 -31q-97 0 -97 105zM234 2067q0 42 35 90l149 205q48 66 117 66q53 0 91 -35t38 -88q0 -57 -53 -115l-156 -172q-57 -63 -110 -63q-111 0 -111 112z" />
    <glyph glyph-name="uni1EBF" unicode="&#x1ebf;" horiz-adv-x="1147" 
d="M47 543q0 242 149 407q155 170 394 170q225 0 375.5 -154t150.5 -380q0 -81 -44 -110q-33 -21 -116 -21h-577q23 -193 244 -193q80 0 199.5 52.5t140.5 52.5q56 0 92.5 -34.5t36.5 -90.5q0 -103 -144 -187t-342 -84q-243 0 -401 164t-158 408zM237 1303q0 62 62 110
l223 174q42 33 84 33t84 -33l223 -174q62 -48 62 -110q0 -105 -97 -105q-43 0 -94 31l-178 108l-178 -108q-51 -31 -94 -31q-97 0 -97 105zM309 1746q0 42 35 90l149 205q48 66 117 66q53 0 91 -35t38 -88q0 -57 -53 -115l-156 -172q-57 -63 -110 -63q-111 0 -111 112z
M375 666h426q-6 83 -66 137.5t-143 54.5q-85 0 -143 -53.5t-74 -138.5z" />
    <glyph glyph-name="uni1EC0" unicode="&#x1ec0;" horiz-adv-x="1034" 
d="M129 209v1014q0 130 50 181.5t179 51.5h373q236 0 236 -156q0 -153 -236 -153h-270v-260h233q236 0 236 -154q0 -153 -236 -153h-233v-273h280q236 0 236 -153q0 -154 -236 -154h-387q-125 0 -173 41q-52 45 -52 168zM162 1624q0 62 62 110l223 174q42 33 84 33t84 -33
l223 -174q62 -48 62 -110q0 -105 -97 -105q-43 0 -94 31l-178 108l-178 -108q-51 -31 -94 -31q-97 0 -97 105zM399 2301q0 56 36.5 91.5t92.5 35.5q68 0 116 -66l150 -205q35 -48 35 -90q0 -112 -111 -112q-53 0 -110 63l-156 172q-53 58 -53 111z" />
    <glyph glyph-name="uni1EC1" unicode="&#x1ec1;" horiz-adv-x="1147" 
d="M47 543q0 242 149 407q155 170 394 170q225 0 375.5 -154t150.5 -380q0 -81 -44 -110q-33 -21 -116 -21h-577q23 -193 244 -193q80 0 199.5 52.5t140.5 52.5q56 0 92.5 -34.5t36.5 -90.5q0 -103 -144 -187t-342 -84q-243 0 -401 164t-158 408zM237 1303q0 62 62 110
l223 174q42 33 84 33t84 -33l223 -174q62 -48 62 -110q0 -105 -97 -105q-43 0 -94 31l-178 108l-178 -108q-51 -31 -94 -31q-97 0 -97 105zM375 666h426q-6 83 -66 137.5t-143 54.5q-85 0 -143 -53.5t-74 -138.5zM473 1980q0 56 36.5 91.5t92.5 35.5q68 0 116 -66l150 -205
q35 -48 35 -90q0 -112 -111 -112q-53 0 -110 63l-156 172q-53 58 -53 111z" />
    <glyph glyph-name="uni1EC2" unicode="&#x1ec2;" horiz-adv-x="1034" 
d="M129 209v1014q0 130 50 181.5t179 51.5h373q236 0 236 -156q0 -153 -236 -153h-270v-260h233q236 0 236 -154q0 -153 -236 -153h-233v-273h280q236 0 236 -153q0 -154 -236 -154h-387q-125 0 -173 41q-52 45 -52 168zM162 1624q0 62 62 110l223 174q42 33 84 33t84 -33
l223 -174q62 -48 62 -110q0 -105 -97 -105q-43 0 -94 31l-178 108l-178 -108q-51 -31 -94 -31q-97 0 -97 105zM527 2183q0 88 76 145q71 54 172 54q106 0 181 -78q68 -71 68 -155q0 -63 -41 -115t-102 -64q0 -28 -31.5 -52.5t-65.5 -24.5t-70 21.5t-36 48.5v48q0 21 6 32
t65 30q50 16 50 63q0 50 -53 50q-36 0 -83 -39t-69 -39q-30 0 -50 27q-17 22 -17 48z" />
    <glyph glyph-name="uni1EC3" unicode="&#x1ec3;" horiz-adv-x="1147" 
d="M47 543q0 242 149 407q155 170 394 170q225 0 375.5 -154t150.5 -380q0 -81 -44 -110q-33 -21 -116 -21h-577q23 -193 244 -193q80 0 199.5 52.5t140.5 52.5q56 0 92.5 -34.5t36.5 -90.5q0 -103 -144 -187t-342 -84q-243 0 -401 164t-158 408zM237 1303q0 62 62 110
l223 174q42 33 84 33t84 -33l223 -174q62 -48 62 -110q0 -105 -97 -105q-43 0 -94 31l-178 108l-178 -108q-51 -31 -94 -31q-97 0 -97 105zM375 666h426q-6 83 -66 137.5t-143 54.5q-85 0 -143 -53.5t-74 -138.5zM601 1862q0 88 76 145q71 54 172 54q106 0 181 -78
q68 -71 68 -155q0 -63 -41 -115t-102 -64q0 -28 -31.5 -52.5t-65.5 -24.5t-70 21.5t-36 48.5v48q0 21 6 32t65 30q50 16 50 63q0 50 -53 50q-36 0 -83 -39t-69 -39q-30 0 -50 27q-17 22 -17 48z" />
    <glyph glyph-name="uni1EC4" unicode="&#x1ec4;" horiz-adv-x="1034" 
d="M129 209v1014q0 130 50 181.5t179 51.5h373q236 0 236 -156q0 -153 -236 -153h-270v-260h233q236 0 236 -154q0 -153 -236 -153h-233v-273h280q236 0 236 -153q0 -154 -236 -154h-387q-125 0 -173 41q-52 45 -52 168zM162 1624q0 62 62 110l223 174q42 33 84 33t84 -33
l223 -174q62 -48 62 -110q0 -105 -97 -105q-43 0 -94 31l-178 108l-178 -108q-51 -31 -94 -31q-97 0 -97 105zM305 2131q0 75 48.5 127t123.5 52q33 0 95 -19.5t94 -19.5q27 0 70 18.5t61 18.5q90 0 90 -111q0 -74 -49 -126t-123 -52q-33 0 -95.5 19.5t-95.5 19.5
q-27 0 -69.5 -17.5t-59.5 -17.5q-90 0 -90 108z" />
    <glyph glyph-name="uni1EC5" unicode="&#x1ec5;" horiz-adv-x="1147" 
d="M47 543q0 242 149 407q155 170 394 170q225 0 375.5 -154t150.5 -380q0 -81 -44 -110q-33 -21 -116 -21h-577q23 -193 244 -193q80 0 199.5 52.5t140.5 52.5q56 0 92.5 -34.5t36.5 -90.5q0 -103 -144 -187t-342 -84q-243 0 -401 164t-158 408zM237 1303q0 62 62 110
l223 174q42 33 84 33t84 -33l223 -174q62 -48 62 -110q0 -105 -97 -105q-43 0 -94 31l-178 108l-178 -108q-51 -31 -94 -31q-97 0 -97 105zM375 666h426q-6 83 -66 137.5t-143 54.5q-85 0 -143 -53.5t-74 -138.5zM380 1810q0 75 48.5 127t123.5 52q33 0 95 -19.5t94 -19.5
q27 0 70 18.5t61 18.5q90 0 90 -111q0 -74 -49 -126t-123 -52q-33 0 -95.5 19.5t-95.5 19.5q-27 0 -69.5 -17.5t-59.5 -17.5q-90 0 -90 108z" />
    <glyph glyph-name="uni1EC6" unicode="&#x1ec6;" horiz-adv-x="1034" 
d="M129 209v1014q0 130 50 181.5t179 51.5h373q236 0 236 -156q0 -153 -236 -153h-270v-260h233q236 0 236 -154q0 -153 -236 -153h-233v-273h280q236 0 236 -153q0 -154 -236 -154h-387q-125 0 -173 41q-52 45 -52 168zM162 1624q0 62 62 110l223 174q42 33 84 33t84 -33
l223 -174q62 -48 62 -110q0 -105 -97 -105q-43 0 -94 31l-178 108l-178 -108q-51 -31 -94 -31q-97 0 -97 105zM348 -317q0 78 54.5 132t132.5 54q77 0 130.5 -54.5t53.5 -131.5q0 -78 -53 -132t-131 -54q-79 0 -133 53.5t-54 132.5z" />
    <glyph glyph-name="uni1EC7" unicode="&#x1ec7;" horiz-adv-x="1147" 
d="M47 543q0 242 149 407q155 170 394 170q225 0 375.5 -154t150.5 -380q0 -81 -44 -110q-33 -21 -116 -21h-577q23 -193 244 -193q80 0 199.5 52.5t140.5 52.5q56 0 92.5 -34.5t36.5 -90.5q0 -103 -144 -187t-342 -84q-243 0 -401 164t-158 408zM237 1303q0 62 62 110
l223 174q42 33 84 33t84 -33l223 -174q62 -48 62 -110q0 -105 -97 -105q-43 0 -94 31l-178 108l-178 -108q-51 -31 -94 -31q-97 0 -97 105zM375 666h426q-6 83 -66 137.5t-143 54.5q-85 0 -143 -53.5t-74 -138.5zM414 -317q0 78 54.5 132t132.5 54q77 0 130.5 -54.5
t53.5 -131.5q0 -78 -53 -132t-131 -54q-79 0 -133 53.5t-54 132.5z" />
    <glyph glyph-name="uni1EC8" unicode="&#x1ec8;" horiz-adv-x="606" 
d="M61 1839q0 88 76 145q71 54 172 54q106 0 181 -78q68 -71 68 -155q0 -63 -41 -115t-102 -64q0 -28 -31.5 -52.5t-65.5 -24.5t-70 21.5t-36 48.5v48q0 21 6 32t65 30q50 16 50 63q0 50 -53 50q-36 0 -83 -39t-69 -39q-30 0 -50 27q-17 22 -17 48zM137 217v1022
q0 236 166 236t166 -236v-1022q0 -235 -166 -235t-166 235z" />
    <glyph glyph-name="uni1EC9" unicode="&#x1ec9;" horiz-adv-x="563" 
d="M40 1482q0 88 76 145q71 54 172 54q106 0 181 -78q68 -71 68 -155q0 -63 -41 -115t-102 -64q0 -28 -31.5 -52.5t-65.5 -24.5t-70 21.5t-36 48.5v48q0 21 6 32t65 30q50 16 50 63q0 50 -53 50q-36 0 -83 -39t-69 -39q-30 0 -50 27q-17 22 -17 48zM121 221v649
q0 234 162 234q159 0 159 -234v-649q0 -235 -159 -235q-162 0 -162 235z" />
    <glyph glyph-name="uni1ECA" unicode="&#x1eca;" horiz-adv-x="606" 
d="M118 -317q0 78 54.5 132t132.5 54q77 0 130.5 -54.5t53.5 -131.5q0 -78 -53 -132t-131 -54q-79 0 -133 53.5t-54 132.5zM137 217v1022q0 236 166 236t166 -236v-1022q0 -235 -166 -235t-166 235z" />
    <glyph glyph-name="uni1ECB" unicode="&#x1ecb;" horiz-adv-x="563" 
d="M94 -317q0 78 54.5 132t132.5 54q77 0 130.5 -54.5t53.5 -131.5q0 -78 -53 -132t-131 -54q-79 0 -133 53.5t-54 132.5zM96 1376q0 78 54.5 132.5t132.5 54.5q77 0 130.5 -55t53.5 -132q0 -78 -53 -132t-131 -54q-79 0 -133 53.5t-54 132.5zM121 221v649q0 234 162 234
q159 0 159 -234v-649q0 -235 -159 -235q-162 0 -162 235z" />
    <glyph glyph-name="uni1ECC" unicode="&#x1ecc;" horiz-adv-x="1546" 
d="M57 727q0 336 187 548q197 222 528 222q332 0 529 -222q188 -212 188 -548q0 -337 -188 -549q-196 -221 -529 -221t-528 221q-187 212 -187 549zM418 723q0 -185 82 -307q96 -142 272 -142t272 142q82 122 82 307q0 189 -80 313q-94 146 -274 146t-274 -146
q-80 -124 -80 -313zM582 -317q0 78 54.5 132t132.5 54q77 0 130.5 -54.5t53.5 -131.5q0 -78 -53 -132t-131 -54q-79 0 -133 53.5t-54 132.5z" />
    <glyph glyph-name="uni1ECD" unicode="&#x1ecd;" horiz-adv-x="1188" 
d="M47 545q0 247 149 409q153 168 398 168q246 0 398 -167q147 -162 147 -410t-147 -410q-152 -168 -398 -168q-245 0 -398 168q-149 163 -149 410zM381 549q0 -111 50 -187q57 -88 163 -88q105 0 163 88q50 76 50 187q0 107 -52 183q-59 87 -161 87q-104 0 -162 -86
q-51 -76 -51 -184zM411 -317q0 78 54.5 132t132.5 54q77 0 130.5 -54.5t53.5 -131.5q0 -78 -53 -132t-131 -54q-79 0 -133 53.5t-54 132.5z" />
    <glyph glyph-name="uni1ECE" unicode="&#x1ece;" horiz-adv-x="1546" 
d="M57 727q0 336 187 548q197 222 528 222q332 0 529 -222q188 -212 188 -548q0 -337 -188 -549q-196 -221 -529 -221t-528 221q-187 212 -187 549zM418 723q0 -185 82 -307q96 -142 272 -142t272 142q82 122 82 307q0 189 -80 313q-94 146 -274 146t-274 -146
q-80 -124 -80 -313zM541 1839q0 88 76 145q71 54 172 54q106 0 181 -78q68 -71 68 -155q0 -63 -41 -115t-102 -64q0 -28 -31.5 -52.5t-65.5 -24.5t-70 21.5t-36 48.5v48q0 21 6 32t65 30q50 16 50 63q0 50 -53 50q-36 0 -83 -39t-69 -39q-30 0 -50 27q-17 22 -17 48z" />
    <glyph glyph-name="uni1ECF" unicode="&#x1ecf;" horiz-adv-x="1188" 
d="M47 545q0 247 149 409q153 168 398 168q246 0 398 -167q147 -162 147 -410t-147 -410q-152 -168 -398 -168q-245 0 -398 168q-149 163 -149 410zM350 1482q0 88 76 145q71 54 172 54q106 0 181 -78q68 -71 68 -155q0 -63 -41 -115t-102 -64q0 -28 -31.5 -52.5
t-65.5 -24.5t-70 21.5t-36 48.5v48q0 21 6 32t65 30q50 16 50 63q0 50 -53 50q-36 0 -83 -39t-69 -39q-30 0 -50 27q-17 22 -17 48zM381 549q0 -111 50 -187q57 -88 163 -88q105 0 163 88q50 76 50 187q0 107 -52 183q-59 87 -161 87q-104 0 -162 -86q-51 -76 -51 -184z" />
    <glyph glyph-name="uni1ED0" unicode="&#x1ed0;" horiz-adv-x="1546" 
d="M57 727q0 336 187 548q197 222 528 222q332 0 529 -222q188 -212 188 -548q0 -337 -188 -549q-196 -221 -529 -221t-528 221q-187 212 -187 549zM402 1624q0 62 62 110l223 174q42 33 84 33t84 -33l223 -174q62 -48 62 -110q0 -105 -97 -105q-43 0 -94 31l-178 108
l-178 -108q-51 -31 -94 -31q-97 0 -97 105zM418 723q0 -185 82 -307q96 -142 272 -142t272 142q82 122 82 307q0 189 -80 313q-94 146 -274 146t-274 -146q-80 -124 -80 -313zM474 2067q0 42 35 90l149 205q48 66 117 66q53 0 91 -35t38 -88q0 -57 -53 -115l-156 -172
q-57 -63 -110 -63q-111 0 -111 112z" />
    <glyph glyph-name="uni1ED1" unicode="&#x1ed1;" horiz-adv-x="1188" 
d="M47 545q0 247 149 409q153 168 398 168q246 0 398 -167q147 -162 147 -410t-147 -410q-152 -168 -398 -168q-245 0 -398 168q-149 163 -149 410zM225 1303q0 62 62 110l223 174q42 33 84 33t84 -33l223 -174q62 -48 62 -110q0 -105 -97 -105q-43 0 -94 31l-178 108
l-178 -108q-51 -31 -94 -31q-97 0 -97 105zM297 1746q0 42 35 90l149 205q48 66 117 66q53 0 91 -35t38 -88q0 -57 -53 -115l-156 -172q-57 -63 -110 -63q-111 0 -111 112zM381 549q0 -111 50 -187q57 -88 163 -88q105 0 163 88q50 76 50 187q0 107 -52 183q-59 87 -161 87
q-104 0 -162 -86q-51 -76 -51 -184z" />
    <glyph glyph-name="uni1ED2" unicode="&#x1ed2;" horiz-adv-x="1546" 
d="M57 727q0 336 187 548q197 222 528 222q332 0 529 -222q188 -212 188 -548q0 -337 -188 -549q-196 -221 -529 -221t-528 221q-187 212 -187 549zM402 1624q0 62 62 110l223 174q42 33 84 33t84 -33l223 -174q62 -48 62 -110q0 -105 -97 -105q-43 0 -94 31l-178 108
l-178 -108q-51 -31 -94 -31q-97 0 -97 105zM418 723q0 -185 82 -307q96 -142 272 -142t272 142q82 122 82 307q0 189 -80 313q-94 146 -274 146t-274 -146q-80 -124 -80 -313zM639 2301q0 56 36.5 91.5t92.5 35.5q68 0 116 -66l150 -205q35 -48 35 -90q0 -112 -111 -112
q-53 0 -110 63l-156 172q-53 58 -53 111z" />
    <glyph glyph-name="uni1ED3" unicode="&#x1ed3;" horiz-adv-x="1188" 
d="M47 545q0 247 149 409q153 168 398 168q246 0 398 -167q147 -162 147 -410t-147 -410q-152 -168 -398 -168q-245 0 -398 168q-149 163 -149 410zM225 1303q0 62 62 110l223 174q42 33 84 33t84 -33l223 -174q62 -48 62 -110q0 -105 -97 -105q-43 0 -94 31l-178 108
l-178 -108q-51 -31 -94 -31q-97 0 -97 105zM381 549q0 -111 50 -187q57 -88 163 -88q105 0 163 88q50 76 50 187q0 107 -52 183q-59 87 -161 87q-104 0 -162 -86q-51 -76 -51 -184zM461 1980q0 56 36.5 91.5t92.5 35.5q68 0 116 -66l150 -205q35 -48 35 -90
q0 -112 -111 -112q-53 0 -110 63l-156 172q-53 58 -53 111z" />
    <glyph glyph-name="uni1ED4" unicode="&#x1ed4;" horiz-adv-x="1546" 
d="M57 727q0 336 187 548q197 222 528 222q332 0 529 -222q188 -212 188 -548q0 -337 -188 -549q-196 -221 -529 -221t-528 221q-187 212 -187 549zM402 1624q0 62 62 110l223 174q42 33 84 33t84 -33l223 -174q62 -48 62 -110q0 -105 -97 -105q-43 0 -94 31l-178 108
l-178 -108q-51 -31 -94 -31q-97 0 -97 105zM418 723q0 -185 82 -307q96 -142 272 -142t272 142q82 122 82 307q0 189 -80 313q-94 146 -274 146t-274 -146q-80 -124 -80 -313zM767 2183q0 88 76 145q71 54 172 54q106 0 181 -78q68 -71 68 -155q0 -63 -41 -115t-102 -64
q0 -28 -31.5 -52.5t-65.5 -24.5t-70 21.5t-36 48.5v48q0 21 6 32t65 30q50 16 50 63q0 50 -53 50q-36 0 -83 -39t-69 -39q-30 0 -50 27q-17 22 -17 48z" />
    <glyph glyph-name="uni1ED5" unicode="&#x1ed5;" horiz-adv-x="1188" 
d="M47 545q0 247 149 409q153 168 398 168q246 0 398 -167q147 -162 147 -410t-147 -410q-152 -168 -398 -168q-245 0 -398 168q-149 163 -149 410zM225 1303q0 62 62 110l223 174q42 33 84 33t84 -33l223 -174q62 -48 62 -110q0 -105 -97 -105q-43 0 -94 31l-178 108
l-178 -108q-51 -31 -94 -31q-97 0 -97 105zM381 549q0 -111 50 -187q57 -88 163 -88q105 0 163 88q50 76 50 187q0 107 -52 183q-59 87 -161 87q-104 0 -162 -86q-51 -76 -51 -184zM589 1862q0 88 76 145q71 54 172 54q106 0 181 -78q68 -71 68 -155q0 -63 -41 -115
t-102 -64q0 -28 -31.5 -52.5t-65.5 -24.5t-70 21.5t-36 48.5v48q0 21 6 32t65 30q50 16 50 63q0 50 -53 50q-36 0 -83 -39t-69 -39q-30 0 -50 27q-17 22 -17 48z" />
    <glyph glyph-name="uni1ED6" unicode="&#x1ed6;" horiz-adv-x="1546" 
d="M57 727q0 336 187 548q197 222 528 222q332 0 529 -222q188 -212 188 -548q0 -337 -188 -549q-196 -221 -529 -221t-528 221q-187 212 -187 549zM402 1624q0 62 62 110l223 174q42 33 84 33t84 -33l223 -174q62 -48 62 -110q0 -105 -97 -105q-43 0 -94 31l-178 108
l-178 -108q-51 -31 -94 -31q-97 0 -97 105zM418 723q0 -185 82 -307q96 -142 272 -142t272 142q82 122 82 307q0 189 -80 313q-94 146 -274 146t-274 -146q-80 -124 -80 -313zM545 2131q0 75 48.5 127t123.5 52q33 0 95 -19.5t94 -19.5q27 0 70 18.5t61 18.5q90 0 90 -111
q0 -74 -49 -126t-123 -52q-33 0 -95.5 19.5t-95.5 19.5q-27 0 -69.5 -17.5t-59.5 -17.5q-90 0 -90 108z" />
    <glyph glyph-name="uni1ED7" unicode="&#x1ed7;" horiz-adv-x="1188" 
d="M47 545q0 247 149 409q153 168 398 168q246 0 398 -167q147 -162 147 -410t-147 -410q-152 -168 -398 -168q-245 0 -398 168q-149 163 -149 410zM225 1303q0 62 62 110l223 174q42 33 84 33t84 -33l223 -174q62 -48 62 -110q0 -105 -97 -105q-43 0 -94 31l-178 108
l-178 -108q-51 -31 -94 -31q-97 0 -97 105zM368 1810q0 75 48.5 127t123.5 52q33 0 95 -19.5t94 -19.5q27 0 70 18.5t61 18.5q90 0 90 -111q0 -74 -49 -126t-123 -52q-33 0 -95.5 19.5t-95.5 19.5q-27 0 -69.5 -17.5t-59.5 -17.5q-90 0 -90 108zM381 549q0 -111 50 -187
q57 -88 163 -88q105 0 163 88q50 76 50 187q0 107 -52 183q-59 87 -161 87q-104 0 -162 -86q-51 -76 -51 -184z" />
    <glyph glyph-name="uni1ED8" unicode="&#x1ed8;" horiz-adv-x="1546" 
d="M57 727q0 336 187 548q197 222 528 222q332 0 529 -222q188 -212 188 -548q0 -337 -188 -549q-196 -221 -529 -221t-528 221q-187 212 -187 549zM402 1624q0 62 62 110l223 174q42 33 84 33t84 -33l223 -174q62 -48 62 -110q0 -105 -97 -105q-43 0 -94 31l-178 108
l-178 -108q-51 -31 -94 -31q-97 0 -97 105zM418 723q0 -185 82 -307q96 -142 272 -142t272 142q82 122 82 307q0 189 -80 313q-94 146 -274 146t-274 -146q-80 -124 -80 -313zM582 -317q0 78 54.5 132t132.5 54q77 0 130.5 -54.5t53.5 -131.5q0 -78 -53 -132t-131 -54
q-79 0 -133 53.5t-54 132.5z" />
    <glyph glyph-name="uni1ED9" unicode="&#x1ed9;" horiz-adv-x="1188" 
d="M47 545q0 247 149 409q153 168 398 168q246 0 398 -167q147 -162 147 -410t-147 -410q-152 -168 -398 -168q-245 0 -398 168q-149 163 -149 410zM225 1303q0 62 62 110l223 174q42 33 84 33t84 -33l223 -174q62 -48 62 -110q0 -105 -97 -105q-43 0 -94 31l-178 108
l-178 -108q-51 -31 -94 -31q-97 0 -97 105zM381 549q0 -111 50 -187q57 -88 163 -88q105 0 163 88q50 76 50 187q0 107 -52 183q-59 87 -161 87q-104 0 -162 -86q-51 -76 -51 -184zM411 -317q0 78 54.5 132t132.5 54q77 0 130.5 -54.5t53.5 -131.5q0 -78 -53 -132t-131 -54
q-79 0 -133 53.5t-54 132.5z" />
    <glyph glyph-name="uni1EDA" unicode="&#x1eda;" horiz-adv-x="1576" 
d="M57 727q0 336 187 548q197 222 528 222q332 0 529 -222q188 -212 188 -548q0 -337 -188 -549q-196 -221 -529 -221t-528 221q-187 212 -187 549zM418 723q0 -185 82 -307q96 -142 272 -142t272 142q82 122 82 307q0 189 -80 313q-94 146 -274 146t-274 -146
q-80 -124 -80 -313zM608 1665q0 42 35 90l149 205q48 66 117 66q53 0 91 -35t38 -88q0 -57 -53 -115l-156 -172q-57 -63 -110 -63q-111 0 -111 112zM1192 1168q0 34 55 51q101 32 109 36q64 33 80 102q-14 -2 -29 -2q-63 0 -106 34q-48 36 -48 97q0 66 44.5 108t109.5 42
q86 0 136.5 -57.5t50.5 -144.5q0 -120 -95 -220q-97 -103 -216 -103q-91 0 -91 57z" />
    <glyph glyph-name="uni1EDB" unicode="&#x1edb;" horiz-adv-x="1207" 
d="M47 545q0 247 149 409q153 168 398 168q246 0 398 -167q147 -162 147 -410t-147 -410q-152 -168 -398 -168q-245 0 -398 168q-149 163 -149 410zM381 549q0 -111 50 -187q57 -88 163 -88q105 0 163 88q50 76 50 187q0 107 -52 183q-59 87 -161 87q-104 0 -162 -86
q-51 -76 -51 -184zM428 1294q0 42 35 90l149 205q48 66 117 66q53 0 91 -35t38 -88q0 -57 -53 -115l-156 -172q-57 -63 -110 -63q-111 0 -111 112zM803 863q0 34 55 51q101 32 109 36q64 33 80 102q-14 -2 -29 -2q-63 0 -106 34q-48 36 -48 97q0 66 44.5 108t109.5 42
q86 0 136.5 -57.5t50.5 -144.5q0 -120 -95 -220q-97 -103 -216 -103q-91 0 -91 57z" />
    <glyph glyph-name="uni1EDC" unicode="&#x1edc;" horiz-adv-x="1576" 
d="M57 727q0 336 187 548q197 222 528 222q332 0 529 -222q188 -212 188 -548q0 -337 -188 -549q-196 -221 -529 -221t-528 221q-187 212 -187 549zM418 723q0 -185 82 -307q96 -142 272 -142t272 142q82 122 82 307q0 189 -80 313q-94 146 -274 146t-274 -146
q-80 -124 -80 -313zM504 1899q0 56 36.5 91.5t92.5 35.5q68 0 116 -66l150 -205q35 -48 35 -90q0 -112 -111 -112q-53 0 -110 63l-156 172q-53 58 -53 111zM1192 1168q0 34 55 51q101 32 109 36q64 33 80 102q-14 -2 -29 -2q-63 0 -106 34q-48 36 -48 97q0 66 44.5 108
t109.5 42q86 0 136.5 -57.5t50.5 -144.5q0 -120 -95 -220q-97 -103 -216 -103q-91 0 -91 57z" />
    <glyph glyph-name="uni1EDD" unicode="&#x1edd;" horiz-adv-x="1207" 
d="M47 545q0 247 149 409q153 168 398 168q246 0 398 -167q147 -162 147 -410t-147 -410q-152 -168 -398 -168q-245 0 -398 168q-149 163 -149 410zM324 1528q0 56 36.5 91.5t92.5 35.5q68 0 116 -66l150 -205q35 -48 35 -90q0 -112 -111 -112q-53 0 -110 63l-156 172
q-53 58 -53 111zM381 549q0 -111 50 -187q57 -88 163 -88q105 0 163 88q50 76 50 187q0 107 -52 183q-59 87 -161 87q-104 0 -162 -86q-51 -76 -51 -184zM803 863q0 34 55 51q101 32 109 36q64 33 80 102q-14 -2 -29 -2q-63 0 -106 34q-48 36 -48 97q0 66 44.5 108t109.5 42
q86 0 136.5 -57.5t50.5 -144.5q0 -120 -95 -220q-97 -103 -216 -103q-91 0 -91 57z" />
    <glyph glyph-name="uni1EDE" unicode="&#x1ede;" horiz-adv-x="1576" 
d="M57 727q0 336 187 548q197 222 528 222q332 0 529 -222q188 -212 188 -548q0 -337 -188 -549q-196 -221 -529 -221t-528 221q-187 212 -187 549zM418 723q0 -185 82 -307q96 -142 272 -142t272 142q82 122 82 307q0 189 -80 313q-94 146 -274 146t-274 -146
q-80 -124 -80 -313zM541 1839q0 88 76 145q71 54 172 54q106 0 181 -78q68 -71 68 -155q0 -63 -41 -115t-102 -64q0 -28 -31.5 -52.5t-65.5 -24.5t-70 21.5t-36 48.5v48q0 21 6 32t65 30q50 16 50 63q0 50 -53 50q-36 0 -83 -39t-69 -39q-30 0 -50 27q-17 22 -17 48z
M1192 1168q0 34 55 51q101 32 109 36q64 33 80 102q-14 -2 -29 -2q-63 0 -106 34q-48 36 -48 97q0 66 44.5 108t109.5 42q86 0 136.5 -57.5t50.5 -144.5q0 -120 -95 -220q-97 -103 -216 -103q-91 0 -91 57z" />
    <glyph glyph-name="uni1EDF" unicode="&#x1edf;" horiz-adv-x="1207" 
d="M47 545q0 247 149 409q153 168 398 168q246 0 398 -167q147 -162 147 -410t-147 -410q-152 -168 -398 -168q-245 0 -398 168q-149 163 -149 410zM350 1482q0 88 76 145q71 54 172 54q106 0 181 -78q68 -71 68 -155q0 -63 -41 -115t-102 -64q0 -28 -31.5 -52.5
t-65.5 -24.5t-70 21.5t-36 48.5v48q0 21 6 32t65 30q50 16 50 63q0 50 -53 50q-36 0 -83 -39t-69 -39q-30 0 -50 27q-17 22 -17 48zM381 549q0 -111 50 -187q57 -88 163 -88q105 0 163 88q50 76 50 187q0 107 -52 183q-59 87 -161 87q-104 0 -162 -86q-51 -76 -51 -184z
M803 863q0 34 55 51q101 32 109 36q64 33 80 102q-14 -2 -29 -2q-63 0 -106 34q-48 36 -48 97q0 66 44.5 108t109.5 42q86 0 136.5 -57.5t50.5 -144.5q0 -120 -95 -220q-97 -103 -216 -103q-91 0 -91 57z" />
    <glyph glyph-name="uni1EE0" unicode="&#x1ee0;" horiz-adv-x="1576" 
d="M57 727q0 336 187 548q197 222 528 222q332 0 529 -222q188 -212 188 -548q0 -337 -188 -549q-196 -221 -529 -221t-528 221q-187 212 -187 549zM418 723q0 -185 82 -307q96 -142 272 -142t272 142q82 122 82 307q0 189 -80 313q-94 146 -274 146t-274 -146
q-80 -124 -80 -313zM483 1712q0 75 48.5 127t123.5 52q33 0 95 -19.5t94 -19.5q27 0 70 18.5t61 18.5q90 0 90 -111q0 -74 -49 -126t-123 -52q-33 0 -95.5 19.5t-95.5 19.5q-27 0 -69.5 -17.5t-59.5 -17.5q-90 0 -90 108zM1192 1168q0 34 55 51q101 32 109 36q64 33 80 102
q-14 -2 -29 -2q-63 0 -106 34q-48 36 -48 97q0 66 44.5 108t109.5 42q86 0 136.5 -57.5t50.5 -144.5q0 -120 -95 -220q-97 -103 -216 -103q-91 0 -91 57z" />
    <glyph glyph-name="uni1EE1" unicode="&#x1ee1;" horiz-adv-x="1207" 
d="M47 545q0 247 149 409q153 168 398 168q246 0 398 -167q147 -162 147 -410t-147 -410q-152 -168 -398 -168q-245 0 -398 168q-149 163 -149 410zM303 1341q0 75 48.5 127t123.5 52q33 0 95 -19.5t94 -19.5q27 0 70 18.5t61 18.5q90 0 90 -111q0 -74 -49 -126t-123 -52
q-33 0 -95.5 19.5t-95.5 19.5q-27 0 -69.5 -17.5t-59.5 -17.5q-90 0 -90 108zM381 549q0 -111 50 -187q57 -88 163 -88q105 0 163 88q50 76 50 187q0 107 -52 183q-59 87 -161 87q-104 0 -162 -86q-51 -76 -51 -184zM803 863q0 34 55 51q101 32 109 36q64 33 80 102
q-14 -2 -29 -2q-63 0 -106 34q-48 36 -48 97q0 66 44.5 108t109.5 42q86 0 136.5 -57.5t50.5 -144.5q0 -120 -95 -220q-97 -103 -216 -103q-91 0 -91 57z" />
    <glyph glyph-name="uni1EE2" unicode="&#x1ee2;" horiz-adv-x="1576" 
d="M57 727q0 336 187 548q197 222 528 222q332 0 529 -222q188 -212 188 -548q0 -337 -188 -549q-196 -221 -529 -221t-528 221q-187 212 -187 549zM418 723q0 -185 82 -307q96 -142 272 -142t272 142q82 122 82 307q0 189 -80 313q-94 146 -274 146t-274 -146
q-80 -124 -80 -313zM582 -317q0 78 54.5 132t132.5 54q77 0 130.5 -54.5t53.5 -131.5q0 -78 -53 -132t-131 -54q-79 0 -133 53.5t-54 132.5zM1192 1168q0 34 55 51q101 32 109 36q64 33 80 102q-14 -2 -29 -2q-63 0 -106 34q-48 36 -48 97q0 66 44.5 108t109.5 42
q86 0 136.5 -57.5t50.5 -144.5q0 -120 -95 -220q-97 -103 -216 -103q-91 0 -91 57z" />
    <glyph glyph-name="uni1EE3" unicode="&#x1ee3;" horiz-adv-x="1207" 
d="M47 545q0 247 149 409q153 168 398 168q246 0 398 -167q147 -162 147 -410t-147 -410q-152 -168 -398 -168q-245 0 -398 168q-149 163 -149 410zM381 549q0 -111 50 -187q57 -88 163 -88q105 0 163 88q50 76 50 187q0 107 -52 183q-59 87 -161 87q-104 0 -162 -86
q-51 -76 -51 -184zM411 -317q0 78 54.5 132t132.5 54q77 0 130.5 -54.5t53.5 -131.5q0 -78 -53 -132t-131 -54q-79 0 -133 53.5t-54 132.5zM803 863q0 34 55 51q101 32 109 36q64 33 80 102q-14 -2 -29 -2q-63 0 -106 34q-48 36 -48 97q0 66 44.5 108t109.5 42
q86 0 136.5 -57.5t50.5 -144.5q0 -120 -95 -220q-97 -103 -216 -103q-91 0 -91 57z" />
    <glyph glyph-name="uni1EE4" unicode="&#x1ee4;" horiz-adv-x="1507" 
d="M129 625v614q0 236 166 236t166 -236v-577q0 -388 293 -388t293 388v577q0 236 165 236q166 0 166 -236v-614q0 -308 -156 -483q-164 -185 -468 -185q-305 0 -469 184q-156 176 -156 484zM573 -317q0 78 54.5 132t132.5 54q77 0 130.5 -54.5t53.5 -131.5q0 -78 -53 -132
t-131 -54q-79 0 -133 53.5t-54 132.5z" />
    <glyph glyph-name="uni1EE5" unicode="&#x1ee5;" horiz-adv-x="1186" 
d="M104 440v430q0 234 162 234q160 0 160 -234v-364q0 -110 27 -162q38 -74 139 -74t139 74q27 52 27 162v364q0 234 162 234q159 0 159 -234v-430q0 -233 -126.5 -353t-360.5 -120q-235 0 -360 119q-128 121 -128 354zM407 -317q0 78 54.5 132t132.5 54q77 0 130.5 -54.5
t53.5 -131.5q0 -78 -53 -132t-131 -54q-79 0 -133 53.5t-54 132.5z" />
    <glyph glyph-name="uni1EE6" unicode="&#x1ee6;" horiz-adv-x="1507" 
d="M129 625v614q0 236 166 236t166 -236v-577q0 -388 293 -388t293 388v577q0 236 165 236q166 0 166 -236v-614q0 -308 -156 -483q-164 -185 -468 -185q-305 0 -469 184q-156 176 -156 484zM531 1839q0 88 76 145q71 54 172 54q106 0 181 -78q68 -71 68 -155
q0 -63 -41 -115t-102 -64q0 -28 -31.5 -52.5t-65.5 -24.5t-70 21.5t-36 48.5v48q0 21 6 32t65 30q50 16 50 63q0 50 -53 50q-36 0 -83 -39t-69 -39q-30 0 -50 27q-17 22 -17 48z" />
    <glyph glyph-name="uni1EE7" unicode="&#x1ee7;" horiz-adv-x="1186" 
d="M104 440v430q0 234 162 234q160 0 160 -234v-364q0 -110 27 -162q38 -74 139 -74t139 74q27 52 27 162v364q0 234 162 234q159 0 159 -234v-430q0 -233 -126.5 -353t-360.5 -120q-235 0 -360 119q-128 121 -128 354zM350 1482q0 88 76 145q71 54 172 54q106 0 181 -78
q68 -71 68 -155q0 -63 -41 -115t-102 -64q0 -28 -31.5 -52.5t-65.5 -24.5t-70 21.5t-36 48.5v48q0 21 6 32t65 30q50 16 50 63q0 50 -53 50q-36 0 -83 -39t-69 -39q-30 0 -50 27q-17 22 -17 48z" />
    <glyph glyph-name="uni1EE8" unicode="&#x1ee8;" horiz-adv-x="1574" 
d="M129 625v614q0 236 166 236t166 -236v-577q0 -388 293 -388t293 388v577q0 236 165 236q166 0 166 -236v-614q0 -308 -156 -483q-164 -185 -468 -185q-305 0 -469 184q-156 176 -156 484zM588 1665q0 42 35 90l149 205q48 66 117 66q53 0 91 -35t38 -88q0 -57 -53 -115
l-156 -172q-57 -63 -110 -63q-111 0 -111 112zM1212 1168q0 34 55 51q101 32 109 36q64 33 80 102q-14 -2 -29 -2q-63 0 -106 34q-48 36 -48 97q0 66 44.5 108t109.5 42q86 0 136.5 -57.5t50.5 -144.5q0 -120 -95 -220q-97 -103 -216 -103q-91 0 -91 57z" />
    <glyph glyph-name="uni1EE9" unicode="&#x1ee9;" horiz-adv-x="1266" 
d="M104 440v430q0 234 162 234q160 0 160 -234v-364q0 -110 27 -162q38 -74 139 -74t139 74q27 52 27 162v364q0 234 162 234q159 0 159 -234v-430q0 -233 -126.5 -353t-360.5 -120q-235 0 -360 119q-128 121 -128 354zM428 1294q0 42 35 90l149 205q48 66 117 66
q53 0 91 -35t38 -88q0 -57 -53 -115l-156 -172q-57 -63 -110 -63q-111 0 -111 112zM923 863q0 34 55 51q101 32 109 36q64 33 80 102q-14 -2 -29 -2q-63 0 -106 34q-48 36 -48 97q0 66 44.5 108t109.5 42q86 0 136.5 -57.5t50.5 -144.5q0 -120 -95 -220q-97 -103 -216 -103
q-91 0 -91 57z" />
    <glyph glyph-name="uni1EEA" unicode="&#x1eea;" horiz-adv-x="1574" 
d="M129 625v614q0 236 166 236t166 -236v-577q0 -388 293 -388t293 388v577q0 236 165 236q166 0 166 -236v-614q0 -308 -156 -483q-164 -185 -468 -185q-305 0 -469 184q-156 176 -156 484zM494 1899q0 56 36.5 91.5t92.5 35.5q68 0 116 -66l150 -205q35 -48 35 -90
q0 -112 -111 -112q-53 0 -110 63l-156 172q-53 58 -53 111zM1212 1168q0 34 55 51q101 32 109 36q64 33 80 102q-14 -2 -29 -2q-63 0 -106 34q-48 36 -48 97q0 66 44.5 108t109.5 42q86 0 136.5 -57.5t50.5 -144.5q0 -120 -95 -220q-97 -103 -216 -103q-91 0 -91 57z" />
    <glyph glyph-name="uni1EEB" unicode="&#x1eeb;" horiz-adv-x="1266" 
d="M104 440v430q0 234 162 234q160 0 160 -234v-364q0 -110 27 -162q38 -74 139 -74t139 74q27 52 27 162v364q0 234 162 234q159 0 159 -234v-430q0 -233 -126.5 -353t-360.5 -120q-235 0 -360 119q-128 121 -128 354zM324 1528q0 56 36.5 91.5t92.5 35.5q68 0 116 -66
l150 -205q35 -48 35 -90q0 -112 -111 -112q-53 0 -110 63l-156 172q-53 58 -53 111zM923 863q0 34 55 51q101 32 109 36q64 33 80 102q-14 -2 -29 -2q-63 0 -106 34q-48 36 -48 97q0 66 44.5 108t109.5 42q86 0 136.5 -57.5t50.5 -144.5q0 -120 -95 -220q-97 -103 -216 -103
q-91 0 -91 57z" />
    <glyph glyph-name="uni1EEC" unicode="&#x1eec;" horiz-adv-x="1574" 
d="M129 625v614q0 236 166 236t166 -236v-577q0 -388 293 -388t293 388v577q0 236 165 236q166 0 166 -236v-614q0 -308 -156 -483q-164 -185 -468 -185q-305 0 -469 184q-156 176 -156 484zM531 1839q0 88 76 145q71 54 172 54q106 0 181 -78q68 -71 68 -155
q0 -63 -41 -115t-102 -64q0 -28 -31.5 -52.5t-65.5 -24.5t-70 21.5t-36 48.5v48q0 21 6 32t65 30q50 16 50 63q0 50 -53 50q-36 0 -83 -39t-69 -39q-30 0 -50 27q-17 22 -17 48zM1212 1168q0 34 55 51q101 32 109 36q64 33 80 102q-14 -2 -29 -2q-63 0 -106 34
q-48 36 -48 97q0 66 44.5 108t109.5 42q86 0 136.5 -57.5t50.5 -144.5q0 -120 -95 -220q-97 -103 -216 -103q-91 0 -91 57z" />
    <glyph glyph-name="uni1EED" unicode="&#x1eed;" horiz-adv-x="1266" 
d="M104 440v430q0 234 162 234q160 0 160 -234v-364q0 -110 27 -162q38 -74 139 -74t139 74q27 52 27 162v364q0 234 162 234q159 0 159 -234v-430q0 -233 -126.5 -353t-360.5 -120q-235 0 -360 119q-128 121 -128 354zM350 1482q0 88 76 145q71 54 172 54q106 0 181 -78
q68 -71 68 -155q0 -63 -41 -115t-102 -64q0 -28 -31.5 -52.5t-65.5 -24.5t-70 21.5t-36 48.5v48q0 21 6 32t65 30q50 16 50 63q0 50 -53 50q-36 0 -83 -39t-69 -39q-30 0 -50 27q-17 22 -17 48zM923 863q0 34 55 51q101 32 109 36q64 33 80 102q-14 -2 -29 -2q-63 0 -106 34
q-48 36 -48 97q0 66 44.5 108t109.5 42q86 0 136.5 -57.5t50.5 -144.5q0 -120 -95 -220q-97 -103 -216 -103q-91 0 -91 57z" />
    <glyph glyph-name="uni1EEE" unicode="&#x1eee;" horiz-adv-x="1574" 
d="M129 625v614q0 236 166 236t166 -236v-577q0 -388 293 -388t293 388v577q0 236 165 236q166 0 166 -236v-614q0 -308 -156 -483q-164 -185 -468 -185q-305 0 -469 184q-156 176 -156 484zM483 1712q0 75 48.5 127t123.5 52q33 0 95 -19.5t94 -19.5q27 0 70 18.5t61 18.5
q90 0 90 -111q0 -74 -49 -126t-123 -52q-33 0 -95.5 19.5t-95.5 19.5q-27 0 -69.5 -17.5t-59.5 -17.5q-90 0 -90 108zM1212 1168q0 34 55 51q101 32 109 36q64 33 80 102q-14 -2 -29 -2q-63 0 -106 34q-48 36 -48 97q0 66 44.5 108t109.5 42q86 0 136.5 -57.5t50.5 -144.5
q0 -120 -95 -220q-97 -103 -216 -103q-91 0 -91 57z" />
    <glyph glyph-name="uni1EEF" unicode="&#x1eef;" horiz-adv-x="1266" 
d="M104 440v430q0 234 162 234q160 0 160 -234v-364q0 -110 27 -162q38 -74 139 -74t139 74q27 52 27 162v364q0 234 162 234q159 0 159 -234v-430q0 -233 -126.5 -353t-360.5 -120q-235 0 -360 119q-128 121 -128 354zM306 1341q0 75 48.5 127t123.5 52q33 0 95 -19.5
t94 -19.5q27 0 70 18.5t61 18.5q90 0 90 -111q0 -74 -49 -126t-123 -52q-33 0 -95.5 19.5t-95.5 19.5q-27 0 -69.5 -17.5t-59.5 -17.5q-90 0 -90 108zM923 863q0 34 55 51q101 32 109 36q64 33 80 102q-14 -2 -29 -2q-63 0 -106 34q-48 36 -48 97q0 66 44.5 108t109.5 42
q86 0 136.5 -57.5t50.5 -144.5q0 -120 -95 -220q-97 -103 -216 -103q-91 0 -91 57z" />
    <glyph glyph-name="uni1EF0" unicode="&#x1ef0;" horiz-adv-x="1574" 
d="M129 625v614q0 236 166 236t166 -236v-577q0 -388 293 -388t293 388v577q0 236 165 236q166 0 166 -236v-614q0 -308 -156 -483q-164 -185 -468 -185q-305 0 -469 184q-156 176 -156 484zM573 -317q0 78 54.5 132t132.5 54q77 0 130.5 -54.5t53.5 -131.5q0 -78 -53 -132
t-131 -54q-79 0 -133 53.5t-54 132.5zM1212 1168q0 34 55 51q101 32 109 36q64 33 80 102q-14 -2 -29 -2q-63 0 -106 34q-48 36 -48 97q0 66 44.5 108t109.5 42q86 0 136.5 -57.5t50.5 -144.5q0 -120 -95 -220q-97 -103 -216 -103q-91 0 -91 57z" />
    <glyph glyph-name="uni1EF1" unicode="&#x1ef1;" horiz-adv-x="1266" 
d="M104 440v430q0 234 162 234q160 0 160 -234v-364q0 -110 27 -162q38 -74 139 -74t139 74q27 52 27 162v364q0 234 162 234q159 0 159 -234v-430q0 -233 -126.5 -353t-360.5 -120q-235 0 -360 119q-128 121 -128 354zM407 -317q0 78 54.5 132t132.5 54q77 0 130.5 -54.5
t53.5 -131.5q0 -78 -53 -132t-131 -54q-79 0 -133 53.5t-54 132.5zM923 863q0 34 55 51q101 32 109 36q64 33 80 102q-14 -2 -29 -2q-63 0 -106 34q-48 36 -48 97q0 66 44.5 108t109.5 42q86 0 136.5 -57.5t50.5 -144.5q0 -120 -95 -220q-97 -103 -216 -103q-91 0 -91 57z
" />
    <glyph glyph-name="Ygrave" unicode="&#x1ef2;" horiz-adv-x="1057" 
d="M-39 1329q0 64 49 106q46 40 111 40q81 0 170 -127l248 -355l252 359q88 125 178 125q55 0 100 -44.5t45 -99.5q0 -60 -76 -168l-336 -479v-469q0 -235 -165 -235q-166 0 -166 235v469l-336 475q-74 105 -74 168zM274 1899q0 56 36.5 91.5t92.5 35.5q68 0 116 -66
l150 -205q35 -48 35 -90q0 -112 -111 -112q-53 0 -110 63l-156 172q-53 58 -53 111z" />
    <glyph glyph-name="ygrave" unicode="&#x1ef3;" horiz-adv-x="985" 
d="M2 944q0 68 44.5 114t111.5 46t108 -47q27 -32 56 -109l182 -487l198 514q50 129 144 129q72 0 115 -41t43 -113q0 -48 -27 -112l-492 -1168q-55 -131 -141 -131q-73 0 -116.5 41.5t-43.5 114.5q0 51 27 110l133 289l-326 760q-16 37 -16 90zM204 1528q0 56 36.5 91.5
t92.5 35.5q68 0 116 -66l150 -205q35 -48 35 -90q0 -112 -111 -112q-53 0 -110 63l-156 172q-53 58 -53 111z" />
    <glyph glyph-name="uni1EF4" unicode="&#x1ef4;" horiz-adv-x="1057" 
d="M-39 1329q0 64 49 106q46 40 111 40q81 0 170 -127l248 -355l252 359q88 125 178 125q55 0 100 -44.5t45 -99.5q0 -60 -76 -168l-336 -479v-469q0 -235 -165 -235q-166 0 -166 235v469l-336 475q-74 105 -74 168zM351 -317q0 78 54.5 132t132.5 54q77 0 130.5 -54.5
t53.5 -131.5q0 -78 -53 -132t-131 -54q-79 0 -133 53.5t-54 132.5z" />
    <glyph glyph-name="uni1EF5" unicode="&#x1ef5;" horiz-adv-x="985" 
d="M2 944q0 68 44.5 114t111.5 46t108 -47q27 -32 56 -109l182 -487l198 514q50 129 144 129q72 0 115 -41t43 -113q0 -48 -27 -112l-492 -1168q-55 -131 -141 -131q-73 0 -116.5 41.5t-43.5 114.5q0 51 27 110l133 289l-326 760q-16 37 -16 90zM611 -317q0 78 54.5 132
t132.5 54q77 0 130.5 -54.5t53.5 -131.5q0 -78 -53 -132t-131 -54q-79 0 -133 53.5t-54 132.5z" />
    <glyph glyph-name="uni1EF6" unicode="&#x1ef6;" horiz-adv-x="1057" 
d="M-39 1329q0 64 49 106q46 40 111 40q81 0 170 -127l248 -355l252 359q88 125 178 125q55 0 100 -44.5t45 -99.5q0 -60 -76 -168l-336 -479v-469q0 -235 -165 -235q-166 0 -166 235v469l-336 475q-74 105 -74 168zM291 1839q0 88 76 145q71 54 172 54q106 0 181 -78
q68 -71 68 -155q0 -63 -41 -115t-102 -64q0 -28 -31.5 -52.5t-65.5 -24.5t-70 21.5t-36 48.5v48q0 21 6 32t65 30q50 16 50 63q0 50 -53 50q-36 0 -83 -39t-69 -39q-30 0 -50 27q-17 22 -17 48z" />
    <glyph glyph-name="uni1EF7" unicode="&#x1ef7;" horiz-adv-x="985" 
d="M2 944q0 68 44.5 114t111.5 46t108 -47q27 -32 56 -109l182 -487l198 514q50 129 144 129q72 0 115 -41t43 -113q0 -48 -27 -112l-492 -1168q-55 -131 -141 -131q-73 0 -116.5 41.5t-43.5 114.5q0 51 27 110l133 289l-326 760q-16 37 -16 90zM250 1482q0 88 76 145
q71 54 172 54q106 0 181 -78q68 -71 68 -155q0 -63 -41 -115t-102 -64q0 -28 -31.5 -52.5t-65.5 -24.5t-70 21.5t-36 48.5v48q0 21 6 32t65 30q50 16 50 63q0 50 -53 50q-36 0 -83 -39t-69 -39q-30 0 -50 27q-17 22 -17 48z" />
    <glyph glyph-name="uni1EF8" unicode="&#x1ef8;" horiz-adv-x="1057" 
d="M-39 1329q0 64 49 106q46 40 111 40q81 0 170 -127l248 -355l252 359q88 125 178 125q55 0 100 -44.5t45 -99.5q0 -60 -76 -168l-336 -479v-469q0 -235 -165 -235q-166 0 -166 235v469l-336 475q-74 105 -74 168zM243 1712q0 75 48.5 127t123.5 52q33 0 95 -19.5
t94 -19.5q27 0 70 18.5t61 18.5q90 0 90 -111q0 -74 -49 -126t-123 -52q-33 0 -95.5 19.5t-95.5 19.5q-27 0 -69.5 -17.5t-59.5 -17.5q-90 0 -90 108z" />
    <glyph glyph-name="uni1EF9" unicode="&#x1ef9;" horiz-adv-x="985" 
d="M2 944q0 68 44.5 114t111.5 46t108 -47q27 -32 56 -109l182 -487l198 514q50 129 144 129q72 0 115 -41t43 -113q0 -48 -27 -112l-492 -1168q-55 -131 -141 -131q-73 0 -116.5 41.5t-43.5 114.5q0 51 27 110l133 289l-326 760q-16 37 -16 90zM216 1341q0 75 48.5 127
t123.5 52q33 0 95 -19.5t94 -19.5q27 0 70 18.5t61 18.5q90 0 90 -111q0 -74 -49 -126t-123 -52q-33 0 -95.5 19.5t-95.5 19.5q-27 0 -69.5 -17.5t-59.5 -17.5q-90 0 -90 108z" />
    <glyph glyph-name="uni2000" unicode="&#x2000;" horiz-adv-x="1216" 
 />
    <glyph glyph-name="uni2001" unicode="&#x2001;" horiz-adv-x="2432" 
 />
    <glyph glyph-name="uni2002" unicode="&#x2002;" horiz-adv-x="1216" 
 />
    <glyph glyph-name="uni2003" unicode="&#x2003;" horiz-adv-x="2432" 
 />
    <glyph glyph-name="uni2004" unicode="&#x2004;" horiz-adv-x="810" 
 />
    <glyph glyph-name="uni2005" unicode="&#x2005;" horiz-adv-x="608" 
 />
    <glyph glyph-name="uni2006" unicode="&#x2006;" horiz-adv-x="405" 
 />
    <glyph glyph-name="uni2007" unicode="&#x2007;" horiz-adv-x="405" 
 />
    <glyph glyph-name="uni2008" unicode="&#x2008;" horiz-adv-x="304" 
 />
    <glyph glyph-name="uni2009" unicode="&#x2009;" horiz-adv-x="486" 
 />
    <glyph glyph-name="uni200A" unicode="&#x200a;" horiz-adv-x="135" 
 />
    <glyph glyph-name="uni2010" unicode="&#x2010;" horiz-adv-x="877" 
d="M70 569q0 140 161 140h416q160 0 160 -142q0 -139 -162 -139h-416q-159 0 -159 141z" />
    <glyph glyph-name="uni2011" unicode="&#x2011;" horiz-adv-x="877" 
d="M70 569q0 140 161 140h416q160 0 160 -142q0 -139 -162 -139h-416q-159 0 -159 141z" />
    <glyph glyph-name="figuredash" unicode="&#x2012;" horiz-adv-x="877" 
d="M70 569q0 140 161 140h416q160 0 160 -142q0 -139 -162 -139h-416q-159 0 -159 141z" />
    <glyph glyph-name="endash" unicode="&#x2013;" horiz-adv-x="1024" 
d="M0 569q0 105 121 105h782q121 0 121 -105q0 -104 -121 -104h-782q-121 0 -121 104z" />
    <glyph glyph-name="emdash" unicode="&#x2014;" horiz-adv-x="2048" 
d="M0 569q0 105 145 105h1760q143 0 143 -105q0 -104 -145 -104h-1758q-145 0 -145 104z" />
    <glyph glyph-name="quoteleft" unicode="&#x2018;" horiz-adv-x="473" 
d="M61 1126q0 150 95 262.5t206 112.5q62 0 62 -55q0 -33 -54 -63q-83 -46 -101 -62q-55 -49 -58 -129q44 16 74 16q67 0 107 -43.5t40 -111.5q0 -72 -49.5 -118t-122.5 -46q-92 0 -148 74q-51 68 -51 163z" />
    <glyph glyph-name="quoteright" unicode="&#x2019;" horiz-adv-x="473" 
d="M61 1329q0 74 49 121t123 47q96 0 152 -79q49 -69 49 -169q0 -140 -96.5 -252t-206.5 -112q-61 0 -61 55q0 34 54 65q85 48 102 62q55 49 56 127q-36 -14 -73 -14q-67 0 -107.5 41t-40.5 108z" />
    <glyph glyph-name="quotedblleft" unicode="&#x201c;" horiz-adv-x="924" 
d="M61 1126q0 150 96 262.5t208 112.5q61 0 61 -55q0 -33 -54 -63q-84 -47 -102 -63q-56 -49 -59 -128q42 16 76 16q67 0 106 -43.5t39 -111.5q0 -73 -48.5 -118.5t-121.5 -45.5q-92 0 -149 74q-52 68 -52 163zM516 1126q0 150 95 262.5t206 112.5q23 0 42.5 -16t19.5 -39
q0 -33 -54 -64q-85 -47 -102 -63q-56 -49 -57 -127q42 16 73 16q68 0 108 -43.5t40 -111.5q0 -72 -49.5 -118t-122.5 -46q-92 0 -148 74q-51 68 -51 163z" />
    <glyph glyph-name="quotedblright" unicode="&#x201d;" horiz-adv-x="924" 
d="M61 1329q0 74 49 121t123 47q96 0 152 -79q49 -69 49 -169q0 -140 -96.5 -252t-206.5 -112q-61 0 -61 55q0 34 54 65q85 48 102 62q55 49 56 127q-36 -14 -73 -14q-67 0 -107.5 41t-40.5 108zM516 1329q0 74 48.5 121t123.5 47q95 0 150 -79q49 -70 49 -169
q0 -141 -96 -252.5t-205 -111.5q-62 0 -62 55q0 33 55 65q85 50 101 65q56 49 57 124q-36 -14 -73 -14q-67 0 -107.5 41t-40.5 108z" />
    <glyph glyph-name="ellipsis" unicode="&#x2026;" horiz-adv-x="2048" 
d="M155 172q0 78 54.5 132t132.5 54q77 0 130.5 -54.5t53.5 -131.5q0 -78 -53 -132t-131 -54q-79 0 -133 53.5t-54 132.5zM837 172q0 78 54.5 132t132.5 54q77 0 130.5 -54.5t53.5 -131.5q0 -78 -53 -132t-131 -54q-79 0 -133 53.5t-54 132.5zM1521 172q0 78 54.5 132
t132.5 54q77 0 130.5 -54.5t53.5 -131.5q0 -78 -53 -132t-131 -54q-79 0 -133 53.5t-54 132.5z" />
    <glyph glyph-name="uni202F" unicode="&#x202f;" horiz-adv-x="486" 
 />
    <glyph glyph-name="uni205F" unicode="&#x205f;" horiz-adv-x="608" 
 />
    <glyph glyph-name="uniE000" unicode="&#xe000;" horiz-adv-x="1105" 
d="M0 0v1105h1105v-1105h-1105z" />
    </font>
</defs>
</svg>
