<svg xmlns="http://www.w3.org/2000/svg" width="55.969" height="56" viewBox="0 0 55.969 56">
  <defs>
    <style>
      .cls-1 {
        fill-rule: evenodd;
      }
    </style>
  </defs>
  <path id="Search" class="cls-1" d="M717.168,94.982L703.86,81.675a23.562,23.562,0,0,0-1.9-30.825,23.041,23.041,0,0,0-16.566-6.856,23.318,23.318,0,0,0-16.566,6.856,22.985,22.985,0,0,0-6.79,16.5A23.3,23.3,0,0,0,685.393,90.7a23.623,23.623,0,0,0,14.394-4.889l13.239,13.308a2.793,2.793,0,0,0,4.074,0A2.853,2.853,0,0,0,717.168,94.982Zm-14.394-27.7a17.4,17.4,0,0,1-5.092,12.356,17.376,17.376,0,0,1-24.714,0h0a17.539,17.539,0,0,1,0-24.713A17.449,17.449,0,0,1,702.774,67.282Z" transform="translate(-662.031 -44)"/>
</svg>
