<?xml version="1.0" encoding="utf-8"?>
<!DOCTYPE svg PUBLIC "-//W3C//DTD SVG 1.1//EN" "http://www.w3.org/Graphics/SVG/1.1/DTD/svg11.dtd">
<svg version="1.1" id="Layer_1" xmlns="http://www.w3.org/2000/svg" xmlns:xlink="http://www.w3.org/1999/xlink" x="0px" y="0px"
	 width="85.039px" height="79.37px" viewBox="-9.829 -10.649 85.039 79.37" enable-background="new -9.829 -10.649 85.039 79.37"
	 xml:space="preserve">
<g>
	<g>
		<defs>
			<rect id="SVGID_1_6-12thang" width="65.381" height="58.072"/>
		</defs>
		<clipPath id="SVGID_2_6-12thang">
			<use xlink:href="#SVGID_1_6-12thang"  overflow="visible"/>
		</clipPath>
		<path clip-path="url(#SVGID_2_6-12thang)" fill="#545456" d="M62.554,46.899c0.58,2.055-0.613,4.203-2.662,4.789
			c-2.067,0.588-4.222-0.604-4.81-2.674l-7.375-16.928c-0.588-2.061,0.614-4.203,2.671-4.792c2.048-0.59,4.2,0.612,4.791,2.66
			L62.554,46.899z"/>
	</g>
	<g>
		<defs>
			<rect id="SVGID_3_6-12thang" width="65.381" height="58.072"/>
		</defs>
		<clipPath id="SVGID_4_6-12thang">
			<use xlink:href="#SVGID_3_6-12thang"  overflow="visible"/>
		</clipPath>
		<path clip-path="url(#SVGID_4_6-12thang)" fill="#545456" d="M35.253,45.812c-0.25,2.92-2.798,5.07-5.706,4.822
			c-2.898-0.246-5.058-2.8-4.811-5.717l1.175-13.805c0.098-1.139,0.551-2.371,1.457-3.09c0.855-0.678,1.317-0.248,2.176,0.208
			c1.208,0.637,2.335,1.446,3.336,2.367c1.289,1.184,2.266,2.416,2.73,4.078c0.629,2.24,0.218,4.396,0.021,6.686
			C35.507,42.842,35.382,44.334,35.253,45.812"/>
	</g>
	<g>
		<defs>
			<rect id="SVGID_5_6-12thang" width="65.381" height="58.072"/>
		</defs>
		<clipPath id="SVGID_6_6-12thang">
			<use xlink:href="#SVGID_5_6-12thang"  overflow="visible"/>
		</clipPath>
		<path clip-path="url(#SVGID_6_6-12thang)" fill="#545456" d="M30.353,40.003c2.919,0.195,5.125,2.702,4.93,5.613
			c-0.192,2.9-2.701,5.111-5.624,4.92l-13.824-0.909c-2.933-0.194-5.108-2.712-4.918-5.615c0.19-2.913,2.678-5.11,5.612-4.915
			L30.353,40.003z"/>
	</g>
	<g>
		<defs>
			<rect id="SVGID_7_6-12thang" width="65.381" height="58.072"/>
		</defs>
		<clipPath id="SVGID_8_6-12thang">
			<use xlink:href="#SVGID_7_6-12thang"  overflow="visible"/>
		</clipPath>
		<path clip-path="url(#SVGID_8_6-12thang)" fill="#545456" d="M38.028,13.664c0,7.564,6.113,13.682,13.666,13.682
			c7.537,0,13.687-6.118,13.687-13.682C65.381,6.108,59.231,0,51.694,0C44.142,0,38.028,6.108,38.028,13.664"/>
	</g>
	<g>
		<defs>
			<rect id="SVGID_9_6-12thang" width="65.381" height="58.072"/>
		</defs>
		<clipPath id="SVGID_10_6-12thang">
			<use xlink:href="#SVGID_9_6-12thang"  overflow="visible"/>
		</clipPath>
		<path clip-path="url(#SVGID_10_6-12thang)" fill="#545456" d="M24.396,49.503c-0.106,2.925-2.543,5.203-5.46,5.098
			c-2.906-0.102-5.191-2.545-5.087-5.472l0.489-13.845c0.103-2.938,2.557-5.191,5.464-5.087c2.917,0.102,5.189,2.521,5.085,5.463
			L24.396,49.503z"/>
	</g>
	<g>
		<defs>
			<rect id="SVGID_11_6-12thang" width="65.381" height="58.072"/>
		</defs>
		<clipPath id="SVGID_12_6-12thang">
			<use xlink:href="#SVGID_11_6-12thang"  overflow="visible"/>
		</clipPath>
		<path clip-path="url(#SVGID_12_6-12thang)" fill="#545456" d="M19.212,43.944c2.929,0.049,5.252,2.441,5.205,5.359
			c-0.047,2.908-2.445,5.239-5.372,5.193L5.192,54.272c-2.94-0.047-5.238-2.453-5.191-5.362c0.044-2.919,2.422-5.236,5.36-5.188
			L19.212,43.944z"/>
	</g>
	<g>
		<defs>
			<rect id="SVGID_13_6-12thang" width="65.381" height="58.072"/>
		</defs>
		<clipPath id="SVGID_14_6-12thang">
			<use xlink:href="#SVGID_13_6-12thang"  overflow="visible"/>
		</clipPath>
		<path clip-path="url(#SVGID_14_6-12thang)" fill="#545456" d="M53.687,30.551c-0.692,9.116-13.047,11.767-19.092,12.474l-7.738,2
			c-6.045,0.709-11.518-3.619-12.225-9.666c-0.707-6.044,3.62-11.518,9.665-12.225l17.106-2.001
			C47.446,20.425,54.379,21.435,53.687,30.551"/>
	</g>
	<g>
		<defs>
			<rect id="SVGID_15_6-12thang" width="65.381" height="58.072"/>
		</defs>
		<clipPath id="SVGID_16_6-12thang">
			<use xlink:href="#SVGID_15_6-12thang"  overflow="visible"/>
		</clipPath>
		<path clip-path="url(#SVGID_16_6-12thang)" fill="#545456" d="M48.071,46.163c-0.426,2.094-2.475,3.449-4.562,3.031
			c-2.106-0.428-3.474-2.477-3.042-4.586l0.871-13.721c0.424-2.102,2.477-3.451,4.572-3.031c2.092,0.417,3.447,2.476,3.031,4.564
			L48.071,46.163z"/>
	</g>
	<g>
		<defs>
			<rect id="SVGID_17_6-12thang" width="65.381" height="58.072"/>
		</defs>
		<clipPath id="SVGID_18_6-12thang">
			<use xlink:href="#SVGID_17_6-12thang"  overflow="visible"/>
		</clipPath>
		<path clip-path="url(#SVGID_18_6-12thang)" fill="#545456" d="M54.554,52.165c1.116,1.82,0.547,4.211-1.264,5.329
			c-1.833,1.126-4.229,0.56-5.354-1.276l-6.951-8.67c-1.127-1.822-0.547-4.209,1.275-5.332c1.813-1.124,4.211-0.547,5.331,1.27
			L54.554,52.165z"/>
	</g>
</g>
</svg>
