<?xml version="1.0" encoding="utf-8"?>
<!DOCTYPE svg PUBLIC "-//W3C//DTD SVG 1.1//EN" "http://www.w3.org/Graphics/SVG/1.1/DTD/svg11.dtd">
<svg version="1.1" id="Layer_1" xmlns="http://www.w3.org/2000/svg" xmlns:xlink="http://www.w3.org/1999/xlink" x="0px" y="0px"
	 width="85.039px" height="79.37px" viewBox="-6.28 -7.647 85.039 79.37" enable-background="new -6.28 -7.647 85.039 79.37"
	 xml:space="preserve">
<g>
	<g>
		<defs>
			
				<rect id="SVGID_1_mangthai" x="8.563" y="2.946" transform="matrix(-0.7071 -0.7071 0.7071 -0.7071 45.1018 77.7894)" width="60.197" height="53.216"/>
		</defs>
		<clipPath id="SVGID_2_mangthai">
			<use xlink:href="#SVGID_1_mangthai"  overflow="visible"/>
		</clipPath>
		<path clip-path="url(#SVGID_2_mangthai)" fill="#545456" d="M11.154,14.514c-4.98,5.428-4.616,13.865,0.812,18.843
			c5.429,4.979,13.866,4.616,18.845-0.812c4.979-5.428,4.613-13.866-0.814-18.845C24.567,8.721,16.131,9.086,11.154,14.514"/>
	</g>
	<g>
		<defs>
			
				<rect id="SVGID_3_mangthai" x="8.563" y="2.946" transform="matrix(-0.7071 -0.7071 0.7071 -0.7071 45.1018 77.7894)" width="60.197" height="53.216"/>
		</defs>
		<clipPath id="SVGID_4_mangthai">
			<use xlink:href="#SVGID_3_mangthai"  overflow="visible"/>
		</clipPath>
		<path clip-path="url(#SVGID_4_mangthai)" fill="#545456" d="M12.316,33.75c-0.895-1.417-1.626-2.055-2.719-3.27
			c1.002-0.862,2.106-2.572,3.457-2.557c2.001,0.024,4.097,0.623,5.977,1.272c1.768,0.608,3.7,1.475,5.53,1.827
			c1.527,0.293-0.103,3.407,1.396,3.912c5.06,1.704,7.784,0.586,13.215,2.954C50.887,43,52.42,51.995,49.056,56.403
			c-3.362,4.408-12.019,6.136-22.183-1.614c-4.972-3.792-9.531-8.598-11.99-15.357C14.316,37.864,13.211,35.169,12.316,33.75"/>
	</g>
	<g>
		<defs>
			
				<rect id="SVGID_5_mangthai" x="8.563" y="2.946" transform="matrix(-0.7071 -0.7071 0.7071 -0.7071 45.1018 77.7894)" width="60.197" height="53.216"/>
		</defs>
		<clipPath id="SVGID_6_mangthai">
			<use xlink:href="#SVGID_5_mangthai"  overflow="visible"/>
		</clipPath>
		<path clip-path="url(#SVGID_6_mangthai)" fill="#545456" d="M46.344,31.601c-1.665-0.16-3.145,1.06-3.303,2.727
			c-0.161,1.664,1.06,3.145,2.725,3.303L59.787,39.1c1.666,0.16,3.146-1.062,3.306-2.725c0.158-1.665-1.061-3.146-2.727-3.306
			L46.344,31.601z"/>
	</g>
	<g>
		<defs>
			
				<rect id="SVGID_7_mangthai" x="8.563" y="2.946" transform="matrix(-0.7071 -0.7071 0.7071 -0.7071 45.1018 77.7894)" width="60.197" height="53.216"/>
		</defs>
		<clipPath id="SVGID_8_mangthai">
			<use xlink:href="#SVGID_7_mangthai"  overflow="visible"/>
		</clipPath>
		<path clip-path="url(#SVGID_8_mangthai)" fill="#545456" d="M37.59,19.922c-0.137-1.255-1.266-2.161-2.521-2.025
			c-1.255,0.136-2.163,1.266-2.026,2.521l1.416,13.494c0.136,1.256,1.266,2.162,2.52,2.024c1.257-0.137,2.164-1.267,2.026-2.521
			L37.59,19.922z"/>
	</g>
	<g>
		<defs>
			
				<rect id="SVGID_9_mangthai" x="8.563" y="2.946" transform="matrix(-0.7071 -0.7071 0.7071 -0.7071 45.1018 77.7894)" width="60.197" height="53.216"/>
		</defs>
		<clipPath id="SVGID_10_mangthai">
			<use xlink:href="#SVGID_9_mangthai"  overflow="visible"/>
		</clipPath>
		<path clip-path="url(#SVGID_10_mangthai)" fill="#545456" d="M38.125,35.475c1.008-0.762,1.205-2.195,0.445-3.202
			c-0.76-1.009-2.196-1.209-3.205-0.447l-6.123,4.702c-1.008,0.761-1.208,2.194-0.445,3.202c0.761,1.009,2.195,1.206,3.203,0.445
			L38.125,35.475z"/>
	</g>
	<g>
		<defs>
			
				<rect id="SVGID_11_mangthai" x="8.563" y="2.946" transform="matrix(-0.7071 -0.7071 0.7071 -0.7071 45.1018 77.7894)" width="60.197" height="53.216"/>
		</defs>
		<clipPath id="SVGID_12_mangthai">
			<use xlink:href="#SVGID_11_mangthai"  overflow="visible"/>
		</clipPath>
		<path clip-path="url(#SVGID_12_mangthai)" fill="#545456" d="M49.344,38.035c-1.638-0.341-3.24,0.712-3.581,2.349
			c-0.342,1.639,0.71,3.243,2.35,3.584l13.778,2.985c1.639,0.343,3.242-0.71,3.584-2.347c0.34-1.639-0.713-3.243-2.352-3.583
			L49.344,38.035z"/>
	</g>
	<g>
		<defs>
			
				<rect id="SVGID_13_mangthai" x="8.563" y="2.946" transform="matrix(-0.7071 -0.7071 0.7071 -0.7071 45.1018 77.7894)" width="60.197" height="53.216"/>
		</defs>
		<clipPath id="SVGID_14_mangthai">
			<use xlink:href="#SVGID_13_mangthai"  overflow="visible"/>
		</clipPath>
		<path clip-path="url(#SVGID_14_mangthai)" fill="#545456" d="M48.986,34.923c0.113-1.67-1.148-3.115-2.817-3.227
			c-1.67-0.115-3.113,1.146-3.227,2.815l-1.079,14.058c-0.115,1.669,1.146,3.114,2.815,3.229c1.67,0.112,3.114-1.147,3.229-2.817
			L48.986,34.923z"/>
	</g>
	<g>
		<defs>
			
				<rect id="SVGID_15_mangthai" x="8.563" y="2.946" transform="matrix(-0.7071 -0.7071 0.7071 -0.7071 45.1018 77.7894)" width="60.197" height="53.216"/>
		</defs>
		<clipPath id="SVGID_16_mangthai">
			<use xlink:href="#SVGID_15_mangthai"  overflow="visible"/>
		</clipPath>
		<path clip-path="url(#SVGID_16_mangthai)" fill="#545456" d="M51.313,44.357c0.296-1.645-0.8-3.221-2.448-3.516
			c-1.646-0.293-3.219,0.801-3.514,2.448l-1.167,9.956c-0.293,1.645,0.803,3.22,2.447,3.514c1.646,0.295,3.223-0.802,3.515-2.447
			L51.313,44.357z"/>
	</g>
	<g>
		<defs>
			
				<rect id="SVGID_17_mangthai" x="8.563" y="2.946" transform="matrix(-0.7071 -0.7071 0.7071 -0.7071 45.1018 77.7894)" width="60.197" height="53.216"/>
		</defs>
		<clipPath id="SVGID_18_mangthai">
			<use xlink:href="#SVGID_17_mangthai"  overflow="visible"/>
		</clipPath>
		<path clip-path="url(#SVGID_18_mangthai)" fill="#545456" d="M53.42,6.684c1.294,2.352,2.899,5.277,3.432,10.32
			c0.641,6.066-3.061,10.966-8.799,11.651c-2.837,0.338-4.429,1.588-5.322,4.179c-0.45,1.306-0.46,2.503-0.471,3.773
			c-0.018,2.021-0.037,4.316-2.13,6.681l-1.921-1.699c1.457-1.646,1.469-3.128,1.484-5.004c0.014-1.353,0.026-2.886,0.613-4.587
			c1.208-3.511,3.645-5.438,7.443-5.891c4.282-0.511,7.038-4.226,6.551-8.834c-0.479-4.531-1.886-7.093-3.128-9.354"/>
	</g>
</g>
</svg>
