<?xml version="1.0" encoding="utf-8"?>
<!DOCTYPE svg PUBLIC "-//W3C//DTD SVG 1.1//EN" "http://www.w3.org/Graphics/SVG/1.1/DTD/svg11.dtd">
<svg version="1.1" id="Layer_1" xmlns="http://www.w3.org/2000/svg" xmlns:xlink="http://www.w3.org/1999/xlink" x="0px" y="0px"
	 width="85.039px" height="79.37px" viewBox="-1.398 -5.333 85.039 79.37" enable-background="new -1.398 -5.333 85.039 79.37"
	 xml:space="preserve">
<g>
	<g>
		<defs>
			<rect id="SVGID_1_2-6tuoi" width="82.242" height="68.704"/>
		</defs>
		<clipPath id="SVGID_2_2-6tuoi">
			<use xlink:href="#SVGID_1_2-6tuoi"  overflow="visible"/>
		</clipPath>
		<path clip-path="url(#SVGID_2_2-6tuoi)" fill="#545456" d="M39.738,40.836c-0.943,1.629-3.001,2.209-4.637,1.265
			c-1.624-0.938-2.165-3.021-1.222-4.651l10.982-14.527c0.947-1.634,3.005-2.175,4.621-1.24c1.644,0.949,2.201,3.003,1.256,4.637
			L39.738,40.836z"/>
	</g>
	<g>
		<defs>
			<rect id="SVGID_3_2-6tuoi" width="82.242" height="68.704"/>
		</defs>
		<clipPath id="SVGID_4_2-6tuoi">
			<use xlink:href="#SVGID_3_2-6tuoi"  overflow="visible"/>
		</clipPath>
		<path clip-path="url(#SVGID_4_2-6tuoi)" fill="#545456" d="M78.414,51.844c1.161,1.482,0.936,3.609-0.553,4.775
			c-1.473,1.159-3.606,0.889-4.771-0.592l-16.29-26.563c-1.164-1.486-0.902-3.598,0.567-4.752c1.489-1.17,3.606-0.926,4.772,0.56
			L78.414,51.844z"/>
	</g>
	<g>
		<defs>
			<rect id="SVGID_5_2-6tuoi" width="82.242" height="68.704"/>
		</defs>
		<clipPath id="SVGID_6_2-6tuoi">
			<use xlink:href="#SVGID_5_2-6tuoi"  overflow="visible"/>
		</clipPath>
		<path clip-path="url(#SVGID_6_2-6tuoi)" fill="#545456" d="M21.897,49.527c-1.605,0.983-3.691,0.515-4.679-1.101
			c-0.98-1.596-0.462-3.686,1.142-4.668l16.582-7.534c1.609-0.988,3.678-0.479,4.654,1.112c0.989,1.615,0.5,3.689-1.108,4.674
			L21.897,49.527z"/>
	</g>
	<g>
		<defs>
			<rect id="SVGID_7_2-6tuoi" width="82.242" height="68.704"/>
		</defs>
		<clipPath id="SVGID_8_2-6tuoi">
			<use xlink:href="#SVGID_7_2-6tuoi"  overflow="visible"/>
		</clipPath>
		<path clip-path="url(#SVGID_8_2-6tuoi)" fill="#545456" d="M53.998,21.163c4.697-5.177,4.309-13.208-0.848-17.886
			c-5.183-4.703-13.183-4.288-17.881,0.89c-4.698,5.176-4.301,13.139,0.881,17.843C41.306,26.687,49.302,26.339,53.998,21.163"/>
	</g>
	<g>
		<defs>
			<rect id="SVGID_9_2-6tuoi" width="82.242" height="68.704"/>
		</defs>
		<clipPath id="SVGID_10_2-6tuoi">
			<use xlink:href="#SVGID_9_2-6tuoi"  overflow="visible"/>
		</clipPath>
		<path clip-path="url(#SVGID_10_2-6tuoi)" fill="#545456" d="M41.507,61.819c-2.602,0.295-4.923-1.556-5.219-4.158
			c-0.293-2.59,1.555-4.914,4.156-5.207l16.742-1.902c2.58-0.291,4.92,1.559,5.215,4.146c0.295,2.604-1.571,4.932-4.151,5.223
			L41.507,61.819z"/>
	</g>
	<g>
		<defs>
			<rect id="SVGID_11_2-6tuoi" width="82.242" height="68.704"/>
		</defs>
		<clipPath id="SVGID_12_2-6tuoi">
			<use xlink:href="#SVGID_11_2-6tuoi"  overflow="visible"/>
		</clipPath>
		<path clip-path="url(#SVGID_12_2-6tuoi)" fill="#545456" d="M58.211,58.713c2.463,0.891,3.723,3.58,2.834,6.043
			c-0.885,2.449-3.57,3.716-6.031,2.826l-15.851-5.717c-2.443-0.88-3.72-3.576-2.838-6.023c0.89-2.465,3.594-3.727,6.034-2.846
			L58.211,58.713z"/>
	</g>
	<g>
		<defs>
			<rect id="SVGID_13_2-6tuoi" width="82.242" height="68.704"/>
		</defs>
		<clipPath id="SVGID_14_2-6tuoi">
			<use xlink:href="#SVGID_13_2-6tuoi"  overflow="visible"/>
		</clipPath>
		<path clip-path="url(#SVGID_14_2-6tuoi)" fill="#545456" d="M79.324,59.627c2.42,1,3.556,3.746,2.556,6.166
			c-0.993,2.406-3.737,3.547-6.155,2.549l-15.572-6.436c-2.398-0.99-3.555-3.742-2.56-6.148c1.001-2.42,3.759-3.557,6.159-2.565
			L79.324,59.627z"/>
	</g>
	<g>
		<defs>
			<rect id="SVGID_15_2-6tuoi" width="82.242" height="68.704"/>
		</defs>
		<clipPath id="SVGID_16_2-6tuoi">
			<use xlink:href="#SVGID_15_2-6tuoi"  overflow="visible"/>
		</clipPath>
		<path clip-path="url(#SVGID_16_2-6tuoi)" fill="#545456" d="M63.988,61.661c-2.319,1.209-5.154,0.318-6.366-2.002
			c-1.205-2.309-0.317-5.145,2.002-6.354l3.196-1.503c2.303-1.201,5.15-0.317,6.357,1.988c1.213,2.323,0.311,5.168-1.992,6.369
			L63.988,61.661z"/>
	</g>
	<g>
		<defs>
			<rect id="SVGID_17_2-6tuoi" width="82.242" height="68.704"/>
		</defs>
		<clipPath id="SVGID_18_2-6tuoi">
			<use xlink:href="#SVGID_17_2-6tuoi"  overflow="visible"/>
		</clipPath>
		<path clip-path="url(#SVGID_18_2-6tuoi)" fill="#545456" d="M64.59,54.895c-0.835,7.284-11.119,3.029-15.791,2.635
			c-3.447-0.294-6.271-0.604-6.453-4.957c-0.188-4.469,1.732-8.428,1.522-12.896c-0.24-5.103-0.906-11.095,0.774-16.013
			c1.588-4.648,4.787-3.331,8.866-3.384c5.751-0.074,9.382,5.373,11.198,10.11C67.24,36.989,64.9,52.202,64.59,54.895"/>
	</g>
	<g>
		<defs>
			<rect id="SVGID_19_2-6tuoi" width="82.242" height="68.704"/>
		</defs>
		<clipPath id="SVGID_20_2-6tuoi">
			<use xlink:href="#SVGID_19_2-6tuoi"  overflow="visible"/>
		</clipPath>
		<path clip-path="url(#SVGID_20_2-6tuoi)" fill="#545456" d="M6.549,62.125c-1.247,0.002-2.258,1.014-2.26,2.26
			c0.002,1.25,1.013,2.258,2.26,2.26c1.247-0.002,2.259-1.01,2.259-2.26C8.808,63.139,7.796,62.127,6.549,62.125"/>
	</g>
	<g>
		<defs>
			<rect id="SVGID_21_2-6tuoi" width="82.242" height="68.704"/>
		</defs>
		<clipPath id="SVGID_22_2-6tuoi">
			<use xlink:href="#SVGID_21_2-6tuoi"  overflow="visible"/>
		</clipPath>
		<path clip-path="url(#SVGID_22_2-6tuoi)" fill="#545456" d="M24.551,62.125c-1.249,0.002-2.259,1.014-2.26,2.26
			c0.001,1.25,1.011,2.258,2.26,2.26c1.247-0.002,2.255-1.01,2.259-2.26C26.806,63.139,25.798,62.127,24.551,62.125"/>
	</g>
	<g>
		<defs>
			<rect id="SVGID_23_2-6tuoi" width="82.242" height="68.704"/>
		</defs>
		<clipPath id="SVGID_24_2-6tuoi">
			<use xlink:href="#SVGID_23_2-6tuoi"  overflow="visible"/>
		</clipPath>
		<path clip-path="url(#SVGID_24_2-6tuoi)" fill="#545456" d="M33.01,62.724c0-0.716,0.295-4.677,0.049-6.185
			c-0.581-3.584,0.097-6.074-3.333-6.074c-6.828,0-16.459,0.115-23.206,0.115c-3.086,0.231-5.121,4.131-5.875,7.623
			c-0.47,2.185-0.162,3.955-0.162,4.821c-0.604,0.005-0.719,1.188,0.112,1.188h2.753c0.089-1.693,1.487-3.037,3.202-3.037
			c1.716,0,3.113,1.344,3.203,3.037h11.568c0.091-1.693,1.489-3.037,3.204-3.037c1.559,0,2.858,1.111,3.148,2.584
			c0.238,0,5.148,0.02,5.301,0.02C33.615,63.78,33.575,62.724,33.01,62.724 M9.739,53.935v2.403c0,1.289-0.632,2.34-1.413,2.34
			H3.651c-0.778,0-2.283-1.701-0.644-4.325c1.638-2.619,2.802-3.019,3.584-3.019h2.377C9.951,51.334,9.739,52.64,9.739,53.935
			 M17.043,54.379c0,0.781-0.631,1.414-1.412,1.414h-3.79c-0.782,0-1.413-0.633-1.413-1.414v-1.451c0-0.782,0.631-1.572,1.413-1.572
			h3.79c0.781,0,1.412,0.79,1.412,1.572V54.379z M24.388,54.379c0,0.781-0.632,1.414-1.413,1.414h-3.793
			c-0.78,0-1.414-0.633-1.414-1.414v-1.451c0-0.782,0.634-1.572,1.414-1.572h3.793c0.781,0,1.413,0.79,1.413,1.572V54.379z
			 M31.953,54.379c0,0.781-0.632,1.414-1.413,1.414h-4.014c-0.78,0-1.413-0.633-1.413-1.414v-1.451c0-0.782,0.633-1.572,1.413-1.572
			h3.33c1.305,0,1.72,0.771,1.873,1.572L31.953,54.379z"/>
	</g>
</g>
</svg>
