<?xml version="1.0" encoding="utf-8"?>
<!DOCTYPE svg PUBLIC "-//W3C//DTD SVG 1.1//EN" "http://www.w3.org/Graphics/SVG/1.1/DTD/svg11.dtd">
<svg version="1.1" id="Layer_1" xmlns="http://www.w3.org/2000/svg" xmlns:xlink="http://www.w3.org/1999/xlink" x="0px" y="0px"
	 width="85.039px" height="79.37px" viewBox="-15.625 -0.69 85.039 79.37" enable-background="new -15.625 -0.69 85.039 79.37"
	 xml:space="preserve">
<g>
	<g>
		<defs>
			<rect id="SVGID_1_1-2tuoi" width="53.79" height="77.989"/>
		</defs>
		<clipPath id="SVGID_2_1-2tuoi">
			<use xlink:href="#SVGID_1_1-2tuoi"  overflow="visible"/>
		</clipPath>
		<path clip-path="url(#SVGID_2_1-2tuoi)" fill="#545456" d="M48.818,18.623c1.556-0.474,3.19,0.372,3.666,1.929
			c0.474,1.547-0.411,3.18-1.967,3.654l-28.168,5.068c-1.558,0.475-3.174-0.395-3.644-1.938c-0.477-1.564,0.38-3.188,1.937-3.664
			L48.818,18.623z"/>
	</g>
	<g>
		<defs>
			<rect id="SVGID_3_1-2tuoi" width="53.79" height="77.989"/>
		</defs>
		<clipPath id="SVGID_4_1-2tuoi">
			<use xlink:href="#SVGID_3_1-2tuoi"  overflow="visible"/>
		</clipPath>
		<path clip-path="url(#SVGID_4_1-2tuoi)" fill="#545456" d="M51.313,31.934c1.604,0.261,2.699,1.743,2.438,3.35
			c-0.258,1.596-1.772,2.671-3.376,2.41l-27.516-7.885c-1.609-0.261-2.673-1.755-2.414-3.347c0.262-1.614,1.748-2.694,3.355-2.433
			L51.313,31.934z"/>
	</g>
	<g>
		<defs>
			<rect id="SVGID_5_1-2tuoi" width="53.79" height="77.989"/>
		</defs>
		<clipPath id="SVGID_6_1-2tuoi">
			<use xlink:href="#SVGID_5_1-2tuoi"  overflow="visible"/>
		</clipPath>
		<path clip-path="url(#SVGID_6_1-2tuoi)" fill="#545456" d="M22.998,24.616c6.764,1.038,13.107-3.621,14.141-10.355
			C38.178,7.489,33.516,1.183,26.75,0.145c-6.762-1.037-13.048,3.589-14.087,10.361C11.63,17.241,16.234,23.579,22.998,24.616"/>
	</g>
	<g>
		<defs>
			<rect id="SVGID_7_1-2tuoi" width="53.79" height="77.989"/>
		</defs>
		<clipPath id="SVGID_8_1-2tuoi">
			<use xlink:href="#SVGID_7_1-2tuoi"  overflow="visible"/>
		</clipPath>
		<path clip-path="url(#SVGID_8_1-2tuoi)" fill="#545456" d="M12.067,62.838c1.805-1.354,4.342-0.989,5.69,0.81
			c1.348,1.795,0.992,4.335-0.813,5.69L6.502,77.176c-1.789,1.345-4.341,0.986-5.688-0.809c-1.351-1.8-0.979-4.347,0.809-5.688
			L12.067,62.838z"/>
	</g>
	<g>
		<defs>
			<rect id="SVGID_9_1-2tuoi" width="53.79" height="77.989"/>
		</defs>
		<clipPath id="SVGID_10_1-2tuoi">
			<use xlink:href="#SVGID_9_1-2tuoi"  overflow="visible"/>
		</clipPath>
		<path clip-path="url(#SVGID_10_1-2tuoi)" fill="#545456" d="M11.877,52.243c0.251-2.244,2.257-3.841,4.49-3.589
			c2.231,0.251,3.835,2.253,3.584,4.496l-1.458,12.978c-0.25,2.222-2.262,3.834-4.491,3.582c-2.234-0.252-3.834-2.27-3.585-4.49
			L11.877,52.243z"/>
	</g>
	<g>
		<defs>
			<rect id="SVGID_11_1-2tuoi" width="53.79" height="77.989"/>
		</defs>
		<clipPath id="SVGID_12_1-2tuoi">
			<use xlink:href="#SVGID_11_1-2tuoi"  overflow="visible"/>
		</clipPath>
		<path clip-path="url(#SVGID_12_1-2tuoi)" fill="#545456" d="M32.932,61.229c-0.471-2.208,0.93-4.354,3.129-4.822
			c2.194-0.467,4.35,0.926,4.817,3.135l2.715,12.771c0.466,2.188-0.934,4.354-3.129,4.819c-2.198,0.466-4.354-0.941-4.817-3.129
			L32.932,61.229z"/>
	</g>
	<g>
		<defs>
			<rect id="SVGID_13_1-2tuoi" width="53.79" height="77.989"/>
		</defs>
		<clipPath id="SVGID_14_1-2tuoi">
			<use xlink:href="#SVGID_13_1-2tuoi"  overflow="visible"/>
		</clipPath>
		<path clip-path="url(#SVGID_14_1-2tuoi)" fill="#545456" d="M23.523,56.062c-1.876-1.255-2.371-3.771-1.12-5.638
			c1.249-1.863,3.765-2.368,5.641-1.113l10.851,7.266c1.857,1.243,2.364,3.77,1.117,5.635c-1.254,1.869-3.781,2.361-5.638,1.119
			L23.523,56.062z"/>
	</g>
	<g>
		<defs>
			<rect id="SVGID_15_1-2tuoi" width="53.79" height="77.989"/>
		</defs>
		<clipPath id="SVGID_16_1-2tuoi">
			<use xlink:href="#SVGID_15_1-2tuoi"  overflow="visible"/>
		</clipPath>
		<path clip-path="url(#SVGID_16_1-2tuoi)" fill="#545456" d="M31.593,52.922c-0.696,4.539-4.456,4.341-9.006,3.645l-3.499-0.537
			c-4.55-0.697-8.201-1.638-7.504-6.175l2.961-19.311c1.8-6.596,4.975-7.678,9.524-6.98l3.5,0.536
			c4.548,0.698,9.715,3.162,6.986,9.513L31.593,52.922z"/>
	</g>
</g>
</svg>
