<svg width="44" height="43" viewBox="0 0 44 43" fill="none" xmlns="http://www.w3.org/2000/svg">
<path d="M34.0779 36.9263C31.7257 38.7924 28.787 39.7622 25.7862 39.6626C24.1123 39.6954 22.4555 39.3221 20.9574 38.5749C19.4592 37.8276 18.1642 36.7285 17.1835 35.3716C16.4863 34.3436 15.5639 33.488 14.4863 32.8702C13.4087 32.2524 12.2042 31.8885 10.9647 31.8062C10.5219 31.7766 10.078 31.8427 9.66305 32.0001C9.24811 32.1575 8.87204 32.4025 8.56029 32.7183C7.65947 33.9634 7.19987 35.4735 7.25434 37.0093V41.3209C7.29986 41.7262 7.49286 42.1004 7.79686 42.3722C8.10086 42.644 8.49439 42.7941 8.90215 42.7941C9.30992 42.7941 9.70344 42.644 10.0074 42.3722C10.3114 42.1004 10.5047 41.7262 10.5502 41.3209V36.8642C10.5558 36.2618 10.6682 35.6653 10.882 35.1022C12.2294 35.1022 13.0791 35.9728 14.5923 37.6104C15.8813 39.3053 17.5515 40.6727 19.4674 41.6019C21.3834 42.531 23.4914 42.9958 25.6204 42.9586C29.4233 43.0835 33.1448 41.8405 36.1093 39.4553C36.4437 39.1698 36.6528 38.7645 36.6915 38.3265C36.7303 37.8885 36.5956 37.4527 36.3165 37.1129C36.0323 36.8108 35.6464 36.6245 35.233 36.59C34.8196 36.5556 34.4082 36.6754 34.0779 36.9263Z" fill="url(#paint0_linear_1114_193)"/>
<path d="M10.9805 28.4894C12.6096 28.4686 14.1918 29.0353 15.4373 30.0856C16.3609 30.8995 17.5261 31.3874 18.754 31.4745C19.2484 31.5209 19.7472 31.459 20.2153 31.2933C20.6834 31.1275 21.1097 30.8619 21.4648 30.5147C21.8199 30.1675 22.095 29.7471 22.2713 29.2829C22.4475 28.8186 22.5206 28.3215 22.4853 27.8262V16.9018C22.543 16.4622 22.5113 16.0154 22.3922 15.5883C22.2732 15.1611 22.0693 14.7624 21.7925 14.416C21.5157 14.0695 21.1719 13.7825 20.7816 13.5721C20.3913 13.3616 19.9625 13.2322 19.5209 13.1913C18.9322 13.0817 18.3985 12.7745 18.0077 12.3207C15.4204 9.61845 13.9984 6.00777 14.0484 2.26696C14.0484 2.04918 14.0057 1.83353 13.9224 1.63233C13.839 1.43113 13.7168 1.24835 13.5628 1.09436C13.4088 0.940367 13.226 0.818187 13.0248 0.734848C12.8236 0.651508 12.608 0.608643 12.3902 0.608643C12.1724 0.608643 11.9568 0.651508 11.7556 0.734848C11.5544 0.818187 11.3716 0.940367 11.2176 1.09436C11.0636 1.24835 10.9414 1.43113 10.858 1.63233C10.7747 1.83353 10.7318 2.04918 10.7318 2.26696C10.6601 6.89937 12.4266 11.3715 15.6446 14.7045C16.5671 15.6907 17.7931 16.3402 19.1272 16.5494C19.143 16.6872 19.143 16.8262 19.1272 16.964V27.8883C19.1423 27.9845 19.1423 28.0824 19.1272 28.1785C18.9966 28.1975 18.8638 28.1975 18.7332 28.1785C18.4223 28.1785 18.0079 27.8883 17.3445 27.4115C15.5412 25.9483 13.2819 25.1635 10.9598 25.1935C9.62113 25.1645 8.29096 25.4129 7.05303 25.923C5.81509 26.4332 4.69626 27.194 3.76676 28.1578C1.63545 30.6774 0.512923 33.8972 0.615878 37.1958V41.3416C0.615878 41.7814 0.790721 42.2032 1.10172 42.5142C1.41272 42.8252 1.8345 42.9999 2.27432 42.9999C2.71414 42.9999 3.13592 42.8252 3.44692 42.5142C3.75792 42.2032 3.93251 41.7814 3.93251 41.3416V37.1958C3.84988 34.7737 4.64508 32.4033 6.17143 30.5209C6.78627 29.8647 7.53209 29.3448 8.3605 28.9948C9.18891 28.6449 10.0814 28.4727 10.9805 28.4894Z" fill="url(#paint1_linear_1114_193)"/>
<path d="M29.3371 16.5701L25.5229 23.3693C25.381 23.6235 25.3085 23.9106 25.3127 24.2017C25.3168 24.4928 25.3976 24.7776 25.5467 25.0276C25.6959 25.2776 25.9082 25.484 26.1624 25.6259C26.4166 25.7678 26.7035 25.8403 26.9946 25.8361H30.3115L28.1556 31.5574C28.1371 31.6253 28.1371 31.6968 28.1556 31.7647C28.1556 32.0135 28.3836 32.1792 28.6738 32.1792C28.8829 32.1785 29.0835 32.0968 29.2336 31.9513L36.4681 24.0949C36.637 23.9202 36.7501 23.6992 36.793 23.46C36.8358 23.2209 36.8063 22.9744 36.7084 22.752C36.6106 22.5296 36.4486 22.3413 36.2434 22.2113C36.0381 22.0813 35.7987 22.0154 35.5558 22.0219H31.1405L34.3329 16.5494L29.3371 16.5701Z" fill="url(#paint2_linear_1114_193)"/>
<path d="M38.7553 7.44929C36.7562 5.51037 34.0977 4.39955 31.3135 4.3399C28.6535 4.40515 26.089 5.34497 24.0168 7.01399C23.6296 7.29032 23.2284 7.54631 22.8146 7.78096C21.4806 6.29452 20.7424 4.36791 20.7417 2.37066C20.7417 2.15288 20.6987 1.93723 20.6154 1.73603C20.532 1.53483 20.4098 1.35199 20.2558 1.198C20.1018 1.044 19.919 0.921888 19.7178 0.838549C19.5166 0.755209 19.301 0.71228 19.0832 0.71228C18.8664 0.712263 18.6517 0.755337 18.4516 0.838928C18.2516 0.922519 18.0703 1.04499 17.918 1.19926C17.7656 1.35353 17.6453 1.53646 17.5642 1.73755C17.4831 1.93863 17.4428 2.15387 17.4455 2.37066C17.4286 5.16005 18.448 7.85635 20.3062 9.93682C20.6605 10.4405 21.1593 10.8251 21.7366 11.0397C22.3139 11.2543 22.9427 11.289 23.5401 11.1391C24.4332 10.8533 25.2683 10.4111 26.0067 9.83314C27.5298 8.56035 29.4334 7.83101 31.417 7.76021C33.3176 7.84686 35.1223 8.62029 36.4958 9.93682C38.5688 12.0097 39.7087 15.3679 39.7087 19.9283V20.0527C39.8895 24.0209 39.2618 27.9844 37.8638 31.7025C37.722 32.0943 37.7331 32.525 37.8944 32.909C38.0557 33.2931 38.3555 33.6024 38.7345 33.7755C38.9391 33.8567 39.1571 33.8989 39.3772 33.8998C39.7046 33.9009 40.0248 33.805 40.2978 33.6242C40.5708 33.4434 40.7843 33.1859 40.9112 32.8841C42.5142 28.7111 43.2205 24.2473 42.9841 19.7832C42.9841 14.29 41.5537 10.1441 38.7553 7.44929Z" fill="url(#paint3_linear_1114_193)"/>
<defs>
<linearGradient id="paint0_linear_1114_193" x1="7.36663" y1="33.8629" x2="14.4327" y2="48.1795" gradientUnits="userSpaceOnUse">
<stop stop-color="#0C3098"/>
<stop offset="0.546875" stop-color="#206AB1"/>
<stop offset="1" stop-color="#0C3098"/>
</linearGradient>
<linearGradient id="paint1_linear_1114_193" x1="0.696125" y1="8.44166" x2="23.8741" y2="17.6438" gradientUnits="userSpaceOnUse">
<stop stop-color="#0C3098"/>
<stop offset="0.546875" stop-color="#206AB1"/>
<stop offset="1" stop-color="#0C3098"/>
</linearGradient>
<linearGradient id="paint2_linear_1114_193" x1="25.358" y1="19.4375" x2="36.033" y2="25.4723" gradientUnits="userSpaceOnUse">
<stop stop-color="#0C3098"/>
<stop offset="0.546875" stop-color="#206AB1"/>
<stop offset="1" stop-color="#0C3098"/>
</linearGradient>
<linearGradient id="paint3_linear_1114_193" x1="17.5466" y1="6.84464" x2="40.746" y2="20.586" gradientUnits="userSpaceOnUse">
<stop stop-color="#0C3098"/>
<stop offset="0.546875" stop-color="#206AB1"/>
<stop offset="1" stop-color="#0C3098"/>
</linearGradient>
</defs>
</svg>
