<svg width="40" height="47" viewBox="0 0 40 47" fill="none" xmlns="http://www.w3.org/2000/svg">
<path d="M37.0718 38.0796H32.9722V36.9028H37.0718V38.0796ZM11.8669 9.37292C14.4101 9.37292 16.4979 7.36108 16.4979 4.85577C16.4979 2.38842 14.4101 0.338623 11.8669 0.338623C9.3236 0.338623 7.23584 2.35046 7.23584 4.85577C7.2738 7.36108 9.3236 9.37292 11.8669 9.37292ZM37.0718 43.6596H32.9722V44.8363H37.0718V43.6596ZM37.0718 16.3669H32.9722V17.5436H37.0718V16.3669ZM37.0718 30.0702H32.9722V31.2469H37.0718V30.0702ZM37.0718 23.2375H32.9722V24.4143H37.0718V23.2375ZM32.9722 26.8057H39.8049V25.629H32.9722V26.8057ZM32.9722 20.011H39.8049V18.8343H32.9722V20.011ZM32.9722 33.5624H39.8049V32.3857H32.9722V33.5624ZM32.9722 47H39.8049V45.8233H32.9722V47ZM29.2901 11.5935L31.3399 11.3658V47H1.16237V45.2918H7.50156C6.70441 44.8363 6.21094 43.9633 6.21094 43.0522V20.5709C5.37584 22.0513 4.54074 23.5317 3.70564 25.0121C2.87053 25.7713 1.61788 25.8472 0.820734 25.2399C0.213386 24.7844 -0.0902874 23.9872 0.0235903 23.1901L5.37584 12.1439C5.86931 11.157 6.85625 10.5117 7.99503 10.5117H15.7007C16.8016 10.5117 17.8265 11.119 18.282 12.106C20.0661 15.7121 21.8501 19.3182 23.5963 22.9244C23.7481 23.8733 23.2167 24.8223 22.3816 25.2399C21.6224 25.6195 20.7114 25.5056 19.9901 25.0121L17.4848 20.5709V43.0902C17.4848 43.6596 17.295 44.229 16.9154 44.6845C16.7256 44.9502 16.4599 45.14 16.1563 45.2918H29.2522V11.5935H29.2901ZM13.613 45.2918C13.3473 45.14 13.1195 44.9502 12.9297 44.7224C12.5122 44.2669 12.3224 43.6596 12.3224 43.0522V28.6942H11.3734V43.0522C11.3734 43.8494 10.9938 44.6465 10.3105 45.14C10.2346 45.2159 10.1587 45.2539 10.0448 45.2918H13.613ZM32.9722 40.3192H39.8049V39.1424H32.9722V40.3192ZM30.391 12.5425H24.6971L30.391 3.32554V12.5425ZM30.391 3.32554L36.0849 12.5425H30.391V3.32554Z" fill="url(#paint0_linear_1114_206)"/>
<defs>
<linearGradient id="paint0_linear_1114_206" x1="0.157645" y1="5.31681" x2="61.2177" y2="58.2146" gradientUnits="userSpaceOnUse">
<stop stop-color="#0C3098"/>
<stop offset="0.546875" stop-color="#206AB1"/>
<stop offset="1" stop-color="#0C3098"/>
</linearGradient>
</defs>
</svg>
