<svg width="63" height="57" viewBox="0 0 63 57" fill="none" xmlns="http://www.w3.org/2000/svg">
<g filter="url(#filter0_d_1114_219)">
<path d="M56.7464 13.9612C56.1996 17.2417 53.6481 19.7933 50.3676 19.7933C51.0966 20.7045 51.6433 21.9803 51.4611 23.8028C51.4611 23.9851 51.2788 24.1673 50.9143 24.1673C50.5498 24.1673 50.3676 23.8028 50.5498 23.6205C50.9143 20.8868 48.9095 19.611 48.7273 19.4288C48.545 19.2465 48.3628 18.882 48.545 18.6998C48.7273 18.5175 49.0918 18.3353 49.2741 18.5175C49.6386 18.5175 50.0031 18.6998 50.3676 18.6998C53.4658 18.6998 55.8351 16.1482 55.8351 12.8677C55.8351 12.6855 55.8351 12.5032 55.8351 12.321V12.1387C55.8351 11.9565 55.8351 11.7742 55.8351 11.7742C55.6529 11.0452 55.4706 10.4984 55.1061 9.95169C54.5593 8.85818 53.6481 7.76467 52.3723 7.21792L52.0078 7.03566C52.0078 7.03566 51.8256 7.03566 51.8256 6.85341H51.6433C51.6433 6.85341 51.6433 6.85341 51.4611 6.85341H51.2788H51.0966H50.9143H50.7321C50.5498 6.85341 50.5498 6.85341 50.3676 6.85341C50.1853 6.85341 50.1853 6.85341 50.0031 6.85341H49.0918L48.9096 6.67116C47.816 4.84865 45.9935 3.93739 43.8065 3.93739C43.2598 3.93739 42.8953 3.93739 42.3485 4.11964H41.984L41.8017 3.93739C40.1615 2.11487 37.9745 1.20362 35.6052 1.20362C34.3294 1.20362 33.2359 1.38587 32.1424 1.93262L31.9602 2.11487L31.7779 1.93262C30.6844 0.47461 29.4086 0.110107 28.3151 0.110107C27.2216 0.110107 25.9459 0.47461 24.8524 1.20362C26.8571 2.29713 28.1329 4.48414 28.3151 7.03566C28.3151 7.21792 28.3151 7.40017 28.3151 7.40017C28.3151 7.58242 28.1329 7.94692 27.7684 7.94692C27.4039 7.94692 27.2216 7.76467 27.2216 7.40017C27.2216 7.40017 27.2216 7.21792 27.2216 7.03566C27.2216 7.03566 27.2216 7.03566 27.2216 6.85341C27.0394 4.11964 25.0346 1.75037 22.6653 1.38587H22.4831H22.3008C22.1186 1.38587 21.9363 1.38587 21.9363 1.38587C19.5671 1.38587 17.5623 2.66163 16.4688 4.66639V5.0309H16.2865H16.1043C12.4592 5.3954 9.54323 8.12917 8.99647 11.7742V11.9565L8.63197 12.1387C6.2627 13.2322 4.80469 15.4192 4.80469 17.9708C4.80469 18.882 4.98694 19.7933 5.35144 20.7045V20.8868L5.16919 21.069C4.98694 21.9803 4.80469 22.8915 4.80469 23.9851C4.80469 26.7188 6.44495 29.0881 8.81422 30.1816C8.99647 26.5366 11.3657 23.4383 14.6463 21.9803L15.0108 21.798C15.193 21.6158 15.5575 21.798 15.7398 22.1625C15.922 22.3448 15.7398 22.7093 15.5575 22.8915C12.277 23.9851 9.90773 27.2656 9.90773 30.9106C9.90773 31.0929 9.90773 31.2751 9.90773 31.4574C9.90773 31.6396 9.90773 31.8219 9.90773 32.0041C9.90773 32.5509 10.09 33.0976 10.09 33.6444C11.1835 37.6539 14.464 40.5699 18.4735 40.9344C18.8381 40.9344 19.0203 40.9344 19.3848 40.9344C19.7493 40.9344 20.1138 40.9344 20.2961 40.9344H21.0251L20.4783 44.7617C20.2961 46.0375 20.6606 47.3132 21.5718 48.2245C23.0298 49.6825 25.3991 48.9535 25.9459 47.131V46.9487C25.9459 46.5842 26.1281 46.402 26.1281 46.0375C26.4926 41.1167 30.8667 37.2894 35.0584 36.7427C35.0584 36.7427 35.0584 36.7427 35.2407 36.7427C35.4229 36.7427 35.6052 36.7427 35.7874 36.7427H35.9697C36.1519 36.7427 36.3342 36.7427 36.5164 36.7427C36.881 36.7427 37.2455 36.7427 37.61 36.5604C39.797 36.1959 41.8017 35.1024 43.0775 33.8266C43.6243 33.2799 43.9888 32.5509 44.3533 31.8219C44.7178 30.9106 44.9 29.8171 44.7178 28.9058C44.3533 26.7188 42.713 25.0786 40.3437 24.1673C40.3437 23.9851 40.3437 23.9851 40.3437 23.8028C40.3437 23.6206 40.526 23.4383 40.7082 23.256C43.2598 24.1673 45.2645 26.1721 45.629 28.7236C45.8113 29.4526 45.8113 29.9993 45.629 30.7284C46.1758 30.7284 46.7225 30.5461 47.2693 30.3639H47.4515H47.6338C48.1805 30.3639 48.7273 30.5461 49.2741 30.5461C54.5593 30.5461 58.9334 26.1721 58.9334 20.8868C58.9334 17.9708 58.2044 15.7837 56.7464 13.9612ZM13.5528 14.6902C13.5528 14.6902 13.006 15.966 13.006 17.0595C13.006 17.424 12.8238 17.6063 12.4592 17.6063H12.277C12.0947 17.6063 11.7302 17.424 11.7302 17.0595C11.7302 15.6015 12.277 14.3257 12.277 14.3257C12.277 14.3257 13.006 12.321 15.0108 11.0452C17.0155 9.76944 18.8381 9.95169 18.8381 9.95169C18.8381 9.95169 18.8381 9.95169 19.0203 9.95169C19.3848 9.95169 19.5671 10.1339 19.5671 10.4984C19.5671 10.8629 19.3848 11.0452 19.0203 11.0452C19.0203 11.0452 17.38 11.0452 15.7398 11.9565C14.0995 13.05 13.5528 14.6902 13.5528 14.6902ZM24.8524 33.2799C24.8524 33.2799 23.0298 34.5556 20.8428 34.5556C20.2961 34.5556 19.7493 34.5556 19.0203 34.3734C19.0203 34.3734 18.8381 34.3734 18.6558 34.1911C18.109 34.0089 16.2865 33.2799 15.0108 31.4574C14.8285 31.2751 14.8285 30.9106 15.193 30.7284C15.3753 30.5461 15.5575 30.7284 15.7398 30.7284C15.922 30.7284 16.1043 30.7284 16.1043 30.9106C17.1978 32.3686 18.4736 32.9154 19.0203 33.0976C21.5718 33.8266 23.9411 32.3686 23.9411 32.3686C24.1233 32.1864 24.3056 32.3686 24.4879 32.3686C24.6701 32.3686 24.8524 32.3686 24.8524 32.5509C25.2169 32.7331 25.2169 33.0976 24.8524 33.2799ZM47.4515 12.5032C46.358 12.5032 45.629 12.1387 45.4468 12.1387C44.7178 11.9565 44.171 11.592 43.6243 11.2274C42.3485 10.3162 41.6195 9.04043 41.6195 9.04043C41.4372 8.85818 41.6195 8.49368 41.8017 8.31142C41.984 8.12917 42.3485 8.31142 42.3485 8.49368C42.5308 8.49368 42.5307 8.67593 42.713 8.67593C42.713 8.67593 43.2598 9.58718 44.171 10.3162C44.5355 10.4984 45.0823 10.8629 45.4468 11.0452C45.4468 11.0452 47.6338 11.7742 49.8208 10.4984C50.0031 10.3162 50.3676 10.4984 50.5498 10.6807C50.7321 10.6807 50.7321 10.8629 50.9143 10.8629C51.0966 11.0452 50.9143 11.4097 50.7321 11.592C49.4563 12.321 48.3628 12.5032 47.4515 12.5032Z" fill="#E30929"/>
<path d="M56.7464 13.9612C56.1996 17.2417 53.6481 19.7933 50.3676 19.7933C51.0966 20.7045 51.6433 21.9803 51.4611 23.8028C51.4611 23.9851 51.2788 24.1673 50.9143 24.1673C50.5498 24.1673 50.3676 23.8028 50.5498 23.6205C50.9143 20.8868 48.9095 19.611 48.7273 19.4288C48.545 19.2465 48.3628 18.882 48.545 18.6998C48.7273 18.5175 49.0918 18.3353 49.2741 18.5175C49.6386 18.5175 50.0031 18.6998 50.3676 18.6998C53.4658 18.6998 55.8351 16.1482 55.8351 12.8677C55.8351 12.6855 55.8351 12.5032 55.8351 12.321V12.1387C55.8351 11.9565 55.8351 11.7742 55.8351 11.7742C55.6529 11.0452 55.4706 10.4984 55.1061 9.95169C54.5593 8.85818 53.6481 7.76467 52.3723 7.21792L52.0078 7.03566C52.0078 7.03566 51.8256 7.03566 51.8256 6.85341H51.6433C51.6433 6.85341 51.6433 6.85341 51.4611 6.85341H51.2788H51.0966H50.9143H50.7321C50.5498 6.85341 50.5498 6.85341 50.3676 6.85341C50.1853 6.85341 50.1853 6.85341 50.0031 6.85341H49.0918L48.9096 6.67116C47.816 4.84865 45.9935 3.93739 43.8065 3.93739C43.2598 3.93739 42.8953 3.93739 42.3485 4.11964H41.984L41.8017 3.93739C40.1615 2.11487 37.9745 1.20362 35.6052 1.20362C34.3294 1.20362 33.2359 1.38587 32.1424 1.93262L31.9602 2.11487L31.7779 1.93262C30.6844 0.47461 29.4086 0.110107 28.3151 0.110107C27.2216 0.110107 25.9459 0.47461 24.8524 1.20362C26.8571 2.29713 28.1329 4.48414 28.3151 7.03566C28.3151 7.21792 28.3151 7.40017 28.3151 7.40017C28.3151 7.58242 28.1329 7.94692 27.7684 7.94692C27.4039 7.94692 27.2216 7.76467 27.2216 7.40017C27.2216 7.40017 27.2216 7.21792 27.2216 7.03566C27.2216 7.03566 27.2216 7.03566 27.2216 6.85341C27.0394 4.11964 25.0346 1.75037 22.6653 1.38587H22.4831H22.3008C22.1186 1.38587 21.9363 1.38587 21.9363 1.38587C19.5671 1.38587 17.5623 2.66163 16.4688 4.66639V5.0309H16.2865H16.1043C12.4592 5.3954 9.54323 8.12917 8.99647 11.7742V11.9565L8.63197 12.1387C6.2627 13.2322 4.80469 15.4192 4.80469 17.9708C4.80469 18.882 4.98694 19.7933 5.35144 20.7045V20.8868L5.16919 21.069C4.98694 21.9803 4.80469 22.8915 4.80469 23.9851C4.80469 26.7188 6.44495 29.0881 8.81422 30.1816C8.99647 26.5366 11.3657 23.4383 14.6463 21.9803L15.0108 21.798C15.193 21.6158 15.5575 21.798 15.7398 22.1625C15.922 22.3448 15.7398 22.7093 15.5575 22.8915C12.277 23.9851 9.90773 27.2656 9.90773 30.9106C9.90773 31.0929 9.90773 31.2751 9.90773 31.4574C9.90773 31.6396 9.90773 31.8219 9.90773 32.0041C9.90773 32.5509 10.09 33.0976 10.09 33.6444C11.1835 37.6539 14.464 40.5699 18.4735 40.9344C18.8381 40.9344 19.0203 40.9344 19.3848 40.9344C19.7493 40.9344 20.1138 40.9344 20.2961 40.9344H21.0251L20.4783 44.7617C20.2961 46.0375 20.6606 47.3132 21.5718 48.2245C23.0298 49.6825 25.3991 48.9535 25.9459 47.131V46.9487C25.9459 46.5842 26.1281 46.402 26.1281 46.0375C26.4926 41.1167 30.8667 37.2894 35.0584 36.7427C35.0584 36.7427 35.0584 36.7427 35.2407 36.7427C35.4229 36.7427 35.6052 36.7427 35.7874 36.7427H35.9697C36.1519 36.7427 36.3342 36.7427 36.5164 36.7427C36.881 36.7427 37.2455 36.7427 37.61 36.5604C39.797 36.1959 41.8017 35.1024 43.0775 33.8266C43.6243 33.2799 43.9888 32.5509 44.3533 31.8219C44.7178 30.9106 44.9 29.8171 44.7178 28.9058C44.3533 26.7188 42.713 25.0786 40.3437 24.1673C40.3437 23.9851 40.3437 23.9851 40.3437 23.8028C40.3437 23.6206 40.526 23.4383 40.7082 23.256C43.2598 24.1673 45.2645 26.1721 45.629 28.7236C45.8113 29.4526 45.8113 29.9993 45.629 30.7284C46.1758 30.7284 46.7225 30.5461 47.2693 30.3639H47.4515H47.6338C48.1805 30.3639 48.7273 30.5461 49.2741 30.5461C54.5593 30.5461 58.9334 26.1721 58.9334 20.8868C58.9334 17.9708 58.2044 15.7837 56.7464 13.9612ZM13.5528 14.6902C13.5528 14.6902 13.006 15.966 13.006 17.0595C13.006 17.424 12.8238 17.6063 12.4592 17.6063H12.277C12.0947 17.6063 11.7302 17.424 11.7302 17.0595C11.7302 15.6015 12.277 14.3257 12.277 14.3257C12.277 14.3257 13.006 12.321 15.0108 11.0452C17.0155 9.76944 18.8381 9.95169 18.8381 9.95169C18.8381 9.95169 18.8381 9.95169 19.0203 9.95169C19.3848 9.95169 19.5671 10.1339 19.5671 10.4984C19.5671 10.8629 19.3848 11.0452 19.0203 11.0452C19.0203 11.0452 17.38 11.0452 15.7398 11.9565C14.0995 13.05 13.5528 14.6902 13.5528 14.6902ZM24.8524 33.2799C24.8524 33.2799 23.0298 34.5556 20.8428 34.5556C20.2961 34.5556 19.7493 34.5556 19.0203 34.3734C19.0203 34.3734 18.8381 34.3734 18.6558 34.1911C18.109 34.0089 16.2865 33.2799 15.0108 31.4574C14.8285 31.2751 14.8285 30.9106 15.193 30.7284C15.3753 30.5461 15.5575 30.7284 15.7398 30.7284C15.922 30.7284 16.1043 30.7284 16.1043 30.9106C17.1978 32.3686 18.4736 32.9154 19.0203 33.0976C21.5718 33.8266 23.9411 32.3686 23.9411 32.3686C24.1233 32.1864 24.3056 32.3686 24.4879 32.3686C24.6701 32.3686 24.8524 32.3686 24.8524 32.5509C25.2169 32.7331 25.2169 33.0976 24.8524 33.2799ZM47.4515 12.5032C46.358 12.5032 45.629 12.1387 45.4468 12.1387C44.7178 11.9565 44.171 11.592 43.6243 11.2274C42.3485 10.3162 41.6195 9.04043 41.6195 9.04043C41.4372 8.85818 41.6195 8.49368 41.8017 8.31142C41.984 8.12917 42.3485 8.31142 42.3485 8.49368C42.5308 8.49368 42.5307 8.67593 42.713 8.67593C42.713 8.67593 43.2598 9.58718 44.171 10.3162C44.5355 10.4984 45.0823 10.8629 45.4468 11.0452C45.4468 11.0452 47.6338 11.7742 49.8208 10.4984C50.0031 10.3162 50.3676 10.4984 50.5498 10.6807C50.7321 10.6807 50.7321 10.8629 50.9143 10.8629C51.0966 11.0452 50.9143 11.4097 50.7321 11.592C49.4563 12.321 48.3628 12.5032 47.4515 12.5032Z" fill="url(#paint0_linear_1114_219)"/>
<path d="M56.7464 13.9612C56.1996 17.2417 53.6481 19.7933 50.3676 19.7933C51.0966 20.7045 51.6433 21.9803 51.4611 23.8028C51.4611 23.9851 51.2788 24.1673 50.9143 24.1673C50.5498 24.1673 50.3676 23.8028 50.5498 23.6205C50.9143 20.8868 48.9095 19.611 48.7273 19.4288C48.545 19.2465 48.3628 18.882 48.545 18.6998C48.7273 18.5175 49.0918 18.3353 49.2741 18.5175C49.6386 18.5175 50.0031 18.6998 50.3676 18.6998C53.4658 18.6998 55.8351 16.1482 55.8351 12.8677C55.8351 12.6855 55.8351 12.5032 55.8351 12.321V12.1387C55.8351 11.9565 55.8351 11.7742 55.8351 11.7742C55.6529 11.0452 55.4706 10.4984 55.1061 9.95169C54.5593 8.85818 53.6481 7.76467 52.3723 7.21792L52.0078 7.03566C52.0078 7.03566 51.8256 7.03566 51.8256 6.85341H51.6433C51.6433 6.85341 51.6433 6.85341 51.4611 6.85341H51.2788H51.0966H50.9143H50.7321C50.5498 6.85341 50.5498 6.85341 50.3676 6.85341C50.1853 6.85341 50.1853 6.85341 50.0031 6.85341H49.0918L48.9096 6.67116C47.816 4.84865 45.9935 3.93739 43.8065 3.93739C43.2598 3.93739 42.8953 3.93739 42.3485 4.11964H41.984L41.8017 3.93739C40.1615 2.11487 37.9745 1.20362 35.6052 1.20362C34.3294 1.20362 33.2359 1.38587 32.1424 1.93262L31.9602 2.11487L31.7779 1.93262C30.6844 0.47461 29.4086 0.110107 28.3151 0.110107C27.2216 0.110107 25.9459 0.47461 24.8524 1.20362C26.8571 2.29713 28.1329 4.48414 28.3151 7.03566C28.3151 7.21792 28.3151 7.40017 28.3151 7.40017C28.3151 7.58242 28.1329 7.94692 27.7684 7.94692C27.4039 7.94692 27.2216 7.76467 27.2216 7.40017C27.2216 7.40017 27.2216 7.21792 27.2216 7.03566C27.2216 7.03566 27.2216 7.03566 27.2216 6.85341C27.0394 4.11964 25.0346 1.75037 22.6653 1.38587H22.4831H22.3008C22.1186 1.38587 21.9363 1.38587 21.9363 1.38587C19.5671 1.38587 17.5623 2.66163 16.4688 4.66639V5.0309H16.2865H16.1043C12.4592 5.3954 9.54323 8.12917 8.99647 11.7742V11.9565L8.63197 12.1387C6.2627 13.2322 4.80469 15.4192 4.80469 17.9708C4.80469 18.882 4.98694 19.7933 5.35144 20.7045V20.8868L5.16919 21.069C4.98694 21.9803 4.80469 22.8915 4.80469 23.9851C4.80469 26.7188 6.44495 29.0881 8.81422 30.1816C8.99647 26.5366 11.3657 23.4383 14.6463 21.9803L15.0108 21.798C15.193 21.6158 15.5575 21.798 15.7398 22.1625C15.922 22.3448 15.7398 22.7093 15.5575 22.8915C12.277 23.9851 9.90773 27.2656 9.90773 30.9106C9.90773 31.0929 9.90773 31.2751 9.90773 31.4574C9.90773 31.6396 9.90773 31.8219 9.90773 32.0041C9.90773 32.5509 10.09 33.0976 10.09 33.6444C11.1835 37.6539 14.464 40.5699 18.4735 40.9344C18.8381 40.9344 19.0203 40.9344 19.3848 40.9344C19.7493 40.9344 20.1138 40.9344 20.2961 40.9344H21.0251L20.4783 44.7617C20.2961 46.0375 20.6606 47.3132 21.5718 48.2245C23.0298 49.6825 25.3991 48.9535 25.9459 47.131V46.9487C25.9459 46.5842 26.1281 46.402 26.1281 46.0375C26.4926 41.1167 30.8667 37.2894 35.0584 36.7427C35.0584 36.7427 35.0584 36.7427 35.2407 36.7427C35.4229 36.7427 35.6052 36.7427 35.7874 36.7427H35.9697C36.1519 36.7427 36.3342 36.7427 36.5164 36.7427C36.881 36.7427 37.2455 36.7427 37.61 36.5604C39.797 36.1959 41.8017 35.1024 43.0775 33.8266C43.6243 33.2799 43.9888 32.5509 44.3533 31.8219C44.7178 30.9106 44.9 29.8171 44.7178 28.9058C44.3533 26.7188 42.713 25.0786 40.3437 24.1673C40.3437 23.9851 40.3437 23.9851 40.3437 23.8028C40.3437 23.6206 40.526 23.4383 40.7082 23.256C43.2598 24.1673 45.2645 26.1721 45.629 28.7236C45.8113 29.4526 45.8113 29.9993 45.629 30.7284C46.1758 30.7284 46.7225 30.5461 47.2693 30.3639H47.4515H47.6338C48.1805 30.3639 48.7273 30.5461 49.2741 30.5461C54.5593 30.5461 58.9334 26.1721 58.9334 20.8868C58.9334 17.9708 58.2044 15.7837 56.7464 13.9612ZM13.5528 14.6902C13.5528 14.6902 13.006 15.966 13.006 17.0595C13.006 17.424 12.8238 17.6063 12.4592 17.6063H12.277C12.0947 17.6063 11.7302 17.424 11.7302 17.0595C11.7302 15.6015 12.277 14.3257 12.277 14.3257C12.277 14.3257 13.006 12.321 15.0108 11.0452C17.0155 9.76944 18.8381 9.95169 18.8381 9.95169C18.8381 9.95169 18.8381 9.95169 19.0203 9.95169C19.3848 9.95169 19.5671 10.1339 19.5671 10.4984C19.5671 10.8629 19.3848 11.0452 19.0203 11.0452C19.0203 11.0452 17.38 11.0452 15.7398 11.9565C14.0995 13.05 13.5528 14.6902 13.5528 14.6902ZM24.8524 33.2799C24.8524 33.2799 23.0298 34.5556 20.8428 34.5556C20.2961 34.5556 19.7493 34.5556 19.0203 34.3734C19.0203 34.3734 18.8381 34.3734 18.6558 34.1911C18.109 34.0089 16.2865 33.2799 15.0108 31.4574C14.8285 31.2751 14.8285 30.9106 15.193 30.7284C15.3753 30.5461 15.5575 30.7284 15.7398 30.7284C15.922 30.7284 16.1043 30.7284 16.1043 30.9106C17.1978 32.3686 18.4736 32.9154 19.0203 33.0976C21.5718 33.8266 23.9411 32.3686 23.9411 32.3686C24.1233 32.1864 24.3056 32.3686 24.4879 32.3686C24.6701 32.3686 24.8524 32.3686 24.8524 32.5509C25.2169 32.7331 25.2169 33.0976 24.8524 33.2799ZM47.4515 12.5032C46.358 12.5032 45.629 12.1387 45.4468 12.1387C44.7178 11.9565 44.171 11.592 43.6243 11.2274C42.3485 10.3162 41.6195 9.04043 41.6195 9.04043C41.4372 8.85818 41.6195 8.49368 41.8017 8.31142C41.984 8.12917 42.3485 8.31142 42.3485 8.49368C42.5308 8.49368 42.5307 8.67593 42.713 8.67593C42.713 8.67593 43.2598 9.58718 44.171 10.3162C44.5355 10.4984 45.0823 10.8629 45.4468 11.0452C45.4468 11.0452 47.6338 11.7742 49.8208 10.4984C50.0031 10.3162 50.3676 10.4984 50.5498 10.6807C50.7321 10.6807 50.7321 10.8629 50.9143 10.8629C51.0966 11.0452 50.9143 11.4097 50.7321 11.592C49.4563 12.321 48.3628 12.5032 47.4515 12.5032Z" fill="url(#paint1_linear_1114_219)"/>
<path d="M18.7976 27.1826C22.1052 27.1826 24.2016 25.2105 24.2016 22.1047C24.2016 19.0611 22.1518 17.1355 18.8597 17.1355H16.2043C15.2571 17.1355 14.5738 17.7411 14.5738 18.8747V25.4745C14.5738 26.4217 15.3658 27.1826 16.313 27.1826H18.7976ZM17.664 24.5427V19.7754H18.7666C20.2107 19.7754 21.1269 20.614 21.1269 22.1202C21.1269 23.6731 20.1641 24.5427 18.72 24.5427H17.664ZM27.0656 27.2603C27.9818 27.2603 28.4321 26.7789 28.4321 25.8161V23.4402H31.6466V25.8161C31.6466 26.7789 32.0814 27.2603 32.951 27.2603H33.4013C34.3175 27.2603 34.7678 26.7789 34.7678 25.8161V18.502C34.7678 17.5393 34.3175 17.0579 33.4013 17.0579H32.951C32.0814 17.0579 31.6466 17.5393 31.6466 18.502V20.8314H28.4321V18.502C28.4321 17.5393 27.9818 17.0579 27.0656 17.0579H26.6153C25.7301 17.0579 25.2953 17.5393 25.2953 18.502V25.8161C25.2953 26.7789 25.7301 27.2603 26.6153 27.2603H27.0656ZM39.6624 22.8656L40.7495 19.9462L41.8209 22.8656H39.6624ZM42.38 25.1018L42.6595 25.8471C43.0943 26.9652 43.7776 27.3224 44.4453 27.3224C45.3926 27.3224 46.2311 26.6081 46.1069 26.3285L42.7216 17.9275C42.5508 17.415 42.2247 17.0579 40.796 17.0579C39.3674 17.0579 38.9792 17.415 38.8084 17.9275L35.5473 26.3596C35.4697 26.6546 36.2927 27.3224 37.1623 27.3224C37.83 27.3224 38.4823 26.9497 38.8549 25.8782L39.15 25.1018H42.38Z" fill="#FFF6A8"/>
</g>
<defs>
<filter id="filter0_d_1114_219" x="0.804688" y="0.110107" width="62.1287" height="56.89" filterUnits="userSpaceOnUse" color-interpolation-filters="sRGB">
<feFlood flood-opacity="0" result="BackgroundImageFix"/>
<feColorMatrix in="SourceAlpha" type="matrix" values="0 0 0 0 0 0 0 0 0 0 0 0 0 0 0 0 0 0 127 0" result="hardAlpha"/>
<feOffset dy="4"/>
<feGaussianBlur stdDeviation="2"/>
<feComposite in2="hardAlpha" operator="out"/>
<feColorMatrix type="matrix" values="0 0 0 0 0 0 0 0 0 0 0 0 0 0 0 0 0 0 0.25 0"/>
<feBlend mode="normal" in2="BackgroundImageFix" result="effect1_dropShadow_1114_219"/>
<feBlend mode="normal" in="SourceGraphic" in2="effect1_dropShadow_1114_219" result="shape"/>
</filter>
<linearGradient id="paint0_linear_1114_219" x1="-7.67015" y1="0.110108" x2="66.0448" y2="43.205" gradientUnits="userSpaceOnUse">
<stop stop-color="#FFF386"/>
<stop offset="0.32" stop-color="#BE9633"/>
<stop offset="0.71" stop-color="#FFF386"/>
<stop offset="1" stop-color="#BE9633"/>
</linearGradient>
<linearGradient id="paint1_linear_1114_219" x1="5.01906" y1="9.14395" x2="43.4862" y2="41.868" gradientUnits="userSpaceOnUse">
<stop stop-color="#0C3098"/>
<stop offset="0.546875" stop-color="#206AB1"/>
<stop offset="1" stop-color="#0C3098"/>
</linearGradient>
</defs>
</svg>
