<svg width="228" height="60" viewBox="0 0 228 60" fill="none" xmlns="http://www.w3.org/2000/svg">
<g clip-path="url(#clip0_54263_35972)">
<path d="M22.7 0V23.4473C21.3475 23.1001 19.9611 22.9236 18.5695 22.9214C13.9349 22.9214 9.49008 24.8747 6.2129 28.3515C2.93571 31.8283 1.0946 36.5439 1.0946 41.4608C1.0946 46.3778 2.93571 51.0933 6.2129 54.5701C9.49008 58.0469 13.9349 60.0002 18.5695 60.0002C19.9613 60.0014 21.3481 59.8249 22.7 59.4743C26.5051 58.4923 29.8891 56.1828 32.309 52.9162C34.7289 49.6497 36.0444 45.6155 36.0445 41.4608V0H22.7ZM18.5695 45.8428C17.4741 45.8428 16.4235 45.3812 15.6489 44.5594C14.8743 43.7376 14.4391 42.623 14.4391 41.4608C14.4391 40.2986 14.8743 39.184 15.6489 38.3622C16.4235 37.5404 17.4741 37.0788 18.5695 37.0788C19.665 37.0788 20.7156 37.5404 21.4902 38.3622C22.2648 39.184 22.7 40.2986 22.7 41.4608C22.7 42.623 22.2648 43.7376 21.4902 44.5594C20.7156 45.3812 19.665 45.8428 18.5695 45.8428Z" fill="white"/>
<path d="M54.4724 0H41.1279V14.1574H54.4724V0Z" fill="#01C38D"/>
<path d="M88.7765 22.9219L84.3945 37.0994L80.0125 22.9219H65.8551L77.3158 60.0006H91.4732L102.934 22.9219H88.7765Z" fill="white"/>
<path d="M122.485 22.9219H108.327V60.0006H122.485V22.9219Z" fill="white"/>
<path d="M146.417 22.9219C141.5 22.9219 136.785 24.8751 133.308 28.3519C129.831 31.8287 127.878 36.5443 127.878 41.4613V60.0006H142.035V41.4613C142.035 40.2991 142.497 39.1845 143.319 38.3627C144.14 37.5409 145.255 37.0792 146.417 37.0792C147.579 37.0792 148.694 37.5409 149.516 38.3627C150.338 39.1845 150.799 40.2991 150.799 41.4613V60.0006H164.957V41.4613C164.957 36.5443 163.003 31.8287 159.527 28.3519C156.05 24.8751 151.334 22.9219 146.417 22.9219Z" fill="white"/>
<path d="M188.889 45.8433C187.727 45.8433 186.612 45.3816 185.791 44.5598C184.969 43.738 184.507 42.6234 184.507 41.4613C184.507 40.2991 184.969 39.1845 185.791 38.3627C186.612 37.5409 187.727 37.0792 188.889 37.0792C189.755 37.0783 190.601 37.3341 191.321 37.814C192.041 38.294 192.602 38.9768 192.934 39.7759H207.354C206.932 35.17 204.805 30.888 201.389 27.7699C197.972 24.6518 193.514 22.9228 188.889 22.9219C183.972 22.9219 179.257 24.8751 175.78 28.3519C172.303 31.8287 170.35 36.5443 170.35 41.4613C170.35 46.3782 172.303 51.0938 175.78 54.5706C179.257 58.0474 183.972 60.0006 188.889 60.0006C193.515 60.0013 197.974 58.2727 201.39 55.1544C204.807 52.036 206.934 47.7531 207.354 43.1467H192.934C192.602 43.9458 192.041 44.6285 191.321 45.1085C190.601 45.5885 189.755 45.8442 188.889 45.8433Z" fill="white"/>
<path d="M226.905 22.9219H212.748V60.0006H226.905V22.9219Z" fill="white"/>
</g>
<defs>
<clipPath id="clip0_54263_35972">
<rect width="228" height="60.0003" fill="white"/>
</clipPath>
</defs>
</svg>
